<svg xmlns="http://www.w3.org/2000/svg" xml:space="preserve" x="0" y="0" version="1.1" viewBox="0 0 1000 1000"><path d="M657.93 281.33c-.27-14.43 4.04-29.63 12.95-41.05 3-9.68 30-12.54 37.9-17.33 1.78-1.07 5.33-1.14 7.37-1.66 3.11-.78 6.2-1.61 9.28-2.45 7.11-1.86 14.2-3.7 21.4-5.13 12.06-2.36 27.89-5.16 39 1.83 2.79 1.76 5.24 4.24 6.71 7.22 2.49 5.05.73 6.66-4.59 6.39-5.01-.25-9.53-.47-14.51.34-4.97.8-10.99.18-15.64 2.27-3.59 1.61-6.26 4.48-9.25 6.92-2.95 2.4-4.91 2.51-8.39 3.33-8.37 1.93-12.92 7.31-20.1 11.21-3.62 1.96-8.4 4.95-11 8.03-2.75 3.27-6.6 6.96-7.44 11.12-1.01 4.98-1.48 9.73-1.48 14.85 0 2.33.39 7.91-2.97 8.35-2.88.39-1-3.15-.88-4.92.17-2.36-.21-4.72-.35-7.06-.3-4.34-.61-7.79-.07-12.19.39-3.19.43-4.13 2.58-6.62 2.54-2.92 2.3-5.36 3.86-8.67 2.44-5.07 8.91-8.93 13.51-11.73 4.64-2.81 8.24-2.62 13.5-3.31 4.74-.62 8.82-3.89 13.46-5.08 4.71-1.24 6.68-5.3 10.91-7.2 5.51-2.49 11.08-1.54 16.76-2.47.72-.11 10.5-3.39 10.68-3.03-1.7-3.29-3.86-2.43-7.14-2.11l1.9-2.56c-2.46-6.62-70.09 17.92-78.09 25.34l-1.42.2c-22.89 31.26-33.43 79.01 11.58 94.67 14.93 1.21 23.47 11.56 41.12 8.58 5.71-.09 5.42 1.11 7.14 6.35l-1.07 3.69c-24.98 4.81-80.11-18.6-91.99-47.19-2.28-5.84-2.97-11.18-3.88-16.81l.4-.42c-.88-3.18-.66-9.34-1.75-11.7m74.05-41.65-3.9 1.4 3.9-1.4zM683.92 7.18c8.66 0 16.41 3.28 21.68 8.48-3.62-2.36-7.55-4.19-11.16-5.44-.97-.35-1.49 2.61.21 4.18 4.62 4.32 16.53 10.52 10.09 14.84-.09.16-.15.35-.24.52-.13-.03-.31-.08-.47-.11 1.21 3.14-24.94 25.37-33.12 21.77-.01 0-.03-.03-.03-.04-4.31-1.89-8.08-4.92-11.33-9.08-2.57-2.8-3.12-6.93 0-18 3.89-6.69 7.07-6.72 8.75-7.87 5.07-.93 10-5.04 8.38-7.83-.73-.04-1.44-.09-2.14-.09a33.43 33.43 0 0 1 9.38-1.33M533.43 395.05c15.19 13.01 18.53 21.51 19.3 28.83l-1.87 1.02-2.36-.32c-1.41-.96-2.4-2.36-3.6-3.45l-.84-1.16-2.8-5.82-.42-.65-.79-.91-.39-1.58h-.39l-2.26-3.86-1.18-.73-.95-1.22-3.18-3.46-2.47-3.25-.66-.75-.56-1.76c.76-.77.2-1.34.48-1.94l3.79.75c.32.2.8.09 1.15.26m-272.75 14.73c6.53 1.02 30.33 3.49 28.87-3.14-.89-4.03-5.13-3.77-.98-6.35 1.64-1.02 2.18.18 2.15-2.72-.02-1.32-1.17-2.67-1.14-3.89.12-4.46 2.7-7.92 6.79-10.06 2.05-1.07 4.02-1.53 5.96-3.22 3.92-3.37 8.87-5.33 12.99-8.51 1.36-1.05 13.26-9.69 13.21-10.45l.23 2.69.82.27c2.7-3.04 3-6.75 6.5-10.17l.93-1.19c1.16-.98 2.26-1.8 2.88-2.98l.15-1.77-.18-.18-1.77-.79-2.93.71c-2.37 2.46-6.93 6.19-9.49 8.16-1.09.6-2.24 1.23-3.26 1.47-3.51 1.13-2.97 3.79-6.76 3.06l-2.73 1 .12.75c1.45 1.62 1.62 1.63 1.07 3.59h-1.01l-2.56-1.89-1.11.2c-.41.13-.99.79-.81.96-1.07 2.15-1.05 4.13-1.6 6.09l-.41.23-1.38 1.2-5.26 1.45-1.5 1.62v.23c0 3.92-5.26 4.72-7.48 6.58-4.28 3.61-1.79 12.13-7.61 13.77-1.97.56-5.81-1.71-7.4-.53-3.05 2.29 3.25 2.47 3.81 2.98 3.1 2.85-2.89 2.5-4.36 3.62-1.36 1.02-1.42 2.65-3.09 3.43-1.66.77-4.3.24-5.92-.38-.59-4.09 3.58-5.6 4.45-9.12.49-2.04.4-4.28.3-6.38-.03-.6-.58-3.46-.37-3.7l2.69-3.52 1.3-6.72-.02-.83 1.64-3.55-.01-.81c.81-.95.96-1.55 1.37-2.33l5.13-7.74 2.86-3.99c4.4-5.12 6.12-10.04 10.5-15.41l.96-1.26c6.2-5.56 10.33-11.72 17.74-17.55l.16-.4c6.26-4.54 13.41-9.47 16.19-17.18.82-2.3 1.02-3.42 2.95-5.08 1.28-1.09 4.83-2.93 2.41-4.54-.82-.57-2.57-.13-3.28.42-.02 0-1.1.84-1.1.84l-2.16 1.38-2.7 2.18-2.33 1.85-.75.19-.93.97-2.61 1.62-1.68 1.41-1.52 1.02-.98.83-1.32.99-2.21 1.37-2.26 1.99-3.56 2.4-3.46 3.01v.4l-7.47 5.62-.82.59.01.41-1.5.84c-2.33 1.97-5.61 5.98-8.67 8.98-2.69 3.39-5.58 6.41-7.52 9.55l-3.36 5.93-1.57 1.56c-3.42 5.12-7.07 10.87-9.86 16.27l-1.19 2.8.02.69c-.97 1.85-1.53 3.21-1.91 4.8-2.03 5.93-3.86 11.43-5.69 16.92l-.57 1.45-.56 1.75c-.53 3.64 1.78 10.86 5.19 13.19.76.01 1.55.03 2.33.05m82 5.63c1.59-6.14 7.05-12.3 12.44-16.63l.7-.42 1.91-1.63c1.23-.44 2.39-1.15 3.56-1.41 2.16-.8 3.93-.84 5.86-1.28l1.19-.03 5.47.5.59.57 1.35.2 2.96 1.07 1.03.99c1.56 2.32 1.89 4.37 2.04 6.77-.05 3.37-.59 6.31-3.45 9.42l-.82.67-3.29 2.76c-2.9 2.05-5.58 3.27-8.52 3.91-2.92.63-5.68 1.51-8.43 1.86-3.11.7-6.03.92-9 .57l-3.13-1.05-1.67-1.98-.33-.76c-.67-1.15-.02-2.16-.7-3.34l.24-.76zm87.61-39.99.75-10 .57-4.9.54-2.35.75-1.2.39-1.19.8-1.41c2.99-3.57 7.15-4.6 10.67-3.48l2.98 1.29.73 1.21.42.94 1.46 1.7 5.17 6.6 2.96 2.31 2.29 2.94.01.13.38 1.39 1.03 1.75.63 2.69c2.02 3.54 1.5 7.25 2.54 10.77l.8 1.59.09 3.91c.77 1.29.45 2.93.82 4.22l.03 1.41c.66 3.87.56 7.75.4 11.68l-1.63 4.33-1.91 1.86-.98.37c-1.95.8-3.57 1.24-5.5 1.27-2.72.07-5.25-.12-8.04-1.38l-1.85-1.6c-2.3-.9-4.11-3.58-5.55-4.96l-1.75-1.73-3.66-4.46-.62-1.53-.59-.75-.84-.57-.74-1.94-.42-1c-1.02-1.32-1.05-2.92-1.08-4.25l-.55-1.19c.09-1.93-.35-3.35-.38-5.05l-.05-1.75-.77-3.93-.48-3.33.18-.41zm86.34 47.49-.78 3.02-.59.19-2.09.45-1.79-.37-.82-.39c-2.02-.66-3.58-2.46-5.02-4.14l-1.31-1.74-.45-1.16-1-1.24-2.25-3.81-1.75-2.68-1.47-1.63-.93-.57c-.83-1.09-.45-2.1-.66-3.12v-.5l.88-3.8.96-1.43 1.19-.02c2.18.79 4.14 2.47 5.95 4.06 2.39 1.67 2.99 3.66 4.56 5.39 2.42 3.9 5.25 7.49 7.37 13.49m-17.23-51.44c.48-.33.77-.33 1.35-.45.59.27 1.18.53 1.76.79.35.33.68.66 1.04.99 1.77 1.27 3.57 3.05 5.36 4.12 1.57 1.5 3.14 3.01 4.72 4.52.76 1.01.87 2.01.88 3.02.17 1.08-.12 2.08-.9 2.97-1.36.59-2.73.26-4.11-.46-1.74-1.59-4.04-3.11-4.38-5.62-.23-1.35-2.42-4.86-3.12-5.82-.89-.87-3.44-2.54-2.6-4.06m-150.01-38.62c3.8-4.72 10.08-8.03 5.91-23.21-1.14-2.86-2.32-9.62-5.93-10.53-1.04-.29-2.09-.43-3.36.46-.59.01-1.2.49-1.78 1.46l-.11.4-.87 7.42c-.06.25-.11.51-.15.76.06 3.67.37 7.59 1.92 10.96.12.33.27.66.41 1.01.14.64.3 1.27.45 1.92-.55 2.04-1.1 4.08-1.66 6.09l.24.23.17.36c.47.19.93.4 1.37.61.34.23.68.45 1.01.67.14.42.27.83.44 1.23.65.07 1.31.11 1.94.16m71.55-32.15c2.06-1.19 6.17.92 7.45 2.52 1.19 1.13 2.23 2.36 3 3.82.5.77.48 1.69.04 2.01-2.22 1.49-3.66.22-5.06-.56-.54-.38-1.06-.59-1.61-.99-2.09-1.8-4.83-3.6-3.82-6.8" fill="#3b6287" fill-rule="evenodd" clip-rule="evenodd"/><path d="M689.97 337.57c.27.18.54.37.81.55l-.3-.13-.51-.42zm44.23 19.17c1.17.22 2.3.44 3.45.63-1.15-.17-2.3-.36-3.45-.63m40.27-16.44c3.4 13.52-14.84 16.01-14.8 3.79.01-3.38-1.02-9 2.94-9.58.44-.81 1.78-2.64 2.71-2.88 2.49-.64 2.58 1.46 3.57 2.63 1.33 1.59 2.32 1 3.9 2.07 1.27.87 1.35 2.63 1.68 3.97m5.16-.09c-1.48 1.54-1.01 5.53 2.02 4.72.47-2.93-.75-3.54-2.63-5.31l.61.59zm8.63-.6c-3.03.31-6.12-3.94-8-6.02-.79-.9-7.04-7.28-2.24-6.47-.03-.03-.52-.19-.23 0 4.51.53 6.53-7.78 7.18-11.02.69-3.43 3.21-12.11 7.7-11.65.53-1.4 0-4.58.87-5.39 1.64-1.55 4.12.56 5.81-1.94 1.25-1.87.79-4.63.79-6.92 0-2.82 1.27-4.32 1.54-6.81 2.02-.2 1.46 4.35 1.46 6.2 0 2.63 1.18 5.27.92 7.7.94-.02 1.62.45 2.61.38 1.09 4.81 1.46 7.95-1.22 12.07-2.9 4.43-2.51 8.01-3.76 12.67-1.1 4.21-4.55 6.41-6.83 9.76-2.2 3.24-4.25 5.71-6.91 8.32l.31-.88zm15.77-86.04c-5.72-.95-4.65 6.77-2.6 9.76 1.5 2.17 2.17 2.93 2.31 5.72.12 2.56-.1 5.16.07 7.7 1.6.64 2.91.42 4.1 1.23 1.07.73 1.28 2.02 3.2 2.36 1.13-2.13-.72-4.76-1.12-6.82-.51-2.53-.27-5.1-.66-7.67-.48-3.1-1.15-11.33-4.71-12.56l-.59.28zM742.4 290.2c-1.07.02-1.76.34-1.73 1.44 2.54.51 5.31.92 7.34 2.5 1.05.83 3.18 4.39 3.07 5.84.42.05.88.08 1.32.03-.12.02-.16.12-.15.24 6.7.45 3.56-3.83-.26-5.36-2.93-1.17-6.31-4.77-9.29-5.28l-.3.59z" fill="#3b6287" fill-rule="evenodd" clip-rule="evenodd"/><path d="M781.66 347.45c0 4.55-3.68 8.24-8.23 8.24-4.56 0-8.25-3.69-8.25-8.24 0-4.55 3.69-8.24 8.25-8.24 4.55.01 8.23 3.7 8.23 8.24M697.83 30.62c0 4.55-3.68 8.24-8.23 8.24-4.56 0-8.24-3.69-8.24-8.24 0-4.55 3.68-8.24 8.24-8.24 4.55 0 8.23 3.69 8.23 8.24" fill="#004b1c"/><path d="M227.85 730.97c-4.67 0-11.86-1.02-15.84 1.13-5.05 2.71-5.69 7.53-1.01 10.2 4.86 2.78 11.59 1.47 16.85 2.24 7.43 1.1 11.26-1.6 18.6-1.77.34-5.24-3.54-6.4-7.27-7.84-3.69-1.43-6.27-2.44-9.64-4.54l-1.69.58zm40.31-314.54c-4.97-.01-9.25-1.2-14.5-1.2-4.8 0-5.1 1.8-5.48 6.61-.4 5.14 1.52 10.5 1.52 15.73 0 4.49 2.13 7.46 3.45 11.52 1.31 4.03 1.54 8.69 1.9 12.89.45 5.28-5.07 17.16 2.53 18.98 4.95 1.2 10.48-.01 15.4 1.04 3.61.78 6.5 3.52 10.26 3.75 3.67.23 12.16 1.11 10.74-5.31-.53-2.41-2.61-3.03-4.17-4.59-1.88-1.86-3.02-4.36-4.68-6.43-3.74-4.61-7.56-9.02-11.33-13.75-5.55-6.96-10.16-14.95-12.2-23.67-.61-2.59-.68-5.02-1.54-7.47-1.76-.64-5.3-2.44-5.78-4.5-.6-2.62 1.51-3.5 3.77-2.99 1.27.28 2.46 1.77 3.86 2.16 4.61 1.31 11.14-.37 15.97-.37-.01.01-.35 0-.36 0 .78-.16 1.7.01 2.51.04.35 1.16.69 3.15.34 4.43-.53 1.95-.87 1.37-2.08 2.74-1.27 1.43-4.53 6.18-3.29 8.26 2.72 4.56 6.34-12.8 10.1-8.84-.1.52.11.49.09 1.06 1.24.07 2.54.06 3.77 0 .24-2.94-.53-3.13-2.1-4.94-1.08-1.25-2.03-3.93-3.56-4.78-3.91-2.2-10.38 1.71-14.53-.06l-.61-.31z" fill="#3b6287" fill-rule="evenodd" clip-rule="evenodd"/><path d="m156.872 1007.984.28-5.433 22.99 1.18-.28 5.434zm-45.972-2.36.28-5.433 22.99 1.18-.28 5.434zm-45.966-2.39.28-5.432 22.99 1.185-.28 5.433zm-45.978-2.328.28-5.433 22.99 1.18-.28 5.434zm-45.973-2.4.28-5.433 22.99 1.186-.28 5.433z" fill="#ed1c24"/><path d="M664.34 599.48c0 3.89-3.16 7.06-7.05 7.06-3.89 0-7.06-3.17-7.06-7.06 0-3.89 3.16-7.05 7.06-7.05 3.9 0 7.05 3.16 7.05 7.05" fill="#fff"/><path d="M657.29 608.93c-5.21 0-9.45-4.24-9.45-9.45 0-5.21 4.24-9.45 9.45-9.45 5.21 0 9.45 4.24 9.45 9.45 0 5.21-4.24 9.45-9.45 9.45zm0-14.1c-2.57 0-4.66 2.08-4.66 4.65 0 2.57 2.09 4.66 4.66 4.66 2.57 0 4.65-2.09 4.65-4.66 0-2.57-2.08-4.65-4.65-4.65z" fill="#004b1c"/><path d="M690.71 739.2c0 3.89-3.16 7.06-7.05 7.06s-7.06-3.17-7.06-7.06c0-3.89 3.16-7.05 7.06-7.05s7.05 3.16 7.05 7.05" fill="#fff"/><path d="M778.34 348.17c0 1.13-.92 2.05-2.06 2.05-1.13 0-2.06-.92-2.06-2.05 0-1.14.93-2.06 2.06-2.06 1.14 0 2.06.92 2.06 2.06M694.26 31.42c0 1.13-.92 2.05-2.06 2.05-1.13 0-2.06-.92-2.06-2.05 0-1.14.93-2.06 2.06-2.06 1.14 0 2.06.92 2.06 2.06" fill="#f5ee6d"/><path d="M515.98 415.65c0 4.55-3.68 8.24-8.23 8.24-4.55 0-8.24-3.69-8.24-8.24 0-4.55 3.69-8.23 8.24-8.23a8.23 8.23 0 0 1 8.23 8.23" fill="#004b1c"/><path d="M512.36 415.16c0 1.14-.92 2.05-2.06 2.05-1.13 0-2.06-.91-2.06-2.05 0-1.14.93-2.06 2.06-2.06 1.14 0 2.06.92 2.06 2.06" fill="#f5ee6d"/><path d="M224.72 737.03a8.241 8.241 0 0 1-16.48 0c0-4.55 3.69-8.23 8.24-8.23 4.55 0 8.24 3.68 8.24 8.23m58.25-267.39c0 4.55-3.68 8.24-8.23 8.24-4.56 0-8.25-3.69-8.25-8.24 0-4.55 3.69-8.23 8.25-8.23 4.55 0 8.23 3.68 8.23 8.23" fill="#004b1c"/><path d="M650.73 962.6c.49-.43 1.25-.26 2.1.47.02.01.03.02.03.02.05.05.1.1.13.12-.04-.03-.09-.08-.13-.12 0 0-.01-.01-.03-.02 0-.02-.01-.02-.03-.02 3 .7 5.87 1.75 8.82 2.18 2.63.23 5.25.47 7.84.7 3.37.06 6.87-.49 10.19-1.22 3.1-.69 5.8-2.31 8.83-.31.72.66 1.44 1.35 2.18 2.03.3.33.59.63.86.97.32.06.64.13.94.2.07-.27.11-.57.13-.83.34-.45.65-.93.97-1.38.58-.17 1.14-.3 1.75-.41.35.37.68.74 1.05 1.11.21.95.46 1.76.5 2.76-.04.79-.11 1.55-.15 2.36.18 4.65.27 9.2.18 13.87.62 2.63-.64 4.14-2.4 5.14-5.17 1.61-10.45-1.14-15.77-1.34-2.28-.1-4.26-.95-6.53-1.87-2.59-1.5-3.78-3.63-4.69-5.72.45-3.94 3.09-7.39 3.12-11.17l-.18-.29c-.49-.05-.97-.12-1.43-.17-.91.6-1.21.85-2.31 1.03-1.05-.47-2.11-.95-3.16-1.43l-.24.05c-.71.2-1.4.43-2.09.64-1.19.4-1.47-.08-2.56-.64-.07.31-.12.64-.21.98.27.7 1.47 2.91 2.92 4.36.16.46.33.93.48 1.39.61.7.65 1.32.67 2.1-.27.41-.53.83-.76 1.27-1.32.38-2.36-.12-3.35-.7-.95-.95-1.91-1.89-2.88-2.84-.38-.65-.77-1.31-1.13-1.97-.83-.85-1.76-2.24-2.79-4.44-2.39-5.2-1.94-5.91-.87-6.86m2.26.62c.05.08.12.11.18.17-.05-.07-.13-.1-.18-.17m.26.27c.08.07.15.13.2.22a.601.601 0 0 0-.2-.22m.73.81c.04.11.1.17.15.23-.05-.06-.11-.12-.15-.23m.36.58c.09.11.13.18.21.29-.08-.11-.13-.19-.21-.29m.97 1.63c.02.05.05.1.08.16-.04-.07-.07-.12-.08-.16m.15.36c.04.07.08.14.1.2-.02-.06-.04-.13-.1-.2m.21.46c.02.01.02.02.02.03.03.05.04.09.07.12-.03-.03-.04-.07-.07-.12 0-.01 0-.02-.02-.03m.13.3c.05.08.08.18.11.26-.03-.08-.06-.18-.11-.26m1.16 7.27c-.01 0-.04.01-.04.01.02 0 .04-.01.04-.01m-.13.05c-.01.01-.01.01-.05.02.02-.01.04-.01.05-.02m-.11.02h-.04.04zm-.15.02h-.07.07zm-.13 0c-.02 0-.02.01-.05.01.03 0 .03-.01.05-.01m-.11 0h-.11.11zm-.13 0c-.02 0-.02-.02-.03-.02m-.07 0h-.03.03zm-.03 0c-.01 0-.03 0-.06-.01H656h.01m-.04-.03c-.06 0-.11-.03-.14-.03-.03-.02-.06-.05-.1-.05.04 0 .07.03.1.05.02 0 .08.03.14.03m-.35-.12c-.09-.04-.16-.09-.24-.13.08.05.16.09.24.13m-.3-.16c-.02-.02-.04-.03-.05-.04-.03-.01-.08-.05-.11-.07.03.02.08.06.11.07.02.01.04.02.05.04m-.16-.11a.236.236 0 0 0-.09-.08c-.03-.02-.04-.04-.07-.04.03 0 .04.02.07.04.03.03.07.05.09.08m-.3-.26c-.07-.04-.09-.08-.14-.1.05.03.07.07.14.1m-.24-.21c-.07-.04-.1-.09-.14-.13.03.05.07.1.14.13m1.01-6.85c.02.03.03.07.04.12m37.33 54.42c3.43-5.48 3.6-11.84 4.79-17.18.12-.2.19-.39.26-.58.84-.41 1.32-.87 1.32-1.43 0-.36-.24-.7-.65-1.03.54-.97.52-2.27.21-2.59-1.64-1.33-3.71-.42-5.75-.04-1.25.2-2.72 1.14-4.02 1.56-1.9.38-3.22 1.04-3.5 1.8-.61.15-1.26.39-2 .78-1.55.19-3.08.37-4.62.57-2.09.09-4.17.15-6.28.25-4.93.18-10.4-.52-15.3-1.03-1.14-.59-2.97-.97-3.58-1.87-.45-1.29-.19-2.92-.61-4.19-.57-.11-1.13-.24-1.68-.35-3.54.43-6.91-.05-5.35 2.78-.06.12-.08.25-.11.35 1.29.57 2.95.61 4.25 1.16 2.45 1.88.93 2.41 1.29 5.17.1.1.17.32.24.61M447.77 858.52c-2.57 2.64-3.17 4.66-2.31 6.25.35.15.69.33 1.03.49.5-.05 1.02-.11 1.52-.15.36-.41.73-.81 1.07-1.22.93-1.97 3.14-3.28 4.19-4.83.07-.65.1-1.33.12-2v-.11c-.55-.26-1.06-.51-1.6-.78-.19.14-.35.29-.52.43-1.71.55-2.05 1.37-3.5 1.92m100.14-36.45c2.09 4.08 7.51-2.21 6.77-5.24-.4-.24-.83-.48-1.26-.73-2.5-.32-3.05.96-5.51 5.97M443.7 796.76c0-.02-.02-.05-.02-.09.53 1.59-1.37 2.51-3.15 2.77-1.44.26-2.9.52-4.33.77-.91.63-1.72.64-2.74.67-1.91.54-3.47.52-5.44.59-6.09-1.05-9.9-7.57-9.4-12.3.08-2.19.21-3.15.73-5.24 2.58-4.41 7.53-6.93 10.82-6.07l-.03-.01c-.02-.01-.03-.04-.03-.06 1.54-.1 3.97.23 5.59 1.25 1.62 1 2.95 2.47 3.33 4.23.08.28.13.56.21.86.24 2.49 1.24 4.11 2.7 6.09 1.65 1.8 1.89 2.58 2.2 5.02.07.52-.23 1.32-.27 1.86-.04-.13-.1-.24-.17-.34m97.46-286.43-4.78.13-1.42-.57-5.71-4c-.85-1.24-1.47-1.75-1.71-2.75l-.75-1.92v-.17l-.02-1.65.85-4.89 2.07-5.69 1.32-1.26c1.56-.73 2.91-1.59 4.5-1.44l5.29.56 4.52 2.45.66 1.1 2.15 2.38c.25 2.52 1.53 5.07.15 7.63l-1.29 2.95-.39.77-.57 1.77-4.87 4.6zm-149.67-57.19c1.54-3.82 1.2-3.53 4.64-6.79.98-1.03 2.2-1.75 3.48-2.43.91-.58 1.84-1.09 2.74-1.2 2.32-1.4 4.26-1.28 6.56-1.09 4.11 1.37 7.89 4.17 11.35 6.81 2.28 2.01 3.34 3.69 5.21 5.79.61 1.55.64 2.92.28 4.5-.39.56-.79 1.09-1.15 1.63-2.31 1.62-3.59 1.83-6.18 2.8-2.83.57-5.81 1.51-8.68 1.58-2.96.28-6.04.33-9.23.16-1.87-.84-3.76-1.91-5.65-3.43-2.75-1.76-3.32-5.29-3.37-8.33m29.65 84.68.72-1.41.53-.01c1.84-.14 2.95.94 4.64 2.49 1.31 1.51 1.99 2.72 2.21 4.08v1l-.9 1.13-.19.18c-2.39.3-4.8-2.02-6.2-4.1l-1.04-2.93.23-.43zm2.99-103.73c2.26-1.02 4.3-.76 6.22.05.48.22.96.41 1.43.62 2.37.95 4.51 2.04 6.72 4.34 1.94 3.19 2.24 4.13 1.9 7.27-.59.98-1.41 1.56-2.49 1.73-1.57.68-2.72.76-4.53.1-2.82-1.48-4.82-2.95-7.33-4.92-1.45-1.5-2.99-3.3-2.81-5.06-.27-2.2-.39-2.15.89-4.13m92.5-11.18 1-6.34 1.2-2.01.28-.41 1.22-1.39 1.1-.61 1.4-.26c2.94-.21 6.01 1.13 9.12 3.01 6.27 6.35 6.63 12.41 11.26 18.61l1.39 1.91c2.61 4.42 6.03 8.3 10.2 11.99l1.02.99c4.98 5.6 6.61 11.57 3.51 17.55-.64.37-.64.37-1.39.98l-1.39 1.02c-1.12.44-2.34 1.17-3.45 1.18l-6.47.13-6.76-3.12c-2.14-1.62-4.97-4.85-7.55-8.15l-.85-1.34-1.01-1.16-2.18-2.53c-1.7-3.67-4.3-7.1-5.89-10.84l-.44-1.17c-.8-1.74-1.76-3.32-1.77-4.85l-1.88-5.65-.87-1.81-.8-5.73zm.37 72.58-2-.59c-2.75-.11-4.2-1.28-6.2-4l-.78-.58v-.35l-.83-1.14-1.78-3.73v-.41l.15-.71.16-1.41.15-3.54c1.1-2.19 2.91-2.57 4.26-2.44l3.29.53c2.6.19 5.92 1.83 7.75 4.98.78 1.32 1.15 2.27 1.59 3.5l.02 2.13c-1.35 2.37-1.02 4.54-3.31 6.93l-1.36.59c.01-.17-1.11.24-1.11.24m19.96-17.38.35-.59.64-.02c1.96.38 3.16 1.65 4.95 3.44l.36.35.83 1.15.18.23-.57 1.72c-1.7.04-3.73-1.05-5.09-2.45l-1.26-1.32-.19-.58-.43-1.58.23-.35zm61.84 57.49.69-.43 1.41-.2.15-.24c3.62.35 6.87 1.81 10.25 3.76l1.27.91 5.29 3.67 1.67 1.49v.57c4.34 5.81 7.03 11.23 9.44 17.06l.85 1.97c.19.77.42 1.58.46 2.36l-.37 2.35-.4.83-.16.01-.95.18c-1.42-.97-2.02-1.96-2.4-2.91l-.43-1.15-1.25-3.34-1.28-2.33-1.19-4.03c-1.46-3.31-3.45-6.64-7.23-10.1l-2.4-1.77-1.53-1.09c-2.86-2.31-5.8-2.83-8.78-4.19l-2.13-1.32-.98-1.67v-.39zm7.4-9.55.82-.82 2.7.35c.82.57 1.6 1.38 2.62 1.07l.34-.13 1.57-.44 1.76-.03 2.22 1.91-.36 2.11.02 2.23-1.37 2.14-.75.42-2.02-.95-4.25-1.46-.86-1.22-.43-1.94-1.97-1.53-.2-1.36.16-.35zm20.13 7.45.58-.4 1.01.15c2.21 1.54 3.36 3.28 5.21 5.07l1.21 1.51 1.79 1.9 1.57 2.38 1.8 3.02 1.4 1.97 2.6 3.72v.13l.84 1.16c1.21 1.91 2.83 3.7 3.45 5.63l.43 1.16c.37 1.34 1.21 2.34 1.25 3.69l.15 1.17-.12 1-.58.96-.96 1.42-.25.02-1.97-.98-1.02-1.91-1.08-4.63-3.62-7.62c-1.2-1.74-2.79-4.65-3.8-5.23l-4.29-5.79-.96-1.16c-1.63-2.49-4.78-5.03-4.85-7.74l.21-.6zM518.04 947.37v-.02l-.65.02-2.12.06c-1.85-.54-3.69-1.28-5.55-2.76-1.58-1.54-3.46-3.42-4.51-4.91l-1.02-2.09c-.91-2.62-1.97-5.11-1.41-7.66l.93-2.39.97-.78 3.59-1.76-.17-.1c.99-.23 2.05-.03 2.68-.52l1.02-.03.63-.19c1.52-.28 2.95.31 4.51 1.4.55.36 1.07.75 1.64 1.11.67.82 1.52 1.87 2.21 3.28.85.91 1.42 1.9 1.74 2.88.21.73.4 1.45.6 2.18.08 1.82 1.1 3.02 2.23 4.15 1.12.09 2.24.12 3.37.2.92.11 1.37.71 1.86 1.28l.05 1.7c-.34.65-.88 1.2-1.89 1.64-2.6 1.32-5.09 2.34-7.61 2.84-1.08.21-2.11.36-3.1.47m152.17-36.01c0-.01 0 0 0 0m-.06-.05s-.02-.02-.03-.02c.02 0 .03.02.03.02m-.04-.06c-.02 0-.03-.01-.05-.01m-.28-.26s0-.04-.02-.06c.02.02.02.06.02.06m-.03-.06a.158.158 0 0 1-.05-.08m-.04-.03a.449.449 0 0 0-.1-.13c.04.04.07.1.1.13m-.29-.38c0-.06-.03-.09-.05-.12.02.03.05.06.05.12m-.07-.15c-.02 0-.02-.01-.02-.01l.02.01zm-.06-.1s0-.04-.03-.04c.03 0 .03.04.03.04m.47-11.23c.05-.03.12-.03.18-.04-.05.01-.11.01-.18.04m.22-.06c.04-.01.08-.01.12-.03-.04.02-.08.02-.12.03m.21-.04c.05-.01.11-.01.16-.03-.06.02-.12.02-.16.03m.22-.04c.01-.01.05-.01.08-.01-.04 0-.07 0-.08.01m.69-.1h.02-.02zm.03 0c.03-.03.04-.03.06-.03-.02 0-.03 0-.06.03m.23-.04h.03-.03zm.04 0c.02-.01.07-.01.09-.01-.02 0-.07.01-.09.01m.31-.03c.03-.01.05-.01.08-.01-.03 0-.05 0-.08.01m.12-.01h.11-.11zm.14 0h.02c-.66-.16-1.36-.32-2.1-.48-1.48-.17-3.01-.34-4.66-.28-2.12.08-4.45.33-6.56.8l-1.92.65c-.39.53-.84-.13-.58.55l-.21.42.59 1.79.83 1.1c1.23 1.54 1.47 1.77 2.92 2.84l.98.96c2.9 2.11 5.13 3.8 7.69 4.56.44-.06.87-.1 1.29-.15.78.56 1.6.59 2.53.54l.76-.02 3.77.07 6.28-.2c4.27-1.15 7.32 2.69 10.88 1.64l1.03-.37-.1-2.93c-.59-2.33.69-4.36-.75-6.87l-1.19-.78c-1.97-.16-4.5-.28-6.92-3.54-3.27-1.02-6.62-.5-9.65-.24l-1.19.06c-1.26-.04-2.49-.19-3.74-.12M591.27 766.6c-.19-.03-.41-.03-.61-.06-1.2-.82-2.31-1.85-3.32-3.17-1.05-1.56-1.67-2.9-1.95-4.31l-.78-2.07c-.48-2.74-.98-5.07-1.48-7.77l-.35-5.76.94-5.5c.8-.97.78-1.79 1.16-2.56l.71-1.55 1.49-1.7 1.77-1.57c1.65-1.44 3.46-1.2 5.23-1.89 4.47-.01 9.87 1.81 13.1 6.77l2.09 3.11.43.59c4.58 5.89 6.21 11.99 11.16 17.72.36 0 .72.02.99.04 1.13.59 1.8 1.5 2.04 2.69.7 1.79.48 3.19.11 5.02-.57 1.57-1.05 2.99-1.81 4.4-.35.32-.66.63-1 .97-1.06.2-2.14.42-3.2.64-1.65.07-2.95-.42-4.59-.5-4.74-2.7-9.02-.16-13.37-.2-1.76-.04-3.52-.07-5.29-.11a8.76 8.76 0 0 1-3.47-3.23m-6.35-138.33c.1-.08.15-.14.22-.21-.32-.28-.62-.56-.93-.83-1.95.47-4.07-.11-5.57 2.52l-.2 1.35.5 2.76-.48 3.77-.2.56c.85 6.43 1.97 12.74 3.69 19.15l.64 2.91c.24 2.38.84 4.39 1.13 6.62l.6 1.87c.26 1.27 1.21 2.1 1.66 2.63.35.15.62.13.92.15.55 1.81 1.95 2.39 3.52 2.73 1.05.05 2.05.09 3.07.13 1.8-.7 3.36-.11 5.16-.98.23-.01.46-.02.69-.02.65-.41 1.33-.78 1.95-1.19.4-.28.82-.57 1.23-.85.49-.37.98-.7 1.5-1.05 1.46-1.8 1.83-3.41 1.95-5.11-.01-.57-.04-1.11-.05-1.66-.01-.57-.03-1.13-.05-1.7-.17-5.12-1.84-9.78-4.1-14.82-.12-.33-.22-.66-.32-.99-.57-1.28-1.11-2.55-1.65-3.81-.4-.85-.81-1.69-1.2-2.51-1.12-3.9-4.22-7.92-8.26-11.49-1.82-1.73-3.49-1.87-5.42.07" fill="#3b6287" fill-rule="evenodd" clip-rule="evenodd"/><path d="M584.64 628.59c.02-.01.04-.04.04-.05-.01.01-.02.04-.04.05m-.27.3c.09-.11.15-.17.24-.27-.09.1-.15.16-.24.27m2.37 41.86s-.01 0 0 0c-.01 0-.01 0 0 0m-134.73 32.57c2.13 2.37 3.16 4.17 4 6.07.91 2.61.03 4.77-1.31 7.14-1.48 1.47-3.07 1.63-4.4 2.09-.74.2-1.47.43-2.21.65-7.42 2.51-22.74 1.14-31.04-.16-.83-.47-.91-.59-1.85-.57-6.06-2.39-15.81-4.81-19.33-10.75-1.51-6.42-3.11-12.42 2.17-19.13 1.8-1.65 3.32-2.02 5.63-2.09.85-.03 1.68-.06 2.53-.1 6.21.82 10.91 1.61 16.85 3.57 9.44 1.29 25.64 7.28 28.96 13.28m-191.04 53.73.75-.95.99-.39 5.68-.59 6.08.59.66.62-.2 1.29-1.71 1.47-.91.37-2.79 1.26c-1.52.72-3.04.75-4.69.58l-1.74-.55-1.65-1.71-.68-1.56.21-.43zm66.33-38.25c4.7 10.13-.23 11.18-3.21 12.26-1.98.77-4.05.93-6.04 1-1.52-.09-2.92-.09-4.44-.17-1.16-.14-2.36-.3-3.59-.62-2.43-.44-4.91-1.09-7.33-1.54-.85-.31-1.6-.73-2.22-1.29-.78-.28-.62-2.42-.26-2.59.62-1.07 1.44-1.3 2.6-1.9 1.64-.54 2.64-1.81 4.08-2.77 1.27-.42 1.93-1.06 2.88-1.86.66-.41 1.31-.83 1.98-1.24 2.87-2.03 5.34-3.69 8.3-3.42 1.49.14 3 .37 4.24 1.61.71.6 1.45 1.17 2.15 1.77.32.17.55.57.86.76m-10.96 179.83c-1.13-.61-2.46-1-3.6-1.92-1-.62-1.76-1.54-2.77-2.24-.53-.75-1.06-1.52-1.59-2.29-.18-.71-.61-1.63-.33-2.29.31-.48.61-.95.9-1.42.22-.16.43-.3.64-.43 5.08-1.13 10.25-.28 15.49 2 3.13 1.37 6.29 3.24 9.45 5.5l.19.42c.14.48.3 1.01.45 1.5-.12.72-.58 1.45-1.7 1.76-.28.15-.55.3-.82.42-5.3 1.22-10.79 1.97-16.31-1.01m28.43-57.16-.56.13c.25-.1.51-.23.8-.32.77-.15 1.53-.32 2.32-.48.98-.23 1.96-.45 2.91-.69 3.68-.84 4.13-.78 7.42-.04 3.56 1.06 5.73 2.61 9.8 5.02 2.87 2.01 6.67 3.33 9.74 6.57.82 1.86 1.05 3.36.98 4.64 0-.03-.03-.06-.04-.08.86 1.71 1.32 3.45.22 5.19-.55 1.36-1.75 2.18-2.44 2.43l-1.38.63c-2.94 1.44-5.99 1.65-9.18 2.06l-1.02.18-1.52.06c-3.16.1-6.08.61-9.24-.3l-1.44-.78-1.34-.07c-2.57-1.34-5.43-4.02-8.17-5.86l-4.89-3.8c-.44-.98-1.57-1.53-2.61-2.45-1.55-.94-3.43-2.29-4.05-3.63l-.39-1.18v-.34l-.03-.59c.48-1.6 1.86-2.4 3.09-2.63l1.11-.44 1.92-.87 1.97-.84 1.34-.28c.74-.6 1.57-.33 2.38-.65l2.3-.59zm10.72 85.26c.02.06.05.14.07.22 1-.34 2.03-.55 3.12-.55 4.86 0 8.85 3.89 8.85 8.68 0 3.03-1.62 5.72-4.07 7.26l-1.83 2.19c-10.29 2.87-17.61 1.15-23.29-8.19l-.64-1.34-.43-.92-.45-.61-.21-1.36c-.37-.91-.59-1.61-.61-2.57l-.02-1.18-.03-.4.51-1.36 1.35-1.64c2.09-.76 4.1-.64 6.26-.71 3.92-.06 7.63 1.29 11.42 2.48m283-324.48c-.02.17-.04.33-.04.49 0-.16.02-.32.04-.49m.08-.26c-.02.08-.06.15-.08.22.03-.06.06-.14.08-.22m.43-1.65c-.03.06-.08.13-.11.2a.67.67 0 0 0-.1.21c.08-.14.16-.27.21-.41m.03-.05c0 .01 0 .03-.03.05.03-.02.03-.04.03-.05m.4-.77a.16.16 0 0 0-.03.08c0-.04 0-.05.03-.08m.5 7.35c.03.04.08.09.11.13-.04-.04-.08-.09-.11-.13m-.08-.11s.02.01.03.03c-.01-.02-.03-.03-.03-.03m-.2-.34c.01.01.02.02.02.04-.02-.02-.02-.02-.02-.04m-.03-.05s.01.02.03.02c-.02 0-.03-.02-.03-.02m-.06-.06c.01 0 .03.01.03.02 0-.01-.02-.02-.03-.02m-.02-.07s0 .01.01.03c-.01-.02-.01-.03-.01-.03m-.05-.06c.01 0 .01.01.01.02 0-.01 0-.02-.01-.02m-.25-.45c0 .01 0 .03.03.03-.03 0-.03-.02-.03-.03m-.05-.08c.02.01.03.04.03.04s-.01-.03-.03-.04m-.04-.08c.02.03.02.04.04.06-.02-.02-.02-.03-.04-.06" fill="#3b6287" fill-rule="evenodd" clip-rule="evenodd"/><path d="M669.95 606.11c-.03-1.61.02-2.84-.43-4.08-.9-3.34-1.61-6.01-3.22-8.78-1.86-6.23-7.52-10.79-14.13-10.79-2.47 0-4.8.63-6.84 1.75-.2.07-.4.12-.59.2-.05.07-.09.14-.13.21-1.27.8-2.44 1.75-3.42 2.9-.29-.18-.66-.27-1.18-.19l-.28.17c-.8.85-.82.45-1.2 1.41 0 .39-.43.86-.42 1.26-.3 1.29-.4 2.7-.37 4.16-.24 1.11-.39 2.25-.39 3.46 0 8.43 6.67 15.31 14.84 15.31 4.76 0 9.03-2.36 11.74-6 1.52.95 2.96 1.25 4.64.43l.12-.01c.41-.45.83-.93 1.26-1.41m-94.06 274.45c-5.98-3.92-6.86-8.39-1.43-8.83 1.16-.17 2.34-.35 3.5-.52.79-.02 1.57-.05 2.36-.08 4.35 1.37 5.49 2.11 7.05 5.43l.65 1.62c.42 1.6.84 3.31-1.73 3.36-3.35.45-7.01.32-10.4-.98M358.8 643.17c2.51-.32 5.27.32 7.84 2.13 2.17 1.39 4.15 4.56 6.57 6.28 2.71 2.94 1.49 3.44.33 6.94-5.14 5.33-8.85 6.83-16.14 5.75-.5-.19-.99-.37-1.47-.55-7.49-3.42-6.17-3.47-9.22-10.71-.07-.26-.13-1.5-.2-1.77-.2-6.34 7.28-7.35 12.29-8.07m9.58 137.16c.29-1.75 1.6-3.51 3.36-5.56l2.26-2.44h.17l.97-1.03c3.98-2.42 7.76-2.53 11.74-.9l2.55 1.05c1.81 1.36 3.04 2.67 4.61 4.38l2.41 1.86 1.52 1.33c1.76 2.04 3.16 4.05 4.26 6.14l1.88 3.87.44 1.1c.8 1.23.83 2.39.86 3.51l-1.09 2.68-.99.57c-2.33.47-4.39-1.71-6.71-2.21l-4.36-.94c-6.01-.33-12.69-1.22-19.02-5.91-1.55-1.12-2.98-1.67-3.96-3.17l-.63-1.21c-.44-.99-.45-1.53-.48-2.5l.21-.62zm12.58 138.57c-2.12-.26-2.97-.48-4.77-1.55-.96-.99-1.76-1.6-2.25-2.87-.46-2.01-.72-2.44.81-3.8.9-.66 1.82-1.02 2.73-1.27.59-.19 1.25-.46 1.84-.67 2.39-.69 4.4-1.13 6.92-.78 2.26.06 4.52.66 6.76 1.55 2.75 2.16 2.84 3.05 1.37 6.44-.3.37-.68.65-1.15.83-4.05 2.18-8.12 2.59-12.26 2.12m-9.95-117.89c-.01-.92.75-1.48 1.9-1.99.5-.09.87-.23 1.37-.3 1.23-.16 2.52.11 3.63.31.52.33 1.21.37 1.73.71.54.14.95.38 1.48.55 1.58.65 3.16 1.3 4.76 1.95 1.14.71 2.29 1.34 3.42 2.07 1.02.53 1.64.97 2.46 1.53.53.81.73 1.6.18 2.34-.3.35-.59.69-.9 1.03-.38.37-.76.7-1.14 1.04-.31.1-.61.32-.93.4-2.21.84-5.12 1.75-8.07 1.24-1.69-.65-3.39-1.4-4.98-2.91-1.95-1.71-3.54-3.05-4.79-4.78-.36-.88-.77-2.35-.12-3.19m16.67 21.34.81-.9c1.39-.93 3.59-1.51 5.23-1.56 3.7-.47 6.96-1.34 10.49-1.29l2.25.52.98 1.14.62 1.17.22 1.23c.04 1.53-.1 2.93-1.15 4.51l-.97 1.03-1.39.64c-3.16.53-4.89.45-8.82-.32l-2.93-.83c-1.5-.39-3.03-.98-4.41-2.11l-.62-.99-.28-1.57-.03-.67zm54.13 111.96-2.65 1.3.5.85c-15.46 7.2-35.52-18.26-14.62-23.49 11.54-4.64 20.31 13.04 18.74 21.83l-1.97-.49zM419.67 754.5l.8-.78h.16l1.16-.47 1.6-.03 5.25.24 2.02 1.45.44 2.18-.33.96c-.15.58-1.16.44-1.57.63-1.32.7-2.1.88-3.34.34l-5.52-1.59c-.62-.74-.46-1.57-.79-2.37l.12-.56zm12.22 84.5c-.1.04-.18.06-.26.09.02-.11.05-.22.08-.33 5.29-1.07 6.11-1.04 10.65 1.49 3.82 3.16 7.74 7.31 5.97 12.79-.08.04-.15.06-.21.08.03-.17.06-.35.09-.54-.07.58-.21 1.14-.38 1.71-4.96 4.1-10.24 4.87-16.15 2.27-3.25-1.56-5.82-4.05-5.96-7.99.05-.95.09-1.89.14-2.82.47-2.4 1.4-3.66 2.39-4.79 1.68-.91 2.34-1.54 3.64-1.96m34.22 41.18.11-2.54 2.41-3.54.99-.44.22-.24 3.43-1.09 1.78-1.36h.18l1.33-1.05h.14l1.39-.87 1.35-.61 1.79-.5c1.53-.15 2.73.93 4.14 2.29 1.91 2.89 1.98 5.22 4.6 7.86l3.63 3.75 1.16 1.97.71 1.75c.84 2.68.92 5.02-.97 7.91-1.1.73-1.48 1.56-2.61 2.01-1.97.77-3.62.52-5.31.76-6.19-2.63-12.57-5.36-17.96-10.4l-2.27-2.74-.48-2.51.24-.41zm-1.27-153.2c.32-.33.39-.81.68-1.14.51-.53 1.21-.84 1.99-.73 2.42-.39 5.38.34 7.5 1.54.81 1.77.56 2.64.32 4.51-.86.79-.86 1.05-1.75 1.29-1.44.48-2.51.27-3.86.26-1.67-.35-2.71-.81-3.93-1.99-.46-.92-.9-1.73-.92-2.73-.01-.34-.01-.67-.03-1.01m7.52 46.63-.01-.4 1.09-2.03c3.11-.88 6.04-.97 9.03.71 1.84.94 3.66 2.23 4.48 3.8.88 1.68.91 3.34.66 4.86l-1.06 1.56c-1.5.65-2.91.69-4.43.95l-3.37-.53-2.45-1.23-.95-.19-.03-1.01-1.04-1.07c-1.05-1.81-1.87-3.31-1.93-4.89l.01-.53zm45.88-152.05c.14.03.26.05.4.07.11-.48.19-1 .29-1.48.27-.73.4-1.47.41-2.24.74-4.16 1.09-8.15-.27-12.41-2.15-3.63-3.86-6.84-6.6-10.02-.29-.22-.57-.43-.84-.67-4.18-3.39-8.33-3.1-12.53-2.14l-.24.01c-.4.24-.76.5-1.16.75-.57.42-1.15.85-1.73 1.28-1.9 2.51-4.21 3.58-6.45 5.85-.07.49-.12.97-.2 1.43-.05.19-.11.36-.14.55 1.13 4.84 2.02 9.61 3.37 14.39-.03.3-.06.6-.06.89 0 5.23 6.03 9.48 13.44 9.48 5.49-.01 10.25-2.36 12.31-5.74m23.94 179.67s-.02.03-.06.04c.02-.01.06-.04.06-.04m.82-.57c-.03.04-.08.08-.11.12.04-.04.08-.08.11-.12m.08-.04c-.02 0-.02.03-.04.03.02 0 .02-.03.04-.03" fill="#3b6287" fill-rule="evenodd" clip-rule="evenodd"/><path d="M527.48 768.15c1.89 1.99 3.68 4.34 4.42 5.41 4.19 4.72 6.11 7.05 9.12 12.61.06.31.1.62.14.94.31.89.6 1.78.9 2.67 1.11 3.15 1.78 6.07 2.29 9.15-.34.66-.75 1.2-1.2 1.62.01.08.02.16.04.25-.58 1.3-1.93 3.12-3.2 3.15-3.71 1.31-7.11.42-10.45.22-1.03-.28-2.06-.73-3.1-1.02-2.2-1.2-3.96-1.39-6.12-2.27-.81-.57-1.62-1.12-2.42-1.69-3.46-3.6-5.96-6.52-7.19-10.12-1.55-4.72-2.22-9.17-2.66-13.62-.02-.22-.02-.44-.02-.65-.1-2.69-.31-5.63 2.53-8.59.58-.57 1.17-1.11 1.73-1.65.65-.29 1.31-.59 1.98-.9 1.7-.15 3.02-1.02 4.84-1.26.89.03 1.79.05 2.7.09 1.22.41 2.1 2.05 3.32 2.46.81 1.1 1.6 2.16 2.35 3.2" fill="#3b6287" fill-rule="evenodd" clip-rule="evenodd"/><path d="M527.36 768.01c.05.05.07.08.1.12-.04-.04-.06-.07-.1-.12m-3.7-2.99s.03.01.05.01c-.03 0-.05-.01-.05-.01m-.13-.06c.02.02.02.02.04.02-.03 0-.03 0-.04-.02m-.57-.15c.1.02.19.05.27.05-.08-.02-.17-.03-.27-.05m22.73-102.1c-1.28-1.49-2.43-2.36-3.63-2.8-.02-.04-.08-.07-.11-.11-5.61-4.85-15.99 7.41-14.97 18.77 1.03 11.34 6.72 18.73 14.97 18.73 6 0 5.93 2.44 12.17 2.95 2.46-.65 3.13-.97 4.68-3.03.32-1.46.66-2.93 1-4.38-.16-4.77-2.83-9.08-4.09-13.57-3.06-5.67-5.51-11.06-10.02-16.56m-8.36 170.62c.6-1.03 1.24-2 1.83-3.01 2.04-1.17 3.56-2.05 5.58-.46.78.72 1.57 1.43 2.36 2.16.23 1.77.31 2.24-.22 3.94-.4.19-.83.38-1.22.57-2.66 1.01-3.86 1.15-6.62.66-1.12-.82-2.15-2.43-1.71-3.86m25.62-214.49c.32-.21.65-.41.98-.62h.24c.49-.17.73-.66 1.25-.81 4.14-1.14 7.2-.16 9.15 2.28 1.26 1.97.65 2.76-1.01 3.93-.27.13-.54.28-.82.41-1.38.4-2.33.67-3.73.71-1.32-.14-2.48-.64-3.8-.81-.98-.39-1.53-1.27-2.17-2.17-.2-1.22-.24-1.71-.09-2.92m24.63 285.18c11.65-12.03 40.91 23.63 10.02 14.62-5.28-1.35-13.14-8.66-10.02-14.62m45.82 28.61c1.9-1.29 3.72-1.53 5.87-.02l.25.42c-.09.6-.4 1.08-.95 1.38-1.07.46-2.28.67-3.56.68-.75-.15-1.29-.45-1.56-.93-.31-.53-.32-1.04-.05-1.53m2.54-114.15.67-.85 3.24-.11 9.78.83 1.32.95.01.22.34 1-.57.96-1.81.23c-3.36-.07-6.72-.73-9.96-.39l-1.42-.6-1.8-1.29-.03-.64.23-.31zm3.53 103.48c-.1-.73 1.93-1.08 2.62-.79.85.35 1.59.73 2.46 1.07.41.4.38.69.86 1.18.14.33.19.66.03 1-.08.52-.34.78-.68.98-.65.14-1.29.04-1.95-.17-.94-.2-1.76-.53-2.45-1.04-.4-.33-.7-.7-.86-1.22 0-.35-.01-.67-.03-1.01m-5.99-222.95c3.35.33 12.02 2.73 12.79 6.43.18.71-.25 1.7-.92 2.45-.89.52-1.3.41-2.33.59-3.65.35-5.72-1.82-8.99-4.8-1.03-1.14-1.05-2.13-1.49-3.07-.23-1.11.13-1.47.94-1.6m10.62 237.22c1.51-2.46 1.92-2.75 4.39-4.08 2.1-.71 4.05-.78 6.25-1.02l6.5-2.54c8.64-.46 16.87-2.91 25.4-1.99 1.03.12 1.73.61 2.28 1.34.21.57.42 1.13.63 1.68.15.74.32 1.48.48 2.22.16 1.06 1.11 1.25 1.53.48.1-2.16-.21-3.32.89-4.33h.11c1.07-.29 1.75-.09 2.24.35.14.24.28.46.42.69.47 4.06 1.24 7.95 1.68 11.94l.24.19.05 1.81.1 2.69-.19 1.19c.03 1.17-1.22 2.97-2.61 3.43l-2.51.65c-8.17 1.8-16.25 2.87-24.5-1.16l-7.62-3.93c-3.77-1.88-7.76-5.01-11.72-5.86-1.24.25-1.26.04-2.37-.58-.96-.59-2.91-1.69-1.67-3.17m5.46-90.02c-.03-1 .63-2.37 2.01-3.41 2.07-1.25 3.7-1.82 5.64-2.29l2.09-.64 1.93-.65c5.4-1.76 10.88-1.51 16.5-1.35 5.87-.18 10.83-2.26 16.31-2.26l3.17.73 1.77 1.28.44.99c-1.11 8.02.1 15.81-2.03 23.99l-1.41 3c-1.99 1.05-3.51.68-5.47.32l-2.01-.69c-12.33-4.49-26.28-6.69-37.31-15.11l-1.05-1.97-.44-.98-.42-.52.28-.44zm11.68-199.48c2.24.17 4.51 0 6.9-.02l4.14-.49 1.62-2.46c.2-1.53.32-2.94-.48-4.22l-.71-1.92c-.62-1.62-1.37-2.89-2.67-4.67-1.79-2.47-4.16-3.39-6.6-4.09l-4.88-.45-1.13.05-1.41-.14-1.39.63-1.34.22-1 .4-1.1.85-.96.61-.98 1.03-.75 1.97.04 1.01-.11.41.55 1.09c.19 1.01.75 2.01 1.56 3.18.64 3.98 4.64 7.05 9.48 7.05.43.01.82 0 1.22-.04m10.84 237.77h.06-.06zm-2.61-7.77c.89-.37 1.78-.73 2.67-1.11-3.65-.28-7.23-.57-10.89.27-.21.21-.42.41-.64.61-.03.18-.09.36-.15.54-.16.93.04 1.68.51 2.4.13.22.28.46.42.7.59.96 1.18 1.4 1.75 1.75 1.09.68 2.16.99 3.22 1.27 3.02 1.19 6.02 1.92 9.03 2.38a.308.308 0 0 0-.13-.03c2.05.51 4.03.77 6.18.78.66.05 1.32.09 1.99.12.8-.04 1.6-.08 2.4-.11 2.06.32 4.09 1.7 5.86 3.34.36.53.82.75 1.37.66.57.25 1.11.19 1.7-.15.59-.62 1.12-1.4 1.49-2.58.07-.68.14-1.34.19-2.01.05-.41.1-.82.13-1.24-.08-.8-.17-1.58-.26-2.35-.21-.86-.33-1.27-.64-2.08-.77-1-1.69-1.93-2.84-2.67-1.33-.73-2.67-1.09-3.99-1.21h-1.57s0-.01-.01-.01h-.07c-.24-.01-.48-.01-.72-.03-1.09 1.08-2.62 1.73-4.3 1.79-2.06.06-3.93-.81-5.06-2.24-1.66.04-3.3.05-4.94.09-.91.37-1.81.74-2.7 1.12m16.4 9.57c0-.02.06-.02.06-.02s-.06 0-.06.02m6.95-4.54c-.42-.41-.83-.62-1.26-.59.43-.03.84.18 1.26.59m-3.85-1.72c-.06-.1-.12-.18-.2-.26.08.08.14.17.2.26m-13.78 5.42c-.02 0-.05 0-.08-.01.03.01.06.01.08.01m-.21-.04c-.01 0-.03 0-.07-.01.04.01.06.01.07.01m-.44-.14c-.06 0-.12-.02-.18-.03.06.01.12.03.18.03m-.35-.09c-.18-.05-.37-.11-.58-.16.2.05.4.12.58.16m-.76-.23h-.03.03zm-.42-.13c-.04-.03-.07-.03-.11-.04.04.01.08.01.11.04m-.11-.04c-.13-.06-.27-.11-.4-.15.14.05.27.09.4.15m-.7-.24c-.02 0-.04-.02-.07-.05.04.03.06.05.07.05m-.12-.05c-.03-.01-.04-.01-.08-.01.04 0 .05 0 .08.01m-.1-.03c-.03-.01-.05-.01-.08-.01.04 0 .06 0 .08.01m-8.31-199.37c2.14 1 4.37 1.55 6.49 1.19 4.69-.1 6.64-.97 10.7-2.26 1.34-.72 2.39-1.78 2.03-3.03.1-3.73-1.02-7.92-4.37-11.41-1.09-1.44-2.65-2.63-4.43-3.39-1.84-1.22-3.63-2.21-6.17-2.53-1.27.49-2.54.99-3.82 1.48-1.2.64-2.58 1.82-3.9 2.57-1.48 1.3-2.16 2.77-2.43 4.23-.4 1.01-.61 2.07-.61 3.17 0 4.04 2.73 7.5 6.69 9.12-.08.24-.14.51-.18.86m31.8 60.4c.05-.21.13-.42.19-.65-.03.21-.06.41-.1.61l-.09.04zm-28.74 31.39c.23-1.18.49-2.33.72-3.5 1.12-1.5 2.22-2.97 3.34-4.46.79-.23 1.58-.45 2.38-.66.88-.31 1.75-.62 2.63-.9.4-.03.83-.03 1.23-.05.79-.02 1.62-.05 2.42-.08.49-.23 1.07-.37 1.78-.46 1.65-1.9 4.34-3.16 7.3-3.16.88 0 1.74.13 2.55.33h.01c1.53-.16 3.09.73 4.72 2.01 1.26.75 1.99 1.71 2.43 2.88.89 1.9.72 3.68 1.18 5.49-.11.71-.22 1.42-.35 2.13-.16 1.19-.32 2.37-.47 3.54.03.73.05 1.46.06 2.18.49 2.69-.65 5.09-.86 7.9-.38.86-.77 1.72-1.14 2.57-.35.24-.65.49-.98.73-2.93.34-5.65 0-8.43-.85-1.98-.31-3.94-.65-5.93-.99-.7-.05-1.42-.11-2.11-.15-4.46-2.99-11.29-7.25-12.38-12.09-.09-.65-.16-1.32-.24-1.98.03-.16.09-.3.14-.43m.08-78.75.89-1.44 1.22-.8c3.69-.28 7.36 2.12 11.04 3.23l.85.91.44 1.01-1.19 1.55-1.92.65-.59.43c-2.09.65-4.26.89-6.38.61-1.62-.59-3.4-1.54-4.03-2.82l-.52-2.93.19-.4zm5.24 128.3-.02-.71.48-1.4 1.17-.64h6.11l2.94.32 1.03.56.97 1.19-.13 3.48-1.24.8-.84.03-6.02 1.01-.95-.15-2.7-1.55v-.19l-1.05-1.49-.01-.82zm2.6-166.77c0-.74.2-1.54.94-1.96.16-.2.35-.23.51-.45.97-.38 1.81-.4 2.53-.08.83.27 1.46.76 2.03 1.28.11.34.18.67.27 1-.29.75-.63 1.2-1.11 1.48-.28.52-.81.67-1.47.56-.48-.77-.62-1.35-2.57-.22-.54.23-1.02.14-1.31-.2-.18-.53-.07-.94.18-1.41m16.87 65.14c-.01-.04-.01-.09-.03-.14l.03.14zm.28 1.4c0-.03-.01-.07-.02-.11l.02.11zm-8.52 17.07c.02-.01.02-.01.04-.03-.02.02-.02.02-.04.03m-.17.06c.02-.03.09-.03.13-.07-.04.04-.11.04-.13.07m-.34.18c.02 0 .04 0 .05-.01-.01.01-.03.01-.05.01m-.16.2c0-.01.02-.02.03-.02l-.03.02zm-.06.09c0-.01 0-.02.02-.02-.02 0-.02.01-.02.02m-.06.1c.01-.02.01-.05.03-.06-.02.01-.02.04-.03.06m-.2.83c.02-.08.02-.13.03-.2-.01.07-.01.12-.03.2" fill="#3b6287" fill-rule="evenodd" clip-rule="evenodd"/><path d="M691.36 723.86c-.64-3.6-1.31-8.35-1.59-10.49.17-.86 1.49-1.03 1.7-.45.89 2.49 3.63 8.94 3.53 11.53.94 5.04 1.31 9.96 1.75 14.83-.23 1.4-.46 2.79-.7 4.15-.17.92-.54 1.81-.74 2.72-6.01.54-9.88.02-13.04-.96.01-.12.02-.23.02-.35 0 .04-.01.08-.01.11l-3.44-.57c-5.08-.83-13.25-4.47-16.39-10.25-.62-1.4-.66-2.49-.67-3.68l1.27-4.34 1.05-2.03c1.49-1.41 2.48-1.83 3.85-3.05l1.34-.29.57-.42 1.95-.24 4.94-.15 1.77.52c4.26.87 8.05 2.72 11.41 5.54l.69-.04.22-.3c.24-.59.42-1.2.52-1.79" fill="#3b6287" fill-rule="evenodd" clip-rule="evenodd"/><path d="M691.4 724.1c0-.02 0-.03-.02-.04 0 .01.02.02.02.04m1.86 85.07c1.03.94 2.11 1.14 3.16 1.64.59.05 1.14.09 1.73.13l.4-.17.17-.03c.55-.35.94-.89 1.18-1.56.22-1.44.35-2.91.39-4.37.07-.32.1-.61.1-.93 0-.32-.03-.59-.09-.91-.01-.55-.03-1.07-.06-1.61-.41-.81-.23-1.58-.9-2.51-.19-.2-.38-.41-.61-.62-1.69-1.23-3.85-1.88-5.81-.96-1.12.26-2.26.44-3.75.96-.92.35-2.33 1.01-2.83 1.33-.18-.05-.52.83-.39 1.02-.01.54-.01 1.2.45 1.75.44.52.87.97 1.28 1.32v.23c0 2.72 2.44 4.98 5.58 5.29M432.71 979.05c-.62-1.25-1.4-2.32-2.01-3.58-1.45-3.28-.45-6.08.66-9.24l.52-2.15.77-1.27c.05-.75.51-1.47 1.13-1.98.65.07 1.33.29 2.06.63 1.96.93 4.59 2.07 5.97 4.37.12.65.5 1.21-.45 1.96-.58.15-1.17.31-1.75.47-1.32-.6-2.7-.98-4.24.16-1.36.65-1.03 1.47-1.14 2.56.39 1.65 1.11 2.31 2.08 3.27 1.93 1.32 3.02 1.06 5.16.98.47-.29.82-.82 1.05-1.61.58-1.8.5-3.4 2.07-4.38 1.28-.25 3.32 1.26 3.95 2.22 1.61 1.23 9.65 8 7.31 10.23-1.03 2.47-2.13 3.14-3.83 4.03-5.67.55-11.55-1.04-17.34-5.25-.8-.33-1.37-.85-1.97-1.42m-15.22-4.97c4.9-.91 8.23-5.21 4.69-7.07-.51-1-5.85-4.03-7.94-4.05-2.46.54-9.96 1.8-11.32 2.76-1.14 1.13-.94 1.52-.36 2.43 2.54 2.98 10.18 5.91 14.93 5.93m112.57 6.69c-.52 2.05-1.02 4.1-1.52 6.18-5.08.88-9.76.35-15.02-2.21-2.92-1.49-4.53-3.54-5.32-6.68 0-.12 0-.28-.01-.4-.01-.21-.01-.39-.01-.59.48-.8.95-1.62 1.43-2.41.27-.15.54-.3.8-.44 2.49-.53 4.66-1.84 7.21-2.41.33 0 .66-.01 1.01-.02 2.93.07 5.93 1.54 8.99 4.72 1.16 1.6 1.81 2.93 2.44 4.26m21.73 13.12c-8.51-3.39-7.23-14.79 4.3-10.52 2.24.82 3.4.96 4.94 2.75.61.69 1.93 2.46 2.64 2.61.55.38 1.11.75 1.67 1.1 2.61 1.91 5.36 2.75 7.82 5.61.94 1.62.73 3.41-1.22 3.98-3.24.88-6.68-.75-10.13-3.78-3.6-1.23-6.73-.7-10.02-1.75m-17.54-49c.38-.06.74-.13 1.1-.21 3.49-1.12 6.65-1.67 10.28 1.39.47 1.16.84 1.73.87 2.67-.23.85-.59 1.53-1.1 2.02-.2.14-.37.3-.57.45-.26.01-.5.01-.78.02-3.11-.05-6.26.07-9.51-2.98-.07-.34-.4-.45-.48-.78-.81-1.38-.55-2.27.19-2.58M236.61 553.68c-.49 2.04-.3 4.2-.3 6.53 0 3.18-.01 5.96.96 8.93 1.05 3.24 2.27 7.38 5.02 9.61 4.43 3.59 7.31-1.01 11.56-2.23 10.03-2.91 12.54 10.58 17.67 15.79 4.49 4.56 12.79 3.52 12.39 11.03-.03.67-4.41 1.86-5.06 1.82-1.72-.13-3.63-1.61-5.03-2.62-3.32-2.4-5.86-6.28-9.73-7.86-4.1-1.66-9.29-1-11.92-5.21-2.35-3.79-1.52-8.36 1.6-11.24 2.69-2.49 5.49-3.57 6.44-7.51.41-1.68.76-4.63.29-6.31-.63-2.2-1.96-1.61-2.83-3.21-.61-1.16.24-2.26.17-3.3-.17-3.22-.71-4.61-2.5-7.33-.83-1.27-3.3-3.94-1.68-5.5 4.42-4.21 13.58 7.26 15.57 10.23 4.68 6.92 8.66 14.87 10.59 23.07.78 3.32.82 8.35 3.49 10.86 1.68 1.59 3.42 1.84 3.57-.98.11-2.21-2.58-3.76-2.63-6-.06-1.88 1.69-3.37 1.79-5.38.35-5.72-5.15-14.49-8.86-18.45-5.73-6.12-11.25-13.48-17.85-18.54-2.4-1.83-8.51-2.1-11.41-.59-3.97 2.05-8.14 8.33-10.34 12.01a8.02 8.02 0 0 0-.97 2.38m52.69 48.22c-.4.06-.75.16-1.14.36-.22 1.72 1.4 2.09 2.88 1.67.34-.6.46-1.28.31-1.99-.59-.04-1.47-.21-2.05-.04m4.17-4.18c-.12.52 0 1.24.05 1.75 1.83.4 3.19-1.55 1.45-2.66-.38.4-1.21.64-1.5.91m-4.47-4.76c-.14.72.04 1.44.35 2.03 1.03.09 2.13.09 3.16.02.14-2.25-2.62-3.36-4.36-3.5-.06-.07 0 .81 0 .81.33-.08 1.05.02 1.39.09.05.16-.04.76.05.86l-.59-.31zm-46.34 109.19c-.09-5.98 13.06-3.44 14.78-10.22.28-.3.96.04 1.32-.15.01-.55.01-1.26.15-1.8 5.43 1.02 6.9-4.19 3.49-7.57-2.67-2.63-7.33-2.2-9.87-5.14 2.12-1.18 8.08 1.48 9.38-.96 1.3-2.5-4.33-5.68-6.43-6.11-.45-1.71-.59-3.38-.66-5.22-1.37-.61-2.26-1.66-3.75-2.14-.15-2.51-.02-5.15-.17-7.68-1.65-1.23-4.25-2.28-5.39-4.4-4.85-.96-6.2 1.86-6.29 6.14v-5.32c-.81 7.86 8.37 12.84 5.03 21.17-2.66 6.6-10.96 6.91-11.51 15.16-1.84-5.67 1.31-8.7 4.03-13.2 3.13-5.18 1.5-8.32-.36-13.36-2.59-7.06-7.65-22.16 1.34-27.28 5.76 5.16-6.91 6.82-2.36 12.11 1.71-.25 3.48.07 4.38.89-.05-.09-1.05-1.84-.96-1.75.09.21.77 1.46.97 1.85 13.47.7 22.66 13.2 21.91 26.98-.53-.29-1.08-.41-1.75-.98 2.19.69 3.4 2.45 5.5 2.47-.11 4.13 2.89 6.18 3.19 10.34.48 6.74-2.01 5.87-7.37 7.36-7.24 1.99-9.9 10.15-18.13 9.31l-.47-.5z" fill="#3b6287" fill-rule="evenodd" clip-rule="evenodd"/><path d="M223.33 624.48c6 5.03 4.67 13.23 3.37 19.8-1.24 6.23-1.89 13.03-2.83 19.25-1.02 6.7-.15 13.47-1.1 20.42-.75 5.48-2.17 3.82-5.11 7.35-2.46 2.96-1.51 5.4-.48 9 2.84.55 7.09 1.32 7.17 4.53-.6.31-.86-.09-1.51.2.14.3.72 1.06.59 1.49 2.18.38 3.86-.6 5.03-2.53-.27.39.03 1.44.01 1.9-.04-.14-.73-1.45-.58-1.45 1.27.33 3.13-.43 4.42-.17.72-3.67 6.36-.9 1.23 2.93-.96.71-4.15.85-5.55 1.68-2.46 1.46-2.88 3.16-5.79 3.97-3.6.98-10.42.49-14.16 0-5.42-.7-7.45-2.71-6.12-9.06.99-4.68 2.05-6.18 1.04-11.33-.82-4.09-1.68-8.54-1.15-13.15.72-5.98 4.36-11.01 5.56-16.87.92-4.53.15-10.07.14-14.73-.03-7.2 1.4-7.87 6.33-12.87 3.05-3.08 3.18-11.41 8.35-10.34h1.14zm11.33 2.84c-.92-.76-1.5-1.24-2.75-1.05-.87 2.93-.1 5.54 3.23 5.1 0 .65.06 1.43.16 2.09.96.29 2.86.29 3.8 0 .2-3.05-1.93-5.58-4.44-6.71v.57zm42.46 13.02c3.39-.77 6.06 2.71 8.5 4.57 3.04 2.31 5.03 1.51 5.57 6.68-5.48 1.3-5.03-2.23-7.98-4.86-2.54-2.29-5.93-3.34-8.81-4.78-.51-1.43.3-1.4 1.04-2.17l1.68.56zm-80.41 125.18c-9.82-.98-7.37 16.01-7.37 22.08 0 12.29.47 20.26 6.92 30.6 2.28 3.66 5.73 10.24 9.48 12.59 4.96 3.13 6.22-.44 10.76-1.86 4.09-1.28 9.35.17 13.48-1.24 3.31-1.15 5.14-4.22 8.18-5.99 1.7-.97 3.5-.2 5.11-1.68 1.54-1.41 1.05-3.81 2.09-5.27 2.99-4.13 4.21-4.19 5.75-9.6-6.65-5.26-14.64-3.57-23.18-4.07-.54-3.41-3.4-5.76-6.8-3.77.68 1.81 1.52 4.33.94 6.61-3.64 2.15-8.66-3.09-8.54-6.24.21-5.18 7.01-4.55 10.2-6.24 4.63-2.44 4.65-6.52 8.19-9.37 3.79-3.05 10.23.06 9.99-6.92-2.51-2.98-4.58-5.61-5.69-9.52-3.95.66-8.06 2.2-12.27 1.5-1.25-6.09-6.01-2.19-9.73-1.6-4.82.76-10.39 0-15.29 0h-2.22zm19.83 95.15c-6.95.04-12.91 2.37-7.84 10.09 4.84.75 18.77 1.43 22.39-2.31 7.37-7.57-8.79-7.21-12.86-7.21l-1.69-.57zm-17.01 110.98c1.57 5.94 6.3 16 11.91 19.27 6.18 3.59 16.46 2.57 23.86 3.41.4-.53-.51.48-.59.56 3.07 5.69 19.93-.71 18.13 7.3 3.57 1.01 3.36-1.61 5.6-2.08 2.12-.44 4.62-.11 6.81-.11 5.48.01 10.04.45 14.37-3.3 4.39-3.82-17.37-20.65-19.62-22.48-5.89-4.77-10.56-9.21-15.69-14.86-7.96-8.77-20.22-15.93-32.42-15.25-13.48.76-15.16 17-12.36 27.54" fill="#3b6287" fill-rule="evenodd" clip-rule="evenodd"/><path d="M831.28 37.61h9.52v.5h-.48c-.72 0-1.21.07-1.48.22s-.45.36-.57.62c-.11.26-.17.92-.17 1.97v9.02c0 1.65.13 2.74.37 3.27s.66.98 1.23 1.33c.57.35 1.29.53 2.16.53 1 0 1.85-.22 2.55-.67s1.23-1.07 1.58-1.85c.35-.79.52-2.16.52-4.12v-7.52c0-.82-.08-1.41-.26-1.77-.17-.36-.39-.6-.65-.74-.41-.21-.98-.31-1.73-.31v-.5h6.37v.5h-.38c-.52 0-.95.11-1.29.31-.35.21-.59.52-.75.94-.12.29-.18.81-.18 1.56v7c0 2.16-.14 3.73-.43 4.69s-.98 1.84-2.09 2.65c-1.11.81-2.61 1.21-4.52 1.21-1.6 0-2.83-.22-3.69-.64-1.19-.58-2.03-1.32-2.51-2.22-.49-.91-.74-2.13-.74-3.66v-9.02c0-1.06-.06-1.72-.18-1.98s-.32-.46-.61-.62c-.29-.15-.82-.23-1.61-.22v-.48zm28.52-.38V52.3c0 1.13.05 1.85.15 2.17.1.31.3.57.62.77.32.2.82.3 1.52.3h.42v.5h-9.7v-.5h.49c.79 0 1.35-.09 1.69-.27.34-.18.56-.43.68-.75s.18-1.05.18-2.21v-9.55c0-.85-.04-1.39-.12-1.6-.08-.22-.23-.39-.45-.54-.22-.15-.48-.22-.77-.22-.46 0-1.03.15-1.69.44l-.24-.49 6.78-3.1h.44zM589.22 519.69h9.52v.5h-.48c-.72 0-1.21.07-1.48.22s-.45.36-.57.62c-.11.26-.17.92-.17 1.97v9.02c0 1.65.13 2.74.37 3.27.25.53.66.98 1.23 1.33.57.35 1.29.53 2.16.53 1 0 1.84-.22 2.55-.67.7-.45 1.23-1.07 1.58-1.85.35-.79.52-2.16.52-4.12V523c0-.82-.08-1.41-.26-1.77-.17-.36-.39-.6-.65-.74-.41-.21-.98-.31-1.73-.31v-.5h6.37v.5h-.38c-.52 0-.95.11-1.29.31-.35.21-.59.52-.75.94-.12.29-.18.81-.18 1.56v7c0 2.16-.14 3.73-.43 4.69s-.98 1.84-2.09 2.65c-1.11.81-2.61 1.21-4.52 1.21-1.6 0-2.83-.22-3.69-.64-1.19-.58-2.03-1.32-2.51-2.22-.49-.91-.74-2.13-.74-3.66V523c0-1.06-.06-1.72-.18-1.98s-.32-.46-.61-.62-.82-.23-1.61-.22v-.49zm30.97 18.42h-10.85v-.3c3.32-3.96 5.34-6.62 6.05-7.99s1.07-2.71 1.07-4.01c0-.95-.29-1.74-.89-2.37-.59-.63-1.31-.94-2.16-.94-1.4 0-2.48.7-3.25 2.09l-.5-.18c.49-1.74 1.23-3.03 2.23-3.86.99-.83 2.14-1.25 3.45-1.25.93 0 1.78.22 2.55.65.77.44 1.37 1.03 1.81 1.79.44.75.66 1.47.66 2.13 0 1.2-.34 2.43-1.01 3.67-.92 1.68-2.91 4.01-5.99 7.01h3.98c.98 0 1.62-.04 1.91-.12.3-.08.54-.22.73-.42.19-.2.44-.6.75-1.23h.49l-1.03 5.33zm-326.2 223.34h9.52v.5h-.48c-.72 0-1.21.07-1.48.22s-.45.36-.57.62c-.11.26-.17.92-.17 1.97v9.02c0 1.65.13 2.74.37 3.27.25.53.66.98 1.23 1.33.57.35 1.29.53 2.16.53 1 0 1.84-.22 2.55-.67.7-.45 1.23-1.07 1.58-1.85.35-.79.52-2.16.52-4.12v-7.52c0-.82-.08-1.41-.26-1.77-.17-.36-.39-.6-.65-.74-.41-.21-.98-.31-1.73-.31v-.5h6.37v.5h-.38c-.52 0-.95.11-1.29.31-.35.21-.59.52-.75.94-.12.29-.18.81-.18 1.56v7c0 2.16-.14 3.73-.43 4.69s-.98 1.84-2.09 2.65c-1.11.81-2.61 1.21-4.52 1.21-1.6 0-2.83-.22-3.69-.64-1.19-.58-2.03-1.32-2.51-2.22-.49-.91-.74-2.13-.74-3.66v-9.02c0-1.06-.06-1.72-.18-1.98s-.32-.46-.61-.62c-.29-.15-.82-.23-1.61-.22v-.48zm23.56 9.19v-.48c1.03-.3 1.75-.58 2.15-.83.4-.26.74-.66 1.03-1.18.29-.53.44-1.07.44-1.61 0-.75-.27-1.4-.82-1.93s-1.23-.81-2.05-.81c-1.27 0-2.35.67-3.24 2.01l-.5-.18c.65-1.51 1.49-2.65 2.51-3.41 1.02-.76 2.15-1.14 3.4-1.14 1.28 0 2.33.39 3.16 1.17.83.78 1.24 1.69 1.24 2.73 0 .68-.19 1.33-.58 1.96-.38.63-.99 1.18-1.81 1.66 1.06.52 1.87 1.16 2.43 1.91.56.76.83 1.7.83 2.85 0 1.92-.69 3.55-2.08 4.9-1.39 1.35-3.25 2.02-5.59 2.02-1.56 0-2.7-.26-3.41-.77-.52-.37-.77-.83-.77-1.4 0-.42.15-.77.45-1.07.3-.3.64-.44 1.03-.44.3 0 .58.06.84.19.15.07.66.47 1.54 1.19.89.72 1.71 1.08 2.48 1.08.67 0 1.25-.27 1.73-.8s.72-1.2.72-2.02c0-1.24-.44-2.38-1.3-3.43-.88-1.05-2.16-1.77-3.83-2.17zm581.99-288-1.87-.97.96-1.84 1.87.97-.96 1.84zm-3.74-1.95-1.87-.97.96-1.84 1.87.97-.96 1.84zm-3.75-1.94-1.87-.97.96-1.84 1.87.97-.96 1.84zm-3.74-1.94-1.87-.97.96-1.84 1.87.97-.96 1.84zm-3.75-1.94-1.87-.97.96-1.84 1.87.97-.96 1.84zm-3.75-1.95-1.87-.97.96-1.84 1.87.97-.96 1.84zm-3.74-1.94-1.87-.97.96-1.84 1.87.97-.96 1.84zm-3.75-1.94-1.87-.97.96-1.84 1.87.97-.96 1.84zm-3.75-1.95-1.87-.97.96-1.84 1.87.97-.96 1.84zm-3.74-1.94-1.87-.97.96-1.84 1.87.97-.96 1.84zm-3.75-1.94-1.87-.97.96-1.84 1.87.97-.96 1.84zm-3.74-1.95-1.87-.97.96-1.84 1.87.97-.96 1.84zm-3.75-1.94-1.87-.97.96-1.84 1.87.97-.96 1.84zm-3.75-1.94-1.87-.97.96-1.84 1.87.97-.96 1.84zm-3.74-1.94-1.87-.97.96-1.84 1.87.97-.96 1.84zm-3.75-1.94-1.87-.97.96-1.84 1.87.97-.96 1.84zm-3.74-1.95-1.87-.97.96-1.84 1.87.97-.96 1.84zm-3.75-1.94-1.87-.97.96-1.84 1.87.97-.96 1.84zm-3.74-1.94-1.87-.97.96-1.84 1.87.97-.96 1.84zm-3.75-1.95-1.87-.97.96-1.84 1.87.97-.96 1.84zm-3.74-1.94-1.87-.97.96-1.84 1.87.97-.96 1.84zm-3.75-1.94-1.87-.97.96-1.84 1.87.97-.96 1.84zm-3.75-1.94-1.87-.97.96-1.84 1.87.97-.96 1.84zm-3.74-1.95-1.87-.97.96-1.84 1.87.97-.96 1.84zm-3.75-1.94-1.87-.97.96-1.84 1.87.97-.96 1.84zm-3.75-1.94-1.87-.97.96-1.84 1.87.97-.96 1.84zm-3.74-1.95-1.87-.97.96-1.84 1.87.97-.96 1.84zm-3.75-1.94-1.87-.97.96-1.84 1.87.97-.96 1.84zm-3.74-1.94-1.87-.97.96-1.84 1.87.97-.96 1.84zm-3.75-1.95-1.87-.97.96-1.84 1.87.97-.96 1.84zm-3.74-1.94-1.87-.97.96-1.84 1.87.97-.96 1.84zm-3.75-1.94-1.87-.97.96-1.84 1.87.97-.96 1.84zm-3.74-1.94-1.87-.97.96-1.84 1.87.97-.96 1.84zm-3.75-1.94-1.87-.97.96-1.84 1.87.97-.96 1.84zm-3.75-1.95-1.87-.97.96-1.84 1.87.97-.96 1.84zm-3.74-1.94-1.87-.97.96-1.84 1.87.97-.96 1.84zm-3.75-1.94-1.87-.97.96-1.84 1.87.97-.96 1.84zm-3.74-1.95-1.87-.97.96-1.84 1.87.97-.96 1.84zm-3.75-1.94-1.87-.97.96-1.84 1.87.97-.96 1.84zm-3.75-1.94-1.87-.97.96-1.84 1.87.97-.96 1.84zm-3.74-1.95-1.87-.97.96-1.84 1.87.97-.96 1.84zm-3.75-1.94-1.87-.97.96-1.84 1.87.97-.96 1.84zm-3.75-1.94-1.87-.97.96-1.84 1.87.97-.96 1.84zm-3.74-1.94-1.87-.97.96-1.84 1.87.97-.96 1.84zm-3.75-1.95-1.87-.97.96-1.84 1.87.97-.96 1.84zm-3.74-1.94-1.87-.97.96-1.84 1.87.97-.96 1.84zm-3.75-1.94-1.87-.97.96-1.84 1.87.97-.96 1.84zm-3.74-1.95-1.87-.97.96-1.84 1.87.97-.96 1.84zm-3.75-1.94-1.87-.97.96-1.84 1.87.97-.96 1.84zm-3.74-1.94-1.87-.97.96-1.84 1.87.97-.96 1.84zm-3.75-1.94-1.87-.97.96-1.84 1.87.97-.96 1.84zm-3.75-1.95-1.87-.97.96-1.84 1.87.97-.96 1.84zm-3.74-1.94-1.87-.97.96-1.84 1.87.97-.96 1.84zm-3.75-1.94-1.87-.97.96-1.84 1.87.97-.96 1.84zm-3.75-1.95-1.87-.97.96-1.84 1.87.97-.96 1.84zm-3.74-1.94-1.87-.97.96-1.84 1.87.97-.96 1.84zm-3.75-1.94-1.87-.97.96-1.84 1.87.97-.96 1.84zm-3.74-1.95-1.87-.97.96-1.84 1.87.97-.96 1.84zm-3.75-1.94-1.87-.97.96-1.84 1.87.97-.96 1.84zm-3.75-1.94-1.87-.97.96-1.84 1.87.97-.96 1.84zm-3.74-1.94-1.87-.97.96-1.84 1.87.97-.96 1.84zm-3.74-1.94-1.87-.97.96-1.84 1.87.97-.96 1.84zm-3.75-1.95-1.87-.97.96-1.84 1.87.97-.96 1.84zm-3.75-1.94-1.87-.97.96-1.84 1.87.97-.96 1.84zm-3.74-1.94-1.87-.97.96-1.84 1.87.97-.96 1.84zm-3.75-1.95-1.87-.97.96-1.84 1.87.97-.96 1.84zm-3.74-1.94-1.87-.97.96-1.84 1.87.97-.96 1.84zm-3.75-1.94-1.87-.97.96-1.84 1.87.97-.96 1.84zm-3.75-1.94-1.87-.97.96-1.84 1.87.97-.96 1.84zm-3.74-1.95-1.87-.97.96-1.84 1.87.97-.96 1.84zm-3.75-1.94-1.87-.97.96-1.84 1.87.97-.96 1.84zm-3.75-1.94-1.87-.97.96-1.84 1.87.97-.96 1.84zm-3.74-1.95-1.87-.97.96-1.84 1.87.97-.96 1.84zm-3.75-1.94-1.87-.97.96-1.84 1.87.97-.96 1.84zm-3.74-1.94-1.87-.97.96-1.84 1.87.97-.96 1.84zm-3.75-1.95-1.87-.97.96-1.84 1.87.97-.96 1.84zm-3.74-1.94-1.87-.97.96-1.84 1.87.97-.96 1.84zm-3.75-1.94-1.87-.97.96-1.84 1.87.97-.96 1.84zm-3.74-1.94-1.87-.97.96-1.84 1.87.97-.96 1.84zm-3.75-1.94-1.87-.97.96-1.84 1.87.97-.96 1.84zm-3.75-1.95-1.87-.97.96-1.84 1.87.97-.96 1.84zm-3.74-1.94-1.87-.97.96-1.84 1.87.97-.96 1.84zm-3.75-1.94-1.87-.97.96-1.84 1.87.97-.96 1.84zm-3.74-1.95-1.87-.97.96-1.84 1.87.97-.96 1.84zm-3.75-1.94-1.87-.97.96-1.84 1.87.97-.96 1.84zm-3.75-1.94-1.87-.97.96-1.84 1.87.97-.96 1.84zm-3.74-1.95-1.87-.97.96-1.84 1.87.97-.96 1.84zm-3.75-1.94-1.87-.97.96-1.84 1.87.97-.96 1.84zm-3.75-1.94-1.87-.97.96-1.84 1.87.97-.96 1.84zm-3.74-1.94-1.87-.97.96-1.84 1.87.97-.96 1.84zm-3.74-1.95-1.87-.97.96-1.84 1.87.97-.96 1.84zm-3.75-1.94-1.87-.97.96-1.84 1.87.97-.96 1.84zm-3.75-1.94-1.87-.97.96-1.84 1.87.97-.96 1.84zm-3.74-1.95-1.87-.97.96-1.84 1.87.97-.96 1.84zm-3.75-1.94-1.87-.97.96-1.84 1.87.97-.96 1.84zm-3.74-1.94-1.87-.97.96-1.84 1.87.97-.96 1.84zm-3.75-1.94-1.87-.97.96-1.84 1.87.97-.96 1.84zm-3.75-1.94-1.87-.97.96-1.84 1.87.97-.96 1.84zm-3.74-1.95-1.87-.97.96-1.84 1.87.97-.96 1.84zm-3.75-1.94-1.87-.97.96-1.84 1.87.97-.96 1.84zm-3.74-1.94-1.87-.97.96-1.84 1.87.97-.96 1.84zm-3.75-1.95-1.87-.97.96-1.84 1.87.97-.96 1.84zm-3.75-1.94-1.87-.97.96-1.84 1.87.97-.96 1.84zm-3.74-1.94-1.87-.97.96-1.84 1.87.97-.96 1.84zm-3.74-1.95-1.87-.97.96-1.84 1.87.97-.96 1.84zm-3.75-1.94-1.87-.97.96-1.84 1.87.97-.96 1.84zm-3.75-1.94-1.87-.97.96-1.84 1.87.97-.96 1.84zm-3.74-1.94-1.87-.97.96-1.84 1.87.97-.96 1.84zm-3.75-1.95-1.87-.97.96-1.84 1.87.97-.96 1.84zm-3.75-1.94-1.87-.97.96-1.84 1.87.97-.96 1.84zm-3.74-1.94-1.87-.97.96-1.84 1.87.97-.96 1.84zm-3.75-1.95-1.87-.97.96-1.84 1.87.97-.96 1.84zm-3.74-1.94-1.87-.97.96-1.84 1.87.97-.96 1.84zm-3.75-1.94-1.87-.97.96-1.84 1.87.97-.96 1.84zm-3.75-1.95-1.87-.97.96-1.84 1.87.97-.96 1.84zm-3.74-1.94-1.87-.97.96-1.84 1.87.97-.96 1.84zm-3.75-1.94-1.87-.97.96-1.84 1.87.97-.96 1.84zm-3.74-1.94-1.87-.97.96-1.84 1.87.97-.96 1.84zm-3.75-1.95-1.87-.97.96-1.84 1.87.97-.96 1.84zm-3.74-1.94-1.87-.97.96-1.84 1.87.97-.96 1.84zm-3.75-1.94-1.87-.97.96-1.84 1.87.97-.96 1.84zm-3.75-1.95-1.87-.97.96-1.84 1.87.97-.96 1.84zm-3.74-1.94-1.87-.97.96-1.84 1.87.97-.96 1.84zm-3.75-1.94-1.87-.97.96-1.84 1.87.97-.96 1.84zm-3.74-1.94-1.87-.97.96-1.84 1.87.97-.96 1.84zm-3.75-1.94-1.87-.97.96-1.84 1.87.97-.96 1.84zm-3.75-1.95-1.87-.97.96-1.84 1.87.97-.96 1.84zm-3.74-1.94-1.87-.97.96-1.84 1.87.97-.96 1.84zm-3.75-1.94-1.87-.97.96-1.84 1.87.97-.96 1.84zm-3.74-1.95-1.87-.97.96-1.84 1.87.97-.96 1.84zm-3.75-1.94-1.87-.97.96-1.84 1.87.97-.96 1.84zm-3.74-1.94-1.87-.97.96-1.84 1.87.97-.96 1.84zm-3.75-1.95-1.87-.97.96-1.84 1.87.97-.96 1.84zm-3.74-1.94-1.87-.97.96-1.84 1.87.97-.96 1.84zm-3.75-1.94-1.87-.97.96-1.84 1.87.97-.96 1.84zm-3.75-1.94-1.87-.97.96-1.84 1.87.97-.96 1.84zm-3.74-1.95-1.87-.97.96-1.84 1.87.97-.96 1.84zm-3.75-1.94-1.87-.97.96-1.84 1.87.97-.96 1.84zm-3.75-1.94-1.87-.97.96-1.84 1.87.97-.96 1.84zm-3.74-1.95-1.87-.97.96-1.84 1.87.97-.96 1.84zm-3.75-1.94-1.87-.97.96-1.84 1.87.97-.96 1.84zm-3.74-1.94-1.87-.97.96-1.84 1.87.97-.96 1.84zm-3.75-1.94-1.87-.97.96-1.84 1.87.97-.96 1.84zm-3.75-1.94-1.87-.97.96-1.84 1.87.97-.96 1.84zm-3.74-1.95-1.87-.97.96-1.84 1.87.97-.96 1.84zm-3.74-1.94-1.87-.97.96-1.84 1.87.97-.96 1.84zm-3.75-1.94-1.87-.97.96-1.84 1.87.97-.96 1.84zm-3.75-1.95-1.87-.97.96-1.84 1.87.97-.96 1.84zm-3.74-1.94-1.87-.97.96-1.84 1.87.97-.96 1.84zm-3.75-1.94-1.87-.97.96-1.84 1.87.97-.96 1.84zm-3.74-1.95-1.87-.97.96-1.84 1.87.97-.96 1.84zm-3.75-1.94-1.87-.97.96-1.84 1.87.97-.96 1.84zm-3.75-1.94-1.87-.97.96-1.84 1.87.97-.96 1.84zm-3.74-1.94-1.87-.97.96-1.84 1.87.97-.96 1.84zm-3.75-1.95-1.87-.97.96-1.84 1.87.97-.96 1.84zm-3.75-1.94-1.87-.97.96-1.84 1.87.97-.96 1.84zm-3.74-1.94-1.87-.97.96-1.84 1.87.97-.96 1.84zm-3.74-1.95-1.87-.97.96-1.84 1.87.97-.96 1.84zm-3.75-1.94-1.87-.97.96-1.84 1.87.97-.96 1.84zm-3.75-1.94-1.87-.97.96-1.84 1.87.97-.96 1.84zm-3.74-1.94-1.87-.97.96-1.84 1.87.97-.96 1.84zm-3.75-1.94-1.87-.97.96-1.84 1.87.97-.96 1.84zm-3.74-1.95-1.87-.97.96-1.84 1.87.97-.96 1.84zm-3.75-1.94-1.87-.97.96-1.84 1.87.97-.96 1.84zm-3.75-1.94-1.87-.97.96-1.84 1.87.97-.96 1.84zm-3.74-1.95-1.87-.97.96-1.84 1.87.97-.96 1.84zm-3.75-1.94-1.87-.97.96-1.84 1.87.97-.96 1.84zm-3.74-1.94-1.87-.97.96-1.84 1.87.97-.96 1.84zm-3.75-1.95-1.87-.97.96-1.84 1.87.97-.96 1.84zm-3.75-1.94-1.87-.97.96-1.84 1.87.97-.96 1.84zm-3.74-1.94-1.87-.97.96-1.84 1.87.97-.96 1.84zm-3.74-1.94-1.87-.97.96-1.84 1.87.97-.96 1.84zm-3.75-1.95-1.87-.97.96-1.84 1.87.97-.96 1.84zm-3.75-1.94-1.87-.97.96-1.84 1.87.97-.96 1.84zm-3.74-1.94-1.87-.97.96-1.84 1.87.97-.96 1.84zm-3.75-1.95-1.87-.97.96-1.84 1.87.97-.96 1.84zm-3.75-1.94-1.87-.97.96-1.84 1.87.97-.96 1.84zm-3.74-1.94-1.87-.97.96-1.84 1.87.97-.96 1.84z"/><path d="M846.95 77.39c-16.86 0-30.58-13.72-30.58-30.58s13.72-30.58 30.58-30.58 30.58 13.72 30.58 30.58-13.72 30.58-30.58 30.58zm0-58.45c-15.36 0-27.86 12.5-27.86 27.86 0 15.37 12.5 27.87 27.86 27.87s27.86-12.5 27.86-27.87c0-15.36-12.5-27.86-27.86-27.86zm-241.7 540.53c-16.86 0-30.58-13.72-30.58-30.58s13.72-30.58 30.58-30.58 30.58 13.72 30.58 30.58-13.71 30.58-30.58 30.58zm0-58.45c-15.36 0-27.86 12.5-27.86 27.87 0 15.36 12.5 27.86 27.86 27.86s27.86-12.5 27.86-27.86c.01-15.37-12.49-27.87-27.86-27.87zm-295.36 300.2c-16.86 0-30.58-13.72-30.58-30.58s13.72-30.58 30.58-30.58 30.58 13.72 30.58 30.58c0 16.87-13.72 30.58-30.58 30.58zm0-58.44c-15.36 0-27.86 12.5-27.86 27.87 0 15.36 12.5 27.86 27.86 27.86s27.86-12.5 27.86-27.86c0-15.37-12.49-27.87-27.86-27.87zm538.2-2.51.44-2.03.09.02-.53 2.01zm-2.14-.6-2.03-.58.57-1.99 2.03.58-.57 1.99zm-4.06-1.16-2.03-.58.57-1.99 2.03.58-.57 1.99zm-4.05-1.16-2.03-.58.56-1.99 2.03.58-.56 1.99zm-4.06-1.16-2.03-.58.57-1.99 2.03.58-.57 1.99zm-4.06-1.16-2.03-.58.57-1.99 2.03.58-.57 1.99zm-4.06-1.16-2.03-.58.56-1.99 2.03.58-.56 1.99zm-4.06-1.15-2.03-.58.57-1.99 2.03.58-.57 1.99zm-4.05-1.16-2.03-.58.57-1.99 2.03.58-.57 1.99zm-4.06-1.16-2.03-.58.56-1.99 2.03.58-.56 1.99zm-4.06-1.16-2.03-.58.57-1.99 2.03.58-.57 1.99zm-4.06-1.15-2.03-.58.57-1.99 2.03.58-.57 1.99zm-4.05-1.17-2.03-.58.56-1.99 2.03.58-.56 1.99zm-4.07-1.15-2.03-.58.57-1.99 2.03.58-.57 1.99zm-4.05-1.16-2.03-.58.57-1.99 2.03.58-.57 1.99zm-4.06-1.16-2.03-.58.56-1.99 2.03.58-.56 1.99zm-4.06-1.16-2.03-.58.57-1.99 2.03.58-.57 1.99zm-4.06-1.15-2.03-.58.57-1.99 2.03.58-.57 1.99zm-4.05-1.17-2.03-.58.56-1.99 2.03.58-.56 1.99zm-4.06-1.15-2.03-.58.57-1.99 2.03.58-.57 1.99zm-4.06-1.16-2.03-.58.57-1.99 2.03.58-.57 1.99zm-4.05-1.16-2.03-.58.56-1.99 2.03.58-.56 1.99zm-4.06-1.16-2.03-.58.57-1.99 2.03.58-.57 1.99zm-4.06-1.15-2.03-.58.57-1.99 2.03.58-.57 1.99zm-4.05-1.16-2.03-.58.56-1.99 2.03.58-.56 1.99zm-4.07-1.16-2.03-.58.57-1.99 2.03.58-.57 1.99zm-4.05-1.16-2.03-.58.57-1.99 2.03.58-.57 1.99zm-4.06-1.16-2.03-.58.56-1.99 2.03.58-.56 1.99zm-4.06-1.16-2.03-.58.57-1.99 2.03.58-.57 1.99zm-4.06-1.15-2.03-.58.57-1.99 2.03.58-.57 1.99zm-4.05-1.16-2.03-.58.56-1.99 2.03.58-.56 1.99zm-4.06-1.16-2.03-.58.57-1.99 2.03.58-.57 1.99zm-4.06-1.16-2.03-.58.57-1.99 2.03.58-.57 1.99zm-4.05-1.16-2.03-.58.56-1.99 2.03.58-.56 1.99zm-4.07-1.15-2.03-.58.57-1.99 2.03.58-.57 1.99zm-4.05-1.16-2.03-.58.57-1.99 2.03.58-.57 1.99zm-4.06-1.16-2.03-.58.56-1.99 2.03.58-.56 1.99zm-4.06-1.16-2.03-.58.57-1.99 2.03.58-.57 1.99zm-4.06-1.16-2.03-.58.57-1.99 2.03.58-.57 1.99zm-4.05-1.16-2.03-.58.56-1.99 2.03.58-.56 1.99zm-4.06-1.15-2.03-.58.57-1.99 2.03.58-.57 1.99zm-4.06-1.16-2.03-.58.57-1.99 2.03.58-.57 1.99zm-4.05-1.16-2.03-.58.56-1.99 2.03.58-.56 1.99zm-4.06-1.16-2.03-.58.57-1.99 2.03.58-.57 1.99zm-4.06-1.16-2.03-.58.57-1.99 2.03.58-.57 1.99zm-4.05-1.16-2.03-.58.56-1.99 2.03.58-.56 1.99zm-4.07-1.15-2.03-.58.57-1.99 2.03.58-.57 1.99zm-4.05-1.16-2.03-.58.57-1.99 2.03.58-.57 1.99zm-4.06-1.16-2.03-.58.56-1.99 2.03.58-.56 1.99zm-4.06-1.16-2.03-.58.57-1.99 2.03.58-.57 1.99zm-4.06-1.15-2.03-.58.57-1.99 2.03.58-.57 1.99zm-4.05-1.17-2.03-.58.56-1.99 2.03.58-.56 1.99zm-4.06-1.15-2.03-.58.57-1.99 2.03.58-.57 1.99zm-4.06-1.16-2.03-.58.57-1.99 2.03.58-.57 1.99zm-4.05-1.16-2.03-.58.56-1.99 2.03.58-.56 1.99zm-4.06-1.16-2.03-.58.57-1.99 2.03.58-.57 1.99zm-4.06-1.15-2.03-.58.57-1.99 2.03.58-.57 1.99zm-4.05-1.16-2.03-.58.56-1.99 2.03.58-.56 1.99zm-4.07-1.16-2.03-.58.57-1.99 2.03.58-.57 1.99zm-4.05-1.16-2.03-.58.57-1.99 2.03.58-.57 1.99zm-4.06-1.16-2.03-.58.56-1.99 2.03.58-.56 1.99zm-4.06-1.16-2.03-.58.57-1.99 2.03.58-.57 1.99zm-4.06-1.15-2.03-.58.57-1.99 2.03.58-.57 1.99zm-4.05-1.16-2.03-.58.56-1.99 2.03.58-.56 1.99zm-4.06-1.16-2.03-.58.57-1.99 2.03.58-.57 1.99zm-4.06-1.16-2.03-.58.57-1.99 2.03.58-.57 1.99zm-4.05-1.16-2.03-.58.56-1.99 2.03.58-.56 1.99zm-4.07-1.16-2.03-.58.57-1.99 2.03.58-.57 1.99zm-4.05-1.15-2.03-.58.57-1.99 2.03.58-.57 1.99zm-4.06-1.16-2.03-.58.56-1.99 2.03.58-.56 1.99zm-4.06-1.16-2.03-.58.57-1.99 2.03.58-.57 1.99zm-4.06-1.16-2.03-.58.57-1.99 2.03.58-.57 1.99zm-4.05-1.16-2.03-.58.56-1.99 2.03.58-.56 1.99zm-4.06-1.15-2.03-.58.57-1.99 2.03.58-.57 1.99zm-4.06-1.16-2.03-.58.57-1.99 2.03.58-.57 1.99zm-4.05-1.16-2.03-.58.56-1.99 2.03.58-.56 1.99zm-4.06-1.16-2.03-.58.57-1.99 2.03.58-.57 1.99zm-4.06-1.16-2.03-.58.57-1.99 2.03.58-.57 1.99zm-4.05-1.16-2.03-.58.56-1.99 2.03.58-.56 1.99zm-4.06-1.15-2.03-.58.56-1.99 2.03.58-.56 1.99zm-4.06-1.16-2.03-.58.57-1.99 2.03.58-.57 1.99zm-4.06-1.16-2.03-.58.57-1.99 2.03.58-.57 1.99zm-4.06-1.16-2.03-.58.56-1.99 2.03.58-.56 1.99zm-4.06-1.15-2.03-.58.57-1.99 2.03.58-.57 1.99zm-4.05-1.16-2.03-.58.57-1.99 2.03.58-.57 1.99zm-4.06-1.16-2.03-.58.56-1.99 2.03.58-.56 1.99zm-4.06-1.16-2.03-.58.57-1.99 2.03.58-.57 1.99zm-4.06-1.16-2.03-.58.57-1.99 2.03.58-.57 1.99zm-4.06-1.16-2.03-.58.56-1.99 2.03.58-.56 1.99zm-4.06-1.15-2.03-.58.57-1.99 2.03.58-.57 1.99zm-4.06-1.16-2.03-.58.57-1.99 2.03.58-.57 1.99zm-4.05-1.16-2.03-.58.56-1.99 2.03.58-.56 1.99zm-4.06-1.16-2.03-.58.57-1.99 2.03.58-.57 1.99zm-4.06-1.15-2.03-.58.57-1.99 2.03.58-.57 1.99zm-4.05-1.17-2.03-.58.56-1.99 2.03.58-.56 1.99zm-4.06-1.15-2.03-.58.57-1.99 2.03.58-.57 1.99zm-4.06-1.16-2.03-.58.57-1.99 2.03.58-.57 1.99zm-4.05-1.16-2.03-.58.56-1.99 2.03.58-.56 1.99zm-4.07-1.16-2.03-.58.57-1.99 2.03.58-.57 1.99zm-4.05-1.15-2.03-.58.57-1.99 2.03.58-.57 1.99zm-4.06-1.17-2.03-.58.56-1.99 2.03.58-.56 1.99zm-4.06-1.15-2.03-.58.57-1.99 2.03.58-.57 1.99zm-4.06-1.16-2.03-.58.57-1.99 2.03.58-.57 1.99zm-4.05-1.16-2.03-.58.56-1.99 2.03.58-.56 1.99zm-4.06-1.16-2.03-.58.57-1.99 2.03.58-.57 1.99zm-4.06-1.15-2.03-.58.57-1.99 2.03.58-.57 1.99zm-4.05-1.16-2.03-.58.56-1.99 2.03.58-.56 1.99zm-4.06-1.16-2.03-.58.57-1.99 2.03.58-.57 1.99zm-4.06-1.16-2.03-.58.57-1.99 2.03.58-.57 1.99zm-4.05-1.16-2.03-.58.56-1.99 2.03.58-.56 1.99zm-4.07-1.16-2.03-.58.57-1.99 2.03.58-.57 1.99zm-4.05-1.15-2.03-.58.57-1.99 2.03.58-.57 1.99zm-4.06-1.16-2.03-.58.56-1.99 2.03.58-.56 1.99zm-4.06-1.16-2.03-.58.57-1.99 2.03.58-.57 1.99zm-4.06-1.16-2.03-.58.57-1.99 2.03.58-.57 1.99zm-4.05-1.16-2.03-.58.56-1.99 2.03.58-.56 1.99zm-4.06-1.15-2.03-.58.57-1.99 2.03.58-.57 1.99zm-4.06-1.16-2.03-.58.57-1.99 2.03.58-.57 1.99zm-4.05-1.16-2.03-.58.56-1.99 2.03.58-.56 1.99zm-4.06-1.16-2.03-.58.57-1.99 2.03.58-.57 1.99zm-4.06-1.16-2.03-.58.57-1.99 2.03.58-.57 1.99zm-4.06-1.16-2.03-.58.56-1.99 2.03.58-.56 1.99zm-4.06-1.15-2.03-.58.57-1.99 2.03.58-.57 1.99zm-4.06-1.16-2.03-.58.57-1.99 2.03.58-.57 1.99zm-4.05-1.16-2.03-.58.56-1.99 2.03.58-.56 1.99zm-4.06-1.16-2.03-.58.57-1.99 2.03.58-.57 1.99zm-4.06-1.16-2.03-.58.57-1.99 2.03.58-.57 1.99zm-4.05-1.16-2.03-.58.56-1.99 2.03.58-.56 1.99zm-4.06-1.15-2.03-.58.57-1.99 2.03.58-.57 1.99zm-4.06-1.16-2.03-.58.57-1.99 2.03.58-.57 1.99zm-4.05-1.16-2.03-.58.56-1.99 2.03.58-.56 1.99zm-4.07-1.16-2.03-.58.57-1.99 2.03.58-.57 1.99zm-4.05-1.15-2.03-.58.57-1.99 2.03.58-.57 1.99zm-4.06-1.17-2.03-.58.56-1.99 2.03.58-.56 1.99zm-4.06-1.15-2.03-.58.57-1.99 2.03.58-.57 1.99zm-4.06-1.16-2.03-.58.57-1.99 2.03.58-.57 1.99zm-4.05-1.16-2.03-.58.56-1.99 2.03.58-.56 1.99zm-4.06-1.16-2.03-.58.57-1.99 2.03.58-.57 1.99zm-4.06-1.15-2.03-.58.57-1.99 2.03.58-.57 1.99zm-4.05-1.16-2.03-.58.56-1.99 2.03.58-.56 1.99zm-4.06-1.16-2.03-.58.57-1.99 2.03.58-.57 1.99zm-4.06-1.16-2.03-.58.57-1.99 2.03.58-.57 1.99zm-4.05-1.16-2.03-.58.56-1.99 2.03.58-.56 1.99zm-4.07-1.16-2.03-.58.57-1.99 2.03.58-.57 1.99zm-4.05-1.15-2.03-.58.57-1.99 2.03.58-.57 1.99zm-4.06-1.16-2.03-.58.56-1.99 2.03.58-.56 1.99zm-4.05-1.16-2.03-.58.56-1.99 2.03.58-.56 1.99zm-4.07-1.16-2.03-.58.57-1.99 2.03.58-.57 1.99zm-4.05-1.15-2.03-.58.57-1.99 2.03.58-.57 1.99zm-4.06-1.17-2.03-.58.56-1.99 2.03.58-.56 1.99zm-4.06-1.15-2.03-.58.57-1.99 2.03.58-.57 1.99zm-4.06-1.16-2.03-.58.57-1.99 2.03.58-.57 1.99zm-4.05-1.16-2.03-.58.56-1.99 2.03.58-.56 1.99zm-4.06-1.16-2.03-.58.57-1.99 2.03.58-.57 1.99zm-4.06-1.15-2.03-.58.57-1.99 2.03.58-.57 1.99zm-4.05-1.16-2.03-.58.56-1.99 2.03.58-.56 1.99zm-4.06-1.16-2.03-.58.57-1.99 2.03.58-.57 1.99zm-4.06-1.16-2.03-.58.57-1.99 2.03.58-.57 1.99zm-4.06-1.16-2.03-.58.56-1.99 2.03.58-.56 1.99zm-4.06-1.16-2.03-.58.57-1.99 2.03.58-.57 1.99zm-4.06-1.15-2.03-.58.57-1.99 2.03.58-.57 1.99zm-4.05-1.16-2.03-.58.56-1.99 2.03.58-.56 1.99zm-4.06-1.16-2.03-.58.57-1.99 2.03.58-.57 1.99zm-4.06-1.16-2.03-.58.57-1.99 2.03.58-.57 1.99zm-4.06-1.16-2.03-.58.56-1.99 2.03.58-.56 1.99zm-4.06-1.15-2.03-.58.57-1.99 2.03.58-.57 1.99zm-4.05-1.16-2.03-.58.57-1.99 2.03.58-.57 1.99zm-4.06-1.16-2.03-.58.56-1.99 2.03.58-.56 1.99zm-4.06-1.16-2.03-.58.57-1.99 2.03.58-.57 1.99zm-4.06-1.16-2.03-.58.57-1.99 2.03.58-.57 1.99zm-4.05-1.16-2.03-.58.56-1.99 2.03.58-.56 1.99zm-4.06-1.15-2.03-.58.57-1.99 2.03.58-.57 1.99zm-4.06-1.16-2.03-.58.57-1.99 2.03.58-.57 1.99zm-4.05-1.16-2.03-.58.56-1.99 2.03.58-.56 1.99zm-4.07-1.16-2.03-.58.57-1.99 2.03.58-.57 1.99zm-4.05-1.15-2.03-.58.57-1.99 2.03.58-.57 1.99zm-4.06-1.17-2.03-.58.56-1.99 2.03.58-.56 1.99zm-4.06-1.15-2.03-.58.57-1.99 2.03.58-.57 1.99zm-4.06-1.16-2.03-.58.57-1.99 2.03.58-.57 1.99zM707.28 74.05c-.58-.05-.9-.09-.97-.14-.26-.17-.39-.37-.39-.61 0-.33.18-.58.53-.73.43-.08.78-.1 1.05-.08.33.03.72.13 1.16.28.31.11.59.3.84.58.19.22.29.47.29.76 0 .42-.21.86-.65 1.33-.34.37-.74.69-1.19.94-.71.41-1.32.63-1.82.68-.24.02-.44-.03-.6-.17a.705.705 0 0 1-.25-.56c0-.37.18-.58.54-.63.32-.04.61-.14.89-.27.2-.1.46-.25.8-.47.46-.3.69-.52.69-.66.01-.11-.3-.2-.92-.25zm1.41 7.63c.42.1.67.16.74.18.16.11.26.29.31.53.02.11 0 .24-.07.38s-.16.23-.26.28l-1.04.49c-.52.27-.67.46-.45.57-.01.01-.01.01-.01.02 0 .06.39.11 1.18.15.38.02.64.04.77.05.26.02.42.03.47.03.1 0 .25.02.46.06.2.07.3.29.3.66 0 .15-.04.28-.11.4-.08.14-.2.21-.33.2l-1.91-.2c-1.24-.12-1.93-.22-2.06-.28-.54-.07-.81-.33-.81-.76 0-.24.1-.43.3-.57l1.76-1.22c-1.02-.2-1.62-.37-1.79-.49-.13-.1-.2-.27-.2-.53 0-.17.04-.29.13-.35.79-.57 1.42-1.03 1.89-1.38a.26.26 0 0 1 .11-.03c.21 0 .4.18.57.55.01.1-.05.27-.18.53-.32.28-.53.46-.63.53.4.09.68.16.86.2zm2.84-7.6c-.58-.05-.9-.09-.97-.14-.26-.16-.39-.37-.39-.61 0-.33.18-.58.53-.73.43-.08.78-.11 1.05-.08.33.04.72.13 1.16.28.31.11.59.3.84.58.19.21.29.47.29.76 0 .42-.22.86-.65 1.33-.34.37-.74.69-1.19.94-.71.41-1.32.63-1.82.68-.24.02-.44-.03-.6-.17a.705.705 0 0 1-.25-.56c0-.37.18-.58.54-.63.32-.04.61-.14.89-.27.2-.1.46-.25.8-.47.46-.3.69-.52.69-.66.01-.12-.3-.2-.92-.25zm7.96 8.54c.25-.52.38-.87.38-1.05 0-.05-.01-.08-.04-.08-.01 0-.03.01-.04.02-.36.25-.76.54-1.22.87-.92.66-1.54 1.08-1.86 1.26l-1.54.87c-.37.21-.71.37-1.04.48-.05.02-.1.02-.16.02-.18 0-.37-.1-.56-.3-.31-.32-.46-.67-.46-1.07 0-.15.04-.27.11-.38.11-.13.31-.2.6-.2.08 0 .21 0 .37.01s.28.01.37.01c.18 0 .33-.02.46-.05.06-.03.1-.04.12-.05l.37-.2c.62-.34 1.03-.58 1.25-.72l2.33-1.57c.62-.41.99-.64 1.13-.68.2-.06.42-.01.67.14.37.21.55.57.55 1.06 0 .44-.13.98-.38 1.63-.37.94-.76 1.63-1.15 2.06-.07.08-.18.12-.31.12-.18 0-.36-.07-.54-.2-.21-.15-.31-.3-.31-.47 0-.17.05-.3.16-.4.22-.19.47-.57.74-1.13zm1.53-9.9c.66.01 1.14.33 1.46.95.06.19.08.41.08.66 0 .54-.14.99-.41 1.37-.67.92-1.77 1.45-3.28 1.57-.72-.03-1.23-.26-1.51-.69-.16-.33-.24-.65-.24-.95 0-.5.23-1.01.7-1.51.89-.96 1.96-1.42 3.2-1.4zm-2.36 2.83c.08.12.24.21.48.27h.27c.11 0 .22 0 .34-.01.66-.27 1.11-.59 1.36-.95a.57.57 0 0 0 .04-.22c0-.35-.28-.51-.85-.48-.34.08-.58.17-.71.26-.31.15-.55.31-.72.5-.17.19-.25.35-.25.48 0 .06.01.11.04.15zm10.7 4.14c.27.01.5.09.7.23.41.3.69.68.84 1.16.02.18.03.27.03.29-.02.63-.25 1.18-.69 1.63-.51.4-1.18.59-1.99.56-.71-.02-1.34-.34-1.91-.95-.39.14-.77.31-1.15.5-.02.01-.03.03-.03.06 0 .01.12.18.36.52s.36.57.36.69c-.02.45-.3.83-.85 1.15-.37.21-.97.41-1.8.59-.24.06-.57.1-.98.14-.16.02-.32-.09-.48-.33-.13-.2-.21-.39-.23-.58-.05-.43.07-.64.35-.64.12 0 .31.04.57.11.26.08.46.11.59.11.05 0 .15-.01.32-.02.02-.01.08-.03.18-.04.11-.04.24-.09.38-.14.29-.11.43-.23.43-.35 0-.04-.15-.23-.44-.58-.27-.32-.41-.55-.41-.7 0-.11.04-.22.12-.34.05-.14.23-.31.56-.53 1.26-.85 2.71-1.63 4.34-2.35.32-.13.59-.2.83-.19zm2.51-6.87c.45.08.67.3.68.66.01.38-.52.74-1.58 1.06-.51.15-.87.42-1.07.81.12.15.35.26.68.31.31.02.7.08 1.18.17.26.11.36.35.3.7-.08.46-.41.7-.98.7-.45 0-1-.13-1.66-.37-.5-.19-.82-.48-.97-.88-.68.59-1.69.96-3.01 1.12-.24.03-.48 0-.7-.09-.28-.11-.42-.28-.42-.51 0-.41.2-.67.59-.76.28 0 .65-.05 1.12-.14.66-.14 1.13-.35 1.39-.65-.05-.22-.32-.39-.81-.54-.12-.02-.44-.06-.95-.12-.29-.09-.43-.27-.43-.53 0-.04.01-.1.03-.19.1-.51.44-.74 1.03-.7.34.02.67.08 1 .17.66.18 1.19.59 1.57 1.23.38-.45.73-.76 1.06-.94.36-.2.93-.37 1.7-.52.04-.02.13-.01.25.01zm-3.96 9.11c.01.06.12.12.33.19.16.05.35.07.57.06.21-.01.4-.06.56-.16.16-.1.24-.22.26-.36.01-.32-.14-.48-.45-.47-.14.01-.37.08-.69.21-.38.21-.57.39-.58.53z"/><path d="M806.16 374.53c.88-.08 1.32-.37 1.32-.84 0-.36-.2-.6-.6-.73-.49-.16-1.1-.32-1.83-.49-.63-.25-.94-.54-.94-.87 0-.91.44-1.32 1.33-1.24.2.02.38.03.56.03.61 0 1.56-.3 2.87-.89.14-.07.33-.1.56-.1.28 0 .52.11.72.34.2.23.3.48.3.77 0 .32-.18.58-.53.79-.31.14-.62.29-.93.44.57.51.87 1.17.9 1.99.02.58-.22 1.1-.72 1.56-1.08.99-2.63 1.49-4.66 1.49-.21 0-.67-.01-1.39-.04-2.99 2.47-5.07 4.06-6.24 4.76-1.89 1.13-3.12 1.67-3.68 1.62-.32-.07-.63-.4-.94-1-.28-.55-.42-1.02-.42-1.39 0-.31.09-.54.27-.69.18-.09.37-.14.59-.14.16 0 .4.03.73.08.33.05.57.08.73.08.52 0 1.03-.16 1.53-.48 2.25-1.45 3.85-2.55 4.82-3.3-.11-.22-.17-.41-.17-.56 0-.46.11-.83.34-1.11.58-.73 1.27-1.08 2.07-1.05.99.04 1.58.4 1.76 1.08.7-.04 1.25-.08 1.65-.11zm-2.74-14.7c-.96-.07-1.49-.15-1.6-.22-.43-.27-.65-.61-.65-1.01 0-.55.3-.96.89-1.21.71-.13 1.29-.17 1.74-.13.55.06 1.19.21 1.92.46.52.18.98.5 1.39.96.32.36.48.78.48 1.26 0 .69-.36 1.43-1.07 2.21-.56.62-1.22 1.14-1.97 1.56-1.18.67-2.19 1.05-3.02 1.12-.39.04-.73-.06-1-.28-.27-.22-.41-.53-.41-.93 0-.61.3-.96.9-1.04a4.71 4.71 0 0 0 1.48-.45c.33-.16.77-.42 1.32-.77.76-.49 1.14-.85 1.14-1.1 0-.2-.51-.34-1.54-.43zm7.04.04c-.96-.07-1.49-.15-1.6-.22-.43-.27-.65-.61-.65-1.01 0-.55.29-.96.89-1.21.71-.13 1.29-.17 1.74-.13.55.06 1.19.21 1.92.46.52.18.98.5 1.39.96.32.36.48.78.48 1.26 0 .69-.36 1.43-1.07 2.21-.56.62-1.22 1.14-1.97 1.56-1.18.67-2.19 1.05-3.02 1.12-.39.04-.73-.06-1-.28-.27-.22-.41-.53-.41-.93 0-.61.3-.96.9-1.04a4.71 4.71 0 0 0 1.48-.45c.33-.16.77-.42 1.32-.77.76-.49 1.14-.85 1.14-1.1 0-.2-.51-.34-1.54-.43zm26.83 9.47c.42-.74.76-1.09 1.01-1.04.31.06.62.19.93.41.37.24.56.5.59.77.04.36-.18.91-.66 1.66-.22.35-.53.67-.93.98-1.13.89-2.58 1.39-4.35 1.5-.19.07-.69.1-1.52.1l-13.58.01c-.68.66-1.65 1.5-2.91 2.5-.55.44-.95.66-1.18.66-.25 0-.55-.18-.89-.53-.34-.35-.51-.66-.51-.92 0-.44.25-.85.74-1.24.13-.09.53-.39 1.21-.9l-.65-.3c-.15-.09-.3-.29-.45-.59l-.08-.44c.09-.72.42-1.24.97-1.56.83-.48 1.46-.72 1.87-.72.13 0 .26.01.38.03.21 0 .61.12 1.21.35.4.24.7.68.9 1.32.33.03 3.12.04 8.37.04 2.37 0 3.69-.01 3.96-.04 1.55-.16 2.39-.25 2.53-.28 1.12-.22 1.84-.49 2.14-.79.18-.1.48-.43.9-.98zm-11.04-11.71c1.09.02 1.89.54 2.42 1.57.09.32.14.68.14 1.1 0 .89-.22 1.64-.67 2.26-1.11 1.53-2.93 2.39-5.44 2.6-1.2-.05-2.03-.43-2.5-1.14-.26-.55-.39-1.08-.39-1.57 0-.83.39-1.67 1.17-2.5 1.46-1.59 3.22-2.36 5.27-2.32zm-3.9 4.69c.13.2.4.35.8.45h.45c.18 0 .37 0 .56-.01 1.1-.45 1.85-.97 2.25-1.57.05-.12.07-.24.07-.37 0-.58-.47-.85-1.4-.8-.56.14-.96.29-1.18.44-.52.24-.91.52-1.19.83-.28.31-.41.58-.41.8-.01.07.01.15.05.23zm22.45 10.86c-.09-.22-.14-.45-.14-.72 0-.63.27-1.03.8-1.22.1-.07.26-.11.46-.11.36 0 1.04.18 2.07.55l2.8-1.46c1.45-.76 2.22-1.16 2.32-1.21.12-.09.26-.14.42-.14.55 0 .88.31.98.94.02.11.03.21.03.3 0 .22-.23.48-.7.77-1.82.83-3 1.41-3.54 1.74.83.2 1.47.48 1.91.86.15.22.23.45.25.69.04.45-.07.8-.31 1.05-.35.37-.82.47-1.42.31-.62-.16-1.03-.27-1.24-.32-.52-.14-1.09-.32-1.73-.53-2.01 1.38-3.57 2.39-4.68 3.05-2.04 1.21-3.5 1.86-4.37 1.95-.28.03-.58-.12-.9-.44-.44-.44-.66-1.05-.66-1.83 0-.5.32-.74.97-.74.14 0 .36.01.65.04.29.03.51.04.65.04.3 0 .56-.04.79-.11.99-.46 1.75-.84 2.28-1.14.96-.56 1.9-1.18 2.81-1.85-.29-.2-.45-.35-.5-.47zm6.91-14.46c.28 0 .52.13.73.4.21.27.31.55.31.84 0 .29-.14.52-.42.7-1.11.7-2.36 1.43-3.75 2.19l-2.44 1.33c-.78.42-1.3.66-1.57.73-.16.07-.32.11-.48.11-.27 0-.45-.09-.53-.28-.22-.52-.34-.82-.34-.91 0-.54.32-.89.96-1.04 2.36-1.15 4.71-2.46 7.05-3.92a.9.9 0 0 1 .48-.15zm-283.97 38.42c.42-.74.76-1.09 1.01-1.04.31.06.62.19.93.41.37.24.56.5.59.77.04.36-.18.91-.66 1.66-.22.35-.53.67-.93.98-1.13.89-2.58 1.39-4.35 1.5-.19.07-.69.1-1.52.1l-13.58.01c-.68.66-1.65 1.5-2.91 2.5-.55.44-.95.66-1.18.66-.25 0-.55-.18-.89-.53s-.51-.66-.51-.92c0-.44.25-.85.74-1.24.13-.09.53-.39 1.21-.9l-.65-.3c-.15-.09-.3-.29-.45-.59l-.08-.44c.09-.72.42-1.24.97-1.56.83-.48 1.46-.72 1.87-.72.13 0 .26.01.38.03.21 0 .61.12 1.21.35.4.24.7.68.9 1.32.33.03 3.12.04 8.37.04 2.37 0 3.69-.01 3.96-.04 1.55-.16 2.39-.25 2.53-.28 1.12-.22 1.84-.49 2.14-.79.18-.1.48-.44.9-.98zm-11.04-11.72c1.09.02 1.89.54 2.42 1.57.09.32.14.68.14 1.1 0 .89-.22 1.64-.67 2.26-1.11 1.53-2.93 2.39-5.44 2.6-1.2-.05-2.03-.43-2.5-1.14-.26-.55-.39-1.08-.39-1.57 0-.83.39-1.67 1.17-2.5 1.46-1.58 3.22-2.36 5.27-2.32zm-3.9 4.69c.13.2.4.35.8.45h.45c.18 0 .37 0 .56-.01 1.1-.45 1.84-.97 2.25-1.57.05-.12.07-.24.07-.37 0-.58-.47-.85-1.4-.8-.56.14-.96.29-1.18.44-.52.24-.91.52-1.19.83-.28.31-.41.58-.41.8-.01.08.01.16.05.23zm26.44 5.97c.26 0 .51.11.74.34.23.23.34.48.34.74 0 .18-.44.63-1.32 1.36-.32.26-.5.51-.53.73-.06.33.03.58.27.76.37.27.62.41.77.41.05 0 .19-.03.42-.08.46-.11.93-.26 1.42-.44.62-.22 1.01-.36 1.17-.41.3-.02.52.06.66.24.21.08.31.33.31.73 0 .34-.32.68-.96 1.04-2.46 1.37-4.11 2.28-4.93 2.74l-2.84 1.6c-1.53.86-2.55 1.35-3.08 1.48-.39.09-.65.12-.77.08-.24-.07-.5-.25-.77-.53s-.43-.54-.48-.79c-.16-.75-.03-1.16.38-1.24.09-.03.24-.04.45-.04.1 0 .26.01.46.02.21.01.36.02.46.02.27 0 .49-.02.65-.07.46-.2 1.12-.52 1.98-.96 1.57-.81 2.79-1.47 3.64-1.99-.45-.1-.84-.32-1.18-.66-.37-.36-.55-.75-.55-1.19 0-1 .9-2.2 2.7-3.6.26-.19.45-.29.59-.29zm2.92-9.56c.28 0 .52.13.73.4.21.27.31.55.31.84 0 .29-.14.52-.42.7-1.11.7-2.36 1.43-3.75 2.19l-2.44 1.33c-.78.42-1.3.66-1.57.73-.16.07-.32.11-.48.11-.27 0-.45-.09-.53-.28-.22-.52-.34-.82-.34-.91 0-.54.32-.89.96-1.04 2.36-1.15 4.71-2.46 7.05-3.92.16-.1.33-.15.48-.15zm15.36 10.93c.27-.12.45-.2.55-.24.22-.09.48.06.77.45.2.26.3.52.31.77.01.21-.17.47-.55.79-1.07.91-2.6 1.92-4.59 3.03-2.79 1.56-4.61 2.37-5.46 2.42-.33.02-.64-.1-.93-.36-.29-.26-.44-.55-.44-.88 0-.18.34-.63 1.01-1.36.51-.82.8-1.53.89-2.11l-.08-1.52c-.04-.71.14-1.14.52-1.29.34-.13.62-.18.84-.14.57.09.89.56.97 1.4.05.52.07.84.07.96 0 .86-.2 1.6-.6 2.21.8-.29 3.04-1.67 6.72-4.13zm-1.75-9.71c-.96-.08-1.49-.15-1.6-.22-.43-.27-.65-.61-.65-1.01 0-.55.29-.96.89-1.21.71-.13 1.29-.17 1.74-.13.55.06 1.19.21 1.92.46.52.18.98.5 1.39.96.32.36.48.78.48 1.26 0 .69-.36 1.43-1.07 2.21-.56.62-1.22 1.14-1.97 1.56-1.18.67-2.19 1.05-3.02 1.12-.39.04-.73-.06-1-.28-.27-.22-.41-.53-.41-.93 0-.61.3-.96.9-1.04a4.71 4.71 0 0 0 1.48-.45c.33-.16.77-.42 1.32-.77.76-.49 1.14-.85 1.14-1.1 0-.2-.51-.35-1.54-.43zm15.71 14.08c.42-.85.63-1.43.63-1.74 0-.08-.02-.13-.07-.13-.02 0-.04.01-.07.03-.59.41-1.26.89-2.02 1.43-1.52 1.1-2.54 1.79-3.08 2.09l-2.54 1.45c-.61.35-1.18.61-1.71.79-.08.03-.17.04-.27.04-.3 0-.61-.16-.93-.49-.51-.52-.76-1.11-.76-1.77 0-.24.06-.45.18-.63.19-.22.52-.32 1-.32.14 0 .34.01.61.02.27.01.47.02.61.02.29 0 .54-.03.76-.08.09-.05.16-.07.2-.08l.62-.34c1.02-.56 1.71-.96 2.07-1.19l3.86-2.6c1.02-.68 1.64-1.06 1.87-1.12.33-.09.7-.02 1.11.22.61.36.91.94.91 1.76 0 .73-.21 1.63-.63 2.7-.62 1.56-1.25 2.7-1.91 3.41-.12.13-.3.2-.52.2-.29 0-.59-.11-.9-.34-.35-.24-.52-.5-.52-.77 0-.28.09-.5.27-.66.37-.36.79-.99 1.23-1.9zm-.21-14.08c-.96-.08-1.49-.15-1.6-.22-.43-.27-.65-.61-.65-1.01 0-.55.29-.96.89-1.21.71-.13 1.29-.17 1.74-.13.55.06 1.19.21 1.92.46.52.18.98.5 1.39.96.32.36.48.78.48 1.26 0 .69-.36 1.43-1.07 2.21-.56.62-1.22 1.14-1.97 1.56-1.18.67-2.19 1.05-3.02 1.12-.39.04-.73-.06-1-.28-.27-.22-.41-.53-.41-.93 0-.61.3-.96.9-1.04a4.71 4.71 0 0 0 1.48-.45c.33-.16.77-.42 1.32-.77.76-.49 1.14-.85 1.14-1.1.01-.2-.51-.35-1.54-.43z" fill="#bd0e72"/><path d="M375.67 493.22c.53-.05.8-.22.8-.51 0-.22-.12-.36-.36-.44-.29-.1-.66-.2-1.1-.3-.38-.15-.57-.33-.57-.53 0-.55.27-.8.81-.75.12.01.23.02.34.02.37 0 .94-.18 1.73-.54.08-.04.2-.06.34-.06.17 0 .32.07.44.21.12.14.18.29.18.46 0 .19-.11.35-.32.48-.19.09-.37.17-.56.26.35.31.53.71.54 1.21.01.35-.13.66-.43.94-.65.6-1.59.9-2.82.9-.12 0-.4-.01-.84-.03-1.81 1.49-3.06 2.45-3.77 2.88-1.14.68-1.88 1.01-2.22.98-.19-.04-.38-.24-.57-.6-.17-.33-.25-.61-.25-.84 0-.19.05-.33.16-.42.11-.06.23-.08.36-.08.1 0 .24.02.44.05.2.03.35.05.44.05.32 0 .63-.1.93-.29 1.36-.88 2.33-1.54 2.91-1.99a.783.783 0 0 1-.1-.34c0-.28.07-.5.2-.67.35-.44.77-.65 1.25-.64.6.02.95.24 1.06.65.4-.02.74-.04.98-.06zm-1.66-8.88c-.58-.04-.9-.09-.97-.14-.26-.16-.39-.37-.39-.61 0-.33.18-.58.53-.73.43-.08.78-.1 1.05-.08.33.03.72.13 1.16.28.31.11.59.3.84.58.19.22.29.47.29.76 0 .42-.21.86-.65 1.33-.34.37-.74.69-1.19.94-.71.41-1.32.63-1.82.68a.81.81 0 0 1-.6-.17.705.705 0 0 1-.25-.56c0-.37.18-.58.54-.63.32-.05.61-.14.89-.27.2-.1.46-.25.8-.47.46-.3.69-.52.69-.66.01-.11-.3-.2-.92-.25zm4.25.02c-.58-.05-.9-.09-.97-.14-.26-.16-.39-.37-.39-.61 0-.33.18-.58.53-.73.43-.08.78-.11 1.05-.08.33.03.72.13 1.16.28.31.11.59.3.84.58.19.21.29.47.29.76 0 .42-.21.86-.65 1.33-.34.37-.74.69-1.19.94-.71.41-1.32.63-1.82.68-.24.02-.44-.03-.6-.17a.705.705 0 0 1-.25-.56c0-.37.18-.58.54-.63.32-.04.61-.14.89-.27.2-.1.46-.25.8-.47.46-.29.69-.51.69-.66.02-.11-.29-.19-.92-.25zm7.43 5.09c.16 0 .31.07.45.21.14.14.21.29.21.44 0 .11-.27.38-.8.82-.19.16-.3.31-.32.44-.03.2.02.35.16.46.22.16.38.25.47.25.03 0 .11-.02.25-.05.28-.07.56-.16.86-.26.37-.14.61-.22.7-.25.18-.01.31.04.4.14.12.05.19.2.19.44 0 .2-.19.41-.58.63-1.49.83-2.48 1.38-2.98 1.65l-1.71.97c-.92.52-1.54.82-1.86.89-.24.06-.39.07-.47.05-.15-.04-.3-.15-.46-.32s-.26-.33-.29-.48c-.1-.45-.02-.7.23-.75a.91.91 0 0 1 .27-.03c.06 0 .16 0 .28.01.12.01.22.01.28.01.16 0 .29-.01.39-.04.28-.12.68-.31 1.2-.58.95-.49 1.68-.89 2.2-1.21-.27-.06-.51-.19-.71-.4-.22-.22-.33-.46-.33-.72 0-.61.54-1.33 1.63-2.17.14-.09.25-.15.34-.15zm.47-5.04c-.58-.04-.9-.09-.97-.14-.26-.16-.39-.37-.39-.61 0-.33.18-.58.53-.73.43-.08.78-.1 1.05-.08.33.03.72.13 1.16.28.31.11.59.3.84.58.19.22.29.47.29.76 0 .42-.21.86-.65 1.33-.34.37-.74.69-1.19.94-.71.41-1.32.63-1.82.68a.81.81 0 0 1-.6-.17.705.705 0 0 1-.25-.56c0-.37.18-.58.54-.63.32-.05.61-.14.89-.27.2-.1.46-.25.8-.47.46-.3.69-.52.69-.66.02-.11-.29-.2-.92-.25zm5.99 9.24c0-.33.22-.57.66-.71.39-.13.8-.28 1.21-.48-.25-.12-.46-.22-.61-.31-.33-.2-.52-.36-.55-.48a.686.686 0 0 1 .01-.47c.06-.16.18-.25.36-.27.68-.06 1.27-.27 1.77-.64.25-.18.48-.27.68-.27.05 0 .08.01.11.02.17.11.28.25.34.42.02.05.03.19.03.42-.01 0-.03.03-.06.09-.07.11-.16.2-.29.27-.12.1-.21.17-.26.2-.2.12-.32.2-.35.21-.15.08-.23.15-.23.19.01.02.05.04.14.06.49.14.73.35.73.64 0 .05-.03.14-.1.27-.13.14-.23.24-.31.3-.37.27-.65.46-.84.56-.18.14-.27.18-.27.15.01.03.09.12.25.29.09.14.15.22.17.26.01.04.01.08.01.11 0 .24-.23.5-.7.78-3.64 2.21-5.72 3.33-6.24 3.38-.22.02-.44-.15-.66-.48-.2-.29-.31-.57-.33-.81-.04-.39.13-.59.5-.59.11 0 .23.01.36.03.05.01.24.01.59.01.18 0 .36-.03.55-.09.71-.31 1.28-.58 1.7-.81 1.01-.57 1.81-1.04 2.4-1.43-.51-.33-.77-.6-.77-.82zm6.31-10.54c.45.08.67.3.68.66.01.38-.52.74-1.58 1.06-.51.15-.87.42-1.07.81.12.15.35.26.68.31.31.02.7.08 1.18.17.26.11.36.35.3.7-.08.46-.41.7-.98.7-.45 0-1-.12-1.66-.37-.5-.19-.82-.48-.97-.88-.68.59-1.69.96-3.01 1.12-.24.03-.48 0-.7-.09-.28-.11-.42-.28-.42-.51 0-.41.2-.67.59-.76.28 0 .65-.05 1.12-.14.66-.14 1.13-.35 1.39-.65-.05-.22-.32-.39-.81-.54-.12-.02-.44-.06-.95-.12-.29-.09-.43-.27-.43-.53 0-.04.01-.1.03-.2.1-.51.44-.74 1.03-.7.34.02.67.08 1 .17.66.18 1.19.59 1.57 1.23.38-.45.73-.76 1.06-.94.36-.2.93-.37 1.7-.52.04-.01.14 0 .25.02zm6.03 8.86c.42.1.67.16.74.18.16.11.26.29.31.53.02.11 0 .24-.07.38s-.16.23-.26.28l-1.04.49c-.52.27-.67.46-.45.57-.01.01-.01.01-.01.02 0 .06.39.11 1.18.15.38.02.64.04.77.05.26.02.42.03.47.03.1 0 .25.02.46.06.2.07.3.29.3.66 0 .15-.04.28-.11.4-.08.14-.2.21-.33.2l-1.91-.2c-1.24-.12-1.93-.22-2.06-.28-.54-.07-.81-.33-.81-.76 0-.24.1-.43.3-.57l1.76-1.22c-1.02-.2-1.62-.37-1.79-.49-.13-.1-.2-.27-.2-.53 0-.17.04-.29.13-.35.79-.57 1.42-1.03 1.89-1.38.04-.02.08-.02.11-.02.21 0 .4.18.57.55.01.1-.05.27-.18.53-.32.28-.53.46-.63.53.39.08.68.15.86.19zm.8-7.56c-.58-.04-.9-.09-.97-.14-.26-.16-.39-.37-.39-.61 0-.33.18-.58.53-.73.43-.08.78-.1 1.05-.08.33.03.72.13 1.16.28.31.11.59.3.84.58.19.22.29.47.29.76 0 .42-.21.86-.65 1.33-.34.37-.74.69-1.19.94-.71.41-1.32.63-1.82.68a.81.81 0 0 1-.6-.17.705.705 0 0 1-.25-.56c0-.37.18-.58.54-.63.32-.05.61-.14.89-.27.2-.1.46-.25.8-.47.46-.3.69-.52.69-.66.02-.11-.3-.2-.92-.25zm10.31 5.55c.41 0 .79.11 1.13.34.38.25.58.57.58.97 0 .22-.04.43-.12.62-.2.49-.8.98-1.81 1.47-1.1.54-2.2.81-3.32.81-.21 0-.42-.01-.63-.03-1.08-.24-1.6-.73-1.58-1.47.02-.63.34-1.23.97-1.79.42-.39.94-.58 1.54-.58.12 0 .23.01.33.03.2.04.53.18.98.39.64-.51 1.29-.76 1.93-.76zm2.34-6.85c.45.08.67.3.68.66.01.38-.52.74-1.58 1.06-.51.15-.87.42-1.07.81.12.15.35.26.68.31.31.02.7.08 1.18.17.26.11.36.35.3.7-.08.46-.41.7-.98.7-.45 0-1-.12-1.66-.37-.5-.19-.82-.48-.97-.88-.68.59-1.69.96-3.01 1.12-.24.03-.48 0-.7-.09-.28-.11-.42-.28-.42-.51 0-.41.2-.67.59-.76.28 0 .65-.05 1.12-.14.66-.14 1.13-.35 1.39-.65-.05-.22-.32-.39-.81-.54-.12-.02-.44-.06-.95-.12-.29-.09-.43-.27-.43-.53 0-.04.01-.1.03-.2.1-.51.44-.74 1.03-.7.34.02.67.08 1 .17.66.18 1.19.59 1.57 1.23.38-.45.73-.76 1.06-.94.36-.2.93-.37 1.7-.52.04-.01.13 0 .25.02zm-5.46 8.36c-.09-.02-.21.01-.37.07-.54.2-.83.46-.87.76-.03.23.1.35.4.35.21 0 .44-.11.67-.32.13-.12.21-.2.23-.24.1-.1.15-.24.15-.42l-.06-.18-.15-.02zm1.64.36a.58.58 0 0 0-.19.44c0 .03.01.05.03.05.06.02.12.02.18.02.18 0 .5-.11.95-.32.49-.23.73-.48.73-.73 0-.08-.03-.12-.08-.13.08.01 0 .01-.26.01-.18 0-.48.13-.9.38l-.46.28zm-192.21 9.21a1 1 0 0 1-.08-.43c0-.38.16-.63.48-.74.06-.05.16-.07.28-.07.21 0 .63.11 1.25.33l1.69-.88c.88-.46 1.34-.7 1.4-.73.07-.06.16-.09.25-.09.33 0 .53.19.59.57.01.07.02.13.02.18 0 .14-.14.29-.42.47-1.1.5-1.81.85-2.14 1.05.5.12.89.29 1.15.52.09.14.14.28.15.42.02.27-.04.48-.19.64-.21.22-.5.28-.86.19-.37-.1-.62-.16-.75-.2-.31-.08-.66-.19-1.04-.32-1.22.83-2.16 1.45-2.83 1.84-1.23.73-2.11 1.12-2.64 1.18-.17.02-.35-.07-.54-.26-.27-.27-.4-.63-.4-1.1 0-.3.2-.45.59-.45.08 0 .21.01.39.03.18.02.31.03.39.03.18 0 .34-.02.48-.07.6-.28 1.06-.51 1.37-.69.58-.34 1.15-.71 1.7-1.12-.16-.13-.26-.23-.29-.3zm1.4 6.55c.17 0 .32.08.44.24.12.16.19.33.19.51 0 .09-.09.23-.26.43-.19.15-.64.43-1.36.82l-2.38 1.3c-.46.26-.78.4-.95.44-.1.05-.19.07-.29.07-.16 0-.27-.06-.32-.17-.14-.31-.2-.5-.2-.55 0-.33.19-.54.58-.63 1.43-.7 2.85-1.48 4.26-2.37.1-.06.2-.09.29-.09zm8.99-6.74c.02-.29.2-.66.54-1.1.59-.76 1.48-1.15 2.66-1.15.28 0 .6.07.96.2.71.25 1.04.63.98 1.14-.05.44-.42.96-1.12 1.57-.53.46-1.08.87-1.65 1.25-2.35 1.53-3.95 2.38-4.79 2.55-.03.01-.07.01-.11.01-.21 0-.4-.15-.55-.45-.14-.2-.21-.42-.24-.68-.03-.33.11-.5.41-.5.1 0 .21.01.36.04.41.08.8.03 1.17-.17.93-.5 1.77-.98 2.5-1.43-.78-.25-1.16-.67-1.12-1.28zm3.31-7.27c-.42.39-.64.7-.64.93 0 .03.01.05.03.07-.03.05.07.08.3.09.48.03.82 0 1.01-.09.12-.02.23-.04.32-.04.58 0 .87.23.87.69 0 .42-.19.65-.56.7-.24.06-.6.09-1.08.09-1.62 0-2.43-.49-2.43-1.46 0-.14.02-.24.05-.31.19-.62.59-1.19 1.2-1.72.3-.26.5-.44.6-.53.16-.15.4-.29.7-.41.1-.04.17-.05.22-.04.48.15.72.44.72.85 0 .2-.16.39-.47.55-.42.3-.71.51-.84.63zm-.37 6.25c-.35.05-.59.11-.73.19-.44.25-.65.5-.61.72 0 .11.07.22.22.31.17.06.41.04.71-.05.57-.17.85-.45.85-.85 0-.22-.14-.32-.44-.32zm10.33-1.22c.27.01.5.09.7.23.41.3.69.68.84 1.16.02.17.03.27.03.29-.02.63-.25 1.18-.69 1.63-.51.4-1.18.59-1.99.56-.71-.02-1.34-.34-1.91-.95-.39.14-.77.31-1.15.5-.02.01-.03.03-.03.06 0 .01.12.18.36.52s.36.57.36.69c-.02.45-.3.83-.85 1.14-.37.21-.97.41-1.8.59-.24.06-.57.1-.98.14-.16.02-.32-.09-.48-.33-.13-.2-.21-.39-.23-.58-.05-.43.07-.65.35-.65.12 0 .31.04.57.11.26.08.46.11.59.11.05 0 .15-.01.32-.03.02-.01.08-.02.18-.04.11-.04.23-.09.38-.14.29-.11.43-.23.43-.35 0-.04-.15-.23-.44-.58-.27-.32-.41-.55-.41-.7 0-.11.04-.22.12-.34.05-.14.23-.31.56-.53 1.26-.85 2.71-1.63 4.34-2.35.32-.1.6-.16.83-.16zm-1.75 8.98c.17 0 .32.08.44.24.12.16.19.33.19.51 0 .09-.09.23-.26.43-.19.15-.64.43-1.36.82l-2.38 1.3c-.46.26-.78.4-.95.44-.1.05-.19.07-.29.07-.16 0-.27-.06-.32-.17-.14-.31-.2-.5-.2-.55 0-.33.19-.54.58-.63 1.43-.7 2.85-1.48 4.26-2.37.09-.06.19-.09.29-.09zm.3-6.74c.01.06.12.12.33.19.16.05.35.07.57.06.21-.01.4-.06.56-.16.16-.1.24-.22.26-.36.01-.32-.14-.48-.45-.47-.14.01-.37.08-.69.21-.38.22-.57.39-.58.53zm11.82-.69c0-.15-.22-.22-.67-.22l-1.22.14c-.06 0-.2.03-.4.08-.16.03-.3.05-.4.05-.14 0-.25-.04-.34-.13a.964.964 0 0 1-.2-.57c0-.13.03-.27.08-.41.06-.31.62-.5 1.7-.57.27-.02.78.02 1.54.12.83.11 1.32.32 1.48.64.14.29.19.56.14.81-.04.2-.09.35-.14.44-.19.25-.38.46-.58.63-.38.33-.74.6-1.07.81-.76.49-1.81 1.04-3.16 1.65-.7.32-1.39.61-2.07.88-.31.13-.59.11-.82-.06-.37-.4-.55-.78-.55-1.15 0-.33.18-.49.54-.49.09 0 .23.02.41.04.18.03.32.04.41.04.15 0 .29-.02.4-.06.59-.21.89-.32.9-.32.59-.23 1.25-.55 1.98-.94 1.09-.59 1.77-1.02 2.04-1.31v-.1zm.28-7.85c.17 0 .32.08.44.24.12.16.19.33.19.51s-.08.32-.25.42c-.67.42-1.43.87-2.27 1.32l-1.48.81c-.47.26-.79.4-.95.44-.1.05-.19.07-.29.07-.16 0-.27-.06-.32-.17-.14-.31-.2-.5-.2-.55 0-.33.19-.54.58-.63 1.43-.7 2.85-1.48 4.26-2.37.09-.06.19-.09.29-.09zm-78.81 239.34c.53-.05.8-.22.8-.51 0-.22-.12-.36-.36-.44-.29-.1-.66-.2-1.1-.3-.38-.15-.57-.33-.57-.53 0-.55.27-.8.81-.75.12.01.23.02.34.02.37 0 .94-.18 1.73-.53.08-.04.2-.06.34-.06.17 0 .32.07.44.21.12.14.18.29.18.46 0 .19-.11.35-.32.48-.19.08-.37.17-.56.26.35.31.53.71.54 1.21.01.35-.13.66-.43.94-.65.6-1.59.9-2.82.9-.12 0-.4-.01-.84-.03-1.81 1.49-3.06 2.45-3.77 2.88-1.14.68-1.88 1.01-2.22.98-.19-.04-.38-.24-.57-.6-.17-.33-.25-.61-.25-.84 0-.19.05-.33.16-.42a.74.74 0 0 1 .36-.09c.1 0 .24.02.44.05.2.03.35.05.44.05.32 0 .63-.1.93-.29 1.36-.88 2.33-1.54 2.91-1.99a.783.783 0 0 1-.1-.34c0-.28.07-.5.2-.67.35-.44.77-.65 1.25-.64.6.02.95.24 1.06.65.41-.01.75-.03.98-.06zm-1.65-8.87c-.58-.05-.9-.09-.97-.14-.26-.17-.39-.37-.39-.61 0-.33.18-.58.53-.73.43-.08.78-.1 1.05-.08.33.03.72.13 1.16.28.31.11.59.3.84.58.19.22.29.47.29.76 0 .42-.21.86-.65 1.33-.34.37-.74.69-1.19.94-.71.41-1.32.63-1.82.68-.24.02-.44-.03-.6-.17a.705.705 0 0 1-.25-.56c0-.37.18-.58.54-.63.32-.04.61-.14.89-.27.2-.1.46-.25.8-.47.46-.29.69-.52.69-.66.01-.11-.3-.2-.92-.25zm4.25.02c-.58-.05-.9-.09-.97-.14-.26-.16-.39-.37-.39-.61 0-.33.18-.58.53-.73.43-.08.78-.11 1.05-.08.33.04.72.13 1.16.28.31.11.59.3.84.58.19.21.29.47.29.76 0 .42-.21.86-.65 1.33-.34.37-.74.69-1.19.94-.71.41-1.32.63-1.82.68-.24.02-.44-.03-.6-.17s-.25-.32-.25-.56c0-.37.18-.58.54-.63.32-.04.61-.14.89-.27.2-.1.46-.25.8-.47.46-.3.69-.52.69-.66.01-.11-.3-.2-.92-.25zm5.02 8.04a1 1 0 0 1-.08-.43c0-.38.16-.63.48-.74.06-.04.16-.07.28-.07.21 0 .63.11 1.25.33l1.69-.88c.88-.46 1.34-.7 1.4-.73.07-.06.16-.09.25-.09.33 0 .53.19.59.57.01.07.02.13.02.18 0 .14-.14.29-.42.47-1.1.5-1.81.85-2.14 1.05.5.12.89.29 1.15.52.09.14.14.28.15.42.02.27-.04.48-.19.64-.21.22-.5.28-.86.19-.37-.1-.62-.16-.75-.2-.31-.09-.66-.19-1.04-.32-1.22.83-2.16 1.44-2.83 1.84-1.23.73-2.11 1.12-2.64 1.18-.17.02-.35-.07-.54-.26-.27-.27-.4-.63-.4-1.1 0-.3.2-.45.59-.45.08 0 .21.01.39.03.18.02.31.02.39.02.18 0 .34-.02.48-.07.6-.28 1.06-.51 1.37-.69.58-.34 1.15-.71 1.7-1.12-.17-.12-.27-.22-.29-.29zm1.4 6.54c.17 0 .32.08.44.24.12.16.19.33.19.51 0 .09-.09.23-.26.43-.19.15-.64.43-1.36.82l-2.38 1.3c-.46.25-.78.4-.95.44-.1.05-.19.07-.29.07-.16 0-.27-.06-.32-.17-.14-.31-.2-.5-.2-.55 0-.33.19-.54.58-.63 1.43-.7 2.85-1.49 4.26-2.37.09-.06.19-.09.29-.09zm8.71-5.29c0-.33.22-.57.66-.71.39-.13.8-.28 1.21-.48-.25-.12-.46-.22-.61-.31-.33-.2-.52-.37-.55-.48a.686.686 0 0 1 .01-.47c.06-.17.18-.26.36-.27.68-.06 1.27-.28 1.77-.64.25-.18.48-.27.68-.27.05 0 .08.01.11.03.17.11.28.25.34.42.02.05.03.19.03.42-.01 0-.03.03-.06.09-.07.11-.16.2-.29.27-.12.1-.21.17-.26.2-.2.12-.32.19-.35.21-.15.09-.23.15-.23.19.01.02.05.04.14.06.49.14.73.35.73.64 0 .05-.03.14-.1.27-.13.14-.23.24-.31.3-.37.27-.65.46-.84.56-.18.14-.27.18-.27.14.01.03.09.13.25.29.09.14.15.22.17.26.01.04.01.08.01.11 0 .24-.23.5-.7.78-3.64 2.21-5.72 3.33-6.24 3.38-.22.02-.44-.14-.66-.48-.2-.29-.31-.57-.33-.81-.04-.39.13-.59.5-.59.11 0 .23.01.36.03.05.01.24.01.59.01.18 0 .36-.03.55-.08.71-.31 1.28-.58 1.7-.81 1.01-.57 1.81-1.04 2.4-1.43-.52-.34-.77-.61-.77-.83zm3.58-8.71c-.42.39-.64.7-.64.92 0 .03.01.05.03.07-.03.05.07.08.3.09.48.03.82 0 1.01-.09.12-.02.23-.03.32-.03.58 0 .87.23.87.69 0 .42-.19.65-.56.7-.24.06-.6.09-1.08.09-1.62 0-2.43-.49-2.43-1.46 0-.14.02-.24.05-.31.19-.62.59-1.19 1.2-1.72.3-.26.5-.44.6-.53.16-.15.4-.29.7-.41.1-.04.17-.05.22-.03.48.15.72.44.72.85 0 .2-.16.39-.47.55-.42.29-.71.49-.84.62z"/><path d="M159.39 869.77c.42-.74.76-1.09 1.01-1.04.31.06.62.19.93.41.37.24.56.5.59.77.04.36-.18.91-.66 1.66-.22.35-.53.67-.93.98-1.13.89-2.58 1.39-4.35 1.5-.19.07-.69.1-1.52.1l-13.58.01c-.68.66-1.65 1.5-2.91 2.5-.55.44-.95.66-1.18.66-.25 0-.55-.18-.89-.53-.34-.35-.51-.66-.51-.92 0-.44.25-.85.74-1.24.13-.09.53-.39 1.21-.9l-.65-.3c-.15-.09-.3-.29-.45-.59l-.08-.44c.09-.72.42-1.24.97-1.56.83-.48 1.46-.72 1.87-.72.13 0 .26.01.38.03.21 0 .61.12 1.21.35.4.24.7.68.9 1.32.33.03 3.12.04 8.37.04 2.37 0 3.69-.01 3.96-.04 1.55-.16 2.39-.25 2.53-.28 1.12-.22 1.84-.49 2.14-.79.17-.1.48-.44.9-.98zm-11.04-11.72c1.09.02 1.89.54 2.42 1.57.09.32.14.68.14 1.1 0 .89-.22 1.64-.67 2.26-1.11 1.53-2.93 2.39-5.44 2.6-1.2-.05-2.03-.43-2.5-1.14-.26-.55-.39-1.08-.39-1.57 0-.83.39-1.67 1.17-2.5 1.46-1.59 3.22-2.36 5.27-2.32zm-3.91 4.69c.13.2.4.35.8.45h.45c.18 0 .37 0 .56-.01 1.1-.45 1.84-.97 2.25-1.57.05-.12.07-.24.07-.37 0-.58-.47-.85-1.4-.8-.56.14-.96.29-1.18.44-.52.24-.91.52-1.19.83-.28.31-.41.58-.41.8 0 .08.01.16.05.23zm26.45 5.97c.26 0 .51.11.74.34.23.23.34.48.34.74 0 .18-.44.63-1.32 1.36-.32.26-.5.51-.53.73-.06.33.03.58.27.76.37.27.62.41.77.41.05 0 .19-.03.42-.08.46-.11.93-.26 1.42-.44.62-.22 1.01-.36 1.17-.41.3-.02.52.06.66.24.21.08.31.33.31.73 0 .34-.32.68-.96 1.04-2.46 1.37-4.11 2.28-4.93 2.74l-2.84 1.6c-1.53.86-2.55 1.35-3.08 1.48-.39.09-.65.12-.77.08-.24-.07-.5-.25-.77-.53s-.43-.54-.48-.79c-.16-.75-.03-1.16.38-1.24.09-.03.24-.04.45-.04.1 0 .26.01.46.02.21.01.36.02.46.02.27 0 .49-.02.65-.07.46-.2 1.12-.52 1.98-.96 1.57-.81 2.79-1.47 3.64-1.99-.45-.1-.84-.32-1.18-.66-.37-.36-.55-.75-.55-1.19 0-1 .9-2.2 2.7-3.6.25-.19.45-.29.59-.29zm5.38-10.49c.74.13 1.11.5 1.12 1.1.01.64-.86 1.22-2.61 1.76-.84.25-1.43.7-1.77 1.35.21.25.58.43 1.12.52.51.04 1.16.13 1.95.28.43.19.59.58.49 1.17-.14.77-.68 1.15-1.63 1.15-.74 0-1.66-.21-2.75-.62-.82-.31-1.36-.8-1.6-1.46-1.13.97-2.8 1.59-4.99 1.85-.4.05-.79 0-1.17-.15-.47-.19-.7-.47-.7-.84 0-.68.32-1.11.97-1.26.46 0 1.08-.08 1.85-.24 1.1-.22 1.86-.58 2.3-1.07-.08-.36-.53-.65-1.35-.89-.2-.04-.72-.1-1.57-.2-.48-.15-.72-.44-.72-.87 0-.07.01-.17.04-.32.16-.84.73-1.23 1.7-1.17.56.04 1.11.13 1.66.28 1.1.3 1.96.98 2.6 2.04.63-.74 1.21-1.26 1.76-1.56.6-.33 1.54-.61 2.81-.86.14-.03.3-.03.49.01zm12.83 13.92c0-.24-.37-.37-1.11-.37l-2.02.22c-.1.01-.32.05-.66.13-.27.06-.49.08-.66.08-.23 0-.42-.07-.56-.21-.22-.3-.32-.61-.32-.94 0-.22.05-.44.14-.67.09-.51 1.03-.82 2.81-.94.45-.03 1.3.04 2.54.2 1.37.18 2.18.53 2.44 1.05.23.48.31.93.22 1.35-.07.33-.15.57-.24.73-.31.41-.63.76-.96 1.04-.63.54-1.22.99-1.77 1.35-1.25.81-3 1.73-5.23 2.74-1.15.52-2.29 1.01-3.43 1.46-.52.21-.97.17-1.36-.1-.61-.66-.91-1.29-.91-1.9 0-.54.3-.81.9-.81.15 0 .37.02.67.07.3.05.52.07.67.07.25 0 .47-.03.66-.1.97-.35 1.47-.52 1.49-.53.97-.38 2.07-.9 3.27-1.56 1.81-.97 2.93-1.7 3.37-2.16.04-.06.05-.13.05-.2zm1.7-15.76c.28 0 .52.13.73.4.21.27.31.55.31.84 0 .18-.15.43-.44.76-.07.14-.94.66-2.6 1.55l-3.58 1.92c-.8.43-1.32.67-1.57.73-.16.07-.32.11-.48.11-.27 0-.45-.09-.53-.28-.22-.52-.34-.82-.34-.91 0-.54.32-.89.96-1.04 2.36-1.15 4.71-2.46 7.05-3.92.16-.11.33-.16.49-.16zm1.67 2.96c.28 0 .52.13.73.4s.31.55.31.84c0 .15-.13.37-.38.66-.07.11-.42.36-1.07.73l-5.17 2.84c-.78.42-1.3.66-1.57.73-.16.07-.32.11-.48.11-.27 0-.45-.09-.53-.28-.22-.52-.34-.82-.34-.91 0-.54.32-.89.96-1.04 2.36-1.15 4.71-2.46 7.05-3.92.17-.11.33-.16.49-.16z" fill="#bd0e72"/><path d="M318.54 979.5c.53-.05.8-.22.8-.51 0-.21-.12-.36-.36-.44-.29-.1-.66-.19-1.1-.3-.38-.15-.57-.33-.57-.53 0-.55.27-.8.81-.75.12.01.23.02.34.02.37 0 .94-.18 1.73-.53.08-.04.2-.06.34-.06.17 0 .32.07.44.21.12.14.18.29.18.46 0 .19-.11.35-.32.48-.19.08-.37.17-.56.26.35.31.53.71.54 1.2.01.35-.13.66-.43.94-.65.6-1.59.9-2.82.9-.12 0-.4-.01-.84-.03-1.81 1.49-3.06 2.45-3.77 2.88-1.14.68-1.88 1.01-2.22.98-.19-.04-.38-.24-.57-.6-.17-.33-.25-.61-.25-.84 0-.19.05-.33.16-.42.11-.06.23-.08.36-.08.1 0 .24.02.44.05.2.03.35.05.44.05.32 0 .63-.1.93-.29 1.36-.88 2.33-1.54 2.91-1.99a.783.783 0 0 1-.1-.34c0-.28.07-.5.2-.67.35-.44.77-.65 1.25-.64.6.02.95.24 1.06.65.41-.02.74-.04.98-.06zm-1.65-8.88c-.58-.05-.9-.09-.97-.14-.26-.16-.39-.37-.39-.61 0-.33.18-.58.53-.73.43-.08.78-.1 1.05-.08.33.03.72.13 1.16.28.31.11.59.3.84.58.19.21.29.47.29.76 0 .42-.21.86-.65 1.33-.34.37-.74.69-1.19.94-.71.41-1.32.63-1.82.68-.24.02-.44-.03-.6-.17a.705.705 0 0 1-.25-.56c0-.37.18-.58.54-.63.32-.05.61-.14.89-.27.2-.1.46-.25.8-.47.46-.29.69-.51.69-.66.01-.11-.3-.2-.92-.25zm4.25.03c-.58-.05-.9-.09-.97-.14-.26-.16-.39-.37-.39-.61 0-.33.18-.58.53-.73.43-.08.78-.1 1.05-.08.33.03.72.13 1.16.28.31.11.59.3.84.58.19.22.29.47.29.76 0 .42-.21.86-.65 1.33-.34.37-.74.69-1.19.94-.71.41-1.32.63-1.82.68-.24.02-.44-.03-.6-.17a.705.705 0 0 1-.25-.56c0-.37.18-.58.54-.63.32-.05.61-.14.89-.27.2-.1.46-.25.8-.47.46-.29.69-.52.69-.66.01-.12-.3-.2-.92-.25zm5.41 9.54c-.49.4-1.11.83-1.87 1.28-.85.51-1.41.79-1.68.84-.03.01-.08.01-.13.01-.3 0-.56-.17-.78-.51-.19-.3-.29-.59-.29-.88 0-.27.13-.41.4-.43.02 0 .05 0 .11-.01s.12-.01.19 0c-.02 0 .13.01.45.03.31.02.49.02.54 0 .38-.14.87-.4 1.47-.76.87-.54 1.56-1.07 2.05-1.6-.18-.12-.27-.3-.29-.53-.02-.28.15-.55.51-.81.33-.24.64-.36.94-.36.48 0 .73.23.76.7.11.04.38-.09.82-.38.13-.11.37-.29.71-.53.11-.02.2-.03.27-.03.1 0 .18.01.23.04.18.1.3.25.36.43.02.17-.02.35-.14.55-.11.19-.17.31-.16.34.01.07.05.11.14.12.33.02.84-.32 1.52-1.04.28-.22.49-.33.61-.32.18.01.37.17.58.5.1.16.08.37-.07.61-.42.69-1.02 1.2-1.8 1.52-.38.16-.72.24-1.04.25-.61.03-.96-.22-1.06-.74-.24.01-.68 0-1.32-.01-.15.18-.83.75-2.03 1.72zm4.15-10.9c.66.01 1.14.33 1.46.95.06.19.08.41.08.66 0 .54-.14.99-.41 1.37-.67.92-1.77 1.45-3.28 1.57-.72-.03-1.23-.26-1.51-.69-.16-.33-.24-.65-.24-.95 0-.5.23-1.01.7-1.51.89-.96 1.96-1.42 3.2-1.4zm-2.36 2.83c.08.12.24.21.48.27h.27c.11 0 .22 0 .34-.01.66-.27 1.11-.59 1.36-.95a.57.57 0 0 0 .04-.22c0-.35-.28-.51-.85-.48-.34.09-.58.17-.71.26-.31.15-.55.31-.72.5-.17.19-.25.35-.25.48 0 .06.01.11.04.15zm13.26 5.68c0-.15-.22-.22-.67-.22l-1.22.14c-.06.01-.2.03-.4.08-.16.03-.3.05-.4.05-.14 0-.25-.04-.34-.13a.964.964 0 0 1-.2-.57c0-.13.03-.27.08-.41.06-.31.62-.49 1.7-.57.27-.02.78.02 1.54.12.83.11 1.32.32 1.48.64.14.29.19.56.14.81-.04.2-.09.34-.14.44-.19.25-.38.46-.58.63-.38.33-.74.6-1.07.81-.76.49-1.81 1.04-3.16 1.66-.7.32-1.39.61-2.07.88-.31.12-.59.1-.82-.06-.37-.4-.55-.78-.55-1.15 0-.33.18-.49.54-.49.09 0 .23.01.41.04.18.03.32.04.41.04.15 0 .29-.02.4-.06.59-.21.89-.32.9-.32.59-.23 1.25-.55 1.98-.94 1.09-.59 1.77-1.02 2.04-1.31-.01-.02 0-.06 0-.11zm-.97-6.58c-.42.39-.64.7-.64.92 0 .03.01.05.03.07-.03.05.07.08.3.09.48.03.82 0 1.01-.09.12-.02.23-.03.32-.03.58 0 .87.23.87.69 0 .42-.19.65-.56.7-.24.06-.6.09-1.08.09-1.62 0-2.43-.49-2.43-1.46 0-.14.02-.24.05-.31.19-.62.59-1.19 1.2-1.71.3-.26.5-.44.6-.53.16-.15.4-.29.7-.41.1-.04.17-.05.22-.03.48.15.72.44.72.85 0 .2-.16.39-.47.55-.42.28-.7.49-.84.61zm8.38 14.01c.17 0 .32.08.44.24.12.16.19.33.19.5 0 .09-.09.24-.26.43-.19.15-.64.43-1.36.82l-2.38 1.3c-.46.25-.78.4-.95.44-.1.05-.19.07-.29.07-.16 0-.27-.06-.32-.17-.14-.31-.2-.5-.2-.55 0-.33.19-.54.58-.63 1.43-.7 2.85-1.49 4.26-2.37.1-.05.2-.08.29-.08zm2.92-8.63c.18 0 .33.1.45.3.08.12.12.23.13.31.02.28-.22.58-.74.89l-2.98 1.82c-1.16.71-2.18 1.23-3.06 1.58-.24.1-.39.14-.45.14-.56.06-.91-.25-1.05-.94a1.05 1.05 0 0 1-.03-.24c0-.28.14-.42.43-.42.09 0 .23.01.42.03.19.02.33.03.42.03.25 0 .48-.05.66-.15.19-.02 1.02-.47 2.47-1.34 1.2-.72 2.06-1.26 2.59-1.64.35-.24.59-.37.74-.37z"/></svg>