<svg xmlns="http://www.w3.org/2000/svg" xml:space="preserve" x="0" y="0" version="1.1" viewBox="0 0 1000 1000"><path d="M670 236.84c0 6.32-5.13 11.44-11.44 11.44s-11.44-5.11-11.44-11.44c0-6.32 5.13-11.44 11.44-11.44S670 230.51 670 236.84M402.69 954.27c0 6.32-5.11 11.44-11.42 11.44-6.32 0-11.45-5.11-11.45-11.44 0-6.32 5.13-11.44 11.45-11.44 6.3 0 11.42 5.11 11.42 11.44M264.61 435.49c0 6.31-5.13 11.42-11.44 11.42s-11.44-5.11-11.44-11.42c0-6.32 5.13-11.42 11.44-11.42 6.32 0 11.44 5.1 11.44 11.42" fill="#004b1c"/><path d="M507.61 910.25c0 5.41-4.38 9.79-9.79 9.79-5.41 0-9.8-4.38-9.8-9.79 0-5.39 4.39-9.79 9.8-9.79 5.41 0 9.79 4.4 9.79 9.79" fill="#6f2c91"/><path d="M532.12 149.46c0 5.41-4.38 9.8-9.79 9.8s-9.8-4.39-9.8-9.8c0-5.39 4.39-9.77 9.8-9.77s9.79 4.38 9.79 9.77" fill="#fff"/><path d="M522.33 162.59c-7.24 0-13.13-5.89-13.13-13.13 0-7.23 5.89-13.11 13.13-13.11 7.23 0 13.11 5.88 13.11 13.11 0 7.24-5.88 13.13-13.11 13.13zm0-19.58c-3.57 0-6.47 2.9-6.47 6.45 0 3.58 2.9 6.48 6.47 6.48 3.56 0 6.46-2.9 6.46-6.48 0-3.55-2.9-6.45-6.46-6.45z" fill="#004b1c"/><path d="M742.99 525.09c.16 3.17.4 6.31.68 9.45-1.36-.21-3-.25-4.98 0-6.02 1.94-12.08 2.97-18.13 4.9-5.39.89-9.37-2.52-1.46-5.77 7.71-2.72 15.38-5.39 23.1-8.09.26-.14.51-.3.79-.49M676.4 817.92l-4.34 4.75-8.27 5.98c4.28-3.54 8.49-7.05 12.61-10.73m68.13-393.52c-.16 2.08-.28 4.1-.45 6.19-1.55-1.88-.69-3.75.45-6.19M675.7 34.56c8.37 2.73 12.48 7.86 7.32 18.23-11.66 8.95-24.15 15.54-39.44 27.08-10.61 5.1-23.89-3.14-23.55-12.45.15-4.45 2.41-5.22-2.06-6.03-.92 2.7-43.11 20.33-54.99 1-1.37-2.26-.24-2.38-4.74-2.13-6.11 3.14-9.29 2.38-16.92 2.66-3.29 2.45-4.18 1.58-1.33 6.75 5.58 2.1 20.41 1.52 26.47 6.99 2.3 3.75 6.99 8.95 11.9 10.19 13.61-3.75 23.57-5.31 31.13-5.87 8.57 1.09 11.37 6.58 4.83 12.82-8.26 4.43-19 5.58-28.15 7.59-5.65-1.89-11.18 1.45-18.07-4.15-2.7-2.17-5.06-7.18-8.57-12.24-5.41-3.34-19.63-5.3-26.6-6.31-11.58-.07-20.97.28-32.55.24-11.3-4.43-14.73-15.87-4.65-23.14 13.81-2.06 27.61-4.1 41.41-6.16 16.47-4.9 31.54-9.23 47.96-14.13 15.45-1.66 28.16.53 37.41 3.09 17.84-2.1 35.4-1.95 53.19-4.03m15.81 18.62c8.71-2.98 13.11 3.44 15.1 14.14-5.29 4.45-21.5 12.05-28.81 17.88-7.88.25-9.65-.37-9.25-7.04 8.04-8.7 13.2-19.66 22.96-24.98m10.11 37.37c5.87-2.56 11.37-1.72 16.54 2.52 4.07 7.28 8.07 14.62 11.37 22.66.68 6.24-1.8 9.47-5.71 11.17-8.77 4.1-17.83 7.86-28.89 9.65-9.2-1.7-15.6-5.55-15.75-14.14 2.22-8.06 4.58-16.1 11.38-24.18 2.96-3.01 5.78-6.16 11.06-7.68m31.08 85.37c8.2-4.53 11.6-.07 14.33 5.67.47 22.44 1.32 44.9 4.63 67.31 4.01 17.8 4.38 32.05-15.87 25.99-4.09-5.27-10.55-9.28-22.45-14.94-11.17-3.08-8.63-7.87-4.09-12.93 2.73-9.07 4.22-18.17 5.11-27.24.31-9.65 2.42-19.75 7.3-30.4 3.21-4.48 6.9-8.96 11.04-13.46" fill="#3b6287" fill-rule="evenodd" clip-rule="evenodd"/><path d="M726.96 201.88c6.51-6.98 7.58-4.78 8.65.31-.48 13.57-.93 27.1-1.42 40.62-1.78 9.07-5.02 13.81-11.53 9.01-2.44-3.36-3.53-7.66-3.22-12.89 2.26-12.85 5.24-24.26 7.52-37.05M562.05 865.59c3.75 3 7.58 5.9 11.37 8.91-2.17-.64-4.07-.89-4.89-.47-1.08 3.75-4.26 6.42-6.32 9.51-1.19 1.53-.36 1.82 2.48 1.48 3.9-2.29 10.82-3.64 14.65-4.87 2.84 4.93 1.78 8.83-3.16 11.68-20.61 6.82-37.97 18.85-55.67 30.42-5.21 3.13-10.39 6.25-15.59 9.39-6.5 2.34-13.04 4.62-19.52 6.94-10.85-1.89-17.35-8.23-20.82-17.62.88-9.01 1.56-17.08 14.41-23.3 11.84-7.32 25.11-3.57 42.22-10.93 12.26-6.96 19.91-4.31 20.2-19.89 2.81-6.06 11.58-7.7 20.64-1.25m124.81-67.69c-7.86-10.6-16.55-20.8-27.36-30.04-3.55-6.31-7.8-9.99-14.27-5.58-4.31 2.48-4.66 5.91-3.85 9.67 3.53 4.17 6.76-1.45 11.66-.65 2.02 1.41 2.7 4.09 3.02 6.64.19 1.69-8.03 2.34-9.48 2.57-7.56 1.5-3.83 9.6.31 9.21 3.36 0 5.1-1 7.91.13 1.84 2.69-3.1 5.91-5.13 8.67-2.09 2.54-2.65 7.66-4.38 9.83-11.44 14.29-18.04 18.84-29 28.99-4.25 5.98-2.08 7.95-.92 10.69 1.54 3.41 6.94 5.86 10.65 7.15 3.78-.16 5.75-2.1 9.99-4.85 15.72-12.04 31.54-24.09 45.97-37.41 8.46-5.06 10.1-10.08 4.88-15.02m25.76-165.5c.28 17.44.68 34.88 1.04 52.35-7.24 12.08-8.31 24.58-5.75 37.43-3.05 15.84-8.4 33.73-17.5 33.51-8.99-2.62-11.5-2.01-17.46-.07-3.87 3.41-3.34 8.14-1.68 13.17 8.28 5.47 13.43 9.89 19.01 14.45 8.47 2.65 14.71-.01 18.79-7.99 8.59-13.14 16.27-27.08 23.53-41.51 6.16-24.71 8.03-52.1 8.2-80.57l.65-20.69h.23c2.02-28.73 2.62-57.49 6.75-86.27 1.46-7.78-.2-12.96-9.75-11.68-6.02 1.96-12.08 2.97-18.12 4.91-5.41.88-9.37-2.53-1.48-5.78 7.71-2.68 15.39-5.38 23.11-8.08 4.63-2.9 7.99-6.78 6.64-13.94 0-12.81 0-25.64.03-38.47-1.94-4.93-5.71-4.54-16.88-5.74-13.71-1.36-30.85-9.51-26.96 6.84.55 5.01 11.52 5.47 16.76 16.24.8 7.52-1.23 18.89-2.84 26.75-2.65 6.31-7.32 10.68-13.39 13.66-5.54 1.94-4.29 6.2-2.08 10.72 3.61 4.07 7.19 6.06 10.76 5.92 8.42 6.19 10.15 15.38 8.76 25.95l-10.74 32.82-.13 26.04h.5zm17.46-230.94c-4.22.03-5.97-2.42-10.39-3.9-7.15.52-9.01 4.22-8.48 9.32-.53 8.35 1.81 13.17 5.51 16.36 1.26 4.5-1.21 6.06-4.22 7.16-4.69 3.34 3.13 9.09-3.34 13.58-4.05.6-7.16 3.01-12.18 4.71-4.37 2.42-6.02 7.22-.6 11.7 9.11 1.81 20.34-.68 31.97-2.3 4.31-2.33 8.31-3.89 12.12-6.03h-.11c-4.46.97-6.27-.83-3.99-3.95 2.28-3.12 1.74-3.97 3.93-4.03 2.2 0 4.01 1.8 4.01 3.97 0 .59.04 1.05 0 1.46 2.21-1.61 4.33-3.61 6.43-6.27.99-2.08.31-6.52-3.41-10.38-5.75-2.85-4.23-5.3-2.57-8.93 3.26-3.18 4.62-1.24 4.29-7.38 1.69-11.18-3.28-22.95-12.99-17.23-1.2.69-3.67 1.28-5.98 2.14m6.97-90.23c6.54-6.56 11.02-3.69 14.66 3.46-.23 18.12-.4 36.34-.59 54.48 1.04 12.48-.44 22.13-10.86 21.81-8.56-1.58-17.11-2.32-25.67-3.87-6.96.29-9.83-3.93-10.8-9-.45-6.51 9.39-7.47 8.51-8.61-2.38-5.14-1.61-12.42.52-20.66 4.43-7.36 9.17-13.94 13.62-21.34 3.64-5.16 7-11.15 10.61-16.27m-169.92-6.02-3.85 9.66 25.02 9.04 3.1-11.09-10.02-7zM304.01 164.99c4.86-1.69 25.04 11.26 23.29 17.8-.19 13.98-1.66 25.99-2.5 38.96.88 9.89-5.61 13.42-17.62 13.62-12.32-1.97-22.36-7.59-30.89-12.58-6.96-3.37-8.35-15.24-3.02-21.46 6.66-6.43 13.25-12.8 19.4-21.52 3.2-5.82 7.74-15.08 11.34-14.82" fill="#3b6287" fill-rule="evenodd" clip-rule="evenodd"/><path d="M308.07 183.7c2.2-3.83 10.32-2.62 11.36 2.56-.72 10.93-2.25 20.73-4.29 29.94-1.45 7.4-4.26 9.12-10.94 7.62-5.18-2.98-7.62-7.11-7.71-14.78 2.76-8.87 4.12-15.6 11.58-25.34m-46.89 87.19c-4.94-10.9-14.62-13.66-24.13-8.63-7.19 6.4-10.98 12.99-15.1 20.69-9.33 16.8-13.95 33.86-16.91 51.77-2.25 9.89-1.4 19.75 3.17 29.55 4.41 8.72 9.85 17.44 19.84 26.11 13.79 8.99 21.92 6.07 27.47-2.29 3.71-7.48 6.18-15.54 6.03-25.08.87-8.06-.69-13.15-2.42-20.77-.97-4.71-5.31-5.5-5.83.47 1.9 9.37 2.37 15.99-1.72 24.55-5.9 2.98-12.92 2.65-13.98-.61-1-2.9-1.33-3.42-2.32-6.34-2.9-13.04-5.79-26.1-8.69-39.11.36-13.17 5.34-23.75 14.67-32.27 3.69-4.78 5.75-5.96 9.51-6.87 1.77 1.56 3.4 1.85 3.05 5.54-1.64 3.38-2.18 4.79-3.82 8.14.21 4.17 1.8 6.72 8.32 4.45 2.06-5.47 2.6-9.28 3.38-14.7.49-4.66.31-9.54-.52-14.6m33.68 134.73c-3.95-6.6-9.08-7.66-15.46-3.18-4.03 3.13-1.94 8.92-5.33 12.54-17.06-1.88-25.16 3.49-31.32 12.21-5.42 8.39-1.32 13.05 2.85 16.8 7.31 7.26 14.73 12.65 28.47 14.33 8.75-.4 10.39 3.18 16.04 6.38 13.43 3.45 19.49-5.58 17.22-13.74-2.26-3.97-6.06-7.43-11.33-10.33-3.09-2.14-4.79-4.93-3.42-9.13.8-4.47 3.1-8.76 3.9-13.2 1.95-5.19.4-9.51-1.62-12.68" fill="#3b6287" fill-rule="evenodd" clip-rule="evenodd"/><path d="M279.18 422.16c4.85-.77 7.23.17 7.12 3.98-.25 3.87-2.28 7.08-4.02 10.49 2.68 5.39 7.82 9.45 12.94 12.33 4.75 5.47-1.17 3.2-7.56 2.17-6.63-2.66-10.77-4.74-14.78-10-1.26-3.37-3.54-5.59-2.84-10.51 1.96-3.66 4.63-6.29 9.14-8.46m-30.26 59.96c2.49 4.66-.4 5.77 4.22 9.07 3.95 1.49 11.1 1.61 12.14-6 2.2-8.72.53-15.39-4.46-21.93-6.54-7.12-10.23-5.49-13.77-3.57-4.86 2.96-8.89 8.04-12.66 14.74-3.85 9.99-7.32 17.96-9.69 27.8-3.98 6.44-10.57 9.04-16.24 16.59-11.45 31.25-18.95 62.22-20.14 90.71 1.16 18.76 8.53 27.69 17.88 43.49 3.71 9.83 5.98 19.09 8.15 28.89 2.97 29.25 1.3 49.81.13 74.26-1.22 17.48 2.02 34.19 5.67 49.74 13.23 22.11 24.51 44.48 29.85 70.55 4.75 25.24 19.09 39.85 33.01 55.7 15.39 11.02 30.86 21.88 48.85 27.73 22.58 4.93 45.18 9.97 67.72 7.07 5.94-3.67 12.62-6.72 6.16-20.82-4.41-5.43-8.79-10.85-13.18-16.3-6.46-5.51-14.83-9.75-21.29-15.27-5.7-4.86-9.49-11.02-15.17-15.9-10.24-3.01-13.11-.56-8.67 7.47 7.76 6.71 13.93 13.82 21.68 20.54 3.04 5.86-1.7 6.23-11.61 6.2-11.29-4.69-20.8-5.46-31.22-12.88-5.77-4.14-9.73-12.8-15.72-16.59-8.56-9.71-20.65-19.08-29.2-28.81-4.19-4.74-5.85-8.69-10.03-13.39-2.86-18.97-7.67-31.48-22.28-49.5-3.66-4.5-2.42-11.66-2.72-18.23-3.14-13.31-4.97-25.3-8.12-38.53-2.37-21.7-.09-40.18.8-57.31.15-6.91 7.3-8.79 9.11 1.09-.09 8.84-.03 16.48-.44 25.64-1.26 22.89 8.32 49.09 15.38 71.55 2.76 5.35 9.2 4.14 9.12-2.54-5.82-18.49-9.72-35.4-13.65-54.71-1.33-12.62.6-24.5.33-36.47-1.5-18.02-10.48-23.53-16.35-38.11-1.92-16.55.81-22.5 1.61-47.95.08-2.88.32-6.04.53-9.36 1.58-.76 2.94-1.4 4.14-1.96 9.79-4.62 7.8-4.21 12.86-14.54.33-3.61.8-11.6-7.94-8.47-9.19 12.54-16.34 1.9-22.33 10-1.36 1.82-4.13-.91-5.09-2.28-1.45-1.8-2.32-4.1-1.98-7.39.36-1.74 1.28-7.46 5.26-6.84 3.82.56 8.89-.48 10.4-3.66.84-2.12 2.02-4.54-3.09-8.45-1.46-1.12-.85-3.94-1.05-6.59-1.3-10.8-.72-20.32 4.06-30.08-1.23-3.09-2.34-4.65-6.03-3.06-2.73 5.67-4.91 11.17-6.58 16.47-1.88 8.81-3.67 16.6-2.72 25.02-.64 5.65-7.32 5.87-6.1.6.53-9.96 1.42-18.29 4.45-28.25 4.71-10.37 9.45-18.45 14.17-26.6 3.96-9.49 7.9-19.05 11.84-28.58" fill="#3b6287" fill-rule="evenodd" clip-rule="evenodd"/><path d="M259.56 540.26c2.77-4.02 9.77-3.58 8.41 2.72-4.63 8.27-10.36 13.07-19.56 21.41-5.75 2.92-8.08-2.86-4.5-6.66 3.77-4.39 6.4-6.15 10.16-10.53 2.23-3.05 3.29-3.89 5.49-6.94M460.98 59.97c7.24.07 12.36 2.78 12.85 11.22-.6 8.81-4.86 15.56-10.8 21.37-5.77 5.3-8.65 5.43-23.33 2.62-30.58 11.77-57.25 30.33-84.45 43.39-13.7 6.55-21.38 4.71-23.1-5.51-1.64-7.18.92-14.39 7.6-21.68 18.75-18.03 36.66-24.22 54.68-31.9 21.93-8.77 43.81-15.36 66.55-19.51" fill="#3b6287" fill-rule="evenodd" clip-rule="evenodd"/><path d="M454.01 75.62c5.91-1.81 7.72.2 5.38 5.97-11.9 4.85-24.67 7.72-36.56 12.54-13.19 6.24-26.11 13.38-39.29 19.64-5.23 2.05-10.97-.52-5.75-6.35 10.41-6.63 22.58-11.89 36-16.32 15.33-3.47 28.7-8.28 40.22-15.48M327.3 265.3c-.88-5.38 2.33-7.06 8.32-6.1 11.88 4.55 21.29 11.65 30.18 19.21 1.49 4.95.33 8.45-2.04 11.3-4.42 1.08-9.04-.32-14.35-.97-6.16-3.99-11.34-7.19-15.39-11.58-3.71-4.49-6.4-8.61-6.72-11.86m85.36 165.6c-.35-4.62-.73-9.24-1.09-13.86 2.25-3.66 5.43-5.45 9.57-5.39 8.22 7.51 16.43 13.98 24.67 19.65 5.18 7.86 3 10.13-.21 11.61-7.46-1.68-15.54-2.72-23.9-3.42-5.88-2.82-7.75-5.71-9.04-8.59M665.9 741.41c2.24-.19 4.03 1.24 3.42 3.46-.61 2.26-1.49 3.48-3.36 3.52-1.89.04-3.41-1.56-3.41-3.46-.05-1.94 1.11-3.26 3.35-3.52m-81.83-.13c4.02-.37 7.26 2.22 6.15 6.27-1.1 4.01-2.68 6.29-6.06 6.32-3.38 0-6.16-2.76-6.18-6.23-.01-3.45 2-5.93 6.09-6.36m-52.76 22.17c4.07-.33 7.27 2 6.16 5.77-1.09 3.69-2.69 5.78-6.04 5.83-3.37.03-6.12-2.54-6.16-5.74-.06-3.21 1.99-5.5 6.04-5.86M463.6 710.9c3.81-.32 6.84 1.93 5.78 5.38-1.03 3.51-2.53 5.49-5.65 5.53-3.18 0-5.78-2.41-5.81-5.37-.02-3.04 1.89-5.21 5.68-5.54m65.58-20.52c3.79-.29 6.79 1.89 5.78 5.34-1.05 3.53-2.54 5.49-5.69 5.53-3.16 0-5.75-2.41-5.79-5.41-.03-2.98 1.87-5.15 5.7-5.46m-70.4-37.8c3.79-.35 10.33 2.49 9.19 8.18-1.15 5.69-5.69 3.91-9.09 2.68-3.41-1.22-5.74-2.38-5.78-5.38-.06-2.99 1.87-5.16 5.68-5.48m46.08 124.88c8.03-.61 14.3 6.92 14.14 14.71-.17 7.76-6.12 11.69-13.53 11.74-7.4.08-13.89-6.54-13.93-13.55-.06-7.06 5.29-12.27 13.32-12.9m-23.26-55.13c9.36.41 13.75 7.9 13.58 16.92-.16 9.03-5.7 19.24-13.13 13.98-7.44-5.19-10.64-7.86-11.86-15.83-1.25-7.94 2.07-15.54 11.41-15.07m70.24 53.96c8.65-5.7 13.27 4.85 10.7 15.13-2.6 10.24-3.81 11.24-10.74 13.04-6.91 1.78-12.7-8.38-10.74-14.93 1.99-6.54 2.1-7.54 10.78-13.24m-86.26-90.54c9.23-1.94 15.82 1.03 14.94 6.18-.91 5.13-6.43 8.4-14.62 8.49-8.2.09-15.11-4.77-15.14-8.26-.02-3.48 5.57-4.47 14.82-6.41m83.81-17.63c-.77-6.3 2.5-10.48 6.94-9.51 4.43 1 6.78 4.93 6.02 10.4-.76 5.47-5.75 9.72-8.8 9.48-3.08-.22-3.37-4.03-4.16-10.37m-15.75 41.09c7.08-.37 13.99-7.16 21.22-4.79 3.54 1.15 7.83 9.17 7.48 11.3-.72 4.53-12.04 6.88-25.9 6.38-13.89-.47-26.47.73-29.19-7.02-2.71-7.75 19.3-5.54 26.39-5.87m21.76-89.97c2.69-.05 6.42 2.06 6.44 5.38.03 3.34-2.16 6.03-4.83 6.06-2.7.04-5.49-2.65-5.53-5.96-.02-3.31 1.22-5.48 3.92-5.48m-110.57-21.76c1.7-2.46 9.36-1.09 14.09 2.1 4.69 3.22 8.67 8.42 6.98 10.92-1.72 2.46-8.63 2.05-13.33-1.17-4.7-3.21-9.44-9.36-7.74-11.85m18.88-30.99c3.97-2.92 8.06-1 12.09 1.78 4.06 2.73 7.46 7.24 5.98 9.39-1.44 2.13-4.89.97-11.42-1-6.57-1.98-10.63-7.29-6.65-10.17m82.51 13.95c4.95-1.77 8.28-.32 11.25 1.66 3.02 2 6.92 6.72 5.58 8.69-1.34 2-4.54.97-10.64-.91-6.09-1.84-11.13-7.64-6.19-9.44m-26.54-29.45c3.77.96 4.43 1.37 5.02 4.35.6 3.02-1.56 4.7-4.77 4.27-3.2-.39-4.17-.73-5.21-4.18-1.01-3.43 1.2-5.44 4.96-4.44m-44.06-21.27c4.31.59 5.21 1.31 4.81 4.94-.31 3.66-1.54 4.7-4.75 4.26-3.16-.39-4.17-.73-5.21-4.21-1.01-3.39.84-5.6 5.15-4.99m20.84-38.59c3.62.87 6.6 2.25 6.62 5.11.03 2.84-2.89 5.19-6.54 5.22-3.62.04-8.49-1.9-8.53-5.83-.02-3.98 4.82-5.42 8.45-4.5m56.84 11.92c5.26 1.76 9.4 3.89 8.95 6.95-.41 3.08-5.17 4.93-10.52 4.18-5.37-.77-12.22-3.96-11.61-8.2.61-4.22 7.97-4.71 13.18-2.93m11.44-44.7c7.52 5.35 10.7 4.55 10.48 9.48-.27 4.94-5.85 5.47-12.41 1.17-6.56-4.31-13.06-4.67-13.95-11.12-.93-6.43 8.29-4.9 15.88.47m-97.52-4.82c3.4.72 4.19 2.37 4.47 5.29.27 2.96-1.69 5.43-4.38 5.43-2.68.03-2.85-1.13-4.47-5.34-1.6-4.19 1-6.13 4.38-5.38m-21.25 25.77c3.4.76 4.94 1.98 5.23 4.95.27 2.97-1.52 5.95-4.95 5.23-3.45-.73-5.45-2.94-5.79-5.87-.33-2.96 2.13-5.03 5.51-4.31m-18.03 48.03c3.37.71 4.93 1.98 5.23 4.93.27 2.96-1.5 5.92-4.95 5.23-3.46-.77-5.47-2.94-5.81-5.91-.31-2.93 2.15-5.02 5.53-4.25m-15.97-20.81c4.26.76 6.23 1.98 6.56 4.94.35 2.98-1.88 5.96-6.26 5.25-4.33-.72-6.86-2.92-7.27-5.9-.43-2.92 2.7-4.99 6.97-4.29m-32.23 25.91c4.78.72 6.98 1.97 7.36 4.95.37 2.96-2.13 5.93-7.03 5.26-4.86-.76-7.67-2.96-8.15-5.93-.45-2.92 3.03-4.99 7.82-4.28m-39.67-9.89c3.05.83 4.43 2.26 4.69 5.66.27 3.38-1.32 6.82-4.41 5.96-3.08-.83-4.9-3.38-5.19-6.72-.34-3.4 1.87-5.75 4.91-4.9m5.15-43.04c3.82.8 5.58 2.18 5.88 5.42.32 3.24-1.69 6.51-5.57 5.74-3.9-.81-6.15-3.21-6.55-6.44-.38-3.23 2.43-5.52 6.24-4.72m-15.9-31.68c3.82.8 4.63 1.85 4.94 5.06.32 3.22-1.68 6.5-5.59 5.71-3.87-.77-6.14-3.2-6.52-6.43-.38-3.22 3.35-5.17 7.17-4.34m-4.56-39.17c2.76.96 1.44.31 3.59 5.98 2.13 5.71-.44 9.8-4.38 7.7-3.93-2.08-4.05-4.74-4.35-8.6-.27-3.81 2.42-6.05 5.14-5.08m-66.75 28.03c5.21-.44 12.38 1.86 12.38 3.56.03 1.73-6.3.41-12.49 3.24-6.19 2.82-11.78 1.8-10.29-2.06 1.48-3.88 5.19-4.34 10.4-4.74m12.6 60.18c3.37-.04 5.22 8.95 4.97 18.68-.27 9.73-.93 17.07-8.03 18.45-7.12 1.37-6.75-7.91-4.21-18.36 2.56-10.43 3.9-18.74 7.27-18.77m-22.67 7.92c2.32 0 3.61 2.48 3.63 5.5.05 3.06-2.65 5.55-4.97 5.59-2.32.04-3.45-2.44-3.46-5.51-.03-3.06 2.46-5.58 4.8-5.58m427.09 102.33c7.4 1.82 10.01 2.1 10.01 4.77.07 2.68-4.25 4.1-9.77 4.17-5.51.05-9.03-.17-10.19-3.99-1.16-3.82 2.56-6.76 9.95-4.95m-5.74-191.66c2.25 0 3.49 2.26 2.72 5.11-.77 2.84-3.21 5.14-5.45 5.14-2.24.03-3.45-2.24-2.69-5.06.74-2.85 3.17-5.12 5.42-5.19m-28.23 7.13c4.47 0 8.14 2.7 8.19 6.1.01 3.38-3.65 6.16-8.08 6.23-4.51.05-8.19-2.72-8.23-6.1-.03-3.37 3.59-6.19 8.12-6.23m17.8 27.03c3.9 0 7.07 2.33 7.1 5.22 0 2.9-3.14 5.29-6.99 5.34-3.86.04-7.06-2.3-7.08-5.22-.04-2.9 3.11-5.28 6.97-5.34m-63.46-20.05c4.5-.48 7.68 3.05 7.08 7.04-.6 4.02-2.02 5.84-6.99 6.52-4.93.67-8.11-2.18-7.07-6.4 1.03-4.23 2.44-6.72 6.98-7.16m.09-58.84c24.61-3.75 34.26 1.27 36.76 13.9 2.44 12.62-16.1 18.59-35.71 13.41-19.61-5.15-32.41-5.29-35.12-12.96-2.72-7.64 9.52-10.61 34.07-14.35m-54.89 10.87c4.69 1.45 6.74 3.33 6.78 6.8.01 3.46-2.97 6.9-6.66 6.92-3.7.01-5.11-1.42-6.75-6.8-1.66-5.39 1.95-8.38 6.63-6.92m-53.7-.19c9.12 1.56 10.89 5.02 10.94 9.33.04 4.31-4.74 8.36-10.65 8.4-5.89.07-8.8-2.93-10.78-8.18-1.95-5.25 1.35-11.07 10.49-9.55m-86.36 5.09c4.3.63 5.54 2.3 5.54 5.17.03 2.85-2.42 5.18-5.46 5.22-3.05 0-4.26-1.64-5.57-5.13-1.3-3.51 1.17-5.89 5.49-5.26M251 307.7c2.69-.03 5.71 5.19 8.56 11.58 2.89 6.4 3.46 12.77-1.01 12.97-4.49.19-7.9-6.22-8.73-12.88-.82-6.68-1.49-11.67 1.18-11.67m27.16-39.24c6.71 1.44 5.92 1.36 8.14 6.78 2.2 5.47-1.78 7.91-7.38 6.64-5.61-1.24-4.99-1.24-7.8-6.48-2.82-5.22.33-8.36 7.04-6.94m20.16 13.95c4.43-3.31 11.16.17 15.51 5.23 4.35 5.03 10.27 10.4 3.42 12.53-6.87 2.16-8.29-.6-13.74-4.45-5.46-3.79-9.61-9.98-5.19-13.31m81.6-32.27c8.14 8.99 11.9 22.58.19 20.49-6.27-1.13-8.44-4.18-9.55-10.2-1.07-5.95 2.44-10.94 9.36-10.29m28.36-27.81c3.73.39 4.43 1.8 5.14 5.66.69 3.89-1.66 6.03-5.05 5.41-3.37-.61-4.55-2.24-5.15-5.49-.6-3.21 1.31-5.93 5.06-5.58m-13.82-92.02c4.34.64 4.41 1.13 6.06 6.52 1.64 5.43-1.88 6.68-5.95 5.43-4.11-1.25-4.78-2.06-5.74-5.95-.95-3.84 1.29-6.72 5.63-6m127.03 22.03c5.87-.05 11.57 5.03 10.48 8.96-1.11 3.94-3.54 6.18-9.53 7.16-5.98 1.02-11.92-2.17-11.4-6.82.52-4.7 4.58-9.28 10.45-9.3M625.41 669.7c9.65 1.66 17.81 6.59 17.85 14.09.09 7.51-9.25 13.14-17.59 13.19-8.39.07-14.27-4.67-15.33-13.5-1.08-8.81 5.41-15.36 15.07-13.78m4.46-75.27c4.18.75 5.54 2.06 5.58 4.63 0 2.6-2.45 4.74-5.51 4.74-3.05.03-4.41-1.31-5.58-4.65-1.15-3.31 1.31-5.41 5.51-4.72m4.42-45.18c4.19.75 4.42 2.36 4.45 4.95.01 2.57-2.48 4.42-5.5 4.45-3.05.03-4.41-1.03-5.57-4.34-1.17-3.34 2.44-5.78 6.62-5.06m12.11-61.71c8.25-3.25 11.44.77 10.27 5.02-1.19 4.3-4.51 5.15-10.17 5.22-5.63.03-10.24-2.25-10.27-5.03-.05-2.83 1.9-1.95 10.17-5.21m-6.49-189.93c6.75 1.24 9.97 2.62 10 5.9.01 3.26-4.42 6-9.89 6.03-5.49.04-8.97-1.58-9.99-5.85-1.04-4.32 3.11-7.29 9.88-6.08m7.86-76.42c11.29 1.8 14.51 5.35 14.58 12.08.05 6.71-6.39 12.28-14.39 12.33-7.96.09-12.52-4.22-14.59-12.06-2.07-7.87 3.06-14.16 14.4-12.35m-90.97 5.06c7.9-.07 15.8 6.13 15.86 12.49.08 6.31-6.32 11.54-14.25 11.61-7.88.04-14.37-5.05-14.45-11.38-.04-6.33 4.94-12.68 12.84-12.72m2.69 36.01c7.79 2.24 9.15 2.98 9.19 6.74.03 3.74-4.03 6.86-9.03 6.88-5.01.07-7.28-1.45-9.13-6.7-1.89-5.26 1.23-9.15 8.97-6.92m30.8-6.52c6.95-.05 9.81 3.41 8.71 7.32-1.11 3.89-4.06 8.24-9.15 8.31-5.09.07-9.27-4.23-9.29-8.15-.03-3.92 2.72-7.41 9.73-7.48m54.75-116.58c2.68-1.42 5.5-1.42 6.22-.07.72 1.4-.87 3.67-3.57 5.1-2.7 1.41-5.51 1.45-6.24.07-.72-1.41.89-3.7 3.59-5.1m-358.16 481.9c3.55 1.24 5.65 1.96 5.67 4.47.03 2.46-2.49 4.51-5.59 4.54-3.12.03-5.21-.69-5.69-4.45-.44-3.74 2.06-5.82 5.61-4.56m71.48-10.8c-1.17 3.56-1.82 5.7-4.31 5.79-2.5.08-4.61-2.38-4.69-5.5-.13-3.08.55-5.22 4.29-5.78 3.78-.56 5.88 1.91 4.71 5.49m-37.81 13.23c1.38-2.32 8.8-3.2 13.75-.29 4.95 2.92 5.61 8.49 4.23 10.84-1.4 2.4-6.55 1.94-11.49-.96-4.96-2.9-7.87-7.19-6.49-9.59m61.93 33.93c-.23-5.62 7.92-6.55 15.1-.36 7.2 6.16 6.19 9.35 4.65 11.93-1.52 2.57-7.2 2.1-12.62-1.11-5.44-3.15-6.9-4.88-7.13-10.46m23.63-75.38c-2.32-5.27 4.69-8.55 15.68-4.71 11.04 3.77 10.98 7.11 10.08 9.99-.91 2.96-7.98 4.13-15.8 2.7-7.79-1.47-7.63-2.72-9.96-7.98m-35.44 362.79c3.75-2.24 7.43-4.62 6.95-11 0-3.61 2.8-3.93 8.39-1.04 3.89 3.32 6.28 5.11 7.98 8.79.49 1.11 1.21 4.63.33 6.8 2.81 4.19 3.67 6.32.27 7.51-23.56-4.64-25.29-7.95-23.92-11.06m164.06-93.22c5.18.6 7.42 3.65 7.47 8.23.03 4.58-3.25 8.33-7.32 8.41-4.09 0-6.3-3.04-7.46-8.26-1.17-5.24 2.1-9.04 7.31-8.38M410.65 339.95c7.38 2.13 10.23 2.78 10.27 6.31.01 3.54-4.53 6.47-10.15 6.52-5.65.07-8.87-1.09-10.28-6.35-1.41-5.22 2.75-8.6 10.16-6.48m27.21-4.75c5.92 1.69 8.23 2.22 8.24 5.07.05 2.85-3.63 5.22-8.18 5.25-4.54.05-8 1.17-9.12-3.02-1.14-4.25 3.07-9.04 9.06-7.3m71.82-34.09c8.53 3.21 12.48 7.72 11.56 12.24-.91 4.57-7.94 5.65-14.89 4.25-6.92-1.38-13.21-3.08-13.53-9.24-.31-6.2 8.35-10.46 16.86-7.25m-53.83 1.99c7.31 5.41 8.71 11.73 6.58 15.82-2.13 4.15-9.72 5.62-16.02 2.36-6.3-3.25-11.32-8.92-9.93-14.98 1.4-6.03 12.05-8.6 19.37-3.2m-24.8-111.85c7.44-.07 12.78 4.77 12.9 9.13 2.86-3.12.68 8.53-1.29 3.54-2.2 2.73-6.86 4.65-12.26 4.67-7.51.09-13.97-5.31-13.99-9.75-.05-4.41 7.13-7.55 14.64-7.59m45.35 60.27c7.42.63 13.21 7 12.77 12.21-.44 5.22-6.96 7.35-14.37 6.71-7.43-.63-13.1-5.38-12.66-10.58.44-5.2 6.85-8.95 14.26-8.34m233.1-86.34c2.93-.04 5.38 1.88 5.38 4.25.03 2.38-2.34 4.35-5.31 4.37-2.96.07-5.39-1.86-5.39-4.27-.02-2.41 2.33-4.35 5.32-4.35M364.89 731.49c3.22-1.56 6.3.33 9.03 4.29 2.7 3.91 3.06 8.4.79 9.95-2.28 1.57-6.06.44-10.41-3.56-4.32-3.99-2.66-9.19.59-10.68m-38.92 24.5c.55 1.57.37 3.05-.4 4.34 3.09.35 5.33 3.13 6.8 7.54 1.76 5.07.79 10.04-2.17 11.06-2.94 1-5.02-1.76-8.48-7.46-1.5-2.41-2.04-4.67-1.85-6.51-3.9 1.84-7.9 1.58-9.16-.68-1.29-2.41.24-6.11 4.69-9.95 4.41-3.93 9.39-1.73 10.57 1.66m37.88 27.47 3.46 4.43c.04.29.04.63.04.97.04 3.45-2.58 6.27-5.82 6.31-3.22.03-4.97-1.86-5.92-6.2-1.39-6.23 3.87-7.44 8.24-5.51m-41.31 22.42c4.58-.01 8.35 4.19 8.36 9.43.05 5.23-3.61 11.62-8.22 9.61-4.58-2.05-8.35-5.82-8.37-9.47-.04-3.61 3.64-9.54 8.23-9.57m32.93 8c5.14 0 9.37 5.3 9.44 11.85.08 6.62-4.1 12-9.24 12.05-5.11.03-9.37-5.3-9.44-11.86-.08-6.6 4.09-11.99 9.24-12.04" fill="#3b6287" fill-rule="evenodd" clip-rule="evenodd"/><path d="M706.46 63.45c0 6.32-5.13 11.42-11.44 11.42-6.32 0-11.45-5.1-11.45-11.42s5.13-11.42 11.45-11.42c6.31 0 11.44 5.09 11.44 11.42M264.61 435.49c0 6.32-5.11 11.44-11.41 11.44-6.32 0-11.45-5.11-11.45-11.44 0-6.31 5.13-11.42 11.45-11.42 6.29-.01 11.41 5.1 11.41 11.42m289.96 465.52c0 6.32-5.11 11.42-11.42 11.42-6.32 0-11.44-5.1-11.44-11.42s5.11-11.42 11.44-11.42c6.31-.01 11.42 5.09 11.42 11.42m-183.8 44.49c0 6.32-5.11 11.42-11.42 11.42-6.32 0-11.44-5.1-11.44-11.42s5.11-11.42 11.44-11.42c6.31 0 11.42 5.1 11.42 11.42" fill="#004b1c"/><path d="M253.52 436.7a2.855 2.855 0 1 1-2.86-2.86 2.847 2.847 0 0 1 2.86 2.86M366.3 945.85a2.85 2.85 0 0 1-2.86 2.85c-1.57 0-2.85-1.27-2.85-2.85s1.28-2.86 2.85-2.86c1.59 0 2.86 1.28 2.86 2.86" fill="#f5ee6d"/><path d="m812.85 344.71 6.94-16.88h10.42v.7h-.83c-.76 0-1.36.13-1.81.4-.31.17-.57.47-.75.88-.14.3-.21 1.08-.21 2.35v16.86c0 1.31.07 2.13.21 2.46s.42.61.85.86 1 .36 1.72.36h.83v.7h-13.35v-.7h.83c.75 0 1.36-.13 1.81-.39.31-.18.57-.48.75-.91.14-.3.21-1.09.21-2.38v-18.96l-9.81 23.34h-.46l-9.96-23.17v18.02c0 1.26.03 2.03.09 2.31.17.64.52 1.14 1.07 1.55.55.39 1.41.59 2.58.59v.7h-8.76v-.7h.27c.57.01 1.09-.08 1.58-.27.49-.2.86-.46 1.12-.78.25-.33.44-.78.59-1.38.02-.13.03-.78.03-1.92v-16.19c0-1.29-.07-2.11-.21-2.42-.14-.33-.42-.61-.85-.86-.43-.23-1-.36-1.72-.36h-.81v-.7h10.45l7.18 16.89zm30.65-17.4v20.92c0 1.57.07 2.57.21 3 .14.44.42.79.86 1.07.44.29 1.14.42 2.11.42h.59v.7H833.8v-.7h.68c1.1 0 1.88-.12 2.34-.38.47-.25.78-.6.94-1.04.17-.43.25-1.46.25-3.07v-13.26c0-1.18-.06-1.92-.17-2.22-.11-.29-.33-.55-.63-.75-.31-.21-.66-.31-1.07-.31-.64 0-1.42.21-2.34.61l-.34-.68 9.41-4.3h.63z"/><path d="M821.27 382.73c-23.41 0-42.45-19.05-42.45-42.45 0-23.42 19.04-42.47 42.45-42.47s42.45 19.05 42.45 42.47c0 23.4-19.04 42.45-42.45 42.45zm0-81.15c-21.33 0-38.68 17.36-38.68 38.7 0 21.32 17.35 38.68 38.68 38.68s38.68-17.36 38.68-38.68c0-21.34-17.35-38.7-38.68-38.7zm-87.72 451.16 6.94-16.88h10.41v.7h-.83c-.76 0-1.36.13-1.81.4-.31.17-.57.47-.75.88-.14.3-.21 1.08-.21 2.35v16.86c0 1.31.07 2.13.21 2.46s.42.61.85.86 1 .36 1.72.36h.83v.7h-13.35v-.7h.83c.75 0 1.36-.13 1.81-.39.31-.18.57-.48.75-.91.14-.3.21-1.09.21-2.38v-18.96l-9.81 23.34h-.46l-9.96-23.17v18.02c0 1.26.03 2.03.09 2.31.17.64.52 1.14 1.07 1.55.55.39 1.41.59 2.58.59v.7h-8.76v-.7h.27c.57.01 1.09-.08 1.58-.27.49-.2.86-.46 1.12-.78.25-.33.44-.78.59-1.38.02-.13.03-.78.03-1.92V740.2c0-1.29-.07-2.11-.21-2.42-.14-.33-.42-.61-.85-.86-.43-.23-1-.36-1.72-.36h-.81v-.7h10.45l7.19 16.88zm34.06 8.71h-15.06v-.42c4.62-5.5 7.42-9.19 8.41-11.09.99-1.9 1.48-3.76 1.48-5.57 0-1.33-.41-2.42-1.23-3.29-.82-.88-1.81-1.31-3-1.31-1.94 0-3.44.96-4.51 2.9l-.7-.25c.68-2.41 1.71-4.2 3.09-5.36 1.38-1.16 2.98-1.73 4.79-1.73 1.29 0 2.48.3 3.54.9 1.07.61 1.9 1.44 2.51 2.48.6 1.05.91 2.04.91 2.95 0 1.68-.47 3.38-1.4 5.1-1.27 2.33-4.04 5.58-8.32 9.74h5.53c1.36 0 2.24-.07 2.65-.17.41-.12.75-.31 1.01-.57.27-.27.61-.85 1.04-1.72h.68l-1.42 7.41z"/><path d="M741.94 790.85c-23.41 0-42.46-19.05-42.46-42.45 0-23.4 19.05-42.45 42.46-42.45s42.45 19.05 42.45 42.45c0 23.4-19.04 42.45-42.45 42.45zm0-81.14c-21.34 0-38.69 17.36-38.69 38.68s17.35 38.68 38.69 38.68c21.33 0 38.68-17.36 38.68-38.68s-17.35-38.68-38.68-38.68z"/><path d="M760.48 27.85c1.22-.12 1.83-.51 1.83-1.17 0-.49-.28-.83-.84-1.01-.68-.22-1.52-.45-2.54-.68-.87-.35-1.31-.75-1.31-1.21 0-1.26.62-1.83 1.85-1.72.27.03.53.04.78.04.85 0 2.17-.41 3.98-1.23.2-.09.46-.14.78-.14.39 0 .72.16 1 .48.28.32.42.67.42 1.06 0 .44-.25.81-.74 1.09l-1.29.6c.79.7 1.21 1.63 1.25 2.77.03.81-.31 1.53-.99 2.16-1.5 1.38-3.65 2.07-6.48 2.07-.29 0-.93-.02-1.93-.06-4.15 3.43-7.03 5.64-8.66 6.61-2.63 1.57-4.33 2.32-5.11 2.24-.44-.09-.88-.55-1.31-1.38-.39-.77-.59-1.41-.59-1.93 0-.43.12-.75.37-.96.25-.13.52-.2.82-.2.22 0 .56.04 1.01.11.46.07.79.11 1.01.11.73 0 1.44-.22 2.13-.66 3.12-2.02 5.35-3.54 6.69-4.58-.16-.31-.23-.57-.23-.78 0-.64.16-1.15.47-1.54.81-1.01 1.76-1.5 2.87-1.46 1.38.05 2.19.55 2.44 1.5 1.01-.03 1.78-.07 2.32-.13zm-3.8-20.4c-1.33-.1-2.07-.21-2.22-.31-.6-.38-.9-.85-.9-1.4 0-.77.41-1.33 1.23-1.68.99-.18 1.79-.24 2.42-.18.77.08 1.66.29 2.67.64.72.25 1.36.69 1.93 1.33.44.49.66 1.08.66 1.76 0 .96-.49 1.98-1.48 3.06-.78.86-1.69 1.58-2.73 2.16-1.64.94-3.04 1.46-4.19 1.56-.55.05-1.01-.08-1.38-.39-.38-.31-.57-.74-.57-1.29 0-.85.42-1.33 1.25-1.44.73-.1 1.41-.31 2.05-.62.46-.22 1.07-.58 1.83-1.07 1.05-.68 1.58-1.18 1.58-1.52 0-.29-.72-.49-2.15-.61zm9.77.06c-1.33-.1-2.07-.21-2.22-.31-.6-.38-.9-.85-.9-1.4 0-.77.41-1.33 1.23-1.68.99-.18 1.79-.24 2.42-.18.77.08 1.66.29 2.67.64.72.25 1.36.69 1.93 1.33.44.49.66 1.08.66 1.76 0 .96-.49 1.98-1.48 3.06-.78.86-1.69 1.58-2.73 2.16-1.64.94-3.04 1.46-4.19 1.56-.55.05-1.01-.08-1.38-.39-.38-.31-.57-.74-.57-1.29 0-.85.42-1.33 1.25-1.44.73-.1 1.41-.31 2.05-.62.46-.22 1.07-.58 1.83-1.07 1.05-.68 1.58-1.18 1.58-1.52 0-.29-.72-.49-2.15-.61zm14.44 32.44c.39 0 .73.19 1.01.56.29.37.43.76.43 1.16 0 .21-.2.54-.6.99-.43.35-1.47.98-3.12 1.89l-5.46 2.98c-1.07.59-1.79.92-2.18 1.01-.22.1-.44.16-.66.16-.38 0-.62-.13-.74-.39-.31-.72-.47-1.14-.47-1.27 0-.75.44-1.24 1.33-1.44 3.28-1.6 6.54-3.41 9.79-5.44.22-.14.45-.21.67-.21zm2.27 3.53c.39 0 .73.19 1.01.56s.43.76.43 1.16c0 .21-.2.54-.6.99-.43.35-1.47.98-3.12 1.89l-5.46 2.98c-1.07.59-1.79.92-2.18 1.01-.22.1-.44.16-.66.16-.38 0-.62-.13-.74-.39-.31-.72-.47-1.14-.47-1.27 0-.75.44-1.24 1.33-1.44 3.28-1.6 6.54-3.41 9.79-5.44.22-.14.44-.21.67-.21zm3.76-19.53c0-.34-.51-.51-1.54-.51l-2.81.31c-.14.01-.45.07-.92.18-.38.08-.68.12-.92.12-.33 0-.59-.1-.78-.29-.3-.42-.45-.85-.45-1.31 0-.3.07-.61.2-.94.13-.7 1.43-1.14 3.9-1.31.62-.04 1.8.05 3.53.27 1.9.25 3.03.73 3.39 1.46.33.66.43 1.29.31 1.87-.09.46-.2.79-.33 1.01-.43.57-.87 1.05-1.33 1.44-.87.75-1.69 1.38-2.46 1.87-1.74 1.13-4.16 2.4-7.26 3.8-1.6.73-3.19 1.4-4.76 2.03-.72.29-1.35.24-1.89-.14-.85-.91-1.27-1.79-1.27-2.63 0-.75.42-1.13 1.25-1.13.21 0 .52.03.94.1s.73.1.94.1c.35 0 .66-.05.92-.14 1.35-.48 2.04-.73 2.07-.74 1.35-.53 2.87-1.25 4.54-2.16 2.51-1.35 4.07-2.35 4.68-3 .04-.06.05-.15.05-.26z" fill="#bd0e72"/><path d="M581.56 208.63c.74-.07 1.11-.31 1.11-.71 0-.3-.17-.5-.51-.61-.41-.13-.92-.27-1.53-.41-.53-.21-.79-.46-.79-.73 0-.76.37-1.11 1.12-1.04.16.02.32.02.47.02.51 0 1.31-.25 2.4-.74.12-.06.28-.08.47-.08.24 0 .44.1.61.29.17.19.25.41.25.64 0 .27-.15.49-.45.66l-.78.36c.48.42.73.98.75 1.67.02.49-.18.92-.6 1.31-.9.83-2.21 1.25-3.91 1.25-.17 0-.56-.01-1.17-.04-2.51 2.07-4.25 3.41-5.23 4-1.59.95-2.62 1.4-3.09 1.36-.27-.06-.53-.33-.79-.84-.24-.46-.35-.85-.35-1.17 0-.26.07-.45.22-.58.15-.08.31-.12.49-.12.13 0 .34.02.61.07.27.04.48.06.61.06.44 0 .87-.13 1.28-.4 1.89-1.22 3.23-2.14 4.04-2.77-.09-.19-.14-.35-.14-.47 0-.39.09-.7.28-.93.49-.61 1.06-.91 1.73-.88.83.03 1.32.33 1.47.91.64-.03 1.1-.05 1.43-.08zm-2.29-12.33c-.8-.06-1.25-.13-1.34-.19-.36-.23-.54-.51-.54-.85 0-.46.25-.8.74-1.01.6-.11 1.08-.15 1.46-.11.46.05 1 .18 1.61.39.43.15.82.42 1.17.8.27.3.4.65.4 1.06 0 .58-.3 1.2-.9 1.85-.47.52-1.02.95-1.65 1.31-.99.57-1.83.88-2.53.94-.33.03-.61-.05-.84-.24-.23-.19-.34-.45-.34-.78 0-.51.25-.8.75-.87.44-.06.85-.19 1.24-.38.27-.13.64-.35 1.11-.65.64-.41.95-.72.95-.92 0-.16-.43-.28-1.29-.35zm5.9.03c-.8-.06-1.25-.13-1.34-.19-.36-.23-.54-.51-.54-.85 0-.46.25-.8.74-1.01.6-.11 1.08-.15 1.46-.11.46.05 1 .18 1.61.39.43.15.82.42 1.17.8.27.3.4.65.4 1.06 0 .58-.3 1.2-.9 1.85-.47.52-1.02.95-1.65 1.31-.99.57-1.83.88-2.53.94-.33.03-.61-.05-.84-.24s-.34-.45-.34-.78c0-.51.25-.8.75-.87.44-.06.85-.19 1.24-.38.28-.13.64-.35 1.11-.65.64-.41.95-.72.95-.92.01-.15-.43-.27-1.29-.35zm8.91 20.25c.24 0 .44.11.61.34.17.22.26.46.26.7 0 .13-.12.33-.37.6-.26.21-.89.59-1.89 1.14l-3.3 1.8c-.64.35-1.08.56-1.32.61-.13.06-.27.09-.4.09-.23 0-.38-.08-.45-.24-.19-.43-.28-.69-.28-.77 0-.46.27-.75.8-.87 1.98-.97 3.95-2.06 5.92-3.29.15-.07.28-.11.42-.11zm.95-9.69c.59.13.93.22 1.03.25.22.16.36.4.42.73.03.16 0 .33-.1.52s-.22.32-.36.39l-1.44.68c-.72.37-.93.63-.62.79-.01.01-.01.02-.01.02 0 .08.55.15 1.64.21.53.03.88.05 1.07.07.36.03.58.05.65.05.13 0 .35.03.64.08.28.1.41.41.41.92 0 .2-.05.39-.15.55-.12.2-.27.29-.46.27l-2.65-.27c-1.73-.17-2.68-.3-2.86-.39-.75-.1-1.12-.46-1.12-1.06 0-.34.14-.6.41-.79l2.44-1.7c-1.42-.28-2.25-.51-2.49-.68-.18-.13-.27-.38-.27-.74 0-.24.06-.4.18-.48 1.09-.79 1.97-1.43 2.63-1.92.05-.02.11-.03.15-.03.29 0 .55.26.79.77.02.13-.07.38-.25.73-.44.39-.73.64-.87.74.54.14.94.24 1.19.29zm11.36 2.7c-.68.56-1.55 1.15-2.59 1.78-1.19.72-1.96 1.1-2.33 1.17-.05.01-.11.01-.18.01-.42 0-.78-.24-1.08-.71-.27-.42-.4-.82-.4-1.23 0-.37.18-.57.55-.6.02 0 .07 0 .15-.01.08-.01.16-.01.26 0-.03 0 .18.02.62.05.42.03.68.03.75 0 .53-.2 1.21-.55 2.04-1.06 1.21-.75 2.16-1.49 2.85-2.22a.94.94 0 0 1-.4-.74c-.03-.39.2-.77.71-1.13.46-.34.89-.51 1.31-.51.66 0 1.01.32 1.06.97.15.05.53-.12 1.14-.53.18-.16.51-.4.99-.73.15-.02.28-.04.38-.04.14 0 .25.02.32.06.25.14.42.34.51.6.03.24-.03.49-.19.76s-.23.43-.22.48c.01.1.07.16.19.16.46.03 1.17-.45 2.11-1.44.39-.31.68-.46.85-.45.24.01.51.24.8.7.14.23.11.51-.09.85-.58.96-1.41 1.66-2.5 2.11-.53.22-1.01.34-1.44.35-.85.04-1.34-.3-1.47-1.03-.34.01-.95 0-1.84-.01-.25.25-1.21 1.04-2.86 2.39zm22.21-5.49c.57 0 1.1.16 1.57.47.53.35.8.79.8 1.34 0 .31-.05.59-.16.86-.28.68-1.11 1.35-2.51 2.04-1.52.75-3.06 1.12-4.61 1.12-.3 0-.59-.02-.87-.05-1.49-.33-2.22-1.01-2.19-2.04.02-.87.47-1.7 1.34-2.49.59-.53 1.3-.8 2.14-.8.16 0 .32.02.46.05.28.06.73.24 1.36.54.88-.69 1.77-1.04 2.67-1.04zm-4.34 2.1c-.13-.02-.3.01-.52.09-.75.28-1.15.64-1.21 1.06-.05.32.14.48.55.48.3 0 .61-.15.93-.45.18-.17.29-.28.32-.33.14-.14.21-.33.21-.58l-.08-.25-.2-.02zm5.51-10.83c.24 0 .44.11.61.34.17.22.26.46.26.7 0 .24-.12.44-.35.59-.93.59-1.98 1.2-3.15 1.84l-2.05 1.12c-.65.35-1.09.56-1.32.61-.13.06-.27.09-.4.09-.23 0-.38-.08-.45-.24-.19-.43-.28-.69-.28-.77 0-.46.27-.75.8-.87 1.98-.97 3.95-2.06 5.92-3.29.14-.08.28-.12.41-.12zm-3.24 11.33c-.17.15-.26.35-.26.61 0 .04.01.06.04.07.08.02.16.03.25.03.25 0 .69-.15 1.32-.45.68-.32 1.01-.66 1.01-1.01 0-.11-.04-.17-.12-.18.12.01 0 .01-.37.01-.24 0-.66.18-1.25.53l-.62.39zM278.1 255.79c.74-.07 1.11-.31 1.11-.71 0-.3-.17-.5-.51-.61-.41-.13-.92-.27-1.53-.41-.53-.21-.79-.46-.79-.73 0-.76.37-1.11 1.12-1.04.16.02.32.02.47.02.51 0 1.31-.25 2.4-.74.12-.06.27-.08.47-.08.24 0 .44.1.61.29s.25.41.25.64c0 .27-.15.49-.45.66l-.78.36c.48.42.73.98.75 1.67.02.49-.18.92-.6 1.31-.9.83-2.21 1.25-3.91 1.25-.17 0-.56-.01-1.17-.04-2.51 2.07-4.25 3.41-5.23 4-1.59.95-2.62 1.4-3.09 1.36-.27-.06-.53-.33-.79-.84-.24-.46-.35-.85-.35-1.17 0-.26.07-.45.22-.58.15-.08.31-.12.49-.12.13 0 .34.02.61.07.27.04.48.06.61.06.44 0 .87-.13 1.28-.4 1.89-1.22 3.23-2.14 4.04-2.77-.09-.19-.14-.35-.14-.47 0-.39.09-.7.28-.93.49-.61 1.06-.91 1.73-.88.83.03 1.32.33 1.47.91.63-.02 1.1-.05 1.43-.08zm-2.3-12.32c-.8-.06-1.25-.13-1.34-.19-.36-.23-.54-.51-.54-.85 0-.46.25-.8.74-1.01.6-.11 1.08-.15 1.46-.11.46.05 1 .18 1.61.39.43.15.82.42 1.17.8.27.3.4.65.4 1.06 0 .58-.3 1.2-.9 1.85-.47.52-1.02.95-1.65 1.31-.99.57-1.83.88-2.53.94-.33.03-.61-.05-.84-.24-.23-.19-.34-.45-.34-.78 0-.51.25-.8.75-.87.44-.06.85-.19 1.24-.38.27-.13.64-.35 1.11-.65.64-.41.95-.72.95-.92.01-.16-.43-.28-1.29-.35zm5.9.03c-.8-.06-1.25-.13-1.34-.19-.36-.23-.54-.51-.54-.85 0-.46.25-.8.74-1.01.6-.11 1.08-.15 1.46-.11.46.05 1 .18 1.61.39.43.15.82.42 1.17.8.27.3.4.65.4 1.06 0 .58-.3 1.2-.9 1.85-.47.52-1.02.95-1.65 1.31-.99.57-1.83.88-2.53.94-.33.03-.61-.05-.84-.24s-.34-.45-.34-.78c0-.51.25-.8.75-.87.44-.06.85-.19 1.24-.38.27-.13.64-.35 1.11-.65.64-.41.95-.72.95-.92.01-.16-.42-.28-1.29-.35zm11.58 7.77c.57 0 1.1.16 1.57.47.53.35.8.79.8 1.34 0 .31-.06.59-.16.86-.27.68-1.11 1.35-2.51 2.04-1.52.75-3.06 1.12-4.61 1.12-.3 0-.59-.02-.87-.05-1.49-.33-2.22-1.01-2.19-2.04.02-.87.47-1.7 1.34-2.49.59-.53 1.3-.8 2.14-.8.16 0 .32.02.46.05.28.06.73.24 1.36.54.89-.69 1.78-1.04 2.67-1.04zm-4.33 2.09c-.13-.02-.3.01-.52.09-.75.28-1.15.64-1.21 1.06-.05.32.14.48.55.48.3 0 .61-.15.93-.45.18-.17.29-.28.32-.33.14-.14.21-.33.21-.58l-.08-.25-.2-.02zm3.72-9.8c-.8-.06-1.25-.13-1.34-.19-.36-.23-.54-.51-.54-.85 0-.46.25-.8.74-1.01.6-.11 1.08-.15 1.46-.11.46.05 1 .18 1.61.39.43.15.82.42 1.17.8.27.3.4.65.4 1.06 0 .58-.3 1.2-.9 1.85-.47.52-1.02.95-1.65 1.31-.99.57-1.83.88-2.53.94-.33.03-.61-.05-.84-.24s-.34-.45-.34-.78c0-.51.25-.8.75-.87.44-.06.85-.19 1.24-.38.27-.13.64-.35 1.11-.65.64-.41.95-.72.95-.92.01-.16-.42-.28-1.29-.35zm-1.45 10.31c-.17.15-.26.35-.26.61 0 .04.01.06.04.07.08.02.16.03.25.03.25 0 .69-.15 1.32-.45.68-.32 1.01-.66 1.01-1.01 0-.11-.04-.17-.12-.18.12.01 0 .01-.37.01-.24 0-.66.18-1.25.53l-.62.39zm10.93 2.89c-.68.56-1.55 1.15-2.59 1.78-1.19.72-1.96 1.1-2.33 1.17-.05.01-.11.01-.18.01-.42 0-.78-.24-1.08-.71-.27-.42-.4-.82-.4-1.23 0-.37.18-.57.55-.6.02 0 .07 0 .15-.01.08-.01.16-.01.26 0-.03 0 .18.02.62.05.42.03.68.03.75 0 .53-.2 1.21-.55 2.04-1.06 1.21-.75 2.16-1.49 2.85-2.22a.94.94 0 0 1-.4-.74c-.03-.39.2-.77.71-1.13.46-.34.89-.51 1.31-.51.66 0 1.01.32 1.06.97.15.05.53-.12 1.14-.53.18-.16.51-.4.99-.73.15-.02.28-.04.38-.04.14 0 .25.02.32.06.25.14.42.34.51.6.03.24-.03.49-.19.76s-.23.43-.22.48c.01.1.07.16.19.16.46.03 1.17-.45 2.11-1.44.39-.31.68-.46.85-.45.24.01.51.24.8.7.14.23.11.51-.09.85-.58.96-1.41 1.66-2.5 2.11-.53.22-1.01.34-1.44.35-.85.04-1.34-.3-1.47-1.03-.34.01-.95 0-1.84-.01-.26.24-1.21 1.04-2.86 2.39zm15.46-2.1c-.08-.18-.12-.38-.12-.6 0-.53.22-.87.67-1.02.09-.06.22-.09.39-.09.3 0 .88.15 1.73.46l2.34-1.23c1.22-.64 1.87-.97 1.94-1.01.1-.08.22-.12.35-.12.46 0 .74.26.82.79.02.09.02.18.02.25 0 .19-.2.4-.59.65-1.52.7-2.51 1.19-2.97 1.46.7.16 1.23.4 1.6.72.13.19.2.38.21.58.03.38-.06.67-.26.88-.29.31-.69.39-1.19.26a27.692 27.692 0 0 1-2.49-.72c-1.69 1.15-3 2.01-3.92 2.56-1.71 1.01-2.93 1.56-3.66 1.64-.24.02-.49-.1-.75-.36-.37-.37-.55-.88-.55-1.53 0-.42.27-.62.81-.62.12 0 .3.01.54.04.24.02.42.03.54.03.25 0 .47-.03.66-.09.83-.39 1.47-.7 1.91-.95.81-.47 1.59-.99 2.36-1.56-.21-.19-.35-.32-.39-.42zm1.95 9.09c.24 0 .44.11.61.34.17.22.26.46.26.7 0 .13-.12.33-.37.6-.26.21-.89.59-1.89 1.14l-3.3 1.8c-.64.35-1.08.56-1.32.61-.13.06-.27.09-.4.09-.23 0-.38-.08-.45-.24-.19-.43-.28-.69-.28-.77 0-.46.27-.75.8-.87 1.98-.97 3.95-2.06 5.92-3.29.15-.07.28-.11.42-.11zM183.19 426.22c-.57.04-.95.06-1.15.06-.52 0-.78-.29-.78-.86 0-.48.31-.8.94-.97l1.14-.29c1.33-.6 2.16-1.16 2.49-1.7.19-.3.48-.45.88-.45.13.02.29.1.48.24.35.24.51.55.48.93-.16.25-.31.43-.45.53-.34.25-.56.42-.66.5 1.61-.18 2.58-.3 2.91-.34.34.05.51.26.51.65 0 .31-.06.53-.16.64l-.66.42c-2.53 1.59-4.74 2.95-6.62 4.05-2.21 1.3-3.67 2.17-4.4 2.59-.44.25-.99.55-1.66.91-.12.06-.24.09-.37.09-.35 0-.65-.24-.91-.73-.22-.42-.33-.82-.33-1.2 0-.39.17-.58.51-.58.13 0 .31.01.55.04.24.03.42.04.55.04.38 0 .73-.07 1.05-.21.05-.02.08-.03.09-.04h.01v.01c.01-.01.02-.02.04-.02l.93-.49c2.07-1.11 4.36-2.48 6.85-4.11-1.12.13-1.88.23-2.26.29zm1.27 8.26c.24 0 .44.11.61.34.17.22.26.46.26.7 0 .13-.12.33-.37.6-.26.21-.89.59-1.89 1.14l-3.3 1.8c-.64.35-1.08.56-1.32.61-.13.06-.27.09-.4.09-.23 0-.38-.08-.45-.24-.19-.43-.28-.69-.28-.77 0-.46.27-.75.8-.87 1.98-.97 3.95-2.06 5.92-3.29.15-.06.29-.11.42-.11zm14.86-7.95c.74-.07 1.11-.31 1.11-.71 0-.3-.17-.5-.51-.61-.41-.13-.92-.27-1.53-.41-.53-.21-.79-.46-.79-.73 0-.76.37-1.11 1.12-1.04.16.02.32.02.47.02.51 0 1.31-.25 2.4-.74.12-.06.27-.08.47-.08.24 0 .44.1.61.29.17.19.25.41.25.64 0 .27-.15.49-.45.66l-.78.36c.48.42.73.98.75 1.67.02.49-.18.92-.6 1.31-.9.83-2.21 1.25-3.91 1.25-.17 0-.56-.01-1.17-.04-2.51 2.07-4.25 3.41-5.23 4-1.59.95-2.62 1.4-3.09 1.36-.27-.06-.53-.33-.79-.84-.24-.46-.35-.85-.35-1.17 0-.26.07-.45.22-.58.15-.08.31-.12.49-.12.13 0 .34.02.61.07.27.04.48.06.61.06.44 0 .87-.13 1.28-.4 1.89-1.22 3.23-2.14 4.04-2.77-.09-.19-.14-.35-.14-.47 0-.39.09-.7.28-.93.49-.61 1.06-.91 1.73-.88.83.03 1.32.33 1.47.91.64-.02 1.1-.05 1.43-.08zm.85-11.49c-.59.54-.88.97-.88 1.28 0 .04.02.07.05.09-.04.07.1.11.41.13.67.04 1.14 0 1.4-.13.16-.03.31-.05.45-.05.81 0 1.21.32 1.21.95 0 .58-.26.9-.78.97-.34.09-.84.13-1.5.13-2.25 0-3.37-.68-3.37-2.03 0-.19.02-.33.07-.44.26-.86.81-1.66 1.66-2.38.42-.36.7-.61.84-.74.23-.21.55-.4.98-.57.13-.06.24-.07.31-.05.67.21 1 .6 1 1.18 0 .28-.22.54-.65.77-.61.43-1.01.72-1.2.89zm13.07 6.26c.22 0 .43.1.62.29s.29.4.29.62c0 .15-.37.53-1.11 1.14-.27.22-.42.42-.45.61-.05.27.03.49.22.64.31.23.52.34.65.34.04 0 .16-.02.35-.07.38-.09.78-.22 1.19-.37.52-.19.84-.3.98-.34.25-.02.44.05.55.2.17.07.26.27.26.61 0 .28-.27.57-.8.87l-4.14 2.3-2.38 1.34c-1.28.72-2.14 1.13-2.58 1.24-.33.08-.55.1-.65.07-.2-.06-.42-.21-.64-.45-.22-.24-.36-.46-.41-.66-.13-.63-.03-.97.32-1.04.08-.02.2-.04.38-.04.09 0 .22.01.39.02s.3.02.39.02c.23 0 .41-.02.54-.06.38-.17.94-.43 1.66-.8 1.32-.68 2.34-1.23 3.05-1.67-.38-.09-.71-.27-.99-.55-.31-.3-.46-.63-.46-1 0-.84.75-1.85 2.26-3.02.23-.16.39-.24.51-.24zm.66-7c-.8-.06-1.25-.13-1.34-.19-.36-.23-.54-.51-.54-.85 0-.46.25-.8.74-1.01.6-.11 1.08-.15 1.46-.11.46.05 1 .18 1.61.39.43.15.82.42 1.17.8.27.3.4.65.4 1.06 0 .58-.3 1.2-.9 1.85-.47.52-1.02.95-1.65 1.31-.99.57-1.83.88-2.53.94-.33.03-.61-.05-.84-.24s-.34-.45-.34-.78c0-.51.25-.8.75-.87.44-.06.85-.19 1.24-.38.27-.13.64-.35 1.11-.65.64-.41.95-.72.95-.92.01-.16-.43-.28-1.29-.35zm15.2 8.21c.24 0 .45.14.62.41.11.17.17.31.18.42.03.39-.31.81-1.03 1.24l-4.14 2.52c-1.61.98-3.02 1.71-4.24 2.19-.34.13-.55.2-.62.2-.78.09-1.26-.35-1.46-1.31-.02-.12-.04-.23-.04-.33 0-.38.2-.58.6-.58.13 0 .32.02.58.05.26.03.45.05.58.05.35 0 .66-.07.92-.21.27-.03 1.41-.65 3.43-1.86 1.67-1 2.86-1.76 3.59-2.27.49-.35.83-.52 1.03-.52zm-1.98-8.21c-.8-.06-1.25-.13-1.34-.19-.36-.23-.54-.51-.54-.85 0-.46.25-.8.74-1.01.6-.11 1.08-.15 1.46-.11.46.05 1 .18 1.61.39.43.15.82.42 1.17.8.27.3.4.65.4 1.06 0 .58-.3 1.2-.9 1.85-.47.52-1.02.95-1.65 1.31-.99.57-1.83.88-2.53.94-.33.03-.61-.05-.84-.24-.23-.19-.34-.45-.34-.78 0-.51.25-.8.75-.87.44-.06.85-.19 1.24-.38.27-.13.64-.35 1.11-.65.64-.41.95-.72.95-.92 0-.16-.43-.28-1.29-.35zm370.54 491.87c.74-.07 1.11-.31 1.11-.71 0-.3-.17-.5-.51-.61-.41-.13-.92-.27-1.53-.41-.53-.21-.79-.46-.79-.73 0-.76.37-1.11 1.12-1.04.16.02.32.02.47.02.51 0 1.31-.25 2.4-.74.12-.06.27-.08.47-.08.24 0 .44.1.61.29.17.19.25.41.25.64 0 .27-.15.49-.45.66l-.78.36c.48.42.73.98.75 1.67.02.49-.18.92-.6 1.31-.9.83-2.21 1.25-3.91 1.25-.17 0-.56-.01-1.17-.04-2.51 2.07-4.25 3.41-5.23 4-1.59.95-2.62 1.4-3.09 1.36-.27-.06-.53-.33-.79-.84-.24-.46-.35-.85-.35-1.17 0-.26.07-.45.22-.58.15-.08.31-.12.49-.12.13 0 .34.02.61.07s.48.06.61.06c.44 0 .87-.13 1.28-.4 1.89-1.22 3.23-2.14 4.04-2.77-.09-.19-.14-.35-.14-.47 0-.39.09-.7.28-.93.49-.61 1.06-.91 1.73-.88.83.03 1.32.33 1.47.91.63-.02 1.1-.05 1.43-.08zm-2.3-12.32c-.8-.06-1.25-.13-1.34-.19-.36-.23-.54-.51-.54-.85 0-.46.25-.8.74-1.01.6-.11 1.08-.15 1.46-.11.46.05 1 .18 1.61.39.43.15.82.42 1.17.8.27.3.4.65.4 1.06 0 .58-.3 1.2-.9 1.85-.47.52-1.02.95-1.65 1.31-.99.57-1.83.88-2.53.94-.33.03-.61-.05-.84-.24s-.34-.45-.34-.78c0-.51.25-.8.75-.87.44-.06.85-.19 1.24-.38.28-.13.64-.35 1.11-.65.64-.41.95-.72.95-.92.01-.16-.43-.28-1.29-.35zm5.9.03c-.8-.06-1.25-.13-1.34-.19-.36-.23-.54-.51-.54-.85 0-.46.25-.8.74-1.01.6-.11 1.08-.15 1.46-.11.46.05 1 .18 1.61.39.43.15.82.42 1.17.8.27.3.4.65.4 1.06 0 .58-.3 1.2-.9 1.85-.47.52-1.02.95-1.65 1.31-.99.57-1.83.88-2.53.94-.33.03-.61-.05-.84-.24s-.34-.45-.34-.78c0-.51.25-.8.75-.87.44-.06.85-.19 1.24-.38.27-.13.64-.35 1.11-.65.64-.41.95-.72.95-.92.01-.16-.42-.28-1.29-.35zm11.58 7.77c.57 0 1.1.16 1.57.47.53.35.8.79.8 1.34 0 .31-.06.59-.16.86-.27.68-1.11 1.35-2.51 2.04-1.52.75-3.06 1.12-4.61 1.12-.3 0-.59-.02-.87-.05-1.49-.33-2.22-1.01-2.19-2.04.02-.87.47-1.7 1.34-2.49.59-.53 1.3-.8 2.14-.8.16 0 .32.02.46.05.28.06.73.24 1.36.54.89-.69 1.78-1.04 2.67-1.04zm-3.68-7.8c-.8-.06-1.25-.13-1.34-.19-.36-.23-.54-.51-.54-.85 0-.46.25-.8.74-1.01.6-.11 1.08-.15 1.46-.11.46.05 1 .18 1.61.39.43.15.82.42 1.17.8.27.3.4.65.4 1.06 0 .58-.3 1.2-.9 1.85-.47.52-1.02.95-1.65 1.31-.99.57-1.83.88-2.53.94-.33.03-.61-.05-.84-.24-.23-.19-.34-.45-.34-.78 0-.51.25-.8.75-.87.44-.06.85-.19 1.24-.38.28-.13.64-.35 1.11-.65.64-.41.95-.72.95-.92 0-.16-.43-.28-1.29-.35zm-.65 9.89c-.13-.02-.3.01-.52.09-.75.28-1.15.64-1.21 1.06-.05.32.14.48.55.48.3 0 .61-.15.93-.45.18-.17.29-.28.32-.33.14-.14.21-.33.21-.58l-.08-.25-.2-.02zm2.27.51c-.17.15-.26.35-.26.61 0 .04.01.06.04.07.08.02.16.03.25.03.25 0 .69-.15 1.32-.45.68-.32 1.01-.66 1.01-1.01 0-.11-.04-.17-.12-.18.12.01 0 .01-.37.01-.24 0-.66.18-1.25.53l-.62.39zm4.28-10.37c-.8-.06-1.25-.13-1.34-.19-.36-.23-.54-.51-.54-.85 0-.46.25-.8.74-1.01.6-.11 1.08-.15 1.46-.11.46.05 1 .18 1.61.39.43.15.82.42 1.17.8.27.3.4.65.4 1.06 0 .58-.3 1.2-.9 1.85-.47.52-1.02.95-1.65 1.31-.99.57-1.83.88-2.53.94-.33.03-.61-.05-.84-.24s-.34-.45-.34-.78c0-.51.25-.8.75-.87.44-.06.85-.19 1.24-.38.27-.13.64-.35 1.11-.65.64-.41.95-.72.95-.92.01-.16-.43-.28-1.29-.35zm6.65 13.26c-.68.56-1.55 1.15-2.59 1.78-1.19.72-1.96 1.1-2.33 1.17-.05.01-.11.01-.18.01-.42 0-.78-.24-1.08-.71-.27-.42-.4-.82-.4-1.23 0-.37.18-.57.55-.6.02 0 .07 0 .15-.01.08-.01.16-.01.26 0-.03 0 .18.02.62.05.42.03.68.03.75 0 .53-.2 1.21-.55 2.04-1.06 1.21-.75 2.16-1.49 2.85-2.22a.94.94 0 0 1-.4-.74c-.03-.39.2-.77.71-1.13.46-.34.89-.51 1.31-.51.66 0 1.01.32 1.06.97.15.05.53-.12 1.14-.53.18-.16.51-.4.99-.73.15-.02.28-.04.38-.04.14 0 .25.02.32.06.25.14.42.34.51.6.03.24-.03.49-.19.76s-.23.43-.22.48c.01.1.07.16.19.16.46.03 1.17-.45 2.11-1.44.39-.31.68-.46.85-.45.24.01.51.24.8.7.14.23.11.51-.09.85-.58.96-1.41 1.66-2.5 2.11-.53.22-1.01.34-1.44.35-.85.04-1.34-.3-1.47-1.03-.34.01-.95 0-1.84-.01-.26.24-1.21 1.04-2.86 2.39zm19.65-1.39c.35-.72.53-1.2.53-1.46 0-.07-.02-.11-.06-.11-.02 0-.04.01-.06.02-.49.35-1.06.75-1.7 1.2-1.27.92-2.13 1.5-2.58 1.76l-2.13 1.21c-.51.29-.99.51-1.44.66-.07.02-.15.03-.22.03-.25 0-.51-.14-.78-.41-.42-.44-.64-.94-.64-1.49 0-.2.05-.38.15-.53.16-.18.44-.27.84-.27.12 0 .29.01.51.02.22.01.39.02.51.02.24 0 .46-.02.64-.07.08-.04.13-.06.16-.07l.52-.28c.86-.47 1.43-.81 1.73-1l3.24-2.18c.86-.57 1.38-.89 1.57-.94.27-.08.59-.02.93.19.51.3.77.79.77 1.47 0 .61-.18 1.37-.53 2.26-.52 1.31-1.05 2.27-1.6 2.86-.1.11-.25.16-.44.16-.24 0-.49-.09-.75-.28-.29-.2-.44-.42-.44-.65 0-.24.07-.42.22-.55.32-.28.67-.8 1.05-1.57zm-.11-11.07c-.59.54-.88.97-.88 1.28 0 .04.02.07.05.09-.04.07.1.11.41.13.67.04 1.13 0 1.4-.13.16-.03.31-.05.45-.05.81 0 1.21.32 1.21.95 0 .58-.26.9-.78.97-.34.09-.84.13-1.5.13-2.25 0-3.37-.68-3.37-2.03 0-.19.02-.33.07-.44.26-.86.81-1.66 1.66-2.38.42-.36.7-.61.84-.74.23-.21.55-.4.98-.57.13-.06.24-.07.31-.05.67.21 1 .6 1 1.18 0 .28-.22.54-.65.77-.61.43-1.01.72-1.2.89zm14.85 9.14c0-.2-.31-.31-.93-.31l-1.7.19c-.09.01-.27.04-.55.11-.23.05-.41.07-.55.07-.2 0-.35-.06-.47-.18-.18-.25-.27-.51-.27-.79 0-.18.04-.37.12-.57.08-.42.86-.69 2.36-.79.38-.02 1.09.03 2.13.16 1.15.15 1.83.44 2.05.88.2.4.26.78.19 1.13-.06.28-.12.48-.2.61-.26.35-.53.64-.8.87-.53.46-1.02.83-1.48 1.13-1.05.68-2.51 1.45-4.38 2.3-.97.44-1.92.85-2.88 1.23-.43.17-.81.15-1.14-.08-.51-.55-.77-1.08-.77-1.59 0-.46.25-.68.75-.68.13 0 .31.02.57.06.25.04.44.06.57.06.21 0 .4-.03.55-.08.82-.29 1.23-.44 1.25-.45.82-.32 1.73-.76 2.75-1.31 1.52-.82 2.46-1.42 2.83-1.81-.01-.05 0-.1 0-.16zm1.43-13.23c.24 0 .44.11.61.34.17.22.26.46.26.7 0 .15-.12.36-.37.64-.06.12-.79.55-2.18 1.3l-3 1.61c-.67.36-1.11.57-1.32.61-.13.06-.27.09-.4.09-.23 0-.38-.08-.45-.24-.19-.43-.28-.69-.28-.77 0-.46.27-.75.8-.87 1.98-.97 3.95-2.06 5.92-3.29.14-.07.27-.12.41-.12zm1.4 2.49c.24 0 .44.11.61.34.17.22.26.46.26.7 0 .13-.11.31-.32.55-.06.09-.35.3-.9.61l-4.34 2.38c-.65.35-1.09.56-1.32.61-.13.06-.27.09-.4.09-.23 0-.38-.08-.45-.24-.19-.43-.28-.69-.28-.77 0-.46.27-.75.8-.87 1.98-.97 3.95-2.06 5.92-3.29.15-.07.28-.11.42-.11z"/><path d="M228.58 967.49c1.22-.12 1.83-.51 1.83-1.17 0-.49-.28-.83-.84-1.01-.68-.22-1.52-.45-2.54-.68-.87-.35-1.31-.75-1.31-1.21 0-1.26.62-1.83 1.85-1.72.27.03.53.04.78.04.85 0 2.17-.41 3.98-1.23.2-.09.46-.14.78-.14.39 0 .72.16 1 .48.28.32.42.67.42 1.06 0 .44-.25.81-.74 1.09l-1.29.6c.79.7 1.21 1.63 1.25 2.77.03.81-.31 1.53-.99 2.16-1.5 1.38-3.65 2.07-6.48 2.07-.29 0-.93-.02-1.93-.06-4.15 3.43-7.03 5.64-8.66 6.61-2.63 1.57-4.33 2.32-5.11 2.24-.44-.09-.88-.55-1.31-1.38-.39-.77-.59-1.41-.59-1.93 0-.43.12-.75.37-.96.25-.13.52-.2.82-.2.22 0 .56.04 1.01.11.46.07.79.11 1.01.11.73 0 1.44-.22 2.13-.66 3.12-2.02 5.35-3.54 6.69-4.58-.16-.31-.23-.57-.23-.78 0-.64.16-1.15.47-1.54.81-1.01 1.76-1.5 2.87-1.46 1.38.05 2.19.55 2.44 1.5 1.01-.04 1.78-.08 2.32-.13zm-3.8-20.4c-1.33-.1-2.07-.21-2.22-.31-.6-.38-.9-.85-.9-1.4 0-.77.41-1.33 1.23-1.68.99-.18 1.79-.24 2.42-.18.77.08 1.66.29 2.67.64.72.25 1.36.69 1.93 1.33.44.49.66 1.08.66 1.76 0 .96-.49 1.98-1.48 3.06-.78.86-1.69 1.58-2.73 2.16-1.64.94-3.04 1.46-4.19 1.56-.55.05-1.01-.08-1.38-.39s-.57-.74-.57-1.29c0-.85.42-1.33 1.25-1.44.73-.1 1.41-.31 2.05-.62.46-.22 1.07-.58 1.83-1.07 1.05-.68 1.58-1.18 1.58-1.52 0-.3-.72-.5-2.15-.61zm9.77.05c-1.33-.1-2.07-.21-2.22-.31-.6-.38-.9-.85-.9-1.4 0-.77.41-1.33 1.23-1.68.99-.18 1.79-.24 2.42-.18.77.08 1.66.29 2.67.64.72.25 1.36.69 1.93 1.33.44.49.66 1.08.66 1.76 0 .96-.49 1.98-1.48 3.06-.78.86-1.69 1.58-2.73 2.16-1.64.94-3.04 1.46-4.19 1.56-.55.05-1.01-.08-1.38-.39-.38-.31-.57-.74-.57-1.29 0-.85.42-1.33 1.25-1.44.73-.1 1.41-.31 2.05-.62.46-.22 1.07-.58 1.83-1.07 1.05-.68 1.58-1.18 1.58-1.52 0-.29-.72-.49-2.15-.61zm10.66 18.03c.04-.68.46-1.52 1.25-2.54 1.37-1.76 3.4-2.63 6.1-2.63.64 0 1.37.15 2.2.45 1.64.59 2.39 1.46 2.26 2.61-.12 1-.98 2.2-2.57 3.61a35.49 35.49 0 0 1-3.78 2.87c-5.41 3.52-9.08 5.47-11 5.85-.07.01-.15.02-.25.02-.49 0-.92-.34-1.27-1.03a3.36 3.36 0 0 1-.55-1.56c-.07-.77.25-1.15.94-1.15.22 0 .49.03.82.1.95.2 1.85.07 2.69-.39 2.15-1.16 4.06-2.26 5.73-3.3-1.8-.53-2.66-1.5-2.57-2.91zm10.43-19.62c.39 0 .73.19 1.01.56.29.37.43.76.43 1.16s-.2.73-.59.98c-1.55.98-3.28 1.99-5.21 3.04l-3.39 1.85c-1.08.59-1.81.92-2.18 1.01-.22.1-.44.16-.66.16-.38 0-.62-.13-.74-.39-.31-.72-.47-1.14-.47-1.27 0-.75.44-1.24 1.33-1.44 3.28-1.6 6.54-3.41 9.79-5.44.23-.15.46-.22.68-.22zm-3.68 17.28c-.81.1-1.37.25-1.68.43-1.01.59-1.48 1.14-1.4 1.66 0 .26.17.49.51.7.39.13.94.09 1.64-.12 1.3-.39 1.95-1.04 1.95-1.95-.01-.48-.35-.72-1.02-.72zm26.36-1.99c.4 0 .75.23 1.03.68.18.29.28.52.29.7.05.65-.51 1.33-1.7 2.05l-6.85 4.17c-2.67 1.63-5.01 2.83-7.02 3.63-.56.22-.9.33-1.03.33-1.29.14-2.09-.58-2.42-2.16-.04-.2-.06-.38-.06-.55 0-.64.33-.96.99-.96.21 0 .53.03.96.08.43.05.75.08.96.08.59 0 1.09-.12 1.52-.35.44-.05 2.33-1.08 5.68-3.08 2.76-1.65 4.74-2.91 5.95-3.76.81-.58 1.38-.86 1.7-.86zm-3.27-13.6c-1.33-.1-2.07-.21-2.22-.31-.6-.38-.9-.85-.9-1.4 0-.77.41-1.33 1.23-1.68.99-.18 1.79-.24 2.42-.18.77.08 1.66.29 2.67.64.72.25 1.36.69 1.93 1.33.44.49.66 1.08.66 1.76 0 .96-.49 1.98-1.48 3.06-.78.86-1.69 1.58-2.73 2.16-1.64.94-3.04 1.46-4.19 1.56-.55.05-1.01-.08-1.38-.39-.38-.31-.57-.74-.57-1.29 0-.85.42-1.33 1.25-1.44.73-.1 1.41-.31 2.05-.62.46-.22 1.07-.58 1.83-1.07 1.05-.68 1.58-1.18 1.58-1.52-.01-.29-.72-.49-2.15-.61zm24.61-1.69c.39 0 .73.19 1.01.56.29.37.43.76.43 1.16s-.2.73-.59.98c-1.55.98-3.28 1.99-5.21 3.04l-3.39 1.85c-1.08.59-1.81.92-2.18 1.01-.22.1-.44.16-.66.16-.38 0-.62-.13-.74-.39-.31-.72-.47-1.14-.47-1.27 0-.75.44-1.24 1.33-1.44 3.28-1.6 6.54-3.41 9.79-5.44.23-.15.46-.22.68-.22zm-4.8 19.07c.98.22 1.54.36 1.7.41.36.26.6.66.7 1.21.05.26 0 .55-.17.87-.16.32-.36.54-.59.65l-2.38 1.13c-1.2.61-1.54 1.05-1.03 1.31-.01.01-.02.03-.02.04 0 .13.9.25 2.71.35.87.05 1.46.09 1.77.12.6.05.96.08 1.07.08.22 0 .57.05 1.05.14.46.17.68.68.68 1.52 0 .34-.08.64-.25.92-.2.33-.45.47-.76.45l-4.39-.45c-2.86-.29-4.44-.5-4.74-.64-1.24-.17-1.85-.75-1.85-1.76 0-.56.23-.99.68-1.31l4.04-2.81c-2.35-.47-3.73-.85-4.12-1.13-.3-.22-.45-.63-.45-1.23 0-.39.1-.66.29-.8a448.3 448.3 0 0 0 4.35-3.18c.09-.04.18-.06.25-.06.48 0 .92.42 1.31 1.27.03.22-.11.62-.41 1.21-.73.65-1.21 1.06-1.44 1.23.92.21 1.59.37 2 .46zm26.92-3.9c.38-.17.63-.28.76-.33.31-.13.67.08 1.07.62.27.36.42.72.43 1.07.01.29-.24.65-.76 1.09-1.48 1.26-3.61 2.67-6.38 4.21-3.87 2.17-6.4 3.29-7.59 3.35-.46.03-.88-.14-1.29-.5-.4-.36-.6-.76-.6-1.22 0-.25.47-.88 1.4-1.89.7-1.14 1.11-2.12 1.23-2.93l-.12-2.11c-.05-.99.19-1.59.72-1.79.47-.18.86-.25 1.17-.2.79.13 1.24.78 1.35 1.95.07.73.1 1.17.1 1.33 0 1.2-.28 2.22-.84 3.06 1.13-.38 4.24-2.29 9.35-5.71zm-2.44-13.48c-1.33-.1-2.07-.21-2.22-.31-.6-.38-.9-.85-.9-1.4 0-.77.41-1.33 1.23-1.68.99-.18 1.79-.24 2.42-.18.77.08 1.66.29 2.67.64.72.25 1.36.69 1.93 1.33.44.49.66 1.08.66 1.76 0 .96-.49 1.98-1.48 3.06-.78.86-1.69 1.58-2.73 2.16-1.64.94-3.04 1.46-4.19 1.56-.55.05-1.01-.08-1.38-.39s-.57-.74-.57-1.29c0-.85.42-1.33 1.25-1.44.73-.1 1.41-.31 2.05-.62.46-.22 1.07-.58 1.83-1.07 1.05-.68 1.58-1.18 1.58-1.52 0-.29-.72-.49-2.15-.61z" fill="#bd0e72"/><path d="m170.39 581.44 2.86-.62.61 2.81-2.86.62m5.127-4.046 2.866-.61.598 2.807-2.866.61zm5.711-1.216 2.863-.623.61 2.805-2.863.623zm5.749-1.244 2.865-.61.598 2.807-2.865.61zm5.721-1.229 2.866-.61.597 2.807-2.865.61zm5.711-1.215 2.863-.623.61 2.804-2.863.623zm5.748-1.245 2.866-.61.598 2.806-2.866.61zm5.711-1.216 2.863-.623.61 2.804-2.863.623zm5.739-1.244 2.866-.61.597 2.807-2.865.61zm5.731-1.23 2.866-.61.597 2.806-2.865.61zm5.711-1.215 2.863-.623.61 2.804-2.863.623zm5.748-1.246 2.866-.61.598 2.806-2.866.61zm5.702-1.213 2.863-.623.61 2.805-2.863.623zm5.748-1.246 2.865-.61.598 2.807-2.866.61zm5.731-1.231 2.865-.61.598 2.807-2.866.61zM256.3 563l2.862-.623.61 2.804-2.862.623zm5.737-1.245 2.866-.61.598 2.807-2.866.61zm5.712-1.214 2.863-.623.61 2.805-2.863.623zm5.748-1.247 2.865-.61.598 2.807-2.866.61zm5.731-1.23 2.866-.61.597 2.806-2.865.61zm5.712-1.214 2.862-.622.61 2.804-2.862.623zm5.747-1.247 2.866-.61.598 2.807-2.866.61zm5.731-1.23 2.866-.61.598 2.806-2.866.61zm5.719-1.229 2.865-.61.598 2.807-2.866.61zm5.731-1.231 2.865-.61.598 2.807-2.866.61zm5.712-1.213 2.863-.622.61 2.804-2.863.623zm5.747-1.247 2.866-.61.598 2.806-2.866.61zm5.731-1.231 2.866-.61.598 2.807-2.866.61zm5.718-1.228 2.866-.61.598 2.806-2.866.61zm5.732-1.231 2.865-.61.598 2.807-2.866.61zm5.712-1.212 2.863-.623.61 2.804-2.863.623zm5.747-1.249 2.866-.61.597 2.807-2.865.61zm5.719-1.238 2.866-.61.598 2.806-2.866.61zm5.73-1.221 2.866-.61.598 2.807-2.866.61zm5.732-1.231 2.865-.61.598 2.807-2.866.61zm5.702-1.209 2.863-.623.61 2.805-2.863.622zm5.747-1.249 2.866-.61.598 2.807-2.866.61zm5.729-1.24 2.866-.61.598 2.806-2.866.61zm5.73-1.221 2.866-.61.598 2.807-2.866.61zm5.731-1.231 2.866-.61.598 2.807-2.866.61zm5.703-1.208 2.864-.623.61 2.804-2.863.623zm5.747-1.251 2.866-.61.598 2.807-2.866.61zm5.729-1.24 2.866-.61.598 2.807-2.866.61zm5.73-1.221 2.866-.61.598 2.807-2.866.61zm5.722-1.228 2.865-.61.598 2.807-2.866.61zm5.712-1.21 2.864-.623.61 2.804-2.863.623zm5.747-1.251 2.866-.61.598 2.807-2.866.61zm5.729-1.241 2.866-.61.597 2.807-2.865.61zm5.73-1.22 2.866-.61.598 2.806-2.866.61zm5.722-1.229 2.865-.61.598 2.807-2.866.61zm5.713-1.209 2.863-.623.61 2.805-2.863.622zm5.746-1.252 2.866-.61.598 2.807-2.866.61zm5.729-1.24 2.866-.61.597 2.807-2.865.61zm5.73-1.22 2.866-.61.598 2.807-2.866.61zm5.731-1.232 2.866-.61.598 2.808-2.866.61zm5.704-1.205 2.863-.623.61 2.804-2.863.623zm5.746-1.253 2.866-.61.598 2.807-2.866.61zm5.729-1.24 2.866-.61.597 2.806-2.865.61zm5.73-1.221 2.866-.61.598 2.807-2.866.61zm5.731-1.231 2.866-.61.598 2.807-2.866.61zm5.704-1.205 2.863-.623.61 2.804-2.862.623zm5.746-1.253 2.866-.61.597 2.806-2.865.61zm5.729-1.241 2.866-.61.597 2.807-2.865.61zm5.704-1.205 2.863-.623.61 2.804-2.863.623zm5.747-1.243 2.866-.61.598 2.806-2.866.61zm5.715-1.207 2.863-.623.61 2.804-2.863.623zm5.745-1.254 2.866-.61.597 2.806-2.865.61zm5.729-1.241 2.866-.61.597 2.807-2.865.61zm5.704-1.204 2.863-.623.61 2.804-2.863.623zm5.747-1.245 2.866-.61.598 2.807-2.866.61zm5.715-1.206 2.863-.623.61 2.804-2.863.623zm5.745-1.255 2.866-.61.597 2.807-2.865.61zm5.719-1.238 2.866-.61.597 2.806-2.865.61zm5.714-1.206 2.864-.623.61 2.804-2.863.623zm5.747-1.246 2.866-.61.598 2.807-2.866.61zm5.715-1.205 2.863-.623.61 2.804-2.863.623zm5.735-1.254 2.866-.61.597 2.807-2.865.61zm5.729-1.24 2.866-.61.597 2.807-2.865.61zm5.724-1.207 2.864-.622.61 2.804-2.863.623zm5.737-1.244 2.866-.61.598 2.807-2.866.61zm5.715-1.204 2.863-.623.61 2.804-2.863.623zm5.745-1.257 2.866-.61.597 2.807-2.865.61zm5.729-1.24 2.865-.61.598 2.807-2.866.61zm5.705-1.202 2.863-.623.61 2.804-2.863.623zm5.746-1.248 2.866-.61.598 2.808-2.866.61zm5.715-1.203 2.863-.623.61 2.804-2.862.623zm5.745-1.257 2.865-.61.598 2.807-2.866.61zm5.729-1.24 2.865-.61.598 2.806-2.866.61zm5.705-1.202 2.863-.623.61 2.804-2.863.623zm5.746-1.248 2.866-.61.598 2.807-2.866.61zm5.716-1.203 2.863-.623.61 2.804-2.863.623zm5.744-1.257 2.865-.61.598 2.807-2.866.61zm5.719-1.239 2.866-.61.597 2.807-2.865.61zm5.715-1.203 2.863-.623.61 2.805-2.863.623zm5.746-1.248 2.866-.61.598 2.807-2.866.61zm5.704-1.21 2.863-.623.61 2.804-2.863.623zm5.746-1.249 2.865-.61.598 2.807-2.866.61zm5.729-1.241 2.866-.61.597 2.808-2.865.61zm5.716-1.202 2.863-.623.61 2.805-2.863.623zm5.743-1.258 2.866-.61.598 2.807-2.866.61zm5.721-1.229 2.866-.61.598 2.807-2.866.61zm5.731-1.221 2.865-.61.598 2.807-2.866.61zm5.729-1.24 2.865-.61.598 2.807-2.865.61zm5.716-1.201 2.863-.623.61 2.804-2.863.623zm5.743-1.259 2.866-.61.598 2.807-2.866.61zm5.731-1.23 2.866-.611.598 2.807-2.866.61zm5.73-1.221 2.866-.61.598 2.806-2.866.61zm5.72-1.239 2.865-.61.598 2.807-2.865.61zm5.716-1.2 2.863-.624.61 2.805-2.863.623zm5.743-1.26 2.866-.611.597 2.807-2.865.61zm5.731-1.231 2.866-.61.597 2.806-2.865.61zm5.721-1.219 2.865-.61.598 2.807-2.866.61zm5.729-1.24 2.865-.61.598 2.806-2.866.61zm5.716-1.2 2.863-.624.61 2.805-2.863.623zm5.743-1.261 2.865-.61.598 2.806-2.865.61zm5.721-1.229 2.866-.61.598 2.807-2.866.61zm5.73-1.22 2.866-.611.598 2.807-2.866.61zm5.73-1.24 2.865-.61.598 2.806-2.866.61zm5.717-1.2 2.863-.623.61 2.804-2.863.623zm5.742-1.261 2.866-.61.597 2.806-2.865.61zm5.721-1.229 2.866-.61.598 2.807-2.866.61zm5.73-1.22 2.866-.61.598 2.806-2.866.61zm5.73-1.241 2.865-.61.598 2.807-2.866.61zm5.707-1.197 2.863-.623.61 2.805-2.863.623zm5.742-1.262 2.866-.61.597 2.807-2.865.61zm5.731-1.23 2.866-.61.598 2.806-2.866.61zm5.73-1.221 2.866-.61.598 2.807-2.866.61zm9.184.971-2.86.61-.6-2.81 2.87-.61.59 2.81"/></svg>