<svg xmlns="http://www.w3.org/2000/svg" xml:space="preserve" x="0" y="0" version="1.1" viewBox="0 0 1000 1000"><path d="M776.13 171.8c2.01 2.62 4.04 5.29 6.06 7.85-1.51-.27-3.04-.5-4.66-.62-3.61-.03-5.37-.82-3.84-3.76.96-1.08 1.87-2.21 2.44-3.47M462.05 7.28c-9.26-5.35-12.35-.12-14.51 6.63 1.58 15.82 12.87 18.89 24.76 20.84 6.07.59 7.11-.72 4.51-5.27-3-8.41-8.37-15.57-14.76-22.2m-87.76 41.36c8.42 7.48 15.77 10.81 26.78 13.91 8.2 4.85 16.16 6.17 22.38-16.68 2.45-9.82 4.6-19.58-2.53-29.26-4.55-8.96-11.53-13.04-23.72-6.34-13.09.79-22.62 4.13-33.84 5.89-20.25 8.77-.83 26.67 10.93 32.48m-69.78-13.88c7.72-4.66 13.74-2.73 17.25 7.15 0 8.41 1.04 15.82 2.2 23.05-1.16 7.55-4.55 13.24-11.21 16.14-16.09 6.36-32.21 12.75-48.3 19.18-.4.27-.77.5-1.19.79-15.94 7.43-31.9 13.72-47.88 19.56-11.09 2.57-22.16 4.93-30.54-3.24-6.38-8.83-9.18-18.02-2.18-28.52 3.99-7.85 8.52-17.33 25.17-21.33 24.98-11.91 52.11-20.47 79.83-26.74 6.61-2.67 10.24-3.34 16.85-6.04" fill="#3b6287" fill-rule="evenodd" clip-rule="evenodd"/><path d="M293.44 61.96c3.17.22 3.34 1.44 3.12 2.85-17.28 8.1-25.86 4.11-40.87 19.53-10.72 7.15-21.98 11.85-33.25 18.47-9.09 3.14-15.08 5.39-15.08-1.28 2.01-6.95 5.47-12.08 15.52-17.97 15.69-6.22 30.94-10.44 44.88-14.35 8.84-1.56 16.82-5.69 25.68-7.25m-164.55 93.46c6.98-11.21 16.04-13.91 28.09-4.18 18.88 22.23 37.58 44.58 58.82 64.41 14.06 14.56 14.04 25-.13 31.26-15.67 8.22-31.39 17.18-47.05 28.54-10.08 6.26-19.92 6.54-29.33-2.05-12.16-13.69-20.22-31.69-24.65-56.39.29-25-1.04-40.99 14.25-61.59" fill="#3b6287" fill-rule="evenodd" clip-rule="evenodd"/><path d="M156.82 177.06c-2.82-4.24.62-9.5 11.27-.08 15.44 11.81 24.18 25.64 31.59 39.81 9.24 13.82 12.3 21.27 4.23 25.52-2.38.64-19.33 9.7-19.46 9.55-9.46 1.64-16.81 2.33-18.88-11.21 2.82-7.7 3.57-15.1 1.69-29.66-1.03-11.65-4.8-22.92-10.44-33.93m224.22 69.18c-3.2-8.69-4.66-16.73 6.07-19.98 13.56-5.37 25.97-2.1 37.6 7.1 4.73 6.09 8.17 12.18 8.77 18.32 1.11 7.73-2.05 8.86-5.82 9.03-10.29.94-20.6-.62-30.87-2.47-8.01-2.97-13.25-6.93-15.75-12m138.23-65.71c-1.64-7.33-1.26-13.52 7.21-16.27 11.86-.34 22.55 1.07 33.36 6.54 6.59 7.28 5.87 13.25.13 18.41-8.32 5.18-16.98 4.38-27.67 3.09-8.25-3.14-12.88-6.58-13.03-11.77m-23.4-156.41c-10-7.4-11.21-26.06 5.99-23.96 23.79 1.31 44.93 4.68 66.48 9.63 35.89 8.17 67.55 22.9 95.85 42.88 9.11 5.39 13.88 11.74 16.64 18.61 7.89 14.9-11.61 22.9-15.57 17.38-7.1-8.84-13.2-13.02-21.86-18-19.76-13.42-42.1-20.89-64.95-27.06-21.44-4.11-42.53-7.25-64.01-11.36-6.81-.74-13.09-4.64-18.57-8.12" fill="#3b6287" fill-rule="evenodd" clip-rule="evenodd"/><path d="M525.38 23.39c-8.54-1.22-9.97-8.96.62-8.86 19.85 3.17 38.27 4.31 58.1 11.63 27.16 8.09 40.2 17.01 61.95 28.09 6.58 4.01 16.68 9.56 18.31 13.59-.5 1.26-4.11 1.01-7.95-1.04-13.32-7.16-23.88-11.81-37.18-18.96-15.94-8.41-34.6-14.58-60.52-19.7-10.04-1.36-20.88-4.07-33.33-4.75m162.08 87.07c-7.94-5.97-13.88-12.06-5.94-18.24 4.71-3.69 9.65-5.96 15.08-5.03 10.54 2.33 17.21 7.25 23.79 12.3 7.43 7.25 14.76 14.65 21.59 22.55 5.02 9.38 2.43 11.88-1.19 13.39-3.89 2.7-7.7 5.44-11.58 8.15-2.62 1.93-7.28.64-16.54-7.92-3.07-5.34-6.96-10.86-12.67-16.83-4.17-2.78-8.35-5.55-12.54-8.37m-37.82 62.78c-3.62-7.26-9.14-8.39-16.56-3.39-3.91 2.06-6.69 5.81-8.36 11.19-2.73 9.46 1.73 13.52 9.5 15.12 10.65-.49 21.24-.57 30.77-1.59 5.02-.17 7.48-2.47 3.02-8.09-4.03-2.72-9.61-3.24-14.73-4.36-1.23-2.92-2.43-5.91-3.64-8.88m123.92-14.89c-6.9-7.75-14.66-12.2-23.76-11.81-6.96-.94-14.04-.42-21.43 1.48-6.34 3.91-5.22 9.06-.79 14.76 10.87 5.72 19.53 12.28 28.47 19.46 2.89 3.62 3.07 4.43.27 5.25-4.09-1.34-6.83-1.01-8.93 1.43.03 7.11 7.87 9.58 21.36 13.67 10.08 2.6 16.96.27 23.39-3.82 5.62-5 6.02-10.2 1.24-15.6-4.7-2.01-9.76-3.56-15.87-4.14-3.61-.03-5.37-.81-3.83-3.74 1.51-1.73 2.95-3.56 3.07-5.82.5-4.26-.89-7.85-3.19-11.12m46.84 53.55c-6.04-7.85-13.57-8.99-21.48-8.24-12.16 3.36-22.55 7.62-32 12.32-8.56 4.78-7.33 15.4.59 17.84 11.69 2.95 20.86 7.84 29.9 11.46 8.2 11.68 6.33 17.94 13.31 20.12 12.01 1.21 22.68-2.32 29.71-6.78 5.87-3.02 7.42-8.17-.59-18.31-6.47-8.31-12.98-18.11-19.44-28.41m-24.69 68.9c5.92-3.39 8.79 1.26 7.95 7.1-3.88 7.33-7.47 12.73-17.45 16.58-6.29.34-14.88-.32-20.37-7.99-.7-4.48-.57-8.15 4.75-10.65 3.84 1.22 5.07 1.06 13.27 3.52 8.53-1.26 8.53-4.82 11.85-8.56m47.53-4.85c-14.41 6.54-22.95 15.12-32.82 22.6-8.05 7.48-7.21 14.08 2.42 18.76 13.32 6.21 24.16 12.92 48.66 7.11 7.73-4.7 15.6-9.31 13.24-21.98-12.35-23.62-18.41-30.42-31.5-26.49M269.08 449.28c-8.89-1.56-16.11-6.46-23.44-11.29-1.38-7.15-3.98-14.09-9.28-20.44-6.51-3.59-20.32-11.93-33.12-13.94-4.38-2.35-6.96-6.36-8.72-13.15-1.23-4.58-5-8.17-8.34-13.61-4.21-5.67-3.74-11.73 1.41-18.2 10.4-3.12 20.79-4.78 31.14-13.74 2.26-5.76 3.64-11.33-5.82-8.32-5.25 3.09-11.06 7.03-16.31 10.12-6.01-.17-7.87-1.68-9.21-9.73.84-7.72.67-14.09 9.35-18.76 3.31-2.57 1.75-6.54-.45-10.67-5.89-2.45-11.59-4.95-19.83-4.95-10.55.15-16.86 7.62-24.03 13.61-8.47 11.04-12.1 23.66-13.51 36.93 1.12 30.55 6.46 59.09 19.33 84.09 13.89 29.56 20.84 50.77 35.7 60.54 26.06 17.08 42.55 26.34 70.08 57.82 6.96 21.68 10.45 38.99 11.21 60.75 2.63 10.39 14.33 23 32.16 7.08 2.99-4.55 5.97-9.04 8.96-13.57 6.85-20.59 19.03-41.29 30.7-61.96.89-10.64-4.21-19.87-12.8-21.22-11.74 1.69-21.06 2.92-32.06.69-8.04-6.36-15.5-13.52-25.08-18.27-2-4.6-4.33-8.49-4.75-14.61-1.51-6.26-2.32-12.87 1.68-22.31 7.54-8.64 10.14-16.79-4.97-22.89" fill="#3b6287" fill-rule="evenodd" clip-rule="evenodd"/><path d="M166.87 345.55c.5-6.84 6.83-2.87 8.84 5.52.99 9.87-.57 9.6.47 19.53-1.12 17.78 7.16 27.52 12.25 38.22 13.56 16.83 27.95 28.72 46.49 33.02 12.33 6.76 21.79 13.1 27.55 21.36 1.76 9.14 1.27 17.2-1.38 24.14-2.16 5.42-5.27 6.78-14.85 2.08l-29.18-25.08c-16.26-14.65-26.24-27.35-34.38-40.6-6.71-13.74-12.5-27.5-13.89-43.57-1.26-11.97-.63-22.64-1.92-34.62m730.53 6.39c-1.68-2.73-5.05-4.18-10.15-4.29-6.07.72-9.08 4.45-11.68 8.57-4.35 4.48-3.99 7.25 1.17 8.19 6.66 1.56 13.32 3 19.97 2.85 3-5.83 3.46-8.53.69-15.32M462.05 7.28c-9.26-5.35-12.35-.12-14.51 6.63 1.58 15.82 12.87 18.89 24.73 20.84 6.11.59 7.15-.72 4.55-5.27-3.01-8.41-8.38-15.57-14.77-22.2m98.34 64.9c4.03.79 3.57 3.07 3.59 6.09.03 3.04-1.17 4.87-3.51 4.87-2.33.05-3.79-1.58-5.57-5.44-1.74-3.91 1.43-6.37 5.49-5.52m13.16 23.3c5.49.92 4.87 3.47 4.88 6.91.05 3.44-.72 4.85-4.8 5.6-4.04.69-7.89.28-7.53-6.17.38-6.54 1.94-7.28 7.45-6.34M684.39 344.2c13.1 3.78 19.56 8.89 19.56 12.33-.02 3.39-10.13 4.33-21.78 3.84-11.69-.52-17.4-3.99-18.61-11.02-1.22-7.02 7.73-8.97 20.83-5.15m-23.49 19c11.39 1.59 16.33 7 15.25 11.38 2.84-.5 6.09-.77 9.68-.81 15.77-.18 24.65 3.46 25.75 6.73 1.14 3.32-10.08 4.85-23.19 7.77-13.09 2.9-20.17 3.47-23.91-2.92-.91-1.53-1.04-3.09-.44-4.43-1.38-.03-2.92-.18-4.7-.25-8.42-.57-13.39-4.46-13.41-11.07-.02-6.64 1.56-8.3 14.97-6.4m-14.32-88.89c2.77-5.52 6.27.17 13.76 4.9 7.55 4.7 14.46 6.29 10.17 9.36-4.31 3.02-10.18.7-16.68-1.01-6.5-1.66-10.11-7.73-7.25-13.25m32.08 3.16c1.59-5.99 4.46.59 14.51 1.86 10.02 1.27 17.13 1.39 11.86 7-5.24 5.67-9.82 2.85-16.49 2.62-6.71-.34-11.49-5.49-9.88-11.48m50.33 23.35c6.27-1.66 4.5 3.66 11.63 8.88 7.11 5.22 10.92 8.15 3.54 10.39-7.37 2.25-7.53-.79-12.33-4.43-4.77-3.6-9.15-13.18-2.84-14.84m-513.42-21.73c-1.95-5.03-4.14-6.12-11.49-2.5-2.7 3.44-6.88 5.72-9.6 9.14-5.65 3-5.42 5.12.65 6.46 9.18-3.64 13.88-2.26 17.6.44 6.98-.83 5.34-6.51 2.84-13.54m392.94-35.47c4.68-.08 8.91 2.22 8.96 6.81.05 4.63-3.73 8.39-8.41 8.42-4.63.03-8.44-3.67-8.51-8.29-.04-4.57 3.33-6.87 7.96-6.94m-41.77 50.17c18 7.37 32.75 10.44 31.06 18.61-1.69 8.14-21.04 10.84-35.12 7.92-14.08-2.89-20.27-7.55-22.5-20.13-2.24-12.54 8.58-13.73 26.56-6.4m-49.85-74.46c4.85-.07 12.11 6.75 12.15 11.02.03 4.35-7.16 4.68-12 4.75-4.78 0-8.76-3.47-8.81-7.84-.03-4.32 3.88-7.89 8.66-7.93m-21.24 132.76c10.77-.12 17.73 1.36 19.65 9.82 1.9 8.42-7.06 12.63-19.5 10.12-12.43-2.43-22.26-9.98-22.32-15.47-.03-5.53 11.37-4.39 22.17-4.47m-81.24-16.42c4.87-.05 8.84 3.29 8.89 7.43.03 4.13-3.89 7.55-8.74 7.62-4.88.02-8.88-3.29-8.89-7.42-.05-4.21 3.88-7.59 8.74-7.63m78.29-59.85c3.59 0 6.54 2.47 6.59 5.52.02 3.1-2.87 5.64-6.51 5.64-3.61.05-6.56-2.43-6.58-5.5-.01-3.05 2.91-5.61 6.5-5.66m-167.3-65.73c9.9.74 17.15 8.04 17.21 14.26.08 6.28-7.85 9.8-17.03 9.85-9.11.08-17.45-7.06-17.48-13.72-.05-6.61 7.36-11.12 17.3-10.39m43.58 89.14c9.92.74 19.5 7.74 19.56 13.98.08 6.26-9.97 10.84-19.11 10.92-9.13.07-17.7-7.84-17.75-14.51-.07-6.61 7.33-11.14 17.3-10.39M224.92 154.31c3.47-.03 6.33 3 6.38 6.78.02 3.77-2.79 6.84-6.26 6.86-3.49.05-6.34-2.97-6.41-6.76 0-3.76 2.8-6.88 6.29-6.88m162.41 3.22c4.66.92 9.7 5.03 10.28 10.22.55 5.24-2.73 11.74-8.05 11.81-5.37.03-11.38-5.67-11.41-11.64-.06-5.93 4.5-11.3 9.18-10.39m92.97 20.97c3.47-3.27 9.8-4.87 14.35-2.3 4.56 2.6 7.87 9.13 4.76 13.51-3.12 4.33-11.29 5.77-16.11 2.33-4.83-3.43-6.46-10.28-3-13.54m364.88 472.64c7.97-2.77 14.16-1.02 13.49 7.03-7.03 12.52-14.06 25.12-21.09 37.65-7.52 18.88-17.37 33.99-28.15 47.55-8.96 5.99-11.8 3.14-12.33-6.96 6.14-12.1 10.35-15.86 16.58-19.38-1.95-7.2-4.35-14.11.2-24.56 7.12-15.62 14.47-31.02 31.3-41.33" fill="#3b6287" fill-rule="evenodd" clip-rule="evenodd"/><path d="M737.71 712.36c0 7.97-6.44 14.4-14.4 14.4-7.97 0-14.43-6.43-14.43-14.4 0-7.97 6.46-14.4 14.43-14.4 7.96 0 14.4 6.43 14.4 14.4" fill="#004b1c"/><path d="M878.54 383.61c-11.16 3.71-10.47 7.27-4.35 10.74 13.14 3.91 22.89 5.1 31.73 5.55 3.34-1.26 4.98-4.31 4.83-9.01.15-5.54-1.83-8.98-5.89-10.28-13.49-4.33-21.29 6.06-20.97 2.3-1.75.22-3.54.49-5.35.7m-113.83 37.3c7.92 4.43 7.89 12.35 5.23 20.17-13.96 4.13-25.4 7.57-39.36 10.32-13.64 3.42-18.1.62-13.46-8.41 6.64-7.6 14.46-13.64 26.16-19.66 8.58-2.78 15.61-4.14 21.43-2.42m20.6 67.04c-7.85 5.03-6.64 9.48.4 13.41 12.78-.69 23.29-.05 34.97 1.48 8.99 1.19 11.48-2.82 7.53-12.15-4.83-5.03-11.04-6.49-17.94-5.12-7.65-2.17-16.22.22-24.96 2.38m106.78-26.41c10.35-6.93 16.29-5.15 19.31 6.09-1.04 22.82-3.32 45.54-6.53 68.37-5.87 25.6-11.74 51.24-17.63 76.86-4.18 11.12-10.65 14.95-18.15 14.38-7.73.77-15.49-.67-23.2-2-8.05-1.85-8.67-7.52-8.17-13.74 5.25-25.25 11.49-50.32 20.05-74.58 4.76-16.12 11.16-31.39 15.92-47.55 4.45-9.37 10.71-18.38 18.4-27.83" fill="#3b6287" fill-rule="evenodd" clip-rule="evenodd"/><path d="M886.09 481.74c3.2-4.9 5.87-3.84 8.05 3.04-.02 16.63-.94 33.29-3.09 49.97-3.41 21.01-9.7 40.59-17.35 59.48-2.94 6.85-6.34 13.24-11.48 17.94-8.27 4.3-11.85 2.72-10.7-4.78 3.31-10.29 6.64-20.59 9.97-30.91 4.71-20.97 12.7-40.45 17.38-61.46 3.48-10.56 3.76-22.74 7.22-33.28m-86.86 43.21c6.83-1.27 11.58-.35 11.02 9.18-7.42 7.65-12.7 16.78-22.35 20.17-7.08 3.94-12.85 3.91-15.77-8.14-.6-7.01-2.43-13.19.17-20.18 3.51-2.67 9.65-5.03 12.15.89.17 3-.45 5.92-.27 8.93.05 5.87-.67 6.31 2.53 3.66 4.55-6.56 7.98-7.97 12.52-14.51m-193.85-54.61c-6.63 2.53-11.8 6.81-15.49 14.38-7.01 6.24-3.56 11.98 4.61 17.42 25.69 9.68 51.21 19.51 77.57 24.93 12.15-1.07 24.14-3.72 23.71-23.62-1.9-8.32-5.34-16.27-14.48-23.04-24.49-8.11-50.08-9.95-75.92-10.07m8.49 103.4c3.96-4.29 7.55-7.03 15.25-1.17 2.45.84 5.5 10.12 7.99 11.02 4.09 1.48 8.64-6.9 12.77-5.42 9.93-.96 8.25 7.58 5.2 16.21-9.33 15.54-19.03 29.6-31.39 32.85-8.25 1.16-17.45 3.1-23.61-8.29.44-13.85 2.55-35.7 13.79-45.2m222.76 65.41c10.5-3.04 20.67-3.56 31.31 4.09 7.4 4.38 8.32 10.32 1.91 20.18-15.49 31.66-31.53 63.02-49.16 93.66-5.82 14.56-23.27 13.51-25.82 3.81-.54-16.43-4.5-17.13-11.01-29.38-13.41-11.95-7.92-23.1 5.39-27.78 14.98-25.77 25.01-47.61 47.38-64.58m-19.86-30.67c10.13-.03 13.29 2.45 8.54 8.96-12.21 6.78-21.38 15.57-23.91 28.74-6.69 9.88-9.85 9.63-9.33-.82 3.49-8.57 1.01-15.86 6.93-23.26 5.17-6.1 10.43-10.7 17.77-13.62m-90.32 34.33c.75-7.77 6.41-10.82 16.9-9.06 5.67 3.62 1.61 10.25 16.58 10.1 4.63 2.99 3.91 7.6-2.1 13.86-7.48 2.92-15.05 5.64-23.61 6.48-9.08-2.41-13.52-8.18-7.77-21.38m-260.73-21.34c9.11-4.9 18.64-5.15 28.54-2.03 7.97 2.85 8.1 7.52 5.29 16.24-.37 9.6-11.02 14.01-25.96 16.48-6.11-2.1-12.4-3.74-14.85-13.27-2.32-6.9-3.09-13.41 6.98-17.42m-47.17-90.16c7.35.65 12.16 4.09 11.26 13.73-3.32 9.26-12.78 14.6-23.93 18.94-10.34 1.02-16.02-2.32-14.82-11.91-.25-5.59 1.26-10.62 9.87-15.72 5.96-2.46 11.68-4.86 17.62-5.04m-85.85 91.77c10.52 5.34 19.43 11.9 18.36 23.99-9.58 13.37-23.31 22.2-40.08 30.62-13.76 4.23-17.85-1.07-18.39-9.7-2-11.27-1.96-22.6 7.73-33.96 8.61-7.56 13.96-13.33 32.38-10.95m-44.97-77.79c2.62-7.65 6.14-8.04 15.62-4.51 3.96 6.56 10.45 11.31 12.7 19.06.24 8.41-2.94 12.3-5.3 19.03-5.25 4.65-9.8 4.43-13.62-.69-.03-5.17-.47-10.35-1.29-15.54-1.57-4.22-5.78-9.32-8.11-17.35m310.02-131.33c-3.64-6.76-3.79-12.9 6.54-14.78 12.48-3.82 25.96-3.91 39.04 3.39 7.8 3.84 8.67 10.07 4.8 17.9-2.5 6.01-9.8 7.15-23.47 6.06-9.63-3.65-18.39-7.22-26.91-12.57m-26.4-8.85c3.56-3.64 4.75-7.43-1.41-10.59-7.16-4.73-15.69-7.26-25.34-5.13-5.62.99-7.33 4.76-6.38 10.45.49 4.26 4.87 6.33 13.72 8.15 6.83-.48 12.99-1.1 19.41-2.88M471.08 553.95c-5.02-5.55-8.47-11.22-.72-17.94 4.11-6.66 12.21-9.4 23.05-9.48 9.97.4 14.65 5.42 16.88 12.58 1.09 4.13-.62 7.4-5.12 9.87-6.64 6.98-14.68 7.92-23.07 7.15-3.99.22-7.58-.73-11.02-2.18m85.04-4.23c.69-7.05 4.35-10.2 10.89-9.36 10.17-1.85 18.22 2.74 25.57 9.63 3.04 4.76 3.05 10.13-6.12 11.49-2.65 3.89-6.39 5.47-13.49 6.06-11.89-1.79-19.3-7.53-16.85-17.82m-31.37 120.04c10.52-5.52 21.43-10.67 30.74-6.59 11.56 3.81 15.86 10.8 19.09 16.58 4.03 9.28-.99 16.38-7.31 23.19-11.33 3.86-23.1 6.32-36.43 3.81-6.33-5.4-13.12-10.29-12.33-24.18-.18-5.26 1.93-9.5 6.24-12.81m222.35 8.8c3.93-.1 8 4.03 8.05 8.07.03 4.09-3.15 7.47-7.15 7.5-3.99.03-7.21-3.26-7.25-7.33-.06-4.08 2.36-8.24 6.35-8.24m-45.14 25.17c1.02-1.69 11.24-8.37 15.03-8.46 4.75-.03 7.43 4.06 8.94 10.2-.03-.15-.1-.32-.15-.49.4.17.82.37 1.21.57 10.65 5.25 14.24 12.7 10.34 16.51-3.93 3.81-7.5.89-19.03-.64-11.55-1.45-18.64-13.93-16.34-17.69m-2.9 21.48c5.86.96 11.43 5.57 11.48 10.1 0 .91-.29 1.69-.7 2.33 11.11-1.34 11.51-7.11 15.49-3.47 3.99 3.69 2.33 13.66-4.61 15.37-6.93 1.76-14.06 5.86-17.18 3.56-2.18-1.59-4.16-7.97-1.07-12.06-.74.12-1.44.2-2.08.2-3.86 0-5.96-2.11-8.27-7.73-2.34-5.64 1.07-9.23 6.94-8.3m4.76-129.02c9.7-3.12 19.11-.77 21.11 5.25 1.96 6.02-4.3 13.54-13.99 16.66-9.63 3.17-19.11.77-21.09-5.25-1.95-6.01 4.34-13.52 13.97-16.66m-8.53-65.52c7.57-2.38 10.72 1.91 8.47 8.46-2.23 6.46-3.71 8.51-8.29 8.57-4.66 0-8.46-3.79-8.47-8.47-.05-4.68.74-6.21 8.29-8.56m-144.94 58.97c5.27-2.73 12.45-2.13 13.93.65 1.43 2.79-1.69 7.32-7.01 10.1-5.3 2.73-10.79 2.7-12.23-.07-1.47-2.78 0-7.9 5.31-10.68m-77.83-86.04c7.4 1.17 13.05 4.48 13.09 10.07.07 5.64-5.74 10.25-12.89 10.3-7.2.08-12.47-3.21-12.9-10.92-.41-7.69 5.35-10.63 12.7-9.45m74.52-15.84c5.03 1.01 8.64 3.59 8.72 8.07.02 4.43-3.84 8.15-8.59 8.19-4.75.02-10.23-3.02-10.57-8.64-.37-5.66 5.4-8.63 10.44-7.62m-175.6-95.45c11.11 3.17 18.05 7.03 18.12 13.09.03 6.09-7.11 9.23-18.46 11.21-11.33 2.03-19.65-1.24-19.56-11.43.13-10.13 8.79-16.06 19.9-12.87m-65.71-10.43c4.51-.07 8.17 2.8 8.2 6.33.03 3.51-3.61 6.39-8.07 6.48-4.51 0-8.19-2.8-8.19-6.36-.02-3.53 3.57-6.4 8.06-6.45" fill="#3b6287" fill-rule="evenodd" clip-rule="evenodd"/><path d="M737.7 712.35c0 7.97-6.44 14.41-14.4 14.41-7.97 0-14.41-6.44-14.41-14.41s6.44-14.4 14.41-14.4c7.96.01 14.4 6.43 14.4 14.4" fill="#004b1c"/><path d="M527.29 877.41c13.17 3.79 14.23 9.51 13.51 15.5-16.43 8.96-32.84 17.85-49.29 26.8-14.93 6.39-21.74 4.08-16.58-11.04 5.17-6.85 10.89-13.57 20.35-19.38 8.61-5.27 16.83-10.87 32.01-11.88m221.1-62.48-28.24 15.42-14.97 5.08c14.59-6.83 28.65-13.62 43.21-20.5" fill="#3b6287" fill-rule="evenodd" clip-rule="evenodd"/><path d="M745.12 760.09c-15.99-7.35-11.41.29-14.46 3.59 2.22 4.7 4.65 9.24 9.01 12.83-.6 12.1-33.22 18.22-48.46 28.37-8.64 4.33-10.4 3.25-14.88-6.31-.96-9.38-3.14-17.47-4.14-26.88-1.06-3.37-2.4-5.65-3.91-7.08 1.98-.69 3.84-1.8 5.47-3.46 5.77-5.69 6.09-11.34-.92-16.95-10.74-2.6-21.02-2.77-31.79-5.37-9.18.39-12.25 2.38-7.06 10.62 6.48 4.85 14.51 9.7 24.19 14.5.13.03.29.07.4.17-1.95 1.21-3.77 3.05-5.07 5.15-5.44 8.54-.27 22.8 9.45 39.86 3.25 8.64-1.41 13.44-8.93 14.7-8.77-4.87-13.2-8.51-22.01-13.37-4.6-3.16-8.59-3.12-12.06.13-3.15 2.2-2.1 5.5 3.24 9.8 5.35 1.63 6.41 3.17 7.52 9.04-.99 4.87-.71 5.47-6.38 8.71-8.52-.17-8.69 4.28-15.52 2.77-.89.65-7-4.03-3.44-6.61 6.64-4.83 4.38-13.46.39-16.93-2.94-2.45-6.81-2.58-11.59-.32-1.27 4.71-3.36 10.54-3.78 19.09-.74 16.9-8.62 14.35-9.14 26.54-4.87 10.39-.13 14.29 9.85 12.8 31.59-7.2 63.15-18.57 94.76-31.14 29.01-13.17 54.48-25.96 83.47-39.16 8.05-6.38 11.12-13.59 2.13-20.92-6.06-10.02-16.14-16.2-26.34-24.17M527.29 882.05c13.17 3.78 14.23 9.46 13.51 15.49-16.43 8.91-32.84 17.78-49.29 26.74-14.93 6.44-21.74 4.13-16.58-10.97 5.17-6.86 10.89-13.57 20.35-19.4 8.61-5.27 16.83-10.82 32.01-11.86m-224.7-90.55c17.05 32.82 47.37 57.16 81.44 79.19 10.64 6.78 18.81 15.55 25.18 25.62 13.37 27.75 7.65 40.47-11.21 42.92-21.49-1.96-45.02-8.69-69.76-18.12-14.21-11.22-29.23-18.36-39.88-32.78-2.82-19.06-2.95-16.16-9.16-19.16-18.46-4.87-36.32-14.13-53.81-29.68-7.55-7.25-12.5-17.26-8.39-37.38 10.91-12.42 22.18-24.73 36.29-36.06 12.58-12.84 21.59-10.28 28.99-.7 6.77 8.72 13.53 17.46 20.31 26.15" fill="#3b6287" fill-rule="evenodd" clip-rule="evenodd"/><path d="M277.71 792.29c-9.16-12.55-23.31-10.91-22.35 1.06-1.48 10.37 11.14 25.27 25.79 40.82 26.85 25.81 49.8 44.76 91.59 67.26 7.48-1.19 13-1.39 4.36-10.99-9.88-7.8-22.58-16.74-32.47-24.58-17.28-9.97-23.84-23.49-35.44-32.28-12.2-17.75-25-25.99-31.48-41.29m73.91-19.78c3.27-1.17 7.37 1.56 9.14 6.21 1.76 4.66.59 9.46-2.65 10.72-3.29 1.26-7.38-1.56-9.13-6.17-1.76-4.68-.57-9.5 2.64-10.76" fill="#3b6287" fill-rule="evenodd" clip-rule="evenodd"/><path d="M673.08 849.06c0 7.99-6.44 14.41-14.41 14.41s-14.41-6.43-14.41-14.41c0-7.95 6.44-14.4 14.41-14.4s14.41 6.45 14.41 14.4m-126.8 42.73c0 7.99-6.44 14.41-14.41 14.41s-14.41-6.43-14.41-14.41c0-7.95 6.44-14.4 14.41-14.4s14.41 6.45 14.41 14.4m-141.64 34.33c0 7.97-6.46 14.4-14.41 14.4-7.97 0-14.41-6.43-14.41-14.4 0-7.97 6.44-14.4 14.41-14.4 7.95 0 14.41 6.43 14.41 14.4" fill="#004b1c"/><path d="M387.85 926.55c0 2-1.61 3.59-3.61 3.59a3.58 3.58 0 0 1-3.59-3.59c0-2 1.61-3.61 3.59-3.61 2 0 3.61 1.61 3.61 3.61m9.43-.4c0 2-1.61 3.59-3.61 3.59a3.58 3.58 0 0 1-3.59-3.59c0-2 1.61-3.61 3.59-3.61 2 .01 3.61 1.62 3.61 3.61m142.01-30.45c0 2-1.61 3.59-3.61 3.59a3.58 3.58 0 0 1-3.59-3.59c0-2 1.61-3.61 3.59-3.61 2 0 3.61 1.62 3.61 3.61" fill="#f5ee6d"/><path d="m886.53 82.86-1.21 11.31H856.7v-.88h1.07c.93 0 1.69-.17 2.26-.5.41-.22.73-.61.95-1.15.17-.38.26-1.38.26-2.99v-21.2c0-1.65-.09-2.68-.26-3.09-.18-.41-.53-.77-1.07-1.08-.52-.31-1.25-.47-2.15-.47h-1.07v-.88h17.19v.88h-1.4c-.93 0-1.69.17-2.25.5-.42.22-.74.61-.97 1.14-.18.39-.26 1.38-.26 3v20.54c0 1.65.09 2.7.28 3.15.2.45.57.79 1.12 1.01.39.15 1.35.21 2.88.21h2.69c1.71 0 3.14-.29 4.28-.9 1.15-.6 2.13-1.55 2.97-2.85.83-1.3 1.61-3.22 2.36-5.75h.95zm17.6-21.59v26.36c0 1.98.08 3.24.26 3.79.17.55.53.99 1.09 1.34.56.34 1.44.52 2.66.52h.74v.88H891.9v-.88h.85c1.38 0 2.37-.16 2.95-.48.59-.32.98-.75 1.19-1.31.21-.56.31-1.84.31-3.88V70.92c0-1.49-.07-2.42-.21-2.79-.14-.38-.41-.69-.79-.95-.39-.26-.84-.39-1.34-.39-.81 0-1.79.25-2.95.76l-.43-.86 11.86-5.42h.79z"/><path d="M882.88 131.08c-29.5 0-53.5-24-53.5-53.5s24-53.51 53.5-53.51 53.51 24 53.51 53.51-24.01 53.5-53.51 53.5zm0-102.25c-26.88 0-48.75 21.87-48.75 48.75s21.87 48.75 48.75 48.75c26.89 0 48.75-21.87 48.75-48.75.01-26.89-21.86-48.75-48.75-48.75zM124.62 822.19l-1.21 11.32H94.78v-.88h1.07c.93 0 1.69-.16 2.26-.49.41-.23.73-.61.95-1.15.17-.38.26-1.38.26-3v-21.2c0-1.65-.09-2.67-.26-3.1-.18-.41-.53-.77-1.07-1.08-.52-.29-1.25-.46-2.15-.46h-1.07v-.88h17.19v.88h-1.4c-.93 0-1.69.16-2.25.51-.42.21-.74.59-.97 1.13-.18.38-.26 1.38-.26 3v20.55c0 1.64.09 2.69.28 3.15.2.46.57.79 1.12 1.02.39.13 1.35.21 2.88.21h2.69c1.71 0 3.14-.31 4.28-.9 1.15-.61 2.13-1.56 2.97-2.87.83-1.29 1.61-3.21 2.36-5.75h.96zm21.9 11.32h-18.97v-.52c5.82-6.93 9.35-11.58 10.59-13.98 1.25-2.39 1.87-4.74 1.87-7.01 0-1.67-.52-3.05-1.55-4.15-1.03-1.11-2.29-1.65-3.78-1.65-2.44 0-4.33 1.21-5.69 3.65l-.88-.31c.85-3.03 2.15-5.29 3.9-6.75 1.74-1.46 3.75-2.18 6.04-2.18 1.63 0 3.12.38 4.46 1.13 1.35.77 2.4 1.82 3.16 3.13.76 1.33 1.15 2.57 1.15 3.72 0 2.11-.59 4.26-1.76 6.42-1.61 2.93-5.1 7.03-10.49 12.27h6.96c1.71 0 2.83-.08 3.34-.21.52-.15.94-.39 1.27-.72.34-.34.77-1.07 1.31-2.16h.85l-1.78 9.32z"/><path d="M120.93 870.57c-29.5 0-53.5-24-53.5-53.5 0-29.51 24-53.51 53.5-53.51s53.5 24 53.5 53.51c-.01 29.5-24 53.5-53.5 53.5zm0-102.25c-26.88 0-48.75 21.87-48.75 48.76 0 26.87 21.87 48.75 48.75 48.75s48.75-21.87 48.75-48.75c-.01-26.89-21.87-48.76-48.75-48.76z"/><path d="M730.51 712.36c0 2-1.61 3.59-3.61 3.59-1.98 0-3.61-1.59-3.61-3.59 0-2 1.63-3.61 3.61-3.61 1.99 0 3.61 1.61 3.61 3.61" fill="#f5ee6d"/><path d="m1032.57 767.66-2.06-.05.08-3.64 2.06.05-.08 3.64zm-5.76-.11-3.69-.08.08-3.64 3.69.08-.08 3.64zm-7.38-.17-3.69-.08.08-3.64 3.69.08-.08 3.64zm-7.37-.16-3.69-.07.07-3.64 3.69.07-.07 3.64zm-7.38-.15-3.69-.08.08-3.64 3.69.08-.08 3.64zm-7.39-.16-3.69-.08.08-3.64 3.69.08-.08 3.64zm-7.38-.15-3.69-.08.08-3.64 3.69.08-.08 3.64zm-7.38-.16-3.69-.08.08-3.64 3.69.08-.08 3.64zm-7.37-.17-3.69-.07.07-3.64 3.69.07-.07 3.64zm-7.39-.15-3.69-.08.08-3.64 3.69.08-.08 3.64zm-7.37-.16-3.69-.07.07-3.64 3.69.07-.07 3.64zm-7.39-.15-3.69-.08.08-3.64 3.69.08-.08 3.64zm-7.39-.16-3.69-.08.08-3.64 3.69.08-.08 3.64zm-7.38-.15-3.69-.08.08-3.64 3.69.08-.08 3.64zm-7.38-.16-3.69-.08.08-3.64 3.69.08-.08 3.64zm-7.37-.17-3.69-.07.07-3.64 3.69.07-.07 3.64zm-7.39-.14-3.69-.08.08-3.64 3.69.08-.08 3.64zm-7.37-.17-3.69-.08.08-3.64 3.69.08-.08 3.64zm-7.39-.15-3.69-.08.08-3.64 3.69.08-.08 3.64zm-7.38-.16-3.69-.08.08-3.64 3.69.08-.08 3.64zm-7.38-.15-3.69-.08.08-3.64 3.69.08-.08 3.64zm-7.38-.16-3.69-.08.08-3.64 3.69.08-.08 3.64zm-7.37-.16-3.69-.07.07-3.64 3.69.07-.07 3.64zm-7.39-.15-3.69-.08.08-3.64 3.69.08-.08 3.64zm-7.38-.17-3.69-.08.08-3.64 3.69.08-.08 3.64zm-7.39-.14-3.69-.08.08-3.64 3.69.08-.08 3.64zm-7.38-.17-3.69-.08.08-3.64 3.69.08-.08 3.64zm-7.37-.16-3.69-.07.07-3.64 3.69.07-.07 3.64zm-7.39-.15-3.69-.08.08-3.64 3.69.08-.08 3.64zm-7.37-.16-3.69-.07.07-3.64 3.69.07-.07 3.64zm-7.39-.15-3.69-.08.08-3.64 3.69.08-.08 3.64zm-7.38-.16-3.69-.08.08-3.64 3.69.08-.08 3.64zm-7.38-.15-3.69-.08.08-3.64 3.69.08-.08 3.64zm-7.38-.16-3.69-.08.08-3.64 3.69.08-.08 3.64zm-7.37-.17-3.69-.07.07-3.64 3.69.07-.07 3.64zm-7.39-.15-3.69-.08.08-3.64 3.69.08-.08 3.64zm-7.38-.16-3.69-.08.08-3.64 3.69.08-.08 3.64zm-7.39-.15-3.69-.08.08-3.64 3.69.08-.08 3.64zm-7.38-.16-3.69-.08.08-3.64 3.69.08-.08 3.64zm-7.38-.15-3.69-.08.08-3.64 3.69.08-.08 3.64zm-7.38-.16-3.69-.08.08-3.64 3.69.08-.08 3.64zm-7.37-.17-3.69-.07.07-3.64 3.69.07-.07 3.64zm-7.38-.14-3.69-.08.08-3.64 3.69.08-.08 3.64zm-7.39-.17-3.69-.08.08-3.64 3.69.08-.08 3.64zm-7.38-.14-3.69-.08.08-3.64 3.69.08-.08 3.64zm-7.38-.17-3.69-.08.08-3.64 3.69.08-.08 3.64zm-7.37-.16-3.69-.07.07-3.64 3.69.07-.07 3.64zm-7.39-.15-3.69-.08.08-3.64 3.69.08-.08 3.64zm-7.37-.16-3.69-.07.07-3.64 3.69.07-.07 3.64zm-7.39-.15-3.69-.08.08-3.64 3.69.08-.08 3.64zm-7.39-.17-3.69-.08.08-3.64 3.69.08-.08 3.64zm-7.38-.14-3.69-.08.08-3.64 3.69.08-.08 3.64zm-7.38-.17-3.69-.08.08-3.64 3.69.08-.08 3.64zm-7.37-.16-3.69-.07.07-3.64 3.69.07-.07 3.64zm-7.39-.15-3.69-.08.08-3.64 3.69.08-.08 3.64zm-7.38-.16-3.69-.08.08-3.64 3.69.08-.08 3.64zm-7.38-.15-3.69-.08.08-3.64 3.69.08-.08 3.64zm-7.38-.16-3.69-.08.08-3.64 3.69.08-.08 3.64zm-7.38-.15-3.69-.08.08-3.64 3.69.08-.08 3.64zm-7.38-.16-3.69-.08.08-3.64 3.69.08-.08 3.64zm-7.37-.17-3.69-.07.07-3.64 3.69.07-.07 3.64zm-7.39-.15-3.69-.08.08-3.64 3.69.08-.08 3.64zm-7.39-.16-3.69-.08.08-3.64 3.69.08-.08 3.64zm-7.38-.15-3.69-.08.08-3.64 3.69.08-.08 3.64zm-7.38-.16-3.69-.08.08-3.64 3.69.08-.08 3.64zm-7.37-.16-3.69-.07.07-3.64 3.69.07-.07 3.64zm-7.39-.15-3.69-.08.08-3.64 3.69.08-.08 3.64zm-7.37-.17-3.69-.07.07-3.64 3.69.07-.07 3.64zm-7.39-.14-3.69-.08.08-3.64 3.69.08-.08 3.64zm-7.38-.17-3.69-.08.08-3.64 3.69.08-.08 3.64zm-7.38-.14-3.69-.08.08-3.64 3.69.08-.08 3.64zm-7.38-.17-3.69-.08.08-3.64 3.69.08-.08 3.64zm-7.37-.16-3.69-.07.07-3.64 3.69.07-.07 3.64zm-7.39-.15-3.69-.08.08-3.64 3.69.08-.08 3.64zm-7.38-.16-3.69-.08.08-3.64 3.69.08-.08 3.64zm-7.39-.15-3.69-.08.08-3.64 3.69.08-.08 3.64zm-7.38-.17-3.69-.08.08-3.64 3.69.08-.08 3.64zm-7.38-.14-3.69-.08.08-3.64 3.69.08-.08 3.64zm-7.38-.17-3.69-.08.08-3.64 3.69.08-.08 3.64zm-7.37-.16-3.69-.07.07-3.64 3.69.07-.07 3.64zm-7.39-.15-3.69-.08.08-3.64 3.69.08-.08 3.64zm-7.38-.16-3.69-.08.08-3.64 3.69.08-.08 3.64zm-7.38-.15-3.69-.08.08-3.64 3.69.08-.08 3.64zm-7.38-.16-3.69-.08.08-3.64 3.69.08-.08 3.64zm-7.37-.17-3.69-.07.07-3.64 3.69.07-.07 3.64zm-7.39-.14-3.69-.08.08-3.64 3.69.08-.08 3.64zm-7.38-.17-3.69-.07.07-3.64 3.69.07-.07 3.64zm-7.39-.15-3.69-.08.08-3.64 3.69.08-.08 3.64zm-7.38-.16-3.68-.08.08-3.64 3.69.08-.09 3.64zm-7.38-.15-3.69-.08.08-3.64 3.69.08-.08 3.64zm-7.37-.16-3.69-.08.08-3.64 3.69.08-.08 3.64zm-7.37-.16-3.69-.07.07-3.64 3.69.07-.07 3.64zm-7.39-.15-3.69-.08.08-3.64 3.69.08-.08 3.64zm-7.39-.17-3.69-.08.08-3.64 3.69.08-.08 3.64zm-7.38-.14-3.69-.08.08-3.64 3.69.08-.08 3.64zm-7.38-.17-3.69-.08.08-3.64 3.69.08-.08 3.64zm-7.38-.14-3.69-.08.08-3.64 3.69.08-.08 3.64zm-7.38-.17-3.69-.08.08-3.64 3.69.08-.08 3.64zm-7.37-.16-3.69-.07.07-3.64 3.69.07-.07 3.64zm-7.39-.15-3.69-.08.08-3.64 3.69.08-.08 3.64zm-7.39-.16-3.69-.08.08-3.64 3.69.08-.08 3.64zm-7.38-.15-3.69-.08.08-3.64 3.69.08-.08 3.64zm-7.37-.17-3.69-.08.08-3.64 3.69.08-.08 3.64zm-7.37-.16-3.69-.07.07-3.64 3.69.07-.07 3.64zm-7.39-.15-3.69-.08.08-3.64 3.69.08-.08 3.64zm-7.38-.16-3.69-.07.07-3.64 3.69.07-.07 3.64zm-7.39-.15-3.69-.08.08-3.64 3.69.08-.08 3.64zm-7.38-.16-3.69-.08.08-3.64 3.69.08-.08 3.64zm-7.38-.15-3.69-.08.08-3.64 3.69.08-.08 3.64zm-7.38-.16-3.69-.08.08-3.64 3.69.08-.08 3.64zm-7.37-.17-3.69-.07.07-3.64 3.69.07-.07 3.64zm-7.39-.14-3.69-.08.08-3.64 3.69.08-.08 3.64zm-7.39-.17-3.69-.08.08-3.64 3.69.08-.08 3.64zm-7.38-.15-3.69-.08.08-3.64 3.69.08-.08 3.64zm-7.37-.16-3.69-.08.08-3.64 3.69.08-.08 3.64zm-7.38-.15-3.69-.08.08-3.64 3.69.08-.08 3.64zm-7.38-.16-3.69-.08.08-3.64 3.69.08-.08 3.64zm-7.38-.16-3.69-.07.07-3.64 3.69.07-.07 3.64zm-7.39-.15-3.69-.08.08-3.64 3.69.08-.08 3.64zm-7.38-.17-3.69-.08.08-3.64 3.69.08-.08 3.64zm-7.38-.14-3.69-.08.08-3.64 3.69.08-.08 3.64zm-7.38-.17-3.69-.08.08-3.64 3.69.08-.08 3.64zm-7.37-.16-3.69-.07.07-3.64 3.69.07-.07 3.64zm-7.39-.15-3.69-.08.08-3.64 3.69.08-.08 3.64zm-7.38-.16-3.69-.07.07-3.64 3.69.07-.07 3.64zm-7.39-.15-3.69-.08.08-3.64 3.69.08-.08 3.64zm-7.37-.16-3.69-.08.08-3.64 3.69.08-.08 3.64zm-7.38-.15-3.69-.08.08-3.64 3.69.08-.08 3.64zm-7.38-.16-3.69-.08.08-3.64 3.69.08-.08 3.64zm-7.38-.17-3.69-.07.07-3.64 3.69.07-.07 3.64zm-7.38-.15-3.7-.08.08-3.64 3.69.08-.07 3.64zm-7.39-.16-3.69-.08.08-3.64 3.69.08-.08 3.64zm-7.38-.15-3.69-.08.08-3.64 3.69.08-.08 3.64zm-7.38-.16-3.69-.08.08-3.64 3.69.08-.08 3.64zm-7.38-.15-3.69-.08.08-3.64 3.69.08-.08 3.64zm-7.38-.16-3.69-.08.08-3.64 3.69.08-.08 3.64zm-7.38-.17-3.69-.07.07-3.64 3.69.07-.07 3.64zm-7.39-.14-3.69-.08.08-3.64 3.69.08-.08 3.64zm806.36-584.9c-.71.05-1.2.07-1.46.07-.65 0-.98-.36-.98-1.08 0-.6.4-1.01 1.19-1.22l1.44-.37c1.67-.75 2.72-1.47 3.13-2.14.24-.38.61-.57 1.11-.57.16.03.36.13.61.3.45.31.65.7.61 1.17-.2.32-.39.54-.56.67-.43.32-.7.53-.83.62 2.03-.23 3.25-.37 3.67-.43.43.06.64.33.64.82 0 .4-.07.66-.21.8l-.83.53c-3.19 2.01-5.97 3.71-8.35 5.11-2.78 1.64-4.63 2.73-5.54 3.27-.55.32-1.25.7-2.09 1.14-.15.08-.3.12-.46.12-.44 0-.82-.31-1.14-.92-.28-.52-.42-1.03-.42-1.51 0-.49.21-.73.64-.73.16 0 .39.02.69.05.3.03.53.05.69.05.49 0 .93-.09 1.32-.27.06-.02.1-.03.12-.05h.01v.02c.01-.01.02-.02.04-.03l1.17-.62c2.61-1.4 5.49-3.12 8.63-5.18-1.4.18-2.35.3-2.84.38zm1.61 10.41c.3 0 .55.14.77.42.22.28.33.58.33.88 0 .16-.15.41-.46.76-.33.27-1.12.75-2.38 1.44l-4.16 2.27c-.81.45-1.37.7-1.66.77-.17.08-.34.12-.5.12-.29 0-.48-.1-.56-.3-.24-.54-.36-.87-.36-.96 0-.57.34-.94 1.01-1.1 2.49-1.22 4.98-2.6 7.45-4.14.17-.11.35-.16.52-.16zm19.93-10.56c.45-.9.67-1.51.67-1.84 0-.09-.02-.13-.07-.13-.02 0-.04.01-.07.03-.62.44-1.34.94-2.14 1.52-1.6 1.16-2.69 1.9-3.25 2.21l-2.69 1.53c-.64.37-1.25.64-1.81.83-.09.03-.18.04-.28.04-.32 0-.64-.17-.98-.52-.53-.56-.8-1.18-.8-1.87 0-.26.06-.48.19-.67.2-.23.55-.34 1.05-.34.15 0 .36.01.65.02.28.02.5.02.65.02.31 0 .57-.03.8-.09.1-.05.17-.08.21-.09l.65-.36c1.08-.59 1.81-1.01 2.18-1.26l4.08-2.75c1.08-.72 1.74-1.12 1.97-1.19.35-.1.74-.02 1.17.24.64.38.97.99.97 1.86 0 .77-.22 1.72-.67 2.85-.65 1.65-1.33 2.86-2.02 3.61-.13.14-.31.21-.55.21-.31 0-.62-.12-.95-.36-.37-.26-.55-.53-.55-.82 0-.3.09-.53.28-.7.4-.35.83-1.01 1.31-1.98zm2.03-16.17c.3 0 .55.14.77.42.22.28.33.58.33.88 0 .31-.15.55-.45.74-1.18.74-2.5 1.52-3.96 2.32l-2.58 1.41c-.82.45-1.38.7-1.66.77-.17.08-.34.12-.5.12-.29 0-.48-.1-.56-.3-.24-.54-.36-.87-.36-.96 0-.57.34-.94 1.01-1.1 2.49-1.22 4.98-2.6 7.45-4.14a.95.95 0 0 1 .51-.16zm8.59 17.46c0-.58.39-1 1.16-1.25.68-.22 1.39-.5 2.12-.83-.45-.21-.8-.39-1.07-.55-.58-.36-.91-.64-.97-.85-.09-.3-.08-.57.01-.82.11-.29.32-.45.62-.48 1.19-.11 2.22-.48 3.09-1.11.44-.32.83-.48 1.19-.48.08 0 .14.01.19.04.3.19.5.43.59.73.03.09.04.34.04.74-.01 0-.04.05-.1.15-.12.2-.29.36-.5.48-.21.18-.36.3-.46.36-.36.22-.56.34-.61.37-.27.15-.4.26-.4.33.01.03.09.06.25.1.85.24 1.28.61 1.28 1.11 0 .09-.06.25-.18.48-.23.25-.41.42-.55.52-.64.48-1.13.8-1.47.98-.32.24-.48.32-.48.25.01.05.16.22.45.5.16.24.26.39.3.46.01.07.01.13.01.19 0 .42-.41.87-1.22 1.37-6.37 3.86-10 5.83-10.91 5.91-.39.03-.77-.25-1.16-.85-.35-.51-.54-.99-.58-1.43-.07-.68.22-1.02.88-1.02.19 0 .4.01.62.05.08.01.42.01 1.02.01.32 0 .64-.05.97-.15 1.25-.54 2.24-1.02 2.97-1.43 1.77-.99 3.17-1.82 4.2-2.49-.86-.53-1.3-1-1.3-1.39zm3.37 8.45c.3 0 .55.14.77.42.22.28.33.58.33.88 0 .16-.15.41-.46.76-.33.27-1.12.75-2.38 1.44l-4.16 2.27c-.81.45-1.37.7-1.66.77-.17.08-.34.12-.5.12-.29 0-.48-.1-.56-.3-.24-.54-.36-.87-.36-.96 0-.57.34-.94 1.01-1.1 2.49-1.22 4.98-2.6 7.45-4.14.18-.1.35-.16.52-.16zm1.72 2.69c.3 0 .55.14.77.42.22.28.33.58.33.88 0 .16-.15.41-.46.76-.33.27-1.12.75-2.38 1.44l-4.16 2.27c-.81.45-1.37.7-1.66.77-.17.08-.34.12-.5.12-.29 0-.48-.1-.56-.3-.24-.54-.36-.87-.36-.97 0-.57.34-.94 1.01-1.1 2.49-1.22 4.98-2.6 7.45-4.14.18-.1.36-.15.52-.15z"/><path d="M628.95 668.25c1.54-.15 2.31-.64 2.31-1.47 0-.62-.35-1.05-1.06-1.28-.85-.28-1.92-.57-3.2-.86-1.1-.44-1.65-.95-1.65-1.52 0-1.59.78-2.31 2.33-2.16.34.03.67.05.98.05 1.07 0 2.74-.52 5.01-1.55.25-.11.57-.17.98-.17.49 0 .91.2 1.27.6.35.4.53.85.53 1.34 0 .56-.31 1.02-.93 1.38-.54.25-1.08.5-1.62.76 1 .88 1.52 2.05 1.57 3.49.03 1.02-.39 1.93-1.25 2.73-1.88 1.74-4.6 2.61-8.16 2.61-.36 0-1.17-.02-2.43-.07-5.23 4.33-8.86 7.1-10.91 8.33-3.31 1.98-5.46 2.92-6.44 2.83-.56-.11-1.11-.7-1.65-1.75-.49-.97-.74-1.78-.74-2.43 0-.54.16-.94.47-1.2.31-.16.66-.25 1.03-.25.28 0 .7.05 1.28.14.57.09 1 .14 1.28.14.92 0 1.81-.28 2.68-.84 3.93-2.54 6.74-4.46 8.43-5.78-.2-.39-.29-.72-.29-.98 0-.8.2-1.45.59-1.94 1.02-1.28 2.22-1.89 3.61-1.84 1.74.07 2.76.7 3.07 1.89 1.26-.08 2.22-.14 2.91-.2zm-4.79-25.71c-1.67-.13-2.61-.26-2.8-.39-.75-.48-1.13-1.07-1.13-1.77 0-.97.52-1.67 1.55-2.11 1.25-.23 2.26-.3 3.05-.22.97.1 2.09.37 3.37.81.9.31 1.71.87 2.43 1.67.56.62.84 1.36.84 2.21 0 1.21-.62 2.5-1.87 3.86-.98 1.08-2.13 1.99-3.44 2.73-2.06 1.18-3.83 1.84-5.28 1.97-.69.07-1.27-.1-1.74-.49-.48-.39-.71-.93-.71-1.62 0-1.07.52-1.67 1.57-1.82.92-.13 1.78-.39 2.58-.79.57-.28 1.34-.73 2.31-1.35 1.33-.85 1.99-1.49 1.99-1.92-.02-.37-.92-.62-2.72-.77zm12.31.07c-1.67-.13-2.61-.26-2.8-.39-.75-.48-1.13-1.07-1.13-1.77 0-.97.52-1.67 1.55-2.11 1.25-.23 2.26-.3 3.05-.22.97.1 2.09.37 3.37.81.9.31 1.71.87 2.43 1.67.56.62.84 1.36.84 2.21 0 1.21-.62 2.5-1.87 3.86-.98 1.08-2.13 1.99-3.44 2.73-2.06 1.18-3.83 1.84-5.28 1.97-.69.07-1.27-.1-1.74-.49-.48-.39-.71-.93-.71-1.62 0-1.07.52-1.67 1.57-1.82.92-.13 1.78-.39 2.58-.79.57-.28 1.34-.73 2.31-1.35 1.33-.85 1.99-1.49 1.99-1.92-.01-.36-.91-.62-2.72-.77zm23.21 24.75c.74-1.49 1.11-2.51 1.11-3.05 0-.15-.04-.22-.12-.22-.03 0-.07.02-.12.05-1.03.72-2.21 1.56-3.54 2.51-2.65 1.92-4.45 3.14-5.38 3.66l-4.45 2.53c-1.07.61-2.06 1.07-3 1.38-.15.05-.3.07-.47.07-.52 0-1.07-.29-1.62-.86-.88-.92-1.33-1.95-1.33-3.1 0-.43.11-.79.32-1.11.33-.38.91-.57 1.74-.57.25 0 .6.01 1.07.04.47.02.82.04 1.07.04.51 0 .95-.05 1.33-.15.16-.08.28-.13.34-.15l1.08-.59c1.79-.98 2.99-1.68 3.61-2.09l6.76-4.55c1.79-1.2 2.88-1.85 3.27-1.97.57-.16 1.22-.03 1.94.39 1.07.62 1.6 1.65 1.6 3.07 0 1.28-.37 2.85-1.11 4.72-1.08 2.74-2.2 4.73-3.34 5.97-.21.23-.52.34-.91.34-.51 0-1.03-.2-1.57-.59-.61-.43-.91-.88-.91-1.35 0-.49.16-.88.47-1.16.66-.55 1.38-1.65 2.16-3.26zm4.43-28.68c1.9.03 3.31.95 4.23 2.75.16.56.25 1.2.25 1.92 0 1.56-.39 2.88-1.18 3.96-1.95 2.67-5.12 4.19-9.51 4.55-2.1-.08-3.56-.75-4.37-1.99-.46-.97-.69-1.88-.69-2.75 0-1.46.68-2.92 2.04-4.37 2.56-2.78 5.64-4.13 9.23-4.07zm-6.83 8.21c.23.34.7.61 1.4.79h.79c.31 0 .64-.01.98-.02 1.92-.79 3.23-1.7 3.93-2.75.08-.21.12-.43.12-.64 0-1.02-.82-1.48-2.46-1.4-.98.25-1.67.5-2.06.76-.9.43-1.59.91-2.08 1.45-.48.54-.73 1.01-.73 1.4.01.14.04.28.11.41zm23.22 20.72c-1.18.08-1.98.12-2.41.12-1.08 0-1.62-.6-1.62-1.79 0-1 .66-1.67 1.97-2.02l2.38-.61c2.77-1.25 4.5-2.42 5.19-3.54.39-.62 1.01-.93 1.84-.93.26.05.6.21 1.01.49.74.51 1.07 1.16 1.01 1.94-.33.52-.64.89-.93 1.11-.7.52-1.16.87-1.38 1.03 3.36-.38 5.38-.61 6.07-.71.7.1 1.06.55 1.06 1.35 0 .66-.11 1.1-.34 1.33l-1.38.88c-5.28 3.33-9.88 6.14-13.81 8.45-4.6 2.72-7.66 4.52-9.17 5.41-.92.52-2.07 1.16-3.47 1.89-.25.13-.5.2-.76.2-.72 0-1.35-.51-1.89-1.52-.46-.87-.69-1.7-.69-2.51s.35-1.2 1.06-1.2c.26 0 .64.03 1.14.09.5.06.88.09 1.14.09.8 0 1.53-.15 2.19-.44.1-.03.16-.06.2-.07h.02v.02c.02-.02.04-.03.07-.05l1.94-1.03c4.33-2.31 9.09-5.17 14.28-8.58-2.35.26-3.92.47-4.72.6zm7.1-23.32c-1.23 1.13-1.84 2.02-1.84 2.68 0 .08.03.15.1.2-.08.15.21.24.86.27 1.39.08 2.37-.01 2.92-.27.34-.07.66-.1.93-.1 1.69 0 2.53.66 2.53 1.99 0 1.21-.54 1.88-1.62 2.02-.7.18-1.74.27-3.12.27-4.69 0-7.03-1.41-7.03-4.23 0-.39.05-.7.15-.91.54-1.8 1.7-3.46 3.47-4.96.87-.75 1.45-1.27 1.75-1.55.48-.44 1.16-.84 2.04-1.18.28-.11.49-.15.64-.1 1.39.44 2.09 1.26 2.09 2.46 0 .59-.45 1.12-1.35 1.6-1.29.84-2.13 1.44-2.52 1.81zm23.84 40.55c.49 0 .92.23 1.28.7s.54.95.54 1.46c0 .26-.25.68-.76 1.25-.54.44-1.85 1.24-3.93 2.38l-6.88 3.76c-1.34.74-2.26 1.16-2.75 1.28-.28.13-.56.2-.84.2-.48 0-.79-.16-.93-.49-.39-.9-.59-1.43-.59-1.6 0-.95.56-1.56 1.67-1.82 4.13-2.02 8.24-4.3 12.34-6.86.29-.17.57-.26.85-.26zm5.58-26.03c1.2 0 2.29.33 3.27.98 1.11.72 1.67 1.65 1.67 2.8 0 .64-.11 1.24-.34 1.79-.57 1.41-2.32 2.83-5.23 4.25-3.18 1.56-6.38 2.33-9.61 2.33-.62 0-1.23-.03-1.82-.1-3.11-.69-4.64-2.11-4.57-4.25.05-1.82.98-3.55 2.8-5.19 1.23-1.11 2.72-1.67 4.47-1.67.34 0 .66.03.96.1.59.13 1.53.51 2.83 1.13 1.84-1.44 3.7-2.17 5.57-2.17zm-9.05 4.38c-.26-.05-.62.02-1.08.2-1.56.59-2.4 1.33-2.53 2.21-.1.67.29 1.01 1.16 1.01.62 0 1.27-.31 1.94-.93.38-.34.6-.57.66-.69.29-.29.44-.7.44-1.2l-.17-.52-.42-.08zm4.75 1.05c-.36.31-.54.74-.54 1.28 0 .08.02.13.07.15.16.05.34.07.52.07.52 0 1.44-.31 2.75-.93 1.41-.67 2.11-1.38 2.11-2.11 0-.23-.08-.35-.25-.37.25.02-.01.02-.76.02-.51 0-1.38.37-2.61 1.11l-1.29.78z" fill="#bd0e72"/><path d="M758.4 868.07c.93-.09 1.4-.39 1.4-.89 0-.38-.21-.63-.64-.77-.51-.17-1.16-.34-1.93-.52-.66-.27-.99-.57-.99-.92 0-.96.47-1.39 1.41-1.31.21.02.41.03.59.03.64 0 1.65-.31 3.03-.94.15-.07.35-.1.59-.1.3 0 .55.12.76.36.21.24.32.51.32.81 0 .34-.19.61-.56.83-.33.15-.65.3-.98.46.6.53.92 1.24.95 2.11.02.61-.23 1.16-.76 1.65-1.14 1.05-2.78 1.57-4.93 1.57-.22 0-.71-.02-1.47-.04-3.16 2.61-5.36 4.29-6.59 5.03-2 1.2-3.3 1.77-3.89 1.71-.34-.07-.67-.42-.99-1.05-.3-.58-.45-1.07-.45-1.47 0-.33.09-.57.28-.73.19-.1.4-.15.62-.15.17 0 .43.03.77.08.35.05.6.08.77.08.55 0 1.09-.17 1.62-.51 2.38-1.53 4.07-2.7 5.09-3.49-.12-.24-.18-.44-.18-.59 0-.49.12-.88.36-1.17.61-.77 1.34-1.14 2.18-1.11 1.05.04 1.67.42 1.86 1.14.76-.02 1.35-.06 1.76-.1zm-2.89-15.53c-1.01-.08-1.57-.16-1.69-.24-.46-.29-.68-.64-.68-1.07 0-.58.31-1.01.94-1.28.75-.14 1.37-.18 1.84-.13.58.06 1.26.22 2.03.49.54.19 1.03.53 1.47 1.01.34.38.5.82.5 1.34 0 .73-.38 1.51-1.13 2.33-.59.65-1.29 1.2-2.08 1.65-1.25.71-2.31 1.11-3.19 1.19-.42.04-.77-.06-1.05-.3-.29-.24-.43-.56-.43-.98 0-.64.32-1.01.95-1.1.55-.08 1.07-.24 1.56-.48.35-.17.81-.44 1.4-.82.8-.51 1.2-.9 1.2-1.16-.01-.21-.55-.36-1.64-.45zm7.44.05c-1.01-.08-1.57-.16-1.69-.24-.46-.29-.68-.64-.68-1.07 0-.58.31-1.01.94-1.28.75-.14 1.37-.18 1.84-.13.58.06 1.26.22 2.03.49.54.19 1.03.53 1.47 1.01.34.38.5.82.5 1.34 0 .73-.38 1.51-1.13 2.33-.59.65-1.29 1.2-2.08 1.65-1.25.71-2.31 1.11-3.19 1.19-.42.04-.77-.06-1.05-.3-.29-.24-.43-.57-.43-.98 0-.64.32-1.01.95-1.1.55-.08 1.07-.24 1.56-.48.35-.17.81-.44 1.4-.82.8-.52 1.2-.9 1.2-1.16-.01-.21-.55-.37-1.64-.45zm15.01 10.03c.18-.04.31-.06.4-.05.06-.02.12-.03.19-.03.27 0 .49.14.67.43.16.25.24.51.24.79 0 .36-.15.61-.46.77l-1.07.42c-.37.14-.92.34-1.65.61-.39.14-.58.25-.58.33 0 .02.01.04.01.06-.02.03-.03.06-.04.09 0 .08.24.33.71.74.37.32.58.75.65 1.31.04.3.03.54-.03.74-.2.66-.64 1.24-1.32 1.72-.6.44-1.28.72-2.02.86-1.33.26-2.44.4-3.34.43-1.48.06-2.33.01-2.52-.13-.45-.19-.67-.75-.67-1.69 0-.48.14-.75.43-.79.11-.02.45.07 1.01.26s.97.29 1.2.29c.5 0 .95-.02 1.32-.07.97-.13 1.56-.24 1.78-.33.95-.22 1.43-.59 1.43-1.11-.12-.2-.52-.5-1.19-.91-.54-.33-.82-.75-.82-1.26 0-.92 1.27-1.85 3.8-2.78.9-.33 1.52-.56 1.87-.7zm-5.07-10.08c-1.01-.08-1.57-.16-1.69-.24-.46-.29-.68-.64-.68-1.07 0-.58.31-1.01.94-1.28.75-.14 1.37-.18 1.84-.13.58.06 1.26.22 2.03.49.54.19 1.03.53 1.47 1.01.34.38.5.82.5 1.34 0 .73-.38 1.51-1.13 2.33-.59.65-1.29 1.2-2.08 1.65-1.25.71-2.31 1.11-3.19 1.19-.42.04-.77-.06-1.05-.3-.29-.24-.43-.56-.43-.98 0-.64.32-1.01.95-1.1.55-.08 1.07-.24 1.56-.48.35-.17.81-.44 1.4-.82.8-.51 1.2-.9 1.2-1.16 0-.21-.55-.36-1.64-.45zm7.44.05c-1.01-.08-1.57-.16-1.69-.24-.46-.29-.68-.64-.68-1.07 0-.58.31-1.01.94-1.28.75-.14 1.37-.18 1.84-.13.58.06 1.26.22 2.03.49.54.19 1.03.53 1.47 1.01.34.38.5.82.5 1.34 0 .73-.38 1.51-1.13 2.33-.59.65-1.29 1.2-2.08 1.65-1.25.71-2.31 1.11-3.19 1.19-.42.04-.77-.06-1.05-.3-.29-.24-.43-.57-.43-.98 0-.64.32-1.01.95-1.1.55-.08 1.07-.24 1.56-.48.35-.17.81-.44 1.4-.82.8-.52 1.2-.9 1.2-1.16 0-.21-.55-.37-1.64-.45zm15.27 12.51c0-.26-.39-.39-1.17-.39l-2.14.24c-.11.01-.34.05-.7.13-.29.06-.52.09-.7.09-.25 0-.45-.07-.59-.22-.23-.32-.34-.65-.34-1 0-.23.05-.46.15-.71.1-.53 1.09-.87 2.97-.99.48-.03 1.37.04 2.69.21 1.44.19 2.31.56 2.58 1.11.25.5.33.98.24 1.43-.07.35-.15.6-.25.77-.33.44-.66.8-1.01 1.1-.66.57-1.29 1.05-1.87 1.43-1.33.86-3.17 1.83-5.52 2.9-1.22.55-2.43 1.07-3.62 1.54-.54.22-1.02.18-1.44-.1-.64-.69-.97-1.36-.97-2 0-.57.32-.86.95-.86.16 0 .4.02.71.07.32.05.55.07.71.07.27 0 .5-.03.7-.1 1.03-.37 1.55-.56 1.57-.57 1.03-.41 2.18-.95 3.46-1.65 1.91-1.03 3.1-1.79 3.56-2.29.02-.06.03-.13.03-.21zm.48-13.73c.3 0 .55.14.77.42.22.28.33.58.33.88 0 .31-.15.56-.45.74-1.18.74-2.5 1.51-3.96 2.32l-2.58 1.41c-.82.45-1.38.7-1.66.77-.17.08-.34.12-.5.12-.29 0-.48-.1-.56-.3-.24-.54-.36-.87-.36-.97 0-.57.34-.94 1.01-1.1 2.49-1.22 4.98-2.6 7.45-4.14.17-.1.34-.15.51-.15zm-262.8 84.05c.93-.09 1.4-.39 1.4-.89 0-.38-.21-.63-.64-.77-.51-.17-1.16-.34-1.93-.52-.66-.27-.99-.57-.99-.92 0-.96.47-1.4 1.41-1.31.21.02.41.03.59.03.64 0 1.65-.31 3.03-.93.15-.07.35-.1.59-.1.3 0 .55.12.76.36.21.24.32.51.32.81 0 .34-.19.61-.56.83-.33.15-.65.3-.98.46.6.53.92 1.24.95 2.11.02.61-.23 1.16-.76 1.65-1.14 1.05-2.78 1.57-4.93 1.57-.22 0-.71-.01-1.47-.05-3.16 2.61-5.36 4.29-6.59 5.03-2 1.2-3.3 1.77-3.89 1.71-.34-.07-.67-.42-.99-1.05-.3-.58-.45-1.07-.45-1.47 0-.33.09-.57.28-.73.19-.1.4-.15.62-.15.17 0 .43.03.77.08s.6.08.77.08c.55 0 1.09-.17 1.62-.5 2.38-1.54 4.07-2.7 5.09-3.49-.12-.24-.18-.44-.18-.59 0-.49.12-.88.36-1.17.61-.77 1.34-1.14 2.18-1.11 1.05.04 1.67.42 1.86 1.14.76-.04 1.34-.07 1.76-.11zm-2.9-15.54c-1.01-.08-1.57-.16-1.69-.24-.46-.29-.68-.64-.68-1.07 0-.58.31-1.01.94-1.28.75-.14 1.37-.18 1.84-.13.58.06 1.26.22 2.03.49.54.19 1.03.52 1.47 1.01.34.38.5.82.5 1.34 0 .73-.38 1.51-1.13 2.33-.59.65-1.29 1.2-2.08 1.65-1.25.71-2.31 1.11-3.19 1.19-.42.04-.77-.06-1.05-.3-.29-.24-.43-.56-.43-.98 0-.64.32-1.01.95-1.1.55-.08 1.07-.24 1.56-.48.35-.17.81-.44 1.4-.82.8-.52 1.2-.9 1.2-1.16-.01-.2-.55-.36-1.64-.45zm7.44.05c-1.01-.08-1.57-.16-1.69-.24-.46-.29-.68-.64-.68-1.07 0-.58.31-1.01.94-1.28.75-.14 1.37-.18 1.84-.13.58.06 1.26.22 2.03.49.54.19 1.03.52 1.47 1.01.34.38.5.82.5 1.34 0 .73-.38 1.51-1.13 2.33-.59.65-1.29 1.2-2.08 1.65-1.25.71-2.31 1.11-3.19 1.19-.42.04-.77-.06-1.05-.3-.29-.24-.43-.56-.43-.98 0-.64.32-1.01.95-1.1.55-.08 1.07-.24 1.56-.48.35-.17.81-.44 1.4-.82.8-.52 1.2-.9 1.2-1.16-.01-.21-.55-.36-1.64-.45zm14.59 9.78c.72 0 1.38.2 1.97.59.67.44 1.01 1 1.01 1.69 0 .39-.07.75-.21 1.08-.35.85-1.4 1.71-3.16 2.57-1.92.94-3.86 1.41-5.81 1.41-.38 0-.74-.02-1.1-.06-1.88-.42-2.8-1.27-2.76-2.57.03-1.1.59-2.14 1.69-3.13.74-.67 1.64-1.01 2.7-1.01.21 0 .4.02.58.06.36.08.93.31 1.71.68 1.13-.87 2.26-1.31 3.38-1.31zm-4.64-9.83c-1.01-.08-1.57-.16-1.69-.24-.46-.29-.68-.64-.68-1.07 0-.58.31-1.01.94-1.28.75-.14 1.37-.18 1.84-.13.58.06 1.26.22 2.03.49.54.19 1.03.52 1.47 1.01.34.38.5.82.5 1.34 0 .73-.38 1.51-1.13 2.33-.59.65-1.29 1.2-2.08 1.65-1.25.71-2.31 1.11-3.19 1.19-.42.04-.77-.06-1.05-.3-.29-.24-.43-.56-.43-.98 0-.64.32-1.01.95-1.1.55-.08 1.07-.24 1.56-.48.35-.17.81-.44 1.4-.82.8-.52 1.2-.9 1.2-1.16-.01-.2-.56-.36-1.64-.45zm-.82 12.48c-.16-.03-.38.01-.65.12-.94.36-1.45.8-1.53 1.34-.06.41.17.61.7.61.38 0 .77-.19 1.17-.56.23-.21.36-.35.4-.42.18-.18.27-.42.27-.73l-.1-.31-.26-.05zm2.87.64c-.22.19-.33.45-.33.77 0 .05.01.08.04.09.1.03.2.04.31.04.32 0 .87-.19 1.66-.56.85-.41 1.28-.83 1.28-1.28 0-.14-.05-.21-.15-.22.15.01 0 .01-.46.01-.31 0-.83.22-1.57.67l-.78.48zm5.39-13.07c-1.01-.08-1.57-.16-1.69-.24-.46-.29-.68-.64-.68-1.07 0-.58.31-1.01.94-1.28.75-.14 1.37-.18 1.84-.13.58.06 1.26.22 2.03.49.54.19 1.03.52 1.47 1.01.34.38.5.82.5 1.34 0 .73-.38 1.51-1.13 2.33-.59.65-1.29 1.2-2.08 1.65-1.25.71-2.31 1.11-3.19 1.19-.42.04-.77-.06-1.05-.3-.29-.24-.43-.56-.43-.98 0-.64.32-1.01.95-1.1.55-.08 1.07-.24 1.56-.48.35-.17.81-.44 1.4-.82.8-.52 1.2-.9 1.2-1.16-.01-.21-.56-.36-1.64-.45zm8.37 16.7c-.86.7-1.95 1.45-3.27 2.24-1.49.9-2.47 1.39-2.94 1.47-.06.01-.13.01-.22.01-.52 0-.98-.3-1.37-.89-.34-.52-.5-1.04-.5-1.54 0-.46.23-.72.7-.76.03 0 .09-.01.19-.02s.21-.01.33 0c-.04 0 .22.02.79.06.53.04.85.04.95 0 .66-.25 1.52-.69 2.57-1.34 1.52-.94 2.72-1.87 3.59-2.79-.31-.22-.48-.53-.5-.94-.04-.49.26-.97.89-1.43.57-.43 1.12-.64 1.65-.64.83 0 1.28.41 1.34 1.22.19.07.67-.15 1.44-.67.23-.2.64-.5 1.25-.92.19-.03.35-.05.48-.05.18 0 .31.03.4.07.32.18.53.43.64.76.04.3-.04.62-.24.96-.2.34-.29.54-.28.6.01.13.09.2.24.21.58.04 1.47-.56 2.66-1.81.5-.39.85-.57 1.07-.56.31.01.64.3 1.01.88.18.29.14.64-.12 1.07-.73 1.21-1.78 2.09-3.15 2.66-.66.28-1.27.43-1.81.45-1.07.05-1.69-.38-1.86-1.29-.43.01-1.2.01-2.32-.01-.32.3-1.52 1.3-3.61 3zm19.49-2.64c-.1-.23-.15-.48-.15-.76 0-.66.28-1.09.85-1.29.11-.08.27-.12.49-.12.38 0 1.1.19 2.18.58l2.95-1.54c1.53-.8 2.35-1.23 2.45-1.28.13-.1.28-.15.45-.15.58 0 .93.33 1.04 1 .02.12.03.22.03.31 0 .24-.25.51-.74.82-1.92.88-3.17 1.5-3.74 1.84.88.21 1.55.51 2.02.91.16.24.25.48.27.73.04.48-.07.85-.33 1.11-.37.39-.87.5-1.5.33-.65-.17-1.09-.28-1.31-.34-.54-.15-1.15-.34-1.83-.56-2.13 1.46-3.78 2.53-4.94 3.22-2.16 1.28-3.7 1.96-4.62 2.06-.3.03-.61-.12-.95-.46-.47-.47-.7-1.11-.7-1.93 0-.52.34-.79 1.02-.79.15 0 .38.01.68.05.31.03.53.04.68.04.32 0 .59-.04.83-.12 1.05-.49 1.85-.89 2.41-1.2 1.02-.59 2.01-1.25 2.97-1.96-.29-.21-.46-.37-.51-.5zm7.31-15.28c.3 0 .55.14.77.42.22.28.33.58.33.88 0 .31-.15.55-.45.74-1.18.74-2.5 1.52-3.96 2.32l-2.58 1.41c-.82.45-1.38.7-1.66.77-.17.08-.34.12-.5.12-.29 0-.48-.1-.56-.3-.24-.54-.36-.87-.36-.96 0-.57.34-.94 1.01-1.1 2.49-1.22 4.98-2.6 7.45-4.14.17-.1.34-.16.51-.16zm15.58 16.71c.93-.09 1.4-.39 1.4-.89 0-.38-.21-.63-.64-.77-.51-.17-1.16-.34-1.93-.52-.66-.27-.99-.57-.99-.92 0-.96.47-1.4 1.41-1.31.21.02.41.03.59.03.64 0 1.65-.31 3.03-.93.15-.07.35-.1.59-.1.3 0 .55.12.76.36.21.24.32.51.32.81 0 .34-.19.61-.56.83-.33.15-.65.3-.98.46.6.53.92 1.24.95 2.11.02.61-.23 1.16-.76 1.65-1.14 1.05-2.78 1.57-4.93 1.57-.22 0-.71-.01-1.47-.05-3.16 2.61-5.36 4.29-6.59 5.03-2 1.2-3.3 1.77-3.89 1.71-.34-.07-.67-.42-.99-1.05-.3-.58-.45-1.07-.45-1.47 0-.33.09-.57.28-.73.19-.1.4-.15.62-.15.17 0 .43.03.77.08s.6.08.77.08c.55 0 1.09-.17 1.62-.5 2.38-1.54 4.07-2.7 5.09-3.49-.12-.24-.18-.44-.18-.59 0-.49.12-.88.36-1.17.61-.77 1.34-1.14 2.18-1.11 1.05.04 1.67.42 1.86 1.14.76-.04 1.34-.07 1.76-.11zm3.23-16.71c.3 0 .55.14.77.42.22.28.33.58.33.88 0 .31-.15.55-.45.74-1.18.74-2.5 1.52-3.96 2.32l-2.58 1.41c-.82.45-1.38.7-1.66.77-.17.08-.34.12-.5.12-.29 0-.48-.1-.56-.3-.24-.54-.36-.87-.36-.96 0-.57.34-.94 1.01-1.1 2.49-1.22 4.98-2.6 7.45-4.14.17-.1.35-.16.51-.16z"/><path d="M270.33 967.94c1.54-.15 2.31-.64 2.31-1.47 0-.62-.35-1.05-1.06-1.28-.85-.28-1.92-.57-3.2-.86-1.1-.44-1.65-.95-1.65-1.52 0-1.59.78-2.31 2.33-2.16.34.03.67.05.98.05 1.07 0 2.74-.52 5.01-1.55.25-.11.57-.17.98-.17.49 0 .91.2 1.27.6.35.4.53.85.53 1.34 0 .56-.31 1.02-.93 1.38-.54.25-1.08.5-1.62.76 1 .88 1.52 2.05 1.57 3.49.03 1.02-.39 1.93-1.25 2.73-1.88 1.74-4.6 2.61-8.16 2.61-.36 0-1.17-.02-2.43-.07-5.23 4.33-8.86 7.1-10.91 8.33-3.31 1.98-5.46 2.92-6.44 2.83-.56-.11-1.11-.7-1.65-1.74-.49-.97-.74-1.78-.74-2.43 0-.54.16-.94.47-1.2.31-.16.66-.25 1.03-.25.28 0 .7.05 1.28.14.57.09 1 .14 1.28.14.92 0 1.81-.28 2.68-.84 3.93-2.54 6.74-4.46 8.43-5.78-.2-.39-.29-.72-.29-.98 0-.8.2-1.45.59-1.94 1.02-1.28 2.22-1.89 3.61-1.84 1.74.07 2.76.7 3.07 1.89 1.26-.09 2.22-.15 2.91-.21zm-4.79-25.71c-1.67-.13-2.61-.26-2.8-.39-.75-.48-1.13-1.07-1.13-1.77 0-.97.52-1.67 1.55-2.11 1.25-.23 2.26-.3 3.05-.22.97.1 2.09.37 3.37.81.9.31 1.71.87 2.43 1.67.56.62.84 1.36.84 2.21 0 1.21-.62 2.5-1.87 3.86-.98 1.08-2.13 1.99-3.44 2.73-2.06 1.18-3.83 1.84-5.28 1.97-.69.07-1.27-.1-1.74-.49-.48-.39-.71-.93-.71-1.62 0-1.07.52-1.67 1.57-1.82.92-.13 1.78-.39 2.58-.79.57-.28 1.34-.73 2.31-1.35 1.33-.85 1.99-1.49 1.99-1.92-.02-.37-.92-.63-2.72-.77zm12.31.07c-1.67-.13-2.61-.26-2.8-.39-.75-.48-1.13-1.07-1.13-1.77 0-.97.52-1.67 1.55-2.11 1.25-.23 2.26-.3 3.05-.22.97.1 2.09.37 3.37.81.9.31 1.71.87 2.43 1.67.56.62.84 1.36.84 2.21 0 1.21-.62 2.5-1.87 3.86-.98 1.08-2.13 1.99-3.44 2.73-2.06 1.18-3.83 1.84-5.28 1.97-.69.07-1.27-.1-1.75-.49s-.71-.93-.71-1.62c0-1.07.52-1.67 1.57-1.82.92-.13 1.78-.39 2.58-.79.57-.28 1.34-.73 2.31-1.35 1.33-.85 1.99-1.49 1.99-1.92 0-.37-.91-.62-2.71-.77zm15.64 27.65c-1.43 1.16-3.23 2.4-5.41 3.71-2.47 1.49-4.1 2.3-4.87 2.43-.1.02-.22.02-.37.02-.87 0-1.62-.49-2.26-1.47-.56-.87-.84-1.72-.84-2.56 0-.77.39-1.19 1.16-1.25.05 0 .16-.01.32-.02.16-.02.34-.02.54 0-.07 0 .37.03 1.3.1.88.07 1.41.07 1.57 0 1.1-.41 2.52-1.15 4.25-2.21 2.52-1.56 4.51-3.1 5.95-4.62-.51-.36-.79-.88-.84-1.55-.07-.82.43-1.61 1.47-2.36.95-.7 1.86-1.06 2.73-1.06 1.38 0 2.11.67 2.21 2.02.31.11 1.11-.25 2.38-1.11.38-.33 1.07-.84 2.06-1.52.31-.05.57-.07.79-.07.29 0 .52.04.66.12.52.29.88.71 1.06 1.25.07.49-.07 1.02-.39 1.59s-.48.9-.47 1c.02.21.15.33.39.34.97.07 2.43-.93 4.4-3 .82-.64 1.41-.95 1.77-.93.51.02 1.07.5 1.67 1.45.29.48.23 1.07-.2 1.77-1.21 2-2.95 3.47-5.21 4.4-1.1.46-2.1.7-3 .74-1.77.08-2.79-.63-3.07-2.14-.7.02-1.98.01-3.83-.02-.48.48-2.46 2.13-5.92 4.95zm12-31.58c1.9.03 3.31.95 4.23 2.75.16.56.25 1.2.25 1.92 0 1.56-.39 2.88-1.18 3.96-1.95 2.67-5.12 4.19-9.51 4.55-2.1-.08-3.56-.75-4.37-1.99-.46-.97-.69-1.88-.69-2.75 0-1.46.68-2.92 2.04-4.37 2.56-2.79 5.64-4.14 9.23-4.07z" fill="#bd0e72"/><path d="M298.65 946.58c.23.34.7.61 1.4.79h.79c.31 0 .64-.01.98-.02 1.92-.79 3.23-1.7 3.93-2.75.08-.21.12-.43.12-.64 0-1.02-.82-1.48-2.46-1.4-.98.25-1.67.5-2.06.76-.9.43-1.59.91-2.08 1.45s-.73 1.01-.73 1.4c.02.14.05.28.11.41zm28.46 20.72c-1.18.08-1.98.12-2.41.12-1.08 0-1.62-.6-1.62-1.79 0-1 .66-1.67 1.97-2.02l2.38-.61c2.77-1.25 4.5-2.42 5.19-3.54.39-.62 1.01-.93 1.84-.93.26.05.6.21 1.01.49.74.51 1.07 1.16 1.01 1.94-.33.52-.64.89-.93 1.11-.7.52-1.16.87-1.38 1.03 3.36-.38 5.38-.61 6.07-.71.7.1 1.06.55 1.06 1.35 0 .66-.11 1.1-.34 1.33l-1.38.88c-5.28 3.33-9.88 6.14-13.81 8.45-4.6 2.72-7.66 4.52-9.17 5.41-.92.52-2.07 1.16-3.47 1.89-.25.13-.5.2-.76.2-.72 0-1.35-.51-1.89-1.52-.46-.87-.69-1.7-.69-2.51s.35-1.2 1.06-1.2c.26 0 .64.03 1.14.09.5.06.88.09 1.14.09.8 0 1.53-.15 2.19-.44.1-.03.16-.06.2-.07h.02v.02c.02-.02.04-.03.07-.05l1.94-1.03c4.33-2.31 9.09-5.17 14.28-8.58-2.34.26-3.92.47-4.72.6zm10.69-27.01c.49 0 .92.23 1.28.7s.54.95.54 1.46-.25.92-.74 1.23a120.57 120.57 0 0 1-6.56 3.83l-4.28 2.33c-1.36.74-2.28 1.16-2.75 1.28-.28.13-.56.2-.84.2-.48 0-.79-.16-.93-.49-.39-.9-.59-1.43-.59-1.6 0-.95.56-1.56 1.67-1.82 4.13-2.02 8.24-4.3 12.34-6.86.3-.17.58-.26.86-.26zm17.35 29.66c-1.43 1.16-3.23 2.4-5.41 3.71-2.47 1.49-4.1 2.3-4.87 2.43-.1.02-.22.02-.37.02-.87 0-1.62-.49-2.26-1.47-.56-.87-.84-1.72-.84-2.56 0-.77.39-1.19 1.16-1.25.05 0 .16-.01.32-.02.16-.02.34-.02.54 0-.07 0 .37.03 1.3.1.88.07 1.41.07 1.57 0 1.1-.41 2.52-1.15 4.25-2.21 2.52-1.56 4.51-3.1 5.95-4.62-.51-.36-.79-.88-.84-1.55-.07-.82.43-1.61 1.47-2.36.95-.7 1.86-1.06 2.73-1.06 1.38 0 2.11.67 2.21 2.02.31.11 1.11-.25 2.38-1.11.38-.33 1.07-.84 2.06-1.52.31-.05.57-.07.79-.07.29 0 .52.04.66.12.52.29.88.71 1.06 1.25.07.49-.07 1.02-.39 1.59s-.48.9-.47 1c.02.21.15.33.39.34.97.07 2.43-.93 4.4-3 .82-.64 1.41-.95 1.77-.93.51.02 1.07.5 1.67 1.45.29.48.23 1.07-.2 1.77-1.21 2-2.95 3.47-5.21 4.4-1.1.46-2.1.7-3 .74-1.77.08-2.79-.63-3.07-2.14-.7.02-1.98.01-3.83-.02-.48.48-2.46 2.13-5.92 4.95zm-11.97 23.52c0-.95.56-1.56 1.67-1.82 4.13-2.02 8.24-4.3 12.34-6.86.29-.18.58-.27.86-.27.49 0 .92.23 1.28.7s.54.95.54 1.46c0 .26-.25.68-.76 1.25-.54.44-1.85 1.24-3.93 2.38l-6.88 3.76" fill="#bd0e72"/></svg>