<svg xmlns="http://www.w3.org/2000/svg" xml:space="preserve" x="0" y="0" version="1.1" viewBox="0 0 1000 1000"><path d="M537.74 393.88c0 8.09-6.57 14.64-14.64 14.64-8.1 0-14.67-6.55-14.67-14.64 0-8.1 6.57-14.66 14.67-14.66 8.08.01 14.64 6.56 14.64 14.66" fill="#004b1c"/><path d="M515.52 366.63c-2.34-3.19-5.03-4.95-10.12-4.81-13.48 1.67-19.6 11.67-20.06 16.14-.77 7.68 1.4 15.01 6.36 20.88 3.74 4.49 9.59 7.41 16.65 11.18 13.65 10.37 23.19 28.48 32.71 43.97 6.77 9.74 14.95 14.04 31.67 14.93 13.7-4.11 16.07-13.34 8.74-25.47-8.12-11.09-16.94-13.75-23.12-25-3.58-6.57-11.23-6.4-22.5-19.72-4.14-11.56-23.52-20.96-20.33-32.1" fill="#3b6287" fill-rule="evenodd" clip-rule="evenodd"/><path d="M518.4 361.53c-3.12-4.38-8.67-6.71-15.59-6.52-17.27 4.38-23.75 17.15-25.18 21.63-3.67 15.68 4.47 25.13 18.2 35.54 18.7 15.88 33.97 36.62 48.03 55.54 14.93 10.8 14.01 7.13 31.38 9.15 18.63-5.65 23.55-16.72 17.49-31.91-21.32-29-56.95-51.03-74.33-83.43" fill="#3b6287" fill-rule="evenodd" clip-rule="evenodd"/><path d="M535.95 415.93c0 8.1-6.55 14.66-14.64 14.66s-14.66-6.55-14.66-14.66c0-8.09 6.57-14.64 14.66-14.64s14.64 6.55 14.64 14.64" fill="#004b1c"/><path d="M523.37 421.25c0 2.01-1.64 3.65-3.67 3.65-2.01 0-3.67-1.64-3.67-3.65 0-2.03 1.66-3.67 3.67-3.67a3.66 3.66 0 0 1 3.67 3.67m5.26-8.98c0 2.01-1.64 3.65-3.67 3.65-2.01 0-3.65-1.64-3.65-3.65 0-2.03 1.64-3.67 3.65-3.67 2.03 0 3.67 1.64 3.67 3.67" fill="#f5ee6d"/><path d="M550.31 592.6v9.2c0 1.77.12 2.88.33 3.35.22.45.6.82 1.15 1.1.55.27 1.57.4 3.07.4v.9h-16.78v-.9c1.52 0 2.55-.13 3.08-.42.55-.28.92-.65 1.13-1.1s.33-1.57.33-3.33v-21.28c0-1.78-.12-2.9-.33-3.35-.22-.47-.6-.83-1.15-1.1-.53-.28-1.57-.42-3.07-.42v-.9h15.23c3.97 0 6.86.28 8.71.83 1.83.55 3.33 1.55 4.5 3.03 1.15 1.47 1.73 3.2 1.73 5.18 0 2.42-.87 4.42-2.62 6-1.1 1-2.67 1.75-4.67 2.25l7.88 11.1c1.03 1.43 1.77 2.33 2.2 2.68.67.5 1.43.77 2.3.82v.9h-10.31l-10.58-14.95h-2.13zm0-16.08v14.36h1.38c2.23 0 3.92-.2 5.03-.62 1.12-.4 1.98-1.15 2.62-2.22.63-1.08.97-2.47.97-4.2 0-2.5-.58-4.35-1.77-5.53-1.17-1.2-3.05-1.8-5.63-1.8h-2.6zm38.73-2.43v26.81c0 2.02.08 3.3.27 3.85.17.57.55 1.02 1.12 1.37.55.37 1.47.53 2.7.53h.75v.9h-17.26v-.9h.87c1.4 0 2.4-.15 3-.48.6-.32 1-.77 1.22-1.33.2-.55.32-1.87.32-3.93v-17c0-1.52-.08-2.47-.22-2.85-.15-.37-.42-.7-.82-.97-.4-.27-.85-.4-1.37-.4-.82 0-1.82.27-3 .78l-.43-.87 12.06-5.52h.79z"/><path d="M565.97 645c-29.99 0-54.4-24.41-54.4-54.4 0-30.01 24.41-54.42 54.4-54.42s54.4 24.41 54.4 54.42c0 29.99-24.41 54.4-54.4 54.4zm0-103.99c-27.33 0-49.57 22.24-49.57 49.59 0 27.33 22.24 49.57 49.57 49.57 27.33 0 49.57-22.24 49.57-49.57 0-27.35-22.25-49.59-49.57-49.59z"/><path d="M517.97 411.91c0 2.01-1.64 3.65-3.67 3.65-2.01 0-3.65-1.64-3.65-3.65 0-2.03 1.64-3.67 3.65-3.67 2.03 0 3.67 1.64 3.67 3.67" fill="#f5ee6d"/><path d="M331.89 459.42c.75-1.52 1.12-2.55 1.12-3.1 0-.15-.04-.22-.12-.22-.03 0-.07.02-.12.05-1.05.73-2.25 1.58-3.6 2.55-2.7 1.95-4.52 3.19-5.47 3.72l-4.52 2.57c-1.08.62-2.1 1.08-3.05 1.4-.15.05-.31.07-.47.07-.53 0-1.08-.29-1.65-.87-.9-.93-1.35-1.98-1.35-3.15 0-.43.11-.81.32-1.12.33-.38.92-.57 1.77-.57.25 0 .61.01 1.09.04.47.02.84.04 1.09.04.52 0 .97-.05 1.35-.15.17-.08.28-.13.35-.15l1.1-.6c1.82-1 3.04-1.71 3.67-2.12l6.87-4.62c1.82-1.22 2.92-1.88 3.32-2 .58-.17 1.24-.03 1.97.4 1.08.63 1.62 1.67 1.62 3.12 0 1.3-.37 2.9-1.12 4.8-1.1 2.78-2.23 4.81-3.4 6.07-.22.23-.52.35-.92.35-.52 0-1.05-.2-1.6-.6-.62-.43-.92-.89-.92-1.37 0-.5.16-.89.47-1.17.67-.62 1.4-1.73 2.2-3.37zm4.5-29.16c1.93.03 3.37.97 4.3 2.8.17.57.25 1.22.25 1.95 0 1.58-.4 2.92-1.2 4.02-1.98 2.72-5.21 4.26-9.67 4.62-2.13-.08-3.62-.76-4.45-2.02-.47-.98-.7-1.92-.7-2.8 0-1.48.69-2.97 2.07-4.45 2.62-2.82 5.75-4.19 9.4-4.12zm-6.95 8.34c.23.35.71.62 1.42.8h.8c.32 0 .65-.01 1-.02 1.95-.8 3.28-1.73 4-2.8.08-.22.12-.43.12-.65 0-1.03-.83-1.51-2.5-1.42-1 .25-1.7.51-2.1.77-.92.43-1.62.92-2.11 1.47-.49.55-.74 1.02-.74 1.42.01.16.05.3.11.43zm23.62 21.07c-1.2.08-2.02.12-2.45.12-1.1 0-1.65-.61-1.65-1.82 0-1.02.67-1.7 2-2.05l2.42-.62c2.82-1.27 4.57-2.47 5.27-3.6.4-.63 1.02-.95 1.87-.95.27.05.61.22 1.02.5.75.52 1.09 1.17 1.02 1.97-.33.53-.65.91-.95 1.12-.72.53-1.18.88-1.4 1.05 3.42-.38 5.47-.62 6.17-.72.72.1 1.07.56 1.07 1.37 0 .67-.12 1.12-.35 1.35l-1.4.9c-5.37 3.38-10.05 6.25-14.05 8.6-4.68 2.77-7.79 4.6-9.32 5.5-.93.53-2.11 1.17-3.52 1.92-.25.13-.51.2-.77.2-.73 0-1.37-.52-1.92-1.55-.47-.88-.7-1.73-.7-2.55s.36-1.22 1.07-1.22c.27 0 .65.03 1.16.09.51.06.9.09 1.16.09.82 0 1.56-.15 2.22-.45.1-.03.17-.06.2-.07h.02v.02c.02-.02.04-.03.07-.05l1.97-1.05c4.4-2.35 9.24-5.26 14.52-8.72-2.34.28-3.94.49-4.75.62zm10.87-27.46c.5 0 .93.24 1.3.71s.55.97.55 1.49-.25.93-.75 1.25c-1.98 1.25-4.21 2.55-6.67 3.9l-4.35 2.37c-1.38.75-2.32 1.18-2.8 1.3-.28.13-.57.2-.85.2-.48 0-.8-.17-.95-.5-.4-.92-.6-1.46-.6-1.62 0-.97.57-1.58 1.7-1.85 4.2-2.05 8.38-4.37 12.55-6.97.29-.19.59-.28.87-.28zm27.97 23.11c0-.43-.66-.65-1.97-.65l-3.6.4c-.18.02-.57.09-1.17.22-.48.1-.87.15-1.17.15-.42 0-.75-.12-1-.37-.38-.53-.57-1.09-.57-1.67 0-.38.08-.78.25-1.2.17-.9 1.83-1.46 5-1.67.8-.05 2.31.07 4.52.35 2.43.32 3.88.94 4.35 1.87.42.85.55 1.65.4 2.4-.12.58-.26 1.02-.42 1.3-.55.73-1.12 1.35-1.7 1.85-1.12.97-2.17 1.77-3.15 2.4-2.23 1.45-5.33 3.07-9.3 4.87-2.05.93-4.08 1.8-6.1 2.6-.92.37-1.72.31-2.42-.17-1.08-1.17-1.62-2.29-1.62-3.37 0-.97.53-1.45 1.6-1.45.27 0 .67.04 1.2.12.53.08.93.12 1.2.12.45 0 .84-.06 1.17-.17 1.73-.62 2.62-.93 2.65-.95 1.73-.68 3.67-1.61 5.82-2.77 3.22-1.73 5.22-3.02 6-3.85.01-.11.03-.22.03-.36zm-3-20.94c-1.7-.13-2.65-.27-2.85-.4-.77-.48-1.15-1.08-1.15-1.8 0-.98.52-1.7 1.57-2.15 1.27-.23 2.3-.31 3.1-.22.98.1 2.12.37 3.42.82.92.32 1.74.88 2.47 1.7.57.63.85 1.38.85 2.25 0 1.23-.63 2.54-1.9 3.92-1 1.1-2.17 2.02-3.5 2.77-2.1 1.2-3.89 1.87-5.37 2-.7.07-1.29-.1-1.77-.5s-.72-.95-.72-1.65c0-1.08.53-1.7 1.6-1.85.93-.13 1.81-.4 2.62-.8.58-.28 1.37-.74 2.35-1.37 1.35-.87 2.02-1.52 2.02-1.95.01-.36-.91-.62-2.74-.77zm29.55 25.04c.75-1.52 1.12-2.55 1.12-3.1 0-.15-.04-.22-.12-.22-.03 0-.07.02-.12.05-1.05.73-2.25 1.58-3.6 2.55-2.7 1.95-4.52 3.19-5.47 3.72l-4.52 2.57c-1.08.62-2.1 1.08-3.05 1.4-.15.05-.31.07-.47.07-.53 0-1.08-.29-1.65-.87-.9-.93-1.35-1.98-1.35-3.15 0-.43.11-.81.32-1.12.33-.38.92-.57 1.77-.57.25 0 .61.01 1.09.04.47.02.84.04 1.09.04.52 0 .97-.05 1.35-.15.17-.08.28-.13.35-.15l1.1-.6c1.82-1 3.04-1.71 3.67-2.12l6.87-4.62c1.82-1.22 2.92-1.88 3.32-2 .58-.17 1.24-.03 1.97.4 1.08.63 1.62 1.67 1.62 3.12 0 1.3-.37 2.9-1.12 4.8-1.1 2.78-2.23 4.81-3.4 6.07-.22.23-.52.35-.92.35-.52 0-1.05-.2-1.6-.6-.62-.43-.92-.89-.92-1.37 0-.5.16-.89.47-1.17.67-.62 1.4-1.73 2.2-3.37zm4.5-29.16c1.93.03 3.37.97 4.3 2.8.17.57.25 1.22.25 1.95 0 1.58-.4 2.92-1.2 4.02-1.98 2.72-5.21 4.26-9.67 4.62-2.13-.08-3.62-.76-4.45-2.02-.47-.98-.7-1.92-.7-2.8 0-1.48.69-2.97 2.07-4.45 2.62-2.82 5.75-4.19 9.4-4.12zM416 438.6c.23.35.71.62 1.42.8h.8c.32 0 .65-.01 1-.02 1.95-.8 3.28-1.73 4-2.8.08-.22.12-.43.12-.65 0-1.03-.83-1.51-2.5-1.42-1 .25-1.7.51-2.1.77-.92.43-1.62.92-2.11 1.47-.49.55-.74 1.02-.74 1.42.01.16.04.3.11.43zm21.11 18.75c.05-.87.58-1.95 1.6-3.25 1.75-2.25 4.36-3.37 7.82-3.37.82 0 1.76.19 2.82.57 2.1.75 3.07 1.87 2.9 3.35-.15 1.28-1.25 2.82-3.3 4.62a44.437 44.437 0 0 1-4.85 3.67c-6.93 4.52-11.63 7.01-14.1 7.5-.08.02-.19.02-.32.02-.63 0-1.17-.44-1.62-1.32-.4-.58-.63-1.25-.7-2-.08-.98.32-1.47 1.2-1.47.28 0 .63.04 1.05.12 1.22.25 2.37.08 3.45-.5 2.75-1.48 5.2-2.89 7.35-4.22-2.31-.66-3.41-1.91-3.3-3.72zm13.38-25.14c.5 0 .93.24 1.3.71s.55.97.55 1.49-.25.93-.75 1.25c-1.98 1.25-4.21 2.55-6.67 3.9l-4.35 2.37c-1.38.75-2.32 1.18-2.8 1.3-.28.13-.57.2-.85.2-.48 0-.8-.17-.95-.5-.4-.92-.6-1.46-.6-1.62 0-.97.57-1.58 1.7-1.85 4.2-2.05 8.38-4.37 12.55-6.97.29-.19.58-.28.87-.28zm-4.73 22.14c-1.03.13-1.75.32-2.15.55-1.3.75-1.9 1.46-1.8 2.12 0 .33.22.63.65.9.5.17 1.2.12 2.1-.15 1.67-.5 2.5-1.33 2.5-2.5 0-.61-.43-.92-1.3-.92zm19.19 7.25c0-.98.65-1.68 1.95-2.1 1.15-.37 2.34-.83 3.57-1.4-.75-.35-1.35-.66-1.8-.92-.98-.6-1.52-1.07-1.62-1.42-.15-.5-.14-.96.02-1.37.18-.48.53-.75 1.05-.8 2-.18 3.73-.81 5.2-1.87.73-.53 1.4-.8 2-.8.13 0 .24.02.32.07.5.32.83.72 1 1.22.05.15.07.57.07 1.25-.02 0-.07.08-.17.25-.2.33-.48.6-.85.8-.35.3-.61.5-.77.6-.6.37-.94.57-1.02.62-.45.25-.67.43-.67.55.02.05.16.11.42.17 1.43.4 2.15 1.02 2.15 1.87 0 .15-.1.42-.3.8-.38.42-.69.71-.92.87-1.08.8-1.91 1.35-2.47 1.65-.53.4-.8.54-.8.42.02.08.27.37.75.85.27.4.43.66.5.77.02.12.02.22.02.32 0 .7-.68 1.47-2.05 2.3-10.71 6.5-16.84 9.81-18.37 9.95-.65.05-1.3-.42-1.95-1.42-.58-.87-.91-1.67-.97-2.4-.12-1.15.37-1.72 1.47-1.72.32 0 .67.02 1.05.07.13.02.71.02 1.72.02.53 0 1.07-.08 1.62-.25 2.1-.92 3.77-1.72 5-2.4 2.98-1.67 5.34-3.07 7.07-4.2-1.47-.91-2.22-1.7-2.22-2.35zm10.4-27.22c-1.7-.13-2.65-.27-2.85-.4-.77-.48-1.15-1.08-1.15-1.8 0-.98.52-1.7 1.57-2.15 1.27-.23 2.3-.31 3.1-.22.98.1 2.12.37 3.42.82.92.32 1.74.88 2.47 1.7.57.63.85 1.38.85 2.25 0 1.23-.63 2.54-1.9 3.92-1 1.1-2.17 2.02-3.5 2.77-2.1 1.2-3.89 1.87-5.37 2-.7.07-1.29-.1-1.77-.5s-.72-.95-.72-1.65c0-1.08.53-1.7 1.6-1.85.93-.13 1.81-.4 2.62-.8.58-.28 1.37-.74 2.35-1.37 1.35-.87 2.02-1.52 2.02-1.95.01-.36-.91-.62-2.74-.77z" fill="#bd0e72"/></svg>