<svg xmlns="http://www.w3.org/2000/svg" xml:space="preserve" x="0" y="0" version="1.1" viewBox="0 0 1000 1000"><path d="M272.93 230.64c-1.32-1.43-2.28-2.86-4.17-4.64-4.56-4.81-8.61-6.13-10.73 1.76-.68 10.31 2.97 17.98 7.23 25.25 6.39 8.83 13.56 13.8 19.8 15.14 6.35-.04 10.9-3.91 12.24-10.86-.54-5.07-5.51-8.28-10.51-12.96-4.62-4.56-9.23-9.13-13.86-13.69m-141.63-6.59c1.91-.7 2.85-1.73.78-3.28-2.55-1.91-9.94-.91-13.02-.51-8.15 1.04-18.4 3.62-25.37 8.09-6.96 4.48-13.95 9.94-22.04 12.29-9.71 2.79-23.17 5.43-31.27 11.89-10.75 8.56-20.26 17.5-26.21 30.38-4.16 9.03-3.17 17.88-1.25 27.3 1.23 5.98 1.41 12.27 3.88 17.93 7.9 18.04 26.19 30.22 36.79 46.66 6.27 6.63 13.01 10.54 19.91 13.25l-.62.05c14.18 2.05 29.18 7.6 43.89 19.08 14.72 11.45 24.79 16.64 41.07 28.09 4.76 1.64 12.08 8.12 19.35 12.84 6.92 4.49 15.09 4.76 20.77 9.91 5.44 2.77 8.63 18.5 17.86 27.11 3.06 2.84 5.73 7.91 7.4 13.12 1.04 11.74 4.06 22.32 13.59 24.82 13.34 4.45 18.88-2.2 14.55-14.02-11.32-17.79-17.19-36.97-22.73-58.23-.65-7.11-4.84-12.05-11.51-14.53-8.22-5.36-11.83-13.93-23.26-15.75-4.36-.72-9.82-3.75-13.74-7.16a73.969 73.969 0 0 0-20.78-26.23c-5.08-2.46-10.6-.37-16.57-5.32-8.12-5.2-15.89-11.06-23.4-17.45-2.91-7.17-8.27-10.85-16.07-11.05-5.45-.35-11.78-1.21-16.88-3.68-3.85-4.12-8.36-7.68-12.59-11.03-4.89-2.55-8.8-.35-6.48 5.1 1.75 2.85 5.17 5.44 6.93 8.29 3.31 6.14-1.05 6.43-7.07 4.94-12.18-5.43-23.71-13.08-32.31-23.37-3.72-4.43-6.89-9.38-9.08-14.75-2.55-6.27-2.13-11.07-1.47-17.69.6-6.02-.28-12.38.72-18.28 1.26-7.37 6.75-12.42 11.34-17.89 11.86-14.19 30.27-13.47 45.22-22.03 13.39-7.7 25.71-15.43 41.2-17.44 1.15-.17 5.77-.48 8.47-1.45m242.1 344.99c2.45.91 3.55 3.76 2.32 5.31 2.01 2.85 5.35 3.51 7.02-1.57 1.07-9.47-4.08-11.46-10.37-11.62-16.8 1.55-33.11 2.12-48.69 1.82-15.36-5.13-26.28-13.33-36.13-23.44-11.03-9.32-23.74-3.5-23.88 5.87.12 13.16 9.01 19.7 18.72 33.18 4.88 5.56 18.47 19.04 26.6 21.4 17.94 5.45 33.01-.38 37.91-4.65 4.84-5.22 10.58-10.11 17.28-14.14 3.95-4.99 1.39-5.17-2.64-5.22-7.97 2.76-17.66 3.53-28.11 3.23-8.79-.22-17-2.51-24.6-6.43-6.06-5.44-5.62-6.6 1.29-3.52 13.46 4.05 24.14 3.79 34.24 2.42 13.97-1.68 22.41-4.06 29.04-2.64m-85.06-69.96c-5.06-8.04-13.51-4.26-15.45 1.1-2.05 7.04-3.39 11.81-3.6 18.37.21 5.58 3.07 9.2 10.05 7.92 6.33-.05 10.83-1.39 14.4-4.16 1.87-2.55 1.61-5.2.8-8.84-2.17-5.41-3.97-9.09-6.2-14.39m13.98-7.57c2.75-.01 5.87 2.67 5.88 5.39.01 2.72-1.7 4.1-4.97 4.45-3.29.38-6.58-1.44-5.73-4.72.82-3.28 2.05-5.11 4.82-5.12m33.58 49.4c2.67-.01 4.87 1.69 4.87 3.8.02 2.1-2.15 3.39-4.81 3.86-2.66.45-4.85-1.23-4.88-3.8-.02-2.57 2.16-3.83 4.82-3.86M309.11 413.9c7.39 2.05 8.7 5.12 9.32 9.58.65 4.49-3.5 9.71-7.84 9.28-4.35-.41-5.9-2.38-9.53-8.93-3.65-6.55.71-11.99 8.05-9.93m-12.46-35.15c3.81.29 6.17 4.38 7.6 10.64 1.43 6.26-2.87 10.89-7.7 10.51-4.81-.4-8.68-4.64-8.73-10.42-.02-5.76 5.04-11.01 8.83-10.73m0-18.22c2.96.89 3.4 1.55 4.31 4.83.93 3.25-.99 5.42-4.24 4.84-3.26-.56-3.68-1.23-4.31-4.79-.63-3.58 1.29-5.76 4.24-4.88m-27.97 22.67c2.34-.02 3.62 4.9 3.64 9.32.02 4.39-1.78 7.08-4.44 8-2.65.91-5.94-2.43-5.67-7.73.27-5.3 4.12-9.58 6.47-9.59m-26.77 37.06c2.86-.03 2.51 3.03 2.55 8.48.03 5.46 2.41 2.42-1.8 5.23-2.42 1.62-5.86-2.61-5.88-6.15-.01-3.53 2.27-7.56 5.13-7.56m153.63-88.95c-8.22-4.48-12.15-1.41-10.92 5.77 4.9 12.11 10.37 22.62 19.95 32.34 3.45 6.14 8.46 11.14 11.54 17.61 2.69 5.71 3.42 12.87 7.1 18.73 5.98 5.6 15.76 2.98 17.61-7.12-1.92-9.88-7.67-17.81-14.3-27.13-5.57-8.08-7.46-21.21-15.61-25.99-4.04-3.18-9.68-8.24-15.37-14.21m-29.56-18.65c7.12-.94 8.06-.47 10.88 4.69 2.83 5.12 2.17 10.04-1.45 10.96-3.63.92-3.25-.44-9.57-5.55-6.34-5.13-7-9.17.14-10.1m-39.51-17.3c1.22-1.17 1.93 1.07 4.03 3.33 1.25 1.35 3.28 2.46 5.39 3.64 6.03 3.4 9.92 6.09 5.73 8.5-4.19 2.39-5.66.19-10.48-3.34-4.83-3.51-6.66-10.24-4.67-12.13m537.61 223.17c-2.74-11.53-8.4-13.91-15.66-15.39-23.59 5.49-46.74 22.65-70.24 38.51-3.82 8.01.17 12.53 5.57 17.18 20.4 4.46 37.89 2.27 55.74-5 6.63-4.48 10.41-11.27 14.88-17.17 4.46-5.88 8.6-11.87 9.71-18.13" fill="#3b6287" fill-rule="evenodd" clip-rule="evenodd"/><path d="M859.15 477.54c3.34.28 6.26 1.05 8.76 2.34-.36.4-.65 1-.86 1.79.2 3.2-10.96 8.09-7.39 9.21.65 3.5 6.2 8.74 10.4 13.75 1.7 8.16.97 15.93-.9 23.5-3.28 1.32-7.27 8.79-11.12 8.33-2.34 1.41-1.98 2.8 1.04 4.17 4.41-1.34 7.53-8.6 11.25-8.54 1.52-5.05-.85-8.34.68-13.4 1.01-.74 2.83-3.26 3.02-4.21-3.11 17.41-6.58 16.12-9.65 25.35-14.79 17.81-32.77 31.02-62.18 30.74-28.16-2.67-35.25-12.43-39.76-24.36-3.4-4.56-3.52-11.02 5.07-18.38 29.77-22.04 66.77-48.41 91.64-50.29m-178 93.54c-7.46 9.17-8.47 17.49-1.44 24.4 16.92 17.71 52.6 31.8 67.76 34.8 34.32 4.34 43.13-17.69 29.55-28.69-9.42-9.95-18.28-21.2-24.12-36.98-10.72-12.46-23.04-16.06-35.41-11.7-17.68 3.15-27.43 10.73-36.34 18.17m204.19-1.78c-7.65 4.92-7.12 8.79 1.58 10.87 5.72.53 10.57 1.58 13.57 4.87-.63 15.99-2.38 31.62-5.77 46.74-4.8 8.7-9.93 12.28-15.77 4.62-6.52-6.68-15.6-11.67-17.59-26.58 1.22-6.79 5.4-15.97 7.58-22.76 1.06-9.1-3.92-9.9-6.15-4.76-7.88 7.97-7.49 19.68-6.29 29.34 3.09 24.58 16.06 46.04 27.98 57.17 1.97 1.69 4 3.02 6.06 3.98-4.73-4.17-6.79-8.11-6.74-15.78.07-5.83 4.24-.93 9.45-.25 1.95 2.15 3.04 1.92 4.61 4.51 4.39.92 4.58-1.76 7.14-4.46 1.5-2.99.67-2.78-1.33-5.33.09-2.06 1.49-3.14 2.75-4.55 3.59-4.02 2.92-11.19 4.6-17.23.96-2.38 1.89-2.77 2.89-1.19.35-20.84-.65-41.02-3.74-60.12-5.59-5.16-13.86-4.87-24.83.91m9.07 104.91c1.62.43 3.26.63 4.78.62-1.53-.05-3.11-.3-4.78-.62M665.7 630.9c-5.52-8.5-12.04-10.46-19.63-5.9-6.35 4.14-10.02 8.79-12.75 13.64-2.44 5.47-.91 10.3 4.6 12.83 10.81 7.58 20.24 11.99 28.4 13.19 3.41.5 12.33-5.63 8.94-12.92-3.04-6.59-5.55-12.48-9.56-20.84m-33.01 37.66c-5.25-2.7-12.85-3.45-18.75 1.84-2.47 4.29-6.87 8.58-9.36 12.87-2.53 4.72.47 8.83 5.19 11.33 7.14 7.82 24.97 11.58 43.56 7.35 8.82-1.93 9.48-8.3 3.66-14.48-7.18-7.03-12.76-13.34-24.3-18.91m-264.86 51.55c-3.2-6.15-10.71-7.37-15.38-4.31-8.85 3.6-14.79 6.88-21.69 14.97-2.38 12.5-5.76 24.48-5.57 37.82-.55 10.6 4.01 18.62 13.72 24.01 11.18 3.03 21.47 2.22 30.85-2.44 6.88-2.58 11.33-7.81 10.45-18.9-2.79-7.03-3.1-15.69-5.4-22.68-3.36-10.2-8.08-18.67-6.98-28.47m150.13.29c11.44-2.19 18.48 6.27 11.91 17.19-2.07 3.47 4.82 9.1 2.92 12.78-1.87 3.67-5.43 2.9-9.19 1.64-7.13-2.41-25.08-16.08-25.78-25.77-.71-9.68 8.68-3.62 20.14-5.84m334.18 45.97c3.36-.13 6.47.31 9.26 1.2-5.08 1.85-7.77 3.8-8.43 8.45 2.29 2.43 6.07 3.54 8.34 5.96.04 5.57-3.7 7.55-7.25 11.37-3.05 1.45-6.7 2.56-10.95 1.14-2.21-2.2-2.26-4.19.49-4.05 1.76.34 3.5.67 5.26 1.01 2.69-4.26 1.34-5.96-.59-7.3-2.09-2.5-4.19-.64-5.37 3.39-.32 1.09-2.26 1.02-2.95 1.88-2.69-1.91-3.03 1.31-2.78 7.47 1.75 3.05 3.99 5.17 6.53 6.65-8.38-3.11-13.55-9.54-15-17.29-1.85-9.92 8.72-19.29 23.44-19.88m-448.33-236c-2.41-2.92-5.28-5.65-7.33-8.75.32-1.74 2.18-2.81 2.68-4.58-.94-1.12-2.09-1.54-3.29-1.94-3.38.35-3.14 3.93-3.34 6.17 2.16 6.44 3.53 7.96 8.38 11.44 2.02-.15 3.35.27 2.9-2.34M744.12 747.2c4.35-.83 18.85-.83 12.71-.14.9.03 1.66.13 2.32.28 3.97.83 4.15 3.49 4.66 10.19.45.76.77 1.55.99 2.38.23.84.35 1.68.36 2.56.02 4.41-2.82 8.31-7.09 10.63-.88.46-1.78.86-2.73 1.17-5.78-2.16-10.24-3.96-13.59-5.53-.66-.32-1.32-.61-1.88-.92-5.87-21.44-5.87-21.44 4.25-20.62m-193.96-25.99c3.76-.58 6.27-.73 7.85-.52.4.05.76.12 1.02.22 1.12 10.98 1.12 10.98-4.44 28.51-.27.21-.53.41-.82.6-1.48.99-3.3 2.06-5.52 3.39-.35-.08-.68-.18-1.01-.31-4.94-1.87-8.59-8.12-8.65-15.59-.04-7.47 3.56-13.78 8.46-15.71.34-.1.68-.23 2.05-.52.33-.04.71-.07 1.06-.07M66.03 247.42c-.42.03-.58.33-.9.63-1.29 1.17-2.43 2.59-3.55 4.05-1.35 1.82-3.07 4.44-2.21 7.66.37 1.44 1.27 2.5 2.35 2.77 1.53.4 2.26-1.92 2.89-3.3.78-1.68 1.85-3.78 1.93-5.99.02-.9-.33-1.69-.22-2.51.04-.51.37-.74.39-1.27.02-.65-.37-1.59-.53-2.24l-.15.2zm117.02-2.93c-6.2-1.36-6.69-6.04-1.21-12.74 2.97-3.59 18.23-9.02 15.71.66-4.52 2.31-3.03 3.99-4.96 7.7-2.3 4.37-1.45 2.26-6.36 4.16l-3.18.22zm32.13-19.37c-2.71-.25-4.06-3.94-3.85-7.09.06-.12.85-2.42.91-2.5.11-.18 1.14-1.02 1.27-1.19 8.29-.48 15.74-2.15 14.96 8.01-2.7.13-6.89-.75-9.23.57-.09.03-.17.09-1.53 1.86l-2.53.34z" fill="#3b6287" fill-rule="evenodd" clip-rule="evenodd"/><path d="M645.65 694c0 4.85-3.92 8.76-8.76 8.76-4.86 0-8.77-3.91-8.77-8.76 0-4.84 3.91-8.76 8.77-8.76 4.84.01 8.76 3.93 8.76 8.76m31.36-47.05c0 4.85-3.92 8.76-8.76 8.76-4.86 0-8.77-3.91-8.77-8.76 0-4.84 3.91-8.76 8.77-8.76 4.84 0 8.76 3.92 8.76 8.76m185.89-155.5c0 4.85-3.92 8.76-8.76 8.76-4.86 0-8.77-3.91-8.77-8.76 0-4.84 3.91-8.76 8.77-8.76 4.84 0 8.76 3.92 8.76 8.76m-425.07-98.88c0 4.85-3.92 8.76-8.76 8.76-4.86 0-8.77-3.91-8.77-8.76 0-4.84 3.91-8.76 8.77-8.76 4.84.01 8.76 3.92 8.76 8.76M295.04 259.18c0 4.85-3.92 8.76-8.76 8.76-4.86 0-8.77-3.91-8.77-8.76 0-4.84 3.91-8.76 8.77-8.76 4.84.01 8.76 3.93 8.76 8.76m-73.5 193.22c0 4.85-3.92 8.76-8.76 8.76-4.86 0-8.77-3.91-8.77-8.76 0-4.84 3.91-8.76 8.77-8.76 4.84 0 8.76 3.92 8.76 8.76m67.53 62.31c0 4.85-3.92 8.76-8.76 8.76-4.86 0-8.77-3.91-8.77-8.76 0-4.84 3.91-8.76 8.77-8.76 4.84.01 8.76 3.93 8.76 8.76M916.28 615.5c0 4.85-3.92 8.76-8.76 8.76-4.86 0-8.77-3.91-8.77-8.76 0-4.84 3.91-8.76 8.77-8.76 4.84 0 8.76 3.92 8.76 8.76m-140.33 4.61c0 4.85-3.92 8.76-8.76 8.76-4.86 0-8.77-3.91-8.77-8.76 0-4.84 3.91-8.76 8.77-8.76 4.85 0 8.76 3.92 8.76 8.76M458.69 726.1c0 4.85-3.92 8.76-8.76 8.76-4.86 0-8.77-3.91-8.77-8.76 0-4.84 3.91-8.76 8.77-8.76 4.84.01 8.76 3.93 8.76 8.76" fill="#004b1c"/><path d="M636.89 694c0 1.2-.98 2.19-2.19 2.19-1.2 0-2.19-.98-2.19-2.19s.99-2.19 2.19-2.19c1.21 0 2.19.98 2.19 2.19m30.02-49.16c0 1.2-.98 2.19-2.19 2.19-1.2 0-2.19-.98-2.19-2.19s.99-2.19 2.19-2.19c1.21 0 2.19.98 2.19 2.19M214.97 452.4c0 1.21-.98 2.19-2.19 2.19-1.2 0-2.18-.97-2.18-2.19 0-1.21.98-2.19 2.18-2.19 1.21 0 2.19.98 2.19 2.19m65.98 63.86c0 1.21-.98 2.19-2.19 2.19-1.2 0-2.18-.97-2.18-2.19 0-1.21.98-2.19 2.18-2.19 1.21 0 2.19.98 2.19 2.19" fill="#f5ee6d"/><path d="M413.64 708.59c0 4.85-3.92 8.76-8.76 8.76-4.86 0-8.77-3.91-8.77-8.76 0-4.84 3.91-8.76 8.77-8.76 4.84.01 8.76 3.93 8.76 8.76" fill="#004b1c"/><path d="M1317.38 834.18h-24.5v-5.79h24.5v5.79zm-48.98 0h-24.5v-5.79h24.5v5.79zm-48.99 0h-24.5v-5.79h24.5v5.79zm-49 0h-24.49v-5.79h24.49v5.79zm-48.99 0h-24.49v-5.79h24.49v5.79zm-48.98 0h-24.5v-5.79h24.5v5.79zm-48.99 0h-24.5v-5.79h24.5v5.79zm-48.99 0h-24.5v-5.79h24.5v5.79zm-49 0h-24.49v-5.79h24.49v5.79zm-48.98 0h-24.49v-5.79h24.49v5.79zm-48.99 0h-24.5v-5.79h24.5v5.79zm-48.99 0H754v-5.79h24.5v5.79zm-48.99 0h-24.49v-5.79h24.49v5.79zm-48.99 0h-24.49v-5.79h24.49v5.79zm-48.99 0h-24.49v-5.79h24.49v5.79zm-48.99 0h-24.49v-5.79h24.49v5.79zm-48.99 0h-24.5v-5.79h24.5v5.79zm-48.99 0h-24.49v-5.79h24.49v5.79zm-48.99 0h-24.49v-5.79h24.49v5.79zm-48.99 0h-24.49v-5.79h24.49v5.79zm-48.99 0H313.1v-5.79h24.49v5.79zm-48.98 0h-24.5v-5.79h24.5v5.79zm-49 0h-24.49v-5.79h24.49v5.79zm-48.98 0h-24.49v-5.79h24.49v5.79zm-49 0h-24.49v-5.79h24.49v5.79zm-48.98 0h-24.5v-5.79h24.49v5.79zm-49 0H19.16v-5.79h24.49v5.79zm-48.98 0h-24.49v-5.79h24.49v5.79zm-48.99 0h-24.49v-5.79h24.49v5.79zm-48.99 0h-24.49v-5.79h24.49v5.79zm-48.99 0h-24.49v-5.79h24.49v5.79zm-48.99 0h-24.5v-5.79h24.5v5.79zm-48.99 0h-24.49v-5.79h24.49v5.79zm-48.99 0h-24.49v-5.79h24.49v5.79zm-48.99 0h-24.49v-5.79h24.49v5.79zm-48.99 0h-24.49v-5.79h24.49v5.79zm-48.99 0h-6.45v-5.79h6.45v5.79z" fill="#ed1c24"/><path d="M198.03 330.84h-6.93l-.82 1.91c-.27.64-.4 1.16-.4 1.57 0 .55.22.96.66 1.22.26.15.9.27 1.92.35v.53h-6.52v-.53c.71-.11 1.29-.4 1.74-.88.45-.48 1.01-1.47 1.67-2.96l7.02-15.65h.27l7.07 16.08c.67 1.52 1.23 2.48 1.66 2.88.32.3.79.47 1.39.52v.53h-9.48v-.53h.39c.76 0 1.3-.11 1.6-.32.21-.15.32-.38.32-.67 0-.17-.03-.35-.08-.53-.02-.08-.16-.45-.44-1.09l-1.04-2.43zm-.49-1.07-2.92-6.75-3.01 6.75h5.93zm19.2-13.36v16.04c0 1.21.05 1.97.16 2.31.1.33.32.6.66.82.34.21.88.32 1.62.32h.45v.53H209.3v-.53h.52c.84 0 1.44-.1 1.79-.29.36-.19.6-.46.72-.8.13-.34.19-1.12.19-2.36v-10.17c0-.91-.04-1.48-.13-1.7-.08-.23-.25-.42-.48-.58-.24-.16-.51-.24-.82-.24-.49 0-1.09.15-1.79.46l-.26-.52 7.22-3.29h.48zm723.82 430.15h-6.93l-.82 1.91c-.28.64-.41 1.16-.41 1.57 0 .55.22.96.67 1.22.26.15.9.27 1.92.35v.53h-6.53v-.53c.71-.11 1.29-.4 1.73-.88.46-.48 1.02-1.47 1.68-2.96l7.01-15.65h.28l7.07 16.08c.68 1.52 1.24 2.48 1.66 2.88.33.3.8.47 1.4.52v.53h-9.49v-.53h.39c.76 0 1.3-.11 1.6-.32.21-.15.32-.38.32-.67 0-.17-.03-.35-.09-.53-.02-.08-.16-.45-.43-1.09l-1.03-2.43zm-.49-1.07-2.92-6.75-3.01 6.75h5.93zm21.82 6.65h-11.53v-.32c3.54-4.21 5.68-7.05 6.44-8.5.76-1.46 1.14-2.88 1.14-4.27 0-1.01-.32-1.85-.94-2.53-.63-.67-1.4-1-2.3-1-1.49 0-2.64.74-3.46 2.23l-.54-.19c.53-1.85 1.32-3.22 2.37-4.11a5.574 5.574 0 0 1 3.68-1.33c1 0 1.89.23 2.72.69.82.46 1.46 1.1 1.92 1.9.46.8.69 1.56.69 2.26 0 1.28-.35 2.58-1.07 3.9-.98 1.78-3.1 4.27-6.38 7.47h4.24c1.05 0 1.72-.04 2.03-.13.31-.09.57-.23.78-.44.2-.21.47-.64.79-1.31h.53l-1.11 5.68zm-481.57-189h-6.93l-.82 1.91c-.27.64-.4 1.16-.4 1.57 0 .55.22.96.66 1.22.26.15.9.27 1.92.35v.53h-6.52v-.53c.71-.11 1.29-.4 1.74-.88.45-.48 1.01-1.47 1.67-2.96l7.02-15.65h.27l7.07 16.08c.67 1.52 1.23 2.48 1.66 2.88.32.3.79.47 1.39.52v.53h-9.48v-.53h.39c.76 0 1.3-.11 1.6-.32.21-.15.32-.38.32-.67 0-.17-.03-.35-.08-.53-.02-.08-.16-.45-.44-1.09l-1.04-2.43zm-.49-1.07-2.92-6.75-3.01 6.75h5.93zm13.94-3.18v-.51c1.1-.32 1.86-.61 2.29-.89.42-.28.79-.7 1.1-1.26.31-.56.46-1.14.46-1.71 0-.8-.29-1.49-.87-2.06-.58-.57-1.31-.86-2.18-.86-1.35 0-2.5.71-3.44 2.14l-.53-.19c.69-1.61 1.58-2.82 2.67-3.63 1.09-.81 2.29-1.21 3.62-1.21 1.36 0 2.48.41 3.36 1.24.88.83 1.32 1.8 1.32 2.91 0 .72-.2 1.42-.61 2.09-.41.67-1.05 1.26-1.93 1.77 1.13.55 1.99 1.23 2.58 2.03.59.81.89 1.81.89 3.03 0 2.04-.74 3.78-2.22 5.21-1.48 1.44-3.46 2.15-5.95 2.15-1.66 0-2.87-.27-3.63-.82-.55-.39-.82-.88-.82-1.49 0-.44.16-.82.48-1.14.31-.31.68-.47 1.1-.47.32 0 .62.06.9.2.15.08.7.5 1.64 1.27s1.82 1.15 2.64 1.15c.71 0 1.33-.28 1.84-.85.51-.56.76-1.28.76-2.15 0-1.32-.46-2.54-1.39-3.65-.94-1.11-2.3-1.88-4.08-2.3z"/><path d="M202.79 358.96c-17.95 0-32.54-14.6-32.54-32.54 0-17.95 14.6-32.55 32.54-32.55s32.55 14.6 32.55 32.55c0 17.94-14.6 32.54-32.55 32.54zm0-62.2c-16.35 0-29.65 13.3-29.65 29.66 0 16.35 13.3 29.65 29.65 29.65 16.36 0 29.66-13.3 29.66-29.65 0-16.36-13.3-29.66-29.66-29.66zm742.95 477.92c-17.95 0-32.55-14.6-32.55-32.54s14.6-32.55 32.55-32.55c17.94 0 32.54 14.6 32.54 32.55s-14.59 32.54-32.54 32.54zm0-62.19c-16.36 0-29.66 13.3-29.66 29.66 0 16.35 13.31 29.65 29.66 29.65s29.65-13.3 29.65-29.65c.01-16.36-13.3-29.66-29.65-29.66zM485.51 591.26c-17.95 0-32.54-14.6-32.54-32.55 0-17.95 14.6-32.54 32.54-32.54 17.95 0 32.54 14.6 32.54 32.54 0 17.95-14.59 32.55-32.54 32.55zm0-62.2c-16.35 0-29.65 13.3-29.65 29.65 0 16.36 13.3 29.66 29.65 29.66s29.65-13.3 29.65-29.66c0-16.35-13.3-29.65-29.65-29.65zm-379.34 42.13-1.41-1.7 1.49 1.63-.08.07zm1.81-1.51-1.42-1.69 1.73-1.44 1.41 1.69-1.72 1.44zm3.44-2.88-1.42-1.69 1.72-1.44 1.42 1.69-1.72 1.44zm3.45-2.87-1.42-1.69 1.72-1.44 1.42 1.69-1.72 1.44zm3.45-2.89-1.41-1.69 1.72-1.44 1.42 1.69-1.73 1.44zm3.45-2.87-1.42-1.69 1.72-1.44 1.42 1.69-1.72 1.44zm3.45-2.88-1.42-1.69 1.72-1.44 1.42 1.69-1.72 1.44zm3.45-2.88-1.42-1.69 1.72-1.44 1.42 1.69-1.72 1.44zm3.44-2.87-1.42-1.69 1.72-1.44 1.42 1.69-1.72 1.44zm3.45-2.88-1.42-1.69 1.73-1.44 1.41 1.69-1.72 1.44zm3.45-2.88-1.42-1.69 1.72-1.44 1.42 1.69-1.72 1.44zm3.45-2.87-1.42-1.69 1.72-1.44 1.42 1.69-1.72 1.44zm3.44-2.88-1.42-1.69 1.73-1.44 1.41 1.69-1.72 1.44zm3.45-2.88-1.42-1.69 1.72-1.44 1.42 1.69-1.72 1.44zm3.45-2.87-1.42-1.69 1.72-1.44 1.42 1.69-1.72 1.44zm3.45-2.89-1.42-1.69 1.72-1.44 1.42 1.69-1.72 1.44zm3.44-2.87-1.42-1.69 1.72-1.44 1.42 1.69-1.72 1.44zm3.45-2.88-1.41-1.69 1.72-1.44 1.42 1.69-1.73 1.44zm3.45-2.88-1.42-1.69 1.72-1.44 1.42 1.69-1.72 1.44zm3.45-2.87-1.42-1.69 1.72-1.44 1.42 1.69-1.72 1.44zm3.45-2.88-1.42-1.69 1.73-1.44 1.41 1.69-1.72 1.44zm3.45-2.88-1.42-1.69 1.72-1.44 1.42 1.69-1.72 1.44zm3.44-2.87-1.42-1.69 1.72-1.44 1.42 1.69-1.72 1.44zm3.45-2.88-1.42-1.69 1.72-1.44 1.42 1.69-1.72 1.44zm3.45-2.88-1.42-1.69 1.72-1.44 1.42 1.69-1.72 1.44zm3.45-2.88-1.42-1.69 1.72-1.44 1.42 1.69-1.72 1.44zm3.44-2.88-1.42-1.69 1.72-1.44 1.42 1.69-1.72 1.44zm3.45-2.87-1.42-1.69 1.72-1.44 1.42 1.69-1.72 1.44zm3.45-2.88-1.41-1.69 1.72-1.44 1.42 1.69-1.73 1.44zm3.45-2.88-1.42-1.69 1.72-1.44 1.42 1.69-1.72 1.44zm3.44-2.87-1.42-1.69 1.72-1.44 1.42 1.69-1.72 1.44zm3.45-2.88-1.42-1.69 1.72-1.44 1.42 1.69-1.72 1.44zm3.45-2.88-1.42-1.69 1.72-1.44 1.42 1.69-1.72 1.44zm3.45-2.88-1.42-1.69 1.73-1.44 1.41 1.69-1.72 1.44zm3.45-2.87-1.42-1.69 1.72-1.44 1.42 1.69-1.72 1.44zm3.45-2.88-1.42-1.69 1.72-1.44 1.42 1.69-1.72 1.44zm3.44-2.88-1.42-1.69 1.72-1.44 1.42 1.69-1.72 1.44zm3.45-2.88-1.42-1.69 1.72-1.44 1.42 1.69-1.72 1.44zm3.45-2.87-1.42-1.69 1.72-1.44 1.42 1.69-1.72 1.44zm3.45-2.88-1.42-1.69 1.72-1.44 1.42 1.69-1.72 1.44zm3.44-2.88-1.42-1.69 1.72-1.44 1.42 1.69-1.72 1.44zm3.45-2.88-1.41-1.69 1.72-1.44 1.42 1.69-1.73 1.44zm3.45-2.87-1.42-1.69 1.72-1.44 1.42 1.69-1.72 1.44zm3.45-2.88-1.42-1.69 1.72-1.44 1.42 1.69-1.72 1.44zm3.44-2.88-1.42-1.69 1.73-1.44 1.41 1.69-1.72 1.44zm3.45-2.87-1.42-1.69 1.72-1.44 1.42 1.69-1.72 1.44zm3.45-2.88-1.42-1.69 1.72-1.44 1.42 1.69-1.72 1.44zm3.45-2.88-1.42-1.69 1.72-1.44 1.41 1.69-1.71 1.44zm3.45-2.88-1.42-1.69 1.72-1.44 1.42 1.69-1.72 1.44zm3.45-2.88-1.41-1.69 1.72-1.44 1.42 1.69-1.73 1.44zm3.44-2.87L275.5 427l1.72-1.44 1.42 1.69-1.72 1.44zm3.45-2.88-1.42-1.69 1.72-1.44 1.42 1.69-1.72 1.44zm3.44-2.88-1.41-1.69 1.72-1.44 1.42 1.69-1.73 1.44zm3.45-2.87-1.42-1.69 1.72-1.44 1.42 1.69-1.72 1.44zm3.45-2.88-1.42-1.69 1.72-1.44 1.42 1.69-1.72 1.44zm3.45-2.88-1.42-1.69 1.73-1.44 1.41 1.69-1.72 1.44zm3.45-2.87-1.42-1.69 1.72-1.44 1.42 1.69-1.72 1.44zm3.44-2.88-1.42-1.69 1.73-1.44 1.41 1.69-1.72 1.44zm3.45-2.88-1.42-1.69 1.72-1.44 1.42 1.69-1.72 1.44zm3.45-2.88-1.42-1.69 1.72-1.44 1.42 1.69-1.72 1.44zm3.45-2.88-1.41-1.69 1.72-1.44 1.42 1.69-1.73 1.44zm3.45-2.87-1.42-1.69 1.72-1.44 1.42 1.69-1.72 1.44zm3.45-2.88-1.42-1.69 1.72-1.44 1.42 1.69-1.72 1.44zm3.45-2.88-1.42-1.69 1.72-1.44 1.42 1.69-1.72 1.44zm3.44-2.87-1.42-1.69 1.72-1.44 1.42 1.69-1.72 1.44zm3.45-2.88-1.42-1.69 1.72-1.44 1.42 1.69-1.72 1.44zm3.45-2.88-1.42-1.69 1.72-1.44 1.42 1.69-1.72 1.44zm3.44-2.87-1.42-1.69 1.72-1.44 1.42 1.69-1.72 1.44zm3.45-2.88-1.42-1.69 1.73-1.44 1.41 1.69-1.72 1.44zm3.45-2.88-1.42-1.69 1.72-1.44 1.42 1.69-1.72 1.44zm3.45-2.88-1.42-1.69 1.72-1.44 1.42 1.69-1.72 1.44zm3.44-2.88-1.41-1.69 1.72-1.44 1.42 1.69-1.73 1.44zm3.45-2.87-1.42-1.69 1.72-1.44 1.42 1.69-1.72 1.44zm3.45-2.88-1.42-1.69 1.72-1.44 1.42 1.69-1.72 1.44zm3.44-2.88-1.41-1.69 1.72-1.44 1.42 1.69-1.73 1.44zm3.46-2.87-1.42-1.69 1.72-1.44 1.42 1.69-1.72 1.44zm3.45-2.88-1.42-1.69 1.72-1.44 1.42 1.69-1.72 1.44zm3.44-2.88-1.42-1.69 1.72-1.44 1.42 1.69-1.72 1.44zm3.45-2.87-1.42-1.69 1.72-1.44 1.42 1.69-1.72 1.44zm3.45-2.88-1.42-1.69 1.73-1.44 1.41 1.69-1.72 1.44zm3.45-2.88-1.42-1.69 1.72-1.44 1.42 1.69-1.72 1.44zm3.44-2.88-1.42-1.69 1.72-1.44 1.42 1.69-1.72 1.44zm3.45-2.88-1.42-1.69 1.72-1.44 1.42 1.69-1.72 1.44zm3.45-2.87-1.42-1.69 1.72-1.44 1.42 1.69-1.72 1.44zm3.44-2.88-1.41-1.69 1.72-1.44 1.42 1.69-1.73 1.44zm3.45-2.88-1.42-1.69 1.72-1.44 1.42 1.69-1.72 1.44zm3.45-2.87-1.42-1.69 1.72-1.44 1.42 1.69-1.72 1.44zm3.45-2.88-1.41-1.69 1.72-1.44 1.42 1.69-1.73 1.44zm3.45-2.88-1.42-1.69 1.72-1.44 1.42 1.69-1.72 1.44zm3.45-2.87-1.42-1.69 1.72-1.44 1.42 1.69-1.72 1.44zm3.44-2.88-1.42-1.69 1.73-1.44 1.41 1.69-1.72 1.44zm3.45-2.88-1.42-1.69 1.72-1.44 1.42 1.69-1.72 1.44zm3.45-2.88-1.42-1.69 1.72-1.44 1.41 1.69-1.71 1.44zm3.45-2.88-1.42-1.69 1.72-1.44 1.42 1.69-1.72 1.44zm3.45-2.87-1.42-1.69 1.72-1.44 1.42 1.69-1.72 1.44zm3.44-2.88-1.41-1.69 1.72-1.44 1.42 1.69-1.73 1.44zm3.45-2.88-1.42-1.69 1.72-1.44 1.42 1.69-1.72 1.44zm3.45-2.87-1.42-1.69 1.72-1.44 1.42 1.69-1.72 1.44zm3.44-2.88-1.41-1.69 1.72-1.44 1.42 1.69-1.73 1.44zm3.45-2.88-1.42-1.69 1.72-1.44 1.42 1.69-1.72 1.44zm3.45-2.87-1.42-1.69 1.72-1.44 1.42 1.69-1.72 1.44zm3.45-2.88-1.42-1.69 1.72-1.44 1.42 1.69-1.72 1.44zm3.45-2.88-1.42-1.69 1.72-1.44 1.42 1.69-1.72 1.44zm3.45-2.88-1.42-1.69 1.72-1.44 1.42 1.69-1.72 1.44zm3.44-2.88-1.42-1.69 1.72-1.44 1.42 1.69-1.72 1.44zm3.45-2.87-1.42-1.69 1.72-1.44 1.42 1.69-1.72 1.44zm3.44-2.88-1.41-1.69 1.72-1.44 1.42 1.69-1.73 1.44zm3.46-2.88-1.42-1.69 1.72-1.44 1.42 1.69-1.72 1.44zm3.45-2.87-1.42-1.69 1.72-1.44 1.42 1.69-1.72 1.44zm3.44-2.88-1.42-1.69 1.72-1.44 1.42 1.69-1.72 1.44zm3.45-2.88-1.42-1.69 1.72-1.44 1.42 1.69-1.72 1.44zm3.45-2.88-1.42-1.69 1.73-1.44 1.41 1.69-1.72 1.44zm3.45-2.87-1.42-1.69 1.72-1.44 1.42 1.69-1.72 1.44zm3.44-2.88-1.42-1.69 1.72-1.44 1.42 1.69-1.72 1.44zm-3.75 583.42-2.14-.52.52-2.18 2.14.52-.52 2.18zm1.05-4.37-2.14-.52.52-2.18 2.14.52-.52 2.18zm1.04-4.37-2.14-.51.52-2.19 2.14.51-.52 2.19zm1.05-4.37-2.14-.52.52-2.18 2.14.52-.52 2.18zm1.04-4.36-2.14-.52.52-2.18 2.14.52-.52 2.18zm1.05-4.37-2.14-.52.52-2.18 2.14.52-.52 2.18zm1.05-4.37-2.14-.52.52-2.18 2.14.52-.52 2.18zm1.04-4.36-2.14-.52.52-2.18 2.14.52-.52 2.18zm1.04-4.37-2.14-.52.52-2.18 2.14.52-.52 2.18zm1.05-4.37-2.14-.52.52-2.18 2.14.52-.52 2.18zm1.05-4.37-2.14-.51.52-2.19 2.14.51-.52 2.19zm1.04-4.37-2.14-.51.52-2.18 2.14.51-.52 2.18zm1.04-4.36-2.14-.52.52-2.18 2.14.52-.52 2.18zm1.05-4.37-2.14-.51.52-2.19 2.14.51-.52 2.19zm1.05-4.37-2.14-.52.52-2.18 2.14.52-.52 2.18zm1.04-4.36-2.14-.52.52-2.18 2.14.52-.52 2.18zm1.05-4.38-2.14-.51.52-2.18 2.14.51-.52 2.18zm1.04-4.36-2.14-.52.52-2.18 2.14.52-.52 2.18zm1.05-4.36-2.14-.52.52-2.18 2.14.52-.52 2.18zm1.05-4.37-2.14-.52.52-2.18 2.14.52-.52 2.18zm1.04-4.37-2.14-.52.52-2.18 2.14.52-.52 2.18zm1.04-4.37-2.14-.51.52-2.19 2.14.51-.52 2.19zm1.05-4.37-2.14-.52.52-2.18 2.14.52-.52 2.18zm1.05-4.36-2.14-.52.52-2.18 2.14.52-.52 2.18zm1.04-4.37-2.14-.51.52-2.19 2.14.51-.52 2.19zm1.05-4.37-2.14-.51.52-2.18 2.14.51-.52 2.18zm1.04-4.36-2.14-.52.52-2.18 2.14.52-.52 2.18zm1.05-4.37-2.14-.52.52-2.18 2.14.52-.52 2.18zm1.04-4.37-2.14-.52.52-2.18 2.14.52-.52 2.18zm1.05-4.36-2.14-.52.52-2.18 2.14.52-.52 2.18zm1.05-4.38-2.14-.51.52-2.18 2.14.51-.52 2.18zm1.04-4.36-2.14-.52.52-2.18 2.14.52-.52 2.18zm1.05-4.37-2.14-.51.52-2.19 2.14.51-.52 2.19zm1.04-4.37-2.14-.52.52-2.18 2.14.52-.52 2.18zm1.05-4.36-2.14-.52.52-2.18 2.14.52-.52 2.18zm1.04-4.37-2.14-.51.52-2.19 2.14.51-.52 2.19zm1.05-4.37-2.14-.52.52-2.18 2.14.52-.52 2.18zm1.04-4.36-2.14-.52.52-2.18 2.14.52-.52 2.18zm1.05-4.37-2.14-.52.52-2.18 2.14.52-.52 2.18zm1.05-4.37-2.14-.51.52-2.18 2.14.51-.52 2.18zm1.04-4.37-2.14-.52.52-2.18 2.14.52-.52 2.18zm1.04-4.37-2.14-.52.52-2.18 2.14.52-.52 2.18zm1.05-4.36-2.14-.52.52-2.18 2.14.52-.52 2.18zm1.05-4.37-2.14-.51.52-2.19 2.14.51-.52 2.19zm1.04-4.37-2.14-.51.52-2.18 2.14.51-.52 2.18zm1.05-4.36-2.14-.52.52-2.18 2.14.52-.52 2.18zm1.04-4.37-2.14-.51.52-2.19 2.14.51-.52 2.19zm1.05-4.37-2.14-.52.52-2.18 2.14.52-.52 2.18zm1.04-4.36-2.14-.52.52-2.18 2.14.52-.52 2.18zm1.05-4.38-2.14-.52.52-2.18 2.14.52-.52 2.18zm1.04-4.36-2.14-.52.52-2.18 2.14.52-.52 2.18zm1.05-4.37-2.14-.52.52-2.18 2.14.52-.52 2.18zm1.05-4.37-2.14-.52.52-2.18 2.14.52-.52 2.18zm1.04-4.37-2.14-.51.52-2.18 2.14.51-.52 2.18zm1.04-4.36-2.14-.51.52-2.19 2.14.51-.52 2.19zm1.05-4.37-2.14-.52.52-2.18 2.14.52-.52 2.18zm1.05-4.36-2.14-.52.52-2.18 2.14.52-.52 2.18zm1.04-4.37-2.14-.51.52-2.19 2.14.51-.52 2.19zm1.05-4.37-2.14-.51.52-2.18 2.14.51-.52 2.18zm1.04-4.37-2.14-.52.52-2.18 2.14.52-.52 2.18zm1.05-4.37-2.14-.51.52-2.19 2.14.51-.52 2.19zm1.04-4.36-2.14-.52.52-2.18 2.14.52-.52 2.18zm1.05-4.37-2.14-.52.52-2.18 2.14.52-.52 2.18zm1.04-4.37-2.14-.52.52-2.18 2.14.52-.52 2.18zm1.05-4.36-2.14-.52.52-2.18 2.14.52-.52 2.18zm1.05-4.37-2.14-.52.52-2.18 2.14.52-.52 2.18zm1.04-4.37-2.14-.52.52-2.18 2.14.52-.52 2.18zm1.05-4.37-2.14-.51.52-2.18 2.14.51-.52 2.18zm1.04-4.36-2.14-.51.52-2.19 2.14.51-.52 2.19zm1.05-4.37-2.14-.52.52-2.18 2.14.52-.52 2.18zm1.04-4.37-2.14-.52.52-2.18 2.14.52-.52 2.18zm1.05-4.37-2.14-.51.52-2.19 2.14.51-.52 2.19zm1.04-4.36-2.14-.52.52-2.18 2.14.52-.52 2.18zm1.05-4.37-2.14-.52.52-2.18 2.14.52-.52 2.18zm1.04-4.37-2.14-.51.52-2.19 2.14.51-.52 2.19zm1.05-4.36-2.14-.52.52-2.18 2.14.52-.52 2.18zm1.05-4.37-2.14-.52.52-2.18 2.14.52-.52 2.18zm1.04-4.37-2.14-.52.52-2.18 2.14.52-.52 2.18zm1.05-4.37-2.14-.52.52-2.18 2.14.52-.52 2.18zm1.04-4.36-2.14-.52.52-2.18 2.14.52-.52 2.18zm1.05-4.37-2.14-.52.52-2.18 2.14.52-.52 2.18zm1.05-4.37-2.14-.51.52-2.18 2.14.51-.52 2.18zm1.04-4.37-2.14-.51.52-2.19 2.14.51-.52 2.19zm1.04-4.36-2.14-.52.52-2.18 2.14.52-.52 2.18zm1.05-4.37-2.14-.52.52-2.18 2.14.52-.52 2.18zm1.05-4.37-2.14-.51.52-2.19 2.14.51-.52 2.19zm1.04-4.36-2.14-.52.52-2.18 2.14.52-.52 2.18zm1.04-4.37-2.14-.52.52-2.18 2.14.52-.52 2.18zm1.05-4.37-2.14-.52.52-2.18 2.14.52-.52 2.18zm1.05-4.37-2.14-.52.52-2.18 2.14.52-.52 2.18zm1.04-4.36-2.14-.52.52-2.18 2.14.52-.52 2.18zm1.05-4.37-2.14-.52.52-2.18 2.14.52-.52 2.18zm1.04-4.37-2.14-.52.52-2.18 2.14.52-.52 2.18zm1.05-4.37-2.14-.51.52-2.19 2.14.51-.52 2.19zm1.05-4.36-2.14-.52.52-2.18 2.14.52-.52 2.18zm1.04-4.37-2.14-.51.52-2.18 2.14.51-.52 2.18zm1.04-4.37-2.14-.51.52-2.19 2.14.51-.52 2.19zm1.05-4.36-2.14-.52.52-2.18 2.14.52-.52 2.18zm1.05-4.37-2.14-.52.52-2.18 2.14.52-.52 2.18zm1.04-4.37-2.14-.51.52-2.19 2.14.51-.52 2.19zm1.04-4.37-2.14-.52.52-2.18 2.14.52-.52 2.18zm1.05-4.36-2.14-.52.52-2.18 2.14.52-.52 2.18zm1.05-4.37-2.14-.52.52-2.18 2.14.52-.52 2.18zm1.04-4.37-2.14-.52.52-2.18 2.14.52-.52 2.18zm1.05-4.36-2.14-.52.52-2.18 2.14.52-.52 2.18zm1.04-4.37-2.14-.52.52-2.18 2.14.52-.52 2.18zm1.05-4.37-2.14-.52.52-2.18 2.14.52-.52 2.18zm1.05-4.37-2.14-.51.52-2.19 2.14.51-.52 2.19zm1.04-4.37-2.14-.52.52-2.18 2.14.52-.52 2.18zm1.05-4.37-2.14-.51.52-2.18 2.14.51-.52 2.18zm1.04-4.36-2.14-.51.52-2.19 2.14.51-.52 2.19zm1.05-4.37-2.14-.52.52-2.18 2.14.52-.52 2.18zM151.21 214.71c-.52.43-1.19.88-1.99 1.36-.91.55-1.51.85-1.79.89-.04.01-.08.01-.14.01-.32 0-.6-.18-.83-.54-.2-.32-.31-.63-.31-.94 0-.28.14-.44.42-.46.02 0 .06 0 .12-.01a.67.67 0 0 1 .2 0c-.02 0 .14.01.48.04.33.02.52.02.58 0 .4-.15.92-.42 1.56-.81.93-.57 1.66-1.14 2.19-1.7-.19-.13-.29-.32-.31-.57-.02-.3.16-.59.54-.87.35-.26.68-.39 1-.39.51 0 .78.25.81.74.11.04.41-.09.88-.41.14-.12.39-.31.76-.56.11-.02.21-.03.29-.03.11 0 .19.01.24.04.19.11.32.26.39.46.02.18-.02.38-.14.58-.12.21-.18.33-.17.37.01.08.05.12.14.13.36.02.89-.34 1.62-1.1.3-.23.52-.35.65-.34.19.01.39.18.61.53.11.17.08.39-.07.65-.45.73-1.08 1.27-1.91 1.62-.4.17-.77.26-1.1.27-.65.03-1.03-.23-1.13-.79-.26.01-.73 0-1.41-.01-.18.2-.91.81-2.18 1.84zm2.65-10.11c-.61-.05-.96-.1-1.03-.14-.28-.17-.42-.39-.42-.65 0-.36.19-.61.57-.78.46-.08.83-.11 1.12-.08.36.04.77.13 1.24.3.33.11.63.32.89.61.2.23.31.5.31.81 0 .45-.23.92-.69 1.42-.36.4-.78.73-1.26 1-.76.43-1.41.67-1.94.72a.87.87 0 0 1-.64-.18c-.17-.14-.26-.34-.26-.6 0-.39.19-.61.58-.67.34-.05.65-.14.95-.29.21-.1.49-.27.85-.5.49-.31.73-.55.73-.71-.01-.11-.34-.21-1-.26zm13.4 6.24c.17-.08.29-.13.35-.15.14-.06.31.04.5.29.13.17.19.33.2.5.01.13-.11.3-.35.51-.69.58-1.67 1.23-2.95 1.95-1.79 1.01-2.97 1.52-3.51 1.55a.816.816 0 0 1-.6-.23c-.19-.17-.28-.35-.28-.56 0-.11.22-.41.65-.88.33-.53.51-.98.57-1.36l-.05-.98c-.02-.46.09-.74.33-.83.22-.08.4-.11.54-.09.37.06.58.36.62.9.03.34.05.54.05.62 0 .55-.13 1.03-.39 1.42.52-.19 1.96-1.08 4.32-2.66zm-1.12-6.24c-.61-.05-.96-.1-1.03-.14-.28-.17-.42-.39-.42-.65 0-.36.19-.61.57-.78.46-.08.83-.11 1.12-.08.36.04.77.13 1.24.3.33.11.63.32.89.61.2.23.31.5.31.81 0 .45-.23.92-.69 1.42-.36.4-.78.73-1.26 1-.76.43-1.41.67-1.94.72a.87.87 0 0 1-.64-.18c-.17-.14-.26-.34-.26-.6 0-.39.19-.61.58-.67.34-.05.65-.14.95-.29.21-.1.49-.27.85-.5.49-.31.73-.55.73-.71-.01-.11-.34-.21-1-.26zm6.91 8.51c-.06-.14-.09-.29-.09-.46 0-.4.17-.67.51-.78.07-.05.17-.07.3-.07.23 0 .67.12 1.33.35l1.8-.94c.93-.49 1.43-.75 1.49-.78.08-.06.17-.09.27-.09.36 0 .57.2.63.61.01.07.02.14.02.19 0 .14-.15.31-.45.5-1.17.54-1.93.91-2.28 1.12.54.13.95.31 1.23.55.1.14.15.29.16.44.02.29-.04.51-.2.68-.22.24-.53.3-.91.2-.4-.1-.66-.17-.79-.21-.33-.09-.7-.2-1.11-.34-1.29.89-2.3 1.54-3.01 1.96-1.31.78-2.25 1.19-2.81 1.26-.18.02-.37-.08-.58-.28-.28-.28-.42-.68-.42-1.17 0-.32.21-.48.62-.48.09 0 .23.01.42.03.19.02.33.03.42.03.19 0 .36-.02.51-.07.64-.3 1.13-.54 1.46-.73.62-.36 1.22-.76 1.81-1.19-.2-.16-.3-.26-.33-.33zm5.25-11.08c.18 0 .34.08.47.26s.2.35.2.54c0 .11-.09.28-.28.49-.05.09-.61.42-1.67.99l-2.3 1.24c-.51.28-.85.43-1.01.47-.1.05-.2.07-.31.07-.17 0-.29-.06-.34-.18-.14-.33-.22-.53-.22-.59 0-.35.2-.57.61-.67 1.52-.74 3.03-1.58 4.53-2.52.11-.06.21-.1.32-.1zm1.07 1.91c.18 0 .34.09.47.26.13.17.2.35.2.54 0 .1-.08.24-.24.42-.04.07-.27.23-.69.47l-3.32 1.83c-.5.27-.84.43-1.01.47-.1.05-.2.07-.31.07-.17 0-.29-.06-.34-.18-.14-.33-.22-.53-.22-.59 0-.35.2-.57.61-.67 1.52-.74 3.03-1.58 4.53-2.52.11-.07.22-.1.32-.1zm8.48 6.58c.28.01.53.09.74.24.43.31.73.73.89 1.24.02.19.04.29.04.31-.02.67-.26 1.25-.73 1.73-.55.43-1.25.63-2.11.6-.75-.02-1.43-.36-2.03-1.01-.42.15-.82.33-1.22.53-.02.01-.04.03-.04.06 0 .01.13.19.39.56.26.36.39.61.38.74-.02.48-.32.88-.9 1.22-.39.22-1.03.43-1.91.63-.26.06-.61.11-1.05.15-.17.02-.34-.1-.51-.35-.14-.21-.22-.41-.24-.61-.05-.46.07-.69.37-.69.13 0 .33.04.61.12.28.08.48.12.62.12.05 0 .16-.01.34-.03.02-.01.09-.03.19-.04.11-.04.25-.09.41-.15.31-.12.46-.24.46-.37 0-.04-.16-.25-.47-.61-.29-.34-.43-.58-.43-.74 0-.11.04-.23.13-.36.05-.14.25-.33.6-.57 1.34-.9 2.88-1.74 4.62-2.5.31-.15.6-.22.85-.22zm-.28-5.92c-.61-.05-.96-.1-1.03-.14-.28-.17-.42-.39-.42-.65 0-.36.19-.61.57-.78.46-.08.83-.11 1.12-.08.36.04.77.13 1.24.3.33.11.63.32.89.61.2.23.31.5.31.81 0 .45-.23.92-.69 1.42-.36.4-.78.73-1.26 1-.76.43-1.41.67-1.94.72a.87.87 0 0 1-.64-.18c-.17-.14-.26-.34-.26-.6 0-.39.19-.61.58-.67.34-.05.65-.14.95-.29.21-.1.49-.27.85-.5.49-.31.73-.55.73-.71-.01-.11-.34-.21-1-.26zm-1.26 8.31c.01.06.13.13.35.2.17.05.38.07.61.06.23-.01.43-.06.59-.17.17-.11.26-.23.28-.38.01-.34-.15-.51-.48-.5-.15.01-.39.08-.73.23-.41.22-.61.41-.62.56zm126.3 42.63c-.52.43-1.19.88-1.99 1.36-.91.55-1.51.85-1.79.89-.04.01-.08.01-.14.01-.32 0-.6-.18-.83-.54-.2-.32-.31-.63-.31-.94 0-.28.14-.44.42-.46.02 0 .06 0 .12-.01a.67.67 0 0 1 .2 0c-.02 0 .14.01.48.04.33.02.52.02.58 0 .4-.15.92-.42 1.56-.81.93-.57 1.66-1.14 2.19-1.7-.19-.13-.29-.32-.31-.57-.02-.3.16-.59.54-.87.35-.26.68-.39 1-.39.51 0 .78.25.81.74.11.04.41-.09.88-.41.14-.12.39-.31.76-.56.11-.02.21-.03.29-.03.11 0 .19.01.24.05.19.11.32.26.39.46.02.18-.02.38-.14.58s-.18.33-.17.37c.01.08.05.12.14.13.36.02.89-.34 1.62-1.1.3-.24.52-.35.65-.34.19.01.39.18.61.53.11.17.08.39-.07.65-.45.73-1.08 1.27-1.91 1.62-.4.17-.77.26-1.1.27-.65.03-1.03-.23-1.13-.79-.26.01-.73 0-1.41-.01-.18.18-.91.79-2.18 1.83zm4.41-11.61c.7.01 1.22.35 1.55 1.01.06.21.09.44.09.71 0 .57-.14 1.06-.43 1.45-.72.98-1.88 1.54-3.5 1.67-.77-.03-1.31-.27-1.61-.73-.17-.36-.25-.69-.25-1.01 0-.54.25-1.07.75-1.61.95-1.02 2.08-1.51 3.4-1.49zm-2.51 3.02c.08.13.26.22.51.29h.29c.11 0 .23 0 .36-.01.7-.29 1.19-.63 1.45-1.01.03-.08.05-.16.05-.24 0-.37-.3-.54-.9-.51-.36.09-.61.18-.76.28-.33.16-.59.34-.76.53-.18.2-.27.37-.27.52-.01.05 0 .1.03.15zm13.75 4.53c.11-.02.19-.03.24-.03.04-.01.08-.02.12-.02.16 0 .3.09.41.26.1.15.14.31.14.48 0 .22-.09.37-.28.47l-.65.25c-.22.08-.56.21-1 .37-.23.08-.35.15-.35.2 0 .01 0 .02.01.04-.01.02-.02.04-.03.05 0 .05.14.2.43.45.22.19.36.46.4.79.02.18.02.33-.02.45-.12.4-.39.75-.8 1.05-.37.26-.78.44-1.23.52-.81.16-1.48.24-2.03.26-.9.04-1.42.01-1.54-.08-.27-.11-.41-.46-.41-1.03 0-.3.09-.45.26-.48.07-.01.27.04.61.16.34.12.59.18.73.18.31 0 .58-.01.8-.05.59-.08.95-.14 1.08-.2.58-.13.87-.36.87-.68-.07-.12-.31-.3-.72-.55-.33-.2-.5-.45-.5-.77 0-.56.77-1.12 2.31-1.69.56-.17.94-.31 1.15-.4zm.65-6.84c.18 0 .34.09.47.26.13.17.2.35.2.54 0 .19-.09.34-.27.45-.72.45-1.52.92-2.41 1.41l-1.57.86c-.5.27-.84.43-1.01.47-.1.05-.2.07-.31.07-.17 0-.29-.06-.34-.18-.14-.33-.22-.53-.22-.59 0-.35.2-.57.61-.67 1.52-.74 3.03-1.58 4.53-2.52.11-.07.22-.1.32-.1zm6.44 9.92c-.43.03-.73.05-.89.05-.4 0-.6-.22-.6-.66 0-.37.24-.62.72-.74l.88-.23c1.02-.46 1.65-.89 1.91-1.3.14-.23.37-.34.68-.34.1.02.22.08.37.18.27.19.39.42.37.71-.12.19-.23.33-.34.41-.26.19-.43.32-.51.38 1.23-.14 1.98-.23 2.23-.26.26.04.39.2.39.5 0 .24-.04.4-.13.49l-.51.33c-1.94 1.22-3.63 2.26-5.08 3.11-1.69 1-2.82 1.66-3.37 1.99-.34.19-.76.42-1.27.7-.09.05-.18.07-.28.07-.26 0-.5-.19-.7-.56-.17-.32-.25-.63-.25-.92 0-.3.13-.44.39-.44.1 0 .24.01.42.03.18.02.32.03.42.03.3 0 .56-.05.8-.16.04-.01.06-.02.07-.03h.01v.01c.01 0 .02-.01.03-.02l.71-.38c1.59-.85 3.34-1.9 5.25-3.15-.84.08-1.42.15-1.72.2zm.98 6.33c.18 0 .34.09.47.26.13.17.2.35.2.54 0 .1-.09.25-.28.46-.2.16-.68.45-1.45.88l-2.53 1.38c-.49.27-.83.43-1.01.47-.1.05-.2.07-.31.07-.17 0-.29-.06-.34-.18-.14-.33-.22-.53-.22-.59 0-.35.2-.57.61-.67 1.52-.74 3.03-1.58 4.53-2.52.12-.06.23-.1.33-.1zm12.12-6.42c.27-.55.41-.92.41-1.12 0-.05-.02-.08-.05-.08-.01 0-.03.01-.05.02-.38.27-.81.57-1.3.92-.98.7-1.63 1.15-1.98 1.35l-1.63.93c-.39.22-.76.39-1.1.51-.05.02-.11.03-.17.03-.19 0-.39-.1-.6-.32-.33-.34-.49-.72-.49-1.14 0-.16.04-.29.12-.41.12-.14.33-.21.64-.21.09 0 .22 0 .39.01s.3.01.39.01c.19 0 .35-.02.49-.05.06-.03.1-.05.13-.05l.4-.22c.66-.36 1.1-.62 1.33-.77l2.48-1.67c.66-.44 1.06-.68 1.2-.72.21-.06.45-.01.71.14.39.23.59.6.59 1.13 0 .47-.14 1.05-.41 1.73-.4 1.01-.81 1.74-1.23 2.2-.08.08-.19.13-.33.13-.19 0-.38-.07-.58-.22-.22-.16-.33-.32-.33-.5s.06-.32.17-.42c.25-.21.52-.62.8-1.21zm-.13-9.05c-.61-.05-.96-.1-1.03-.14-.28-.18-.42-.39-.42-.65 0-.36.19-.62.57-.78.46-.08.83-.11 1.12-.08.36.04.77.14 1.24.3.33.11.63.32.89.61.2.23.31.5.31.81 0 .44-.23.92-.69 1.42-.36.4-.78.73-1.26 1-.76.43-1.41.68-1.94.72-.25.02-.47-.03-.64-.18-.17-.14-.26-.34-.26-.6 0-.39.19-.61.58-.67.34-.05.65-.14.95-.29.21-.1.49-.27.85-.5.49-.31.73-.55.73-.71-.01-.11-.34-.2-1-.26zm112.55 135.29c.57-.05.85-.23.85-.54 0-.23-.13-.38-.39-.47-.31-.1-.7-.21-1.17-.32-.4-.16-.61-.35-.61-.56 0-.58.29-.85.86-.79.13.01.25.02.36.02.39 0 1.01-.19 1.84-.57a.9.9 0 0 1 .36-.06.6.6 0 0 1 .47.22c.13.15.19.31.19.49 0 .21-.11.37-.34.51-.2.09-.4.18-.6.28.37.33.56.75.58 1.28.01.37-.14.71-.46 1-.69.64-1.69.96-3 .96-.13 0-.43-.01-.89-.03-1.92 1.59-3.26 2.61-4.01 3.06-1.22.73-2.01 1.08-2.37 1.04-.2-.04-.41-.26-.61-.64-.18-.36-.27-.65-.27-.89 0-.2.06-.35.17-.44a.79.79 0 0 1 .38-.09c.1 0 .26.02.47.05.21.03.37.05.47.05.34 0 .67-.1.98-.31 1.45-.93 2.48-1.64 3.1-2.12a.896.896 0 0 1-.11-.36c0-.3.07-.53.22-.71.37-.47.82-.7 1.33-.68.64.02 1.01.26 1.13.7.47-.03.82-.06 1.07-.08zm-1.76-9.45c-.61-.05-.96-.1-1.03-.14-.28-.17-.42-.39-.42-.65 0-.36.19-.61.57-.78.46-.08.83-.11 1.12-.08.36.04.77.13 1.24.3.33.11.63.32.89.61.2.23.31.5.31.81 0 .45-.23.92-.69 1.42-.36.4-.78.73-1.26 1-.76.43-1.41.67-1.94.72a.87.87 0 0 1-.64-.18c-.17-.14-.26-.34-.26-.6 0-.39.19-.61.58-.67.34-.05.65-.14.95-.29.21-.1.49-.27.85-.5.49-.31.73-.55.73-.71 0-.11-.33-.2-1-.26zm4.53.03c-.61-.05-.96-.1-1.03-.14-.28-.17-.42-.39-.42-.65 0-.36.19-.61.57-.78.46-.08.83-.11 1.12-.08.36.03.77.13 1.24.3.33.11.63.32.89.61.2.23.31.5.31.81 0 .45-.23.92-.69 1.42-.36.4-.78.73-1.26 1-.76.43-1.41.68-1.94.72a.87.87 0 0 1-.64-.18c-.17-.14-.26-.34-.26-.6 0-.39.19-.61.58-.67.34-.05.65-.14.95-.29.21-.1.49-.27.85-.5.49-.31.73-.55.73-.7-.01-.12-.34-.22-1-.27zm7.9 5.41c.17 0 .33.07.47.22.15.15.22.31.22.47 0 .11-.28.41-.85.88-.2.17-.32.33-.34.47-.04.21.02.37.17.49.23.17.4.26.5.26.03 0 .12-.02.27-.05.29-.07.6-.17.91-.28.4-.14.65-.23.75-.26.19-.01.33.04.42.15.13.05.2.21.2.47 0 .22-.2.44-.61.67-1.58.88-2.64 1.47-3.17 1.76l-1.82 1.03c-.98.55-1.64.87-1.98.95-.25.06-.42.08-.5.05-.16-.05-.32-.16-.49-.34-.17-.18-.28-.35-.31-.51-.1-.48-.02-.75.24-.79.06-.02.16-.03.29-.03.07 0 .17 0 .3.01s.23.01.3.01c.17 0 .31-.01.42-.04.29-.13.72-.33 1.27-.61 1.01-.52 1.79-.95 2.34-1.28-.29-.07-.54-.21-.76-.42-.23-.23-.35-.49-.35-.77 0-.64.58-1.42 1.73-2.31.16-.14.29-.2.38-.2zm1.88-6.15c.18 0 .34.09.47.26.13.17.2.35.2.54 0 .19-.09.34-.27.45-.72.45-1.52.92-2.41 1.41l-1.57.86c-.5.27-.84.43-1.01.47-.1.05-.2.07-.31.07-.17 0-.29-.06-.34-.18-.14-.33-.22-.53-.22-.59 0-.35.2-.57.61-.67 1.52-.74 3.03-1.58 4.53-2.52.11-.07.22-.1.32-.1zm9.84 8.35c0-.16-.24-.23-.71-.23l-1.3.14c-.07 0-.21.03-.42.08-.17.04-.32.05-.42.05-.15 0-.27-.04-.36-.13-.14-.19-.21-.39-.21-.61 0-.14.03-.28.09-.43.06-.33.66-.53 1.81-.61.29-.02.83.02 1.63.13.88.11 1.4.34 1.57.68.15.31.2.6.14.87-.04.21-.09.37-.15.47-.2.27-.4.49-.61.67-.4.35-.78.64-1.14.87-.81.52-1.93 1.11-3.36 1.76-.74.34-1.48.65-2.2.94-.33.13-.62.11-.88-.06-.39-.42-.59-.83-.59-1.22 0-.35.19-.52.58-.52.1 0 .24.02.43.05.19.03.34.04.43.04.16 0 .3-.02.42-.06.63-.22.95-.34.96-.34.63-.25 1.33-.58 2.1-1 1.16-.63 1.89-1.09 2.17-1.39.02-.06.02-.1.02-.15zm1.87-8.95c.48.08.72.32.72.71.01.41-.55.79-1.68 1.13-.54.16-.92.45-1.14.87.13.16.37.27.72.33.33.02.74.08 1.26.18.28.12.38.37.32.75-.09.49-.44.74-1.05.74-.48 0-1.07-.13-1.77-.4-.53-.2-.87-.51-1.03-.94-.73.63-1.8 1.02-3.21 1.19-.26.03-.51 0-.75-.1-.3-.12-.45-.3-.45-.54 0-.44.21-.71.62-.81.3 0 .69-.05 1.19-.15.7-.14 1.2-.37 1.48-.69-.05-.23-.34-.42-.87-.57-.13-.02-.46-.07-1.01-.13-.31-.1-.46-.28-.46-.56 0-.04.01-.11.03-.21.1-.54.47-.79 1.09-.75.36.02.72.08 1.07.18.7.19 1.26.63 1.67 1.31.4-.48.78-.81 1.13-1 .39-.21.99-.39 1.81-.55.09-.01.19-.01.31.01z"/><path d="M137.89 482.85c.88-.03 1.57-.26 2.09-.7.31-.41.68-.61 1.11-.61.31 0 .59.13.84.39s.38.54.38.85c0 .22-.06.44-.18.67-.56.72-1.26 1.19-2.09 1.42-.58.16-1.44.24-2.59.24-.38 0-.89-.03-1.52-.1-.73.73-1.98 1.75-3.75 3.08-1.42 1.06-3.14 2.02-5.19 2.89-.39.1-.67.13-.84.09-.45-.1-.89-.6-1.32-1.51-.07-.15-.11-.36-.12-.64-.01-.29.04-.47.15-.54.22-.13.57-.19 1.06-.18.8.02 1.33-.02 1.58-.12.95-.36 2-.91 3.15-1.64 1.15-.74 2.08-1.46 2.79-2.17-.28-.19-.42-.47-.42-.85 0-.62.36-1.1 1.09-1.45.42-.2.79-.27 1.12-.22.28.1.48.19.6.27.27.18.46.43.57.76.71.05 1.21.08 1.49.07zm-3.88 13.62c.3 0 .56.14.78.43.22.28.33.58.33.89 0 .16-.15.41-.46.76-.33.27-1.13.75-2.39 1.45l-4.19 2.29c-.82.45-1.38.71-1.67.78-.17.08-.34.12-.51.12-.29 0-.48-.1-.57-.3-.24-.55-.36-.87-.36-.97 0-.58.34-.95 1.02-1.11 2.51-1.23 5.01-2.62 7.51-4.17.16-.12.34-.17.51-.17zm13.33-9.33c0-.59.39-1.01 1.17-1.26.69-.22 1.4-.5 2.14-.84-.45-.21-.81-.39-1.08-.55-.59-.36-.91-.64-.97-.85-.09-.3-.08-.57.01-.82.11-.29.32-.45.63-.48 1.2-.11 2.23-.48 3.11-1.12.44-.32.84-.48 1.2-.48.08 0 .14.01.19.04.3.19.5.43.6.73.03.09.04.34.04.75-.01 0-.04.05-.1.15-.12.2-.29.36-.51.48-.21.18-.36.3-.46.36-.36.22-.56.34-.61.37-.27.15-.4.26-.4.33.01.03.09.06.25.1.86.24 1.29.61 1.29 1.12 0 .09-.06.25-.18.48-.23.25-.41.42-.55.52-.65.48-1.14.81-1.48.99-.32.24-.48.32-.48.25.01.05.16.22.45.51.16.24.26.39.3.46.01.07.01.13.01.19 0 .42-.41.88-1.23 1.38-6.41 3.89-10.07 5.87-10.99 5.95-.39.03-.78-.25-1.17-.85-.35-.52-.54-1-.58-1.44-.07-.69.22-1.03.88-1.03.19 0 .4.01.63.04.08.01.42.01 1.03.01.32 0 .64-.05.97-.15 1.26-.55 2.25-1.03 2.99-1.44 1.78-1 3.19-1.83 4.23-2.51-.89-.53-1.33-1-1.33-1.39zm6.22-16.28c-1.02-.08-1.58-.16-1.7-.24-.46-.29-.69-.65-.69-1.08 0-.59.31-1.02.94-1.29.76-.14 1.38-.18 1.85-.13.59.06 1.27.22 2.05.49.55.19 1.04.53 1.48 1.02.34.38.51.83.51 1.35 0 .74-.38 1.52-1.14 2.35-.6.66-1.3 1.21-2.09 1.66-1.26.72-2.33 1.12-3.21 1.2-.42.04-.77-.06-1.06-.3-.29-.24-.43-.57-.43-.99 0-.65.32-1.02.96-1.11.56-.08 1.08-.24 1.57-.48.35-.17.82-.44 1.41-.82.81-.52 1.21-.91 1.21-1.17-.02-.22-.57-.37-1.66-.46zm11.81 14.08c-.1-.23-.15-.48-.15-.76 0-.67.28-1.1.85-1.3.11-.08.27-.12.49-.12.38 0 1.11.19 2.2.58l2.98-1.55c1.54-.81 2.37-1.24 2.47-1.29.13-.1.28-.15.45-.15.59 0 .94.33 1.05 1 .02.12.03.22.03.31 0 .24-.25.51-.75.82-1.93.89-3.19 1.51-3.77 1.85.89.21 1.56.51 2.03.91.16.24.25.48.27.73.04.48-.07.85-.33 1.12-.37.39-.87.5-1.51.33-.66-.17-1.1-.28-1.32-.34-.55-.15-1.16-.34-1.84-.57-2.14 1.47-3.8 2.55-4.98 3.24-2.17 1.29-3.72 1.98-4.65 2.08-.3.03-.62-.12-.96-.46-.47-.47-.7-1.12-.7-1.94 0-.53.34-.79 1.03-.79.15 0 .38.01.69.04s.54.04.69.04c.32 0 .6-.04.84-.12 1.06-.49 1.86-.89 2.42-1.21 1.03-.6 2.02-1.26 2.99-1.97-.29-.18-.47-.35-.52-.48zm7.36-15.38c.3 0 .56.14.78.43s.33.58.33.89c0 .31-.15.56-.45.75-1.19.75-2.52 1.52-3.99 2.33l-2.6 1.42c-.83.45-1.39.71-1.67.78-.17.08-.34.12-.51.12-.29 0-.48-.1-.57-.3-.24-.55-.36-.87-.36-.97 0-.58.34-.95 1.02-1.11 2.51-1.23 5.01-2.62 7.51-4.17.17-.12.34-.17.51-.17zm19.16 11.72c.31 0 .57.17.79.52.14.22.21.4.22.54.04.5-.39 1.02-1.3 1.57l-5.25 3.2c-2.04 1.25-3.84 2.17-5.38 2.78-.43.17-.69.25-.79.25-.99.11-1.6-.44-1.85-1.66-.03-.15-.04-.29-.04-.42 0-.49.25-.73.76-.73.16 0 .4.02.73.06.33.04.57.06.73.06.45 0 .84-.09 1.17-.27.34-.04 1.79-.83 4.35-2.36 2.11-1.27 3.63-2.23 4.56-2.89.62-.43 1.05-.65 1.3-.65zm-3.93-6.62c.26 0 .46.16.6.49.12.27.17.54.15.82-.03.39-.38.76-1.05 1.11-.53.28-1.13.42-1.79.42-1.07 0-1.89-.29-2.47-.87-.48-.6-.7-1.31-.67-2.14.03-.76.23-1.49.6-2.18.93-1.75 2.56-3.46 4.89-5.13 2.64-1.88 5.02-2.83 7.13-2.83.93 0 1.69.27 2.28.82s.89 1.28.89 2.2c0 2.16-1.75 4.19-5.25 6.07-.45.24-1.06.53-1.84.87-.23.1-.47.15-.73.15-.59 0-.88-.36-.88-1.09 0-.52.26-.85.78-1 1.16-.59 2.4-1.28 3.74-2.08.37-.22.76-.59 1.18-1.11.49-.61.73-1.14.73-1.6 0-.7-.41-1.05-1.24-1.05-1.94.29-3.96 1.21-6.05 2.75-2.18 1.61-3.52 3.23-4.02 4.84-.03.1-.04.2-.04.31 0 .53.37.79 1.12.79.49 0 1.06-.17 1.72-.52.06-.02.14-.04.22-.04zm126 42.73c.94-.09 1.41-.39 1.41-.9 0-.38-.21-.64-.64-.78-.52-.17-1.17-.34-1.94-.52-.67-.27-1-.58-1-.93 0-.97.47-1.41 1.42-1.32.21.02.41.03.6.03.65 0 1.66-.31 3.05-.94.15-.07.35-.1.6-.1.3 0 .56.12.77.37.21.24.32.52.32.81 0 .34-.19.62-.57.84-.33.15-.66.3-.99.46.61.54.93 1.25.96 2.12.02.62-.23 1.17-.76 1.66-1.15 1.06-2.8 1.58-4.96 1.58-.22 0-.71-.01-1.48-.04-3.18 2.63-5.39 4.32-6.64 5.07-2.01 1.21-3.32 1.78-3.92 1.72-.34-.07-.67-.42-1-1.06-.3-.59-.45-1.08-.45-1.48 0-.33.09-.57.28-.73.19-.1.4-.15.63-.15.17 0 .43.03.78.08.35.05.61.08.78.08.56 0 1.1-.17 1.63-.51 2.39-1.54 4.1-2.72 5.13-3.51-.12-.24-.18-.44-.18-.6 0-.49.12-.88.36-1.18.62-.78 1.35-1.15 2.2-1.12 1.06.04 1.68.42 1.87 1.15.73-.02 1.32-.06 1.74-.1zm-2.92-15.63c-1.02-.08-1.58-.16-1.7-.24-.46-.29-.69-.65-.69-1.08 0-.59.31-1.02.94-1.29.76-.14 1.38-.18 1.85-.13.59.06 1.27.22 2.05.49.55.19 1.04.53 1.48 1.02.34.38.51.83.51 1.35 0 .74-.38 1.52-1.14 2.35-.6.66-1.3 1.21-2.09 1.66-1.26.72-2.33 1.12-3.21 1.2-.42.04-.77-.06-1.06-.3-.29-.24-.43-.57-.43-.99 0-.65.32-1.02.96-1.11.56-.08 1.08-.24 1.57-.48.35-.17.82-.44 1.41-.82.81-.52 1.21-.91 1.21-1.17-.01-.22-.56-.38-1.66-.46zm7.49.04c-1.02-.08-1.58-.16-1.7-.24-.46-.29-.69-.65-.69-1.08 0-.59.31-1.02.94-1.29.76-.14 1.38-.18 1.85-.13.59.06 1.27.22 2.05.49.55.19 1.04.53 1.48 1.02.34.38.51.83.51 1.35 0 .74-.38 1.52-1.14 2.35-.6.66-1.3 1.21-2.09 1.66-1.26.72-2.33 1.12-3.21 1.2-.42.04-.77-.06-1.06-.3-.29-.24-.43-.57-.43-.99 0-.65.32-1.02.96-1.11.56-.08 1.08-.24 1.57-.48.35-.17.82-.44 1.41-.82.81-.52 1.21-.91 1.21-1.17-.01-.22-.56-.37-1.66-.46zm9.52 16.82c-.87.71-1.96 1.46-3.29 2.26-1.51.91-2.49 1.4-2.96 1.48-.06.01-.13.01-.22.01-.53 0-.99-.3-1.38-.9-.34-.53-.51-1.05-.51-1.55 0-.47.23-.72.7-.76.03 0 .09-.01.19-.01s.21-.01.33 0c-.04 0 .22.02.79.06.54.04.86.04.96 0 .67-.25 1.53-.7 2.59-1.35 1.53-.95 2.74-1.88 3.62-2.81-.31-.22-.48-.53-.51-.94-.04-.5.26-.98.9-1.44.58-.43 1.13-.64 1.66-.64.84 0 1.29.41 1.35 1.23.19.07.67-.15 1.45-.67.23-.2.65-.51 1.26-.93.19-.03.35-.04.48-.04.18 0 .31.02.4.07.32.18.53.43.64.76.04.3-.04.62-.24.96s-.29.55-.28.61c.01.13.09.2.24.21.59.04 1.48-.57 2.68-1.82.5-.39.86-.58 1.08-.57.31.01.65.3 1.02.88.18.29.14.65-.12 1.08-.74 1.22-1.79 2.11-3.17 2.68-.67.28-1.28.43-1.82.45-1.08.05-1.7-.38-1.87-1.3-.43.01-1.21.01-2.33-.01-.33.28-1.54 1.29-3.64 3zm7.29-19.21c1.16.02 2.01.58 2.57 1.67.1.34.15.73.15 1.17 0 .95-.24 1.75-.72 2.41-1.19 1.62-3.11 2.55-5.79 2.77-1.28-.05-2.16-.45-2.66-1.21-.28-.59-.42-1.15-.42-1.67 0-.89.41-1.77 1.24-2.66 1.58-1.7 3.45-2.52 5.63-2.48zm-4.15 4.99c.14.21.42.37.85.48h.48c.19 0 .39 0 .6-.01 1.17-.48 1.96-1.04 2.39-1.67.05-.13.07-.26.07-.39 0-.62-.5-.9-1.5-.85-.6.15-1.02.3-1.26.46-.55.26-.97.55-1.26.88-.29.33-.44.61-.44.85.01.09.03.17.07.25zM347 515.61c.03-.52.35-1.17.96-1.94 1.05-1.35 2.61-2.02 4.68-2.02.49 0 1.05.11 1.69.34 1.26.45 1.83 1.12 1.73 2-.09.77-.75 1.69-1.97 2.77-.93.81-1.89 1.54-2.9 2.2-4.15 2.7-6.96 4.2-8.43 4.49-.05.01-.11.01-.19.01-.38 0-.7-.26-.97-.79a2.47 2.47 0 0 1-.42-1.2c-.05-.59.19-.88.72-.88.17 0 .38.02.63.07.73.15 1.42.05 2.06-.3 1.64-.89 3.11-1.73 4.4-2.53-1.4-.39-2.06-1.13-1.99-2.22zm8-15.04c.3 0 .56.14.78.43s.33.58.33.89c0 .31-.15.56-.45.75-1.19.75-2.52 1.52-3.99 2.33l-2.6 1.42c-.83.45-1.39.71-1.67.78-.17.08-.34.12-.51.12-.29 0-.48-.1-.57-.3-.24-.55-.36-.87-.36-.97 0-.58.34-.95 1.02-1.11 2.51-1.23 5.01-2.62 7.51-4.17a.94.94 0 0 1 .51-.17zm-2.82 13.25c-.62.08-1.05.19-1.29.33-.78.45-1.14.87-1.08 1.27 0 .2.13.38.39.54.3.1.72.07 1.26-.09 1-.3 1.5-.8 1.5-1.5-.01-.37-.27-.55-.78-.55zm20.21-1.52c.31 0 .57.17.79.52.14.22.21.4.22.54.04.5-.39 1.02-1.3 1.57l-5.25 3.2c-2.04 1.25-3.84 2.17-5.38 2.78-.43.17-.69.25-.79.25-.99.11-1.6-.44-1.85-1.66-.03-.15-.04-.29-.04-.42 0-.49.25-.73.76-.73.16 0 .4.02.73.06.33.04.57.06.73.06.45 0 .84-.09 1.17-.27.34-.04 1.79-.83 4.35-2.36 2.11-1.27 3.63-2.23 4.56-2.89.61-.44 1.05-.65 1.3-.65zm-.24-11.73c.3 0 .56.14.78.43s.33.58.33.89c0 .31-.15.56-.45.75-1.19.75-2.52 1.52-3.99 2.33l-2.6 1.42c-.83.45-1.39.71-1.67.78-.17.08-.34.12-.51.12-.29 0-.48-.1-.57-.3-.24-.55-.36-.87-.36-.97 0-.58.34-.95 1.02-1.11 2.51-1.23 5.01-2.62 7.51-4.17.16-.11.34-.17.51-.17zm11.7 26.91c.3 0 .56.14.78.43s.33.58.33.89c0 .16-.15.41-.46.76-.33.27-1.13.75-2.39 1.45l-4.19 2.29c-.82.45-1.38.71-1.67.78-.17.08-.34.12-.51.12-.29 0-.48-.1-.57-.3-.24-.55-.36-.87-.36-.97 0-.58.34-.95 1.02-1.11 2.51-1.23 5.01-2.62 7.51-4.17a.94.94 0 0 1 .51-.17zm2.84-10.62c.45-.91.67-1.52.67-1.85 0-.09-.02-.13-.07-.13-.02 0-.04.01-.07.03-.63.44-1.35.95-2.15 1.52-1.61 1.17-2.71 1.91-3.27 2.23l-2.71 1.54c-.65.37-1.26.65-1.82.84-.09.03-.18.04-.28.04-.32 0-.65-.17-.99-.52-.54-.56-.81-1.19-.81-1.88 0-.26.06-.48.19-.67.2-.23.55-.34 1.06-.34.15 0 .37.01.65.02s.5.02.65.02c.31 0 .58-.03.81-.09.1-.05.17-.08.21-.09l.66-.36c1.09-.6 1.82-1.02 2.2-1.27l4.11-2.77c1.09-.73 1.75-1.13 1.99-1.2.35-.1.74-.02 1.18.24.65.38.97 1 .97 1.87 0 .78-.22 1.73-.67 2.87-.66 1.66-1.34 2.88-2.03 3.63-.13.14-.31.21-.55.21-.31 0-.63-.12-.96-.36-.37-.26-.55-.53-.55-.82 0-.3.09-.53.28-.7.39-.37.83-1.04 1.3-2.01z" fill="#bd0e72"/><path d="M342.79 693.78c.57-.05.85-.23.85-.54 0-.23-.13-.39-.39-.47-.31-.1-.7-.21-1.17-.32-.4-.16-.61-.35-.61-.56 0-.58.29-.85.86-.79.13.01.25.02.36.02.39 0 1.01-.19 1.84-.57a.9.9 0 0 1 .36-.06.6.6 0 0 1 .47.22c.13.15.19.31.19.49 0 .21-.11.37-.34.51-.2.09-.4.18-.6.28.37.33.56.75.58 1.28.01.37-.14.71-.46 1-.69.64-1.69.96-3 .96-.13 0-.43-.01-.89-.03-1.92 1.59-3.26 2.61-4.01 3.06-1.22.73-2.01 1.08-2.37 1.04-.2-.04-.41-.26-.61-.64-.18-.36-.27-.65-.27-.89 0-.2.06-.35.17-.44a.79.79 0 0 1 .38-.09c.1 0 .26.02.47.05.21.03.37.05.47.05.34 0 .67-.1.98-.31 1.45-.93 2.48-1.64 3.1-2.12a.896.896 0 0 1-.11-.36c0-.3.07-.53.22-.71.37-.47.82-.7 1.33-.68.64.02 1.01.26 1.13.7.46-.03.82-.05 1.07-.08zm-1.76-9.45c-.61-.05-.96-.1-1.03-.14-.28-.17-.42-.39-.42-.65 0-.36.19-.61.57-.78.46-.08.83-.11 1.12-.08.36.04.77.13 1.24.3.33.11.63.32.89.61.2.23.31.5.31.81 0 .45-.23.92-.69 1.42-.36.4-.78.73-1.26 1-.76.43-1.41.67-1.94.72a.87.87 0 0 1-.64-.18c-.17-.14-.26-.34-.26-.6 0-.39.19-.61.58-.67.34-.05.65-.14.95-.29.21-.1.49-.27.85-.5.49-.31.73-.55.73-.71-.01-.11-.34-.2-1-.26zm4.53.03c-.61-.05-.96-.1-1.03-.14-.28-.17-.42-.39-.42-.65 0-.36.19-.61.57-.78.46-.08.83-.11 1.12-.08.36.03.77.13 1.24.3.33.11.63.32.89.61.2.23.31.5.31.81 0 .45-.23.92-.69 1.42-.36.4-.78.73-1.26 1-.76.43-1.41.68-1.94.72a.87.87 0 0 1-.64-.18c-.17-.14-.26-.34-.26-.6 0-.39.19-.61.58-.67.34-.05.65-.14.95-.29.21-.1.49-.27.85-.5.49-.31.73-.55.73-.7-.01-.12-.34-.21-1-.27zm5.76 10.16c-.52.43-1.19.88-1.99 1.36-.91.55-1.51.85-1.79.89-.04.01-.08.01-.14.01-.32 0-.6-.18-.83-.54-.2-.32-.31-.63-.31-.94 0-.28.14-.44.42-.46.02 0 .06 0 .12-.01s.13-.01.2 0c-.02 0 .14.01.48.04.33.02.52.02.58 0 .4-.15.92-.42 1.56-.81.93-.57 1.66-1.14 2.19-1.7-.19-.13-.29-.32-.31-.57-.02-.3.16-.59.54-.87.35-.26.68-.39 1-.39.51 0 .78.25.81.74.11.04.41-.09.88-.41.14-.12.39-.31.76-.56.11-.02.21-.03.29-.03.11 0 .19.01.24.04.19.11.32.26.39.46.02.18-.02.38-.14.58-.12.21-.18.33-.17.37.01.08.05.12.14.13.36.02.89-.34 1.62-1.1.3-.23.52-.35.65-.34.19.01.39.18.61.53.11.17.08.39-.07.65-.45.73-1.08 1.27-1.91 1.62-.4.17-.77.26-1.1.27-.65.03-1.03-.23-1.13-.79-.26.01-.73 0-1.41-.01-.18.2-.91.81-2.18 1.84zm4.41-11.6c.7.01 1.22.35 1.55 1.01.06.21.09.44.09.71 0 .57-.14 1.06-.43 1.45-.72.98-1.88 1.54-3.5 1.67-.77-.03-1.31-.27-1.61-.73-.17-.36-.25-.69-.25-1.01 0-.54.25-1.07.75-1.61.94-1.02 2.08-1.52 3.4-1.49zm-2.52 3.01c.08.13.26.22.52.29h.29c.11 0 .23 0 .36-.01.7-.29 1.19-.63 1.45-1.01.03-.08.04-.16.04-.23 0-.37-.3-.54-.9-.51-.36.09-.61.18-.76.28-.33.16-.59.33-.76.53-.18.2-.27.37-.27.51 0 .05.01.1.03.15zm9.96 6.98c-.06-.14-.09-.29-.09-.46 0-.4.17-.67.51-.78.07-.05.17-.07.3-.07.23 0 .67.12 1.33.35l1.8-.94c.93-.49 1.43-.75 1.49-.78.08-.06.17-.09.27-.09.36 0 .57.2.63.61.01.07.02.14.02.19 0 .14-.15.31-.45.5-1.17.54-1.93.91-2.28 1.12.54.13.95.31 1.23.55.1.14.15.29.16.44.02.29-.04.51-.2.68-.22.24-.53.3-.91.2-.4-.1-.66-.17-.79-.21-.33-.09-.7-.2-1.11-.34-1.29.89-2.3 1.54-3.01 1.96-1.31.78-2.25 1.19-2.81 1.26-.18.02-.37-.08-.58-.28-.28-.28-.42-.68-.42-1.17 0-.32.21-.48.62-.48.09 0 .23.01.42.03.19.02.33.03.42.03.19 0 .36-.02.51-.07.64-.3 1.13-.54 1.46-.73.62-.36 1.22-.76 1.81-1.19-.19-.15-.3-.25-.33-.33zm4.45-9.29c.18 0 .34.09.47.26.13.17.2.35.2.54 0 .19-.09.34-.27.45-.72.45-1.52.92-2.41 1.41l-1.57.86c-.5.27-.84.43-1.01.47-.1.05-.2.07-.31.07-.17 0-.29-.06-.34-.18-.14-.33-.22-.53-.22-.59 0-.35.2-.57.61-.67 1.52-.74 3.03-1.58 4.53-2.52.11-.07.22-.1.32-.1zm11.15 8.36c0-.16-.24-.23-.71-.23l-1.3.14c-.07.01-.21.03-.42.08-.17.04-.32.05-.42.05-.15 0-.27-.04-.36-.13-.14-.19-.21-.39-.21-.61 0-.14.03-.28.09-.43.06-.33.66-.53 1.81-.61.29-.02.83.02 1.63.13.88.11 1.4.34 1.57.68.15.31.2.6.14.87-.04.21-.09.37-.15.47-.2.27-.4.49-.61.67-.4.35-.78.64-1.14.87-.81.52-1.93 1.11-3.36 1.76-.74.34-1.48.65-2.2.94-.33.13-.62.11-.88-.06-.39-.42-.59-.83-.59-1.22 0-.35.19-.52.58-.52.1 0 .24.02.43.05s.34.04.43.04c.16 0 .3-.02.42-.06.63-.22.95-.34.96-.34.63-.25 1.33-.58 2.1-1 1.16-.63 1.88-1.09 2.17-1.39.02-.06.02-.11.02-.15zm1.1-10.14c.18 0 .34.08.47.26.13.17.2.35.2.54 0 .11-.09.28-.28.49-.05.09-.61.42-1.67.99l-2.3 1.24c-.51.28-.85.43-1.01.47-.1.05-.2.07-.31.07-.17 0-.29-.06-.34-.18-.14-.33-.22-.53-.22-.59 0-.35.2-.57.61-.67 1.52-.74 3.03-1.58 4.53-2.52.11-.07.22-.1.32-.1zm1.07 1.91c.18 0 .34.09.47.26s.2.35.2.54c0 .1-.08.24-.24.42-.04.07-.27.23-.69.47l-3.32 1.83c-.5.27-.84.43-1.01.47-.1.05-.2.07-.31.07-.17 0-.29-.06-.34-.18-.14-.33-.22-.53-.22-.59 0-.35.2-.57.61-.67 1.52-.74 3.03-1.58 4.53-2.52.11-.07.22-.1.32-.1zm27.62 60.63c.57-.05.85-.23.85-.54 0-.23-.13-.39-.39-.47-.31-.1-.7-.21-1.17-.32-.4-.16-.61-.35-.61-.56 0-.58.29-.85.86-.79.13.01.25.02.36.02.39 0 1.01-.19 1.84-.57a.9.9 0 0 1 .36-.06.6.6 0 0 1 .47.22c.13.15.19.31.19.49 0 .21-.11.37-.34.51-.2.09-.4.18-.6.28.37.33.56.75.58 1.28.01.37-.14.71-.46 1-.69.64-1.69.96-3 .96-.13 0-.43-.01-.89-.03-1.92 1.59-3.26 2.61-4.01 3.06-1.22.73-2.01 1.08-2.37 1.04-.2-.04-.41-.26-.61-.64-.18-.36-.27-.65-.27-.89 0-.2.06-.35.17-.44a.79.79 0 0 1 .38-.09c.1 0 .26.02.47.05.21.03.37.05.47.05.34 0 .67-.1.98-.31 1.45-.93 2.48-1.64 3.1-2.12a.896.896 0 0 1-.11-.36c0-.3.07-.53.22-.71.37-.47.82-.7 1.33-.68.64.02 1.01.26 1.13.7.47-.03.82-.05 1.07-.08zm-1.76-9.44c-.61-.05-.96-.1-1.03-.14-.28-.17-.42-.39-.42-.65 0-.36.19-.61.57-.78.46-.08.83-.11 1.12-.08.36.04.77.13 1.24.3.33.11.63.32.89.61.2.23.31.5.31.81 0 .45-.23.92-.69 1.42-.36.4-.78.73-1.26 1-.76.43-1.41.67-1.94.72a.87.87 0 0 1-.64-.18c-.17-.14-.26-.34-.26-.6 0-.39.19-.61.58-.67.34-.05.65-.14.95-.29.21-.1.49-.27.85-.5.49-.31.73-.55.73-.71 0-.12-.33-.21-1-.26zm4.53.02c-.61-.05-.96-.1-1.03-.14-.28-.17-.42-.39-.42-.65 0-.36.19-.61.57-.78.46-.08.83-.11 1.12-.08.36.03.77.13 1.24.3.33.11.63.32.89.61.2.23.31.5.31.81 0 .45-.23.92-.69 1.42-.36.4-.78.73-1.26 1-.76.43-1.41.68-1.94.72a.87.87 0 0 1-.64-.18c-.17-.14-.26-.34-.26-.6 0-.39.19-.61.58-.67.34-.05.65-.14.95-.29.21-.1.49-.27.85-.5.49-.31.73-.55.73-.7-.01-.12-.34-.21-1-.27zm5.76 10.16c-.52.43-1.19.88-1.99 1.36-.91.55-1.51.85-1.79.89-.04.01-.08.01-.14.01-.32 0-.6-.18-.83-.54-.2-.32-.31-.63-.31-.94 0-.28.14-.44.42-.46.02 0 .06 0 .12-.01a.67.67 0 0 1 .2 0c-.02 0 .14.01.48.04.33.02.52.02.58 0 .4-.15.92-.42 1.56-.81.93-.57 1.66-1.14 2.19-1.7-.19-.13-.29-.32-.31-.57-.02-.3.16-.59.54-.87.35-.26.68-.39 1-.39.51 0 .78.25.81.74.11.04.41-.09.88-.41.14-.12.39-.31.76-.56.11-.02.21-.03.29-.03.11 0 .19.01.24.04.19.11.32.26.39.46.02.18-.02.38-.14.58-.12.21-.18.33-.17.37.01.08.05.12.14.13.36.02.89-.34 1.62-1.1.3-.23.52-.35.65-.34.19.01.39.18.61.53.11.17.08.39-.07.65-.45.73-1.08 1.27-1.91 1.62-.4.17-.77.26-1.1.27-.65.03-1.03-.23-1.13-.79-.26.01-.73 0-1.41-.01-.18.2-.91.81-2.18 1.84zm4.41-11.6c.7.01 1.22.35 1.55 1.01.06.21.09.44.09.71 0 .57-.14 1.06-.43 1.45-.72.98-1.88 1.54-3.5 1.67-.77-.03-1.31-.27-1.61-.73-.17-.36-.25-.69-.25-1.01 0-.54.25-1.07.75-1.61.95-1.02 2.08-1.52 3.4-1.49zm-2.51 3.02c.08.13.26.22.51.29h.29c.11 0 .23 0 .36-.01.7-.29 1.19-.63 1.45-1.01.03-.08.05-.16.05-.23 0-.37-.3-.54-.9-.51-.36.09-.61.18-.76.28-.33.16-.59.33-.76.53-.18.2-.27.37-.27.51-.01.05 0 .1.03.15zm14.16 4.71c.17-.08.29-.13.35-.15.14-.06.31.04.5.29.13.17.19.33.2.5.01.13-.11.3-.35.51-.69.58-1.67 1.23-2.95 1.95-1.79 1.01-2.97 1.52-3.51 1.55a.816.816 0 0 1-.6-.23c-.19-.17-.28-.35-.28-.56 0-.11.22-.41.65-.88.33-.53.51-.98.57-1.36l-.05-.98c-.02-.46.09-.74.33-.83.22-.08.4-.11.54-.09.37.06.58.36.62.9.03.34.05.54.05.62 0 .55-.13 1.03-.39 1.42.51-.19 1.95-1.08 4.32-2.66zm.24-7.03c.18 0 .34.09.47.26.13.17.2.35.2.54s-.09.34-.27.45c-.72.45-1.52.92-2.41 1.41l-1.57.86c-.5.27-.84.43-1.01.47-.1.05-.2.07-.31.07-.17 0-.29-.06-.34-.18-.14-.33-.22-.53-.22-.59 0-.35.2-.57.61-.67 1.52-.74 3.03-1.58 4.53-2.52.11-.06.22-.1.32-.1zm8.9 6.71c.28.01.53.09.74.24.43.31.73.73.89 1.24.02.19.04.29.04.31-.02.67-.26 1.25-.73 1.73-.55.43-1.25.63-2.11.6-.75-.02-1.43-.36-2.03-1.01-.42.15-.82.33-1.22.53-.02.01-.04.03-.04.06 0 .01.13.19.39.56.26.36.39.61.38.74-.02.48-.32.88-.9 1.22-.39.22-1.03.43-1.91.63-.26.06-.61.11-1.05.15-.17.02-.34-.1-.51-.35-.14-.21-.22-.41-.24-.61-.05-.46.07-.69.37-.69.13 0 .33.04.61.12.28.08.48.12.62.12.05 0 .16-.01.34-.03.02-.01.09-.03.19-.04.11-.04.25-.09.41-.15.31-.12.46-.24.46-.37 0-.04-.16-.25-.47-.61-.29-.34-.43-.58-.43-.74 0-.11.04-.23.13-.36.05-.14.25-.33.6-.57 1.34-.9 2.88-1.74 4.62-2.5.3-.15.6-.22.85-.22zm1.08-6.71c.18 0 .34.09.47.26.13.17.2.35.2.54s-.09.34-.27.45c-.72.45-1.52.92-2.41 1.41l-1.57.86c-.5.27-.84.43-1.01.47-.1.05-.2.07-.31.07-.17 0-.29-.06-.34-.18-.14-.33-.22-.53-.22-.59 0-.35.2-.57.61-.67 1.52-.74 3.03-1.58 4.53-2.52.11-.06.22-.1.32-.1zm-2.63 9.1c.01.06.13.13.35.2.17.05.38.07.61.06.23-.01.43-.06.59-.17.17-.11.26-.23.28-.39.01-.34-.15-.51-.48-.5-.15.01-.39.08-.73.23-.41.23-.61.42-.62.57zM874.3 472.05c-.43.03-.73.04-.89.04-.4 0-.6-.22-.6-.66 0-.37.24-.61.72-.74l.88-.23c1.02-.46 1.65-.89 1.91-1.3.14-.23.37-.34.68-.34.1.02.22.08.37.18.27.19.39.42.37.71-.12.19-.23.33-.34.41-.26.19-.43.32-.51.38 1.23-.14 1.98-.23 2.23-.26.26.03.39.2.39.5 0 .24-.04.4-.13.49l-.51.33c-1.94 1.22-3.63 2.26-5.08 3.11-1.69 1-2.82 1.66-3.37 1.99-.34.19-.76.42-1.27.7-.09.05-.18.07-.28.07-.27 0-.5-.19-.7-.56-.17-.32-.25-.63-.25-.92 0-.3.13-.44.39-.44.1 0 .24.01.42.03.18.02.32.03.42.03.3 0 .56-.05.8-.16.04-.01.06-.02.07-.03h.01v.01c.01-.01.01-.01.03-.02l.71-.38c1.59-.85 3.34-1.9 5.25-3.15-.84.09-1.42.16-1.72.21zm4.74-11.7c.18 0 .34.08.47.26.13.17.2.35.2.54 0 .11-.09.28-.28.49-.05.09-.61.42-1.67.99l-2.3 1.24c-.51.28-.85.43-1.01.47-.1.05-.2.07-.31.07-.17 0-.29-.06-.34-.18-.14-.33-.22-.53-.22-.59 0-.35.2-.57.61-.67 1.52-.74 3.03-1.58 4.53-2.52.11-.07.21-.1.32-.1zm1.07 1.9c.18 0 .34.09.47.26.13.17.2.35.2.54 0 .1-.08.24-.24.42-.04.07-.27.23-.69.47l-3.32 1.83c-.5.27-.84.43-1.01.47-.1.05-.2.07-.31.07-.17 0-.29-.06-.34-.18-.14-.33-.22-.53-.22-.59 0-.35.2-.57.61-.67 1.52-.74 3.03-1.58 4.53-2.52.11-.07.22-.1.32-.1zm8.29 6.9c.17-.08.29-.13.35-.15.14-.06.31.04.5.29.13.17.19.33.2.5.01.13-.11.3-.35.51-.69.58-1.67 1.23-2.95 1.95-1.79 1.01-2.97 1.52-3.51 1.55-.21.01-.41-.06-.6-.23s-.28-.35-.28-.56c0-.11.22-.41.65-.88.33-.53.51-.98.57-1.36l-.05-.98c-.02-.46.09-.74.33-.83.22-.08.4-.11.54-.09.37.06.58.36.62.9.03.34.05.54.05.62 0 .55-.13 1.03-.39 1.42.51-.19 1.95-1.07 4.32-2.66zm-1.08-5.67c-.45.42-.68.74-.68.99 0 .03.01.05.04.07-.03.05.08.09.32.1.51.03.87 0 1.07-.1.13-.02.24-.04.34-.04.62 0 .93.24.93.73 0 .44-.2.69-.6.74-.26.07-.64.1-1.15.1-1.72 0-2.58-.52-2.58-1.55 0-.14.02-.26.05-.33.2-.66.62-1.27 1.27-1.83.32-.28.53-.47.64-.57.17-.16.42-.31.75-.43.1-.04.18-.05.23-.04.51.16.77.46.77.9 0 .22-.17.41-.5.59-.45.31-.75.54-.9.67zm52.97 152.19c.57-.05.85-.23.85-.54 0-.23-.13-.39-.39-.47-.31-.1-.7-.21-1.17-.32-.4-.16-.61-.35-.61-.56 0-.58.29-.85.86-.79.13.01.25.02.36.02.39 0 1.01-.19 1.84-.57a.9.9 0 0 1 .36-.06.6.6 0 0 1 .47.22c.13.15.19.31.19.49 0 .21-.11.37-.34.51-.2.09-.4.18-.6.28.37.33.56.75.58 1.28.01.37-.14.71-.46 1-.69.64-1.69.96-3 .96-.13 0-.43-.01-.89-.03-1.92 1.59-3.26 2.61-4.01 3.06-1.22.73-2.01 1.08-2.37 1.04-.2-.04-.41-.26-.61-.64-.18-.36-.27-.65-.27-.89 0-.2.06-.35.17-.44a.79.79 0 0 1 .38-.09c.1 0 .26.02.47.05.21.03.37.05.47.05.34 0 .67-.1.98-.31 1.45-.93 2.48-1.64 3.1-2.12a.896.896 0 0 1-.11-.36c0-.3.07-.53.22-.71.37-.47.82-.7 1.33-.68.64.02 1.01.26 1.13.7.46-.04.82-.06 1.07-.08zm-1.76-9.45c-.61-.05-.96-.1-1.03-.14-.28-.17-.42-.39-.42-.65 0-.36.19-.61.57-.78.46-.08.83-.11 1.12-.08.36.04.77.13 1.24.3.33.11.63.32.89.61.2.23.31.5.31.81 0 .45-.23.92-.69 1.42-.36.4-.78.73-1.26 1-.76.43-1.41.67-1.94.72a.87.87 0 0 1-.64-.18c-.17-.14-.26-.34-.26-.6 0-.39.19-.61.58-.67.34-.05.65-.14.95-.29.21-.1.49-.27.85-.5.49-.31.73-.55.73-.71 0-.11-.34-.21-1-.26zm4.53.02c-.61-.05-.96-.1-1.03-.14-.28-.17-.42-.39-.42-.65 0-.36.19-.61.57-.78.46-.08.83-.11 1.12-.08.36.03.77.13 1.24.3.33.11.63.32.89.61.2.23.31.5.31.81 0 .45-.23.92-.69 1.42-.36.4-.78.73-1.26 1-.76.43-1.41.68-1.94.72a.87.87 0 0 1-.64-.18c-.17-.14-.26-.34-.26-.6 0-.39.19-.61.58-.67.34-.05.65-.14.95-.29.21-.1.49-.27.85-.5.49-.31.73-.55.73-.7-.01-.12-.34-.21-1-.27zm5.85 9.19c-.43.03-.73.04-.89.04-.4 0-.6-.22-.6-.66 0-.37.24-.61.72-.74l.88-.23c1.02-.46 1.65-.89 1.91-1.3.14-.23.37-.34.68-.34.1.02.22.08.37.18.27.19.39.42.37.71-.12.19-.23.33-.34.41-.26.19-.43.32-.51.38 1.23-.14 1.98-.23 2.23-.26.26.03.39.2.39.5 0 .24-.04.4-.13.49l-.51.33c-1.94 1.22-3.63 2.26-5.08 3.11-1.69 1-2.82 1.66-3.37 1.99-.34.19-.76.42-1.27.7-.09.05-.18.07-.28.07-.26 0-.5-.19-.7-.56-.17-.32-.25-.63-.25-.92 0-.3.13-.44.39-.44.1 0 .24.01.42.03.18.02.32.03.42.03.29 0 .56-.05.8-.16.04-.01.06-.02.07-.03h.01v.01c.01-.01.02-.01.03-.02l.71-.38c1.59-.85 3.34-1.9 5.25-3.15-.85.09-1.43.16-1.72.21zm3.93-9.93c.18 0 .34.09.47.26.13.17.2.35.2.54s-.09.34-.27.45c-.72.45-1.52.92-2.41 1.41l-1.57.86c-.5.27-.84.43-1.01.47-.1.05-.2.07-.31.07-.17 0-.29-.06-.34-.18-.14-.33-.22-.53-.22-.59 0-.35.2-.57.61-.67 1.52-.74 3.03-1.58 4.53-2.52.11-.06.22-.1.32-.1zm9.17 9.84c.27-.55.41-.92.41-1.12 0-.05-.02-.08-.05-.08-.01 0-.03.01-.05.02-.38.27-.81.57-1.3.92-.98.7-1.63 1.15-1.98 1.35l-1.63.93c-.39.22-.76.39-1.1.51-.05.02-.11.03-.17.03-.19 0-.39-.11-.6-.32-.33-.34-.49-.72-.49-1.14 0-.16.04-.29.12-.41.12-.14.33-.21.64-.21.09 0 .22 0 .39.01s.3.01.39.01c.19 0 .35-.02.49-.05.06-.03.1-.05.13-.05l.4-.22c.66-.36 1.1-.62 1.33-.77l2.48-1.67c.66-.44 1.06-.68 1.2-.72.21-.06.45-.01.71.14.39.23.59.61.59 1.13 0 .47-.14 1.05-.41 1.73-.4 1.01-.81 1.74-1.23 2.19-.08.08-.19.13-.33.13-.19 0-.38-.07-.58-.22-.22-.16-.33-.32-.33-.5s.06-.32.17-.42c.25-.21.51-.61.8-1.2zm1.63-10.54c.7.01 1.22.35 1.55 1.01.06.21.09.44.09.71 0 .57-.14 1.06-.43 1.45-.72.98-1.88 1.54-3.5 1.67-.77-.03-1.31-.27-1.61-.73-.17-.36-.25-.69-.25-1.01 0-.54.25-1.07.75-1.61.95-1.02 2.08-1.51 3.4-1.49zm-2.52 3.02c.08.13.26.22.51.29h.29c.11 0 .23 0 .36-.01.7-.29 1.19-.63 1.45-1.01.03-.08.05-.16.05-.23 0-.37-.3-.54-.9-.51-.36.09-.61.18-.76.28-.33.16-.59.33-.76.53-.18.2-.27.37-.27.51 0 .05.01.1.03.15zm7.35 8.31c0-.36.23-.61.7-.76.42-.13.85-.3 1.29-.51a7.26 7.26 0 0 1-.65-.34c-.36-.22-.55-.39-.59-.51a.773.773 0 0 1 .01-.5c.07-.17.19-.27.38-.29.72-.07 1.35-.29 1.88-.68.27-.19.51-.29.72-.29.05 0 .09.01.12.03.18.11.3.26.36.44.02.05.03.2.03.45-.01 0-.03.03-.06.09-.07.12-.17.22-.31.29-.13.11-.22.18-.28.22-.22.13-.34.21-.37.23-.16.09-.24.16-.24.2.01.02.06.04.15.06.52.14.78.37.78.68 0 .05-.04.15-.11.29-.14.15-.25.26-.33.32-.39.29-.69.49-.89.6-.19.14-.29.2-.29.15.01.03.1.13.27.31.1.14.16.24.18.28.01.04.01.08.01.12 0 .25-.25.53-.74.83-3.87 2.35-6.09 3.55-6.64 3.6-.23.02-.47-.15-.7-.52-.21-.31-.33-.6-.35-.87-.04-.41.14-.62.53-.62.11 0 .24.01.38.03.05.01.26.01.62.01.19 0 .39-.03.59-.09.76-.33 1.36-.62 1.81-.87 1.08-.6 1.93-1.11 2.56-1.52-.55-.34-.82-.63-.82-.86zm2.18 5.63c.18 0 .34.09.47.26.13.17.2.35.2.54 0 .1-.09.25-.28.46-.2.16-.68.45-1.45.88l-2.53 1.38c-.49.27-.83.43-1.01.47-.1.05-.2.07-.31.07-.17 0-.29-.06-.34-.18-.14-.33-.22-.53-.22-.59 0-.35.2-.57.61-.67 1.52-.74 3.03-1.58 4.53-2.52.12-.06.23-.1.33-.1zm-93.54 181.81c.57-.05.85-.23.85-.54 0-.23-.13-.38-.39-.47-.31-.1-.7-.21-1.17-.32-.4-.16-.61-.35-.61-.56 0-.58.29-.85.86-.79.13.01.25.02.36.02.39 0 1.01-.19 1.84-.57a.9.9 0 0 1 .36-.06.6.6 0 0 1 .47.22c.13.15.19.31.19.49 0 .21-.11.37-.34.51-.2.09-.4.18-.6.28.37.33.56.75.58 1.28.01.37-.14.71-.46 1-.69.64-1.69.96-3 .96-.13 0-.43-.01-.89-.03-1.92 1.59-3.26 2.61-4.01 3.06-1.22.73-2.01 1.08-2.37 1.04-.2-.04-.41-.26-.61-.64-.18-.36-.27-.65-.27-.89 0-.2.06-.35.17-.44a.79.79 0 0 1 .38-.09c.1 0 .26.02.47.05.21.03.37.05.47.05.34 0 .67-.1.98-.31 1.45-.93 2.48-1.64 3.1-2.12a.896.896 0 0 1-.11-.36c0-.3.07-.53.22-.71.37-.47.82-.7 1.33-.68.64.02 1.01.26 1.13.7.47-.03.82-.05 1.07-.08zm-1.76-9.45c-.61-.05-.96-.1-1.03-.14-.28-.17-.42-.39-.42-.65 0-.36.19-.61.57-.78.46-.08.83-.11 1.12-.08.36.04.77.13 1.24.3.33.11.63.32.89.61.2.23.31.5.31.81 0 .45-.23.92-.69 1.42-.36.4-.78.73-1.26 1-.76.43-1.41.67-1.94.72a.87.87 0 0 1-.64-.18c-.17-.14-.26-.34-.26-.6 0-.39.19-.61.58-.67.34-.05.65-.14.95-.29.21-.1.49-.27.85-.5.49-.31.73-.55.73-.71 0-.11-.33-.2-1-.26zm4.53.03c-.61-.05-.96-.1-1.03-.14-.28-.17-.42-.39-.42-.65 0-.36.19-.61.57-.78.46-.08.83-.11 1.12-.08.36.03.77.13 1.24.3.33.11.63.32.89.61.2.23.31.5.31.81 0 .45-.23.92-.69 1.42-.36.4-.78.73-1.26 1-.76.43-1.41.68-1.94.72-.25.02-.47-.04-.64-.18s-.26-.34-.26-.6c0-.39.19-.61.58-.67.34-.05.65-.14.95-.29.21-.1.49-.27.85-.5.49-.31.73-.55.73-.7-.01-.12-.34-.21-1-.27zm5.76 10.16c-.52.43-1.19.88-1.99 1.36-.91.55-1.51.85-1.79.89-.04.01-.08.01-.14.01-.32 0-.6-.18-.83-.54-.2-.32-.31-.63-.31-.94 0-.28.14-.44.42-.46.02 0 .06 0 .12-.01s.13-.01.2 0c-.02 0 .14.01.48.04.33.02.52.02.58 0 .4-.15.92-.42 1.56-.81.93-.57 1.66-1.14 2.19-1.7-.19-.13-.29-.32-.31-.57-.02-.3.16-.59.54-.87.35-.26.68-.39 1-.39.51 0 .78.25.81.74.11.04.41-.09.88-.41.14-.12.39-.31.76-.56.11-.02.21-.03.29-.03.11 0 .19.01.24.04.19.11.32.26.39.46.02.18-.02.38-.14.58s-.18.33-.17.37c.01.08.05.12.14.13.36.02.89-.34 1.62-1.1.3-.23.52-.35.65-.34.19.01.39.18.61.53.11.17.08.39-.07.65-.45.73-1.08 1.27-1.91 1.62-.4.17-.77.26-1.1.27-.65.03-1.03-.23-1.13-.79-.26.01-.73 0-1.41-.01-.18.2-.91.81-2.18 1.84zm4.41-11.6c.7.01 1.22.35 1.55 1.01.06.21.09.44.09.71 0 .57-.14 1.06-.43 1.45-.72.98-1.88 1.54-3.5 1.67-.77-.03-1.31-.27-1.61-.73-.17-.36-.25-.69-.25-1.01 0-.54.25-1.07.75-1.61.95-1.02 2.08-1.52 3.4-1.49zm-2.51 3.01c.08.13.26.22.51.29h.29c.11 0 .23 0 .36-.01.7-.29 1.19-.63 1.45-1.01.03-.08.05-.16.05-.23 0-.37-.3-.54-.9-.51-.36.09-.61.18-.76.28-.33.16-.59.33-.76.53-.18.2-.27.37-.27.51-.01.05 0 .11.03.15zm14.16 4.72c.17-.08.29-.13.35-.15.14-.06.31.04.5.29.13.17.19.33.2.5.01.13-.11.3-.35.51-.69.58-1.67 1.23-2.95 1.95-1.79 1.01-2.97 1.52-3.51 1.55a.816.816 0 0 1-.6-.23c-.19-.17-.28-.35-.28-.56 0-.11.22-.41.65-.88.33-.53.51-.98.57-1.36l-.05-.98c-.02-.46.09-.74.33-.83.22-.08.4-.11.54-.09.37.06.58.36.62.9.03.34.05.54.05.62 0 .55-.13 1.03-.39 1.42.51-.19 1.95-1.08 4.32-2.66zm.24-7.03c.18 0 .34.09.47.26.13.17.2.35.2.54s-.09.34-.27.45c-.72.45-1.52.92-2.41 1.41l-1.57.86c-.5.27-.84.43-1.01.47-.1.05-.2.07-.31.07-.17 0-.29-.06-.34-.18-.14-.33-.22-.53-.22-.59 0-.35.2-.57.61-.67 1.52-.74 3.03-1.58 4.53-2.52.11-.07.22-.1.32-.1zm8.9 6.71c.28.01.53.09.74.24.43.31.73.73.89 1.24.02.19.04.29.04.31-.02.67-.26 1.25-.73 1.73-.55.43-1.25.63-2.11.6-.75-.02-1.43-.36-2.03-1.01-.42.15-.82.33-1.22.53-.02.01-.04.03-.04.06 0 .01.13.19.39.56.26.36.39.61.38.74-.02.48-.32.88-.9 1.22-.39.22-1.03.43-1.91.63-.26.06-.61.11-1.05.15-.17.02-.34-.1-.51-.35-.14-.21-.22-.41-.24-.61-.05-.46.07-.69.37-.69.13 0 .33.04.61.12.28.08.48.12.62.12.05 0 .16-.01.34-.03.02-.01.09-.03.19-.04.11-.04.25-.09.41-.15.31-.12.46-.24.46-.37 0-.04-.16-.25-.47-.61-.29-.34-.43-.58-.43-.74 0-.11.04-.23.13-.36.05-.14.25-.33.6-.57 1.34-.9 2.88-1.74 4.62-2.5.3-.15.6-.22.85-.22zm1.08-6.71c.18 0 .34.09.47.26.13.17.2.35.2.54s-.09.34-.27.45c-.72.45-1.52.92-2.41 1.41l-1.57.86c-.5.27-.84.43-1.01.47-.1.05-.2.07-.31.07-.17 0-.29-.06-.34-.18-.14-.33-.22-.53-.22-.59 0-.35.2-.57.61-.67 1.52-.74 3.03-1.58 4.53-2.52.12-.07.22-.1.32-.1zm-2.63 9.1c.01.06.13.13.35.2.17.05.38.07.61.06.23-.01.43-.06.59-.17.17-.11.26-.23.28-.38.01-.34-.15-.51-.48-.5-.15.01-.39.08-.73.23-.41.22-.61.41-.62.56zm-225.31-23.68c.57-.05.85-.23.85-.54 0-.23-.13-.38-.39-.47-.31-.1-.7-.21-1.17-.32-.4-.16-.61-.35-.61-.56 0-.58.29-.85.86-.79.13.01.25.02.36.02.39 0 1.01-.19 1.84-.57a.9.9 0 0 1 .36-.06.6.6 0 0 1 .47.22c.13.15.19.31.19.49 0 .21-.11.37-.34.51-.2.09-.4.18-.6.28.37.33.56.75.58 1.28.01.37-.14.71-.46 1-.69.64-1.69.96-3 .96-.13 0-.43-.01-.89-.03-1.92 1.59-3.26 2.61-4.01 3.06-1.22.73-2.01 1.08-2.37 1.04-.2-.04-.41-.26-.61-.64-.18-.36-.27-.65-.27-.89 0-.2.06-.35.17-.44a.79.79 0 0 1 .38-.09c.1 0 .26.02.47.05.21.03.37.05.47.05.34 0 .67-.1.98-.31 1.45-.93 2.48-1.64 3.1-2.12a.896.896 0 0 1-.11-.36c0-.3.07-.53.22-.71.37-.47.82-.7 1.33-.68.64.02 1.01.26 1.13.7.47-.04.82-.06 1.07-.08zm-1.76-9.45c-.61-.05-.96-.1-1.03-.14-.28-.17-.42-.39-.42-.65 0-.36.19-.61.57-.78.46-.08.83-.11 1.12-.08.36.04.77.13 1.24.3.33.11.63.32.89.61.2.23.31.5.31.81 0 .45-.23.92-.69 1.42-.36.4-.78.73-1.26 1-.76.43-1.41.67-1.94.72a.87.87 0 0 1-.64-.18c-.17-.14-.26-.34-.26-.6 0-.39.19-.61.58-.67.34-.05.65-.14.95-.29.21-.1.49-.27.85-.5.49-.31.73-.55.73-.71 0-.11-.33-.21-1-.26zm4.53.03c-.61-.05-.96-.1-1.03-.14-.28-.17-.42-.39-.42-.65 0-.36.19-.61.57-.78.46-.08.83-.11 1.12-.08.36.03.77.13 1.24.3.33.11.63.32.89.61.2.23.31.5.31.81 0 .45-.23.92-.69 1.42-.36.4-.78.73-1.26 1-.76.43-1.41.68-1.94.72-.25.02-.47-.04-.64-.18s-.26-.34-.26-.6c0-.39.19-.61.58-.67.34-.05.65-.14.95-.29.21-.1.49-.27.85-.5.49-.31.73-.55.73-.7-.01-.13-.34-.22-1-.27zm6.83 15.51c.18 0 .34.09.47.26.13.17.2.35.2.54 0 .1-.09.25-.28.46-.2.16-.68.45-1.45.88l-2.53 1.38c-.49.27-.83.43-1.01.47-.1.05-.2.07-.31.07-.17 0-.29-.06-.34-.18-.14-.33-.22-.53-.22-.59 0-.35.2-.57.61-.67 1.52-.74 3.03-1.58 4.53-2.52.12-.06.22-.1.33-.1zm1.71-6.42c.27-.55.41-.92.41-1.12 0-.05-.01-.08-.05-.08-.01 0-.03.01-.05.02-.38.27-.81.57-1.3.92-.98.7-1.63 1.15-1.98 1.35l-1.63.93c-.39.22-.76.39-1.1.51-.05.02-.11.03-.17.03-.19 0-.39-.11-.6-.32-.33-.34-.49-.72-.49-1.14 0-.16.04-.29.12-.41.12-.14.33-.21.64-.21.09 0 .22.01.39.01.17.01.3.01.39.01.19 0 .35-.02.49-.05.06-.03.1-.05.13-.05l.4-.22c.66-.36 1.1-.62 1.33-.77l2.48-1.67c.66-.44 1.06-.68 1.2-.72.21-.06.45-.01.71.14.39.23.59.61.59 1.13 0 .47-.14 1.05-.41 1.73-.4 1.01-.81 1.74-1.23 2.19-.08.08-.19.13-.33.13-.19 0-.38-.07-.58-.22-.22-.16-.33-.32-.33-.5s.06-.32.17-.42c.25-.2.51-.61.8-1.2zm7.15-.54c-.06-.14-.09-.29-.09-.46 0-.4.17-.67.51-.78.07-.05.17-.07.3-.07.23 0 .67.12 1.33.35l1.8-.94c.93-.49 1.43-.75 1.49-.78.08-.06.17-.09.27-.09.36 0 .57.2.63.61.01.07.02.14.02.19 0 .14-.15.31-.45.5-1.17.54-1.93.91-2.28 1.12.54.13.95.31 1.23.55.1.14.15.29.16.44.02.29-.04.51-.2.68-.22.24-.53.3-.91.2-.4-.1-.66-.17-.79-.21-.33-.09-.7-.2-1.11-.34-1.29.89-2.3 1.54-3.01 1.96-1.31.78-2.25 1.19-2.81 1.26-.18.02-.37-.08-.58-.28-.28-.28-.42-.68-.42-1.17 0-.32.21-.48.62-.48.09 0 .23.01.42.03.19.02.33.03.42.03.19 0 .36-.02.51-.07.64-.3 1.13-.54 1.46-.73.62-.36 1.22-.76 1.81-1.19-.2-.15-.3-.25-.33-.33zm4.44-9.29c.18 0 .34.09.47.26.13.17.2.35.2.54 0 .19-.09.34-.27.45-.72.45-1.52.92-2.41 1.41l-1.57.86c-.5.27-.84.43-1.01.47-.1.05-.2.07-.31.07-.17 0-.29-.06-.34-.18-.14-.33-.22-.53-.22-.59 0-.35.2-.57.61-.67 1.52-.74 3.03-1.58 4.53-2.52.12-.07.22-.1.32-.1zm11.16 8.35c0-.16-.24-.23-.71-.23l-1.3.14c-.07 0-.21.03-.42.08-.17.04-.32.05-.42.05-.15 0-.27-.04-.36-.13-.14-.19-.21-.39-.21-.61 0-.14.03-.28.09-.43.06-.33.66-.53 1.81-.61.29-.02.83.02 1.63.13.88.11 1.4.34 1.57.68.15.31.2.6.14.87-.04.21-.09.37-.15.47-.2.27-.4.49-.61.67-.4.35-.78.64-1.14.87-.81.52-1.93 1.11-3.36 1.76-.74.34-1.48.65-2.2.94-.33.13-.62.11-.88-.06-.39-.42-.59-.83-.59-1.22 0-.35.19-.52.58-.52.1 0 .24.02.43.05s.34.04.43.04c.16 0 .3-.02.42-.06.63-.22.95-.34.96-.34.63-.25 1.33-.58 2.1-1 1.16-.63 1.88-1.09 2.17-1.39.01-.06.02-.1.02-.15zm-1.08-7.57c-.61-.05-.96-.1-1.03-.14-.28-.17-.42-.39-.42-.65 0-.36.19-.61.57-.78.46-.08.83-.11 1.12-.08.36.04.77.13 1.24.3.33.11.63.32.89.61.2.23.31.5.31.81 0 .45-.23.92-.69 1.42-.36.4-.78.73-1.26 1-.76.43-1.41.67-1.94.72a.87.87 0 0 1-.64-.18c-.17-.14-.26-.34-.26-.6 0-.39.19-.61.58-.67.34-.05.65-.14.95-.29.21-.1.49-.27.85-.5.49-.31.73-.55.73-.71-.01-.11-.34-.2-1-.26zm7.03-118.61c-.06-.14-.09-.29-.09-.46 0-.4.17-.67.51-.78.07-.05.17-.07.3-.07.23 0 .67.12 1.33.35l1.8-.94c.93-.49 1.43-.75 1.49-.78.08-.06.17-.09.27-.09.36 0 .57.2.63.61.01.07.02.14.02.19 0 .14-.15.31-.45.5-1.17.54-1.93.91-2.28 1.12.54.13.95.31 1.23.55.1.14.15.29.16.44.02.29-.04.51-.2.68-.22.24-.53.3-.91.2-.4-.1-.66-.17-.79-.21-.33-.09-.7-.2-1.11-.34-1.29.89-2.3 1.54-3.01 1.96-1.31.78-2.25 1.19-2.81 1.26-.18.02-.37-.08-.58-.28-.28-.28-.42-.68-.42-1.17 0-.32.21-.48.62-.48.09 0 .23.01.42.03.19.02.33.03.42.03.19 0 .36-.02.51-.07.64-.3 1.13-.54 1.46-.73.62-.36 1.22-.76 1.81-1.19-.2-.15-.3-.25-.33-.33zm3.07-8.51c-.61-.05-.96-.1-1.03-.14-.28-.17-.42-.39-.42-.65 0-.36.19-.61.57-.78.46-.08.83-.11 1.12-.08.36.04.77.13 1.24.3.33.11.63.32.89.61.2.23.31.5.31.81 0 .45-.23.92-.69 1.42-.36.4-.78.73-1.26 1-.76.43-1.41.67-1.94.72a.87.87 0 0 1-.64-.18c-.17-.14-.26-.34-.26-.6 0-.39.19-.61.58-.67.34-.05.65-.14.95-.29.21-.1.49-.27.85-.5.49-.31.73-.55.73-.71-.01-.11-.34-.2-1-.26zm7.69 9.84c0-.36.23-.61.7-.76.42-.13.85-.3 1.29-.51a7.26 7.26 0 0 1-.65-.34c-.36-.22-.55-.39-.59-.51a.773.773 0 0 1 .01-.5c.07-.17.19-.27.38-.29.72-.07 1.35-.29 1.88-.68.27-.19.51-.29.72-.29.05 0 .09.01.12.03.18.11.3.26.36.44.02.05.03.2.03.45-.01 0-.03.03-.06.09-.07.12-.17.22-.31.29-.13.11-.22.18-.28.22-.22.13-.34.21-.37.23-.16.09-.24.16-.24.2.01.02.06.04.15.06.52.14.78.37.78.68 0 .05-.04.15-.11.29-.14.15-.25.26-.33.32-.39.29-.69.49-.89.6-.19.14-.29.2-.29.15.01.03.1.13.27.31.1.14.16.24.18.28.01.04.01.08.01.12 0 .25-.25.53-.74.83-3.87 2.35-6.09 3.55-6.64 3.6-.23.02-.47-.15-.7-.52-.21-.31-.33-.6-.35-.87-.04-.41.14-.62.53-.62.11 0 .24.01.38.03.05.01.26.01.62.01.19 0 .39-.03.59-.09.76-.33 1.36-.62 1.81-.87 1.08-.6 1.93-1.11 2.56-1.52-.55-.34-.82-.62-.82-.86zm5.13-10.62c.18 0 .34.09.47.26.13.17.2.35.2.54 0 .19-.09.34-.27.45-.72.45-1.52.92-2.41 1.41l-1.57.86c-.5.27-.84.43-1.01.47-.1.05-.2.07-.31.07-.17 0-.29-.06-.34-.18-.14-.33-.22-.53-.22-.59 0-.35.2-.57.61-.67 1.52-.74 3.03-1.58 4.53-2.52.11-.07.22-.1.32-.1zm9.61 8.03c.53-.02.95-.16 1.26-.42.19-.25.41-.37.67-.37.19 0 .36.08.51.24.15.16.23.33.23.51 0 .13-.04.27-.11.41-.34.43-.76.72-1.26.86-.35.1-.87.14-1.56.14-.23 0-.54-.02-.92-.06-.44.44-1.2 1.06-2.27 1.86-.85.64-1.9 1.22-3.13 1.74-.23.06-.4.08-.51.05-.27-.06-.54-.36-.79-.91a.97.97 0 0 1-.07-.39c-.01-.17.02-.28.09-.33.13-.08.35-.11.64-.11.48.01.8-.01.96-.07.57-.22 1.21-.55 1.9-.99.7-.45 1.26-.88 1.68-1.31-.17-.11-.25-.29-.25-.51 0-.37.22-.67.66-.88.25-.12.48-.17.68-.14.17.06.29.11.36.16.16.11.28.26.34.46.42.05.71.07.89.06zm.6-8.03c.18 0 .34.09.47.26.13.17.2.35.2.54 0 .19-.09.34-.27.45-.72.45-1.52.92-2.41 1.41l-1.57.86c-.5.27-.84.43-1.01.47-.1.05-.2.07-.31.07-.17 0-.29-.06-.34-.18-.14-.33-.22-.53-.22-.59 0-.35.2-.57.61-.67 1.52-.74 3.03-1.58 4.53-2.52.12-.07.22-.1.32-.1zm5.41 9.09c.02-.31.21-.7.58-1.17.63-.81 1.57-1.22 2.83-1.22.29 0 .64.07 1.02.21.76.27 1.11.67 1.05 1.21-.05.46-.45 1.02-1.19 1.67-.56.49-1.14.93-1.75 1.33-2.5 1.63-4.2 2.54-5.09 2.71-.03.01-.07.01-.12.01-.23 0-.42-.16-.59-.48a1.48 1.48 0 0 1-.25-.72c-.03-.36.11-.53.43-.53.1 0 .23.01.38.04.44.09.86.03 1.25-.18.99-.54 1.88-1.05 2.66-1.53-.85-.25-1.25-.7-1.21-1.35zm4.84-9.09c.18 0 .34.09.47.26.13.17.2.35.2.54 0 .19-.09.34-.27.45-.72.45-1.52.92-2.41 1.41l-1.57.86c-.5.27-.84.43-1.01.47-.1.05-.2.07-.31.07-.17 0-.29-.06-.34-.18-.14-.33-.22-.53-.22-.59 0-.35.2-.57.61-.67 1.52-.74 3.03-1.58 4.53-2.52.11-.07.21-.1.32-.1zm-1.71 8c-.37.05-.63.11-.78.2-.47.27-.69.53-.65.77 0 .12.08.23.23.33.18.06.43.04.76-.05.6-.18.9-.48.9-.9.01-.24-.15-.35-.46-.35z"/><path d="M607.39 598.81c.94-.09 1.41-.39 1.41-.9 0-.38-.21-.64-.64-.78-.52-.17-1.17-.34-1.94-.52-.67-.27-1-.58-1-.93 0-.97.47-1.41 1.42-1.32.21.02.41.03.6.03.65 0 1.66-.31 3.05-.94.15-.07.35-.1.6-.1.3 0 .56.12.77.37.21.24.32.52.32.81 0 .34-.19.62-.57.84-.33.15-.66.3-.99.46.61.54.93 1.25.96 2.12.02.62-.23 1.17-.76 1.66-1.15 1.06-2.8 1.58-4.96 1.58-.22 0-.71-.01-1.48-.04-3.18 2.63-5.39 4.32-6.64 5.07-2.01 1.21-3.32 1.78-3.92 1.72-.34-.07-.67-.42-1-1.06-.3-.59-.45-1.08-.45-1.48 0-.33.09-.57.28-.73.19-.1.4-.15.63-.15.17 0 .43.03.78.08.35.05.61.08.78.08.56 0 1.1-.17 1.63-.51 2.39-1.54 4.1-2.72 5.13-3.51-.12-.24-.18-.44-.18-.6 0-.49.12-.88.36-1.18.62-.78 1.35-1.15 2.2-1.12 1.06.04 1.68.42 1.87 1.15.74-.02 1.33-.06 1.74-.1zm-2.91-15.64c-1.02-.08-1.58-.16-1.7-.24-.46-.29-.69-.65-.69-1.08 0-.59.31-1.02.94-1.29.76-.14 1.38-.18 1.85-.13.59.06 1.27.22 2.05.49.55.19 1.04.53 1.48 1.02.34.38.51.83.51 1.35 0 .74-.38 1.52-1.14 2.35-.6.66-1.3 1.21-2.09 1.66-1.26.72-2.33 1.12-3.21 1.2-.42.04-.77-.06-1.06-.3-.29-.24-.43-.57-.43-.99 0-.65.32-1.02.96-1.11.56-.08 1.08-.24 1.57-.48.35-.17.82-.44 1.41-.82.81-.52 1.21-.91 1.21-1.17-.02-.21-.56-.37-1.66-.46zm7.49.05c-1.02-.08-1.58-.16-1.7-.24-.46-.29-.69-.65-.69-1.08 0-.59.31-1.02.94-1.29.76-.14 1.38-.18 1.85-.13.59.06 1.27.22 2.05.49.55.19 1.04.53 1.48 1.02.34.38.51.83.51 1.35 0 .74-.38 1.52-1.14 2.35-.6.66-1.3 1.21-2.09 1.66-1.26.72-2.33 1.12-3.21 1.2-.42.04-.77-.06-1.06-.3s-.43-.57-.43-.99c0-.65.32-1.02.96-1.11.56-.08 1.08-.24 1.57-.48.35-.17.82-.44 1.41-.82.81-.52 1.21-.91 1.21-1.17-.02-.22-.56-.37-1.66-.46zm14.12 15.05c.45-.91.67-1.52.67-1.85 0-.09-.02-.13-.07-.13-.02 0-.04.01-.07.03-.63.44-1.35.95-2.15 1.52-1.61 1.17-2.71 1.91-3.27 2.23l-2.71 1.54c-.65.37-1.26.65-1.82.84-.09.03-.18.04-.28.04-.32 0-.65-.17-.99-.52-.54-.56-.81-1.19-.81-1.88 0-.26.06-.48.19-.67.2-.23.55-.34 1.06-.34.15 0 .37.01.65.02s.5.02.65.02c.31 0 .58-.03.81-.09.1-.05.17-.08.21-.09l.66-.36c1.09-.6 1.82-1.02 2.2-1.27l4.11-2.77c1.09-.73 1.75-1.13 1.99-1.2.35-.1.74-.02 1.18.24.65.38.97 1 .97 1.87 0 .78-.22 1.73-.67 2.87-.66 1.66-1.34 2.88-2.03 3.63-.13.14-.31.21-.55.21-.31 0-.63-.12-.96-.36-.37-.26-.55-.53-.55-.82 0-.3.09-.53.28-.7.38-.36.82-1.03 1.3-2.01zm2.69-17.44c1.16.02 2.01.58 2.57 1.67.1.34.15.73.15 1.17 0 .95-.24 1.75-.72 2.41-1.19 1.62-3.11 2.55-5.79 2.77-1.28-.05-2.16-.45-2.66-1.21-.28-.59-.42-1.15-.42-1.67 0-.89.41-1.77 1.24-2.66 1.57-1.7 3.45-2.52 5.63-2.48zm-4.16 4.99c.14.21.42.37.85.48h.48c.19 0 .39-.01.6-.01 1.17-.48 1.96-1.04 2.39-1.67.05-.13.07-.26.07-.39 0-.62-.5-.9-1.5-.85-.6.15-1.02.3-1.26.46-.55.26-.97.55-1.26.88-.29.33-.44.61-.44.85.01.09.03.17.07.25zm17.37 12.99c.94-.09 1.41-.39 1.41-.9 0-.38-.21-.64-.64-.78-.52-.17-1.17-.34-1.94-.52-.67-.27-1-.58-1-.93 0-.97.47-1.41 1.42-1.32.21.02.41.03.6.03.65 0 1.66-.31 3.05-.94.15-.07.35-.1.6-.1.3 0 .56.12.77.37.21.24.32.52.32.81 0 .34-.19.62-.57.84-.33.15-.66.3-.99.46.61.54.93 1.25.96 2.12.02.62-.23 1.17-.76 1.66-1.15 1.06-2.8 1.58-4.96 1.58-.22 0-.71-.01-1.48-.04-3.18 2.63-5.39 4.32-6.64 5.07-2.01 1.21-3.32 1.78-3.92 1.72-.34-.07-.67-.42-1-1.06-.3-.59-.45-1.08-.45-1.48 0-.33.09-.57.28-.73.19-.1.4-.15.63-.15.17 0 .43.03.78.08.35.05.61.08.78.08.56 0 1.1-.17 1.63-.51 2.39-1.54 4.1-2.72 5.13-3.51-.12-.24-.18-.44-.18-.6 0-.49.12-.88.36-1.18.62-.78 1.35-1.15 2.2-1.12 1.06.04 1.68.42 1.87 1.15.74-.02 1.32-.06 1.74-.1zm-1.63 10.09c.3 0 .56.14.78.43.22.28.33.58.33.89 0 .16-.15.41-.46.76-.33.27-1.13.75-2.39 1.45l-4.19 2.29c-.82.45-1.38.71-1.67.78-.17.08-.34.12-.51.12-.29 0-.48-.1-.57-.3-.24-.55-.36-.87-.36-.97 0-.58.34-.95 1.02-1.11 2.51-1.23 5.01-2.62 7.51-4.17a.94.94 0 0 1 .51-.17z" fill="#bd0e72"/><path d="M609.32 712.44c0-.16-.24-.23-.71-.23l-1.3.14c-.07.01-.21.03-.42.08-.17.04-.32.05-.42.05-.15 0-.27-.04-.36-.13-.14-.19-.21-.39-.21-.61 0-.14.03-.28.09-.43.06-.33.66-.53 1.81-.61.29-.02.83.02 1.63.13.88.11 1.4.34 1.57.68.15.31.2.6.14.87-.04.21-.09.37-.15.47-.2.27-.4.49-.61.67-.4.35-.78.64-1.14.87-.81.52-1.93 1.11-3.36 1.76-.74.34-1.48.65-2.2.94-.33.13-.62.11-.88-.06-.39-.42-.59-.83-.59-1.22 0-.35.19-.52.58-.52.1 0 .24.02.43.05.19.03.34.04.43.04.16 0 .3-.02.42-.06.63-.22.95-.34.96-.34.63-.25 1.33-.58 2.1-1 1.16-.63 1.88-1.09 2.17-1.39.01-.06.02-.1.02-.15zm-1.09-7.57c-.61-.05-.96-.1-1.03-.14-.28-.17-.42-.39-.42-.65 0-.36.19-.61.57-.78.46-.08.83-.11 1.12-.08.36.04.77.13 1.24.3.33.11.63.32.89.61.2.23.31.5.31.81 0 .45-.23.92-.69 1.42-.36.4-.78.73-1.26 1-.76.43-1.41.67-1.94.72a.87.87 0 0 1-.64-.18c-.17-.14-.26-.34-.26-.6 0-.39.19-.61.58-.67.34-.05.65-.14.95-.29.21-.1.49-.27.85-.5.49-.31.73-.55.73-.71 0-.11-.33-.21-1-.26zm10.85 5.92c.28.01.53.09.74.24.43.31.73.73.89 1.24.02.19.04.29.04.31-.02.67-.26 1.25-.73 1.73-.55.43-1.25.63-2.11.6-.75-.02-1.43-.36-2.03-1.01-.42.15-.82.33-1.22.53-.02.01-.04.03-.04.06 0 .01.13.19.39.56.26.36.39.61.38.74-.02.48-.32.88-.9 1.22-.39.22-1.03.43-1.91.63-.26.06-.61.11-1.05.15-.17.02-.34-.1-.51-.35-.14-.21-.22-.41-.24-.61-.05-.46.07-.69.37-.69.13 0 .33.04.61.12.28.08.48.12.62.12.05 0 .16-.01.34-.03.02-.01.09-.03.19-.04.11-.04.25-.09.41-.15.31-.12.46-.24.46-.37 0-.04-.16-.25-.47-.61-.29-.34-.43-.58-.43-.74 0-.11.04-.23.13-.36.05-.14.25-.33.6-.57 1.34-.9 2.88-1.74 4.62-2.5.31-.15.6-.22.85-.22zm-1.99 9.05c.18 0 .34.09.47.26.13.17.2.35.2.54 0 .1-.09.25-.28.46-.2.16-.68.45-1.45.88l-2.53 1.38c-.49.27-.83.43-1.01.47-.1.05-.2.07-.31.07-.17 0-.29-.06-.34-.18-.14-.33-.22-.53-.22-.59 0-.35.2-.57.61-.67 1.52-.74 3.03-1.58 4.53-2.52.12-.06.22-.1.33-.1zm1.04 1.64c.18 0 .34.09.47.26.13.17.2.35.2.54 0 .1-.09.25-.28.46-.2.16-.68.45-1.45.88l-2.53 1.38c-.49.27-.83.43-1.01.47-.1.05-.2.07-.31.07-.17 0-.29-.06-.34-.18-.14-.33-.22-.53-.22-.59 0-.35.2-.57.61-.67 1.52-.74 3.03-1.58 4.53-2.52.13-.07.23-.1.33-.1zm-.59-8.3c.01.06.13.13.35.2.17.05.38.07.61.06.23-.01.43-.06.59-.17.17-.11.26-.23.28-.38.01-.34-.15-.51-.48-.5-.15.01-.39.08-.73.23-.41.22-.62.41-.62.56zm11.63.74c.27-.55.41-.92.41-1.12 0-.05-.02-.08-.05-.08-.01 0-.03.01-.05.02-.38.27-.81.57-1.3.92-.98.7-1.63 1.15-1.98 1.35l-1.63.93c-.39.22-.76.39-1.1.51-.05.02-.11.03-.17.03-.19 0-.39-.11-.6-.32-.33-.34-.49-.72-.49-1.14 0-.16.04-.29.12-.41.12-.14.33-.21.64-.21.09 0 .22.01.39.01.17.01.3.01.39.01.19 0 .35-.02.49-.05.06-.03.1-.05.13-.05l.4-.22c.66-.36 1.1-.62 1.33-.77l2.48-1.67c.66-.44 1.06-.68 1.2-.72.21-.06.45-.01.71.14.39.23.59.61.59 1.13 0 .47-.14 1.05-.41 1.73-.4 1.01-.81 1.74-1.23 2.19-.08.08-.19.13-.33.13-.19 0-.38-.07-.58-.22-.22-.16-.33-.32-.33-.5s.06-.32.17-.42c.25-.21.51-.61.8-1.2zm-.14-9.05c-.61-.05-.96-.1-1.03-.14-.28-.17-.42-.39-.42-.65 0-.36.19-.61.57-.78.46-.08.83-.11 1.12-.08.36.04.77.13 1.24.3.33.11.63.32.89.61.2.23.31.5.31.81 0 .45-.23.92-.69 1.42-.36.4-.78.73-1.26 1-.76.43-1.41.67-1.94.72-.25.02-.47-.04-.64-.18s-.26-.34-.26-.6c0-.39.19-.61.58-.67.34-.05.65-.14.95-.29.21-.1.49-.27.85-.5.49-.31.73-.55.73-.71 0-.11-.33-.21-1-.26z"/></svg>