<svg xmlns="http://www.w3.org/2000/svg" xml:space="preserve" x="0" y="0" version="1.1" viewBox="0 0 1000 1000"><path d="M799.09 9.87c14.2 5.46 13.12 7.36 19.06 22.01 5.91 14.68-3.39 25.53-16.57 21.67-13.16-3.87-14.2-5.18-19.05-19.75-4.86-14.56 2.31-29.38 16.56-23.93m128.87 27.54c-2.43-3.18-5.73-3.72-11.21.24-9.47 9.59-15.7 20.68-27.04 32.61-12.04 12.65-19.24 28.27-29.14 45.14-3.57 6.1-10.91 11.92-14.13 18.46-3.05 15.27 3.46 18.42 22.87 15.52.31-.42.61-.86.93-1.28-4.35 1.22-3.42-1.83 1.51-4.17 13.47-12.51 26.39-32.26 31.26-55.06.95-16.79 4.64-35 22.4-44.17 1.83-.94 2.09-4.29 2.18-5.32 0-.81.14-1.45.37-1.97M797.15 190.1l-.51-.56c-.11-.78-.52-1.4-1.31-1.83-3.52-1.92-12.35.56-20.67 6.99-.17.12-.31.25-.47.39-1.1 6.36-16.73 22-18.28 25.89-.13.21-.24.43-.35.65-5.85 11.51-9.28 20.54-5.13 22.78 5.5 2.99 19.18-8.77 28.36-25.73 2.29-4.22 4.82-8.08 7.22-11.53l.8 1.44c-.58-2.18-.9-4.55-.6-7.43 4.54-7.47 7.94-10.65 10.94-11.06m-9.21 22.08c-5.74 15.1-11.85 27.51-21.38 35.26-3.53.84-9.08 2.03-12.59 2.85-5.89 3.58-1.03 7.32 3.85 9.94 8.17 3.46 16.98.97 25.07-1.83 3.54-5.84 6.37-11.95 9.01-18.09-1.8.38-3.46.51-1.63-6.45.5-4.19.5-8.35-.55-12.51.08-3.57-.84-6.37-1.78-9.17M592.78 104.21c3.3-1.4 8.64 3.18 15.76 13.31 7.09 10.13 6.93 19.31-.54 19.33-7.47.06-10.36-4.54-14.23-13.61-3.84-9.08-4.3-17.61-.99-19.03m-15.65 40.22c2.95-.02 5.47 3.31 6.29 7.85-1.86-2.41-4.38-4.13-6.24-3.58-2.94.8-2.55 6.44-1.36 10.66.62 2.17 2.61 4.13 4.78 5.45-.97 1-2.14 1.6-3.36 1.6-3.56.02-6.54-4.88-6.58-10.92-.02-6.09 2.9-11.04 6.47-11.06m-207.82 39.86c1.6 3.31 4.41 5.94 6.45 5.94 2.98-.04 4.65-5.71 4.63-10.88-.03-4.94-4.3-7.91-7.28-8.13-.03 8.36-.25 11.77-3.8 13.07m-3.51-3.22c.48-10.92.48-10.92-6.04-24.29-.3-.5-.63-.98-.95-1.48-.2-.27-.37-.56-.57-.84-7.61-15.6-7.61-15.6-29.11-21.16-.17.11-.31.23-.47.34-1.77 1.31-3.67 3.09-5.7 5.36-6.08 11.13-16.5 19.8-19.09 32.32-5.3 15.11 2.49 28.01 11.97 38.4 14.13 9.35 21.34 15.19 35.5 21.77 9.18 2.92 18.32-5.35 19.74-18.92.02-.21.06-.41.07-.66-4.86-10.47-4.86-10.47-5.75-18.67-.11-.1-.22-.19-.09-3.75.04-.91.09-2.02.17-3.41.07-1.37.17-3.01.32-5.01m-65.36 22.34c1.65-1.37 7.59 1.11 10.39 5.68 2.78 4.56 2.23 9.83.58 11.22-1.64 1.38-6.67-1.2-9.47-5.75-2.77-4.57-3.13-9.75-1.5-11.15m43.03 59.64c-8.98-6.16-17.98-13.11-26.97-20.19-11.65-6.49-21.42-5.63-29.29 2.62-6.82 16.67-4.64 32.37-2.13 48.03 1.77 18.65 14.7 15.9 21.1 12.32 10.28-7.79 22.86-13.92 34.99-20.8 11.41-5.55 12.18-12.88 2.3-21.98m-22.02 65.92c-9.47 7.21-9.71 13.46-.71 18.73 14.12 4.71 28.25 7.01 42.35 6.71 5.5-3.18 6.82-6.91 4.01-11.89-11.95-12.64-27.35-16.66-45.65-13.55m-18.11 24.65c-13.93-8.58-24.13-9.42-26.83 5.04.07 12.75.17 25.5.22 38.25-1.62 6.28 6.69 15.93 21.77 17.25 5.52.5 10.6 2.78 17.15-1.32 5.92-2.24 9.15-5.18 18.89-13.04 3.95-4.62 2.85-9.22-3.35-13.8-3.4-3.12-5.94-7.67-6.6-15.42-3.94-5.33-8.96-10.77-21.25-16.96m3.04 101.69c-12.79-5.57-25.54-11.72-38.33-13.58-8.9-1.47-15.93 3.17-21.09 9.05-10.39 14.73-11.06 29.38-10.32 44.02-.39 14.08 8.7 19.84 22.11 21.83 26.93-3.04 50.83-3.48 76.83-4.64 12.64.58 15.77-5.02 5.21-15.39-8.37-3.52-18.25-9.35-24.12-15.41-.24-13.99-1.77-22.12-10.29-25.88" fill="#3b6287" fill-rule="evenodd" clip-rule="evenodd"/><path d="M328.32 472.75c1.55-.32 3.24 1.47 3.7 3.65.43 2.17-.9 4.3-2.47 4.63-1.55.32-2.78-1.27-3.24-3.46-.42-2.17.43-4.49 2.01-4.82m-28.17 75.14c16.53 1.74 24.71 11.02 25.65 24.5.47 6.49-.63 14.77-4.71 19.29-4.59 5.1-12.97 6.03-20.34 6.08-6.96.03-14.1-1.2-18.27-5.55-4.11-4.33-4.32-7.93-7.13-19.52-2.78-11.62 8.27-26.53 24.8-24.8m126.02-2.15c5.81-.03 11.1 1.21 14.88 3.23-2.63.18-5.8.54-9.35.56-10.06.07-18.27 2.18-18.24 5.76.03 3.58 8.25 6.47 18.31 6.42 6.5-.04 12.04-1.11 14.99-3.53-1.42 5.31-10.04 9.45-20.47 9.52-11.42.07-20.79-4.79-20.81-10.87-.03-6.05 9.26-11.02 20.69-11.09m59.74 14.34c12.44-5.29 22.33 1.56 19.85 11.62-2.48 10.06-11.81 11.38-21.01 11.43-9.24.07-12.46-7.85-12.51-13.83-.02-6 1.21-3.93 13.67-9.22m153.7-85.13c9.98-.54 20.63 9.54 19.91 23.23-.74 13.67.82 25.73-6.6 25.78-7.42.04-17.22-12.31-21.8-25.13-4.59-12.84-1.41-23.34 8.49-23.88m33.5-111.25c-.49-.59-2.02-2.03-2.43-2.65-3.31-3.28-6.79-1.26-6.4 3.34.42 9.26-.39 16.15.94 27.09-.2 1.43 3.19 6.51 3.24 3.02.24-13.45 18.81-11.28 7.82 13.21-2.41 5.38 6.56 6.79 12.16 4.99.37-1.59.67-3.11.87-4.55-3.84 1.61-12.18-1.84-10.84-6.71 4.97-5.5 3.22-11.76-3.25-17.08-2.92-4.03-5.5-8.58-7.19-13.45-1.8-5.87.4-8 3.99-8.06l1.09.85zM378.03 119.74c-3.57-.26-3.1-.93-5.59-3.01-.26-4.33-.97-9.99-.11-14.23 1-4.99 3.64-5.27 7.52-9.02 5.02-4.85 7.86-13.77 16.98-12.06 1.64 7.42-4.93 12.84-6.06 19.9-1.17 7.49.6 19.42-10.22 18.94l-2.52-.52zm-41.08 258.89c1.29-2.83 4.7-.15 1.49 1.14-.2.24-.41.47-.61.66-.62.55-1.25.82-1.55.57-.3-.23-.19-.89.18-1.62.15-.25.29-.51.49-.75m-29.33 116.36c-10.43 2.11-15.16-14.01-20.91-20.61 1.08.15 2.06 0 3.16.24 2.27 6.75 13.3 17.7 17.75 19.4v.97z" fill="#3b6287" fill-rule="evenodd" clip-rule="evenodd"/><path d="M896.68 107.98c0 5.24-4.23 9.46-9.46 9.46-5.25 0-9.47-4.22-9.47-9.46 0-5.22 4.22-9.46 9.47-9.46 5.22.01 9.46 4.24 9.46 9.46M686 390.64c0 5.23-4.24 9.47-9.46 9.47-5.25 0-9.49-4.24-9.49-9.47 0-5.22 4.24-9.47 9.49-9.47 5.22 0 9.46 4.25 9.46 9.47m45.9-111.9c0 5.24-4.23 9.47-9.47 9.47-5.22 0-9.47-4.23-9.47-9.47 0-5.22 4.24-9.46 9.47-9.46 5.24 0 9.47 4.24 9.47 9.46m-76.03 216.6c0 5.23-4.23 9.46-9.46 9.46-5.22 0-9.47-4.23-9.47-9.46 0-5.22 4.24-9.46 9.47-9.46s9.46 4.23 9.46 9.46m-213.72 60.25c0 5.23-4.24 9.46-9.47 9.46-5.24 0-9.47-4.23-9.47-9.46 0-5.24 4.23-9.47 9.47-9.47 5.23 0 9.47 4.23 9.47 9.47m57.38 15.78c0 5.23-4.23 9.46-9.46 9.46-5.24 0-9.48-4.23-9.48-9.46 0-5.24 4.24-9.47 9.48-9.47 5.22 0 9.46 4.23 9.46 9.47M384.77 182.63a9.47 9.47 0 0 1-9.47 9.47c-5.24 0-9.47-4.24-9.47-9.47 0-5.22 4.23-9.47 9.47-9.47 5.22 0 9.47 4.24 9.47 9.47m409.98 24.59c0 4.48-3.63 8.09-8.1 8.09s-8.11-3.62-8.11-8.09 3.64-8.11 8.11-8.11 8.1 3.64 8.1 8.11" fill="#004b1c"/><path d="M893.25 108.8a2.36 2.36 0 0 1-2.37 2.36c-1.3 0-2.36-1.05-2.36-2.36 0-1.31 1.06-2.37 2.36-2.37 1.31 0 2.37 1.06 2.37 2.37M650.56 496.69c0 1.3-1.06 2.36-2.37 2.36-1.3 0-2.37-1.06-2.37-2.36 0-1.31 1.07-2.37 2.37-2.37 1.31 0 2.37 1.06 2.37 2.37m140.3-289.76a2.36 2.36 0 0 1-2.37 2.36c-1.3 0-2.37-1.05-2.37-2.36 0-1.31 1.07-2.37 2.37-2.37 1.31 0 2.37 1.06 2.37 2.37m-67.76 71.82a2.36 2.36 0 0 1-2.37 2.36c-1.3 0-2.37-1.05-2.37-2.36 0-1.31 1.07-2.37 2.37-2.37 1.31 0 2.37 1.06 2.37 2.37m-47.16 109.31a2.36 2.36 0 0 1-2.37 2.36c-1.3 0-2.37-1.05-2.37-2.36 0-1.31 1.07-2.37 2.37-2.37 1.31 0 2.37 1.06 2.37 2.37m6.54.09a2.364 2.364 0 1 1-4.731-.009 2.364 2.364 0 0 1 4.731.009m-6.37 6.14c0 1.3-1.06 2.36-2.37 2.36-1.3 0-2.37-1.06-2.37-2.36 0-1.31 1.07-2.37 2.37-2.37 1.31 0 2.37 1.06 2.37 2.37" fill="#f5ee6d"/><path d="M947.89 253.57c2.01.47 3.42 1.04 4.23 1.71 1.16.95 1.75 2.17 1.75 3.69 0 1.59-.65 2.91-1.93 3.95-1.57 1.26-3.85 1.89-6.86 1.89h-10.76v-.58c.98 0 1.65-.09 1.99-.27.36-.18.6-.42.74-.71s.2-1.01.2-2.16v-13.74c0-1.15-.06-1.87-.2-2.16-.14-.3-.39-.53-.74-.71-.36-.18-1.02-.27-1.99-.27v-.58h10.16c2.42 0 4.14.22 5.15.65 1.01.44 1.81 1.08 2.39 1.94.59.86.88 1.78.88 2.74 0 1.02-.38 1.93-1.11 2.73-.73.79-2.03 1.42-3.9 1.88zm-5.68.8v6.8l-.02.78c0 .56.15.98.43 1.27.29.29.71.43 1.27.43.84 0 1.6-.18 2.3-.55.71-.37 1.25-.9 1.63-1.61.37-.7.56-1.49.56-2.35 0-.99-.23-1.88-.69-2.66-.46-.79-1.09-1.33-1.89-1.65-.8-.31-2-.46-3.59-.46zm0-1.22c1.47 0 2.56-.17 3.27-.5.7-.33 1.24-.8 1.61-1.4.38-.6.56-1.37.56-2.31s-.18-1.71-.55-2.3c-.38-.6-.9-1.05-1.59-1.37-.69-.31-1.79-.46-3.3-.46v8.34zm23.21-9.96v17.32c0 1.3.05 2.13.17 2.49.11.36.36.65.72.88.36.23.95.34 1.74.34h.48v.58h-11.15v-.58h.56c.9 0 1.55-.11 1.94-.31.39-.21.65-.5.79-.86.13-.37.2-1.21.2-2.55v-10.98c0-.98-.05-1.59-.14-1.84-.1-.25-.27-.45-.53-.62-.26-.17-.55-.26-.88-.26-.53 0-1.17.17-1.94.5l-.28-.57 7.79-3.56h.53zm-153.5 245.13c2.01.47 3.42 1.04 4.23 1.71 1.16.95 1.75 2.17 1.75 3.69 0 1.59-.65 2.91-1.93 3.95-1.57 1.26-3.85 1.89-6.86 1.89h-10.76v-.58c.98 0 1.65-.09 1.99-.27.36-.18.6-.42.74-.71s.2-1.01.2-2.16V482.1c0-1.15-.06-1.87-.2-2.16-.14-.3-.39-.53-.74-.71-.36-.18-1.02-.27-1.99-.27v-.58h10.16c2.42 0 4.14.22 5.15.65 1.01.44 1.81 1.08 2.39 1.94.59.86.88 1.78.88 2.74 0 1.02-.38 1.93-1.11 2.73-.74.78-2.04 1.41-3.9 1.88zm-5.68.8v6.8l-.02.78c0 .56.15.98.43 1.27.29.29.71.43 1.27.43.84 0 1.6-.18 2.3-.55.71-.37 1.25-.9 1.63-1.61.37-.7.56-1.49.56-2.35 0-.99-.23-1.88-.69-2.66-.46-.79-1.09-1.33-1.89-1.65-.81-.32-2-.47-3.59-.46zm0-1.22c1.47 0 2.56-.17 3.27-.5.7-.33 1.24-.8 1.61-1.4.38-.6.56-1.37.56-2.31s-.18-1.71-.55-2.3c-.38-.6-.9-1.05-1.59-1.37-.69-.31-1.79-.46-3.3-.46v8.34zm26.02 11.65h-12.45v-.34c3.82-4.55 6.14-7.61 6.95-9.18.82-1.57 1.23-3.11 1.23-4.61 0-1.09-.34-2-1.01-2.73-.68-.72-1.51-1.08-2.49-1.08-1.6 0-2.85.8-3.74 2.41l-.58-.2c.57-2 1.42-3.48 2.56-4.43a6.028 6.028 0 0 1 3.97-1.44c1.08 0 2.05.25 2.94.75.88.5 1.57 1.18 2.08 2.06.5.87.74 1.68.74 2.44 0 1.38-.38 2.79-1.15 4.21-1.05 1.93-3.35 4.61-6.89 8.06H829c1.13 0 1.86-.05 2.2-.14.33-.1.61-.25.84-.48.22-.23.51-.69.85-1.42h.57l-1.2 6.12zm191.98-166.88-2.43-.01v-2.38l2.43.01v2.38zm-4.86-.01-2.42-.01v-2.38l2.42.01v2.38zm-4.85-.02-2.42-.01v-2.38l2.42.01v2.38zm-4.85-.02-2.42-.01v-2.38l2.42.01v2.38zm-4.85-.01-2.42-.01v-2.38l2.42.01v2.38zm-4.85-.01-2.43-.01v-2.38l2.43.01v2.38zm-4.85-.01-2.42-.01v-2.38l2.42.01v2.38zm-4.85-.02-2.43-.01v-2.38l2.43.01v2.38zm-4.85-.01-2.42-.01v-2.38l2.42.01v2.38zm-4.84-.02-2.43-.01v-2.38l2.43.01v2.38zm-4.86-.01-2.42-.01v-2.38l2.42.01v2.38zm-4.85-.01-2.42-.01v-2.38l2.42.01v2.38zm-4.85-.02-2.42-.01v-2.38l2.42.01v2.38zm-4.85-.01-2.42-.01v-2.38l2.42.01v2.38zm-4.85-.02-2.43-.01v-2.38l2.43.01v2.38zm-4.85-.01-2.42-.01v-2.38l2.42.01v2.38zm-4.85-.01-2.43-.01v-2.38l2.43.01v2.38zm-4.85-.02-2.42-.01v-2.38l2.42.01v2.38zm-4.86-.01-2.42-.01v-2.38l2.42.01v2.38zm-4.84-.01-2.42-.01v-2.38l2.42.01v2.38zm-4.85-.02-2.42-.01V330l2.42.01v2.38zm-4.85-.01-2.43-.01v-2.38l2.43.01v2.38zm-4.85-.02-2.42-.01v-2.38l2.42.01v2.38zm-4.85-.01-2.43-.01v-2.38l2.43.01v2.38zm-4.85-.01-2.42-.01v-2.38l2.42.01v2.38zm-4.85-.02-2.43-.01v-2.38l2.43.01v2.38zm-4.85-.01-2.43-.01v-2.38l2.43.01v2.38zm-4.85-.02-2.43-.01v-2.38l2.43.01v2.38zm-4.86-.01-2.43-.01.01-2.38 2.43.01-.01 2.38zm-4.84-.01-2.43-.01v-2.38l2.43.01v2.38zm-4.86-.01-2.42-.01.01-2.38 2.42.01-.01 2.38zm-4.84-.02-2.42-.01v-2.38l2.42.01v2.38zm-4.86-.01-2.42-.01.01-2.38 2.42.01-.01 2.38zm-4.84-.02-2.42-.01v-2.38l2.42.01v2.38zm-4.85-.01-2.43-.01v-2.38l2.43.01v2.38zm-4.85-.01-2.43-.01v-2.38l2.43.01v2.38zm-4.85-.02-2.43-.01v-2.38l2.43.01v2.38zm-4.85-.01-2.43-.01v-2.38l2.43.01v2.38zm-4.86-.02-2.42-.01v-2.38l2.42.01v2.38zm-4.85-.01-2.42-.01.01-2.38 2.42.01-.01 2.38zm-4.84-.01-2.42-.01v-2.38l2.42.01v2.38zm-4.86-.01-2.42-.01.01-2.38 2.42.01-.01 2.38zm-4.84-.02-2.43-.01v-2.38l2.43.01v2.38zm-4.85-.02-2.43-.01v-2.38l2.43.01v2.38zm-4.85-.01-2.43-.01v-2.38l2.43.01v2.38zm-4.85-.01-2.43-.01v-2.38l2.43.01v2.38zm-4.85-.01-2.43-.01v-2.38l2.43.01v2.38zm-4.86-.02-2.42-.01v-2.38l2.42.01v2.38zm-4.85-.01L789 332l.01-2.38 2.42.01-.01 2.38zm-4.84-.02-2.42-.01v-2.38l2.42.01v2.38zm-4.86-.01-2.43-.01.01-2.38 2.43.01-.01 2.38zm-4.84-.01-2.43-.01v-2.38l2.43.01v2.38zm-4.86-.01-2.43-.01.01-2.38 2.43.01-.01 2.38zm-4.84-.02-2.43-.01v-2.38l2.43.01v2.38zm-4.85-.02-2.43-.01v-2.38l2.43.01v2.38zm-4.86-.01-2.42-.01v-2.38l2.42.01v2.38zm-4.85-.01-2.42-.01v-2.38l2.42.01v2.38zm-4.85-.01-2.42-.01v-2.38l2.43.01-.01 2.38zm-4.85-.02-2.42-.01v-2.38l2.42.01v2.38zm-4.85-.01-2.43-.01.01-2.38 2.43.01-.01 2.38zm-4.84-.02-2.43-.01v-2.38l2.43.01v2.38zm-4.86-.01-2.43-.01.01-2.38 2.43.01-.01 2.38zm-4.84-.01-2.43-.01v-2.38l2.43.01v2.38zm-4.86-.02-2.42-.01.01-2.38 2.42.01-.01 2.38zm-4.85-.01-2.42-.01v-2.38l2.42.01v2.38zm-4.85-.02-2.42-.01v-2.38l2.42.01v2.38zm-4.85-.01-2.42-.01v-2.38l2.42.01v2.38zm-4.85-.01-2.43-.01v-2.38l2.43.01v2.38zm-4.85-.02-2.43-.01v-2.38l2.43.01v2.38zm-4.84-.01-2.43-.01v-2.38l2.43.01v2.38zm-4.86-.01-2.43-.01.01-2.38 2.43.01-.01 2.38zm-4.85-.02-2.42-.01v-2.38l2.42.01v2.38zm-4.85-.01-2.42-.01.01-2.38 2.42.01-.01 2.38zm-4.85-.02-2.42-.01v-2.38l2.42.01v2.38zm-4.85-.01-2.42-.01.01-2.38 2.42.01-.01 2.38zm-4.85-.01-2.43-.01v-2.38l2.43.01v2.38zm-4.85-.02-2.43-.01v-2.38l2.43.01v2.38zm-4.85-.01-2.43-.01v-2.38l2.43.01v2.38zm-4.85-.02-2.43-.01v-2.38l2.43.01v2.38zm-4.85-.01-2.43-.01v-2.38l2.43.01v2.38zm-4.85-.01-2.42-.01v-2.38l2.42.01v2.38zm-4.85-.01-2.42-.01.01-2.38 2.42.01-.01 2.38zm-4.85-.02-2.42-.01v-2.38l2.43.01-.01 2.38zm-4.85-.01-2.43-.01.01-2.38 2.43.01-.01 2.38zm-4.85-.02-2.43-.01v-2.38l2.43.01v2.38zm-4.85-.01-2.43-.01v-2.38l2.43.01v2.38zm-4.85-.01-2.43-.01v-2.38l2.43.01v2.38zm-4.85-.02-2.43-.01v-2.38l2.43.01v2.38zm-4.85-.01-2.42-.01v-2.38l2.42.01v2.38zm-4.85-.02-2.42-.01v-2.38l2.42.01v2.38zm-4.86-.01-2.42-.01.01-2.38 2.42.01-.01 2.38zm-4.84-.01-2.43-.01v-2.38l2.43.01v2.38zm-4.85-.01-2.43-.01.01-2.38 2.43.01-.01 2.38zm-4.85-.02-2.43-.01V329l2.43.01v2.38zm-4.85-.01-2.43-.01.01-2.38 2.43.01-.01 2.38zm-4.85-.02-2.43-.01v-2.38l2.43.01v2.38zm-4.85-.01-2.42-.01v-2.38l2.42.01v2.38zm-4.85-.01-2.42-.01v-2.38l2.42.01v2.38zm-4.85-.02-2.42-.01v-2.38l2.42.01v2.38zm-4.85-.01-2.42-.01v-2.38l2.42.01v2.38zm-4.85-.02-2.43-.01v-2.38l2.43.01v2.38zm-4.85-.01-2.43-.01.01-2.38 2.43.01-.01 2.38zm-4.85-.01-2.43-.01v-2.38l2.43.01v2.38zm-4.85-.01-2.43-.01.01-2.38 2.43.01-.01 2.38zm-4.85-.02-2.43-.01v-2.38l2.43.01v2.38zm-4.86-.01-2.42-.01.01-2.38 2.42.01-.01 2.38zm-4.84-.02-2.42-.01v-2.38l2.42.01v2.38zm-4.85-.01-2.42-.01v-2.38l2.43.01-.01 2.38zm-4.85-.01-2.43-.01v-2.38l2.43.01v2.38zm-4.85-.02-2.43-.01v-2.38l2.43.01v2.38zm-4.85-.01-2.43-.01v-2.38l2.43.01v2.38zm-4.85-.02-2.43-.01v-2.38l2.43.01v2.38zm-4.85-.01-2.43-.01.01-2.38 2.43.01-.01 2.38zm-4.85-.01-2.42-.01v-2.38l2.42.01v2.38zm-4.86-.01-2.42-.01.01-2.38 2.42.01-.01 2.38zm-4.84-.02-2.42-.01v-2.38l2.42.01v2.38zm-4.86-.01-2.42-.01.01-2.38 2.42.01-.01 2.38zm-4.84-.02-2.43-.01v-2.38l2.43.01v2.38zm-4.85-.01-2.43-.01v-2.38l2.43.01v2.38zm-4.85-.01-2.43-.01v-2.38l2.43.01v2.38zm-4.85-.02-2.43-.01v-2.38l2.43.01v2.38zm-4.85-.01-2.43-.01.01-2.38 2.43.01-.01 2.38zm-4.85-.02-2.42-.01v-2.38l2.42.01v2.38zm-4.86-.01-2.42-.01.01-2.38 2.42.01-.01 2.38zm-4.84-.01-2.42-.01v-2.38l2.42.01v2.38zm-4.86-.02-2.42-.01.01-2.38 2.42.01-.01 2.38zm-4.84-.01-2.43-.01v-2.38l2.43.01v2.38zm-4.85-.02-2.43-.01v-2.38l2.43.01v2.38zm-4.85-.01-2.43-.01v-2.38l2.43.01v2.38zm-4.85-.01-2.43-.01v-2.38l2.43.01v2.38zm-4.85-.02-2.43-.01v-2.38l2.43.01v2.38zm-4.85-.01-2.42-.01v-2.38l2.42.01v2.38zm-4.86-.01-2.42-.01.01-2.38 2.42.01-.01 2.38zm-4.84-.02-2.42-.01v-2.38l2.42.01v2.38zm-4.86-.01-2.42-.01.01-2.38 2.42.01-.01 2.38zm-4.84-.02-2.43-.01v-2.38l2.43.01v2.38zm-4.86-.01-2.43-.01.01-2.38 2.43.01-.01 2.38zm-4.84-.01-2.43-.01v-2.38l2.43.01v2.38zm-4.85-.02-2.43-.01v-2.38l2.43.01v2.38zm-4.85-.01-2.43-.01v-2.38l2.43.01v2.38zm-4.86-.02-2.42-.01v-2.38l2.42.01v2.38zm-4.85-.01-2.42-.01v-2.38l2.42.01v2.38zm-4.84-.01-2.42-.01v-2.38l2.42.01v2.38zm-4.86-.01-2.43-.01.01-2.38 2.43.01-.01 2.38zm-4.84-.02-2.43-.01v-2.38l2.43.01v2.38zm-4.86-.01-2.43-.01.01-2.38 2.43.01-.01 2.38zm-4.84-.02-2.43-.01v-2.38l2.43.01v2.38zm-4.86-.01-2.43-.01.01-2.38 2.43.01-.01 2.38zm-4.85-.01-2.42-.01v-2.38l2.42.01v2.38zm-4.85-.02-2.42-.01v-2.38l2.42.01v2.38zm-4.85-.01-2.42-.01v-2.38l2.42.01v2.38zm-4.84-.02-2.42-.01.01-2.38 2.42.01v2.38zm-4.85-.01-2.43-.01v-2.38l2.43.01v2.38zm-4.85-.01-2.43-.01v-2.38l2.43.01v2.38zm-4.86-.01-2.43-.01.01-2.38 2.43.01-.01 2.38zm-4.84-.02-2.43-.01v-2.38l2.43.01v2.38zm-4.86-.01-2.43-.01.01-2.38 2.43.01-.01 2.38zm-4.85-.02-2.42-.01v-2.38l2.43.01-.01 2.38zm-4.85-.01-2.42-.01v-2.38l2.42.01v2.38zm-4.85-.01-2.42-.01v-2.38l2.42.01v2.38zm-4.85-.02-2.43-.01.01-2.38 2.42.01v2.38zm-4.85-.01-2.43-.01v-2.38l2.43.01v2.38zm-4.84-.02-2.43-.01v-2.38l2.43.01v2.38zm-4.86-.01-2.43-.01.01-2.38 2.43.01-.01 2.38zm-4.84-.01-2.43-.01v-2.38l2.43.01v2.38zm-4.86-.01-2.42-.01.01-2.38 2.42.01-.01 2.38zm-4.85-.02-2.42-.01V328l2.42.01v2.38zm-4.85-.01-2.42-.01.01-2.38 2.42.01-.01 2.38zm-4.85-.02-2.42-.01.01-2.38 2.42.01v2.38zm-4.85-.01-2.43-.01v-2.38l2.43.01v2.38zm-4.85-.01-2.43-.01v-2.38l2.43.01v2.38zm-4.85-.02-2.43-.01v-2.38l2.43.01v2.38zm-4.84-.01-2.43-.01v-2.38l2.43.01v2.38zm-4.85-.02-2.43-.01v-2.38l2.43.01v2.38zm658.44 447.69-2.35-.63.61-2.3 2.35.63-.61 2.3zm-4.69-1.26-2.34-.63.61-2.3 2.34.63-.61 2.3zm-4.69-1.26-2.34-.63.61-2.3 2.34.63-.61 2.3zm-4.67-1.26-2.34-.63.61-2.3 2.34.63-.61 2.3zm-4.69-1.26-2.34-.63.61-2.3 2.34.63-.61 2.3zm-4.68-1.27-2.35-.63.61-2.3 2.35.63-.61 2.3zm-4.69-1.26-2.34-.63.61-2.3 2.34.63-.61 2.3zm-4.67-1.26-2.35-.63.61-2.3 2.35.63-.61 2.3zm-4.69-1.26-2.34-.63.61-2.3 2.34.63-.61 2.3zm-4.68-1.26-2.35-.63.61-2.3 2.35.63-.61 2.3zm-4.69-1.26-2.34-.63.61-2.3 2.34.63-.61 2.3zm-4.69-1.27-2.34-.63.61-2.3 2.34.63-.61 2.3zm-4.67-1.26-2.34-.63.61-2.3 2.34.63-.61 2.3zm-4.69-1.26-2.34-.63.61-2.3 2.34.63-.61 2.3zm-4.68-1.26-2.35-.63.61-2.3 2.35.63-.61 2.3zm-4.69-1.26-2.34-.63.61-2.3 2.34.63-.61 2.3zm-4.67-1.26-2.35-.63.61-2.3 2.35.63-.61 2.3zm-4.69-1.26-2.34-.63.61-2.3 2.34.63-.61 2.3zm-4.69-1.27-2.34-.63.61-2.3 2.34.63-.61 2.3zm-4.68-1.26-2.34-.63.61-2.3 2.34.63-.61 2.3zm-4.68-1.26-2.34-.63.61-2.3 2.34.63-.61 2.3zm-4.68-1.26-2.35-.64.61-2.3 2.35.64-.61 2.3zm-4.69-1.26-2.34-.63.61-2.3 2.34.63-.61 2.3zm-4.68-1.27-2.35-.63.61-2.3 2.35.63-.61 2.3zm-4.68-1.26-2.34-.63.61-2.3 2.34.63-.61 2.3zm-4.68-1.26-2.35-.63.61-2.3 2.35.63-.61 2.3zm-4.69-1.26-2.34-.63.61-2.3 2.34.63-.61 2.3zm-4.68-1.26-2.34-.63.61-2.3 2.34.63-.61 2.3zm-4.69-1.26-2.34-.64.62-2.3 2.34.64-.62 2.3zm-4.68-1.26-2.34-.63.61-2.3 2.34.63-.61 2.3zm-4.69-1.27-2.34-.63.62-2.3 2.34.63-.62 2.3zm-4.68-1.26-2.34-.63.61-2.3 2.34.63-.61 2.3zm-4.69-1.26-2.34-.63.62-2.3 2.34.63-.62 2.3zm-4.67-1.26-2.34-.63.61-2.3 2.34.63-.61 2.3zm-4.68-1.26-2.34-.63.61-2.3 2.34.63-.61 2.3zm-4.69-1.26-2.34-.63.61-2.3 2.34.63-.61 2.3zm-4.68-1.27-2.34-.63.61-2.3 2.34.63-.61 2.3zm-4.68-1.26-2.34-.63.61-2.3 2.34.63-.61 2.3zm-4.69-1.26-2.34-.63.61-2.3 2.34.63-.61 2.3zm-4.69-1.26-2.34-.63.62-2.3 2.34.63-.62 2.3zm-4.67-1.26-2.34-.63.61-2.3 2.34.63-.61 2.3zm-4.69-1.26-2.34-.63.62-2.3 2.34.63-.62 2.3zm-4.68-1.27-2.34-.63.61-2.3 2.34.63-.61 2.3zm-4.68-1.26-2.34-.63.61-2.3 2.34.63-.61 2.3zm-4.69-1.26-2.34-.63.61-2.3 2.34.63-.61 2.3zm-4.68-1.26-2.34-.63.61-2.3 2.34.63-.61 2.3zm-4.68-1.26-2.34-.63.61-2.3 2.34.63-.61 2.3zm-4.69-1.27-2.34-.63.61-2.3 2.34.63-.61 2.3zm-4.69-1.26-2.34-.63.62-2.3 2.34.63-.62 2.3zm-4.67-1.26-2.34-.63.61-2.3 2.34.63-.61 2.3zm-4.69-1.26-2.34-.64.62-2.3 2.34.64-.62 2.3zm-4.68-1.26-2.34-.63.61-2.3 2.34.63-.61 2.3zm-4.69-1.26-2.34-.64.62-2.3 2.34.64-.62 2.3zm-4.67-1.26-2.34-.63.61-2.3 2.34.63-.61 2.3zm-4.69-1.27-2.34-.63.61-2.3 2.34.63-.61 2.3zm-4.68-1.26-2.34-.63.61-2.3 2.34.63-.61 2.3zm-4.69-1.26-2.34-.63.61-2.3 2.34.63-.61 2.3zm-4.68-1.26-2.34-.63.61-2.3 2.34.63-.61 2.3zm-4.68-1.26-2.34-.63.61-2.3 2.34.63-.61 2.3zm-4.69-1.26-2.34-.64.62-2.3 2.34.64-.62 2.3zm-4.68-1.27-2.34-.63.61-2.3 2.34.63-.61 2.3zm-4.68-1.26-2.34-.64.62-2.3 2.34.64-.62 2.3zm-4.68-1.26-2.34-.63.61-2.3 2.34.63-.61 2.3zm-4.7-1.26-2.34-.63.62-2.3 2.34.63-.62 2.3zm-4.67-1.26-2.34-.63.61-2.3 2.34.63-.61 2.3zm-4.68-1.27-2.34-.63.61-2.3 2.34.63-.61 2.3zm-4.69-1.26-2.33-.63.61-2.3 2.34.63-.62 2.3zm-4.68-1.26-2.34-.63.61-2.3 2.34.63-.61 2.3zm-4.68-1.26-2.34-.63.61-2.3 2.34.63-.61 2.3zm-4.68-1.26-2.34-.63.61-2.3 2.34.63-.61 2.3zm-4.69-1.26-2.34-.64.62-2.3 2.34.64-.62 2.3zm-4.68-1.26-2.34-.63.61-2.3 2.34.63-.61 2.3zm-4.69-1.26-2.34-.63.62-2.3 2.34.63-.62 2.3zm-4.68-1.27-2.34-.63.61-2.3 2.34.63-.61 2.3zm-4.69-1.26-2.34-.63.62-2.3 2.34.63-.62 2.3zm-4.67-1.26-2.34-.63.61-2.3 2.34.63-.61 2.3zm-4.69-1.26-2.34-.63.61-2.3 2.34.63-.61 2.3zm-4.68-1.26-2.34-.63.61-2.3 2.34.63-.61 2.3zm-4.68-1.27-2.34-.63.61-2.3 2.34.63-.61 2.3zm-4.69-1.25-2.34-.63.61-2.3 2.34.63-.61 2.3zm-4.68-1.27-2.34-.63.61-2.3 2.34.63-.61 2.3zm-4.69-1.26-2.34-.63.62-2.3 2.34.63-.62 2.3zm-4.68-1.26-2.34-.63.61-2.3 2.34.63-.61 2.3zm-4.69-1.26-2.34-.64.62-2.3 2.34.64-.62 2.3zm-4.67-1.26-2.34-.63.61-2.3 2.34.63-.61 2.3zm-4.68-1.27-2.34-.63.61-2.3 2.34.63-.61 2.3zm-4.69-1.26-2.34-.63.61-2.3 2.34.63-.61 2.3zm-4.68-1.26-2.34-.63.61-2.3 2.34.63-.61 2.3zm-4.69-1.26-2.34-.63.61-2.3 2.34.63-.61 2.3zm-4.68-1.26-2.34-.63.61-2.3 2.34.63-.61 2.3zm-4.69-1.26-2.34-.63.62-2.3 2.34.63-.62 2.3zm-4.68-1.27-2.34-.63.61-2.3 2.34.63-.61 2.3zm-4.68-1.26-2.34-.64.62-2.3 2.34.64-.62 2.3zm-4.68-1.26-2.34-.63.61-2.3 2.34.63-.61 2.3zm-4.69-1.26-2.34-.64.62-2.3 2.34.64-.62 2.3zm-4.68-1.26-2.34-.63.61-2.3 2.34.63-.61 2.3zm-4.68-1.27-2.34-.63.61-2.3 2.34.63-.61 2.3zm-4.69-1.25-2.34-.63.61-2.3 2.34.63-.61 2.3zm-4.68-1.27-2.34-.63.61-2.3 2.34.63-.61 2.3zm-4.68-1.26-2.34-.63.61-2.3 2.34.63-.61 2.3zm-4.68-1.26-2.34-.63.61-2.3 2.34.63-.61 2.3zm-4.69-1.26-2.34-.64.62-2.3 2.34.64-.62 2.3zm-4.68-1.26-2.34-.63.61-2.3 2.34.63-.61 2.3zm-4.69-1.26-2.34-.64.62-2.3 2.34.64-.62 2.3zm-4.67-1.27-2.34-.63.61-2.3 2.34.63-.61 2.3zm-4.7-1.26-2.34-.63.62-2.3 2.34.63-.62 2.3zm-4.67-1.26-2.34-.63.61-2.3 2.34.63-.61 2.3zm-4.69-1.26-2.34-.63.61-2.3 2.34.63-.61 2.3zm-4.68-1.26-2.34-.63.61-2.3 2.34.63-.61 2.3zm-4.68-1.27-2.34-.63.61-2.3 2.34.63-.61 2.3zm-4.69-1.25-2.34-.63.61-2.3 2.34.63-.61 2.3zm-4.68-1.27-2.34-.63.61-2.3 2.34.63-.61 2.3zm-4.69-1.26-2.34-.64.62-2.3 2.34.64-.62 2.3zm-4.68-1.26-2.34-.63.61-2.3 2.34.63-.61 2.3zm-4.69-1.26-2.34-.63.62-2.3 2.34.63-.62 2.3zm-4.67-1.26-2.34-.63.61-2.3 2.34.63-.61 2.3zm-4.69-1.26-2.34-.63.62-2.3 2.34.63-.62 2.3zm-4.68-1.27-2.34-.63.61-2.3 2.34.63-.61 2.3zm-4.68-1.26-2.34-.63.61-2.3 2.34.63-.61 2.3zm-4.68-1.26-2.34-.63.61-2.3 2.34.63-.61 2.3zm-4.69-1.26-2.34-.63.61-2.3 2.34.63-.61 2.3zm-4.68-1.26-2.34-.64.62-2.3 2.34.64-.62 2.3zm-4.69-1.27-2.34-.63.61-2.3 2.34.63-.61 2.3zm-4.68-1.26-2.34-.63.62-2.3 2.34.63-.62 2.3zm-4.68-1.26-2.34-.63.61-2.3 2.34.63-.61 2.3zm-4.69-1.26-2.34-.63.62-2.3 2.34.63-.62 2.3zm-4.68-1.26-2.34-.63.61-2.3 2.34.63-.61 2.3zm-4.68-1.27-2.34-.63.61-2.3 2.34.63-.61 2.3zm-4.68-1.25-2.34-.63.61-2.3 2.34.63-.61 2.3zm-4.68-1.27-2.34-.63.61-2.3 2.34.63-.61 2.3zm-4.69-1.26-2.34-.63.61-2.3 2.34.63-.61 2.3zm-4.68-1.26-2.34-.63.61-2.3 2.34.63-.61 2.3zm-4.69-1.26-2.34-.63.62-2.3 2.34.63-.62 2.3zm-4.68-1.26-2.34-.63.61-2.3 2.34.63-.61 2.3zm-4.69-1.26-2.34-.63.62-2.3 2.34.63-.62 2.3zm-4.67-1.27-2.34-.63.61-2.3 2.34.63-.61 2.3zm-4.69-1.26-2.34-.64.62-2.3 2.34.64-.62 2.3zm-4.68-1.26-2.34-.63.61-2.3 2.34.63-.61 2.3zm-4.68-1.26-2.34-.63.61-2.3 2.34.63-.61 2.3zm-4.68-1.26-2.34-.63.61-2.3 2.35.63-.62 2.3zm-4.69-1.27-2.34-.63.61-2.3 2.34.63-.61 2.3zm-4.69-1.26-2.33-.63.61-2.3 2.34.63-.62 2.3zm-4.68-1.26-2.34-.63.61-2.3 2.34.63-.61 2.3zm-4.69-1.26-2.34-.64.62-2.3 2.34.64-.62 2.3zm-4.67-1.26-2.34-.63.61-2.3 2.34.63-.61 2.3zm-4.69-1.26-2.34-.64.62-2.3 2.34.64-.62 2.3zm-4.68-1.26-2.34-.63.61-2.3 2.34.63-.61 2.3zm-4.69-1.26-2.34-.64.62-2.3 2.34.64-.62 2.3zm-4.68-1.27-2.34-.63.61-2.3 2.34.63-.61 2.3zm-4.68-1.26-2.34-.63.61-2.3 2.34.63-.61 2.3zm-4.68-1.26-2.34-.63.61-2.3 2.34.63-.61 2.3zm-4.68-1.26-2.34-.63.62-2.3 2.33.63-.61 2.3zm-4.69-1.26-2.34-.63.61-2.3 2.34.63-.61 2.3zm-4.68-1.27-2.34-.63.61-2.3 2.34.63-.61 2.3zm-4.69-1.26-2.34-.64.62-2.3 2.34.64-.62 2.3zm-4.68-1.26-2.34-.63.61-2.3 2.34.63-.61 2.3zm-4.68-1.26-2.34-.64.62-2.3 2.34.64-.62 2.3zm-4.69-1.26-2.34-.63.61-2.3 2.34.63-.61 2.3zm-4.68-1.27-2.34-.63.61-2.3 2.34.63-.61 2.3zm-4.68-1.26-2.34-.63.61-2.3 2.34.63-.61 2.3zm-4.68-1.26-2.34-.63.62-2.3 2.34.63-.62 2.3zm-4.69-1.26-2.34-.63.61-2.3 2.34.63-.61 2.3zm-4.68-1.26-2.34-.63.61-2.3 2.34.63-.61 2.3zm-4.69-1.26-2.34-.64.62-2.3 2.34.64-.62 2.3zm-4.67-1.26-2.34-.63.61-2.3 2.35.63-.62 2.3zm-4.7-1.27-2.34-.63.62-2.3 2.34.63-.62 2.3zm-4.68-1.26-2.33-.63.61-2.3 2.34.63-.62 2.3zm-4.68-1.26-2.34-.63.62-2.3 2.34.63-.62 2.3zm-4.68-1.26-2.34-.63.62-2.3 2.33.63-.61 2.3zm-4.68-1.26-2.34-.63.61-2.3 2.34.63-.61 2.3zm-4.68-1.26-2.34-.63.61-2.3 2.34.63-.61 2.3zm-4.69-1.27-2.34-.63.61-2.3 2.34.63-.61 2.3zm-4.68-1.25-2.34-.63.61-2.3 2.34.63-.61 2.3zm-4.68-1.27-2.34-.63.61-2.3 2.34.63-.61 2.3z"/><path d="M951.48 289.13c-19.38 0-35.15-15.76-35.15-35.15s15.77-35.15 35.15-35.15 35.15 15.77 35.15 35.15-15.78 35.15-35.15 35.15zm0-67.18c-17.65 0-32.02 14.37-32.02 32.03 0 17.66 14.37 32.02 32.02 32.02s32.02-14.37 32.02-32.02c0-17.66-14.37-32.03-32.02-32.03zM815.93 523.9c-19.38 0-35.15-15.76-35.15-35.15s15.77-35.15 35.15-35.15c19.39 0 35.16 15.77 35.16 35.15s-15.77 35.15-35.16 35.15zm0-67.18c-17.65 0-32.02 14.37-32.02 32.03 0 17.66 14.37 32.02 32.02 32.02 17.66 0 32.04-14.37 32.04-32.02 0-17.66-14.37-32.03-32.04-32.03zm111.49-342.46c.61-.06.92-.25.92-.59 0-.25-.14-.42-.42-.51-.34-.11-.76-.22-1.27-.34-.44-.17-.65-.38-.65-.6 0-.63.31-.92.93-.86.14.01.27.02.39.02.42 0 1.09-.2 1.99-.61.1-.05.23-.07.39-.07.2 0 .36.08.5.24.14.16.21.34.21.53 0 .22-.12.4-.37.55-.21.1-.43.2-.64.3.4.35.6.81.62 1.39.01.4-.15.76-.5 1.08-.75.69-1.83 1.03-3.24 1.03-.14 0-.47-.01-.97-.03-2.07 1.72-3.52 2.82-4.33 3.31-1.31.79-2.17 1.16-2.56 1.12-.22-.05-.44-.28-.65-.69-.2-.38-.29-.71-.29-.97 0-.21.06-.37.19-.48.12-.06.26-.1.41-.1.11 0 .28.02.51.05.23.04.4.05.51.05.36 0 .72-.11 1.06-.33 1.56-1.01 2.68-1.77 3.35-2.29-.08-.16-.12-.29-.12-.39 0-.32.08-.58.23-.77.4-.51.88-.75 1.43-.73.69.03 1.1.28 1.22.75.49-.01.87-.03 1.15-.06zm-1.91-10.2c-.66-.05-1.03-.1-1.11-.16-.3-.19-.45-.42-.45-.7 0-.38.2-.66.61-.84.49-.09.9-.12 1.21-.09.38.04.83.15 1.34.32.36.12.68.34.97.66.22.25.33.54.33.88 0 .48-.25.99-.74 1.53-.39.43-.85.79-1.37 1.08-.82.47-1.52.73-2.1.78-.27.03-.5-.04-.69-.19-.19-.16-.28-.37-.28-.64 0-.42.21-.66.62-.72.36-.05.71-.16 1.02-.31.23-.11.53-.29.92-.54.53-.34.79-.59.79-.76.01-.14-.35-.24-1.07-.3zm4.89.03c-.66-.05-1.03-.1-1.11-.16-.3-.19-.45-.42-.45-.7 0-.38.2-.66.61-.84.49-.09.9-.12 1.21-.09.38.04.83.15 1.34.32.36.12.68.34.97.66.22.25.33.54.33.88 0 .48-.25.99-.74 1.53-.39.43-.85.79-1.37 1.08-.82.47-1.52.73-2.1.78-.27.03-.5-.04-.69-.2-.19-.16-.28-.37-.28-.64 0-.42.21-.66.62-.72.36-.05.71-.16 1.02-.31.23-.11.53-.29.92-.54.53-.34.79-.59.79-.76.01-.13-.35-.23-1.07-.29zm10.25 8.22c0-.17-.26-.25-.77-.25l-1.4.16c-.07.01-.22.04-.46.09-.19.04-.34.06-.46.06-.16 0-.29-.05-.39-.15a1.106 1.106 0 0 1-.12-1.12c.07-.35.72-.57 1.95-.65.31-.02.9.03 1.77.14.95.12 1.52.37 1.7.73.16.33.21.64.16.94-.05.23-.1.4-.17.51-.21.29-.44.53-.66.72-.44.38-.85.69-1.23.94-.87.57-2.08 1.2-3.63 1.9-.8.36-1.59.7-2.38 1.01-.36.14-.67.12-.95-.07-.42-.46-.63-.89-.63-1.32 0-.38.21-.57.62-.57.1 0 .26.02.47.05s.36.05.47.05c.18 0 .33-.02.46-.07.68-.24 1.02-.36 1.03-.37.68-.27 1.43-.63 2.27-1.08 1.26-.68 2.04-1.18 2.34-1.5.01-.05.01-.09.01-.15zm1.18-10.94c.2 0 .36.09.51.28.14.19.21.38.21.58 0 .12-.1.3-.3.53-.05.1-.65.45-1.8 1.07l-2.49 1.34c-.55.3-.92.47-1.09.51a.8.8 0 0 1-.33.08c-.19 0-.31-.07-.37-.2-.16-.36-.23-.57-.23-.63 0-.38.22-.62.66-.72 1.64-.8 3.27-1.71 4.9-2.72a.5.5 0 0 1 .33-.12zm1.17 2.06c.2 0 .36.09.51.28s.21.38.21.58c0 .1-.09.26-.26.46-.05.08-.29.25-.74.51l-3.59 1.97c-.54.29-.9.46-1.09.51a.8.8 0 0 1-.33.08c-.19 0-.31-.07-.37-.2-.16-.36-.23-.57-.23-.63 0-.38.22-.62.66-.72 1.64-.8 3.27-1.71 4.9-2.72.1-.09.21-.12.33-.12zm5.03 11.63c-.57.46-1.28.95-2.15 1.47-.98.59-1.63.91-1.93.97-.04.01-.09.01-.15.01-.34 0-.64-.2-.9-.59-.22-.34-.33-.68-.33-1.01 0-.31.15-.47.46-.5.02 0 .06 0 .13-.01s.14-.01.21 0c-.03 0 .15.01.52.04.35.03.56.03.62 0 .44-.16 1-.45 1.69-.88 1-.62 1.79-1.23 2.36-1.83a.784.784 0 0 1-.33-.61c-.03-.33.17-.64.59-.94.38-.28.74-.42 1.08-.42.55 0 .84.27.88.8.12.05.44-.1.95-.44.15-.13.42-.33.82-.6.12-.02.23-.03.31-.03.12 0 .2.02.26.05.21.12.35.28.42.5.03.2-.03.41-.16.63-.13.22-.19.36-.19.39.01.08.06.13.16.14.38.03.97-.37 1.75-1.19.33-.25.56-.38.7-.37.2.01.42.2.66.58.12.19.09.42-.08.7-.48.79-1.17 1.38-2.07 1.75-.44.18-.83.28-1.19.29-.7.03-1.11-.25-1.22-.85-.28.01-.79 0-1.52-.01-.19.19-.98.84-2.35 1.96zm1.15 5.79c.2 0 .36.09.51.28.14.19.21.38.21.58 0 .1-.1.27-.3.5-.21.18-.74.49-1.56.95l-2.73 1.49c-.53.29-.9.46-1.09.51a.8.8 0 0 1-.33.08c-.19 0-.31-.06-.37-.2-.16-.36-.23-.57-.23-.63 0-.38.22-.62.66-.72 1.64-.8 3.27-1.71 4.9-2.72.1-.09.22-.12.33-.12zm16.61-9.91c.2 0 .37.11.52.34.09.14.14.26.15.35.03.32-.26.67-.85 1.02l-3.42 2.09c-1.33.81-2.5 1.42-3.51 1.82-.28.11-.45.17-.52.17-.64.07-1.05-.29-1.21-1.08-.02-.1-.03-.19-.03-.27 0-.32.17-.48.5-.48.1 0 .26.01.48.04s.37.04.48.04c.29 0 .55-.06.76-.18.22-.03 1.17-.54 2.84-1.54 1.38-.83 2.37-1.45 2.98-1.88.38-.3.67-.44.83-.44zm-.16-7.65c.2 0 .36.09.51.28.14.19.21.38.21.58s-.1.36-.29.49c-.77.49-1.64 1-2.6 1.52l-1.7.93c-.54.29-.9.46-1.09.51a.8.8 0 0 1-.33.08c-.19 0-.31-.06-.37-.2-.16-.36-.23-.57-.23-.63 0-.38.22-.62.66-.72 1.64-.8 3.27-1.71 4.9-2.72a.5.5 0 0 1 .33-.12zM804.22 211.67c-.06-.15-.1-.31-.1-.5 0-.44.19-.72.56-.85.07-.05.18-.08.32-.08.25 0 .72.13 1.43.38l1.94-1.01c1.01-.53 1.54-.81 1.61-.84.08-.07.18-.1.29-.1.38 0 .61.22.68.65.01.08.02.15.02.2 0 .16-.16.34-.49.54-1.26.58-2.08.98-2.46 1.21.58.14 1.02.34 1.33.59.1.16.16.32.18.48.03.31-.05.56-.21.73-.24.25-.57.33-.99.22-.43-.11-.72-.19-.86-.22-.36-.1-.76-.22-1.2-.37-1.4.96-2.48 1.66-3.25 2.12-1.42.84-2.43 1.29-3.03 1.36-.2.02-.4-.08-.62-.3-.31-.31-.46-.73-.46-1.27 0-.34.22-.52.67-.52.1 0 .25.01.45.03.2.02.35.03.45.03.21 0 .39-.03.55-.08.69-.32 1.22-.58 1.58-.79.67-.39 1.32-.82 1.95-1.29-.2-.13-.31-.24-.34-.32zm3.31-9.19c-.66-.05-1.03-.1-1.11-.16-.3-.19-.45-.42-.45-.7 0-.38.2-.66.61-.84.49-.09.9-.12 1.21-.09.38.04.83.15 1.34.32.36.12.68.34.97.66.22.25.33.54.33.88 0 .48-.25.99-.74 1.53-.39.43-.85.79-1.37 1.08-.82.47-1.52.73-2.1.78-.27.03-.5-.04-.69-.2-.19-.16-.28-.37-.28-.64 0-.42.21-.66.62-.72.36-.05.71-.16 1.02-.31.23-.11.53-.29.92-.54.53-.34.79-.59.79-.76.01-.13-.35-.23-1.07-.29zm8.31 10.62c0-.38.25-.66.76-.82.45-.14.91-.33 1.4-.55-.29-.14-.53-.26-.7-.36-.38-.23-.6-.42-.63-.56-.06-.2-.06-.37.01-.54.07-.19.21-.29.41-.31.78-.07 1.46-.31 2.03-.73.29-.21.55-.31.78-.31.05 0 .09.01.13.03.2.12.32.28.39.48.02.06.03.22.03.49-.01 0-.03.03-.07.1-.08.13-.19.23-.33.31-.14.12-.24.2-.3.23-.23.14-.37.22-.4.24-.18.1-.26.17-.26.22.01.02.06.04.17.07.56.16.84.4.84.73 0 .06-.04.16-.12.31-.15.16-.27.28-.36.34-.42.31-.74.53-.97.64-.21.16-.31.21-.31.17.01.03.1.14.29.33.1.16.17.26.2.3.01.05.01.09.01.13 0 .27-.27.57-.8.9-4.18 2.54-6.57 3.83-7.17 3.88-.25.02-.51-.17-.76-.56-.23-.34-.35-.65-.38-.94-.05-.45.15-.67.58-.67.12 0 .26.01.41.03.05.01.28.01.67.01.21 0 .42-.03.63-.1.82-.36 1.47-.67 1.95-.94 1.16-.65 2.08-1.2 2.76-1.64-.6-.34-.89-.65-.89-.91zm5.54-11.47c.2 0 .36.09.51.28.14.19.21.38.21.58 0 .2-.1.36-.29.49-.77.49-1.64 1-2.6 1.52l-1.7.93c-.54.29-.9.46-1.09.51a.8.8 0 0 1-.33.08c-.19 0-.31-.07-.37-.2-.16-.36-.23-.57-.23-.63 0-.38.22-.62.66-.72 1.64-.8 3.27-1.71 4.9-2.72.1-.08.22-.12.33-.12zm6.69 11.77c-.57.46-1.28.95-2.15 1.47-.98.59-1.63.91-1.93.97-.04.01-.09.01-.15.01-.34 0-.64-.2-.9-.59-.22-.34-.33-.68-.33-1.01 0-.31.15-.47.46-.5.02 0 .06 0 .13-.01s.14-.01.21 0c-.03 0 .15.01.52.04.35.03.56.03.62 0 .44-.16 1-.45 1.69-.88 1-.62 1.79-1.23 2.36-1.83a.784.784 0 0 1-.33-.61c-.03-.33.17-.64.59-.94.38-.28.74-.42 1.08-.42.55 0 .84.27.88.8.12.05.44-.1.95-.44.15-.13.42-.33.82-.61.12-.02.23-.03.31-.03.12 0 .2.02.26.05.21.12.35.28.42.5.03.2-.03.41-.16.63-.13.22-.19.36-.19.4.01.08.06.13.16.14.38.03.97-.37 1.75-1.19.32-.25.56-.38.7-.37.2.01.42.2.66.58.12.19.09.42-.08.7-.48.79-1.17 1.38-2.07 1.75-.44.18-.83.28-1.19.29-.7.03-1.11-.25-1.22-.85-.28.01-.79 0-1.52-.01-.19.19-.98.85-2.35 1.96zm4.76-12.53c.75.01 1.31.38 1.68 1.09.06.22.1.47.1.76 0 .62-.16 1.14-.47 1.57-.77 1.06-2.03 1.66-3.78 1.8-.83-.03-1.41-.3-1.74-.79a2.57 2.57 0 0 1-.27-1.09c0-.58.27-1.16.81-1.74 1.02-1.09 2.25-1.63 3.67-1.6zm-2.71 3.26c.09.14.28.24.56.31h.31c.12 0 .25 0 .39-.01.76-.31 1.28-.68 1.56-1.09.03-.08.05-.17.05-.25 0-.4-.33-.59-.98-.56-.39.1-.66.2-.82.3-.36.17-.63.36-.82.57-.19.22-.29.4-.29.56 0 .06.01.12.04.17zm10.75 7.54c-.06-.15-.1-.31-.1-.5 0-.44.19-.72.56-.85.07-.05.18-.08.32-.08.25 0 .72.13 1.43.38l1.94-1.01c1.01-.53 1.54-.81 1.61-.84.08-.07.18-.1.29-.1.38 0 .61.22.68.65.01.08.02.15.02.2 0 .16-.16.34-.49.54-1.26.58-2.08.98-2.46 1.21.58.14 1.02.34 1.33.59.1.16.16.32.18.48.03.31-.05.56-.21.73-.24.25-.57.33-.99.22-.43-.11-.72-.19-.86-.22-.36-.1-.76-.22-1.2-.37-1.4.96-2.48 1.66-3.25 2.12-1.42.84-2.43 1.29-3.03 1.36-.2.02-.4-.08-.62-.3-.31-.31-.46-.73-.46-1.27 0-.34.22-.52.67-.52.1 0 .25.01.45.03.2.02.35.03.45.03.21 0 .39-.03.55-.08.69-.32 1.22-.58 1.58-.79.67-.39 1.32-.82 1.95-1.29-.19-.13-.3-.24-.34-.32zm4.8-10.04c.2 0 .36.09.51.28.14.19.21.38.21.58 0 .2-.1.36-.29.49-.77.49-1.64 1-2.6 1.52l-1.7.93c-.54.29-.9.46-1.09.51a.8.8 0 0 1-.33.08c-.19 0-.31-.07-.37-.2-.16-.36-.23-.57-.23-.63 0-.38.22-.62.66-.72 1.64-.8 3.27-1.71 4.9-2.72.11-.08.22-.12.33-.12zm7.15 9.81c.02-.34.23-.76.62-1.27.68-.88 1.7-1.32 3.05-1.32.32 0 .69.08 1.1.22.82.29 1.2.73 1.13 1.31-.06.5-.49 1.1-1.29 1.81-.6.53-1.24 1-1.89 1.43-2.71 1.76-4.54 2.74-5.5 2.93-.03.01-.07.01-.13.01-.25 0-.46-.17-.63-.52-.16-.23-.25-.49-.27-.78-.03-.38.12-.57.47-.57.11 0 .25.02.41.05.47.1.92.03 1.35-.2 1.07-.58 2.03-1.13 2.87-1.65-.91-.25-1.34-.74-1.29-1.45zm5.22-9.81c.2 0 .36.09.51.28.14.19.21.38.21.58 0 .2-.1.36-.29.49-.77.49-1.64 1-2.6 1.52l-1.7.93c-.54.29-.9.46-1.09.51a.8.8 0 0 1-.33.08c-.19 0-.31-.07-.37-.2-.16-.36-.23-.57-.23-.63 0-.38.22-.62.66-.72 1.64-.8 3.27-1.71 4.9-2.72.1-.08.22-.12.33-.12zm-1.85 8.64c-.4.05-.68.12-.84.22-.51.29-.74.57-.7.83 0 .13.08.25.25.35.2.06.47.05.82-.06.65-.19.98-.52.98-.97 0-.25-.17-.37-.51-.37zm11.02-2c.18 0 .35.08.51.24.16.16.24.33.24.51 0 .12-.31.44-.92.95-.22.18-.34.35-.37.51-.04.23.02.4.19.53.25.19.43.28.54.28.03 0 .13-.02.29-.06.32-.08.65-.18.99-.3.43-.16.7-.25.81-.28.21-.01.36.04.46.17.14.06.21.23.21.51 0 .23-.22.47-.66.72-1.71.95-2.85 1.58-3.42 1.9l-1.97 1.11c-1.06.6-1.77.94-2.14 1.02-.27.06-.45.08-.54.06-.17-.05-.35-.17-.53-.37-.19-.2-.3-.38-.34-.55-.11-.52-.02-.81.26-.86.07-.02.17-.03.31-.03.07 0 .18.01.32.01.14.01.25.01.32.01.19 0 .34-.02.45-.05.32-.14.78-.36 1.38-.66 1.09-.56 1.93-1.02 2.53-1.39-.31-.07-.59-.22-.82-.46-.25-.25-.38-.52-.38-.83 0-.7.62-1.53 1.87-2.5.18-.12.31-.19.41-.19zm.55-5.79c-.66-.05-1.03-.1-1.11-.16-.3-.19-.45-.42-.45-.7 0-.38.2-.66.61-.84.49-.09.9-.12 1.21-.09.38.04.83.15 1.34.32.36.12.68.34.97.66.22.25.33.54.33.88 0 .48-.25.99-.74 1.53-.39.43-.85.79-1.37 1.08-.82.47-1.52.73-2.1.78-.27.03-.5-.04-.69-.2-.19-.16-.28-.37-.28-.64 0-.42.21-.66.62-.72.36-.05.71-.16 1.02-.31.23-.11.53-.29.92-.54.53-.34.79-.59.79-.76 0-.13-.36-.23-1.07-.29zm8.08 10.92c-.57.46-1.28.95-2.15 1.47-.98.59-1.63.91-1.93.97-.04.01-.09.01-.15.01-.34 0-.64-.2-.9-.59-.22-.34-.33-.68-.33-1.01 0-.31.15-.47.46-.5.02 0 .06 0 .13-.01.06-.01.14-.01.21 0-.03 0 .15.01.52.04.35.03.56.03.62 0 .44-.16 1-.45 1.69-.88 1-.62 1.79-1.23 2.36-1.83a.784.784 0 0 1-.33-.61c-.03-.33.17-.64.59-.94.38-.28.74-.42 1.08-.42.55 0 .84.27.88.8.12.05.44-.1.95-.44.15-.13.42-.33.82-.61.12-.02.23-.03.31-.03.12 0 .2.02.26.05.21.12.35.28.42.5.03.2-.03.41-.16.63s-.19.36-.19.4c.01.08.06.13.16.14.38.03.97-.37 1.75-1.19.33-.25.56-.38.7-.37.2.01.42.2.66.58.12.19.09.42-.08.7-.48.79-1.17 1.38-2.07 1.75-.44.18-.83.28-1.19.29-.7.03-1.11-.25-1.22-.85-.28.01-.79 0-1.52-.01-.19.19-.98.85-2.35 1.96zm6.05-12.41c.51.09.77.34.78.76.01.44-.6.85-1.81 1.22-.59.18-1 .49-1.23.94.14.18.4.3.78.36.35.03.8.09 1.36.2.3.13.41.4.34.81-.1.53-.47.8-1.13.8-.51 0-1.15-.14-1.91-.43-.57-.22-.94-.55-1.11-1.01-.79.68-1.94 1.1-3.46 1.29-.28.03-.55 0-.81-.11-.32-.13-.49-.33-.49-.59 0-.47.22-.77.67-.88.32 0 .75-.06 1.29-.17.76-.16 1.29-.4 1.6-.74-.06-.25-.37-.45-.94-.61-.14-.03-.5-.07-1.09-.14-.33-.1-.5-.31-.5-.61 0-.05.01-.12.03-.22.11-.58.5-.85 1.18-.81.39.03.77.09 1.15.2.76.21 1.36.68 1.8 1.41.44-.51.84-.87 1.22-1.08.42-.23 1.07-.43 1.95-.59.09-.03.2-.03.33 0z"/><path d="M741.36 289.38c-.94.76-2.12 1.58-3.55 2.44-1.63.98-2.69 1.51-3.2 1.6-.06.01-.15.02-.24.02-.57 0-1.07-.32-1.49-.97-.37-.57-.55-1.13-.55-1.68 0-.51.25-.78.76-.82.03 0 .1-.01.21-.02.11-.01.23-.01.36 0-.04 0 .24.02.86.06.58.04.93.04 1.03 0 .72-.27 1.65-.75 2.79-1.45 1.66-1.02 2.96-2.03 3.91-3.04-.33-.24-.52-.58-.55-1.02-.04-.54.28-1.05.97-1.55.62-.46 1.22-.69 1.79-.69.9 0 1.39.44 1.45 1.32.2.08.73-.17 1.57-.73.25-.22.7-.55 1.36-1 .2-.03.38-.05.52-.05.19 0 .34.03.44.08.34.19.58.47.69.82.04.32-.04.67-.26 1.04s-.32.59-.31.65c.01.14.1.22.26.23.64.04 1.6-.61 2.89-1.97.54-.42.93-.62 1.16-.61.33.01.7.33 1.1.95.19.31.15.7-.13 1.16-.8 1.31-1.94 2.28-3.42 2.89-.72.3-1.38.46-1.97.48-1.16.05-1.84-.41-2.02-1.4-.46.01-1.3.01-2.52-.02-.33.35-1.64 1.43-3.91 3.28zm7.88-20.74c1.25.02 2.17.62 2.78 1.81.11.37.16.79.16 1.26 0 1.02-.26 1.89-.78 2.6-1.28 1.75-3.36 2.75-6.25 2.99-1.38-.05-2.34-.49-2.87-1.31-.3-.64-.45-1.24-.45-1.81 0-.96.45-1.92 1.34-2.87 1.69-1.83 3.72-2.72 6.07-2.67zm-4.49 5.39c.15.23.46.4.92.52h.52c.2 0 .42-.01.65-.02 1.26-.52 2.12-1.12 2.58-1.81.05-.14.08-.28.08-.42 0-.67-.54-.97-1.61-.92-.65.16-1.1.33-1.36.5-.59.28-1.05.6-1.36.95-.32.36-.48.66-.48.92 0 .1.02.19.06.28zm17.78 12.48a2 2 0 0 1-.16-.82c0-.72.31-1.19.92-1.4.12-.09.3-.13.53-.13.41 0 1.2.21 2.37.63l3.21-1.68c1.67-.87 2.56-1.33 2.66-1.39.14-.11.3-.16.48-.16.64 0 1.01.36 1.13 1.08.02.13.03.24.03.34 0 .26-.27.55-.81.89-2.09.96-3.44 1.63-4.07 2 .96.23 1.69.55 2.2.98.17.26.27.52.29.79.04.52-.08.92-.36 1.21-.4.42-.94.54-1.63.36-.71-.18-1.18-.31-1.42-.37-.59-.16-1.25-.37-1.99-.61-2.31 1.58-4.11 2.75-5.38 3.5-2.35 1.39-4.02 2.14-5.02 2.24-.32.03-.67-.13-1.03-.5-.51-.51-.76-1.21-.76-2.1 0-.57.37-.86 1.11-.86.16 0 .41.02.74.05.33.03.58.05.74.05.34 0 .65-.04.9-.13 1.14-.53 2.01-.96 2.62-1.31 1.11-.65 2.19-1.36 3.23-2.13-.29-.21-.48-.39-.53-.53zm7.94-16.61c.32 0 .6.15.84.46s.36.63.36.96-.16.6-.48.81c-1.28.81-2.72 1.65-4.31 2.52l-2.81 1.53c-.89.48-1.5.76-1.81.84-.18.09-.37.13-.55.13-.31 0-.52-.11-.61-.32-.26-.59-.39-.94-.39-1.05 0-.62.37-1.02 1.1-1.19 2.71-1.32 5.41-2.83 8.11-4.51.18-.13.37-.18.55-.18zm11.8 16.24c.03-.56.38-1.26 1.03-2.1 1.13-1.45 2.82-2.18 5.05-2.18.53 0 1.14.12 1.82.37 1.36.48 1.98 1.21 1.87 2.16-.1.83-.81 1.82-2.13 2.99-1 .87-2.05 1.66-3.13 2.37-4.48 2.92-7.51 4.53-9.11 4.84-.05.01-.12.02-.21.02-.41 0-.76-.29-1.05-.86a2.63 2.63 0 0 1-.45-1.29c-.05-.64.2-.95.78-.95.18 0 .41.03.68.08.79.16 1.53.05 2.23-.32 1.78-.96 3.36-1.87 4.75-2.73-1.49-.43-2.2-1.23-2.13-2.4zm8.64-16.24c.32 0 .6.15.84.46s.36.63.36.96-.16.6-.48.81c-1.28.81-2.72 1.65-4.31 2.52l-2.81 1.53c-.89.48-1.5.76-1.81.84-.18.09-.37.13-.55.13-.31 0-.52-.11-.61-.32-.26-.59-.39-.94-.39-1.05 0-.62.37-1.02 1.1-1.19 2.71-1.32 5.41-2.83 8.11-4.51.18-.13.37-.18.55-.18zm-3.05 14.3c-.67.09-1.13.2-1.39.36-.84.48-1.23.94-1.16 1.37 0 .22.14.41.42.58.32.11.78.08 1.36-.1 1.08-.32 1.61-.86 1.61-1.61 0-.4-.28-.6-.84-.6zm16.29 14.76c.32 0 .6.15.84.46s.36.63.36.96c0 .17-.17.45-.5.82-.36.29-1.22.81-2.58 1.57l-4.52 2.47c-.88.48-1.49.76-1.81.84-.18.09-.37.13-.55.13-.31 0-.52-.11-.61-.32-.26-.59-.39-.94-.39-1.05 0-.62.37-1.02 1.1-1.19 2.71-1.32 5.41-2.83 8.11-4.51.18-.12.37-.18.55-.18zm1.92-18.07c.3 0 .58.13.85.4s.4.55.4.85c0 .2-.51.73-1.52 1.57-.37.3-.57.58-.61.84-.06.38.04.67.31.87.42.31.72.47.89.47.05 0 .22-.03.48-.1.53-.13 1.07-.3 1.63-.5.71-.26 1.16-.41 1.34-.47.34-.02.6.07.76.27.24.1.36.38.36.84 0 .39-.37.79-1.1 1.19-2.83 1.57-4.72 2.62-5.67 3.15l-3.26 1.84c-1.75.99-2.93 1.56-3.54 1.7-.45.11-.75.14-.89.1-.28-.09-.57-.29-.88-.61-.31-.32-.49-.62-.56-.9-.18-.86-.04-1.33.44-1.42.11-.03.28-.05.52-.05.12 0 .3.01.53.02.24.02.41.02.53.02.31 0 .56-.03.74-.08.53-.23 1.29-.59 2.28-1.1 1.81-.93 3.2-1.69 4.18-2.29a2.76 2.76 0 0 1-1.36-.76c-.42-.41-.63-.87-.63-1.37 0-1.15 1.03-2.53 3.1-4.13.29-.24.52-.35.68-.35zm14.26 8.49c-.94.76-2.12 1.58-3.55 2.44-1.63.98-2.69 1.51-3.2 1.6-.06.01-.15.02-.24.02-.57 0-1.07-.32-1.49-.97-.37-.57-.55-1.13-.55-1.68 0-.51.25-.78.76-.82.03 0 .1-.01.21-.02.11-.01.23-.01.36 0-.04 0 .24.02.86.06.58.04.93.04 1.03 0 .72-.27 1.65-.75 2.79-1.45 1.66-1.02 2.96-2.03 3.91-3.04-.33-.24-.52-.58-.55-1.02-.04-.54.28-1.05.97-1.55.62-.46 1.22-.69 1.79-.69.9 0 1.39.44 1.45 1.32.2.08.73-.17 1.57-.73.25-.22.7-.55 1.36-1 .2-.03.38-.05.52-.05.19 0 .34.03.44.08.34.19.58.47.69.82.04.32-.04.67-.26 1.04s-.32.59-.31.65c.01.14.1.22.26.23.64.04 1.6-.61 2.89-1.97.54-.42.93-.62 1.16-.61.33.01.7.33 1.1.95.19.31.15.7-.13 1.16-.8 1.31-1.94 2.28-3.42 2.89-.72.3-1.38.46-1.97.48-1.16.05-1.84-.41-2.02-1.4-.46.01-1.3.01-2.52-.02-.33.35-1.64 1.43-3.91 3.28zm10.01-20.55c.85.15 1.28.57 1.29 1.26.01.73-.99 1.4-3 2.02-.97.29-1.65.81-2.03 1.55.24.29.67.49 1.29.6.58.04 1.33.15 2.24.32.5.22.68.66.57 1.34-.16.88-.79 1.32-1.87 1.32-.85 0-1.91-.24-3.16-.71-.95-.36-1.56-.91-1.84-1.68-1.3 1.12-3.21 1.83-5.73 2.13-.46.05-.91-.01-1.34-.18-.54-.22-.81-.54-.81-.97 0-.79.37-1.27 1.11-1.45.53 0 1.24-.09 2.13-.27 1.26-.26 2.14-.67 2.65-1.23-.1-.41-.61-.75-1.55-1.02-.23-.04-.83-.12-1.81-.23-.55-.17-.82-.51-.82-1 0-.08.02-.2.05-.37.18-.97.83-1.42 1.95-1.34.65.04 1.28.15 1.91.32 1.26.34 2.26 1.12 2.99 2.34.72-.85 1.39-1.45 2.02-1.79.69-.38 1.77-.71 3.23-.98.13-.03.32-.02.53.02zM699.16 418.42c.95-.03 1.7-.29 2.26-.76.33-.44.73-.66 1.19-.66.33 0 .64.14.91.42.27.28.41.59.41.92 0 .24-.06.48-.19.73-.6.78-1.36 1.29-2.26 1.53-.62.17-1.56.26-2.79.26-.41 0-.96-.04-1.65-.11-.79.79-2.14 1.89-4.05 3.33-1.53 1.14-3.4 2.18-5.6 3.12-.42.11-.72.14-.9.1-.48-.11-.96-.65-1.42-1.63-.08-.16-.12-.39-.13-.69-.01-.31.04-.51.16-.58.24-.14.62-.2 1.15-.19.86.02 1.43-.02 1.71-.13 1.02-.39 2.16-.98 3.4-1.78 1.24-.8 2.25-1.58 3.01-2.34-.3-.2-.45-.51-.45-.92 0-.67.39-1.19 1.18-1.57.45-.22.86-.3 1.21-.24.3.11.52.2.65.29.29.19.5.47.61.82.74.06 1.27.09 1.59.08zm-4.2 14.71c.32 0 .6.15.84.46.24.31.36.63.36.96 0 .17-.17.45-.5.82-.36.29-1.22.81-2.58 1.57l-4.52 2.47c-.88.48-1.49.76-1.81.84-.18.09-.37.13-.55.13-.31 0-.52-.11-.61-.32-.26-.59-.39-.94-.39-1.05 0-.62.37-1.02 1.1-1.19 2.71-1.32 5.41-2.83 8.11-4.51.18-.12.37-.18.55-.18zm14.39-10.07c0-.64.42-1.09 1.26-1.36.74-.24 1.51-.54 2.31-.9-.48-.23-.87-.43-1.16-.6-.64-.39-.98-.69-1.05-.92-.1-.32-.09-.62.02-.89.12-.31.34-.48.68-.52 1.29-.12 2.41-.52 3.36-1.21.47-.34.9-.52 1.29-.52.09 0 .16.02.21.05.32.2.54.47.65.79.03.1.05.37.05.81-.01 0-.05.05-.11.16-.13.22-.31.39-.55.52-.23.19-.39.32-.5.39-.39.24-.61.37-.66.4-.29.16-.44.28-.44.36.01.03.1.07.27.11.93.26 1.39.66 1.39 1.21 0 .1-.06.27-.19.52-.25.27-.45.46-.6.57-.7.52-1.23.87-1.6 1.07-.34.26-.52.35-.52.27.01.05.17.24.48.55.17.26.28.43.32.5.01.08.02.15.02.21 0 .45-.44.95-1.32 1.49-6.92 4.2-10.88 6.34-11.87 6.43-.42.03-.84-.27-1.26-.92-.38-.56-.59-1.08-.63-1.55-.08-.74.24-1.11.95-1.11.2 0 .43.02.68.05.09.01.46.02 1.11.02.34 0 .69-.05 1.05-.16 1.36-.59 2.43-1.11 3.23-1.55 1.93-1.08 3.45-1.98 4.57-2.71-.96-.63-1.44-1.14-1.44-1.56zm6.72-17.59c-1.1-.09-1.71-.17-1.84-.26-.5-.31-.74-.7-.74-1.16 0-.64.34-1.1 1.02-1.39.82-.15 1.49-.2 2-.15.64.06 1.37.24 2.21.53.59.2 1.12.57 1.6 1.1.37.41.55.89.55 1.45 0 .8-.41 1.64-1.23 2.54-.65.71-1.4 1.31-2.26 1.79-1.36.78-2.51 1.21-3.47 1.29-.45.04-.83-.06-1.15-.32-.31-.26-.47-.61-.47-1.07 0-.7.34-1.1 1.03-1.19.6-.09 1.17-.26 1.7-.52.38-.18.88-.48 1.52-.89.87-.56 1.31-.98 1.31-1.26 0-.22-.59-.39-1.78-.49zm18.5 16.18c.48-.98.73-1.65.73-2 0-.1-.03-.15-.08-.15a.16.16 0 0 0-.08.03c-.68.47-1.45 1.02-2.33 1.65-1.74 1.26-2.92 2.06-3.54 2.41l-2.92 1.66c-.7.4-1.36.7-1.97.9-.1.03-.2.05-.31.05-.34 0-.7-.19-1.07-.57-.58-.6-.87-1.28-.87-2.03 0-.28.07-.52.21-.73.22-.25.6-.37 1.15-.37.16 0 .4.01.7.02.31.02.54.02.7.02.33 0 .62-.03.87-.1.11-.05.18-.09.23-.1l.71-.39c1.17-.65 1.96-1.1 2.37-1.37l4.44-2.99c1.17-.79 1.89-1.22 2.15-1.29.38-.11.8-.02 1.28.26.7.41 1.05 1.08 1.05 2.02 0 .84-.24 1.87-.73 3.1-.71 1.8-1.44 3.11-2.2 3.92-.14.15-.34.23-.6.23-.33 0-.68-.13-1.03-.39-.4-.28-.6-.58-.6-.89 0-.32.1-.58.31-.76.44-.36.91-1.08 1.43-2.14zm2.9-18.84c1.25.02 2.17.62 2.78 1.81.11.37.16.79.16 1.26 0 1.02-.26 1.89-.78 2.6-1.28 1.75-3.36 2.75-6.25 2.99-1.38-.05-2.34-.49-2.87-1.31-.3-.64-.45-1.24-.45-1.81 0-.96.45-1.92 1.34-2.87 1.69-1.83 3.72-2.71 6.07-2.67zm-4.48 5.39c.15.23.46.4.92.52h.52c.2 0 .42-.01.65-.02 1.26-.52 2.12-1.12 2.58-1.81.05-.14.08-.28.08-.42 0-.67-.54-.97-1.61-.92-.65.16-1.1.33-1.36.5-.59.28-1.05.6-1.36.95s-.48.66-.48.92c-.01.1.01.2.06.28zm18.76 14.03c1.01-.1 1.52-.42 1.52-.97 0-.41-.23-.69-.69-.84-.56-.18-1.26-.37-2.1-.57-.72-.29-1.08-.62-1.08-1 0-1.04.51-1.52 1.53-1.42.23.02.44.03.65.03.7 0 1.8-.34 3.29-1.02.16-.08.38-.11.65-.11.32 0 .6.13.83.4.23.26.35.56.35.88 0 .37-.2.67-.61.9-.36.16-.71.33-1.07.5.66.58 1 1.35 1.03 2.29.02.67-.25 1.26-.82 1.79-1.24 1.14-3.02 1.71-5.36 1.71-.24 0-.77-.02-1.6-.05-3.43 2.84-5.82 4.67-7.17 5.47-2.17 1.3-3.58 1.92-4.23 1.86-.37-.08-.73-.46-1.08-1.15-.32-.64-.48-1.17-.48-1.6 0-.36.1-.62.31-.79.2-.11.43-.16.68-.16.18 0 .46.03.84.09.38.06.66.09.84.09.6 0 1.19-.18 1.76-.55 2.58-1.67 4.43-2.93 5.54-3.79-.13-.26-.19-.47-.19-.65 0-.53.13-.95.39-1.28.67-.84 1.46-1.24 2.37-1.21 1.14.04 1.81.46 2.02 1.24.79 0 1.42-.04 1.88-.09zm1.06-16.76c-1.1-.09-1.71-.17-1.84-.26-.5-.31-.74-.7-.74-1.16 0-.64.34-1.1 1.02-1.39.82-.15 1.49-.2 2-.15.64.06 1.37.24 2.21.53.59.2 1.12.57 1.6 1.1.37.41.55.89.55 1.45 0 .8-.41 1.64-1.23 2.54-.65.71-1.4 1.31-2.26 1.79-1.36.78-2.51 1.21-3.47 1.29-.45.04-.83-.06-1.15-.32-.31-.26-.47-.61-.47-1.07 0-.7.34-1.1 1.03-1.19.6-.09 1.17-.26 1.7-.52.38-.18.88-.48 1.52-.89.87-.56 1.31-.98 1.31-1.26 0-.22-.59-.39-1.78-.49zm17.98 9.6c.3 0 .58.13.85.4s.4.55.4.85c0 .2-.51.73-1.52 1.57-.37.3-.57.58-.61.84-.06.38.04.67.31.87.42.31.72.47.89.47.05 0 .22-.03.48-.1.53-.13 1.07-.3 1.63-.5.71-.26 1.16-.41 1.34-.47.34-.02.6.07.76.27.24.1.36.38.36.84 0 .39-.37.79-1.1 1.19-2.83 1.57-4.72 2.62-5.67 3.15l-3.26 1.84c-1.75.99-2.93 1.56-3.54 1.7-.45.11-.75.14-.89.1-.28-.09-.57-.29-.88-.61-.31-.32-.49-.62-.56-.9-.18-.86-.04-1.33.44-1.42.11-.03.28-.05.52-.05.12 0 .3.01.53.02.24.02.41.02.53.02.31 0 .56-.03.74-.08.53-.23 1.29-.59 2.28-1.1 1.81-.93 3.2-1.69 4.18-2.29a2.76 2.76 0 0 1-1.36-.76c-.42-.41-.63-.87-.63-1.37 0-1.15 1.03-2.53 3.1-4.13.29-.24.52-.35.68-.35zm.9-9.6c-1.1-.09-1.71-.17-1.84-.26-.5-.31-.74-.7-.74-1.16 0-.64.34-1.1 1.02-1.39.82-.15 1.49-.2 2-.15.64.06 1.37.24 2.21.53.59.2 1.12.57 1.6 1.1.37.41.55.89.55 1.45 0 .8-.41 1.64-1.23 2.54-.65.71-1.4 1.31-2.26 1.79-1.36.78-2.51 1.21-3.47 1.29-.45.04-.83-.06-1.15-.32-.31-.26-.47-.61-.47-1.07 0-.7.34-1.1 1.03-1.19.6-.09 1.17-.26 1.7-.52.38-.18.88-.48 1.52-.89.87-.56 1.31-.98 1.31-1.26 0-.22-.59-.39-1.78-.49zm20.11 11.16c.31-.14.52-.23.63-.27.26-.11.55.06.89.52.23.3.34.6.36.89.01.24-.2.54-.63.9-1.23 1.04-2.99 2.21-5.28 3.49-3.21 1.8-5.3 2.72-6.28 2.78-.38.02-.73-.12-1.07-.41-.33-.3-.5-.63-.5-1.01 0-.2.39-.73 1.16-1.57.58-.95.92-1.75 1.02-2.42l-.1-1.74c-.04-.82.16-1.31.6-1.49.39-.15.71-.2.97-.16.66.11 1.03.65 1.11 1.61.05.6.08.97.08 1.1 0 .99-.23 1.84-.69 2.54.92-.35 3.5-1.93 7.73-4.76zm-2.02-11.16c-1.1-.09-1.71-.17-1.84-.26-.5-.31-.74-.7-.74-1.16 0-.64.34-1.1 1.02-1.39.82-.15 1.49-.2 2-.15.64.06 1.37.24 2.21.53.59.2 1.12.57 1.6 1.1.37.41.55.89.55 1.45 0 .8-.41 1.64-1.23 2.54-.65.71-1.4 1.31-2.26 1.79-1.36.78-2.51 1.21-3.47 1.29-.45.04-.83-.06-1.15-.32-.31-.26-.47-.61-.47-1.07 0-.7.34-1.1 1.03-1.19.6-.09 1.17-.26 1.7-.52.38-.18.88-.48 1.52-.89.87-.56 1.31-.98 1.31-1.26 0-.22-.59-.39-1.78-.49z" fill="#bd0e72"/><path d="M679.63 511.44c.61-.06.92-.25.92-.59 0-.25-.14-.42-.42-.51-.34-.11-.76-.22-1.27-.34-.44-.17-.65-.38-.65-.6 0-.63.31-.92.93-.86.14.01.27.02.39.02.42 0 1.09-.2 1.99-.61.1-.04.23-.07.39-.07.2 0 .36.08.5.24.14.16.21.34.21.53 0 .22-.12.4-.37.55-.21.1-.43.2-.64.3.4.35.6.81.62 1.39.01.4-.15.76-.5 1.08-.75.69-1.83 1.03-3.24 1.03-.14 0-.46-.01-.97-.03-2.07 1.72-3.52 2.82-4.33 3.31-1.31.79-2.17 1.16-2.56 1.12-.22-.05-.44-.28-.65-.69-.2-.38-.29-.71-.29-.97 0-.21.06-.37.19-.48.12-.06.26-.1.41-.1.11 0 .28.02.51.05.23.04.4.05.51.05.36 0 .72-.11 1.06-.33 1.56-1.01 2.68-1.77 3.35-2.29-.08-.16-.12-.29-.12-.39 0-.32.08-.58.23-.77.4-.51.88-.75 1.43-.73.69.03 1.1.28 1.22.75.5-.01.88-.03 1.15-.06zm-1.9-10.2c-.66-.05-1.03-.1-1.11-.16-.3-.19-.45-.42-.45-.7 0-.38.2-.66.61-.84.49-.09.9-.12 1.21-.09.38.04.83.15 1.34.32.36.12.68.34.97.66.22.25.33.54.33.88 0 .48-.25.99-.74 1.53-.39.43-.85.79-1.37 1.08-.82.47-1.52.73-2.1.78-.27.03-.5-.04-.69-.2s-.28-.37-.28-.64c0-.42.21-.66.62-.72.36-.05.71-.16 1.02-.31.23-.11.53-.29.92-.54.53-.34.79-.59.79-.76 0-.13-.35-.23-1.07-.29zm4.89.03c-.66-.05-1.03-.1-1.11-.16-.3-.19-.45-.42-.45-.7 0-.38.2-.66.61-.84.49-.09.9-.12 1.21-.09.38.04.83.15 1.34.32.36.12.68.34.97.66.22.25.33.54.33.88 0 .48-.25.99-.74 1.53-.39.43-.85.79-1.37 1.08-.82.47-1.52.73-2.1.78-.27.03-.5-.04-.69-.2s-.28-.37-.28-.64c0-.42.21-.66.62-.72.36-.05.71-.16 1.02-.31.23-.11.53-.29.92-.54.53-.34.79-.59.79-.76 0-.13-.36-.23-1.07-.29zm6.22 10.97c-.57.46-1.28.95-2.15 1.47-.98.59-1.63.91-1.93.97-.04.01-.09.01-.15.01-.34 0-.64-.2-.9-.59-.22-.34-.33-.68-.33-1.01 0-.31.15-.47.46-.5.02 0 .06 0 .13-.01s.14-.01.21 0c-.03 0 .15.01.52.04.35.03.56.03.62 0 .44-.16 1-.45 1.69-.88 1-.62 1.79-1.23 2.36-1.83a.784.784 0 0 1-.33-.61c-.03-.33.17-.64.59-.94.38-.28.74-.42 1.08-.42.55 0 .84.27.88.8.12.05.44-.1.95-.44.15-.13.42-.33.82-.61.12-.02.23-.03.31-.03.12 0 .2.02.26.05.21.12.35.28.42.5.03.2-.03.4-.16.63-.13.22-.19.36-.19.4.01.08.06.13.16.14.38.03.97-.37 1.75-1.19.33-.25.56-.38.7-.37.2.01.42.2.66.58.12.19.09.42-.08.7-.48.79-1.17 1.38-2.07 1.75-.44.18-.83.28-1.19.29-.7.03-1.11-.25-1.22-.85-.28.01-.79 0-1.52-.01-.19.19-.98.84-2.35 1.96zm4.76-12.53c.75.01 1.31.38 1.68 1.09.07.22.1.48.1.76 0 .62-.16 1.14-.47 1.57-.77 1.06-2.03 1.66-3.78 1.8-.83-.03-1.41-.3-1.74-.79a2.57 2.57 0 0 1-.27-1.09c0-.58.27-1.16.81-1.74 1.03-1.09 2.25-1.63 3.67-1.6zm-2.71 3.25c.09.14.28.24.56.31h.31c.12 0 .25 0 .39-.01.76-.31 1.28-.68 1.56-1.09.03-.08.05-.17.05-.25 0-.4-.32-.59-.98-.56-.39.1-.66.2-.82.3-.36.17-.63.36-.82.57-.19.22-.29.4-.29.56 0 .07.01.12.04.17zm15.24 6.53c0-.17-.26-.25-.77-.25l-1.4.16c-.07.01-.22.04-.46.09-.19.04-.34.06-.46.06-.16 0-.29-.05-.39-.15a1.106 1.106 0 0 1-.12-1.12c.06-.35.72-.57 1.95-.65.31-.02.9.03 1.77.14.95.12 1.52.37 1.7.73.16.33.21.64.16.94-.05.23-.1.4-.17.51-.21.29-.44.53-.66.72-.44.38-.85.69-1.23.94-.87.57-2.08 1.2-3.63 1.9-.8.36-1.59.7-2.38 1.01-.36.14-.67.12-.95-.07-.42-.46-.63-.89-.63-1.32 0-.38.21-.57.62-.57.1 0 .26.02.47.05.21.03.36.05.47.05.18 0 .33-.02.46-.07.68-.24 1.02-.36 1.03-.37.68-.27 1.43-.63 2.27-1.08 1.26-.68 2.04-1.18 2.34-1.5.01-.05.01-.1.01-.15zm-1.17-8.17c-.66-.05-1.03-.1-1.11-.16-.3-.19-.45-.42-.45-.7 0-.38.2-.66.61-.84.49-.09.9-.12 1.21-.09.38.04.83.15 1.34.32.36.12.68.34.97.66.22.25.33.54.33.88 0 .48-.25.99-.74 1.53-.39.43-.85.79-1.37 1.08-.82.47-1.52.73-2.1.78-.27.03-.5-.04-.69-.2-.19-.16-.28-.37-.28-.64 0-.42.21-.66.62-.72.36-.05.71-.16 1.02-.31.23-.11.53-.29.92-.54.53-.34.79-.59.79-.76.01-.13-.35-.24-1.07-.29zm12.63 6.74c.19-.08.32-.14.38-.17.16-.06.34.04.54.31.14.18.21.36.21.54.01.14-.12.32-.38.55-.74.63-1.8 1.33-3.19 2.11-1.94 1.09-3.2 1.65-3.79 1.68-.23.01-.44-.07-.64-.25s-.3-.38-.3-.61c0-.12.23-.44.7-.95.35-.57.56-1.06.61-1.46l-.06-1.05c-.03-.49.09-.79.36-.9.23-.09.43-.12.59-.1.4.06.62.39.67.97.03.36.05.59.05.66 0 .6-.14 1.11-.42 1.53.55-.2 2.11-1.15 4.67-2.86zm-1.22-6.74c-.66-.05-1.03-.1-1.11-.16-.3-.19-.45-.42-.45-.7 0-.38.2-.66.61-.84.49-.09.9-.12 1.21-.09.38.04.83.15 1.34.32.36.12.68.34.97.66.22.25.33.54.33.88 0 .48-.25.99-.74 1.53-.39.43-.85.79-1.37 1.08-.82.47-1.52.73-2.1.78-.27.03-.5-.04-.69-.2-.19-.16-.28-.37-.28-.64 0-.42.21-.66.62-.72.36-.05.71-.16 1.02-.31.23-.11.53-.29.92-.54.53-.34.79-.59.79-.76 0-.13-.36-.24-1.07-.29zM521.8 580.46c.61-.06.92-.25.92-.59 0-.25-.14-.42-.42-.51-.34-.11-.76-.22-1.27-.34-.44-.17-.65-.38-.65-.6 0-.63.31-.92.93-.86.14.01.27.02.39.02.42 0 1.09-.2 1.99-.61.1-.05.23-.07.39-.07.2 0 .36.08.5.24.14.16.21.34.21.53 0 .22-.12.4-.37.55-.21.1-.43.2-.64.3.4.35.6.81.62 1.39.01.4-.15.76-.5 1.08-.75.69-1.83 1.03-3.24 1.03-.14 0-.46-.01-.97-.03-2.07 1.72-3.52 2.82-4.33 3.31-1.31.79-2.17 1.16-2.56 1.12-.22-.05-.44-.28-.65-.69-.2-.38-.29-.71-.29-.97 0-.21.06-.37.19-.48.12-.06.26-.1.41-.1.11 0 .28.02.51.05.23.04.4.05.51.05.36 0 .72-.11 1.06-.33 1.56-1.01 2.68-1.77 3.35-2.29-.08-.16-.12-.29-.12-.39 0-.32.08-.58.23-.77.4-.51.88-.75 1.43-.73.69.03 1.1.28 1.22.75.49-.01.88-.04 1.15-.06zm-1.9-10.21c-.66-.05-1.03-.1-1.11-.16-.3-.19-.45-.42-.45-.7 0-.38.2-.66.61-.84.49-.09.9-.12 1.21-.09.38.04.83.15 1.34.32.36.12.68.34.97.66.22.25.33.54.33.88 0 .48-.25.99-.74 1.53-.39.43-.85.79-1.37 1.08-.82.47-1.52.73-2.1.78-.27.03-.5-.04-.69-.19-.19-.16-.28-.37-.28-.64 0-.42.21-.66.62-.72.36-.05.71-.16 1.02-.31.23-.11.53-.29.92-.54.53-.34.79-.59.79-.76 0-.14-.36-.24-1.07-.3zm4.88.03c-.66-.05-1.03-.1-1.11-.16-.3-.19-.45-.42-.45-.7 0-.38.2-.66.61-.84.49-.09.9-.12 1.21-.09.38.04.83.15 1.34.32.36.12.68.34.97.66.22.25.33.54.33.88 0 .48-.25.99-.74 1.53-.39.43-.85.79-1.37 1.08-.82.47-1.52.73-2.1.78-.27.03-.5-.04-.69-.2-.19-.16-.28-.37-.28-.64 0-.42.21-.66.62-.72.36-.05.71-.16 1.02-.31.23-.11.53-.29.92-.54.53-.34.79-.59.79-.76.01-.13-.35-.23-1.07-.29zm6.23 10.98c-.57.46-1.28.95-2.15 1.47-.98.59-1.63.91-1.93.97-.04.01-.09.01-.15.01-.34 0-.64-.2-.9-.59-.22-.34-.33-.68-.33-1.01 0-.31.15-.47.46-.5.02 0 .06 0 .13-.01.06-.01.14-.01.21 0-.03 0 .15.01.52.04.35.03.56.03.62 0 .44-.16 1-.45 1.69-.88 1-.62 1.79-1.23 2.36-1.83a.784.784 0 0 1-.33-.61c-.03-.33.17-.64.59-.94.38-.28.74-.42 1.08-.42.55 0 .84.27.88.8.12.05.44-.1.95-.44.15-.13.42-.33.82-.6.12-.02.23-.03.31-.03.12 0 .2.02.26.05.21.12.35.28.42.5.03.2-.03.41-.16.63-.13.22-.19.36-.19.39.01.08.06.13.16.14.38.03.97-.37 1.75-1.19.33-.25.56-.38.7-.37.2.01.42.2.66.58.12.19.09.42-.08.7-.48.79-1.17 1.38-2.07 1.75-.44.18-.83.28-1.19.29-.7.03-1.11-.25-1.22-.85-.28.01-.79 0-1.52-.01-.19.18-.98.84-2.35 1.96zm4.76-12.54c.75.01 1.31.38 1.68 1.09.07.22.1.47.1.76 0 .62-.16 1.14-.47 1.57-.77 1.06-2.03 1.66-3.78 1.8-.83-.03-1.41-.3-1.74-.79a2.57 2.57 0 0 1-.27-1.09c0-.58.27-1.16.81-1.74 1.02-1.09 2.24-1.62 3.67-1.6zm-2.71 3.26c.09.14.28.24.56.31h.31c.12 0 .25 0 .39-.01.76-.31 1.28-.68 1.56-1.09.03-.08.05-.17.05-.25 0-.4-.32-.59-.98-.56-.39.1-.66.2-.82.3-.36.17-.63.36-.82.58-.19.22-.29.4-.29.56 0 .05.01.11.04.16zm10.75 7.54c-.06-.15-.1-.31-.1-.5 0-.44.19-.72.56-.85.07-.05.18-.08.32-.08.25 0 .72.13 1.43.38l1.94-1.01c1.01-.53 1.54-.81 1.61-.84.08-.07.18-.1.29-.1.38 0 .61.22.68.65.01.08.02.15.02.2 0 .16-.16.34-.49.54-1.26.58-2.08.98-2.46 1.21.58.14 1.02.34 1.33.59.1.16.16.32.18.48.03.31-.05.56-.21.73-.24.25-.57.33-.99.22-.43-.11-.72-.19-.86-.22-.36-.1-.76-.22-1.2-.37-1.4.96-2.48 1.66-3.25 2.12-1.42.84-2.43 1.29-3.03 1.35-.2.02-.4-.08-.62-.3-.31-.31-.46-.73-.46-1.27 0-.34.22-.52.67-.52.1 0 .25.01.45.03.2.02.35.03.45.03.21 0 .39-.03.55-.08.69-.32 1.22-.58 1.58-.79.67-.39 1.32-.82 1.95-1.29-.19-.12-.31-.22-.34-.31zm3.38-8.57c-.49.45-.73.8-.73 1.06 0 .03.01.06.04.08-.03.06.08.1.34.11.55.03.94 0 1.16-.11.14-.03.26-.04.37-.04.67 0 1 .26 1 .79 0 .48-.21.75-.64.8-.28.07-.69.11-1.24.11-1.86 0-2.79-.56-2.79-1.68 0-.16.02-.28.06-.36.21-.72.67-1.37 1.38-1.97.34-.3.58-.5.69-.61.19-.17.46-.33.81-.47.11-.04.2-.06.25-.04.55.17.83.5.83.97 0 .23-.18.45-.54.64-.51.33-.84.57-.99.72zm13.52 6.12c.19-.08.32-.14.38-.17.16-.06.34.04.54.31.14.18.21.36.21.54.01.14-.12.32-.38.55-.74.63-1.8 1.33-3.19 2.11-1.94 1.09-3.2 1.65-3.79 1.68-.23.01-.44-.07-.64-.25s-.3-.38-.3-.61c0-.12.23-.44.7-.95.35-.57.56-1.06.61-1.46l-.06-1.05c-.03-.49.09-.79.36-.9.23-.09.43-.12.59-.1.4.07.62.39.67.98.03.36.05.58.05.66 0 .6-.14 1.11-.42 1.53.56-.2 2.11-1.16 4.67-2.87zm-1.22-6.74c-.66-.05-1.03-.1-1.11-.16-.3-.19-.45-.42-.45-.7 0-.38.2-.66.61-.84.49-.09.9-.12 1.21-.09.38.04.83.15 1.34.32.36.12.68.34.97.66.22.25.33.54.33.88 0 .48-.25.99-.74 1.53-.39.43-.85.79-1.37 1.08-.82.47-1.52.73-2.1.78-.27.03-.5-.04-.69-.19-.19-.16-.28-.37-.28-.64 0-.42.21-.66.62-.72.36-.05.71-.16 1.02-.31.23-.11.53-.29.92-.54.53-.34.79-.59.79-.76 0-.14-.35-.24-1.07-.3zm7.92 10.93c-.57.46-1.28.95-2.15 1.47-.98.59-1.63.91-1.93.97-.04.01-.09.01-.15.01-.34 0-.64-.2-.9-.59-.22-.34-.33-.68-.33-1.01 0-.31.15-.47.46-.5.02 0 .06 0 .13-.01.06-.01.14-.01.21 0-.03 0 .15.01.52.04.35.03.56.03.62 0 .44-.16 1-.45 1.69-.88 1-.62 1.79-1.23 2.36-1.83a.784.784 0 0 1-.33-.61c-.03-.33.17-.64.59-.94.38-.28.74-.42 1.08-.42.55 0 .84.27.88.8.12.05.44-.1.95-.44.15-.13.42-.33.82-.6.12-.02.23-.03.31-.03.12 0 .2.02.26.05.21.12.35.28.42.5.03.2-.03.41-.16.63-.13.22-.19.36-.19.39.01.08.06.13.16.14.38.03.97-.37 1.75-1.19.33-.25.56-.38.7-.37.2.01.42.2.66.58.12.19.09.42-.08.7-.48.79-1.17 1.38-2.07 1.75-.44.18-.83.28-1.19.29-.7.03-1.11-.25-1.22-.85-.28.01-.79 0-1.52-.01-.19.18-.97.84-2.35 1.96zm-.37-10.04c-.49.45-.73.8-.73 1.06 0 .03.01.06.04.08-.03.06.08.09.34.11.55.03.94 0 1.16-.11.14-.03.26-.04.37-.04.67 0 1 .26 1 .79 0 .48-.21.75-.64.8-.28.07-.69.11-1.24.11-1.86 0-2.79-.56-2.79-1.68 0-.16.02-.28.06-.36.21-.72.67-1.37 1.38-1.97.34-.3.58-.5.69-.61.19-.18.46-.33.81-.47.11-.05.2-.06.25-.04.55.18.83.5.83.98 0 .23-.18.45-.54.63-.5.34-.83.58-.99.72zm4.63-.32c-.49.45-.73.8-.73 1.06 0 .03.01.06.04.08-.03.06.08.09.34.11.55.03.94 0 1.16-.11.14-.03.26-.04.37-.04.67 0 1 .26 1 .79 0 .48-.21.75-.64.8-.28.07-.69.11-1.24.11-1.86 0-2.79-.56-2.79-1.68 0-.16.02-.28.06-.36.21-.72.67-1.37 1.38-1.97.34-.3.58-.5.69-.61.19-.17.46-.33.81-.47.11-.05.2-.06.25-.04.55.18.83.5.83.98 0 .23-.18.45-.54.64-.5.32-.84.57-.99.71zm-240.45-17.53c.61-.06.92-.25.92-.59 0-.25-.14-.42-.42-.51-.34-.11-.76-.22-1.27-.34-.44-.17-.65-.38-.65-.6 0-.63.31-.92.93-.86.14.01.27.02.39.02.42 0 1.09-.2 1.99-.61.1-.05.23-.07.39-.07.2 0 .36.08.5.24.14.16.21.34.21.53 0 .22-.12.4-.37.55-.21.1-.43.2-.64.3.4.35.6.81.62 1.39.01.4-.15.76-.5 1.08-.75.69-1.83 1.03-3.24 1.03-.14 0-.47-.01-.97-.03-2.07 1.72-3.52 2.82-4.33 3.31-1.31.79-2.17 1.16-2.56 1.12-.22-.05-.44-.28-.65-.69-.2-.38-.29-.71-.29-.97 0-.21.06-.37.19-.48.12-.06.26-.1.41-.1.11 0 .28.02.51.05.23.04.4.05.51.05.36 0 .72-.11 1.06-.33 1.56-1.01 2.68-1.77 3.35-2.29-.08-.16-.12-.29-.12-.39 0-.32.08-.58.23-.77.4-.51.88-.75 1.43-.73.69.03 1.1.28 1.22.75.49-.01.87-.03 1.15-.06zm-1.91-10.2c-.66-.05-1.03-.1-1.11-.16-.3-.19-.45-.42-.45-.7 0-.38.2-.66.61-.84.49-.09.9-.12 1.21-.09.38.04.83.15 1.34.32.36.12.68.34.97.66.22.25.33.54.33.88 0 .48-.25.99-.74 1.53-.39.43-.85.79-1.37 1.08-.82.47-1.52.73-2.1.78-.27.03-.5-.04-.69-.19-.19-.16-.28-.37-.28-.64 0-.42.21-.66.62-.72.36-.05.71-.16 1.02-.31.23-.11.53-.29.92-.54.53-.34.79-.59.79-.76.01-.14-.35-.24-1.07-.3zm4.89.03c-.66-.05-1.03-.1-1.11-.16-.3-.19-.45-.42-.45-.7 0-.38.2-.66.61-.84.49-.09.9-.12 1.21-.09.38.04.83.15 1.34.32.36.12.68.34.97.66.22.25.33.54.33.88 0 .48-.25.99-.74 1.53-.39.43-.85.79-1.37 1.08-.82.47-1.52.73-2.1.78-.27.03-.5-.04-.69-.2-.19-.16-.28-.37-.28-.64 0-.42.21-.66.62-.72.36-.05.71-.16 1.02-.31.23-.11.53-.29.92-.54.53-.34.79-.59.79-.76 0-.13-.35-.23-1.07-.29zm5.77 9.24c-.07-.15-.1-.31-.1-.5 0-.44.19-.72.56-.85.07-.05.18-.08.32-.08.25 0 .73.13 1.43.38l1.94-1.01c1.01-.53 1.54-.81 1.61-.84.08-.07.18-.1.29-.1.38 0 .61.22.68.65.01.08.02.15.02.2 0 .16-.16.34-.49.54-1.26.58-2.08.98-2.46 1.21.58.14 1.02.34 1.33.59.1.16.16.32.18.48.03.31-.05.56-.21.73-.24.25-.57.33-.99.22-.43-.11-.72-.19-.86-.22-.36-.1-.76-.22-1.2-.37-1.4.96-2.48 1.66-3.25 2.12-1.42.84-2.43 1.29-3.03 1.35-.2.02-.4-.08-.62-.3-.31-.31-.46-.73-.46-1.27 0-.34.22-.52.67-.52.1 0 .25.01.45.03.2.02.35.03.45.03.21 0 .39-.03.55-.08.69-.32 1.22-.58 1.58-.79.67-.39 1.32-.82 1.95-1.29-.2-.12-.31-.23-.34-.31zm4.79-10.04c.2 0 .36.09.51.28.14.19.21.38.21.58s-.1.36-.29.49c-.77.49-1.64 1-2.6 1.52l-1.7.93c-.54.29-.9.46-1.09.51a.8.8 0 0 1-.33.08c-.19 0-.31-.06-.37-.2-.16-.36-.23-.57-.23-.63 0-.38.22-.62.66-.72 1.64-.8 3.27-1.71 4.9-2.72a.5.5 0 0 1 .33-.12zm12.1 7.59c.19-.08.32-.14.38-.17.16-.06.33.04.54.31.14.18.21.36.21.54.01.14-.12.32-.38.55-.74.63-1.8 1.33-3.19 2.11-1.94 1.09-3.2 1.65-3.79 1.68-.23.01-.44-.07-.64-.25s-.3-.38-.3-.61c0-.12.23-.44.7-.95.35-.57.56-1.06.61-1.46l-.06-1.05c-.03-.49.09-.79.36-.9.23-.09.43-.12.59-.1.4.07.62.39.67.98.03.36.05.58.05.66 0 .6-.14 1.11-.42 1.53.56-.21 2.12-1.16 4.67-2.87zm.27-7.59c.2 0 .36.09.51.28.14.19.21.38.21.58s-.1.36-.29.49c-.77.49-1.64 1-2.6 1.52l-1.7.93c-.54.29-.9.46-1.09.51a.8.8 0 0 1-.33.08c-.19 0-.31-.06-.37-.2-.16-.36-.23-.57-.23-.63 0-.38.22-.62.66-.72 1.64-.8 3.27-1.71 4.9-2.72.1-.09.22-.12.33-.12zm7.59 17.56c.2 0 .36.09.51.28.14.19.21.38.21.58 0 .1-.1.27-.3.5-.21.18-.73.49-1.56.95l-2.73 1.49c-.53.29-.9.46-1.09.51a.8.8 0 0 1-.33.08c-.19 0-.31-.06-.37-.2-.16-.36-.23-.57-.23-.63 0-.38.22-.62.66-.72 1.64-.8 3.27-1.71 4.9-2.72a.5.5 0 0 1 .33-.12zm1.85-6.94c.29-.59.44-1 .44-1.21 0-.06-.02-.09-.05-.09-.01 0-.03.01-.05.02-.41.29-.88.62-1.4 1-1.05.76-1.77 1.24-2.14 1.45l-1.77 1.01c-.42.24-.82.42-1.19.55-.06.02-.12.03-.19.03-.21 0-.42-.11-.64-.34-.35-.36-.53-.77-.53-1.23 0-.17.04-.31.13-.44.13-.15.36-.22.69-.22.1 0 .24.01.42.01.19.01.33.01.42.01.2 0 .38-.02.53-.06.07-.03.11-.05.14-.06l.43-.23c.71-.39 1.19-.67 1.43-.83l2.68-1.8c.71-.47 1.14-.74 1.3-.78.23-.07.48-.01.77.16.42.25.63.65.63 1.22 0 .51-.15 1.13-.44 1.87-.43 1.09-.87 1.88-1.33 2.37-.08.09-.2.14-.36.14-.2 0-.41-.08-.62-.23-.24-.17-.36-.35-.36-.54 0-.2.06-.35.19-.46.28-.25.56-.68.87-1.32zm7.3-.81c.02-.34.23-.76.62-1.27.68-.88 1.7-1.32 3.05-1.32.32 0 .69.08 1.1.22.82.29 1.2.73 1.13 1.31-.06.5-.49 1.1-1.29 1.8-.6.53-1.24 1.01-1.89 1.43-2.71 1.76-4.54 2.74-5.5 2.93-.03.01-.07.01-.13.01-.25 0-.46-.17-.63-.52-.16-.23-.25-.49-.27-.78-.03-.38.12-.58.47-.58.11 0 .25.02.41.05.47.1.92.03 1.35-.2 1.07-.58 2.03-1.13 2.87-1.65-.9-.24-1.33-.72-1.29-1.43zm5.22-9.81c.2 0 .36.09.51.28.14.19.21.38.21.58s-.1.36-.29.49c-.77.49-1.64 1-2.6 1.52l-1.7.93c-.54.29-.9.46-1.09.51a.8.8 0 0 1-.33.08c-.19 0-.31-.06-.37-.2-.16-.36-.23-.57-.23-.63 0-.38.22-.62.66-.72 1.64-.8 3.27-1.71 4.9-2.72a.5.5 0 0 1 .33-.12zm-1.84 8.64c-.4.05-.68.12-.84.22-.51.29-.74.57-.7.83 0 .13.08.25.25.35.2.06.47.05.82-.06.65-.2.98-.52.98-.98 0-.24-.17-.36-.51-.36zm-38.6-244.03c.2 0 .36.09.51.28.14.19.21.38.21.58 0 .1-.1.27-.3.5-.21.17-.73.49-1.56.95l-2.73 1.49c-.53.29-.9.46-1.09.51a.8.8 0 0 1-.33.08c-.19 0-.31-.06-.37-.2-.16-.36-.23-.57-.23-.63 0-.38.22-.62.66-.72 1.64-.8 3.27-1.71 4.9-2.72a.5.5 0 0 1 .33-.12zm2.22-10.33c.47 0 .91.13 1.3.39.44.29.66.66.66 1.11 0 .25-.05.49-.14.71-.23.56-.92 1.12-2.08 1.69-1.26.62-2.53.93-3.81.93-.25 0-.49-.01-.72-.04-1.24-.27-1.84-.84-1.81-1.69.02-.72.39-1.41 1.11-2.06.49-.44 1.08-.66 1.78-.66.14 0 .26.01.38.04.23.05.61.2 1.12.45.73-.58 1.46-.87 2.21-.87zm-3.59 1.73c-.1-.02-.25.01-.43.08-.62.23-.95.53-1 .88-.04.27.11.4.46.4.25 0 .5-.12.77-.37.15-.14.24-.23.26-.27.12-.12.18-.28.18-.48l-.07-.2-.17-.04zm1.88.42c-.14.12-.21.29-.21.51 0 .03.01.05.03.06.07.02.13.03.2.03.21 0 .57-.12 1.09-.37.56-.27.84-.55.84-.84 0-.09-.03-.14-.1-.15.1.01 0 .01-.3.01-.2 0-.55.15-1.03.44l-.52.31zm9.04 2.39c-.57.46-1.28.95-2.15 1.47-.98.59-1.63.91-1.93.97-.04.01-.09.01-.15.01-.34 0-.64-.2-.9-.59-.22-.34-.33-.68-.33-1.01 0-.31.15-.47.46-.5.02 0 .06 0 .13-.01s.14-.01.21 0c-.03 0 .15.01.52.04.35.03.56.03.62 0 .44-.16 1-.45 1.69-.88 1-.62 1.79-1.23 2.36-1.83a.784.784 0 0 1-.33-.61c-.03-.33.17-.64.59-.94.38-.28.74-.42 1.08-.42.55 0 .84.27.88.8.12.05.44-.1.95-.44.15-.13.42-.33.82-.61.12-.02.23-.03.31-.03.12 0 .2.02.26.05.21.12.35.28.42.5.03.2-.03.41-.16.63-.13.22-.19.36-.19.4.01.08.06.13.16.14.38.03.97-.37 1.75-1.19.33-.25.56-.38.7-.37.2.01.42.2.66.58.12.19.09.42-.08.7-.48.79-1.17 1.38-2.07 1.75-.44.18-.83.28-1.19.29-.7.03-1.11-.25-1.22-.85-.28.01-.79 0-1.52-.01-.19.19-.98.84-2.35 1.96zm12.81-1.73c-.07-.15-.1-.31-.1-.5 0-.44.19-.72.56-.85.07-.05.18-.08.32-.08.25 0 .73.13 1.43.38l1.94-1.01c1.01-.53 1.54-.81 1.61-.84.08-.07.18-.1.29-.1.38 0 .61.22.68.65.01.08.02.15.02.2 0 .16-.16.34-.49.54-1.26.58-2.08.98-2.46 1.21.58.14 1.02.34 1.33.59.1.16.16.32.18.48.03.31-.05.56-.21.73-.24.25-.57.33-.99.22-.43-.11-.72-.19-.86-.22-.36-.1-.76-.22-1.2-.37-1.4.96-2.48 1.66-3.25 2.12-1.42.84-2.43 1.29-3.03 1.36-.2.02-.4-.08-.62-.3-.31-.31-.46-.73-.46-1.27 0-.34.22-.52.67-.52.1 0 .25.01.45.03.2.02.35.03.45.03.21 0 .39-.03.55-.08.69-.32 1.22-.58 1.58-.79.67-.39 1.32-.82 1.95-1.29-.2-.13-.31-.24-.34-.32zm1.61 7.52c.2 0 .36.09.51.28.14.19.21.38.21.58 0 .1-.1.27-.3.5-.21.17-.73.49-1.56.95l-2.73 1.49c-.53.29-.9.46-1.09.51a.8.8 0 0 1-.33.08c-.19 0-.31-.06-.37-.2-.16-.36-.23-.57-.23-.63 0-.38.22-.62.66-.72 1.64-.8 3.27-1.71 4.9-2.72.1-.09.22-.12.33-.12zm15.29-9.97c.19-.08.32-.14.38-.17.16-.06.33.04.54.31.14.18.21.36.21.54.01.14-.12.32-.38.55-.74.63-1.8 1.33-3.19 2.11-1.94 1.09-3.2 1.65-3.79 1.68-.23.01-.44-.07-.64-.25s-.3-.38-.3-.61c0-.12.23-.44.7-.95.35-.57.56-1.06.61-1.46l-.06-1.05c-.03-.49.09-.79.36-.9.23-.09.43-.12.59-.1.4.06.62.39.67.97.03.36.05.59.05.66 0 .6-.14 1.11-.42 1.53.55-.2 2.11-1.15 4.67-2.86zm-1.22-6.74c-.66-.05-1.03-.1-1.11-.16-.3-.19-.45-.42-.45-.7 0-.38.2-.66.61-.84.49-.09.9-.12 1.21-.09.38.04.83.15 1.34.32.36.12.68.34.97.66.22.25.33.54.33.88 0 .48-.25.99-.74 1.53-.39.43-.85.79-1.37 1.08-.82.47-1.52.73-2.1.78-.27.03-.5-.04-.69-.2-.19-.16-.28-.37-.28-.64 0-.42.21-.66.62-.72.36-.05.71-.16 1.02-.31.23-.11.53-.29.92-.54.53-.34.79-.59.79-.76 0-.13-.36-.23-1.07-.29zm-150.98-83.71c.61-.06.92-.25.92-.59 0-.25-.14-.42-.42-.51-.34-.11-.76-.22-1.27-.34-.44-.17-.65-.38-.65-.6 0-.63.31-.92.93-.86.14.01.27.02.39.02.42 0 1.09-.2 1.99-.61.1-.04.23-.07.39-.07.2 0 .36.08.5.24.14.16.21.34.21.53 0 .22-.12.4-.37.55-.21.1-.43.2-.64.3.4.35.6.81.62 1.39.01.4-.15.76-.5 1.08-.75.69-1.83 1.03-3.24 1.03-.14 0-.47-.01-.97-.03-2.07 1.72-3.52 2.82-4.33 3.31-1.31.79-2.17 1.16-2.56 1.12-.22-.05-.44-.28-.65-.69-.2-.38-.29-.71-.29-.97 0-.21.06-.37.19-.48.12-.06.26-.1.41-.1.11 0 .28.02.51.05.23.04.4.05.51.05.36 0 .72-.11 1.06-.33 1.56-1.01 2.68-1.77 3.35-2.29-.08-.16-.12-.29-.12-.39 0-.32.08-.58.23-.77.4-.51.88-.75 1.43-.73.69.03 1.1.28 1.22.75.5-.01.88-.04 1.15-.06zm-1.9-10.21c-.66-.05-1.03-.1-1.11-.16-.3-.19-.45-.42-.45-.7 0-.38.2-.66.61-.84.49-.09.9-.12 1.21-.09.38.04.83.15 1.34.32.36.12.68.34.97.66.22.25.33.54.33.88 0 .48-.25.99-.74 1.53-.39.43-.85.79-1.37 1.08-.82.47-1.52.73-2.1.78-.27.03-.5-.04-.69-.2-.19-.16-.28-.37-.28-.64 0-.42.21-.66.62-.72.36-.05.71-.16 1.02-.31.23-.11.53-.29.92-.54.53-.34.79-.59.79-.76 0-.13-.35-.23-1.07-.29zm4.89.03c-.66-.05-1.03-.1-1.11-.16-.3-.19-.45-.42-.45-.7 0-.38.2-.66.61-.84.49-.09.9-.12 1.21-.09.38.04.83.15 1.34.32.36.12.68.34.97.66.22.25.33.54.33.88 0 .48-.25.99-.74 1.53-.39.43-.85.79-1.37 1.08-.82.47-1.52.73-2.1.78-.27.03-.5-.04-.69-.2-.19-.16-.28-.37-.28-.64 0-.42.21-.66.62-.72.36-.05.71-.16 1.02-.31.23-.11.53-.29.92-.54.53-.34.79-.59.79-.76 0-.13-.36-.23-1.07-.29zm7.37 16.76c.2 0 .36.09.51.28.14.19.21.38.21.58 0 .1-.1.27-.3.5-.21.17-.73.49-1.56.95l-2.73 1.49c-.53.29-.9.46-1.09.51a.8.8 0 0 1-.33.08c-.19 0-.31-.06-.37-.2-.16-.36-.23-.57-.23-.63 0-.38.22-.62.66-.72 1.64-.8 3.27-1.71 4.9-2.72.11-.08.22-.12.33-.12zm1.86-6.93c.29-.59.44-.99.44-1.21 0-.06-.02-.09-.05-.09-.01 0-.03.01-.05.02-.41.29-.88.62-1.4 1-1.05.76-1.77 1.24-2.14 1.45l-1.77 1.01c-.42.24-.82.42-1.19.55-.06.02-.12.03-.19.03-.21 0-.42-.11-.64-.34-.35-.36-.53-.77-.53-1.23 0-.17.04-.31.13-.44.13-.15.36-.22.69-.22.1 0 .24.01.42.01.19.01.33.01.42.01.2 0 .38-.02.53-.06.07-.03.11-.05.14-.06l.43-.23c.71-.39 1.19-.67 1.43-.83l2.68-1.81c.71-.47 1.14-.73 1.3-.78.23-.06.48-.01.77.16.42.25.63.65.63 1.22 0 .51-.15 1.13-.44 1.87-.43 1.09-.87 1.88-1.33 2.37-.08.09-.2.14-.36.14-.2 0-.41-.08-.62-.23-.24-.17-.36-.35-.36-.54 0-.2.06-.35.19-.46.27-.24.55-.68.87-1.31zm8.27.09c-.47.03-.79.05-.96.05-.43 0-.64-.24-.64-.71 0-.4.26-.66.78-.8l.95-.24c1.1-.5 1.79-.96 2.06-1.4.16-.25.4-.37.73-.37.1.02.24.08.4.2.29.2.43.46.4.77-.13.21-.25.35-.37.44-.28.21-.46.34-.55.41 1.33-.15 2.14-.24 2.41-.28.28.04.42.22.42.54 0 .26-.05.44-.14.53l-.55.35c-2.09 1.32-3.92 2.44-5.48 3.36-1.83 1.08-3.04 1.8-3.64 2.15-.36.21-.82.46-1.38.75-.1.05-.2.08-.3.08-.29 0-.54-.2-.75-.61-.18-.34-.27-.68-.27-.99 0-.32.14-.48.42-.48.1 0 .26.01.45.03.2.02.35.03.45.03.32 0 .61-.06.87-.17a.22.22 0 0 0 .08-.03h.01v.01c.01-.01.02-.01.03-.02l.77-.41c1.72-.92 3.61-2.05 5.67-3.4-.92.08-1.55.16-1.87.21zm4.25-10.72c.2 0 .36.09.51.28.14.19.21.38.21.58 0 .2-.1.36-.29.49-.77.49-1.64 1-2.6 1.52l-1.7.93c-.54.29-.9.46-1.09.51a.8.8 0 0 1-.33.08c-.19 0-.31-.07-.37-.2-.16-.36-.23-.57-.23-.63 0-.38.22-.62.66-.72 1.64-.8 3.27-1.71 4.9-2.72.1-.08.22-.12.33-.12zm9.9 10.63c.29-.59.44-.99.44-1.21 0-.06-.02-.09-.05-.09-.01 0-.03.01-.05.02-.41.29-.88.62-1.4 1-1.05.76-1.77 1.24-2.14 1.45l-1.77 1.01c-.42.24-.82.42-1.19.55-.06.02-.12.03-.19.03-.21 0-.42-.11-.64-.34-.35-.36-.53-.77-.53-1.23 0-.17.04-.31.13-.44.13-.15.36-.22.69-.22.1 0 .24.01.42.01.19.01.33.01.42.01.2 0 .38-.02.53-.06.07-.03.11-.05.14-.06l.43-.23c.71-.39 1.19-.67 1.43-.83l2.68-1.81c.71-.47 1.14-.73 1.3-.78.23-.06.48-.01.77.16.42.25.63.65.63 1.22 0 .51-.15 1.13-.44 1.87-.43 1.09-.87 1.88-1.33 2.37-.08.09-.2.14-.36.14-.2 0-.41-.08-.62-.23-.24-.17-.36-.35-.36-.54 0-.2.06-.35.19-.46.27-.24.56-.68.87-1.31zm1.76-11.39c.75.01 1.31.38 1.68 1.09.07.22.1.47.1.76 0 .62-.16 1.14-.47 1.57-.77 1.06-2.03 1.66-3.78 1.8-.83-.03-1.41-.3-1.74-.79a2.57 2.57 0 0 1-.27-1.09c0-.58.27-1.16.81-1.74 1.02-1.09 2.24-1.62 3.67-1.6zm-2.71 3.26c.09.14.28.24.56.31h.31c.12 0 .25 0 .39-.01.76-.31 1.28-.68 1.56-1.09.03-.08.05-.17.05-.25 0-.4-.33-.59-.98-.56-.39.1-.66.2-.82.3-.36.17-.63.36-.82.57-.19.22-.29.4-.29.56 0 .06.01.12.04.17zm9.13 9.28c-.57.46-1.28.95-2.15 1.47-.98.59-1.63.91-1.93.97-.04.01-.09.01-.15.01-.34 0-.64-.2-.9-.59-.22-.34-.33-.68-.33-1.01 0-.31.15-.47.46-.5.02 0 .06 0 .13-.01s.14-.01.21 0c-.03 0 .15.01.52.04.35.03.56.03.62 0 .44-.16 1-.45 1.69-.88 1-.62 1.79-1.23 2.36-1.83a.784.784 0 0 1-.33-.61c-.03-.33.17-.64.59-.94.38-.28.74-.42 1.08-.42.55 0 .84.27.88.8.12.05.44-.1.95-.44.15-.13.42-.33.82-.61.12-.02.23-.03.31-.03.12 0 .2.02.26.05.21.12.35.28.42.5.03.2-.03.41-.16.63-.13.22-.19.36-.19.4.01.08.06.13.16.14.38.03.97-.37 1.75-1.19.33-.25.56-.38.7-.37.2.01.42.2.66.58.12.19.09.42-.08.7-.48.79-1.17 1.38-2.07 1.75-.44.18-.83.28-1.19.29-.7.03-1.11-.25-1.22-.85-.28.01-.79 0-1.52-.01-.19.18-.98.84-2.35 1.96zm2.92-10.32c-.49.45-.73.8-.73 1.06 0 .03.01.06.04.08-.03.06.08.09.34.11.55.03.94 0 1.16-.11.14-.03.26-.04.37-.04.67 0 1 .26 1 .79 0 .48-.21.75-.64.8-.28.07-.69.11-1.24.11-1.86 0-2.79-.56-2.79-1.68 0-.16.02-.28.06-.36.21-.72.67-1.37 1.38-1.97.34-.3.58-.5.69-.61.19-.18.46-.33.81-.47.11-.05.2-.06.25-.04.55.18.83.5.83.98 0 .23-.18.45-.54.63-.51.34-.84.58-.99.72zm231.24-29.2c.61-.06.92-.25.92-.59 0-.25-.14-.42-.42-.51-.34-.11-.76-.22-1.27-.34-.44-.17-.65-.38-.65-.6 0-.63.31-.92.93-.86.14.01.27.02.39.02.42 0 1.09-.2 1.99-.61.1-.04.23-.07.39-.07.2 0 .36.08.5.24.14.16.21.34.21.53 0 .22-.12.4-.37.55-.21.1-.43.2-.64.3.4.35.6.81.62 1.39.01.4-.15.76-.5 1.08-.75.69-1.83 1.03-3.24 1.03-.14 0-.46-.01-.97-.03-2.07 1.72-3.52 2.82-4.33 3.31-1.31.79-2.17 1.16-2.56 1.12-.22-.05-.44-.28-.65-.69-.2-.38-.29-.71-.29-.97 0-.21.06-.37.19-.48.12-.06.26-.1.41-.1.11 0 .28.02.51.05.23.04.4.05.51.05.36 0 .72-.11 1.06-.33 1.56-1.01 2.68-1.77 3.35-2.29-.08-.16-.12-.29-.12-.39 0-.32.08-.58.23-.77.4-.51.88-.75 1.43-.73.69.03 1.1.28 1.22.75.49-.01.88-.03 1.15-.06zm-1.9-10.2c-.66-.05-1.03-.1-1.11-.16-.3-.19-.45-.42-.45-.7 0-.38.2-.66.61-.84.49-.09.9-.12 1.21-.09.38.04.83.15 1.34.32.36.12.68.34.97.66.22.25.33.54.33.88 0 .48-.25.99-.74 1.53-.39.43-.85.79-1.37 1.08-.82.47-1.52.73-2.1.78-.27.03-.5-.04-.69-.2-.19-.16-.28-.37-.28-.64 0-.42.21-.66.62-.72.36-.05.71-.16 1.02-.31.23-.11.53-.29.92-.54.53-.34.79-.59.79-.76 0-.13-.36-.23-1.07-.29zm4.89.03c-.66-.05-1.03-.1-1.11-.16-.3-.19-.45-.42-.45-.7 0-.38.2-.66.61-.84.49-.09.9-.12 1.21-.09.38.04.83.15 1.34.32.36.12.68.34.97.66.22.25.33.54.33.88 0 .48-.25.99-.74 1.53-.39.43-.85.79-1.37 1.08-.82.47-1.52.73-2.1.78-.27.03-.5-.04-.69-.2-.19-.16-.28-.37-.28-.64 0-.42.21-.66.62-.72.36-.05.71-.16 1.02-.31.23-.11.53-.29.92-.54.53-.34.79-.59.79-.76 0-.13-.36-.23-1.07-.29zm5.76 9.24c-.06-.15-.1-.31-.1-.5 0-.44.19-.72.56-.85.07-.05.18-.08.32-.08.25 0 .72.13 1.43.38l1.94-1.01c1.01-.53 1.54-.81 1.61-.84.08-.07.18-.1.29-.1.38 0 .61.22.68.65.01.08.02.15.02.2 0 .16-.16.34-.49.54-1.26.58-2.08.98-2.46 1.21.58.14 1.02.34 1.33.59.1.16.16.32.18.48.03.31-.05.56-.21.73-.24.25-.57.33-.99.22-.43-.11-.72-.19-.86-.22-.36-.1-.76-.22-1.2-.37-1.4.96-2.48 1.66-3.25 2.12-1.42.84-2.43 1.29-3.03 1.36-.2.02-.4-.08-.62-.3-.31-.31-.46-.73-.46-1.27 0-.34.22-.52.67-.52.1 0 .25.01.45.03.2.02.35.03.45.03.21 0 .39-.03.55-.08.69-.32 1.22-.58 1.58-.79.67-.39 1.32-.82 1.95-1.29-.19-.13-.31-.24-.34-.32zm4.8-10.04c.2 0 .36.09.51.28.14.19.21.38.21.58 0 .2-.1.36-.29.49-.77.49-1.64 1-2.6 1.52l-1.7.93c-.54.29-.9.46-1.09.51a.8.8 0 0 1-.33.08c-.19 0-.31-.07-.37-.2-.16-.36-.23-.57-.23-.63 0-.38.22-.62.66-.72 1.64-.8 3.27-1.71 4.9-2.72a.5.5 0 0 1 .33-.12zm12.05 9.02c0-.17-.26-.25-.77-.25l-1.4.16c-.07.01-.22.03-.46.09-.19.04-.34.06-.46.06-.16 0-.29-.05-.39-.15a1.106 1.106 0 0 1-.12-1.12c.06-.35.72-.57 1.95-.65.31-.02.9.03 1.77.14.95.12 1.52.37 1.7.73.16.33.21.64.16.94-.05.23-.1.4-.17.51-.21.29-.44.53-.66.72-.44.38-.85.69-1.23.94-.87.57-2.08 1.2-3.63 1.9-.8.36-1.59.7-2.38 1.01-.36.14-.67.12-.95-.07-.42-.46-.63-.89-.63-1.32 0-.38.21-.57.62-.57.1 0 .26.02.47.05.21.03.36.05.47.05.18 0 .33-.02.46-.07.68-.24 1.02-.36 1.03-.37.68-.27 1.43-.63 2.27-1.08 1.26-.68 2.04-1.18 2.34-1.5 0-.05.01-.1.01-.15zm.31-9.02c.2 0 .36.09.51.28.14.19.21.38.21.58 0 .2-.1.36-.29.49-.77.49-1.64 1-2.6 1.52l-1.7.93c-.54.29-.9.46-1.09.51a.8.8 0 0 1-.33.08c-.19 0-.31-.07-.37-.2-.16-.36-.23-.57-.23-.63 0-.38.22-.62.66-.72 1.64-.8 3.27-1.71 4.9-2.72a.5.5 0 0 1 .33-.12zm6.61 10.04c-.07-.15-.1-.31-.1-.5 0-.44.19-.72.56-.85.07-.05.18-.08.32-.08.25 0 .73.13 1.43.38l1.94-1.01c1.01-.53 1.54-.81 1.61-.84.08-.07.18-.1.29-.1.38 0 .61.22.68.65.01.08.02.15.02.2 0 .16-.16.34-.49.54-1.26.58-2.08.98-2.46 1.21.58.14 1.02.34 1.33.59.1.16.16.32.18.48.03.31-.05.56-.21.73-.24.25-.57.33-.99.22-.43-.11-.72-.19-.86-.22-.36-.1-.76-.22-1.2-.37-1.4.96-2.48 1.66-3.25 2.12-1.42.84-2.43 1.29-3.03 1.36-.2.02-.4-.08-.62-.3-.31-.31-.46-.73-.46-1.27 0-.34.22-.52.67-.52.1 0 .25.01.45.03.2.02.35.03.45.03.21 0 .39-.03.55-.08.69-.32 1.22-.58 1.58-.79.67-.39 1.32-.82 1.95-1.29-.2-.13-.31-.24-.34-.32zm1.61 7.52c.2 0 .36.09.51.28.14.19.21.38.21.58 0 .1-.1.27-.3.5-.21.17-.73.49-1.56.95l-2.73 1.49c-.53.29-.9.46-1.09.51a.8.8 0 0 1-.33.08c-.19 0-.31-.06-.37-.2-.16-.36-.23-.57-.23-.63 0-.38.22-.62.66-.72 1.64-.8 3.27-1.71 4.9-2.72.1-.09.21-.12.33-.12zm12.36 0c.2 0 .36.09.51.28.14.19.21.38.21.58 0 .1-.1.27-.3.5-.21.17-.73.49-1.56.95l-2.73 1.49c-.53.29-.9.46-1.09.51a.8.8 0 0 1-.33.08c-.19 0-.31-.06-.37-.2-.16-.36-.23-.57-.23-.63 0-.38.22-.62.66-.72 1.64-.8 3.27-1.71 4.9-2.72.1-.09.22-.12.33-.12zm3.34-9.91c.2 0 .37.11.52.34.09.14.14.26.15.35.03.33-.26.67-.85 1.03l-3.42 2.09c-1.33.81-2.5 1.42-3.51 1.82-.28.11-.45.17-.52.17-.64.07-1.05-.29-1.21-1.08-.02-.1-.03-.19-.03-.27 0-.32.17-.48.5-.48.1 0 .26.01.48.04.21.03.37.04.48.04.29 0 .55-.06.76-.17.22-.03 1.17-.54 2.84-1.54 1.38-.83 2.37-1.45 2.98-1.88.39-.32.67-.46.83-.46zm94.13-16.74c-.57.46-1.28.95-2.15 1.47-.98.59-1.63.91-1.93.97-.04.01-.09.01-.15.01-.34 0-.64-.2-.9-.59-.22-.34-.33-.68-.33-1.01 0-.31.15-.47.46-.5.02 0 .06 0 .13-.01s.14-.01.21 0c-.03 0 .15.01.52.04.35.03.56.03.62 0 .44-.16 1-.45 1.69-.88 1-.62 1.79-1.23 2.36-1.83a.784.784 0 0 1-.33-.61c-.03-.33.17-.64.59-.94.38-.28.74-.42 1.08-.42.55 0 .84.27.88.8.12.05.44-.1.95-.44.15-.13.42-.33.82-.61.12-.02.23-.03.31-.03.12 0 .2.02.26.05.21.12.35.28.42.5.03.2-.03.41-.16.63s-.19.36-.19.4c.01.08.06.13.16.14.38.03.97-.37 1.75-1.19.33-.25.56-.38.7-.37.2.01.42.2.66.58.12.19.09.42-.08.7-.48.79-1.17 1.38-2.07 1.75-.44.18-.83.28-1.19.29-.7.03-1.11-.25-1.22-.85-.28.01-.79 0-1.52-.01-.19.18-.98.84-2.35 1.96zm-.37-10.04c-.49.45-.73.8-.73 1.06 0 .03.01.06.04.08-.03.06.08.1.34.11.55.03.94 0 1.16-.11.14-.03.26-.04.37-.04.67 0 1 .26 1 .79 0 .48-.21.75-.64.8-.28.07-.69.11-1.24.11-1.86 0-2.79-.56-2.79-1.68 0-.16.02-.28.06-.36.21-.72.67-1.37 1.38-1.97.34-.3.58-.5.69-.61.19-.17.46-.33.81-.47.11-.04.2-.06.25-.04.55.17.83.5.83.97 0 .23-.18.45-.54.64-.5.34-.84.58-.99.72zm4.62-.32c-.49.45-.73.8-.73 1.06 0 .03.01.06.04.08-.03.06.08.09.34.11.55.03.94 0 1.16-.11.14-.03.26-.04.37-.04.67 0 1 .26 1 .79 0 .48-.21.75-.64.8-.28.07-.69.11-1.24.11-1.86 0-2.79-.56-2.79-1.68 0-.16.02-.28.06-.36.21-.71.67-1.37 1.38-1.97.34-.3.58-.5.69-.61.19-.17.46-.33.81-.47.11-.05.2-.06.25-.04.55.18.83.5.83.98 0 .23-.18.45-.54.63-.5.33-.83.58-.99.72zm7.81 10.06c0-.38.25-.66.76-.82.45-.14.91-.33 1.4-.55-.29-.14-.53-.26-.7-.36-.38-.23-.6-.42-.63-.56-.06-.2-.06-.37.01-.54.07-.19.21-.29.41-.31.78-.07 1.46-.31 2.03-.73.29-.21.55-.31.78-.31.05 0 .09.01.13.03.2.12.32.28.39.48.02.06.03.22.03.49-.01 0-.03.03-.07.1-.08.13-.19.23-.33.31-.14.12-.24.2-.3.23-.23.14-.37.22-.4.24-.18.1-.26.17-.26.22.01.02.06.04.17.07.56.16.84.4.84.73 0 .06-.04.16-.12.31-.15.16-.27.28-.36.34-.42.31-.74.53-.97.64-.21.16-.31.21-.31.17.01.03.1.14.29.33.1.16.17.26.2.3.01.05.01.09.01.13 0 .27-.27.57-.8.9-4.18 2.54-6.57 3.83-7.17 3.88-.25.02-.51-.17-.76-.56-.23-.34-.35-.65-.38-.94-.05-.45.15-.67.58-.67.12 0 .26.01.41.03.05.01.28.01.67.01.21 0 .42-.03.63-.1.82-.36 1.47-.67 1.95-.94 1.16-.65 2.08-1.2 2.76-1.64-.6-.35-.89-.66-.89-.91zm2.35 6.08c.2 0 .36.09.51.28.14.19.21.38.21.58 0 .1-.1.27-.3.5-.21.17-.73.49-1.56.95l-2.73 1.49c-.53.29-.9.46-1.09.51a.8.8 0 0 1-.33.08c-.19 0-.31-.06-.37-.2-.16-.36-.23-.57-.23-.63 0-.38.22-.62.66-.72 1.64-.8 3.27-1.71 4.9-2.72.11-.08.22-.12.33-.12zm-345.73-43.53c.61-.06.92-.25.92-.59 0-.25-.14-.42-.42-.51-.34-.11-.76-.22-1.27-.34-.44-.17-.65-.38-.65-.6 0-.63.31-.92.93-.86.14.01.27.02.39.02.42 0 1.09-.2 1.99-.61.1-.05.23-.07.39-.07.2 0 .36.08.5.24.14.16.21.34.21.53 0 .22-.12.4-.37.55-.21.1-.43.2-.64.3.4.35.6.81.62 1.39.01.4-.15.76-.5 1.08-.75.69-1.83 1.03-3.24 1.03-.14 0-.47-.01-.97-.03-2.07 1.72-3.52 2.82-4.33 3.31-1.31.79-2.17 1.16-2.56 1.12-.22-.05-.44-.28-.65-.69-.2-.38-.29-.71-.29-.97 0-.21.06-.37.19-.48.12-.06.26-.1.41-.1.11 0 .28.02.51.05.23.04.4.05.51.05.36 0 .72-.11 1.06-.33 1.56-1.01 2.68-1.77 3.35-2.29-.08-.16-.12-.29-.12-.39 0-.32.08-.58.23-.77.4-.51.88-.75 1.43-.73.69.03 1.1.28 1.22.75.49-.01.88-.03 1.15-.06zm-1.9-10.2c-.66-.05-1.03-.1-1.11-.16-.3-.19-.45-.42-.45-.7 0-.38.2-.66.61-.84.49-.09.9-.12 1.21-.09.38.04.83.15 1.34.32.36.12.68.34.97.66.22.25.33.54.33.88 0 .48-.25.99-.74 1.53-.39.43-.85.79-1.37 1.08-.82.47-1.52.73-2.1.78-.27.03-.5-.04-.69-.19-.19-.16-.28-.37-.28-.64 0-.42.21-.66.62-.72.36-.05.71-.16 1.02-.31.23-.11.53-.29.92-.54.53-.34.79-.59.79-.76 0-.14-.36-.25-1.07-.3zm4.88.02c-.66-.05-1.03-.1-1.11-.16-.3-.19-.45-.42-.45-.7 0-.38.2-.66.61-.84.49-.09.9-.12 1.21-.09.38.04.83.15 1.34.32.36.12.68.34.97.66.22.25.33.54.33.88 0 .48-.25.99-.74 1.53-.39.43-.85.79-1.37 1.08-.82.47-1.52.73-2.1.78-.27.03-.5-.04-.69-.2-.19-.16-.28-.37-.28-.64 0-.42.21-.66.62-.72.36-.05.71-.16 1.02-.31.23-.11.53-.29.92-.54.53-.34.79-.59.79-.76.01-.13-.35-.23-1.07-.29zm7.38 16.77c.2 0 .36.09.51.28.14.19.21.38.21.58 0 .1-.1.27-.3.5-.21.18-.73.49-1.56.95l-2.73 1.49c-.53.29-.9.46-1.09.51a.8.8 0 0 1-.33.08c-.19 0-.31-.06-.37-.2-.16-.36-.23-.57-.23-.63 0-.38.22-.62.66-.72 1.64-.8 3.27-1.71 4.9-2.72.1-.09.22-.12.33-.12zm1.85-6.94c.29-.59.44-1 .44-1.21 0-.06-.02-.09-.05-.09-.01 0-.03.01-.05.02-.41.29-.88.62-1.4 1-1.05.76-1.77 1.24-2.14 1.45l-1.77 1.01c-.42.24-.82.42-1.19.55-.06.02-.12.03-.19.03-.21 0-.42-.11-.64-.34-.35-.36-.53-.77-.53-1.23 0-.17.04-.31.13-.44.13-.15.36-.22.69-.22.1 0 .24.01.42.01.19.01.33.01.42.01.2 0 .38-.02.53-.06.07-.03.11-.05.14-.06l.43-.23c.71-.39 1.19-.67 1.43-.83l2.68-1.8c.71-.47 1.14-.74 1.3-.78.23-.07.48-.01.77.16.42.25.63.65.63 1.22 0 .51-.15 1.13-.44 1.87-.43 1.09-.87 1.88-1.33 2.37-.08.09-.2.14-.36.14-.2 0-.41-.08-.62-.23-.24-.17-.36-.35-.36-.54 0-.2.06-.35.19-.46.27-.25.56-.68.87-1.32zm7.3-.81c.02-.34.23-.76.62-1.27.68-.88 1.7-1.32 3.05-1.32.32 0 .69.08 1.1.22.82.29 1.2.73 1.13 1.31-.06.5-.49 1.1-1.29 1.8-.6.53-1.24 1.01-1.89 1.43-2.71 1.76-4.54 2.74-5.5 2.93-.03.01-.07.01-.13.01-.25 0-.46-.17-.63-.52-.16-.23-.25-.49-.27-.78-.03-.38.12-.58.47-.58.11 0 .25.02.41.05.47.1.92.03 1.35-.2 1.07-.58 2.03-1.13 2.87-1.65-.91-.24-1.33-.72-1.29-1.43zm5.22-9.81c.2 0 .36.09.51.28.14.19.21.38.21.58 0 .2-.1.36-.29.49-.77.49-1.64 1-2.6 1.52l-1.7.93c-.54.29-.9.46-1.09.51a.8.8 0 0 1-.33.08c-.19 0-.31-.06-.37-.2-.16-.36-.23-.57-.23-.63 0-.38.22-.62.66-.72 1.64-.8 3.27-1.71 4.9-2.72a.5.5 0 0 1 .33-.12zm-1.84 8.64c-.4.05-.68.12-.84.22-.51.29-.74.57-.7.83 0 .13.08.25.25.35.2.06.47.05.82-.06.65-.2.98-.52.98-.98-.01-.24-.18-.36-.51-.36zm8.7 3.13c-.57.46-1.28.95-2.15 1.47-.98.59-1.63.91-1.93.97-.04.01-.09.01-.15.01-.34 0-.64-.2-.9-.59-.22-.34-.33-.68-.33-1.01 0-.31.15-.47.46-.5.02 0 .06 0 .13-.01s.14-.01.21 0c-.03 0 .15.01.52.04.35.03.56.03.62 0 .44-.16 1-.45 1.69-.88 1-.62 1.79-1.23 2.36-1.83a.784.784 0 0 1-.33-.61c-.03-.33.17-.64.59-.94.38-.28.74-.42 1.08-.42.55 0 .84.27.88.8.12.05.44-.1.95-.44.15-.13.42-.33.82-.6.12-.02.23-.03.31-.03.12 0 .2.02.26.05.21.12.35.28.42.5.03.2-.03.41-.16.63-.13.22-.19.36-.19.39.01.08.06.13.16.14.38.03.97-.37 1.75-1.19.33-.25.56-.38.7-.37.2.01.42.2.66.58.12.19.09.42-.08.7-.48.79-1.17 1.38-2.07 1.75-.44.18-.83.28-1.19.29-.7.03-1.11-.25-1.22-.85-.28.01-.79 0-1.52-.01-.19.18-.98.84-2.35 1.96zm5.21-13.7c.2 0 .36.09.51.28.14.19.21.38.21.58 0 .12-.1.3-.3.53-.05.1-.65.45-1.8 1.07l-2.49 1.34c-.55.3-.92.47-1.09.51a.8.8 0 0 1-.33.08c-.19 0-.31-.07-.37-.2-.16-.36-.23-.57-.23-.63 0-.38.22-.62.66-.72 1.64-.8 3.27-1.71 4.9-2.72.11-.08.22-.12.33-.12zm1.16 2.06c.2 0 .36.09.51.28.14.19.21.38.21.58 0 .1-.09.26-.26.46-.05.08-.29.25-.74.51l-3.59 1.97c-.54.29-.9.46-1.09.51a.8.8 0 0 1-.33.08c-.19 0-.31-.07-.37-.2-.16-.36-.23-.57-.23-.63 0-.38.22-.62.66-.72 1.64-.8 3.27-1.71 4.9-2.72.11-.08.22-.12.33-.12z"/><path d="M272.93 740.1c-1.92-1.51-5.27-2.79-10.14-1.71-11.56 2.55-28.74 10.03-33.73 9.14-18.7-3.36-29.53 12.01-45.5 10.29-6.84-.74-39.48-8.68-40.05 6.1-.51 13.15 3.38 31.88-6.08 41.76-14.54 15.17-29.08 30.34-43.63 45.53-9.28 9.68-8.51 20.3-15.64 30.92-21.63 32.22-39.41 53.86-45.28 91.84-1.59 10.27-.33 34.04-8.78 41.09-10.02 8.33-36.41 22.58-41.3 34.41-6.86 16.66 10.79 29.37 20.39 38.56 12.56 12 22.25 26.05 31.51 40.73 8.99 14.28 27.17-12.07 52.23-20.43 16.01-5.32 15.19-55.14 15.97-65.22.9-12.11 12.79-48.54 1.31-38.7-7.96 22.57-8.47 22.65-18.14 65.16-5.21 22.92-39.16-13.01-33.29 21.68-1.29.73-9.53.59-10.54-.19-7.71-5.91-13.16-10.7-13.22-21.15-.03-3.11-5.44-28.34-5.8-27.5 1.01-11.01 4.06-13.73 4.6-15.02 9.65-22.3 9.94-15.04 24.06-55.7 3.56-7.95 4.2-9.86 4.77-11.55 3.52-10.41 2.79-23.9 6.96-30.64 6.32-10.2 12.77-27.49 22.36-34.77 14.68-11.15 19.18-14.5 25.21-31.58 9.22-26.21 30.39-43.5 44.96-66.93 9.47-15.23 11.16-25.29 28.76-27.81 13.56-1.96 24.72-10.24 37.72-12.4 47.9-7.94 4.96 31.65-11.55 41.37-11.95 7.02-22.71 10.53-28.68 22.93-1.89 3.94-24.77 41.3-6.75 39.05 12.18-1.53 16.26-27.51 21.79-36.61 6.18-10.16 28.71-18.13 38.08-25.24 15.48-11.73 51.26-36.02 37.42-57.41" fill="#3b6287" fill-rule="evenodd" clip-rule="evenodd"/><path d="M157.72 911.81c-10.77-6.8-10.42-3.65-20.16 5.67-6.2 5.93-9.67 10.44-12.73 18.48-3.93 10.25-11.22 20.65-15.14 30.91-2.45 6.39 1.18 14.49 1.27 21.39 2.77 1.34 7.73-2.18 8.35-12.95.45-8.19-.41-13.2 4.45-19.51 11.31-14.66 22.63-29.32 33.96-43.99m-78.86 40.41c2.56-.01 2.62 5.54.04 5.55-2.61.01-2.63-5.54-.04-5.55m-10 10.45c3.75 0 3.78 5.18.03 5.21-3.75.02-3.78-5.17-.03-5.21m3.18 9c3.75-.03 3.78 5.17.02 5.21-3.75.01-3.76-5.19-.02-5.21m20.39-10.17c3.75-.01 3.77 5.17.02 5.2-3.75.01-3.76-5.18-.02-5.2m3.69-19.79c3.75-.01 3.77 5.18.03 5.21-3.75 0-3.77-5.18-.03-5.21m17.25-13.62c3.75-.03 3.81 5.19.05 5.2-3.76.02-3.8-5.19-.05-5.2m32.9-37.48c3.76-.03 3.81 5.18.05 5.19-3.74.04-3.8-5.18-.05-5.19m-43.48 63.2c3.75-.04 3.77 5.18.03 5.2-3.76.02-3.77-5.19-.03-5.2m-2.29 22.55c3.74-.04 3.78 5.19.03 5.2-3.75.03-3.79-5.2-.03-5.2m-8.67 1.78c3.75-.01 3.79 5.16.04 5.21-3.75.01-3.79-5.18-.04-5.21m-7.21 9.75c3.75-.01 3.76 5.17.02 5.21-3.76.01-3.78-5.17-.02-5.21m9.7-.4c3.75-.02 3.77 5.19.02 5.2-3.74.04-3.78-5.19-.02-5.2m-26.37-4.71c3.75 0 3.77 5.17.04 5.21-3.78.02-3.8-5.17-.04-5.21m94.17-113.09c-2.57 7.12-7.12 13.18-6.57 20.98 2.19 1.23 4.47 1.37 7.14 1.21 3.42-5.24 4.66-11.58 6.82-17.6.97-2.65 2.99-5.16-.82-5.94-2.5-.51-5.78-.86-7.2 1.55.09.35.22.07.43.2l.2-.4z" fill="#3b6287" fill-rule="evenodd" clip-rule="evenodd"/><path d="M274.55 744.93c0 4.29-3.47 7.74-7.74 7.74-4.29 0-7.75-3.46-7.75-7.74s3.47-7.74 7.75-7.74c4.27 0 7.74 3.47 7.74 7.74" fill="#004b1c"/><path d="M271.42 746.09c0 1.07-.87 1.93-1.94 1.93-1.06 0-1.93-.86-1.93-1.93a1.935 1.935 0 1 1 3.87 0" fill="#f5ee6d"/><path d="m130.516 1160.61 15.866-14.745 3.478 3.743-15.865 14.745zm31.732-29.488 15.866-14.746 3.479 3.743-15.866 14.746zm31.731-29.49 15.866-14.745 3.479 3.743-15.866 14.745zm31.739-29.495 15.866-14.746 3.479 3.743-15.866 14.746zm31.732-29.489 15.866-14.745 3.48 3.743-15.867 14.746zm31.74-29.495 15.866-14.745 3.479 3.743-15.866 14.745zm31.731-29.487 15.866-14.746 3.479 3.743L324.4 987.41zm51.059-40.506-15.87 14.75-3.48-3.75 15.87-14.75 3.48 3.75" fill="#ed1c24"/><path d="M269.15 689.39c1.64.39 2.8.85 3.46 1.4.96.78 1.43 1.78 1.43 3.02 0 1.3-.52 2.38-1.57 3.23-1.29 1.03-3.16 1.55-5.61 1.55h-8.81v-.47c.8 0 1.34-.07 1.63-.22.29-.15.48-.34.6-.58.11-.24.17-.83.17-1.77V684.3c0-.94-.06-1.53-.17-1.77-.11-.25-.32-.44-.61-.58-.29-.15-.83-.22-1.62-.22v-.47h8.31c1.99 0 3.39.18 4.22.53.82.36 1.48.89 1.96 1.59.48.71.71 1.45.71 2.24 0 .84-.3 1.58-.91 2.23-.6.64-1.67 1.16-3.19 1.54zm-4.66.65v5.57l-.01.64c0 .46.12.81.35 1.04.23.24.58.35 1.04.35.68 0 1.31-.15 1.89-.45.57-.3 1.02-.74 1.32-1.32.31-.57.46-1.22.46-1.92 0-.81-.19-1.54-.56-2.18-.37-.64-.89-1.09-1.55-1.35s-1.64-.38-2.94-.38zm0-.99c1.21 0 2.11-.14 2.68-.41.58-.27 1.02-.66 1.33-1.15.3-.49.46-1.12.46-1.89 0-.77-.15-1.4-.45-1.89-.3-.49-.74-.86-1.3-1.12-.56-.26-1.47-.38-2.71-.37v6.83zm14.35.84v-.45c.97-.28 1.65-.54 2.02-.78.37-.25.7-.62.97-1.11s.41-1 .41-1.52c0-.71-.26-1.31-.77-1.82-.52-.51-1.16-.76-1.93-.76-1.19 0-2.21.63-3.05 1.9l-.47-.17c.61-1.42 1.4-2.49 2.36-3.21.96-.71 2.03-1.07 3.2-1.07 1.2 0 2.19.37 2.97 1.1.78.74 1.17 1.59 1.17 2.57 0 .64-.18 1.25-.54 1.85-.36.59-.93 1.11-1.71 1.56 1 .49 1.76 1.09 2.28 1.8.52.71.78 1.6.78 2.68 0 1.81-.65 3.34-1.96 4.61-1.31 1.27-3.06 1.9-5.26 1.9-1.47 0-2.54-.24-3.21-.73-.48-.34-.73-.78-.73-1.32 0-.39.14-.73.42-1 .28-.28.6-.41.97-.41.28 0 .55.06.79.18.14.07.62.44 1.45 1.12.83.68 1.61 1.02 2.34 1.02.63 0 1.17-.25 1.63-.75.45-.5.67-1.13.67-1.9 0-1.17-.41-2.24-1.23-3.23-.8-1-1.99-1.68-3.57-2.06z"/><path d="M272.32 718.7c-15.87 0-28.78-12.91-28.78-28.78 0-15.87 12.91-28.78 28.78-28.78 15.87 0 28.78 12.91 28.78 28.78 0 15.87-12.91 28.78-28.78 28.78zm0-55c-14.46 0-26.22 11.76-26.22 26.22 0 14.46 11.76 26.23 26.22 26.23 14.46 0 26.22-11.76 26.22-26.23.01-14.46-11.76-26.22-26.22-26.22z"/><path d="M295.62 738.77c.83-.08 1.24-.34 1.24-.79 0-.33-.19-.56-.57-.69-.46-.15-1.03-.3-1.72-.46-.59-.24-.89-.51-.89-.82 0-.85.42-1.24 1.26-1.16.19.02.36.03.53.03.57 0 1.47-.28 2.7-.83.13-.06.31-.09.53-.09.26 0 .49.11.68.32.19.22.28.46.28.72 0 .3-.17.55-.5.74-.29.13-.58.27-.87.41.54.48.82 1.1.85 1.88.02.55-.21 1.04-.67 1.47-1.01.93-2.48 1.4-4.39 1.4-.19 0-.63-.01-1.31-.04-2.81 2.33-4.77 3.82-5.87 4.48-1.78 1.07-2.94 1.57-3.46 1.52-.3-.06-.59-.37-.89-.94-.26-.52-.4-.96-.4-1.31 0-.29.08-.51.25-.65.17-.09.35-.13.56-.13.15 0 .38.02.69.07.31.05.54.07.69.07.49 0 .97-.15 1.44-.45 2.12-1.37 3.63-2.4 4.53-3.11-.11-.21-.16-.39-.16-.53 0-.43.11-.78.32-1.04.55-.69 1.19-1.02 1.94-.99.93.04 1.49.37 1.65 1.02.67-.03 1.19-.06 1.56-.1zm-2.58-13.83c-.9-.07-1.4-.14-1.51-.21-.41-.26-.61-.57-.61-.95 0-.52.28-.9.83-1.14.67-.12 1.22-.16 1.64-.12.52.05 1.12.2 1.81.44.48.17.92.47 1.31.9.3.33.45.73.45 1.19 0 .65-.33 1.34-1 2.08a7.59 7.59 0 0 1-1.85 1.47c-1.11.63-2.06.99-2.84 1.06-.37.04-.68-.05-.94-.26-.26-.21-.38-.5-.38-.87 0-.57.28-.9.85-.98.49-.07.96-.21 1.39-.42.31-.15.72-.39 1.24-.73.71-.46 1.07-.8 1.07-1.03 0-.21-.49-.35-1.46-.43zm6.63.04c-.9-.07-1.4-.14-1.51-.21-.41-.26-.61-.57-.61-.95 0-.52.28-.9.83-1.14.67-.12 1.22-.16 1.64-.12.52.05 1.12.2 1.81.44.48.17.92.47 1.31.9.3.33.45.73.45 1.19 0 .65-.33 1.34-1 2.08a7.59 7.59 0 0 1-1.85 1.47c-1.11.63-2.06.99-2.84 1.06-.37.04-.68-.05-.94-.26-.26-.21-.38-.5-.38-.87 0-.57.28-.9.85-.98.49-.07.96-.21 1.39-.42.31-.15.72-.39 1.24-.73.71-.46 1.07-.8 1.07-1.03-.01-.21-.5-.35-1.46-.43zm8.41 14.88c-.77.63-1.74 1.29-2.91 2-1.33.8-2.2 1.24-2.62 1.31-.05.01-.12.01-.2.01-.47 0-.87-.26-1.22-.79-.3-.47-.45-.93-.45-1.37 0-.41.21-.64.62-.67.03 0 .08 0 .17-.01s.19-.01.29 0c-.04 0 .2.02.7.05.48.04.76.04.85 0 .59-.22 1.35-.62 2.29-1.19 1.36-.84 2.42-1.67 3.2-2.49-.27-.19-.42-.47-.45-.83-.04-.44.23-.86.79-1.27.51-.38 1-.57 1.47-.57.74 0 1.14.36 1.19 1.08.17.06.59-.14 1.28-.59.2-.18.57-.45 1.11-.82.17-.03.31-.04.42-.04.16 0 .28.02.36.07.28.16.47.38.57.67.04.26-.04.55-.21.85-.18.3-.26.48-.25.54.01.11.08.18.21.19.52.04 1.31-.5 2.37-1.61.44-.34.76-.51.95-.5.27.01.57.27.9.78.16.26.12.57-.11.95-.65 1.08-1.59 1.86-2.8 2.37-.59.25-1.13.38-1.61.4-.95.04-1.5-.34-1.65-1.15-.38.01-1.07 0-2.06-.01-.27.23-1.34 1.12-3.2 2.64zm3.87-14.81c-.9-.07-1.4-.14-1.51-.21-.41-.26-.61-.57-.61-.95 0-.52.28-.9.83-1.14.67-.12 1.22-.16 1.64-.12.52.05 1.12.2 1.81.44.48.17.92.47 1.31.9.3.33.45.73.45 1.19 0 .65-.33 1.34-1 2.08a7.59 7.59 0 0 1-1.85 1.47c-1.11.63-2.06.99-2.84 1.06-.37.04-.68-.05-.94-.26-.26-.21-.38-.5-.38-.87 0-.57.28-.9.85-.98.49-.07.96-.21 1.39-.42.31-.15.72-.39 1.24-.73.71-.46 1.07-.8 1.07-1.03 0-.21-.49-.35-1.46-.43zm19.61 9.14c.26-.11.43-.19.52-.22.21-.09.45.05.73.42.19.25.28.49.29.73.01.19-.16.44-.52.74-1 .85-2.45 1.81-4.32 2.86-2.63 1.47-4.34 2.23-5.14 2.27-.31.02-.6-.09-.87-.34s-.41-.52-.41-.83c0-.17.32-.59.95-1.28.48-.78.75-1.44.83-1.98l-.08-1.43c-.04-.67.13-1.08.49-1.22.32-.12.58-.17.79-.13.54.09.84.53.91 1.32.04.49.07.79.07.9 0 .81-.19 1.5-.57 2.08.75-.28 2.86-1.58 6.33-3.89zm-1.66-9.14c-.9-.07-1.4-.14-1.51-.21-.41-.26-.61-.57-.61-.95 0-.52.28-.9.83-1.14.67-.12 1.22-.16 1.64-.12.52.05 1.12.2 1.81.44.48.17.92.47 1.31.9.3.33.45.73.45 1.19 0 .65-.33 1.34-1 2.08a7.59 7.59 0 0 1-1.85 1.47c-1.11.63-2.06.99-2.84 1.06-.37.04-.68-.05-.94-.26-.26-.21-.38-.5-.38-.87 0-.57.28-.9.85-.98.49-.07.96-.21 1.39-.42.31-.15.72-.39 1.24-.73.71-.46 1.07-.8 1.07-1.03 0-.21-.49-.35-1.46-.43zm16.18 11.08c0-.23-.35-.34-1.04-.34l-1.9.21c-.1.01-.3.05-.62.12-.26.05-.46.08-.62.08-.22 0-.4-.07-.53-.2-.2-.28-.3-.58-.3-.89 0-.2.04-.41.13-.63.09-.48.97-.77 2.64-.89.42-.03 1.22.04 2.39.19 1.29.17 2.05.5 2.3.99.22.45.29.87.21 1.27-.06.31-.14.54-.22.69-.29.39-.59.71-.9.98-.59.51-1.15.93-1.67 1.27-1.18.77-2.82 1.63-4.92 2.58-1.08.49-2.16.95-3.23 1.37-.48.19-.91.16-1.28-.09-.57-.62-.86-1.21-.86-1.78 0-.51.28-.77.85-.77.14 0 .35.02.63.07s.49.07.63.07c.24 0 .45-.03.62-.09.92-.33 1.38-.49 1.4-.5.92-.36 1.94-.85 3.08-1.47 1.7-.92 2.76-1.6 3.17-2.04.04-.07.04-.13.04-.2zm.43-12.23c.26 0 .49.13.69.38.19.25.29.51.29.79s-.13.49-.4.66c-1.05.66-2.23 1.35-3.53 2.06l-2.3 1.26c-.73.4-1.23.63-1.48.69-.15.07-.3.11-.45.11-.26 0-.42-.09-.5-.26-.21-.48-.32-.77-.32-.86 0-.51.3-.84.9-.98 2.22-1.08 4.43-2.31 6.64-3.69.15-.11.31-.16.46-.16z" fill="#bd0e72"/></svg>