<svg xmlns="http://www.w3.org/2000/svg" xml:space="preserve" x="0" y="0" version="1.1" viewBox="0 0 1000 1000"><path d="m22.27 141.6-2.89-5.39 22.8-12.24 2.88 5.4zm45.6-24.46-2.88-5.39L87.8 99.51l2.88 5.39zm42.727-29.855 22.818-12.21 2.888 5.396-22.818 12.21zm45.623-24.459 22.818-12.21 2.888 5.395-22.819 12.21zm45.612-24.46 22.819-12.21 2.887 5.395-22.818 12.211zM273.15 7.06l-22.81 12.23-2.89-5.39 22.81-12.23" fill="#ed1c24"/><path d="M799.41 142.53c0 5.13-4.14 9.25-9.26 9.25s-9.26-4.12-9.26-9.25c0-5.12 4.14-9.25 9.26-9.25s9.26 4.13 9.26 9.25m-41.55 52.39c0 5.12-4.14 9.26-9.25 9.26s-9.26-4.14-9.26-9.26c0-5.11 4.15-9.25 9.26-9.25s9.25 4.14 9.25 9.25m-38.33 134.2c0 5.11-4.14 9.25-9.26 9.25s-9.26-4.14-9.26-9.25c0-5.13 4.14-9.25 9.26-9.25s9.26 4.12 9.26 9.25m11.19 68.69c0 5.11-4.14 9.25-9.26 9.25s-9.26-4.14-9.26-9.25c0-5.13 4.14-9.25 9.26-9.25s9.26 4.12 9.26 9.25m-12.25-31.96a9.25 9.25 0 0 1-9.25 9.26 9.24 9.24 0 0 1-9.26-9.26c0-5.11 4.13-9.25 9.26-9.25 5.1 0 9.25 4.14 9.25 9.25m34.61 177.34c0 5.12-4.15 9.26-9.26 9.26-5.12 0-9.26-4.14-9.26-9.26s4.14-9.26 9.26-9.26c5.11 0 9.26 4.14 9.26 9.26M115.66 630c0 5.12-4.15 9.25-9.26 9.25-5.12 0-9.26-4.13-9.26-9.25 0-5.13 4.14-9.26 9.26-9.26 5.11-.01 9.26 4.12 9.26 9.26m597.48 26.62c0 5.12-4.14 9.25-9.26 9.25-5.11 0-9.26-4.13-9.26-9.25 0-5.13 4.15-9.25 9.26-9.25a9.225 9.225 0 0 1 9.26 9.25m-55.92 78.28c0 5.11-4.14 9.25-9.25 9.25-5.12 0-9.27-4.14-9.27-9.25 0-5.13 4.15-9.27 9.27-9.27 5.11 0 9.25 4.14 9.25 9.27M543.8 765.25c0 5.11-4.14 9.25-9.25 9.25-5.12 0-9.27-4.14-9.27-9.25 0-5.12 4.15-9.25 9.27-9.25 5.11 0 9.25 4.13 9.25 9.25m-103.83 44.73c0 5.12-4.15 9.26-9.26 9.26-5.12 0-9.26-4.14-9.26-9.26 0-5.11 4.14-9.25 9.26-9.25 5.1-.01 9.26 4.13 9.26 9.25m-20.78-46.33c0 5.12-4.15 9.25-9.25 9.25-5.12 0-9.26-4.13-9.26-9.25s4.14-9.25 9.26-9.25c5.1 0 9.25 4.13 9.25 9.25m-35.14 84.68c0 5.11-4.15 9.25-9.25 9.25-5.12 0-9.27-4.14-9.27-9.25 0-5.13 4.15-9.26 9.27-9.26 5.1 0 9.25 4.13 9.25 9.26" fill="#004b1c"/><path d="M731.21 502.07c0 4.38-3.55 7.93-7.93 7.93s-7.94-3.55-7.94-7.93c0-4.37 3.56-7.93 7.94-7.93s7.93 3.56 7.93 7.93" fill="#fff"/><path d="M723.29 512.69c-5.87 0-10.64-4.77-10.64-10.63 0-5.86 4.77-10.61 10.64-10.61 5.86 0 10.61 4.76 10.61 10.61.01 5.86-4.75 10.63-10.61 10.63zm0-15.85c-2.9 0-5.24 2.34-5.24 5.22s2.35 5.23 5.24 5.23c2.87 0 5.22-2.35 5.22-5.23s-2.34-5.22-5.22-5.22z" fill="#6f2c91"/><path d="M728.52 475.11c0 4.38-3.55 7.93-7.93 7.93s-7.94-3.55-7.94-7.93c0-4.37 3.56-7.93 7.94-7.93s7.93 3.56 7.93 7.93" fill="#fff"/><path d="M720.6 485.73c-5.87 0-10.64-4.77-10.64-10.63 0-5.86 4.77-10.63 10.64-10.63 5.86 0 10.61 4.77 10.61 10.63 0 5.86-4.76 10.63-10.61 10.63zm0-15.85c-2.9 0-5.24 2.35-5.24 5.23s2.35 5.23 5.24 5.23c2.87 0 5.22-2.35 5.22-5.23s-2.35-5.23-5.22-5.23z" fill="#6f2c91"/><path d="M450.84 771.65c0 4.38-3.55 7.93-7.93 7.93s-7.94-3.55-7.94-7.93c0-4.37 3.56-7.93 7.94-7.93s7.93 3.57 7.93 7.93" fill="#f26522"/><path d="m815.4 119.59-.12-.56c-3.4-1.07-3.84 1.01-5.22 1.01-3.4 7.17-8.52 12.85-14.57 15.52-18.33 8.08-37.86 10.01-44.68 11.79-8.84 4.86.17 6 1.29 11.12 4.23 3.39 1.04 9.95 1.09 11.74.14 3.62-.86 6.39 7.13 4.13 2.72-.14 9.13-8.93 10.88-9.64l1.19-1.12c3.77-5.61 8.03-9.91 14.49-12.14l-.01-.45c1.08-1.13 9.89-3.63 11.17-5.28 3.81-3.93 16.12-1.81 16-10.42 1.41 0 .7-3.58.83-4.44h.47c1.36-3.93 1.76-7.76.06-11.26m-83.39 69.17.13-5.41h.18c0-.6.2-.21.19-.6.78-.2 1.37-.59 2.32-.63 1.18 1.18 3.47 2.5 4.13 4.04 2.32 5.41-3.14 12.64-3.1 17.46-2.24 1.61-6.08 18.37-10.45 15.86-1.13-.64 6.82-12.2 6.56-17.54-.19-4.09-.72-9.08.04-13.18m-8.2 34.21c2.66-.02 7.22 2.21 10.41 3.75.08 3.81-7.08 6.11-10.37 6.17 0-.23-.59-.79-.79-.79-1.16-1.12-.99-9.48 1.42-9.51l-.67.38zm-6.25-24.38c2.24 6.77 1.82 10.32-.74 16.38-.64 1.54-3.55 3.84-3.97 5.57-1.79 7.79-.09 16.25-2.33 23.65-.94 0-1.27 1.9-2.44 1.92-2.83-2.74-1.89-3.93-1.07-7.01 1.73-6.35-1.63-26.68-10.52-31.2-1.2-1.14-2.31-2.46-2.32-4.14 3.07-.92 5.81.16 8.18-.33 8.48-1.81 12.71-7.52 15.21-4.84M439.19 758.77c.88-4.72 1.8-9.5 2.67-14.23 5.53-5.65 11.19-3.85 19.41 2.12 3.93 3.49 3.83 10.07 12.25 15.16.1 3.81-3.53 6.62-9.01 6.93-4.52 1.04-8.49.06-8.62 5.2 8.86 6.43 3.03 9.49-3.96 10.91-9.56.58-16.65-1.77-17.67-9.38-2.34-4.47 1.92-10.59 4.93-16.71m-13.95-4.05c-2.7-3.63-4.58-4.32-7.17.15-.73 5.38 1.93 7.85 3 13.7-2.39 2.03-5.78 2.63-7.4.06-1.85-5.54.06-8.36.57-13-1.49-5.73-4.73-7.68-9.79-1.95-3.67 6.1-2.14 13.72.13 21.57 4.15 6.21 15.59 9.31 22.62-.53-.67-2.2 1.93-4.72 1.35-6.87-1.53-5.47-7.63-3.9-3.31-13.13" fill="#3b6287" fill-rule="evenodd" clip-rule="evenodd"/><path d="M384.96 807.32c-11.64-.11-27.57 11.32-38.56 11.55-10.54-1.06-20.07-4.17-28.35-6.79-1.24-2.74-.3-4.07 2.85-3.97 9.52 4.03 18.25 6.84 27.73 5.75 13.3-6.87 27.8-13.54 44.14-13.87 15.74 1.59 31.64 1.93 47.24 4.55 8.92-.85 7.73 5.94.29 10.44-15.16 10.09-25.5 20.59-36.17 31.13-6.98 7.24-16.02 8.97-26 8.23-5.83-.65-62.34-5.17-62.34-5.04-20.48-2.39-45.13-9.05-64.16-15.84-22.22-9.42-42.76-22.75-62.12-38.8-.04.05-.04.08-.04.13-.03-.11-.1-.16-.14-.22-.22-.14-.45-.27-.65-.41.02-.11.02-.2.05-.32-25.5-28.53-49.24-57.95-71.83-88-6.99-22.19-13.98-44.36-20.94-66.59-2.95-16.86 7.96-30 10.65-50.85 5.07-15.38 18.31-7.35 21.89 11.79 3.34 6.57 6.25 11.75 13.93 17.36 2.09 3.9-.79 8.25-3.99 6.85-5.4-4.42-7.43-12.25-11.4-11.12.77 10.84-1.95 17.47-2.26 26.11 3.84 18.71 11.12 37.14 20.14 54.04 14.07 19.24 27.76 38.07 51.56 63.15 16.77 13.03 40.58 19.73 52.62 33.45.43.73 4.15 3.13 5.77 2.99 8.54-.5 16.78-.86 24.24 3.49 9.09 5.42 20.31 8.34 38.11 18.31 10.91 2.81 21.07 5.5 29.06 8.39 12.43-1.78 23.17-6.12 34.86-10.81 2.78-2.24 3.82-2.89 3.82-5.08" fill="#3b6287" fill-rule="evenodd" clip-rule="evenodd"/><path d="M146.08 575.7c-9.1-10.01-13.62-22.99-13.53-39.05-2.32-12.57 12.42-9.58 22.09-42.96 15.5-17.7 32.39-33.53 52.21-45.34 17.76-11.47 35.55-22.9 53.32-34.33 6.01-5.51 4.86-14.14-7.67-11.47-3.26 1.02-7.47.74-9.64 3.35-2.77 3.4-5.79 4.16-10.36 5.4-10.54 2.8-19.63 9.33-28.9 15.08-12.67 7.19-25.03 14.53-33.63 24.23-19.92 22.49-37.09 41.89-56.28 63.18-17.86 21.99-17.2 39.67-3.85 54.33 8.79 6.43 15.91 13.68 21.36 21.83 9.12 8.61 23.99 2.04 14.88-14.25m197.97-205.95c10.2-5.67 14.14-12.35 4.27-21.14-5.39-2.01-10.75-2.16-16.06 1.71-9.24 18.49-34.78 22.55-40.78 33.63-4.98 9.12-3.76 11.43 3.59 7.01 11.2-7.97 24.3-12.51 35.48-21.42 4.67.3 9.69-.07 13.5.21" fill="#3b6287" fill-rule="evenodd" clip-rule="evenodd"/><path d="M482.87 258.03c-38.66 19.72-70.23 40.21-94.7 61.43-10.87 10.28-20.02 16.22-29.3 17.9-12.44 9.92 6.75 10.94-9.67 36.06-3.14 10.04 3.88 12.39 11.56 1.73 3.95-9.01 3.14-17.65 11.47-28.19 3.25-1.01 24.38-29.61 53.94-41.01 12.8-12.14 29.97-13.99 49.71-27.62 11.7 1.19 20.82-.86 25.7-11.5 4.16-10.7 12.94-11.45 21.46-12.83 9.24 2.39 18.38-6.24 27.48-13.41 11.32-4.46 22.68-7.47 34.05-9.46-.02-.29-.03-.6-.03-.92 5.15-1.62 12.85-3.18 15.44-3.47 5.41 1.1 16.29.29 19.55-7.1 4.04-9.2 10.43-6.9 13.99-7.74 12.76-7.29 36.76-14.31 50.27-1.71l.91.82.85 10.42c4.11 1.33 6.05 11.72 9.23 13.26 2.22 7.48 5.01 16.55.87 26.75-1.67 7.01-2.19 19.91.64 30.72 1.46 5.53-1.1 10.91.97 14.19 1.98 3.56 8.45 2.92 11.8.93.44.85 6.91-4.55 7.46-7.29 2.99-6.92 4.95-7.95 6.74-14.83-.08-3.73.19-12.07 2.83-14.76 1.81-4.6 1.8-7.82 1.83-11.7l6.51-20.76c3.55-15 9.25-32.86 21.57-42.44 4.41-3.42 6.78-10.93 9.93-14.18-.01-2.24 21.48-21.2 25.83-22.7 3.74-1.73 19.67-13.06 19.62-16.85 1.26-.02 1.99-1.67 2.2-3.81-2.26 5.5-12.15 4.28-15.52 7.73-1.28 1.65-10.09 4.15-11.17 5.28l.01.45c-6.46 2.23-10.72 6.56-14.49 12.14l-1.19 1.12c-1.75.71-8.17 9.51-10.89 9.64-7.98 2.26-6.98-.51-7.12-4.13-.06-1.79 3.14-8.36-1.09-11.73-1.12-5.13-10.14-6.27-1.29-11.13 6.8-1.78 26.34-3.67 44.68-11.78 3.69-1.65 7.06-4.43 9.88-7.95-11.75 1.78-21 12.17-31.97 11.37-19.25-3.84-42.63 6.3-47.88 10.62-2.6-.31-4.29 5.1-5.49 6.66l-.52 1.6c-.51 1.08-1.51 5.37-1.5 6.99-2.26 5.49-7.53 11.51-11.06 13.5-18.53 21.06-57.24-1.09-80.13 11.14-7.45 3.35-17.26 6.99-24.73 10.3-37.57 19.81-86.62 37.86-119.24 58.25M257.63 798.6c6.52.42 11.51.08 21.94 3.56 8.35 6.2 17.9 11.27 28.38 15.27 1.68 3.35.8 4.55-2.68 3.58-10.13-3.84-18.12-7.83-27.56-13.88-3.93-4.49-12.07-4.44-18.92-4.43-2.22-1.34-2.6-2.71-1.16-4.1m444.58-480.89c7.28-6.04 11.81-4.4 14.49 2.49 3.06 10.33 1.49 18.21-.75 25.75-6.46 6.86-11.37 4.55-15.59-1.95-4.73-7.58-4.83-16.19 1.85-26.29" fill="#3b6287" fill-rule="evenodd" clip-rule="evenodd"/><path d="M702.71 359.5c5.64-10.08 11.19-11.62 16.61-.72 4.59 18.5 7.46 37.08 8.73 55.64 7.21 21.23 9.27 43.83 8.15 65.81-.25 4.81 2.92 8.55 3 13.43.42 18.74-18.67 23.32-21.95 15.45-2.75-15.14-1.74-21.89-2.89-44.29-2.54-19.63-5.61-39.75-6.82-60.32-.02-15.03-6.72-33.7-4.83-45" fill="#3b6287" fill-rule="evenodd" clip-rule="evenodd"/><path d="M722.2 568.11c-.02-.13-.04-.29-.04-.42v-.04c-.01-.28-.01-.54-.06-.78v-.26c-.03-.27-.03-.55-.05-.81v-.11c-.01-.27-.03-.5-.03-.73-.01-.09-.01-.13-.02-.2-.05-1.12-.1-2.26-.12-3.4v-.1c0-.09 0-.22-.03-.3v-.17.17c.03.09.03.22.03.3v.1c.02 1.13.06 2.28.12 3.4.01.08.01.12.02.2 0 .24.02.46.03.73v.06c.02.3.02.58.05.85v.26c.05.24.05.5.06.78v.04c0 .14.02.3.04.43m-.37-7.15v-.17.17zm8.91-47.88c-.21.05-.32.16-.33.21-1.24.71-2.3 1.47-3.16 2.28-.23-.19.56-.86 3.48-2.48h.01z" fill="#3b6287" fill-rule="evenodd" clip-rule="evenodd"/><path d="M724.03 548.42c5.33-9.67-9.26-26.63 6.8-35.4v-.52c7.14-.11 12.68 12.69 15.14 12.67 0 .85.46 2.04 1.09 2.63 2.16-.02 2.77 8.55 3.34 10.13 3.9 11.73-10.96 23.14-10.83 33.86-2.15 0-6.85 10.23-6.8 11.3-1.37.03-7.82 15.33-7.77 16.54-3.55 6.62-4.4 23.55-10.02 29.3-.85 6.28-7.26 14.78-12.24 14.85-2.7-.38-3.89.16-4.07-3.02 0-1.31 4.6-6.35 5.8-8.08l.52-.01c1.07-1.63 2.73-7.24 5.51-11.03 3.48-13.02 8.49-30.87 11.47-46.44 1.3-6.73-2.17-17.81 2.06-26.78m-14.65-187.34c-.4-2.71 3.44-4.87 4.56.14-.4 6.53-.23 13.08.72 19.62-.6 2.85-1.74 2.97-3.41.34-.44-6.91-.75-13.18-1.87-20.1m1.85 32.56c1.79-2.15 3.27-1.92 4.44.75.66 2.25.42 4.26.08 6.21-1.74 1.19-3.48.99-5.23-.57-.47-2.64-.22-4.79.71-6.39m4.51 12.99c1.61.51 1.54 1.04 1.74 3.45.19 2.38-.56 3.94-1.68 3.46-1.1-.5-1.03-1.02-1.74-3.44-.72-2.38.01-3.93 1.68-3.47m3.11 24.96c1.5-.67 2.74 1.07 2.65 3.6-.09 2.57-.74 4.6-2.02 4.63-1.29 0-2.24-2.39-2.29-4.54-.01-2.16.16-3.06 1.66-3.69m-3.5-14.2c2.37-1.35 2.9-2.21 6.31-1.85 1.57 2.06 3.02 2.99 3.89 5.37-.67 1.1-2.14 1.02-4.87 1.28-.46 1.24-.87 2.52-2.02 3.4-2.61.88-3.03-.24-3.56-1.79-1.51-2.15-.64-4.24.25-6.41m6.54 45.13c-.59-5.07-1.38-10.14-2.63-15.19-.02-2.3.99-2.59 3.08-.84 1.32 3.82 4.51 6.55 9.6 8.23.23 4.1-3.22 6.28-3.81 11.17-.44 2.51.12 3.83 1.68 3.88 2.58 2.15 2.52 3.94-.09 5.43-2.84.8-5.21.2-7.05-1.73-1.12-3.82-1.38-7.46-.78-10.95m2.99 17.94c1.63-.45 3.26-1.21 4.87-2.02.93-.88.8-1.59-.32-2.12-2.35-.06-4.09.45-5.72 1.07-1.75 1.7-.5 2.45 1.17 3.07m6.65 1.57c1.48.64 1.73 1.11 1.74 2.52.03 1.38-.73 2.16-1.68 2.18-.93 0-.84.29-1.73-2.15-.9-2.46.19-3.19 1.67-2.55m-5.55 8.23c1.38.72 1.67 1.46 1.67 3.25.04 1.82-.68 3.18-1.57 3.18-.88.02-1.07-.37-1.67-3.12-.64-2.76.23-4.04 1.57-3.31m.58 12.1c.94 0 1.73 1.72 1.77 3.82.02 2.14-.72 3.87-1.67 3.88-.96 0-1.73-1.74-1.77-3.82-.04-2.12.71-3.88 1.67-3.88m-28.18 143.87c2.9-1.12 5.94 1.63 7.63 5.65 1.75 6.51-2.73 10.85-1.64 15.71.84 1.29 1.92 2.36 3.34 3.36 1.53 2.97-.23 2.94-2.46 2.49-3.16-.35-6.03.13-8.37-3.94-.39-2.32-.9-3.57-1.79-4.55-1.21-.47-2.05-1.21-2.49-2.23 1.44-5.73 3.78-10.15 5.78-16.49m-11.23 22.11c.61-3.6 2.54-2.84 5.13-.06 2.28 2.23 2.54 5.25 1.9 8.59-1.29 2.03-1.77 4.36-3.06 7.73.42 1.83 1.87 4.04 1.01 6.16-1.2 3-2.39 6.11-3.56 9.16 1.46 4.64-.65 4.15-3.28 2.91-4.87-3.11-9.14.81-9.66-3.18 3.24-5.45 6.42-11.19 8.57-17.42 1.38-4.27 2.16-8.86 2.95-13.89m-25.37 40.29c1.56-1.99 2.46-1.71 2.7.79-.9 4.55-1.57 7.96-1.4 11.74-.49 6.19-10.62 15.87-16.83 22.99-6.85 6.65-14.28 12.91-22.15 18.94-3.77 1.52-7.25.95-10.65-.3-2.56-1.83-3.27-3.57.11-5.11 4.7-2.44 9.39-4.92 14.08-7.38 10.98-8.36 19.42-18.15 26.9-28.58 2.53-4.27 4.69-8.8 7.24-13.09M370.99 336.44l14.31-10.01.94 1.62-13.61 10.24zm-11.72 13.2 2.5-.71.79 6.16-2.75 1.19zm-15.69 6.61 3.84-1.18 3.04 2.47-1.36 2.3-5.05-1.1zM147.56 490.64c1.99-.42 2.51-.1 2.17 1.64-1.71 1.49-3.14 3.14-4.83 5.23 0 .59-.15 1.28-.15 1.89-1.29 2.42-1.97 1.63-2.7.41.18-1.27.18-2.46.33-3.74 1.49-2.12 3.27-3.97 5.18-5.43m-16.53 100.71c.1-3.23.29-6.35-.39-10.32.39-2.64 1.52-2.75 3.43-.3.44 1.85-1.48 7.76-.73 12.02-1.21 2.32-1.99 1.84-2.31-1.4m-33.75 38.2c2.98.28 6.21.61 9.2.91 1.99-.78 2.72-2.32 5.33-3.42 1.4-.34 2.02.28 1.89 1.84-.94 3.69-.49 7.08.13 10.45-.28 2.23-1.36 2.89-3.24 2.05-1.65-1.55-3.7-3.42-5.21-5.67-2.98-.32-5.96-.69-8.97-1.04-2.28-.88-2.41-4.17.87-5.12m35.29 66.58c.63 0 1.46.7 1.46 1.83.02 1.12.44 1.82-.22 1.82-.64.02-2.51-.64-2.53-1.74-.02-1.16.65-1.91 1.29-1.91m.22 9.78c1.75-.02 3.55 3.4 3.55 4.64.04 1.23-1.79.16-3.55.16-1.76.05-3.34-.66-3.38-1.9-.01-1.22 1.62-2.89 3.38-2.9m2.49 11.63c.75 0 1.58 1.1 1.36 2.25-.22 1.15-.83 2.31-1.4 2.51-.57.25-1.79-1.18-1.81-2.56-.02-1.39 1.05-2.2 1.85-2.2m31.41 20.12c2.62-.05 1.5.63 2.47 1.52.98.86 1.24 2.04.52 2.42-.73.38-1.63.1-3.14-1.04-1.47-1.14-2.51-2.88.15-2.9m-.26 10.57c1.03 0 3.17 2.03 2.57 2.79-.58.73-3.3 1.73-3.88 2.3-.61.58-1.77-.88-1.8-2.36-.02-1.43 2.03-2.72 3.11-2.73m12.24.81c2.73.02 1.84.49 3.05 2.08 1.21 1.65 1.55 3.23.81 3.59-.72.39.12-.06-3.04-2.06-3.16-2.02-3.54-3.61-.82-3.61m7.83 6.13c.46-.38 2.43-.1 3.44 1.11 1.06 1.21 1.26 2.93.77 3.33-.42.39-2.11-.35-3.11-1.54-1.06-1.21-1.53-2.52-1.1-2.9m-14.23 5.47c2.01-.3 3.25.51 2.88 1.72-.35 1.22-.69 1.22-2.85 1.76-2.17.55-3.44-.22-2.9-1.69.57-1.51.87-1.51 2.87-1.79M194.95 784c1.07.02.82.1 2.51 1.74 1.68 1.65.02 2.53-1.9 2.2-1.88-.31-2.33-1.55-2.34-2.61-.01-1.05.64-1.39 1.73-1.33m6.89 2.72c1.03-.02.75-.16 2.59 1.72 1.79 1.89-.45 1.92-2.22 1.46-1.78-.45-1.47-.88-1.95-1.85-.52-.99.53-1.33 1.58-1.33m54.89 36.25c1.06 0 1.9.71 1.9 1.59.01.92-.81 1.63-1.85 1.65-1.02.03-1.88-.7-1.9-1.61 0-.86.82-1.61 1.85-1.63m9.92.85c1.05 0 1.89.7 1.89 1.6.03.9-.81 1.64-1.87 1.64-1.02 0-1.87-.7-1.87-1.59-.02-.91.8-1.63 1.85-1.65m3.68 3.57c1.02 0 1.87.7 1.89 1.61 0 .87-.82 1.62-1.84 1.62-1.05.03-1.89-.68-1.9-1.6-.02-.86.81-1.61 1.85-1.63m6.04.42c1.02 0 1.9.71 1.9 1.6.01.9-.83 1.61-1.85 1.61-1.05.03-1.89-.69-1.89-1.55-.03-.9.8-1.63 1.84-1.66m-71.6-29.76c1.02-1.5 2.11-2.47 3.42.23.32.92.56 2.34.9 3.29 1.4.1 2.89.3 4.26.39 2.15 1.62 1.42 2.42 3.9 4.85 1.36.65 2.73.11 3.57.8.73 1.79 3 1.68 3.98 3.7-.23 2.03-1.91 2.22-3.8 2.12-1.48-.93-2.92-1.88-3.44-3.52-1.38-1.6-2.95-3.07-5.72-3.5-3.97-.64-6.41-2.01-7.38-4.09.11-1.41.22-2.85.31-4.27m17.61 8.23c-.67.73 2.02 2.4 4.85 4.49 1.85-1.34 2.18-2.35 3.29-2.99.87-.85.72-1.6-.46-2.21-2.45-.6-4.62-.74-6.55-.41-.72.39-1.08.74-1.13 1.12m183.59 15.73c-.56-1.58-1.9-1.68-3.27-1.61-.64.81-1.19.31-1.26 1.92-.74.15-.99 1.38-1.64 1.43-4.5.34-6.15-1.18-7.32-2.5-1.92-2.43-1.71-3.19.78-3.5 2.07.5 4.02-.26 5.77-3.85 3.64-4.72 6.9-8.44 16.38-7.77 4.39.88 8.22 2.8 10.4 4.79 1.93 1.76.97 2.34-.37 2.76-4.62 2.36-9.24 4.79-13.85 7.13-2.94 1.37-4.94 4.16-6.76 7.16-3.13 1.11-4.05.07-2.49-1.63 1.06-.65 2.1-1.33 3.17-1.96.97-.68 1.14-1.45.46-2.37m-15.73 4.35c.89-1.92 2.05-2.47 3.47-1.6h.14c3.98 1.92 7.47 4.76 10.54 8.54.95 2.08.51 3.48-1.33 4.19-4.93 2.9-9.94 5.68-13.43 10.93-3.3 2.73-4.83 2.47-4.53-.83 2.45-3.12 5.37-5.62 5.77-11.17-1.26-3.07-1.23-6.48-.63-10.06m-38.56 14.37c3.28-2.74 12.57.61 18.06-.24 3.56-.74 6.96-1.96 10.04-4.09 2.79-2.53 3.8-1.12 3 4.27-3.02 2.95-6.07 5.86-9.09 8.82-1.95 2.09-4.62 2.35-7.98.79-3.57-1.75-7.97-2.74-14.27-2.1-3.17-3.35-3.09-5.86.24-7.45m-17.63 4.31c-1.28-1.48-2.45-.18-1.98 1.29 1.43 1.26 2.32 2.29 4.15 2.43 1.8.1 3.13-.67 4.67-1.6.74-2.56.37-3.7-.85-3.06-1.28.79-2.17 1.4-3.45 2.2-.98-.34-1.86-.5-2.54-1.26m-2.2-13.5c-1.52-.47-3.17-1.37-5.38-1.5-1.8.27-3.15.83-2.91 2.39 2.46.92 4 2.53 6.44 3.44 3.79.29 5.18-.87 5.94-2.44.97-1.46.47-2.37-.97-2.9-1.06-.2-2.09.45-3.12 1.01m-24.22-2.31c-2.06-.09-2.81.19-4.03.93-.41 1.11-.77 1.62-.38 2.84.14 2.58 1.37 3.31 3.18 2.02.36-1.47.87-1.7 1.21-3.15 1.47.13 2.66.33 4.13-.17 1.24-1.27 1.24-2.14-.18-2.61-1.34.22-2.58-.09-3.93.14m-16.12-6.65c-2.55.35-2.76 1.19-.55 2.51 2.17.88 4.15 1.77 6 2.18 1.47.92 2.37-1.2 3.18-3.34-.24-.89-.86-1.37-2.05-1.16-2.2-.08-4.37-.11-6.58-.19m-2.88 5.91c-2.09.04-2.37.59-2.4 1.82.72 1.5 1.99 2.9 3.99 4.15 1.28.37 2.69.47 3.48-.23 1.15-.97 1.9-2.22 2.92-3.45-.18-2.19-1.06-2.89-2.75-1.87-.77.7-.97 1.5-2.25 1.83-1.13-.57-2.27-1.35-2.99-2.25m300.75-451.33c1.81-.08 1.9 1.55 2.87 2.25 1.08.77 4.68.22 2.75 2.77-2.11 2.75-.9 2.98-3.88 3.02-3 .02-5.22-.71-4.7-3.23.49-2.53-.94-4.75 2.96-4.81m-8.18 48.31c1.83-.04 4.25-2.06 5.22-1.38 1.09.79 2.35 3.87.39 6.45-2.11 2.71-2.2 2.87-3.89 2.99-1.68.1-3.02-.55-4.69-3.22-1.68-2.67-.91-4.77 2.97-4.84m-2.35 41.85c2.03-.36 3.41-.89 4.08-.45.74.56 2.51 2.92 1.19 4.69-1.45 1.85-2.54 2.83-3.72 2.91-1.15.08-3.19-1.7-3.73-3.26-.52-1.53.16-3.5 2.18-3.89m-4.25 202.9c3.36.29-.36-1.2 3.47.13 1.28.44 4.32-1.13 4.41 2.08.12 3.44-.49 4.97-.92 4.77-.45-.15-.95 1.35-5.86-.17-4.9-1.56-4.46-7.13-1.1-6.81m-125.14-98.14c1.82-.04 1.88 1.61 2.85 2.29 1.11.8 4.71.25 2.75 2.79-2.08 2.71-.87 2.97-3.88 3.02-3 0-5.21-.69-4.71-3.23.51-2.55-.89-4.77 2.99-4.87m-40.54-19.33c3.33-2.94 6.46-1.5 9.85 2.02.47 5.01 2.11 9.31 1.66 14.45 1.57 7.29-3.01 7.41-6.5 5.75-2.34-2.8-4.79-4.69-5.75-8.64-1.37-7.83-1.97-12.2.74-13.58M277.18 834.93c1.44-1.41 2.87-2.62 4.33-2.47 1.93-1 2.33-.46 1.23 1.68-2.02.33-2.99 2.02-3.83 3.88-3.04.37-3.64-.66-1.73-3.09m130.36-72.21c1.81-2.7 3.66-2.65 5.54.21-1.11 3.72-.19 7.28 2.76 10.61.61 3.04-.44 3.86-3.15 2.51-3.32-1.23-4.04-3.17-5.46-5.19-.4-3.39-.77-6.19.31-8.14m31.79 9.29c-1.57-3.44-.69-4.52 2.58-3.21 2.52 1.56 5.04 3.19 7.55 5.17.75 1.91.23 2.92-1.63 3.04-1.79-.02-3.43-.97-4.9-3.23-.96-1.08-2.26-1.49-3.6-1.77m10.92-25.51c1.42-.02 2.31 1.62 2.31 2.38.04.78-.73.58-2.18.32-1.46-.24-2.7-.28-2.74-1.07 0-.78 1.19-1.61 2.61-1.63m80.94 17c6.99-4.6 10.72-8.23 18.04-11.28 3.22-.87 5.19-.4 4.32 2.9-3.69.61-5.98 3.17-9.34 4.97-1.94 2.21-4.24 4.83-5.26 7.65.14 4.01-.22 4.52-1.66 5.99-3.56.5-7.2.36-11.1-1.21-.8-2.09-2.46-3.45-3.84-5.82-1.42-1.48-1.65-2.95 3.81-2.46.54.82 4.49-.65 5.03-.74m151.33-57.84c.87 0 1.58.79 1.58 1.75.01.98-.68 1.81-1.51 1.81-.88.02-1.6-.8-1.6-1.77-.03-.97.69-1.79 1.53-1.79m-9.13-4.23c.83 0 1.57.78 1.57 1.76.02.97-.67 1.79-1.53 1.81-.83 0-1.55-.78-1.57-1.79 0-.94.68-1.75 1.53-1.78m-8.71-278.03c2.54 0 4.62 1.7 4.63 3.87.03 2.15-1.99 3.95-4.54 3.99-2.52 0-4.6-1.7-4.65-3.89-.02-2.13 1.99-3.92 4.56-3.97m12.44-.69c2.52-.02 4.59 1.72 4.63 3.86.03 2.16-2.02 3.97-4.54 3.99-2.56.02-4.6-1.71-4.65-3.85-.03-2.19 2-3.95 4.56-4m43.5-185.09c-.4-.73 2.99-2.19 5.52-2.39 1.49.03 1.51 1.28 1.32 2.67-.55 1.48 1.76 2.56.51 4.13-2.58.63-2.69 2.26-2.35 4.01-1.42.52-2.98.45-4.63-.19-1.9-4.09 1.04-5.74-.37-8.23m-10.9 32.57c1.32-.57 1.94.51 2.22 1.74.14 3.04.81 4.43 1.48 7.37.69 1.07.73 1.67 1.64.14.14-1.06-.24-2.71 1.01-3.01.99-.93 2.02 1.05 2.15 2.28-.87 2.55-1.88 3.4-3.73 4.58-1.54.26-3.09.78-3.27-1.43-.24-2.38-1.24-3.82-.37-6.49-.3-2.46-1.61-3.42-1.13-5.18m8.62-3.18c1.99.31 2.65.52 2.65 1.19.02.67-.57.19-2.51.93-1.99.74-3.38.08-3.47-.85-.08-.91 1.33-1.58 3.33-1.27m3.08-7.5c.84.12 1.03-.08 1.15 1.07.12 1.11-.38 1.62-1.12 1.11-.78-.53-1.05-.4-1.2-1.07-.13-.71.28-1.3 1.17-1.11m-4.4-.74c.55 0 .88 0 1.05.82.15.84-.36 1.06-1.01.86-.67-.2-1.06-.37-1.06-.83-.01-.49.45-.85 1.02-.85m5.02-7.26c1.23-.15 1.99.43 1.89 1.16-.16.68-1.13 1.33-1.78 1.13-.7-.17-1.65-.58-1.84-1.09-.2-.51.49-1.02 1.73-1.2m-6.46-5.74c.77-.1 1.19.31.92.92-.26.58-.28.7-.9.9-.61.19-1.02-.23-.9-.87.07-.7.09-.79.88-.95m2.34 2.18c.58.13.56.11.79.75.23.66-.21.9-.77.79-.57-.13-.7-.26-.78-.77-.08-.49.19-.91.76-.77m-8.4 41.5c.82-.03 1.69.84 1.69 1.76.01.94-.44 1.15-1.64 1.59-1.22.42-2.2-.03-1.53-1.65.7-1.64.67-1.7 1.48-1.7m.18 7.54c1.89.36 2.63 1.1 2.81 3.59.21 2.49-.72 4.24-2.01 3.95-1.28-.26-1.23-1.31-2.11-3.86-.87-2.6-.58-4 1.31-3.68M298.07 702.17c-.33-1.06-1.66-3.32-1.13-5.02.42-1.4 2.89-1.13 3.5-1.88 2.12-.14 2.99-.54 3.94.77 1.08 2.43 1.8 1.66 3.12 2.81-.77.8-.64 3.14-2.06 3.53-1.67.4-2.24 2.72-4.13 1.68-.83-.92-2.39-1.02-3.24-1.89m47.72 51.67c-.59-1.66-.78-3.21 2.03-3.87 2.22-.78 6.16 2.02 8.22 2.3 1.95-1.44 4.65.61 4.68 3.61-1 2.19-2.85 3.33-5.58 3.43-5.67-1.24-7.63-3.38-9.35-5.47m6.18 21.55c1.54-1.19 3.3-2.17 6.9-1.69 2.94.17 5.27 1.07 6.89 2.63 1.38 2.31.74 4.08-.56 6.41-2.45 1.47-3.9 2.14-6.72.9-.75-1.21-2.53-1.77-3.3-3.02-3.01-1.64-2.94-1.84-3.21-5.23m62.69-146.07 2.83-3.07 6.24 2.78 4.18 6.53-2.43 5.37-7.84-.76-.22-4.29-3.43-2.45zm313.62-476.08c3.29-.3 4.13.35 3.55 2.04-.59 1.65-1.38 3.39-3.32 3.41-1.93 0-3.68-1.78-3.71-3.34-.02-1.53.22-1.82 3.48-2.11M343.66 345.59l.84 2.75 2.48.04-1.94 1.81.75 2.77-2.06-1.63-2.02 1.67.67-2.78-1.99-1.74 2.47-.13zm73.31 93.18c2.63-.95 4.03 1.31 5.92 4.65 1.85 3.31 2.25 6.66.83 7.45-1.37.78-2.42-1.56-5.88-4.65-3.47-3.06-3.49-6.49-.87-7.45" fill="#3b6287" fill-rule="evenodd" clip-rule="evenodd"/><path d="M421 442.9c1.13 0 2.09.94 2.1 2.15.02 1.13-.91 2.11-2.03 2.11-1.15.01-2.09-.9-2.09-2.09-.01-1.2.9-2.15 2.02-2.17m57.96-33.63c2.97.23 3.75 1.94 3.77 4.37.04 2.43-1.64 4.44-3.68 4.44-2.04.04-2.8-1.69-3.78-4.33-.92-2.65.71-4.67 3.69-4.48m36.51 4.82c1.39-2.65 3.28-2.65 5.52-1.69 2.23.92 3.42 3.26 2.62 5.12-.79 1.91-2.7 1.91-5.51 1.74-2.82-.19-3.99-2.49-2.63-5.17m-35.67 27.28c1.37-2.66 3.26-2.66 5.51-1.7 2.24.94 3.06 2.2 2.26 4.1-.81 1.88-2.33 2.93-5.17 2.76-2.79-.18-3.96-2.51-2.6-5.16m-120.62 33.54c2.33-1.87 4.07-1.08 5.75.71 1.64 1.78 1.83 3.28.33 4.65-1.49 1.45-3.33 1.7-5.82.41-2.49-1.33-2.6-3.95-.26-5.77m-9.68 63.07c2.01-.02 3.68 1.69 3.68 3.84.05 2.14-1.57 3.89-3.59 3.95-2.01 0-4.58-1.48-4.62-3.59-.02-2.15 2.52-4.17 4.53-4.2m39.55 45.79c2.02-.01 3.69 1.69 3.7 3.85.04 2.12-1.59 3.9-3.57 3.95-2.03 0-4.64-1.49-4.66-3.6-.01-2.15 2.54-4.17 4.53-4.2m-12.67 58.44c2.39-.02 4.39 1.77 4.4 4.05.03 2.26-1.9 4.15-4.3 4.17-2.38.02-4.36-1.78-4.37-4.06-.03-2.26 1.87-4.15 4.27-4.16m21.98 9.84c2.4-.05 4.37 2.01 4.42 4.52.02 2.51-1.94 4.62-4.31 4.64-2.4.04-4.38-1.98-4.41-4.52-.03-2.55 1.88-4.61 4.3-4.64m-14.33 18.05c2.39-.05 4.36 2 4.38 4.49.05 2.56-1.89 4.63-4.28 4.68-2.4 0-4.37-2.03-4.4-4.54-.03-2.54 1.88-4.63 4.3-4.63m22.48 34c2.4-.02 4.37 2.02 4.4 4.52.03 2.53-1.9 4.62-4.29 4.64-2.39.05-4.36-2-4.38-4.51-.02-2.55 1.86-4.63 4.27-4.65m78.27 1.84c2.37-.02 4.33 1.8 4.37 4.08.04 2.26-1.89 4.12-4.28 4.15-2.39.04-4.36-1.79-4.4-4.04-.02-2.27 1.91-4.15 4.31-4.19m2.04-62.02c2.42-.04 4.36 1.79 4.42 4.05.03 2.25-1.91 4.13-4.32 4.17-2.37 0-4.37-1.8-4.37-4.06-.05-2.28 1.87-4.13 4.27-4.16m-2.67-26.28c2.42-.04 4.39 1.78 4.41 4.04.02 2.25-1.92 4.14-4.29 4.17-2.4.02-4.38-1.79-4.4-4.08-.04-2.25 1.9-4.11 4.28-4.13m13.42 1.72c2.39-.03 4.38 1.59 4.39 3.59.03 1.99-1.92 3.67-4.3 3.69-2.39.03-4.36-1.61-4.37-3.6-.05-2 1.86-3.67 4.28-3.68m25.02 28.09c2.38-.01 4.36 1.6 4.38 3.6.04 1.99-1.89 3.66-4.28 3.7-2.4.01-4.38-1.62-4.4-3.58-.04-2.02 1.89-3.66 4.3-3.72m25.04 31.21c2.4-.04 4.37 1.57 4.39 3.59.03 1.97-1.9 3.67-4.29 3.67-2.39.04-4.37-1.56-4.39-3.57-.03-2.01 1.91-3.67 4.29-3.69m6.24-6.89c2.42-.05 4.39 1.56 4.41 3.55.01 2.03-1.9 3.68-4.3 3.72-2.38.01-4.38-1.6-4.38-3.59-.02-2 1.89-3.66 4.27-3.68m17 4.73c2.39-.05 4.59 2.02 4.63 4.04.03 2-3.08 3.68-5.47 3.68-2.39.05-4.36-1.57-4.39-3.56-.03-2.01 2.83-4.14 5.23-4.16m-6.09-56.57c2.38-.03 4.63 3.25 4.64 5.24.04 1.99-3.06 3.68-5.47 3.71-2.4.03-4.38-1.57-4.39-3.6-.03-2 2.81-5.31 5.22-5.35m.05-39.92c2.23-.02 4.29 2.97 4.33 4.84.03 1.85-2.87 3.44-5.08 3.44-2.24.03-4.07-1.46-4.07-3.31-.04-1.89 2.61-4.97 4.82-4.97m14.55-1.62c2.24 0 4.28 2.07 4.3 3.91.03 1.89-2.85 3.44-5.08 3.46-2.21.01-4.04-1.46-4.07-3.33-.01-1.86 2.64-3.99 4.85-4.04m-72.21-7.57c2.22-.03 4.29 2.42 4.29 4.57.03 2.15-2.85 3.94-5.04 3.97-2.25.02-4.08-1.71-4.11-3.85-.02-2.19 2.64-4.64 4.86-4.69m48.12-48.96c1.75-.03 3.36 1.84 3.36 3.53.01 1.69-2.22 3.08-3.96 3.12-1.74 0-3.16-1.34-3.18-3.02-.02-1.69 2.05-3.63 3.78-3.63m-25.61 58.79c2.03 0 3.92 3.06 3.92 4.97.05 1.9-2.6 3.48-4.64 3.52-2.04 0-5.12-2.45-5.15-4.37-.03-1.87 3.84-4.08 5.87-4.12m23.11 57.28c2.37-.03 6.48 2.97 6.5 4.96.02 2.02-3.07 3.69-5.48 3.74-2.37.02-4.36-1.62-4.38-3.59-.04-2.03.94-5.07 3.36-5.11m-185.78 64.06c2.4-.04 4.37 2.01 4.4 4.54.05 2.51-1.89 4.58-4.26 4.63-2.42.02-4.39-2.01-4.43-4.53-.01-2.51 1.91-4.59 4.29-4.64m-18.57-68.36c2.58-.02 5.7 3.52 5.72 6.75.04 3.23-2.02 5.89-4.63 5.92-2.58.05-6.61-2.56-6.65-5.81-.05-3.21 2.97-6.84 5.56-6.86m84.8 36.1c3.76-.05 5.12 5.96 11.18 13.71 6.09 7.73.21 12.06-5.23 11.8-5.43-.24-8.29-4.93-8.38-11.62-.09-6.75-1.34-13.85 2.43-13.89m112.54-24.62c1.95.53 1.78 3.83.8 7.33-.98 3.48-4.29 5.41-6.24 4.88-1.91-.55-1.76-3.38-.77-6.87.99-3.47 4.3-5.91 6.21-5.34m-51.3 38.18c3.35-.04 6.12 3.64 6.2 8.13.04 4.54-1.68 8.17-6.93 8.56-5.24.37-7.11-3.52-5.27-8.39 1.83-4.88 2.62-8.25 6-8.3m-41.17-52.65c-.44-3.66 3.18-7.12 8.07-7.75 4.88-.6 9.05.84 10.09 6.49 1.04 5.6-2.95 8.07-8.44 6.73-5.47-1.4-9.26-1.87-9.72-5.47m-293.94 114.1c.79-.02 1.38.43 1.41.98 0 .57-.63 1.04-1.38 1.04-.73 0-1.37-.43-1.37-1-.01-.57.59-1.02 1.34-1.02m21.1 28.14c.75 0 1.39.56 1.39 1.28s-.61 1.32-1.36 1.32c-.77.02-1.4-.57-1.4-1.28 0-.71.58-1.32 1.37-1.32m3.29-2.07c.81-.58 1.79.66 1.41 1.27-.39.67-.91.91-1.37 1.36-.49.41-1.64-.73-1.4-1.29.24-.59.57-.73 1.36-1.34m-5.82-1.08c.39-.19 1.41.59 1.41 1.28.02.73-.61 1.31-1.36 1.33-.75.02-1.76-.73-1.4-1.27.37-.53.98-1.12 1.35-1.34m48.24 42.87c.36-.19 1.38.58 1.38 1.28.02.73-.6 1.35-1.35 1.35-.77 0-1.78-.79-1.41-1.33.4-.51 1.01-1.11 1.38-1.3m153.58 34.26 1.02 2.76 2.91.05-2.3 1.83.86 2.8-2.45-1.64-2.41 1.71.81-2.84-2.35-1.77 2.94-.11zm439.95-731.65 1.1 2.99 3.19.02-2.5 1.99.95 3.03-2.65-1.78-2.6 1.86.85-3.09-2.53-1.87 3.17-.16zM230.73 422.52c2.73-1.05 4.94-2.04 5.29-1.16.32.94-1.68 2.85-4.4 3.88-2.73 1.02-5.49 1.31-5.81.4-.32-.91 2.2-2.09 4.92-3.12m11.38-5.66c1.89-.88 2.99-1.5 3.3-.88.3.64-.5 1.96-2.37 2.85-1.91.9-3.68 1.43-3.97.8-.31-.6 1.17-1.85 3.04-2.77M129.65 561.6l.72 1.97 2.09.02-1.65 1.29.64 1.99-1.75-1.15-1.7 1.22.55-2.03-1.67-1.27 2.11-.05zm132.15-10.08c2.64-.02 4.83 1.83 4.85 4.18.02 2.33-1.88 3.76-4.51 3.8-2.67.02-5.06-1.35-5.11-3.69-.02-2.32 2.12-4.25 4.77-4.29m115.58 201.8c2.47.38 3.98 1.58 4.01 3.59.03 1.99-1.61 3.52-3.8 3.57-2.17 0-3.67-.86-4.13-3.46-.4-2.62 1.47-4.08 3.92-3.7" fill="#3b6287" fill-rule="evenodd" clip-rule="evenodd"/><path d="M778.24 159.83c0 5.12-4.14 9.26-9.25 9.26s-9.26-4.14-9.26-9.26c0-5.11 4.15-9.25 9.26-9.25s9.25 4.14 9.25 9.25" fill="#a54686"/><path d="M751.32 201.47c0 5.12-4.14 9.26-9.25 9.26s-9.26-4.14-9.26-9.26c0-5.11 4.15-9.25 9.26-9.25s9.25 4.14 9.25 9.25m-25.37 127.98c0 5.12-4.14 9.26-9.25 9.26s-9.26-4.14-9.26-9.26c0-5.11 4.15-9.25 9.26-9.25s9.25 4.14 9.25 9.25m23.82 204.9c0 5.12-4.14 9.26-9.25 9.26s-9.26-4.14-9.26-9.26c0-5.11 4.15-9.25 9.26-9.25s9.25 4.14 9.25 9.25m-85.99 193.99c0 5.12-4.14 9.26-9.25 9.26s-9.26-4.14-9.26-9.26c0-5.11 4.15-9.25 9.26-9.25s9.25 4.14 9.25 9.25m-242.04 41.69c0 5.12-4.14 9.26-9.25 9.26s-9.26-4.14-9.26-9.26c0-5.11 4.15-9.25 9.26-9.25 5.11 0 9.25 4.14 9.25 9.25m11.67 46.49c0 5.12-4.14 9.26-9.25 9.26s-9.26-4.14-9.26-9.26c0-5.11 4.15-9.25 9.26-9.25s9.25 4.14 9.25 9.25m-35.14 25.99c0 5.12-4.14 9.26-9.25 9.26s-9.26-4.14-9.26-9.26c0-5.11 4.15-9.25 9.26-9.25 5.11 0 9.25 4.14 9.25 9.25M120.74 627.39c0 5.12-4.14 9.26-9.25 9.26s-9.26-4.14-9.26-9.26c0-5.11 4.15-9.25 9.26-9.25s9.25 4.14 9.25 9.25" fill="#004b1c"/><path d="M742.08 535.15c0 1.28-1.04 2.31-2.32 2.31-1.27 0-2.31-1.02-2.31-2.31a2.32 2.32 0 0 1 2.31-2.32c1.28 0 2.32 1.04 2.32 2.32m-88.03 192.98c0 1.28-1.04 2.31-2.32 2.31-1.27 0-2.31-1.02-2.31-2.31a2.32 2.32 0 0 1 2.31-2.32c1.28.01 2.32 1.04 2.32 2.32m67.62-397.17a2.32 2.32 0 0 1-2.32 2.31c-1.27 0-2.31-1.04-2.31-2.31a2.32 2.32 0 0 1 2.31-2.32c1.28.01 2.32 1.04 2.32 2.32m25.86 204.15a2.32 2.32 0 0 1-2.32 2.31c-1.27 0-2.31-1.04-2.31-2.31a2.32 2.32 0 0 1 2.31-2.32c1.28 0 2.32 1.04 2.32 2.32M429.6 817.82a2.32 2.32 0 0 1-4.64 0c0-1.28 1.05-2.32 2.32-2.32 1.28 0 2.32 1.04 2.32 2.32m-38.27 27.01c0 1.28-1.04 2.31-2.32 2.31-1.27 0-2.32-1.02-2.32-2.31 0-1.28 1.05-2.32 2.32-2.32 1.29.01 2.32 1.04 2.32 2.32m356.73-643.45a2.32 2.32 0 0 1-2.32 2.31c-1.27 0-2.31-1.04-2.31-2.31a2.32 2.32 0 0 1 2.31-2.32c1.28 0 2.32 1.04 2.32 2.32m57.43-67.88c0 1.28-1.04 2.31-2.32 2.31-1.27 0-2.31-1.02-2.31-2.31a2.315 2.315 0 1 1 4.63 0m-36.91 26.09a2.32 2.32 0 0 1-2.32 2.31c-1.27 0-2.31-1.04-2.31-2.31a2.315 2.315 0 1 1 4.63 0" fill="#f5ee6d"/><path d="M935.26 212.94c3.3-.13 5.98.84 8.05 2.89 2.06 2.05 3.1 4.61 3.1 7.69 0 2.63-.78 4.94-2.32 6.94-2.03 2.64-4.91 3.97-8.62 3.97-3.73 0-6.61-1.26-8.66-3.79-1.61-1.99-2.41-4.36-2.41-7.11 0-3.07 1.04-5.63 3.14-7.69 2.09-2.06 4.67-3.03 7.72-2.9zm.18.98c-1.9 0-3.34.97-4.32 2.9-.81 1.59-1.21 3.88-1.21 6.84 0 3.54.62 6.15 1.86 7.85.86 1.18 2.07 1.77 3.63 1.77 1.05 0 1.93-.25 2.63-.76.9-.65 1.59-1.7 2.1-3.13.49-1.43.75-3.3.75-5.6 0-2.74-.25-4.79-.77-6.15-.51-1.36-1.16-2.32-1.95-2.87-.78-.58-1.69-.85-2.72-.85zm22.26-1.12v16.94c0 1.27.05 2.09.17 2.43.11.36.35.64.71.86.35.23.93.34 1.71.34h.47v.57h-10.91v-.57h.55c.88 0 1.52-.09 1.9-.31.38-.2.63-.48.77-.84.13-.35.2-1.18.2-2.49V219c0-.96-.05-1.56-.14-1.8a1.3 1.3 0 0 0-.52-.61c-.25-.17-.54-.25-.86-.25-.52 0-1.15.17-1.9.49l-.27-.55 7.62-3.49h.5zm-74.88 385.92c3.3-.13 5.98.84 8.05 2.89 2.06 2.05 3.1 4.61 3.1 7.69 0 2.63-.78 4.94-2.32 6.94-2.03 2.64-4.91 3.97-8.62 3.97-3.73 0-6.61-1.26-8.66-3.79-1.61-1.99-2.41-4.36-2.41-7.11 0-3.07 1.04-5.63 3.14-7.69 2.09-2.06 4.67-3.03 7.72-2.9zm.18.98c-1.9 0-3.34.97-4.32 2.9-.81 1.59-1.21 3.88-1.21 6.84 0 3.54.62 6.15 1.86 7.85.86 1.18 2.07 1.77 3.63 1.77 1.05 0 1.93-.25 2.63-.76.9-.65 1.59-1.7 2.1-3.13.49-1.43.75-3.3.75-5.6 0-2.74-.25-4.79-.77-6.15-.51-1.36-1.16-2.32-1.95-2.87-.78-.58-1.69-.85-2.72-.85zm25.02 20.03h-12.18v-.34c3.74-4.45 6-7.45 6.8-8.98.8-1.54 1.2-3.04 1.2-4.51 0-1.07-.34-1.96-.99-2.66-.66-.72-1.47-1.06-2.43-1.06-1.57 0-2.79.78-3.65 2.35l-.57-.2c.56-1.95 1.39-3.4 2.51-4.34 1.13-.94 2.42-1.4 3.89-1.4 1.05 0 2 .24 2.87.73a5.44 5.44 0 0 1 2.03 2.01c.48.85.73 1.65.73 2.39 0 1.36-.37 2.74-1.13 4.13-1.03 1.88-3.28 4.52-6.74 7.89h4.48c1.11 0 1.82-.05 2.15-.14.33-.09.6-.25.82-.46.21-.22.49-.68.83-1.39h.56l-1.18 5.98zM67.46 794.43c3.3-.13 5.98.84 8.05 2.89 2.06 2.05 3.1 4.61 3.1 7.69 0 2.63-.78 4.94-2.32 6.94-2.03 2.64-4.91 3.97-8.62 3.97-3.73 0-6.61-1.26-8.66-3.79-1.61-1.99-2.41-4.36-2.41-7.11 0-3.07 1.04-5.63 3.14-7.69s4.67-3.03 7.72-2.9zm.18.98c-1.9 0-3.34.97-4.32 2.9-.81 1.59-1.21 3.88-1.21 6.84 0 3.54.62 6.15 1.86 7.85.86 1.18 2.07 1.77 3.63 1.77 1.05 0 1.93-.25 2.63-.76.9-.65 1.59-1.7 2.1-3.13.49-1.43.75-3.3.75-5.6 0-2.74-.25-4.79-.77-6.15-.51-1.36-1.16-2.32-1.95-2.87-.78-.58-1.69-.85-2.72-.85zm16.7 9.64v-.53c1.16-.34 1.96-.65 2.41-.95.44-.28.83-.73 1.16-1.33.33-.6.49-1.2.49-1.81 0-.84-.32-1.57-.93-2.18-.62-.6-1.38-.91-2.31-.91-1.42 0-2.63.76-3.63 2.26l-.57-.2c.74-1.71 1.67-2.98 2.82-3.83 1.15-.86 2.42-1.28 3.83-1.28 1.43 0 2.61.43 3.55 1.32.93.87 1.4 1.9 1.4 3.06 0 .77-.22 1.51-.65 2.21-.43.71-1.12 1.33-2.04 1.87 1.2.58 2.11 1.3 2.73 2.15.63.84.95 1.92.95 3.2 0 2.16-.79 3.99-2.35 5.51-1.57 1.51-3.66 2.26-6.29 2.26-1.76 0-3.03-.28-3.83-.87-.59-.4-.87-.93-.87-1.57 0-.47.17-.87.51-1.2s.72-.49 1.16-.49c.34 0 .65.07.95.21.16.08.74.53 1.74 1.34.99.81 1.92 1.21 2.79 1.21.75 0 1.39-.29 1.94-.88.54-.6.81-1.36.81-2.27 0-1.39-.49-2.69-1.47-3.85-.98-1.19-2.41-2-4.3-2.45zm857.89-527.12-2.37-.14.13-2.32 2.37.14-.13 2.32zm-4.73-.26-2.37-.13.13-2.32 2.37.13-.13 2.32zm-4.74-.25-2.37-.13.13-2.32 2.37.13-.13 2.32zm-4.74-.27-2.37-.13.13-2.32 2.37.13-.13 2.32zm-4.74-.25-2.37-.13.13-2.32 2.37.13-.13 2.32zm-4.74-.25-2.37-.14.13-2.32 2.37.14-.13 2.32zm-4.73-.26-2.37-.13.13-2.32 2.37.13-.13 2.32zm-4.74-.26-2.37-.13.13-2.32 2.37.13-.13 2.32zm-4.73-.26-2.37-.13.13-2.32 2.37.13-.13 2.32zm-4.74-.25-2.37-.13.13-2.32 2.37.13-.13 2.32zm-4.74-.26-2.37-.14.13-2.32 2.37.14-.13 2.32zm-4.74-.26-2.37-.13.13-2.32 2.37.13-.13 2.32zm-4.74-.25-2.37-.13.13-2.32 2.37.13-.13 2.32zm-4.74-.27-2.37-.13.13-2.32 2.37.13-.13 2.32zm-4.74-.25-2.37-.13.13-2.32 2.37.13-.13 2.32zm-4.74-.25-2.37-.14.13-2.32 2.37.14-.13 2.32zm-4.72-.26-2.37-.13.13-2.32 2.37.13-.13 2.32zm-4.74-.26-2.37-.13.13-2.32 2.37.13-.13 2.32zm-4.74-.26-2.37-.13.13-2.32 2.37.13-.13 2.32zm-4.74-.25-2.37-.13.13-2.32 2.37.13-.13 2.32zm-4.74-.26-2.37-.14.13-2.32 2.37.14-.13 2.32zm-4.74-.26-2.37-.13.13-2.32 2.37.13-.13 2.32zm-4.74-.25-2.37-.13.13-2.32 2.37.13-.13 2.32zm-4.74-.27-2.37-.13.13-2.32 2.37.13-.13 2.32zm-4.74-.25-2.37-.13.13-2.32 2.37.13-.13 2.32zm-4.73-.25-2.36-.14.13-2.32 2.36.14-.13 2.32zm-4.73-.26-2.37-.13.13-2.32 2.37.13-.13 2.32zm-4.74-.26-2.37-.13.13-2.32 2.37.13-.13 2.32zm-4.74-.26-2.37-.13.13-2.32 2.37.13-.13 2.32zm-4.74-.25-2.37-.13.13-2.32 2.37.13-.13 2.32zm-4.74-.26-2.37-.14.13-2.32 2.37.14-.13 2.32zm-4.74-.26-2.37-.13.13-2.32 2.37.13-.13 2.32zm-4.74-.25-2.37-.13.13-2.32 2.37.13-.13 2.32zm-4.73-.26-2.37-.13.13-2.32 2.37.13-.13 2.32zm-4.74-.26-2.37-.13.13-2.32 2.37.13-.13 2.32zm-4.73-.25-2.37-.14.13-2.32 2.37.14-.13 2.32zm-4.74-.26-2.37-.13.13-2.32 2.37.13-.13 2.32zm-4.74-.26-2.37-.13.13-2.32 2.37.13-.13 2.32zm-4.74-.26-2.37-.13.13-2.32 2.37.13-.13 2.32zm-4.74-.25-2.37-.13.13-2.32 2.37.13-.13 2.32zm-4.73-.25-2.37-.14.13-2.32 2.37.14-.13 2.32zm-4.74-.27-2.37-.13.13-2.32 2.37.13-.13 2.32zm-4.74-.25-2.37-.13.13-2.32 2.37.13-.13 2.32zm-4.74-.25-2.37-.14.13-2.32 2.37.14-.13 2.32zm-4.74-.27-2.37-.13.13-2.32 2.37.13-.13 2.32zm-4.73-.25-2.37-.13.13-2.32 2.37.13-.13 2.32zm-4.74-.26-2.37-.13.13-2.32 2.37.13-.13 2.32zm-4.74-.26-2.37-.13.13-2.32 2.37.13-.13 2.32zm-4.73-.25-2.37-.14.13-2.32 2.37.14-.13 2.32zm-4.74-.26-2.37-.13.13-2.32 2.37.13-.13 2.32zm-4.74-.25-2.37-.13.13-2.32 2.37.13-.13 2.32zm-4.74-.27-2.37-.13.13-2.32 2.37.13-.13 2.32zm-4.74-.25-2.37-.13.13-2.32 2.37.13-.13 2.32zm-4.74-.25-2.37-.14.13-2.32 2.37.14-.13 2.32zm-4.74-.27-2.37-.13.13-2.32 2.37.13-.13 2.32zm-4.73-.25-2.37-.13.13-2.32 2.37.13-.13 2.32zm-4.73-.26-2.37-.13.13-2.32 2.37.13-.13 2.32zm-4.74-.26-2.37-.13.13-2.32 2.37.13-.13 2.32zm-4.74-.25-2.37-.14.13-2.32 2.37.14-.13 2.32zm-4.74-.26-2.37-.13.13-2.32 2.37.13-.13 2.32zm-4.74-.25-2.37-.13.13-2.32 2.37.13-.13 2.32zm-4.74-.27-2.37-.13.13-2.32 2.37.13-.13 2.32zm-4.74-.25-2.37-.13.13-2.32 2.37.13-.13 2.32zm-4.74-.25-2.37-.14.13-2.32 2.37.14-.13 2.32zm-4.74-.27-2.37-.13.13-2.32 2.37.13-.13 2.32zm-4.72-.25-2.37-.13.13-2.32 2.37.13-.13 2.32zm-4.74-.26-2.37-.13.13-2.32 2.37.13-.13 2.32zm-4.74-.25-2.37-.13.13-2.32 2.37.13-.13 2.32zm-4.74-.26-2.37-.14.13-2.32 2.37.14-.13 2.32zm-4.74-.26-2.37-.13.13-2.32 2.37.13-.13 2.32zm-4.74-.25-2.37-.13.13-2.32 2.37.13-.13 2.32zm-4.74-.27-2.37-.13.13-2.32 2.37.13-.13 2.32zm-4.73-.25-2.37-.13.13-2.32 2.37.13-.13 2.32zm-4.74-.25-2.37-.14.13-2.32 2.37.14-.13 2.32zm-4.74-.27-2.37-.13.13-2.32 2.37.13-.13 2.32zm-4.73-.25-2.37-.13.13-2.32 2.37.13-.13 2.32zm-4.74-.26-2.37-.13.13-2.32 2.37.13-.13 2.32zm-4.74-.25-2.37-.13.13-2.32 2.37.13-.13 2.32zm-4.74-.26-2.37-.14.13-2.32 2.37.14-.13 2.32zm-4.74-.26-2.37-.13.13-2.32 2.37.13-.13 2.32zM15.33 451.54l2.23-.8.78 2.19-2.24.8-.77-2.19m4.463-1.594 2.242-.798.778 2.186-2.242.798zm5.257.594-.78-2.19 2.23-.79.78 2.19zm4.46-1.59-.78-2.19 2.23-.8.78 2.19zm4.47-1.6-.78-2.19 2.24-.79.78 2.19zm4.47-1.59-.78-2.19 2.23-.8.78 2.19zm4.47-1.6-.78-2.19 2.23-.79.78 2.19zm3.683-3.784 2.243-.798.777 2.186-2.242.798zm5.257.594-.78-2.19 2.23-.79.78 2.19zm4.46-1.59-.78-2.19 2.23-.8.78 2.19zm4.48-1.59-.78-2.19 2.23-.8.78 2.19zm4.46-1.6-.78-2.19 2.24-.8.77 2.19zm4.47-1.59-.78-2.19 2.23-.8.78 2.19zm4.47-1.6-.78-2.19 2.24-.8.77 2.19zm4.47-1.59-.78-2.19 2.23-.8.78 2.19zm4.46-1.6-.78-2.19 2.24-.8.77 2.19zm4.48-1.59-.78-2.19 2.23-.8.78 2.19zm4.46-1.6-.78-2.19 2.24-.79.78 2.19zm4.47-1.59-.78-2.19 2.23-.81.78 2.2zm4.47-1.61-.78-2.19 2.24-.79.78 2.19zm4.47-1.59-.78-2.19 2.23-.8.78 2.19zm4.46-1.6-.78-2.19 2.24-.79.78 2.19zm4.48-1.59-.78-2.19 2.23-.8.78 2.19zm4.46-1.6-.78-2.19 2.24-.79.78 2.19zm4.47-1.59-.78-2.19 2.23-.8.78 2.19zm4.47-1.59-.77-2.19 2.23-.8.78 2.19zm4.47-1.6-.78-2.19 2.23-.8.78 2.19zm4.46-1.59-.77-2.19 2.23-.8.78 2.19zm4.48-1.6-.78-2.19 2.23-.8.78 2.19zm4.47-1.59-.78-2.19 2.23-.8.78 2.19zm4.46-1.6-.78-2.19 2.23-.8.78 2.19zm4.48-1.59-.78-2.19 2.23-.8.78 2.19zm4.46-1.6-.78-2.19 2.23-.79.78 2.19zm4.47-1.59-.78-2.19 2.23-.8.78 2.19zm4.47-1.6-.78-2.19 2.23-.79.78 2.19zm4.47-1.59-.78-2.19 2.23-.8.78 2.19zm4.46-1.6-.78-2.19 2.23-.79.78 2.19zm4.48-1.59-.78-2.19 2.23-.8.78 2.19zm4.46-1.6-.78-2.19 2.24-.79.77 2.19zm4.47-1.59-.78-2.19 2.23-.8.78 2.19zm4.47-1.59-.78-2.19 2.24-.8.77 2.19zm4.47-1.6-.78-2.19 2.23-.8.78 2.19zm4.46-1.59-.78-2.19 2.24-.8.77 2.19zm4.48-1.6-.78-2.19 2.23-.8.78 2.19zm4.46-1.59-.78-2.19 2.24-.81.78 2.2zm4.47-1.61-.78-2.19 2.23-.8.78 2.19zm4.47-1.59-.78-2.19 2.24-.8.78 2.19zm4.47-1.6-.78-2.19 2.23-.79.78 2.19zm4.46-1.59-.78-2.19 2.24-.8.78 2.19zm4.48-1.6-.78-2.19 2.23-.79.78 2.19zm4.46-1.59-.78-2.19 2.24-.8.78 2.19zm4.47-1.6-.78-2.19 2.24-.79.78 2.19zm4.47-1.59-.77-2.19 2.23-.8.78 2.19zm4.47-1.6-.78-2.19 2.23-.79.78 2.19zm3.692-3.788 2.242-.798.778 2.186-2.243.798zm5.248.608-.78-2.19 2.23-.8.78 2.19zm4.47-1.6-.78-2.19 2.23-.8.78 2.19zm3.682-3.786 2.243-.798.777 2.186-2.242.797zm5.258.596-.78-2.19 2.23-.8.78 2.19zm4.46-1.59-.78-2.19 2.23-.8.78 2.19zm3.692-3.798 2.243-.798.777 2.186-2.242.798zm5.248.608-.78-2.19 2.23-.8.78 2.19zm4.47-1.6-.78-2.19 2.23-.79.78 2.19zm3.683-3.787 2.242-.797.778 2.185-2.242.798zm5.257.597-.78-2.19 2.23-.79.78 2.19zm4.46-1.59-.78-2.19 2.23-.8.78 2.19zm4.47-1.6-.78-2.19 2.24-.79.78 2.19zm4.47-1.59-.78-2.19 2.24-.8.77 2.19zm4.47-1.6-.78-2.19 2.23-.79.78 2.19zm3.684-3.787 2.242-.797.778 2.185-2.243.798zm5.256.607-.78-2.19 2.23-.8.78 2.19zm4.46-1.6-.78-2.2 2.24-.8.78 2.19zm3.694-3.788 2.242-.798.778 2.186-2.243.797zm5.246.588-.78-2.19 2.24-.8.78 2.19zm4.47-1.59-.78-2.19 2.23-.8.78 2.19zm3.684-3.787 2.243-.798.777 2.186-2.242.798zm5.256.597-.78-2.19 2.23-.8.78 2.19zm4.46-1.6-.78-2.19 2.24-.8.78 2.19zm4.48-1.59-.78-2.19 2.23-.8.78 2.19zm4.46-1.6-.77-2.19 2.23-.79.78 2.19zm4.47-1.59-.78-2.19 2.23-.8.78 2.19zm4.47-1.6-.77-2.19 2.23-.79.78 2.19zm4.47-1.59-.78-2.19 2.23-.8.78 2.19zm4.46-1.6-.77-2.19 2.23-.79.78 2.19zm4.48-1.59-.78-2.19 2.23-.8.78 2.19zm4.47-1.6-.78-2.19 2.23-.79.78 2.19zm4.46-1.59-.78-2.19 2.23-.8.78 2.19zm4.48-1.59-.78-2.19 2.23-.8.78 2.19zm4.46-1.6-.78-2.19 2.23-.8.78 2.19zm4.47-1.59-.78-2.19 2.23-.8.78 2.19zm4.47-1.6-.78-2.19 2.23-.8.78 2.19zm4.47-1.59-.78-2.19 2.23-.8.78 2.19zm4.46-1.6-.78-2.19 2.23-.8.78 2.19zm4.48-1.59-.78-2.19 2.23-.8.78 2.19zm4.46-1.6-.78-2.19 2.24-.79.77 2.19zm4.47-1.59-.78-2.19 2.23-.8.78 2.19zm4.47-1.6-.78-2.19 2.24-.79.78 2.19zm4.47-1.59-.78-2.19 2.23-.81.78 2.2zm4.46-1.61-.78-2.19 2.24-.79.78 2.19zm4.48-1.59-.78-2.19 2.23-.8.78 2.19zm4.46-1.6-.78-2.19 2.24-.79.78 2.19zm4.47-1.59-.78-2.19 2.23-.8.78 2.19zm4.47-1.59-.78-2.19 2.24-.8.78 2.19zm4.47-1.6-.78-2.19 2.23-.8.78 2.19zm4.46-1.59-.78-2.19 2.24-.8.78 2.19zm4.48-1.6-.78-2.19 2.23-.8.78 2.19zm4.46-1.59-.78-2.19 2.24-.8.78 2.19zm3.69-3.8 2.243-.797.778 2.186-2.243.797zm5.25.61-.77-2.19 2.23-.8.78 2.19zm4.47-1.6-.78-2.19 2.23-.79.78 2.19zm3.69-3.791 2.243-.798.778 2.186-2.242.798zm5.25.601-.78-2.19 2.23-.79.78 2.19zm4.47-1.59-.78-2.19 2.23-.8.78 2.19zm4.46-1.6-.78-2.19 2.24-.79.78 2.19zm4.48-1.59-.78-2.19 2.23-.8.78 2.19zm4.46-1.6-.78-2.19 2.23-.79.78 2.19zm3.692-3.791 2.242-.798.778 2.186-2.243.798zm5.248.611-.78-2.19 2.23-.8.78 2.19zm4.47-1.6-.78-2.19 2.23-.8.78 2.19zm3.682-3.79 2.242-.797.778 2.185-2.242.798zm5.258.6-.78-2.19 2.23-.8.78 2.19zm4.46-1.59-.78-2.19 2.24-.8.77 2.19zm3.692-3.801 2.243-.798.777 2.186-2.242.797z"/><path d="m565.75 257.55-.8-2.19.29-.11.8 2.19z"/><path d="m639.32 1000-.23-2.37 2.32-.23.23 2.37-2.32.23zm-.47-4.73-.23-2.36 2.32-.23.23 2.36-2.32.23zm-.48-4.72-.23-2.36 2.32-.23.23 2.36-2.32.23zm-.47-4.71-.23-2.36 2.32-.23.23 2.36-2.32.23zm-.48-4.73-.24-2.36 2.32-.23.24 2.36-2.32.23zm-.47-4.72-.24-2.36 2.32-.23.24 2.36-2.32.23zm-.47-4.72-.24-2.36 2.32-.23.24 2.36-2.32.23zm-.48-4.72-.24-2.37 2.32-.23.24 2.37-2.32.23zm-.47-4.72-.24-2.36 2.32-.23.24 2.36-2.32.23zm-.49-4.72-.23-2.36 2.32-.23.23 2.36-2.32.23zm-.47-4.72-.23-2.36 2.32-.23.23 2.36-2.32.23zm-.47-4.73-.23-2.36 2.32-.23.23 2.36-2.32.23zm-.48-4.72-.24-2.36 2.32-.23.24 2.36-2.32.23zm-.47-4.71-.24-2.36 2.32-.23.24 2.36-2.32.23zm-.47-4.73-.24-2.36 2.32-.23.24 2.36-2.32.23zm-.48-4.72-.24-2.36 2.32-.23.24 2.36-2.32.23zm-.47-4.72-.24-2.36 2.32-.23.24 2.36-2.32.23zm-.49-4.71-.23-2.37 2.32-.23.23 2.37-2.32.23zm-.47-4.73-.23-2.36 2.32-.23.23 2.36-2.32.23zm-.47-4.72-.23-2.36 2.32-.23.23 2.36-2.32.23zm-.48-4.72-.24-2.36 2.32-.23.24 2.36-2.32.23zm-.47-4.73-.24-2.36 2.32-.23.24 2.36-2.32.23zm-.48-4.71-.24-2.36 2.32-.23.24 2.36-2.32.23zm-.47-4.72-.24-2.36 2.32-.23.24 2.36-2.32.23zm-.47-4.73-.24-2.36 2.32-.23.24 2.36-2.32.23zm-.49-4.72-.23-2.36 2.32-.23.23 2.36-2.32.23zm-.47-4.72-.23-2.36 2.32-.23.23 2.36-2.32.23zm-.48-4.71-.23-2.37 2.32-.23.23 2.37-2.32.23zm-.47-4.73-.23-2.36 2.32-.23.23 2.36-2.32.23zm-.47-4.72-.24-2.36 2.32-.23.24 2.36-2.32.23zm-.48-4.72-.24-2.36 2.32-.23.24 2.36-2.32.23zm-.47-4.73-.24-2.36 2.32-.23.24 2.36-2.32.23zm-.48-4.71-.24-2.36 2.32-.23.24 2.36-2.32.23zm-.48-4.72-.23-2.36 2.32-.23.23 2.36-2.32.23zm-.47-4.72-.23-2.37 2.32-.23.23 2.37-2.32.23zm-.48-4.73-.23-2.36 2.32-.23.23 2.36-2.32.23zm-.47-4.71-.23-2.36 2.32-.23.23 2.36-2.32.23zm-.48-4.72-.24-2.37 2.32-.23.24 2.37-2.32.23zm-.47-4.73-.24-2.36 2.32-.23.24 2.36-2.32.23zm-.47-4.72-.24-2.36 2.32-.23.24 2.36-2.32.23zm-.48-4.72-.24-2.36 2.32-.23.24 2.36-2.32.23zm-.47-4.72-.24-2.36 2.32-.23.24 2.36-2.32.23zm-.49-4.72-.23-2.36 2.32-.23.23 2.36-2.32.23zm-.47-4.72-.23-2.36 2.32-.23.23 2.36-2.32.23zm-.47-4.72-.23-2.37 2.32-.23.23 2.37-2.32.23zm-.48-4.73-.24-2.36 2.32-.23.24 2.36-2.32.23zm-.47-4.71-.24-2.36 2.32-.23.24 2.36-2.32.23zm-.47-4.72-.24-2.36 2.32-.23.24 2.36-2.32.23zm-.48-4.73-.24-2.36 2.32-.23.24 2.36-2.32.23zm-.47-4.72-.24-2.36 2.32-.23.24 2.36-2.32.23zm-.49-4.71-.23-2.36 2.32-.23.23 2.36-2.32.23zm-.47-4.73-.23-2.36 2.32-.23.23 2.36-2.32.23zm-.47-4.72-.23-2.36 2.32-.23.23 2.36-2.32.23zm-.48-4.72-.23-2.36 2.32-.23.23 2.36-2.32.23zm-.47-4.72-.24-2.37 2.32-.23.24 2.37-2.32.23zm-.48-4.72-.24-2.36 2.32-.23.24 2.36-2.32.23zm-.47-4.72-.24-2.36 2.32-.23.24 2.36-2.32.23zm-.47-4.72-.24-2.36 2.32-.23.24 2.36-2.32.23zm-.49-4.73-.23-2.36 2.32-.23.23 2.36-2.32.23zm-.47-4.72-.23-2.36 2.32-.23.23 2.36-2.32.23zm-.48-4.71-.23-2.36 2.32-.23.23 2.36-2.32.23zm-.47-4.73-.23-2.36 2.32-.23.23 2.36-2.32.23zm-.47-4.72-.24-2.36 2.32-.23.24 2.36-2.32.23zm-.48-4.72-.24-2.36 2.32-.23.24 2.36-2.32.23zm-.47-4.72-.24-2.37 2.32-.23.24 2.37-2.32.23zm-.48-4.72-.24-2.36 2.32-.23.24 2.36-2.32.23zm-.47-4.72-.24-2.36 2.32-.23.24 2.36-2.32.23zm-.48-4.72-.23-2.36 2.32-.23.23 2.36-2.32.23zm-.48-4.73-.23-2.36 2.32-.23.23 2.36-2.32.23zm-.47-4.72-.23-2.36 2.32-.23.23 2.36-2.32.23zm-.48-4.71-.24-2.36 2.32-.23.24 2.36-2.32.23zm-.47-4.72-.24-2.37 2.32-.23.24 2.37-2.32.23zm-.47-4.73-.24-2.36 2.32-.23.24 2.36-2.32.23zm-.48-4.72-.24-2.36 2.32-.23.24 2.36-2.32.23zm-.47-4.71-.24-2.37 2.32-.23.24 2.37-2.32.23zm-.49-4.73-.23-2.36 2.32-.23.23 2.36-2.32.23zm-.47-4.72-.23-2.36 2.32-.23.23 2.36-2.32.23zm-.47-4.72-.23-2.36 2.32-.23.23 2.36-2.32.23zm-.48-4.73-.23-2.36 2.32-.23.23 2.36-2.32.23zm-.47-4.71-.24-2.36 2.32-.23.24 2.36-2.32.23zm-.47-4.72-.24-2.36 2.32-.23.24 2.36-2.32.23zm-.48-4.72-.24-2.37 2.32-.23.24 2.37-2.32.23zm-.47-4.73-.24-2.36 2.32-.23.24 2.36-2.32.23zm-.49-4.72-.23-2.36 2.32-.23.23 2.36-2.32.23zm-.47-4.71-.23-2.37 2.32-.23.23 2.37-2.32.23zm-.47-4.73-.23-2.36 2.32-.23.23 2.36-2.32.23zm-.48-4.72-.23-2.36 2.32-.23.23 2.36-2.32.23zm-.47-4.72-.24-2.36 2.32-.23.24 2.36-2.32.23zm-.48-4.73-.24-2.36 2.32-.23.24 2.36-2.32.23zm-.47-4.71-.24-2.36 2.32-.23.24 2.36-2.32.23zm-.47-4.72-.24-2.36 2.32-.23.24 2.36-2.32.23zm-.49-4.72-.23-2.37 2.32-.23.23 2.37-2.32.23zm-.47-4.73-.23-2.36 2.32-.23.23 2.36-2.32.23zm-.48-4.71-.23-2.36 2.32-.23.23 2.36-2.32.23zm-.47-4.72-.23-2.36 2.32-.23.23 2.36-2.32.23zm-.47-4.73-.24-2.36 2.32-.23.24 2.36-2.32.23zm-.48-4.72-.24-2.36 2.32-.23.24 2.36-2.32.23zm-.47-4.72-.24-2.36 2.32-.23.24 2.36-2.32.23zm-.48-4.71-.24-2.37 2.32-.23.24 2.37-2.32.23zm-.47-4.73-.24-2.36 2.32-.23.24 2.36-2.32.23zm-.48-4.72-.23-2.36 2.32-.23.23 2.36-2.32.23zm-.48-4.72-.23-2.36 2.32-.23.23 2.36-2.32.23zm-.47-4.73-.23-2.36 2.32-.23.23 2.36-2.32.23zm-.48-4.71-.24-2.36 2.32-.23.24 2.36-2.32.23zm-.47-4.72-.24-2.36 2.32-.23.24 2.36-2.32.23zm-.47-4.73-.24-2.36 2.32-.23.24 2.36-2.32.23zm-.48-4.72-.24-2.36 2.32-.23.24 2.36-2.32.23zm-.47-4.72-.24-2.36 2.32-.23.24 2.36-2.32.23zm-.49-4.71-.23-2.37 2.32-.23.23 2.37-2.32.23zm-.47-4.73-.23-2.36 2.32-.23.23 2.36-2.32.23zm-.47-4.72-.23-2.36 2.32-.23.23 2.36-2.32.23zm-.48-4.72-.23-2.36 2.32-.23.23 2.36-2.32.23zm-.47-4.72-.24-2.36 2.32-.23.24 2.36-2.32.23zm-.48-4.72-.24-2.36 2.32-.23.24 2.36-2.32.23zm-.47-4.72-.24-2.36 2.32-.23.24 2.36-2.32.23zm-.47-4.72-.24-2.37 2.32-.23.24 2.37-2.32.23zm-.49-4.73-.23-2.36 2.32-.23.23 2.36-2.32.23zm-.47-4.71-.23-2.36 2.32-.23.23 2.36-2.32.23zm-.47-4.72-.23-2.36 2.32-.23.23 2.36-2.32.23zm-.48-4.73-.23-2.36 2.32-.23.23 2.36-2.32.23zm-.47-4.72-.24-2.36 2.32-.23.24 2.36-2.32.23zm-.48-4.72-.24-2.36 2.32-.23.24 2.36-2.32.23zm-.47-4.72-.24-2.36 2.32-.23.24 2.36-2.32.23zm-.47-4.72-.24-2.36 2.32-.23.24 2.36-2.32.23zm-.48-4.72-.24-2.36 2.32-.23.24 2.36-2.32.23zm-.48-4.72-.23-2.37 2.32-.23.23 2.37-2.32.23zm-.48-4.73-.23-2.36 2.32-.23.23 2.36-2.32.23zm-.47-4.71-.23-2.36 2.32-.23.23 2.36-2.32.23zm-.47-4.72-.24-2.36 2.32-.23.24 2.36-2.32.23zm-.48-4.73-.24-2.36 2.32-.23.24 2.36-2.32.23zm-.47-4.72-.24-2.36 2.32-.23.24 2.36-2.32.23zm-.48-4.71-.24-2.36 2.32-.23.24 2.36-2.32.23zm-.47-4.72-.24-2.37 2.32-.23.24 2.37-2.32.23zm-.48-4.73-.23-2.36 2.32-.23.23 2.36-2.32.23zm-.48-4.72-.23-2.36 2.32-.23.23 2.36-2.32.23zm-.47-4.72-.23-2.37 2.32-.23.23 2.37-2.32.23zm-.48-4.72-.23-2.36 2.32-.23.23 2.36-2.32.23zm-.47-4.72-.24-2.36 2.32-.23.24 2.36-2.32.23zm-.47-4.72-.24-2.36 2.32-.23.24 2.36-2.32.23zm-.48-4.73-.24-2.36 2.32-.23.24 2.36-2.32.23zm-.47-4.72-.24-2.36 2.32-.23.24 2.36-2.32.23zm-.49-4.71-.23-2.36 2.32-.23.23 2.36-2.32.23zm-.47-4.72-.23-2.37 2.32-.23.23 2.37-2.32.23zm-.47-4.73-.23-2.36 2.32-.23.23 2.36-2.32.23zm-.48-4.72-.23-2.36 2.32-.23.23 2.36-2.32.23zm-.47-4.72-.24-2.36 2.32-.23.24 2.36-2.32.23zm-.48-4.72-.24-2.36 2.32-.23.24 2.36-2.32.23zm-.47-4.72-.24-2.36 2.32-.23.24 2.36-2.32.23zm-.47-4.72-.24-2.36 2.32-.23.24 2.36-2.32.23zm-.48-4.72-.24-2.37 2.32-.23.24 2.37-2.32.23zm-.48-4.72-.23-2.36 2.32-.23.23 2.36-2.32.23zm-.48-4.72-.23-2.36 2.32-.23.23 2.36-2.32.23zm-.47-4.72-.23-2.37 2.32-.23.23 2.37-2.32.23zm-.47-4.73-.24-2.36 2.32-.23.24 2.36-2.32.23zm-.48-4.72-.24-2.36 2.32-.23.24 2.36-2.32.23zm-.47-4.71-.24-2.36 2.32-.23.24 2.36-2.32.23zm-.47-4.73-.24-2.36 2.32-.23.24 2.36-2.32.23zm-.48-4.72-.24-2.36 2.32-.23.24 2.36-2.32.23zm377.85-.95c-18.97 0-34.39-15.43-34.39-34.38s15.43-34.38 34.39-34.38 34.38 15.43 34.38 34.38-15.42 34.38-34.38 34.38zm0-65.71c-17.28 0-31.34 14.06-31.34 31.33s14.06 31.33 31.34 31.33c17.27 0 31.33-14.06 31.33-31.33s-14.06-31.33-31.33-31.33zm-52.04 451.5c-18.96 0-34.38-15.43-34.38-34.38s15.43-34.38 34.38-34.38 34.38 15.43 34.38 34.38-15.42 34.38-34.38 34.38zm0-65.71c-17.27 0-31.33 14.06-31.33 31.33 0 17.27 14.06 31.33 31.33 31.33 17.27 0 31.33-14.06 31.33-31.33 0-17.27-14.06-31.33-31.33-31.33zM75.04 839.37c-18.96 0-34.38-15.43-34.38-34.38s15.43-34.38 34.38-34.38c18.97 0 34.39 15.43 34.39 34.38s-15.42 34.38-34.39 34.38zm0-65.72c-17.27 0-31.33 14.06-31.33 31.33 0 17.27 14.06 31.33 31.33 31.33 17.28 0 31.34-14.06 31.34-31.33 0-17.27-14.05-31.33-31.34-31.33z"/><path d="M659.68 727.88c0 1.28-1.04 2.31-2.32 2.31-1.27 0-2.31-1.02-2.31-2.31a2.315 2.315 0 1 1 4.63 0" fill="#f5ee6d"/><path d="M821.21 97.84c.99-.09 1.48-.41 1.48-.95 0-.4-.23-.67-.68-.82-.55-.18-1.23-.36-2.05-.55-.71-.28-1.06-.61-1.06-.98 0-1.02.5-1.48 1.5-1.39.22.02.43.03.63.03.68 0 1.76-.33 3.22-1 .16-.07.37-.11.63-.11.32 0 .59.13.81.39.23.26.34.54.34.86 0 .36-.2.65-.6.88-.35.16-.7.32-1.04.49.64.57.98 1.32 1.01 2.24.02.65-.25 1.24-.81 1.75-1.21 1.12-2.96 1.67-5.24 1.67-.23 0-.75-.02-1.56-.05-3.36 2.78-5.7 4.57-7.01 5.35-2.13 1.27-3.51 1.88-4.14 1.82-.36-.07-.71-.45-1.06-1.12-.32-.62-.47-1.14-.47-1.56 0-.35.1-.61.3-.77.2-.11.42-.16.66-.16.18 0 .45.03.82.09.37.06.64.09.82.09.59 0 1.16-.18 1.72-.54 2.53-1.63 4.33-2.87 5.42-3.71-.13-.25-.19-.46-.19-.63 0-.52.13-.93.38-1.25.65-.82 1.43-1.22 2.32-1.18 1.12.04 1.77.45 1.97 1.22.82-.04 1.44-.07 1.88-.11zm-3.08-16.53c-1.07-.08-1.67-.17-1.8-.25-.48-.31-.73-.68-.73-1.14 0-.62.33-1.07 1-1.36.8-.15 1.45-.19 1.96-.14.62.06 1.34.24 2.16.52.58.2 1.1.56 1.56 1.07.36.4.54.87.54 1.42 0 .78-.4 1.61-1.2 2.48-.63.7-1.37 1.28-2.21 1.75-1.33.76-2.46 1.18-3.4 1.26-.44.04-.82-.06-1.12-.32-.31-.25-.46-.6-.46-1.04 0-.68.34-1.07 1.01-1.17.59-.08 1.14-.25 1.66-.51.37-.18.86-.47 1.48-.87.85-.55 1.28-.96 1.28-1.23.01-.21-.57-.37-1.73-.47zm7.91.05c-1.07-.08-1.67-.17-1.8-.25-.48-.31-.73-.68-.73-1.14 0-.62.33-1.07 1-1.36.8-.15 1.45-.19 1.96-.14.62.06 1.34.24 2.16.52.58.2 1.1.56 1.56 1.07.36.4.54.87.54 1.42 0 .78-.4 1.61-1.2 2.48-.63.7-1.37 1.28-2.21 1.75-1.33.76-2.46 1.18-3.4 1.26-.44.04-.82-.06-1.12-.32-.31-.25-.46-.6-.46-1.04 0-.68.34-1.07 1.01-1.17.59-.08 1.14-.25 1.66-.51.37-.18.86-.47 1.48-.87.85-.55 1.28-.96 1.28-1.23.01-.21-.57-.37-1.73-.47zm30.18 10.65c.47-.83.85-1.22 1.14-1.17.35.06.7.22 1.04.46.41.27.63.56.66.87.04.4-.21 1.02-.74 1.86-.25.39-.6.76-1.04 1.11-1.27 1-2.91 1.56-4.9 1.69-.21.07-.78.11-1.71.11l-15.27.02c-.77.75-1.86 1.68-3.27 2.81-.62.49-1.06.74-1.33.74-.28 0-.62-.2-1-.59-.38-.39-.58-.74-.58-1.03 0-.49.28-.96.84-1.39.15-.11.6-.44 1.36-1.01l-.73-.33c-.17-.11-.34-.33-.51-.66l-.09-.49c.11-.81.47-1.4 1.09-1.75.94-.54 1.64-.81 2.1-.81.15 0 .29.01.43.03.23 0 .68.13 1.36.39.45.27.79.77 1.01 1.48.37.03 3.51.05 9.41.05 2.66 0 4.15-.02 4.45-.05 1.74-.18 2.69-.28 2.84-.32 1.26-.25 2.06-.55 2.4-.88.22-.15.57-.53 1.04-1.14zM843.8 78.83c1.22.02 2.13.61 2.72 1.77.11.36.16.77.16 1.23 0 1-.25 1.85-.76 2.54-1.25 1.72-3.29 2.69-6.11 2.92-1.35-.05-2.29-.48-2.81-1.28-.29-.62-.44-1.21-.44-1.77 0-.94.44-1.87 1.31-2.81 1.65-1.77 3.63-2.64 5.93-2.6zm-4.39 5.28c.15.22.45.39.9.51h.51c.2 0 .41-.01.63-.02 1.23-.51 2.07-1.1 2.53-1.77.05-.14.08-.27.08-.41 0-.65-.53-.95-1.58-.9-.63.16-1.07.32-1.33.49-.58.27-1.02.58-1.33.93s-.47.65-.47.9c0 .1.02.18.06.27zm27.86 24.39c.32 0 .59.15.82.45s.35.61.35.94c0 .17-.16.44-.49.81-.35.28-1.19.8-2.53 1.53l-4.42 2.42c-.86.47-1.45.75-1.77.82-.18.08-.36.13-.54.13-.31 0-.51-.11-.6-.32-.25-.58-.38-.92-.38-1.03 0-.61.36-1 1.07-1.17 2.65-1.3 5.3-2.76 7.93-4.41.2-.11.38-.17.56-.17zm3-11.23c.47-.96.71-1.61.71-1.96 0-.09-.03-.14-.08-.14a.16.16 0 0 0-.08.03c-.66.46-1.42 1-2.27 1.61-1.71 1.23-2.86 2.02-3.46 2.35l-2.86 1.63c-.68.39-1.33.68-1.93.88-.09.03-.19.05-.3.05-.34 0-.68-.18-1.04-.55-.57-.59-.85-1.25-.85-1.99 0-.27.07-.51.21-.71.21-.24.58-.36 1.12-.36.16 0 .39.01.69.02.3.02.53.02.69.02.33 0 .61-.03.85-.09.11-.05.18-.08.22-.09l.7-.38c1.15-.63 1.92-1.08 2.32-1.34l4.34-2.92c1.15-.77 1.85-1.19 2.1-1.26.37-.11.78-.02 1.25.25.68.4 1.03 1.06 1.03 1.97 0 .82-.24 1.83-.71 3.03-.7 1.76-1.41 3.04-2.15 3.84-.14.15-.33.22-.58.22-.33 0-.66-.13-1.01-.38-.39-.27-.58-.56-.58-.87 0-.32.1-.56.3-.74.4-.39.87-1.09 1.37-2.12z" fill="#bd0e72"/><path d="M657.68 148.94c.6-.06.9-.25.9-.57 0-.24-.14-.41-.41-.5-.33-.11-.74-.22-1.24-.33-.43-.17-.64-.37-.64-.59 0-.62.3-.9.91-.84.13.01.26.02.38.02.41 0 1.06-.2 1.95-.6.1-.04.22-.07.38-.07.19 0 .35.08.49.23.14.16.21.33.21.52 0 .22-.12.39-.36.53-.21.1-.42.19-.63.3.39.34.59.8.61 1.36.01.39-.15.75-.49 1.06-.73.67-1.79 1.01-3.17 1.01-.14 0-.45-.01-.94-.03-2.03 1.68-3.44 2.76-4.24 3.24-1.29.77-2.12 1.14-2.5 1.1-.22-.04-.43-.27-.64-.68-.19-.38-.29-.69-.29-.95 0-.21.06-.37.18-.47.12-.06.25-.1.4-.1.11 0 .27.02.5.05.22.03.39.05.5.05.36 0 .7-.11 1.04-.32 1.53-.99 2.62-1.73 3.27-2.24a.826.826 0 0 1-.11-.38c0-.31.08-.56.23-.75.39-.5.86-.73 1.4-.72.67.03 1.07.27 1.19.74.47-.02.85-.04 1.12-.07zm-1.86-9.98c-.65-.05-1.01-.1-1.09-.15-.29-.18-.44-.41-.44-.69 0-.38.2-.65.6-.82.48-.09.88-.12 1.18-.09.38.04.81.14 1.31.31.35.12.66.34.94.65.22.24.32.53.32.86 0 .47-.24.97-.73 1.5-.38.42-.83.77-1.34 1.06-.8.46-1.49.71-2.05.76a.888.888 0 0 1-.68-.19.782.782 0 0 1-.28-.63c0-.41.2-.65.61-.71.36-.05.69-.15 1-.31.22-.11.52-.28.9-.52.52-.33.77-.58.77-.75.03-.12-.32-.22-1.02-.28zm4.78.03c-.65-.05-1.01-.1-1.09-.15-.29-.18-.44-.41-.44-.69 0-.38.2-.65.6-.82.48-.09.88-.12 1.18-.09.38.04.81.14 1.31.32.35.12.67.34.94.65.22.24.32.53.32.86 0 .47-.24.97-.73 1.5-.38.42-.83.77-1.34 1.06-.8.46-1.49.71-2.05.76a.888.888 0 0 1-.68-.19.782.782 0 0 1-.28-.63c0-.41.2-.65.61-.71.36-.05.69-.15 1-.31.22-.11.52-.28.9-.52.52-.33.77-.58.77-.74.03-.14-.32-.24-1.02-.3zm7.21 16.4c.19 0 .36.09.5.27.14.18.21.37.21.57 0 .1-.1.26-.3.49-.21.17-.72.48-1.53.93l-2.67 1.46c-.52.29-.88.45-1.07.5-.11.05-.22.08-.32.08-.18 0-.31-.06-.36-.19-.15-.35-.23-.56-.23-.62 0-.37.22-.6.65-.71 1.6-.78 3.2-1.67 4.79-2.66a.5.5 0 0 1 .33-.12zm1.81-6.79c.29-.58.43-.97.43-1.18 0-.06-.02-.09-.05-.09-.01 0-.03.01-.05.02-.4.28-.86.6-1.37.97-1.03.74-1.73 1.22-2.09 1.42l-1.73.98c-.41.23-.8.41-1.16.53-.06.02-.12.03-.18.03-.2 0-.41-.11-.63-.33-.34-.36-.52-.76-.52-1.2 0-.17.04-.31.12-.43.13-.15.35-.22.68-.22.1 0 .23.01.42.01.18.01.32.01.41.01.2 0 .37-.02.52-.06.06-.03.11-.05.13-.06l.42-.23c.69-.38 1.16-.65 1.4-.81l2.62-1.77c.69-.46 1.12-.72 1.27-.76.22-.06.47-.01.75.15.41.24.62.64.62 1.19 0 .5-.14 1.11-.43 1.83-.42 1.06-.85 1.83-1.3 2.32-.08.09-.2.13-.35.13-.2 0-.4-.08-.61-.23-.24-.17-.35-.34-.35-.53s.06-.34.18-.45c.27-.19.55-.62.85-1.24zm8.1.1c-.46.03-.77.05-.94.05-.42 0-.63-.23-.63-.7 0-.39.25-.65.76-.78l.93-.24c1.08-.48 1.75-.94 2.01-1.37.15-.24.39-.36.72-.36.1.02.23.08.39.19.29.2.42.45.39.75-.13.2-.25.35-.36.43-.27.2-.45.34-.53.4 1.3-.15 2.09-.24 2.36-.28.27.04.41.21.41.52 0 .25-.04.43-.13.52l-.53.34c-2.05 1.29-3.84 2.39-5.36 3.28-1.79 1.06-2.97 1.76-3.56 2.1-.36.2-.8.45-1.35.73-.1.05-.19.08-.3.08-.28 0-.52-.2-.73-.59-.18-.34-.27-.66-.27-.97 0-.31.14-.47.41-.47.1 0 .25.01.44.03.19.02.34.03.44.03.31 0 .59-.06.85-.17.04-.01.06-.02.08-.03h.01v.01c.01-.01.02-.01.03-.02l.75-.4c1.68-.9 3.53-2.01 5.54-3.33-.91.12-1.52.2-1.83.25zm4.15-10.49c.19 0 .36.09.5.27.14.18.21.37.21.57 0 .2-.1.36-.29.48-.76.48-1.61.97-2.55 1.49l-1.66.91c-.53.29-.88.45-1.07.5-.11.05-.22.08-.32.08-.18 0-.31-.06-.36-.19-.15-.35-.23-.56-.23-.62 0-.37.22-.6.65-.71 1.6-.78 3.2-1.67 4.79-2.66a.5.5 0 0 1 .33-.12zm10.74 7.42c.18-.08.31-.14.37-.16.15-.06.33.04.52.31.13.18.2.35.21.53.01.14-.12.32-.37.53-.73.62-1.77 1.3-3.12 2.06-1.9 1.06-3.13 1.61-3.71 1.64-.22.01-.43-.07-.63-.24-.2-.18-.3-.37-.3-.6 0-.12.23-.43.69-.93.34-.56.54-1.04.6-1.43l-.06-1.03c-.03-.48.09-.78.35-.88.23-.09.42-.12.57-.1.39.06.61.38.66.95.03.36.05.57.05.65 0 .59-.14 1.08-.41 1.5.56-.19 2.08-1.12 4.58-2.8zm.26-7.42c.19 0 .36.09.5.27.14.18.21.37.21.57 0 .2-.1.36-.29.48-.76.48-1.61.97-2.55 1.49l-1.66.91c-.53.29-.88.45-1.07.5-.11.05-.22.08-.32.08-.18 0-.31-.06-.36-.19-.15-.35-.23-.56-.23-.62 0-.37.22-.6.65-.71 1.6-.78 3.2-1.67 4.79-2.66a.5.5 0 0 1 .33-.12zm88.07 78.24c.6-.06.9-.25.9-.57 0-.24-.14-.41-.41-.5-.33-.11-.74-.22-1.24-.33-.43-.17-.64-.37-.64-.59 0-.62.3-.9.91-.84.13.01.26.02.38.02.41 0 1.06-.2 1.95-.6.1-.04.22-.07.38-.07.19 0 .35.08.49.23.14.16.21.33.21.52 0 .22-.12.39-.36.53-.21.1-.42.19-.63.3.39.34.59.8.61 1.36.01.39-.15.75-.49 1.06-.73.67-1.79 1.01-3.17 1.01-.14 0-.45-.01-.94-.03-2.03 1.68-3.44 2.76-4.24 3.24-1.29.77-2.12 1.14-2.5 1.1-.22-.04-.43-.27-.64-.68-.19-.38-.29-.69-.29-.95 0-.21.06-.37.18-.47.12-.06.25-.1.4-.1.11 0 .27.02.5.05.22.03.39.05.5.05.36 0 .7-.11 1.04-.32 1.53-.99 2.62-1.73 3.27-2.24a.826.826 0 0 1-.11-.38c0-.31.08-.56.23-.75.39-.5.86-.73 1.4-.72.67.03 1.07.27 1.19.74.47-.02.85-.04 1.12-.07zm-1.87-9.98c-.65-.05-1.01-.1-1.09-.15-.29-.18-.44-.41-.44-.69 0-.38.2-.65.6-.82.48-.09.88-.12 1.18-.09.38.04.81.14 1.31.31.35.12.66.34.94.65.22.24.32.53.32.86 0 .47-.24.97-.73 1.5-.38.42-.83.77-1.34 1.06-.8.46-1.49.71-2.05.76a.888.888 0 0 1-.68-.19.782.782 0 0 1-.28-.63c0-.41.2-.65.61-.71.36-.05.69-.15 1-.31.22-.11.52-.28.9-.52.52-.33.77-.58.77-.75.03-.13-.32-.23-1.02-.28zm4.79.03c-.65-.05-1.01-.1-1.09-.15-.29-.18-.44-.41-.44-.69 0-.38.2-.65.6-.82.48-.09.88-.12 1.18-.09.38.04.81.14 1.31.32.35.12.67.34.94.65.22.24.32.53.32.86 0 .47-.24.97-.73 1.5-.38.42-.83.77-1.34 1.06-.8.46-1.49.71-2.05.76a.888.888 0 0 1-.68-.19.782.782 0 0 1-.28-.63c0-.41.2-.65.61-.71.36-.05.69-.15 1-.31.22-.11.52-.28.9-.52.52-.33.77-.58.77-.74.03-.15-.32-.25-1.02-.3zm7.21 16.39c.19 0 .36.09.5.27.14.18.21.37.21.57 0 .1-.1.26-.3.49-.21.17-.72.48-1.53.93l-2.67 1.46c-.52.29-.88.45-1.07.5-.11.05-.22.08-.32.08-.18 0-.31-.06-.36-.19-.15-.35-.23-.56-.23-.62 0-.37.22-.6.65-.71 1.6-.78 3.2-1.67 4.79-2.66.11-.08.22-.12.33-.12zm2.17-10.1c.46 0 .89.13 1.27.38.43.28.65.64.65 1.09 0 .25-.04.48-.13.7-.22.55-.9 1.1-2.03 1.65-1.23.6-2.48.91-3.73.91-.24 0-.48-.01-.71-.04-1.21-.27-1.8-.82-1.78-1.65.02-.71.38-1.38 1.09-2.01.48-.43 1.06-.65 1.74-.65.13 0 .26.01.37.04.23.05.59.2 1.1.44.71-.58 1.43-.86 2.16-.86zm-3.52 1.69c-.1-.02-.24.01-.42.08-.6.23-.93.52-.98.86-.04.26.11.39.45.39.24 0 .49-.12.75-.36.15-.13.23-.22.26-.27.11-.11.17-.27.17-.47l-.07-.2-.16-.03zm1.85.41c-.14.12-.21.29-.21.5 0 .03.01.05.03.06.06.02.13.03.2.03.2 0 .56-.12 1.07-.36.55-.26.82-.53.82-.82 0-.09-.03-.14-.1-.14.1.01 0 .01-.3.01-.2 0-.53.14-1.01.43l-.5.29zm8.84 2.34c-.55.45-1.25.93-2.1 1.44-.96.58-1.59.89-1.89.95-.04.01-.09.01-.14.01-.34 0-.63-.19-.88-.57-.22-.34-.32-.67-.32-.99 0-.3.15-.46.45-.49.02 0 .06 0 .12-.01s.13-.01.21 0c-.03 0 .14.01.51.04.34.03.55.03.61 0 .43-.16.98-.44 1.65-.86.98-.6 1.75-1.2 2.31-1.79a.73.73 0 0 1-.32-.6c-.03-.32.17-.62.57-.92.37-.27.72-.41 1.06-.41.53 0 .82.26.86.78.12.04.43-.1.93-.43.15-.13.41-.32.8-.59.12-.02.22-.03.31-.03.11 0 .2.02.26.05.2.11.34.28.41.49.03.19-.03.4-.15.62-.13.22-.19.35-.18.39.01.08.06.13.15.13.38.03.94-.36 1.71-1.16.32-.25.55-.37.69-.36.2.01.41.19.65.56.11.18.09.41-.08.69-.47.78-1.15 1.35-2.02 1.71-.43.18-.81.27-1.16.29-.69.03-1.08-.24-1.19-.83-.27.01-.77 0-1.49-.01-.22.17-.99.81-2.34 1.9zm15.14-.78c.6-.06.9-.25.9-.57 0-.24-.14-.41-.41-.5-.33-.11-.74-.22-1.24-.33-.43-.17-.64-.37-.64-.59 0-.62.3-.9.91-.84.13.01.26.02.38.02.41 0 1.06-.2 1.95-.6.1-.04.22-.07.38-.07.19 0 .35.08.49.23.14.16.21.33.21.52 0 .22-.12.39-.36.53-.21.1-.42.19-.63.3.39.34.59.8.61 1.36.01.39-.15.75-.49 1.06-.73.67-1.79 1.01-3.17 1.01-.14 0-.45-.01-.94-.03-2.03 1.68-3.44 2.76-4.24 3.24-1.29.77-2.12 1.14-2.5 1.1-.22-.04-.43-.27-.64-.68-.19-.38-.29-.69-.29-.95 0-.21.06-.37.18-.47.12-.06.25-.1.4-.1.11 0 .27.02.5.05.22.03.39.05.5.05.36 0 .7-.11 1.04-.32 1.53-.99 2.62-1.73 3.27-2.24a.826.826 0 0 1-.11-.38c0-.31.08-.56.23-.75.39-.5.86-.73 1.4-.72.67.03 1.07.27 1.19.74.48-.02.86-.04 1.12-.07zm2.09-10.74c.19 0 .36.09.5.27.14.18.21.37.21.57 0 .2-.1.36-.29.48-.76.48-1.61.97-2.55 1.49l-1.66.91c-.53.29-.88.45-1.07.5-.11.05-.22.08-.32.08-.18 0-.31-.06-.36-.19-.15-.35-.23-.56-.23-.62 0-.37.22-.6.65-.71 1.6-.78 3.2-1.67 4.79-2.66.11-.08.22-.12.33-.12zm-73.53 119.31c.6-.06.9-.25.9-.57 0-.24-.14-.41-.41-.5-.33-.11-.74-.22-1.24-.33-.43-.17-.64-.37-.64-.59 0-.62.3-.9.91-.84.13.01.26.02.38.02.41 0 1.06-.2 1.95-.6.1-.04.22-.07.38-.07.19 0 .35.08.49.23.14.16.21.33.21.52 0 .22-.12.39-.36.53-.21.1-.42.19-.63.3.39.34.59.8.61 1.36.01.39-.15.75-.49 1.06-.73.67-1.79 1.01-3.17 1.01-.14 0-.45-.01-.94-.03-2.03 1.68-3.44 2.76-4.24 3.24-1.29.77-2.12 1.14-2.5 1.1-.22-.04-.43-.27-.64-.68-.19-.38-.29-.69-.29-.95 0-.21.06-.37.18-.47.12-.06.25-.1.4-.1.11 0 .27.02.5.05s.39.05.5.05c.36 0 .7-.11 1.04-.32 1.53-.99 2.62-1.73 3.27-2.24a.826.826 0 0 1-.11-.38c0-.31.08-.56.23-.75.39-.5.86-.73 1.4-.72.67.03 1.07.27 1.19.74.47-.02.85-.04 1.12-.07zm-1.87-9.98c-.65-.05-1.01-.1-1.09-.15-.29-.18-.44-.41-.44-.69 0-.38.2-.65.6-.82.48-.09.88-.12 1.18-.09.38.04.81.14 1.31.31.35.12.66.34.94.65.22.24.32.53.32.86 0 .47-.24.97-.73 1.5-.38.42-.83.77-1.34 1.06-.8.46-1.49.71-2.05.76a.888.888 0 0 1-.68-.19.782.782 0 0 1-.28-.63c0-.41.2-.65.61-.71.36-.05.69-.15 1-.31.22-.11.52-.28.9-.52.52-.33.77-.58.77-.75.03-.12-.32-.22-1.02-.28zm4.79.03c-.65-.05-1.01-.1-1.09-.15-.29-.18-.44-.41-.44-.69 0-.38.2-.65.6-.82.48-.09.88-.12 1.18-.09.38.04.81.14 1.31.32.35.12.67.34.94.65.22.24.32.53.32.86 0 .47-.24.97-.73 1.5-.38.42-.83.77-1.34 1.06-.8.46-1.49.71-2.05.76a.888.888 0 0 1-.68-.19.782.782 0 0 1-.28-.63c0-.41.2-.65.61-.71.36-.05.69-.15 1-.31.22-.11.52-.28.9-.52.52-.33.77-.58.77-.74.03-.15-.32-.24-1.02-.3zm7.21 16.39c.19 0 .36.09.5.27.14.18.21.37.21.57 0 .1-.1.26-.3.49-.21.17-.72.48-1.53.93l-2.67 1.46c-.52.29-.88.45-1.07.5-.11.05-.22.08-.32.08-.18 0-.31-.06-.36-.19-.15-.35-.23-.56-.23-.62 0-.37.22-.6.65-.71 1.6-.78 3.2-1.67 4.79-2.66.11-.08.22-.12.33-.12zm1.81-6.78c.29-.58.43-.97.43-1.18 0-.06-.02-.09-.05-.09-.01 0-.03.01-.05.02-.4.28-.86.6-1.37.97-1.03.74-1.73 1.22-2.09 1.42l-1.73.98c-.41.23-.8.41-1.16.53-.06.02-.12.03-.18.03-.2 0-.41-.11-.63-.33-.34-.36-.52-.76-.52-1.2 0-.17.04-.31.12-.43.13-.15.35-.22.68-.22.1 0 .23.01.42.01.18.01.32.01.41.01.2 0 .37-.02.52-.06.06-.03.11-.05.13-.06l.42-.23c.69-.38 1.16-.65 1.4-.81l2.62-1.77c.69-.46 1.12-.72 1.27-.76.22-.06.47-.01.75.15.41.24.62.64.62 1.19 0 .5-.14 1.11-.43 1.83-.42 1.06-.85 1.83-1.3 2.32-.08.09-.2.13-.35.13-.2 0-.4-.08-.61-.23-.24-.17-.35-.34-.35-.53s.06-.34.18-.45c.27-.19.55-.62.85-1.24zm11.3-3.32c.46 0 .89.13 1.27.38.43.28.65.64.65 1.09 0 .25-.04.48-.13.7-.22.55-.9 1.1-2.03 1.65-1.23.6-2.48.91-3.73.91-.24 0-.48-.01-.71-.04-1.21-.27-1.8-.82-1.78-1.65.02-.71.38-1.38 1.09-2.01.48-.43 1.06-.65 1.74-.65.13 0 .26.01.37.04.23.05.59.2 1.1.44.71-.58 1.43-.86 2.16-.86zm-3.52 1.7c-.1-.02-.24.01-.42.08-.6.23-.93.52-.98.86-.04.26.11.39.45.39.24 0 .49-.12.75-.36.15-.13.23-.22.26-.27.11-.11.17-.27.17-.47l-.07-.2-.16-.03zm4.47-8.77c.19 0 .36.09.5.27.14.18.21.37.21.57 0 .2-.1.36-.29.48-.76.48-1.61.97-2.55 1.49l-1.66.91c-.53.29-.88.45-1.07.5-.11.05-.22.08-.32.08-.18 0-.31-.06-.36-.19-.15-.35-.23-.56-.23-.62 0-.37.22-.6.65-.71 1.6-.78 3.2-1.67 4.79-2.66a.5.5 0 0 1 .33-.12zm-2.62 9.18c-.14.12-.21.29-.21.5 0 .03.01.05.03.06.06.02.13.03.2.03.2 0 .56-.12 1.07-.36.55-.26.82-.53.82-.82 0-.09-.03-.14-.1-.14.1.01 0 .01-.3.01-.2 0-.53.14-1.01.43l-.5.29zm12.78-.36c0-.17-.25-.25-.75-.25l-1.37.15c-.07.01-.22.03-.45.09-.18.04-.33.06-.45.06-.16 0-.29-.05-.38-.14-.15-.2-.22-.42-.22-.64 0-.15.03-.3.1-.46.06-.34.7-.56 1.91-.64.31-.02.88.03 1.73.13.93.12 1.48.36 1.66.72.16.33.21.63.15.92-.04.22-.1.39-.16.5-.21.28-.43.52-.65.71-.43.37-.83.67-1.2.92-.85.55-2.04 1.17-3.55 1.86-.78.36-1.56.69-2.33.99-.35.14-.66.12-.93-.07-.41-.45-.62-.88-.62-1.29 0-.37.2-.55.61-.55.1 0 .25.02.46.05.2.03.36.05.46.05.17 0 .32-.02.45-.07.66-.23 1-.36 1.01-.36.66-.26 1.4-.61 2.22-1.06 1.23-.66 1.99-1.15 2.29-1.47.01-.05.01-.1.01-.15zm1.16-10.7c.19 0 .36.09.5.27.14.18.21.37.21.57 0 .12-.1.29-.3.52-.05.1-.64.45-1.77 1.05l-2.43 1.31c-.54.29-.9.46-1.07.5-.11.05-.22.08-.32.08-.18 0-.31-.06-.36-.19-.15-.35-.23-.56-.23-.62 0-.37.22-.6.65-.71 1.6-.78 3.2-1.67 4.79-2.66a.5.5 0 0 1 .33-.12zm1.13 2.01c.19 0 .36.09.5.27.14.18.21.37.21.57 0 .1-.09.25-.26.45-.04.08-.29.24-.73.5l-3.51 1.93c-.53.29-.88.45-1.07.5-.11.05-.22.08-.32.08-.18 0-.31-.06-.36-.19-.15-.35-.23-.56-.23-.62 0-.37.22-.6.65-.71 1.6-.78 3.2-1.67 4.79-2.66.12-.09.23-.12.33-.12zm-116.94 47.43c-.65-.05-1.01-.1-1.09-.15-.29-.18-.44-.41-.44-.69 0-.38.2-.65.6-.82.48-.09.88-.12 1.18-.09.38.04.81.14 1.31.32.35.12.67.34.94.65.22.24.32.53.32.86 0 .47-.24.97-.73 1.5-.38.42-.83.77-1.34 1.06-.8.46-1.49.71-2.05.76a.888.888 0 0 1-.68-.19.782.782 0 0 1-.28-.63c0-.41.2-.65.61-.71.36-.05.69-.15 1-.31.22-.11.52-.28.9-.53.52-.33.77-.58.77-.74.03-.13-.32-.23-1.02-.29zm1.59 8.58c.48.11.75.17.83.2.18.13.29.32.34.59.03.13 0 .27-.08.42-.08.16-.18.26-.29.32l-1.16.55c-.59.3-.75.51-.51.64-.01.01-.01.01-.01.02 0 .06.44.12 1.33.17.43.03.72.04.87.06.29.02.47.04.52.04.11 0 .28.02.52.07.22.08.33.33.33.74 0 .17-.04.31-.12.45-.1.16-.22.23-.37.22l-2.15-.22c-1.4-.14-2.17-.25-2.32-.32-.6-.08-.91-.37-.91-.86 0-.27.11-.49.33-.64l1.98-1.37c-1.15-.23-1.82-.41-2.01-.55-.15-.11-.22-.31-.22-.6 0-.19.05-.32.14-.39.88-.64 1.59-1.16 2.13-1.56.04-.02.09-.03.12-.03.24 0 .45.21.64.62.01.11-.05.31-.2.59-.36.32-.59.52-.71.6.45.12.78.2.98.24zm3.19-8.55c-.65-.05-1.01-.1-1.09-.15-.29-.18-.44-.41-.44-.69 0-.38.2-.65.6-.82.48-.09.88-.12 1.18-.09.38.04.81.14 1.31.31.35.12.66.34.94.65.22.24.32.53.32.86 0 .47-.24.97-.73 1.5-.38.42-.83.77-1.34 1.06-.8.46-1.49.71-2.05.76a.888.888 0 0 1-.68-.19.782.782 0 0 1-.28-.63c0-.41.2-.65.61-.71.36-.05.69-.15 1-.31.22-.11.52-.28.9-.53.52-.33.77-.58.77-.74.03-.13-.32-.22-1.02-.28zm6.01 10.74c-.55.45-1.25.93-2.1 1.44-.96.58-1.59.89-1.89.94-.04.01-.09.01-.14.01-.34 0-.63-.19-.88-.57-.22-.34-.32-.67-.32-.99 0-.3.15-.46.45-.49.02 0 .06 0 .12-.01s.13-.01.21 0c-.03 0 .14.01.51.04.34.03.55.03.61 0 .43-.16.98-.45 1.65-.86.98-.6 1.75-1.2 2.31-1.79a.73.73 0 0 1-.32-.6c-.03-.32.17-.62.57-.92.37-.27.72-.41 1.06-.41.53 0 .82.26.86.78.12.04.43-.1.93-.43.15-.13.41-.32.8-.59.12-.02.22-.03.31-.03.11 0 .2.02.26.05.2.11.34.28.41.49.03.19-.03.4-.15.62-.13.22-.19.35-.18.39.01.08.06.13.15.13.38.03.94-.36 1.71-1.16.32-.25.55-.37.69-.36.2.01.41.19.65.56.11.18.09.41-.08.69-.47.78-1.15 1.35-2.02 1.71-.43.18-.81.27-1.16.29-.69.03-1.08-.24-1.19-.83-.27.01-.77 0-1.49-.01-.23.17-1 .81-2.34 1.91zm4.66-12.27c.74.01 1.29.37 1.64 1.07.06.22.1.46.1.74 0 .6-.15 1.12-.46 1.54-.76 1.04-1.99 1.63-3.69 1.77-.81-.03-1.38-.29-1.7-.77-.18-.38-.27-.73-.27-1.07 0-.57.26-1.13.79-1.7 1-1.08 2.19-1.6 3.59-1.58zm-2.66 3.19c.09.13.27.24.54.31h.31c.12 0 .25 0 .38-.01.74-.31 1.25-.66 1.53-1.07.03-.08.05-.17.05-.25 0-.39-.32-.58-.95-.54-.38.1-.65.19-.8.3-.35.17-.62.35-.81.56-.19.21-.28.39-.28.54 0 .05.01.11.03.16zm14.92 6.38c0-.17-.25-.25-.75-.25l-1.37.15c-.07.01-.22.03-.45.09-.18.04-.33.06-.45.06-.16 0-.29-.05-.38-.14-.15-.2-.22-.42-.22-.64 0-.15.03-.3.1-.46.06-.34.7-.56 1.91-.64.31-.02.88.03 1.73.13.93.12 1.48.36 1.66.72.16.32.21.63.15.92-.04.22-.1.39-.16.5-.21.28-.43.51-.65.71-.43.37-.83.67-1.2.92-.85.55-2.04 1.17-3.55 1.86-.78.36-1.56.69-2.33.99-.35.14-.66.12-.93-.07-.41-.44-.62-.87-.62-1.29 0-.37.2-.55.61-.55.1 0 .25.02.46.05.2.03.36.05.46.05.17 0 .32-.02.45-.07.66-.24 1-.36 1.01-.36.66-.26 1.4-.61 2.22-1.06 1.23-.66 1.99-1.15 2.29-1.47 0-.05.01-.09.01-.15zm-1.15-7.99c-.65-.05-1.01-.1-1.09-.15-.29-.18-.44-.41-.44-.69 0-.38.2-.65.6-.82.48-.09.88-.12 1.18-.09.38.04.81.14 1.31.32.35.12.67.34.94.65.22.24.32.53.32.86 0 .47-.24.97-.73 1.5-.38.42-.83.77-1.34 1.06-.8.46-1.49.71-2.05.76a.888.888 0 0 1-.68-.19.782.782 0 0 1-.28-.63c0-.41.2-.65.61-.71.36-.05.69-.15 1-.31.22-.11.52-.28.9-.53.52-.33.77-.58.77-.74.03-.14-.32-.24-1.02-.29zM774.8 572.6c-.55.45-1.25.93-2.1 1.44-.96.58-1.59.89-1.89.95-.04.01-.09.01-.14.01-.34 0-.63-.19-.88-.57-.22-.34-.32-.67-.32-.99 0-.3.15-.46.45-.49.02 0 .06 0 .12-.01s.13-.01.21 0c-.03 0 .14.01.51.04.34.03.55.03.61 0 .43-.16.98-.44 1.65-.86.98-.6 1.75-1.2 2.31-1.79a.73.73 0 0 1-.32-.6c-.03-.32.17-.62.57-.92.37-.27.72-.41 1.06-.41.53 0 .82.26.86.78.12.04.43-.1.93-.43.15-.13.41-.32.8-.59.12-.02.22-.03.31-.03.11 0 .2.02.26.05.2.11.34.28.41.49.03.19-.03.4-.15.62-.13.22-.19.35-.18.39.01.08.06.13.15.13.38.03.94-.36 1.71-1.16.32-.25.55-.37.69-.36.2.01.41.19.65.56.11.18.09.41-.08.69-.47.78-1.15 1.35-2.02 1.71-.43.18-.81.27-1.16.29-.69.03-1.08-.24-1.19-.83-.27.01-.77 0-1.49-.01-.23.16-1 .8-2.34 1.9zm4.65-12.26c.74.01 1.29.37 1.64 1.07.06.22.1.46.1.75 0 .6-.15 1.12-.46 1.54-.76 1.04-1.99 1.63-3.69 1.77-.81-.03-1.38-.29-1.7-.77-.18-.38-.27-.73-.27-1.07 0-.57.26-1.13.79-1.7 1-1.1 2.2-1.62 3.59-1.59zm-2.65 3.18c.09.13.27.23.54.31h.31c.12 0 .25 0 .38-.01.74-.31 1.25-.66 1.53-1.07.03-.08.05-.17.05-.25 0-.39-.32-.58-.95-.54-.38.09-.65.19-.8.3-.35.17-.62.35-.81.56-.19.21-.28.39-.28.54-.01.06.01.11.03.16zm14.53 4.79c.11-.02.2-.03.26-.03.04-.01.08-.02.12-.02.17 0 .31.09.43.28.1.16.15.33.15.51 0 .23-.1.39-.3.5l-.69.27c-.24.09-.59.22-1.06.39-.25.09-.37.16-.37.21 0 .01 0 .03.01.04l-.03.06c0 .05.15.21.46.48.24.2.38.48.42.84.03.19.02.35-.02.48-.13.43-.41.8-.85 1.11-.39.28-.82.46-1.3.55-.85.17-1.57.26-2.15.28-.95.04-1.5.01-1.62-.09-.29-.12-.43-.48-.43-1.09 0-.31.09-.48.28-.51.07-.01.29.04.65.17.36.12.62.19.77.19.32 0 .61-.02.85-.05.62-.08 1.01-.15 1.15-.21.61-.14.92-.38.92-.72-.08-.13-.33-.32-.76-.58-.35-.21-.52-.48-.52-.81 0-.59.81-1.19 2.44-1.78.57-.23.97-.38 1.19-.47zm.69-7.23c.19 0 .36.09.5.27.14.18.21.37.21.57 0 .2-.1.36-.29.48-.76.48-1.61.97-2.55 1.49l-1.66.91c-.53.29-.88.45-1.07.5-.11.05-.22.08-.32.08-.18 0-.31-.06-.36-.19-.15-.35-.23-.56-.23-.62 0-.37.22-.6.65-.71 1.6-.78 3.2-1.67 4.79-2.66.11-.08.22-.12.33-.12z"/><path d="M676.47 755.35c.99-.09 1.48-.41 1.48-.95 0-.4-.23-.67-.68-.82-.55-.18-1.23-.36-2.05-.55-.71-.28-1.06-.61-1.06-.98 0-1.02.5-1.48 1.5-1.39.22.02.43.03.63.03.68 0 1.76-.33 3.22-1 .16-.07.37-.11.63-.11.32 0 .59.13.81.39.23.26.34.54.34.86 0 .36-.2.65-.6.88-.35.16-.7.32-1.04.49.64.57.98 1.32 1.01 2.24.02.65-.25 1.24-.81 1.75-1.21 1.12-2.96 1.67-5.24 1.67-.23 0-.75-.02-1.56-.05-3.36 2.78-5.7 4.57-7.01 5.35-2.13 1.27-3.51 1.88-4.14 1.82-.36-.07-.71-.45-1.06-1.12-.32-.62-.47-1.14-.47-1.56 0-.35.1-.61.3-.77.2-.11.42-.16.66-.16.18 0 .45.03.82.09.37.06.64.09.82.09.59 0 1.16-.18 1.72-.54 2.53-1.63 4.33-2.87 5.42-3.71-.13-.25-.19-.46-.19-.63 0-.52.13-.93.38-1.25.65-.82 1.43-1.22 2.32-1.18 1.12.04 1.77.45 1.97 1.22.81-.03 1.44-.07 1.88-.11zm-3.08-16.52c-1.07-.08-1.67-.17-1.8-.25-.48-.31-.73-.68-.73-1.14 0-.62.33-1.07 1-1.36.8-.15 1.45-.19 1.96-.14.62.06 1.34.24 2.16.52.58.2 1.1.56 1.56 1.07.36.4.54.87.54 1.42 0 .78-.4 1.61-1.2 2.48-.63.7-1.37 1.28-2.21 1.75-1.33.76-2.46 1.18-3.4 1.26-.44.04-.82-.06-1.12-.32-.31-.25-.46-.6-.46-1.04 0-.68.34-1.07 1.01-1.17.59-.08 1.14-.25 1.66-.51.37-.18.86-.47 1.48-.87.85-.55 1.28-.96 1.28-1.23 0-.21-.57-.38-1.73-.47zm7.91.05c-1.07-.08-1.67-.17-1.8-.25-.48-.31-.73-.68-.73-1.14 0-.62.33-1.07 1-1.36.8-.15 1.45-.19 1.96-.14.62.06 1.34.24 2.16.52.58.2 1.1.56 1.56 1.07.36.4.54.87.54 1.42 0 .78-.4 1.61-1.2 2.48-.63.7-1.37 1.28-2.21 1.75-1.33.76-2.46 1.18-3.4 1.26-.44.04-.82-.06-1.12-.32-.31-.25-.46-.6-.46-1.04 0-.68.34-1.07 1.01-1.17.59-.08 1.14-.25 1.66-.51.37-.18.86-.47 1.48-.87.85-.55 1.28-.96 1.28-1.23.01-.22-.57-.38-1.73-.47zm10.05 17.77c-.92.75-2.07 1.54-3.48 2.39-1.59.96-2.63 1.48-3.13 1.56-.06.01-.14.02-.24.02-.56 0-1.04-.32-1.45-.95-.36-.56-.54-1.11-.54-1.64 0-.49.25-.76.74-.81.03 0 .1-.01.21-.02.11-.01.22-.01.35 0-.04 0 .24.02.84.06.57.04.91.04 1.01 0 .71-.26 1.62-.74 2.73-1.42 1.62-1 2.9-1.99 3.82-2.97-.33-.23-.51-.56-.54-1-.04-.53.27-1.03.95-1.52.61-.45 1.2-.68 1.75-.68.88 0 1.36.43 1.42 1.3.2.07.71-.16 1.53-.71.24-.21.68-.54 1.33-.98.2-.03.37-.05.51-.05.19 0 .33.03.43.08.34.19.56.46.68.81.04.32-.04.66-.25 1.02s-.31.58-.3.64c.01.14.09.21.25.22.62.04 1.56-.6 2.83-1.93.53-.41.91-.61 1.14-.6.33.01.68.32 1.07.93.19.31.15.68-.13 1.14-.78 1.28-1.9 2.23-3.35 2.83-.71.29-1.35.45-1.93.47-1.14.05-1.8-.41-1.97-1.37-.45.01-1.27.01-2.46-.02-.32.32-1.59 1.39-3.82 3.2zm7.03-19.07c.32 0 .59.15.82.45.23.3.35.61.35.94 0 .33-.16.59-.47.79-1.25.79-2.66 1.61-4.22 2.46l-2.75 1.5c-.87.47-1.46.75-1.77.82-.18.08-.36.13-.54.13-.31 0-.51-.11-.6-.32-.25-.58-.38-.92-.38-1.03 0-.61.36-1 1.07-1.17 2.65-1.3 5.3-2.76 7.93-4.41.2-.1.38-.16.56-.16zm12.48 18.58c0-.62.41-1.06 1.23-1.33.73-.23 1.48-.53 2.26-.88-.47-.22-.85-.42-1.14-.58-.62-.38-.96-.68-1.03-.9-.09-.32-.09-.61.02-.87.12-.31.34-.47.66-.51 1.26-.12 2.36-.51 3.29-1.18.46-.34.88-.51 1.26-.51.08 0 .15.02.21.05.32.2.53.46.63.77.03.09.05.36.05.79-.01 0-.05.05-.11.16-.13.21-.31.38-.54.51-.22.19-.38.32-.49.38-.38.23-.59.36-.65.39-.28.16-.43.27-.43.35.01.03.1.07.27.11.91.25 1.36.65 1.36 1.18 0 .09-.06.26-.19.51-.24.26-.44.45-.58.55-.68.51-1.21.85-1.56 1.04-.34.25-.51.34-.51.27.01.05.17.23.47.54.17.25.27.42.32.49.01.07.02.14.02.21 0 .44-.43.93-1.3 1.45-6.77 4.11-10.64 6.2-11.61 6.29-.41.03-.82-.27-1.23-.9-.37-.55-.57-1.05-.62-1.52-.07-.73.24-1.09.93-1.09.2 0 .42.02.66.05.08.01.45.02 1.09.02.34 0 .68-.05 1.03-.16 1.33-.58 2.38-1.08 3.16-1.52 1.88-1.05 3.38-1.94 4.47-2.65-.93-.6-1.4-1.1-1.4-1.51zm11.74-19.62c.83.15 1.25.56 1.26 1.23.01.72-.97 1.37-2.94 1.97-.95.28-1.61.79-1.99 1.52.23.28.65.48 1.26.58.57.04 1.3.15 2.2.32.48.21.67.65.55 1.31-.16.86-.77 1.3-1.83 1.3-.83 0-1.86-.23-3.1-.7-.93-.35-1.53-.9-1.8-1.64-1.27 1.1-3.14 1.79-5.61 2.09-.45.05-.89-.01-1.31-.17-.53-.21-.79-.53-.79-.95 0-.77.36-1.24 1.09-1.42.52 0 1.21-.09 2.09-.27 1.23-.25 2.1-.65 2.59-1.2-.09-.4-.6-.73-1.52-1-.22-.04-.81-.12-1.77-.22-.54-.17-.81-.49-.81-.98 0-.07.02-.19.05-.36.18-.95.82-1.38 1.91-1.31.63.04 1.25.15 1.86.32 1.23.34 2.21 1.1 2.92 2.29.71-.83 1.36-1.42 1.97-1.75.67-.37 1.73-.69 3.16-.96.17-.05.34-.04.56 0z" fill="#bd0e72"/><path d="M461.26 832.64c.6-.06.9-.25.9-.57 0-.24-.14-.41-.41-.5-.33-.11-.74-.22-1.24-.33-.43-.17-.64-.37-.64-.59 0-.62.3-.9.91-.84.13.01.26.02.38.02.41 0 1.06-.2 1.95-.6.1-.04.22-.07.38-.07.19 0 .35.08.49.23.14.16.21.33.21.52 0 .22-.12.39-.36.53-.21.1-.42.19-.63.3.39.34.59.8.61 1.35.01.39-.15.75-.49 1.06-.73.67-1.79 1.01-3.17 1.01-.14 0-.46-.01-.94-.03-2.03 1.68-3.44 2.76-4.24 3.23-1.29.77-2.12 1.14-2.5 1.1-.22-.04-.43-.27-.64-.68-.19-.38-.29-.69-.29-.94 0-.21.06-.37.18-.47.12-.06.25-.1.4-.1.11 0 .27.02.5.05.22.03.39.05.5.05.36 0 .7-.11 1.04-.33 1.53-.99 2.62-1.73 3.27-2.24a.826.826 0 0 1-.11-.38c0-.31.08-.56.23-.75.39-.5.86-.74 1.4-.72.67.03 1.07.27 1.19.73.48.01.85-.01 1.12-.04zm-1.86-9.98c-.65-.05-1.01-.1-1.09-.15-.29-.18-.44-.41-.44-.69 0-.38.2-.65.6-.82.48-.09.88-.12 1.18-.09.38.04.81.14 1.31.32.35.12.67.34.94.65.22.24.32.53.32.86 0 .47-.24.97-.73 1.5-.38.42-.83.77-1.34 1.06-.8.46-1.49.71-2.05.76a.888.888 0 0 1-.68-.19.782.782 0 0 1-.28-.63c0-.41.2-.65.61-.71.36-.05.69-.15 1-.31.22-.11.52-.28.9-.53.52-.33.77-.58.77-.74.03-.14-.32-.24-1.02-.29zm4.78.03c-.65-.05-1.01-.1-1.09-.15-.29-.18-.44-.41-.44-.69 0-.38.2-.65.6-.82.48-.09.88-.12 1.18-.09.38.04.81.14 1.31.31.35.12.66.34.94.65.22.24.32.53.32.86 0 .47-.24.97-.73 1.5-.38.42-.83.77-1.34 1.06-.8.46-1.49.71-2.05.76a.888.888 0 0 1-.68-.19.782.782 0 0 1-.28-.63c0-.41.2-.65.61-.71.36-.05.69-.15 1-.31.22-.11.52-.28.9-.53.52-.33.77-.58.77-.74.03-.13-.32-.23-1.02-.28zm9.19 6.3c.3.01.56.1.78.26.46.33.77.77.94 1.31.03.2.04.31.04.32-.02.71-.28 1.32-.77 1.83-.58.45-1.32.66-2.23.63-.8-.03-1.51-.38-2.15-1.07-.44.16-.87.35-1.29.56-.03.01-.04.03-.04.07 0 .01.14.2.41.59s.41.64.4.78c-.02.5-.34.93-.95 1.29-.41.24-1.09.46-2.02.67-.27.06-.64.12-1.11.16-.18.02-.36-.11-.53-.37-.15-.22-.23-.44-.26-.65-.06-.48.07-.73.39-.73.13 0 .35.04.64.13.29.09.51.13.66.13.05 0 .17-.01.36-.03.03-.01.09-.03.2-.05.12-.04.26-.1.43-.16.32-.13.49-.26.49-.39 0-.04-.17-.26-.5-.65-.31-.36-.46-.62-.46-.78 0-.12.04-.25.13-.38.05-.15.26-.35.63-.6a30.94 30.94 0 0 1 4.88-2.64c.35-.16.66-.23.93-.23zm1.14-7.09c.19 0 .36.09.5.27.14.18.21.37.21.57 0 .2-.1.36-.29.48-.76.48-1.61.97-2.55 1.49l-1.66.91c-.53.29-.88.45-1.07.5-.11.05-.22.08-.32.08-.18 0-.31-.06-.36-.19-.15-.35-.23-.56-.23-.62 0-.37.22-.6.65-.71 1.6-.78 3.2-1.67 4.79-2.66.11-.08.22-.12.33-.12zm-2.77 9.61c.01.06.14.13.37.21.18.05.4.07.64.07.24-.01.45-.06.62-.18.18-.11.27-.25.29-.41.01-.36-.16-.54-.51-.53-.16.01-.42.09-.77.24-.42.25-.64.44-.64.6zm10.47 7.57c.19 0 .36.09.5.27.14.18.21.37.21.57 0 .1-.1.26-.3.49-.21.17-.72.48-1.53.93l-2.67 1.46c-.52.29-.88.45-1.07.5-.11.05-.22.08-.32.08-.18 0-.31-.06-.36-.19-.15-.35-.23-.56-.23-.62 0-.37.22-.6.65-.71 1.6-.78 3.2-1.67 4.79-2.66.11-.08.23-.12.33-.12zm3.28-9.7c.2 0 .37.11.51.33.09.14.14.25.14.34.03.32-.25.65-.83 1l-3.35 2.04c-1.3.8-2.45 1.39-3.44 1.77-.27.11-.44.16-.51.16-.63.07-1.02-.28-1.18-1.06-.02-.1-.03-.18-.03-.27 0-.31.16-.47.49-.47.1 0 .26.01.47.04.21.03.37.04.47.04.29 0 .53-.06.74-.17.22-.03 1.14-.53 2.78-1.51 1.35-.81 2.32-1.42 2.91-1.84.39-.26.67-.4.83-.4zm-181.48-44.45c.6-.06.9-.25.9-.57 0-.24-.14-.41-.41-.5-.33-.11-.74-.22-1.24-.33-.43-.17-.64-.37-.64-.59 0-.62.3-.9.91-.84.13.01.26.02.38.02.41 0 1.06-.2 1.95-.6.1-.04.22-.07.38-.07.19 0 .35.08.49.23.14.16.21.33.21.52 0 .22-.12.39-.36.53-.21.1-.42.19-.63.3.39.34.59.8.61 1.36.01.39-.15.75-.49 1.06-.73.67-1.79 1.01-3.17 1.01-.14 0-.45-.01-.94-.03-2.03 1.68-3.44 2.76-4.24 3.24-1.29.77-2.12 1.14-2.5 1.1-.22-.04-.43-.27-.64-.68-.19-.38-.29-.69-.29-.95 0-.21.06-.37.18-.47.12-.06.25-.1.4-.1.11 0 .27.02.5.05.22.03.39.05.5.05.36 0 .7-.11 1.04-.32 1.53-.99 2.62-1.73 3.27-2.24a.826.826 0 0 1-.11-.38c0-.31.08-.56.23-.75.39-.5.86-.73 1.4-.72.67.03 1.07.27 1.19.74.48-.02.86-.04 1.12-.07zm-1.86-9.98c-.65-.05-1.01-.1-1.09-.15-.29-.18-.44-.41-.44-.69 0-.38.2-.65.6-.82.48-.09.88-.12 1.18-.09.38.04.81.14 1.31.31.35.12.66.34.94.65.22.24.32.53.32.86 0 .47-.24.97-.73 1.5-.38.42-.83.77-1.34 1.06-.8.46-1.49.71-2.05.76a.888.888 0 0 1-.68-.19.782.782 0 0 1-.28-.63c0-.41.2-.65.61-.71.36-.05.69-.15 1-.31.22-.11.52-.28.9-.52.52-.33.77-.58.77-.75.03-.12-.32-.22-1.02-.28zm4.78.03c-.65-.05-1.01-.1-1.09-.15-.29-.18-.44-.41-.44-.69 0-.38.2-.65.6-.82.48-.09.88-.12 1.18-.09.38.04.81.14 1.31.32.35.12.67.34.94.65.22.24.32.53.32.86 0 .47-.24.97-.73 1.5-.38.42-.83.77-1.34 1.06-.8.46-1.49.71-2.05.76a.888.888 0 0 1-.68-.19.782.782 0 0 1-.28-.63c0-.41.2-.65.61-.71.36-.05.69-.15 1-.31.22-.11.52-.28.9-.52.52-.33.77-.58.77-.74.03-.15-.32-.24-1.02-.3zm6.09 10.73c-.55.45-1.25.93-2.1 1.44-.96.58-1.59.89-1.89.95-.04.01-.09.01-.14.01-.34 0-.63-.19-.88-.57-.22-.34-.32-.67-.32-.99 0-.3.15-.46.45-.49.02 0 .06 0 .12-.01s.13-.01.21 0c-.03 0 .14.01.51.04.34.03.55.03.61 0 .43-.16.98-.44 1.65-.86.98-.6 1.75-1.2 2.31-1.79a.73.73 0 0 1-.32-.6c-.03-.32.17-.62.57-.92.37-.27.72-.41 1.06-.41.53 0 .82.26.86.78.12.04.43-.1.93-.43.15-.13.41-.32.8-.59.12-.02.22-.03.31-.03.11 0 .2.02.26.05.2.11.34.28.41.49.03.19-.03.4-.15.62-.13.22-.19.35-.18.39.01.08.06.13.15.13.38.03.94-.36 1.71-1.16.32-.25.55-.37.69-.36.2.01.41.19.65.56.11.18.09.41-.08.69-.47.78-1.15 1.35-2.02 1.71-.43.18-.81.27-1.16.29-.69.03-1.08-.24-1.19-.83-.27.01-.77 0-1.49-.01-.23.17-1 .81-2.34 1.9zm4.66-12.26c.74.01 1.29.37 1.64 1.07.06.22.1.46.1.75 0 .6-.15 1.12-.46 1.54-.76 1.04-1.99 1.63-3.69 1.77-.81-.03-1.38-.29-1.7-.77-.18-.38-.27-.73-.27-1.07 0-.57.26-1.13.79-1.7 1-1.09 2.19-1.61 3.59-1.59zm-2.66 3.19c.09.13.27.23.54.31h.31c.12 0 .25 0 .38-.01.74-.31 1.25-.66 1.53-1.07.03-.08.05-.17.05-.25 0-.39-.32-.58-.95-.54-.38.09-.65.19-.8.3-.35.17-.62.35-.81.56-.19.21-.28.39-.28.54 0 .05.01.11.03.16zm14.92 6.38c0-.17-.25-.25-.75-.25l-1.37.15c-.07.01-.22.03-.45.09-.18.04-.33.06-.45.06-.16 0-.29-.05-.38-.14-.15-.2-.22-.42-.22-.64 0-.15.03-.3.1-.46.06-.34.7-.56 1.91-.64.31-.02.88.03 1.73.13.93.12 1.48.36 1.66.72.16.33.21.63.15.92-.04.22-.1.39-.16.5-.21.28-.43.52-.65.71-.43.37-.83.67-1.2.92-.85.55-2.04 1.17-3.55 1.86-.78.36-1.56.69-2.33.99-.35.14-.66.12-.93-.07-.41-.45-.62-.88-.62-1.29 0-.37.2-.55.61-.55.1 0 .25.02.46.05.2.03.36.05.46.05.17 0 .32-.02.45-.07.66-.23 1-.36 1.01-.36.66-.26 1.4-.61 2.22-1.06 1.23-.66 1.99-1.15 2.29-1.47 0-.05.01-.1.01-.15zm-1.09-7.39c-.48.44-.72.79-.72 1.04 0 .03.01.06.04.08-.03.06.08.09.33.1.54.03.92 0 1.14-.1.13-.03.25-.04.36-.04.66 0 .98.26.98.77 0 .47-.21.73-.63.78-.27.07-.68.11-1.21.11-1.82 0-2.73-.55-2.73-1.64 0-.15.02-.27.06-.35.21-.7.66-1.34 1.35-1.93.34-.29.56-.49.68-.6.18-.17.45-.32.79-.46.11-.04.19-.06.25-.04.54.17.81.49.81.95 0 .23-.18.44-.52.62-.5.33-.83.57-.98.71zm12.24 7.39c0-.17-.25-.25-.75-.25l-1.37.15c-.07.01-.22.03-.45.09-.18.04-.33.06-.45.06-.16 0-.29-.05-.38-.14-.15-.2-.22-.42-.22-.64 0-.15.03-.3.1-.46.06-.34.7-.56 1.91-.64.31-.02.88.03 1.73.13.93.12 1.48.36 1.66.72.16.33.21.63.15.92-.05.22-.1.39-.16.5-.21.28-.43.52-.65.71-.43.37-.83.67-1.2.92-.85.55-2.04 1.17-3.55 1.86-.78.36-1.56.69-2.33.99-.35.14-.66.12-.93-.07-.41-.45-.62-.88-.62-1.29 0-.37.2-.55.61-.55.1 0 .25.02.46.05.2.03.36.05.46.05.17 0 .32-.02.45-.07.66-.23 1-.36 1.01-.36.66-.26 1.4-.61 2.22-1.06 1.23-.66 1.99-1.15 2.29-1.47 0-.05.01-.1.01-.15zm1.16-10.7c.19 0 .36.09.5.27.14.18.21.37.21.57 0 .12-.1.29-.3.52-.05.1-.64.45-1.77 1.05l-2.43 1.31c-.54.29-.9.46-1.07.5-.11.05-.22.08-.32.08-.18 0-.31-.06-.36-.19-.15-.35-.23-.56-.23-.62 0-.37.22-.6.65-.71 1.6-.78 3.2-1.67 4.79-2.66a.5.5 0 0 1 .33-.12zm1.13 2.01c.19 0 .36.09.5.27.14.18.21.37.21.57 0 .1-.09.25-.26.45-.04.08-.29.24-.73.5l-3.51 1.93c-.53.29-.88.45-1.07.5-.11.05-.22.08-.32.08-.18 0-.31-.06-.36-.19-.15-.35-.23-.56-.23-.62 0-.37.22-.6.65-.71 1.6-.78 3.2-1.67 4.79-2.66a.5.5 0 0 1 .33-.12zm-42.71 109.7c.6-.06.9-.25.9-.57 0-.24-.14-.41-.41-.5-.33-.11-.74-.22-1.24-.33-.43-.17-.64-.37-.64-.59 0-.62.3-.9.91-.84.13.01.26.02.38.02.41 0 1.06-.2 1.95-.6.1-.04.22-.07.38-.07.19 0 .35.08.49.23.14.16.21.33.21.52 0 .22-.12.39-.36.53-.21.1-.42.19-.63.3.39.34.59.8.61 1.36.01.39-.15.75-.49 1.06-.73.67-1.79 1.01-3.17 1.01-.14 0-.45-.01-.94-.03-2.03 1.68-3.44 2.76-4.24 3.24-1.29.77-2.12 1.14-2.5 1.1-.22-.04-.43-.27-.64-.68-.19-.38-.29-.69-.29-.95 0-.21.06-.37.18-.47.12-.06.25-.1.4-.1.11 0 .27.02.5.05.22.03.39.05.5.05.36 0 .7-.11 1.04-.32 1.53-.99 2.62-1.73 3.27-2.24a.826.826 0 0 1-.11-.38c0-.31.08-.56.23-.75.39-.5.86-.73 1.4-.72.67.03 1.07.27 1.19.74.48-.02.85-.04 1.12-.07zm-1.86-9.98c-.65-.05-1.01-.1-1.09-.15-.29-.18-.44-.41-.44-.69 0-.38.2-.65.6-.82.48-.09.88-.12 1.18-.09.38.04.81.14 1.31.31.35.12.66.34.94.65.22.24.32.53.32.86 0 .47-.24.97-.73 1.5-.38.42-.83.77-1.34 1.06-.8.46-1.49.71-2.05.76a.888.888 0 0 1-.68-.19.782.782 0 0 1-.28-.63c0-.41.2-.65.61-.71.36-.05.69-.15 1-.31.22-.11.52-.28.9-.52.52-.33.77-.58.77-.75.03-.13-.32-.23-1.02-.28zm4.78.03c-.65-.05-1.01-.1-1.09-.15-.29-.18-.44-.41-.44-.69 0-.38.2-.65.6-.82.48-.09.88-.12 1.18-.09.38.04.81.14 1.31.32.35.12.67.34.94.65.22.24.32.53.32.86 0 .47-.24.97-.73 1.5-.38.42-.83.77-1.34 1.06-.8.46-1.49.71-2.05.76-.27.03-.49-.04-.68-.19s-.28-.36-.28-.63c0-.41.2-.65.61-.71.36-.05.69-.15 1-.31.22-.11.52-.28.9-.52.52-.33.77-.58.77-.74.03-.15-.32-.25-1.02-.3zm6.09 10.73c-.55.45-1.25.93-2.1 1.44-.96.58-1.59.89-1.89.95-.04.01-.09.01-.14.01-.34 0-.63-.19-.88-.57-.22-.34-.32-.67-.32-.99 0-.3.15-.46.45-.49.02 0 .06 0 .12-.01s.13-.01.21 0c-.03 0 .14.01.51.04.34.03.55.03.61 0 .43-.16.98-.44 1.65-.86.98-.6 1.75-1.2 2.31-1.79a.73.73 0 0 1-.32-.6c-.03-.32.17-.62.57-.92.37-.27.72-.41 1.06-.41.53 0 .82.26.86.78.12.04.43-.1.93-.43.15-.13.41-.32.8-.59.12-.02.22-.03.31-.03.11 0 .2.02.26.05.2.11.34.28.41.49.03.19-.03.4-.15.62-.13.22-.19.35-.18.39.01.08.06.13.15.13.38.03.94-.36 1.71-1.16.32-.25.55-.37.69-.36.2.01.41.19.65.56.11.18.09.41-.08.69-.47.78-1.15 1.35-2.02 1.71-.43.18-.81.27-1.16.29-.69.03-1.08-.24-1.19-.83-.27.01-.77 0-1.49-.01-.23.17-1 .81-2.34 1.9zm4.65-12.26c.74.01 1.29.37 1.64 1.07.06.22.1.46.1.75 0 .6-.15 1.12-.46 1.54-.76 1.04-1.99 1.63-3.69 1.77-.81-.03-1.38-.29-1.7-.77-.18-.38-.27-.73-.27-1.07 0-.57.26-1.13.79-1.7 1-1.09 2.2-1.62 3.59-1.59zm-2.65 3.19c.09.13.27.23.54.31h.31c.12 0 .25 0 .38-.01.74-.31 1.25-.66 1.53-1.07.03-.08.05-.17.05-.25 0-.39-.32-.58-.95-.54-.38.09-.65.19-.8.3-.35.17-.62.35-.81.56-.19.21-.28.39-.28.54-.01.05.01.11.03.16zm15.37 5.04c.2 0 .37.11.51.33.09.14.14.25.14.34.03.32-.25.65-.83 1l-3.35 2.04c-1.3.8-2.45 1.39-3.44 1.78-.27.11-.44.16-.51.16-.63.07-1.02-.28-1.18-1.06-.02-.09-.03-.18-.03-.27 0-.31.16-.47.49-.47.1 0 .26.01.47.04.21.03.37.04.47.04.29 0 .53-.06.74-.17.22-.03 1.14-.53 2.78-1.51 1.35-.81 2.32-1.42 2.91-1.84.39-.27.67-.41.83-.41zm-.15-7.49c.19 0 .36.09.5.27.14.18.21.37.21.57 0 .2-.1.36-.29.48-.76.48-1.61.97-2.55 1.49l-1.66.91c-.53.29-.88.45-1.07.5-.11.05-.22.08-.32.08-.18 0-.31-.06-.36-.19-.15-.35-.23-.56-.23-.62 0-.37.22-.6.65-.71 1.6-.78 3.2-1.67 4.79-2.66.11-.08.22-.12.33-.12zm6.36 11.52c-.55.45-1.25.93-2.1 1.44-.96.58-1.59.89-1.89.95-.04.01-.09.01-.14.01-.34 0-.63-.19-.88-.57-.22-.34-.32-.67-.32-.99 0-.3.15-.46.45-.49.02 0 .06 0 .12-.01s.13-.01.21 0c-.03 0 .14.01.51.04.34.03.55.03.61 0 .43-.16.98-.44 1.65-.86.98-.6 1.75-1.2 2.31-1.79a.73.73 0 0 1-.32-.6c-.03-.32.17-.62.57-.92.37-.27.72-.41 1.06-.41.53 0 .82.26.86.78.12.04.43-.1.93-.43.15-.13.41-.32.8-.59.12-.02.22-.03.31-.03.11 0 .2.02.26.05.2.11.34.28.41.49.03.19-.03.4-.15.62-.13.22-.19.35-.18.39.01.08.06.13.15.13.38.03.94-.36 1.71-1.16.32-.25.55-.37.69-.36.2.01.41.19.65.56.11.18.09.41-.08.69-.47.78-1.15 1.35-2.02 1.71-.43.18-.81.27-1.16.29-.69.03-1.08-.24-1.19-.83-.27.01-.77 0-1.49-.01-.23.17-1 .81-2.34 1.9zm4.25-11.52c.19 0 .36.09.5.27.14.18.21.37.21.57 0 .2-.1.36-.29.48-.76.48-1.61.97-2.55 1.49l-1.66.91c-.53.29-.88.45-1.07.5-.11.05-.22.08-.32.08-.18 0-.31-.06-.36-.19-.15-.35-.23-.56-.23-.62 0-.37.22-.6.65-.71 1.6-.78 3.2-1.67 4.79-2.66.11-.08.22-.12.33-.12zm12.71 7.43c.18-.08.31-.14.37-.16.15-.06.33.04.52.31.13.18.2.35.21.53.01.14-.12.32-.37.53-.73.62-1.77 1.3-3.12 2.06-1.9 1.06-3.13 1.61-3.71 1.64-.22.01-.43-.07-.63-.24s-.3-.37-.3-.6c0-.12.23-.43.69-.93.34-.56.54-1.04.6-1.43l-.06-1.03c-.03-.48.09-.78.35-.88.23-.09.42-.12.57-.1.39.06.61.38.66.95.03.36.05.57.05.65 0 .59-.14 1.08-.41 1.5.56-.19 2.08-1.13 4.58-2.8zm-1.19-6.6c-.65-.05-1.01-.1-1.09-.15-.29-.18-.44-.41-.44-.69 0-.38.2-.65.6-.82.48-.09.88-.12 1.18-.09.38.04.81.14 1.31.31.35.12.66.34.94.65.22.24.32.53.32.86 0 .47-.24.97-.73 1.5-.38.42-.83.77-1.34 1.06-.8.46-1.49.71-2.05.76a.888.888 0 0 1-.68-.19.782.782 0 0 1-.28-.63c0-.41.2-.65.61-.71.36-.05.69-.15 1-.31.22-.11.52-.28.9-.52.52-.33.77-.58.77-.75.03-.12-.32-.22-1.02-.28z"/><path d="M56.81 666.24c.93-.03 1.66-.28 2.21-.74.33-.43.72-.65 1.17-.65.33 0 .62.14.89.41s.4.57.4.9c0 .23-.06.47-.19.71-.59.76-1.33 1.26-2.21 1.5-.61.17-1.52.25-2.73.25-.4 0-.94-.04-1.61-.11-.77.77-2.09 1.85-3.96 3.25-1.5 1.12-3.32 2.13-5.48 3.05-.41.11-.71.14-.88.09-.47-.11-.94-.64-1.39-1.6-.07-.16-.12-.38-.13-.68-.01-.31.04-.49.16-.57.23-.14.61-.2 1.12-.19.84.02 1.4-.02 1.67-.13 1-.38 2.11-.96 3.33-1.74 1.22-.78 2.2-1.54 2.95-2.29-.29-.2-.44-.5-.44-.9 0-.65.38-1.16 1.15-1.53.44-.21.84-.29 1.18-.24.29.11.51.2.63.28.28.19.48.46.6.81.73.1 1.25.13 1.56.12zm1.73-15.27c1.22.02 2.13.61 2.72 1.77.11.36.16.77.16 1.23 0 1-.25 1.85-.76 2.54-1.25 1.72-3.29 2.69-6.11 2.92-1.35-.05-2.29-.48-2.81-1.28-.29-.62-.44-1.21-.44-1.77 0-.94.44-1.87 1.31-2.81 1.65-1.78 3.63-2.65 5.93-2.6zm-4.39 5.27c.15.22.45.39.9.51h.51c.2 0 .41-.01.63-.02 1.23-.51 2.07-1.1 2.53-1.77.05-.14.08-.27.08-.41 0-.65-.53-.95-1.58-.9-.63.16-1.07.32-1.33.49-.58.27-1.02.58-1.33.93s-.47.65-.47.9c0 .1.02.19.06.27zm13.15 11.85c.03-.55.37-1.23 1.01-2.05 1.11-1.42 2.75-2.13 4.94-2.13.52 0 1.11.12 1.78.36 1.33.47 1.94 1.18 1.83 2.12-.09.81-.79 1.78-2.09 2.92-.98.85-2 1.63-3.06 2.32-4.38 2.85-7.35 4.43-8.91 4.74-.05.01-.12.02-.21.02-.4 0-.74-.28-1.03-.84-.25-.37-.4-.79-.44-1.26-.05-.62.2-.93.76-.93.18 0 .4.03.66.08.77.16 1.5.05 2.18-.32 1.74-.94 3.29-1.83 4.64-2.67-1.44-.43-2.13-1.21-2.06-2.36zm8.45-15.89c.32 0 .59.15.82.45s.35.61.35.94c0 .33-.16.59-.47.79-1.25.79-2.66 1.61-4.22 2.46l-2.75 1.5c-.87.47-1.46.75-1.77.82-.18.08-.36.13-.54.13-.31 0-.51-.11-.6-.32-.25-.58-.38-.92-.38-1.03 0-.61.36-1 1.07-1.17 2.65-1.3 5.3-2.76 7.93-4.41.2-.1.38-.16.56-.16zm-2.98 13.99c-.65.08-1.11.2-1.36.35-.82.47-1.2.92-1.14 1.34 0 .21.14.4.41.57.32.11.76.07 1.33-.09 1.05-.32 1.58-.84 1.58-1.58 0-.39-.27-.59-.82-.59zm20.59.62c0-.27-.42-.41-1.25-.41l-2.27.25c-.12.01-.36.06-.74.14-.31.06-.55.09-.74.09-.26 0-.47-.08-.63-.24-.24-.34-.36-.69-.36-1.06 0-.24.05-.49.16-.76.11-.57 1.16-.92 3.16-1.06.51-.03 1.46.04 2.86.22 1.54.2 2.45.59 2.75 1.18.26.54.35 1.04.25 1.52-.07.37-.16.64-.27.82-.35.46-.71.85-1.07 1.17-.71.61-1.37 1.12-1.99 1.52-1.41.92-3.37 1.94-5.88 3.08-1.3.59-2.58 1.14-3.85 1.64-.58.23-1.09.19-1.53-.11-.68-.74-1.03-1.45-1.03-2.13 0-.61.34-.92 1.01-.92.17 0 .42.03.76.08s.59.08.76.08c.28 0 .53-.04.74-.11 1.1-.39 1.65-.59 1.67-.6 1.1-.43 2.32-1.02 3.68-1.75 2.03-1.1 3.3-1.91 3.79-2.43.01-.05.02-.13.02-.21zm1.91-17.72c.32 0 .59.15.82.45s.35.61.35.94c0 .2-.16.48-.49.85-.08.16-1.06.74-2.92 1.74L89 655.23c-.9.48-1.48.76-1.77.82-.18.08-.36.13-.54.13-.31 0-.51-.11-.6-.32-.25-.58-.38-.92-.38-1.03 0-.61.36-1 1.07-1.17 2.65-1.3 5.3-2.76 7.93-4.41.2-.11.39-.16.56-.16zm1.88 3.33c.32 0 .59.15.82.45s.35.61.35.94c0 .17-.14.42-.43.74-.07.13-.47.4-1.2.82l-5.81 3.19c-.87.47-1.46.75-1.77.82-.18.08-.36.13-.54.13-.31 0-.51-.11-.6-.32-.25-.58-.38-.92-.38-1.03 0-.61.36-1 1.07-1.17 2.65-1.3 5.3-2.76 7.93-4.41.2-.1.39-.16.56-.16z" fill="#bd0e72"/></svg>