<svg xmlns="http://www.w3.org/2000/svg" xml:space="preserve" x="0" y="0" version="1.1" viewBox="0 0 1000 1000"><path d="M443.63 42.55c6.82-.89 13.25-.12 11.58 8.76.86 9.43-10.25 15.01-21.63 20.74-2.11.76-4.19 1.5-6.29 2.31-.29 1-.82 2.07-1.87 3.17-13.27 3.76-24.23 7.96-35.28 14.59a69.13 69.13 0 0 0-4.98 4.04c-8.88 16.08-.59 18.74 2.25 25.64 4.25 5.03 2.97 6.9-3.84 5.62-8.23-.17-16.42-2.7-24.62-5.74.09-.01.2-.05.31-.09-9.19.91-16.17-5.36-12.56-16.84 3.89-13.19 15.3-21.34 30.12-27.24 12.6-8.79 25.25-17.49 37.85-23.23 9.66-4.4 19.29-8.56 28.96-11.73m2.43 41.56c2.63 0 4.72 1.87 4.72 4.16 0 2.27-2.09 4.15-4.72 4.15-2.61 0-4.73-1.87-4.73-4.15-.01-2.29 2.12-4.16 4.73-4.16m-25.65 35.56c3.14 0 5.71 2.26 5.71 5.02 0 2.77-2.57 5-5.71 5-3.18 0-5.74-2.23-5.74-5 0-2.76 2.55-5.02 5.74-5.02m15.62-26.09c2.94 0 5.3 3.84 5.3 8.6 0 4.71-2.35 8.6-5.3 8.6-2.93 0-5.3-3.89-5.3-8.6 0-4.76 2.37-8.6 5.3-8.6m-77.55 34.68c2.82 0 8.81 2.11 12.57 2.6 7.98.99 6.13 7.18 6.35 9.88.33 4.56-3.06 8.1-11.48 4.43-8.43-3.65-18.34-9.04-18.34-12.73.01-3.74 3.95-4.18 10.9-4.18m-3.81 20.62c-4.79-8.29-12.84-6.86-19.43-5.99-6.66 4.72-8.79 9.86-8.85 15.17-3.3 6.25-.83 10 4.27 12.64 12.61 2.46 20.02 8.31 25.99 14.36 3.83 2.14 7.5 2.06 4.72-6.63-2.38-10.19-3.78-19.94-6.7-29.55m-5.42 36.39c3.58 1.06 5.46 2.64 3.82 5.34-1.69 2.73-3.92.79-7.03-.94-3.06-1.75-5.12-3.77-4.23-5.36.89-1.57 3.92-.11 7.44.96m-26.8 32.26c2.59-.21 6 2.35 4.49 5.48-1.51 3.14.36 5.68-1.36 5.68-1.74 0-6.75-2.93-6.75-5.68 0-2.76.96-5.24 3.62-5.48m-20.12-1.87c2.13 0 4.77 4.03 5.68 8.49.92 4.49-.83 7.92-3.89 7.6-3.01-.31-4.76-3.41-4.76-7.6 0-4.19.85-8.49 2.97-8.49m-18.4-14.59c11.29-2.71 12.46 7.62 8.44 19.07-.75 2.25 2.27 2.53 3.32 4.6 6.85 13.6-9.28 20.08-14.9 20.65-5.54.59-5.16-12.6-7.74-23.53-2.59-10.93-.41-18.04 10.88-20.79m39.58-24.64c-4.2-7.05-9.24-5.83-14.64-.86-2.8 3.61-5.62 6.57-6.63 10.21-3.73 6.06-.43 11.43 5.43 12.06 7.64 4.12 13.91 6.37 21.61 8.68 4.87 2.4 7.92-.51 7.48-5.92.63-10.21-3.74-17.61-13.25-24.17m-67.54 39.86c5.91 0 12.75 9.28 12.75 18.9 0 9.64-8.1 17.2-11.27 17.2-3.2 0-10.34-13.31-12.21-22.92-1.87-9.65 4.82-13.18 10.73-13.18m-30.51 16.05c6.46-2.02 12.29-2.5 13.76 7.72-3.01 12.47-8.59 23.57-18.22 31.59-5.19 6.5-13.66 19.57-20.28 11.59-7.14-5.48-10.18-8.18-13.98-15.37-.79-2.06-.55-3.96 1.99-5.46 12.25-8.72 24.5-17.4 36.73-30.07m-54.77 46.15c6.37-3.52 11.01-3.5 11.77 4.28-1.08 13.5-2.13 26.96-3.14 40.44-.74 9.45-3.81 9.9-9.21 1.44-4.28-3.26-6.87-10.5-9.24-17.52.8-12.03 3.39-19.46 9.82-28.64m-20.35 44.15c4.68-4.15 9.36-3.56 14.06 1.73 3.41 4.11 2.72 7.42 1.39 10.59-1.73 3.45-12.75 5.11-13.43 8.89-.35 2.05 6.05 6.9 2.82 11.76-3.32 9.46-7.62 11.35-12.89 5.74-.12-6.22-5.43-10 1.44-21.79 2.21-5.65 4.41-11.29 6.61-16.92m-.15 68.23c2.76 0 4.2 2.24 5 7.3.84 5.07-.04 9.67-4.17 7.94-4.16-1.74-5.84-3.92-5.84-7.94v-.7c-2.49 1.63-6.99 1.52-11.17-.29-4.61-1.07-6.99-5.2-7.16-12.33 1.34-4.76 2.66-9.58 5.12-13.78 4.15-4.6 7.73-3.7 12.93 3.3 1.87 3.7-.48 7.76-.27 10.98.16 2.72 1.52 4.68 2.22 7.37.89-1.15 2.07-1.85 3.34-1.85m-20.99 8.99c5.59-.27 12.53 5.93 10.65 13.05-1.95 7.11-5.38 10.35-10.43 10.35-5.07 0-9.17-5.03-9.17-11.18-.01-6.18 3.36-11.97 8.95-12.22m-8.52 29.68c5.34 0 10.47 10.49 10.47 22.04 0 11.57-.99 22.28-10.47 23.46-9.51 1.2-14.36-10.49-11.88-22.74 2.49-12.28 6.51-22.76 11.88-22.76m719.56-69.03c-7.49 2.26-12.13 10.06-8.55 17.35 7.16 3.62 16.65 4.08 26.86 2.69 6.05-.62 7.9 6.75 8.95 17.24 2.35 5.94 6.47 5.99 10.87.89-.33-5.99 5.42-12.26 3.78-20.25-2.18-5.52-13.37-2.96-23.51-9.31-5.95-3.77-10.61-8.17-18.4-8.61m-73.61-38.58c-6.54-.99-9.09 1.52-7.57 7.6 5.71 12.8 19.38 18.64 34.36 26.29 10.46 5.99 17.13 16.2 27.58 18.4 8-4.05 8.41-10.08 1.28-18.14-10.02-8.43-20.93-16.38-34.97-22.76-5.64-4.42-13.03-7.97-20.68-11.39" fill="#3b6287" fill-rule="evenodd" clip-rule="evenodd"/><path d="M749.76 325.72c6.18-.2 12.42-7.07 2.51-9.7-7.56-4.08-10.98-11.54-21.99-15.25-3.95-1.62-12.89 5.9-15.59 4.37-4-2.26-3.58-6.67-8.79-.94-3.45 2.45-6.41 5.4-8.85 8.87.79 4.48 2.74 8.09 12.69 5.48 1.5-2.54 5.68-2.43 7.25-4.95 15.95 3.42 22.48 11.35 32.77 12.12M611.91 211.46c-7.78-2.9-16.34-3.1-10.12 8.86 18.2 17.32 35.71 33.09 54.9 47.37 14.23 9.35 26.51 21.67 43.97 26.76 11.49 2.74 27.51-7.73 9.07-19.74-16.73-9.55-33.08-19.86-49.81-29.81-15.89-11.52-32.14-21.91-48.01-33.44m79.44 87.28c4.08 0 7.4 2.26 7.4 5.07 0 2.77-3.32 5.06-7.4 5.06-4.05 0-7.37-2.29-7.37-5.06 0-2.8 3.32-5.07 7.37-5.07m-106.02-71.26c3.91-5.62 7.28-5.2 10.12 1.28.84 4.35.58 8.71 1.4 13.07-5.11 6.71-10.38 8.12-16.56 10.53-4.94 1.84-6.35.15-4.24-5.07 3.1-6.59 6.2-13.2 9.28-19.81m-12.65-25.75c5.15-6.21 8.81-5.35 10.94 2.52-4.65 12.45-7.74 24.46-8.39 35.9-2.43 1.74-5 2.89-8.43-.43 4.68-11.96-7.49-4.84-14.35-5.11-3.38-.12-5.42-4.09-7.18-7.51-2.74-5.07-1.47-7.61 3.8-7.62 10.92-1.88 18.77-7.81 23.61-17.75" fill="#3b6287" fill-rule="evenodd" clip-rule="evenodd"/><path d="M536.42 178.17c-1.59-2.66-.8-8.49 8.45-5.72 11.15 1.95 19.31 8.95 24.46 17.95-2.33 13.7-8.63 20.86-18.98 21.51-5.26.88-7.74-2.53-8.97-5.63-4.13-8.92-7.87-16.21-4.96-28.11m-30.53-13.93c3.8 0 6.93 2.38 6.93 5.27 0 2.9-3.13 5.28-6.93 5.28-3.87 0-6.98-2.38-6.98-5.28 0-2.89 3.11-5.27 6.98-5.27M479.1 40.91c-18.02-3.84-15.93 5.22-9.19 12.48 10.78 17.1 29.49 30.12 47.96 43.83 9.88 13.04 13.01 29.09 15.18 45.53 4.04 20.25 18.63 18.16 22.76 3.37 6.06-11.07 5.98-23.2 6.02-36.02-4.67-9.88-11.8-15.78-19.07-21.31-5.51-9.26-10.83-18.6-19.83-26.99-12.3-10.58-26.42-19.69-43.83-20.89M272.49 548.15c.21-10.62 10.11-17.33 24.01-10.18 14.64 11.8 24.03 19.81 40 30.23 1.47.23 5.14 4.12 2.93 5.75 10.42 9.55 1.4 23.53-13.04 15.45-12.34-1.15-15.05-4.88-26-9.48-13.23-10.19-26.28-19.55-27.9-31.77m197.1 158.24c-2.34-6.27-.32-10.07 11.43-13.29 9.43.32 18.36 1.67 26.75 7.02 4.23 8.53 4.43 15.57.58 21.08-3.04 17.77-8.73 15.19-14.82 9.67-9.15-4.32-18.98-6.54-23.94-24.48m-35.01-53.13c-1.22 2.78-3.7 4.72-6.57 4.72-4.08 0-7.37-3.97-7.37-8.87 0-2.56.92-4.89 2.43-6.51-.45-.92-.49-1.8-.08-2.5 1.32-2.01 5.82-1.95 10.26.61 4.44 2.51 6.19 11.17 4.4 13.18-.83.91-2.01.29-3.37-.91.11.09.18.2.3.28m94.58 111.62c2.93 0 5.43 1 7.52 3.89.35-.01.75 0 1.27 0 2.92 0 3.76 2.32 3.76 4.71 0 1.84.6 1.52-1.89 2.26.16.52.29 1.03.4 1.58 2.45 9.66-4.27 12.75-9.92 11.68-5.68-1.08-9.21-5.24-9.21-11.68 0-6.42 3.21-12.44 8.07-12.44m76.68 86.29c14.3-5.99 35.72-17.49 36.99-14.46 1.24 3.04-18.4 15.31-32.74 23.62-14.31 8.29-27.06 12.2-28.31 5.38-1.29-6.83 9.75-8.53 24.06-14.54M87.98 491.65c6.15-9.86 10.81-6.63 14.78 2.54-4.24 10.9-8.49 21.73-12.75 32.62 1.06 11.64 8.44 12.69 17.98 13.04 8.96-7.69 20.86-15.55 34.16-14.43 7.02.58 13.99-3.92 23.27-7.78 7.66-.44 18.15-4.91 24.41 1.62 3.37 3.52 9.08 1.47 12.84-.12 12.37-4.83 20.18-6.25 32.61-3.53 14.85 3.91 17.12 16.06 3.96 18.07-26.13 4.87-52.75 9.17-81.95 9.96-17.08 3.09-32.46 10.32-45.5 8.93-12.24 4.08-24.1 8.8-36.57 13.47-8.43-.59-18.79-2.03-13.78-17.05 4.24-12.56 6.37-24.42 13.78-35.92 4.26-7.13 8.52-14.27 12.76-21.42" fill="#3b6287" fill-rule="evenodd" clip-rule="evenodd"/><path d="M897.59 392.27c-5.22-.67-7.96 2.49-7.74 8.92 2.46 13.36 12.25 18.43 19.39 24.47 2.8 17.92 7.93 30.53 13.76 48.47-7.94 20.25-11.23 44.62-16.2 68.96-3.91 19.03-8.45 37.89-9.07 56.99-.44 4.81-.86 9.63-1.24 14.46-.43 1.12-5.8 15.76-5.34 16.25 1.22 8.39 10.99 5.28 14.3-2.49 4.21-13.8 5.38-24.01 5.62-41.86 4.92-8.56 6.54-3.2 9.46 5.46-5.42 11.74-3.91 21.23-.72 27.14 3.66 6.79-3 15.35-3.44 23.25-6.11-.44-15.7 7.34-10.57 16.69 2.51 4.56-1.63 6.45-4.8 10.21-1.99 11.7.88 18.5-7.54 31.7-8.21 14.46-14.93 32.29-23.16 46.74-8.31 9.16-14.24 7.13-9.84-3.87 12.63-12.56 22.62-26.72 29.02-47.16 3.96-14.1 8.57-28.82 8.52-44.96.13-7.38-6.03-6.75-10.95-5.02-7.38 22.15-11.3 42.53-14.52 62.58l-37.88 52.13c-34.52 15.98-67.85 27.16-100.36 35.09.01.07.01.09.04.15-16.3-.56-32.55 4.73-48.84 10.29-21.25 12.57-46.53 22.23-71.85 31.79-19.11 5.14-37.17 14.15-54.29 26.34-9.68 9.72-5.52 18.07 4.93 25.77 16.6 6.08 35.27 4.63 55.95-4.4 26.32-16.24 52.64-32.53 78.96-48.79 15.82-6.58 31.19-12.28 44.96-14.82 0-.23-.04-.43-.08-.65 21.8-5.31 40.19-4.55 60.08-7.97 10.86-1.86 21.31-5.96 32.17-7.84 10.73-5.16 18.59-3.91 25.89-3.01 12.63 1.55 27.36-7.92 37.15-14.53 10.11-16.69 18.18-34.92 19.19-58.7 9.56-25.21 17.21-50.45 32.35-75.67 4.69-36.23 5.8-82.53 1.12-117.94-.92-23.58-2.81-46.98-15.93-68.54-3-21.02-10.46-49.43-16.89-47.04-3.09 1.15-4.8-.64-5.24-3.73.83-6.19-.51-10.34-2.81-13.99-.44-5.82-4.52-10.38-9.51-10.38-1.7 0-3.3.54-4.71 1.49.07-.88.29-1.5.66-1.98m-575.18 8.29c3.62 0 6.58 2.6 6.58 5.82 0 3.21-2.96 5.84-6.58 5.84-3.58 0-6.51-2.64-6.51-5.84-.01-3.22 2.92-5.82 6.51-5.82m-3.16 15.18c3.8 0 6.91 2.21 6.91 4.95 0 2.72-3.12 4.93-6.91 4.93s-6.17-2.55-6.17-5.28c0-2.72 2.39-4.6 6.17-4.6m162.95-38.67c4.95 0 8.97 3.68 8.97 8.15 0 4.51-4.03 8.19-8.97 8.19s-8.97-3.68-8.97-8.19c-.01-4.47 4.03-8.15 8.97-8.15m72.47 0c3.96 0 7.17 2.93 7.17 6.53s-3.21 6.53-7.17 6.53-7.2-2.93-7.2-6.53 3.24-6.53 7.2-6.53m48.96 51.39c3.97 0 7.18 2.94 7.18 6.54 0 3.59-3.21 6.53-7.18 6.53-3.95 0-7.17-2.94-7.17-6.53 0-3.59 3.22-6.54 7.17-6.54m43.42 65.3c4.93 0 8.96 3.65 8.96 8.16 0 4.49-4.03 8.16-8.96 8.16-4.95 0-8.99-3.67-8.99-8.16 0-4.51 4.04-8.16 8.99-8.16m28.04 44.08c4.19 0 7.61 3.12 7.61 6.95 0 3.79-3.42 6.9-7.61 6.9-4.21 0-7.62-3.12-7.62-6.9 0-3.84 3.41-6.95 7.62-6.95m-35.91 30.19c4.17 0 7.62 3.12 7.62 6.94 0 3.81-3.45 6.93-7.62 6.93-4.19 0-7.62-3.12-7.62-6.93-.01-3.83 3.43-6.94 7.62-6.94m28.52 38.37c4.25 0 7.65 3.1 7.65 6.94 0 3.83-3.4 6.93-7.65 6.93-4.16 0-7.58-3.1-7.58-6.93 0-3.84 3.42-6.94 7.58-6.94" fill="#3b6287" fill-rule="evenodd" clip-rule="evenodd"/><path d="M726.5 610.47c4.2 0 7.6 3.1 7.6 6.94 0 3.81-3.4 6.93-7.6 6.93-4.2 0-7.65-3.12-7.65-6.93 0-3.84 3.45-6.94 7.65-6.94m55.5 2.45c4.19 0 7.6 3.1 7.6 6.94 0 3.81-3.41 6.91-7.6 6.91-4.21 0-7.65-3.1-7.65-6.91 0-3.83 3.43-6.94 7.65-6.94m65.26-34.28c4.2 0 7.62 3.12 7.62 6.93 0 3.84-3.42 6.94-7.62 6.94s-7.62-3.1-7.62-6.94c0-3.81 3.42-6.93 7.62-6.93m33.47-35.1c4.19 0 7.65 3.12 7.65 6.94 0 3.81-3.46 6.91-7.65 6.91s-7.62-3.1-7.62-6.91c-.01-3.82 3.43-6.94 7.62-6.94m-75.07-26.94c4.19 0 7.61 3.1 7.61 6.97 0 3.82-3.42 6.93-7.61 6.93-4.2 0-7.64-3.1-7.64-6.93.01-3.87 3.44-6.97 7.64-6.97m-44.9 132.22c4.23 0 7.62 3.1 7.62 6.94 0 3.81-3.4 6.93-7.62 6.93-4.2 0-7.62-3.12-7.62-6.93 0-3.84 3.42-6.94 7.62-6.94m-57.93-187.69c4.17 0 7.62 3.1 7.62 6.92 0 3.84-3.45 6.95-7.62 6.95-4.2 0-7.64-3.12-7.64-6.95.01-3.81 3.44-6.92 7.64-6.92m-203.21 69.36c4.2 0 7.62 3.1 7.62 6.93 0 3.81-3.42 6.94-7.62 6.94s-7.61-3.13-7.61-6.94c0-3.82 3.41-6.93 7.61-6.93m66.91 115.89c4.2 0 7.64 3.12 7.64 6.93 0 3.84-3.44 6.94-7.64 6.94-4.19 0-7.62-3.1-7.62-6.94 0-3.81 3.43-6.93 7.62-6.93M389.47 426.84c4.19 0 7.62 3.1 7.62 6.93s-3.44 6.94-7.62 6.94c-4.19 0-7.62-3.12-7.62-6.94s3.43-6.93 7.62-6.93m-53.9-75.89c4.23 0 7.65 3.12 7.65 6.95 0 3.81-3.42 6.93-7.65 6.93-4.17 0-7.61-3.12-7.61-6.93 0-3.83 3.44-6.95 7.61-6.95m-32.63 19.6c4.2 0 7.65 3.1 7.65 6.93 0 3.81-3.45 6.93-7.65 6.93-4.17 0-7.61-3.12-7.61-6.93 0-3.82 3.43-6.93 7.61-6.93m-80.74-88.39c4.17 0 7.62 3.12 7.62 6.95s-3.45 6.93-7.62 6.93c-4.2 0-7.66-3.1-7.66-6.93 0-3.84 3.46-6.95 7.66-6.95m104.37 259.78c4.17 0 7.62 3.13 7.62 6.94 0 3.81-3.45 6.94-7.62 6.94-4.2 0-7.64-3.13-7.64-6.94.01-3.81 3.44-6.94 7.64-6.94m-97.59-177.92c3.44 0 6.29 2.56 6.29 5.71 0 3.14-2.85 5.71-6.29 5.71-3.49 0-6.31-2.57-6.31-5.71 0-3.16 2.82-5.71 6.31-5.71m329.93 63.65c4.49 0 8.16 9.19 8.16 20.4 0 11.24-3.66 20.4-8.16 20.4-4.48 0-8.17-9.16-8.17-20.4-.01-11.21 3.69-20.4 8.17-20.4m-77.65-11.51c3.2-1.6 9.27 3.8 12.52 10.22 3.2 6.43 3.2 12.99 0 14.59-3.25 1.62-11.8-1.07-15.01-7.5-3.23-6.45-.74-15.69 2.49-17.31m88.54 159.1c14.35 3.8 35.78-16.89 42.38-5.2 8.63 15.37-18.02 11.1-29.22 23.36-7.68 8.41-5.67 27.91-12.4 28.58-16.62 1.63-25.64-13.95-25.64-24.52 0-10.55 10.54-26.04 24.88-22.22m222.52-131.27c4.51 0 8.13 3.28 8.13 7.34 0 4.04-3.62 7.36-8.13 7.36-4.51 0-8.16-3.32-8.16-7.36 0-4.06 3.65-7.34 8.16-7.34m-31.43 19.58c6.51 0 11.84 2.93 11.84 6.51 0 3.61-5.32 6.54-11.84 6.54-6.53 0-11.84-2.93-11.84-6.54 0-3.58 5.31-6.51 11.84-6.51m-25.7 48.97c2.7 0 4.91 4.21 4.91 9.36 0 5.18-2.21 9.4-4.91 9.4s-4.9-4.23-4.9-9.4c0-5.15 2.19-9.36 4.9-9.36m-27.76-78.35c3.13 0 5.72 5.3 5.72 11.84s-2.59 11.85-5.72 11.85c-3.16 0-5.71-5.31-5.71-11.85 0-6.55 2.56-11.84 5.71-11.84m-31 317.45c8.09 0 14.68 2.41 14.68 5.3 0 2.94-6.59 5.31-14.68 5.31-8.08 0-14.7-2.37-14.7-5.31 0-2.89 6.62-5.3 14.7-5.3m-28.15-98.72c2.89 0 5.31 8.59 5.31 19.15 0 10.58-2.42 19.18-5.31 19.18-2.94 0-5.32-8.6-5.32-19.18 0-10.57 2.38-19.15 5.32-19.15m48.95 8.14c5.62 0 10.2 4.4 10.2 9.78 0 5.42-4.59 9.8-10.2 9.8-5.6 0-10.2-4.39-10.2-9.8 0-5.38 4.6-9.78 10.2-9.78m-6.93 34.28c3.14 0 5.71 2.74 5.71 6.13 0 3.36-2.57 6.1-5.71 6.1s-5.71-2.74-5.71-6.1c-.01-3.39 2.56-6.13 5.71-6.13m125.67 12.23c5.38 0 9.79 4.6 9.79 10.21 0 5.62-4.41 10.22-9.79 10.22-5.4 0-9.8-4.6-9.8-10.22 0-5.61 4.4-10.21 9.8-10.21m-238.72-29.39c3.85 0 6.97 3.32 6.97 7.36 0 4.07-3.12 7.36-6.97 7.36-3.8 0-6.91-3.29-6.91-7.36 0-4.04 3.12-7.36 6.91-7.36M470.34 84.98c4.61 0 8.35 3.6 8.35 7.99 0 4.41-3.73 8-8.35 8-4.63 0-8.4-3.59-8.4-8 0-4.4 3.77-7.99 8.4-7.99m38.08 11.39c4.63 0 8.39 3.63 8.39 8.03 0 4.4-3.76 7.98-8.39 7.98-4.64 0-8.39-3.58-8.39-7.98.01-4.4 3.75-8.03 8.39-8.03m-15.15-12.15c3.69 0 6.77 2.9 6.77 6.46s-3.08 6.47-6.77 6.47c-3.75 0-6.82-2.92-6.82-6.47s3.08-6.46 6.82-6.46m-123.48 72.12c4.47 0 8.08 1.95 8.08 4.31 0 2.4-3.61 4.32-8.08 4.32-4.45 0-8.08-1.92-8.08-4.32.01-2.35 3.63-4.31 8.08-4.31m45.43 160.95c5.83 3.89 8.6 9.94 6.23 13.54-2.39 3.56-9.08 3.33-14.87-.55-5.8-3.88-8.59-9.92-6.23-13.52 2.38-3.57 9.07-3.33 14.87.53m65.61-60.92c6.85 0 9.34 3.38 10.18 15.18.83 11.78-4.91 18.54-12.4 16.57-7.48-1.95-18.8-4.79-18.8-14.07-.01-9.26 14.21-17.68 21.02-17.68m24.9-62.47c4.41 0 8 3.61 8 8 0 4.41-3.58 8-8 8-4.39 0-7.97-3.58-7.97-8 0-4.38 3.59-8 7.97-8M223.12 438.46c7.33 0 13.32 4.96 13.32 11.05 0 6.07-5.99 11.05-13.32 11.05-7.34 0-13.33-4.98-13.33-11.05 0-6.09 5.99-11.05 13.33-11.05m211.4 12.17c7.13 0 12.95 7.53 12.95 16.76 0 9.24-5.82 16.77-12.95 16.77-7.13 0-12.96-7.53-12.96-16.77 0-9.23 5.84-16.76 12.96-16.76m-174.71-46.37c3.95-3.81 8.88 2.94 14.46 13.79 5.58 10.87 15.22 20.2 8.77 22.86-6.45 2.67-11.92-8.05-17.73-17.08-5.78-9-9.41-15.82-5.5-19.57m255.44 58.58c10.08 0 18.31 10.26 18.31 22.84 0 12.6-8.23 22.84-18.31 22.84-10.04 0-18.28-10.24-18.28-22.84 0-12.58 8.24-22.84 18.28-22.84m-95.07-56.89c-9.39-7.92-14.82-.15-13.86 6.61 2.11 16.33 18.5 11.78 27.63 17.37 5.38 3.75 7.92 6.83 12.2 11.7 6.93 6.81 13.13 2.72 13.52-5.62-.23-3.56-.28-7.5-2.17-11.07-1.86-5.56-5.28-8.31-11.57-7.84-5.36.94-10.43.55-15.22-.74-3.8-2.8-7.81-5.42-10.53-10.41M556.7 547.91c6.3-2.9 12.46-2.93 13.79-.07 1.32 2.86-2.74 7.57-9.04 10.44-6.26 2.89-12.49 2.92-13.79.05-1.33-2.84 2.74-7.54 9.04-10.42m7.31-49.28c14.7 0 30.99 6.59 22.87 16.75-7.61 9.56-18.76-7.38-24.21-6.15-13.8 3.14-6.55 26.73-9.3 26.73-14.71 0-16.02-.7-16.02-13.71 0-13.02 12-23.62 26.66-23.62" fill="#3b6287" fill-rule="evenodd" clip-rule="evenodd"/><path d="M270.7 236.66c0 6.34-5.15 11.48-11.48 11.48-6.37 0-11.5-5.13-11.5-11.48 0-6.35 5.14-11.49 11.5-11.49 6.33 0 11.48 5.13 11.48 11.49" fill="#004b1c"/><path d="M259.22 249.58c-7.13 0-12.94-5.79-12.94-12.92s5.81-12.93 12.94-12.93 12.93 5.8 12.93 12.93c0 7.12-5.8 12.92-12.93 12.92zm0-22.97c-5.54 0-10.04 4.51-10.04 10.04 0 5.53 4.51 10.03 10.04 10.03s10.03-4.5 10.03-10.03c0-5.53-4.49-10.04-10.03-10.04zM157.58 354.67c0 6.34-5.15 11.49-11.48 11.49-6.37 0-11.52-5.15-11.52-11.49s5.15-11.49 11.52-11.49c6.33 0 11.48 5.15 11.48 11.49m281.53 290.98c0 6.35-5.15 11.49-11.49 11.49s-11.49-5.13-11.49-11.49c0-6.34 5.15-11.47 11.49-11.47s11.49 5.14 11.49 11.47" fill="#004b1c"/><path d="M795.13 807.22c0 6.34-5.14 11.48-11.49 11.48-6.35 0-11.49-5.13-11.49-11.48 0-6.35 5.14-11.47 11.49-11.47 6.35 0 11.49 5.12 11.49 11.47" fill="#a54686"/><path d="M144.63 354.77c0 1.59-1.28 2.86-2.88 2.86-1.58 0-2.88-1.27-2.88-2.86 0-1.59 1.3-2.88 2.88-2.88 1.6 0 2.88 1.29 2.88 2.88m7.01.07c0 1.59-1.28 2.86-2.88 2.86-1.58 0-2.86-1.27-2.86-2.86a2.87 2.87 0 1 1 5.74 0m275.81 292.02c0 1.58-1.28 2.86-2.88 2.86a2.86 2.86 0 0 1-2.86-2.86 2.87 2.87 0 0 1 2.86-2.88c1.59.01 2.88 1.29 2.88 2.88" fill="#f5ee6d"/><path d="M342.3 264.84v9.06h-.69c-.85-2.48-2.12-4.36-3.81-5.65-1.7-1.29-3.54-1.93-5.55-1.93-1.92 0-3.53.54-4.79 1.62-1.28 1.08-2.18 2.59-2.72 4.53-.52 1.93-.8 3.91-.8 5.95 0 2.46.29 4.62.88 6.48.57 1.86 1.52 3.23 2.81 4.09 1.31.88 2.83 1.31 4.62 1.31.61 0 1.25-.07 1.91-.2.64-.13 1.31-.33 2-.58v-5.34c0-1.01-.08-1.67-.21-1.96-.14-.3-.43-.57-.86-.81-.44-.24-.97-.36-1.58-.36h-.67v-.7h12.49v.7c-.95.07-1.61.2-1.99.39-.37.2-.65.52-.86.97-.1.24-.17.83-.17 1.76v5.34c-1.63.74-3.34 1.29-5.12 1.66-1.78.37-3.62.56-5.52.56-2.44 0-4.47-.33-6.07-.99a15.36 15.36 0 0 1-4.27-2.62c-1.23-1.08-2.19-2.3-2.89-3.65-.89-1.74-1.33-3.69-1.33-5.85 0-3.87 1.36-7.13 4.08-9.8 2.72-2.66 6.14-4 10.25-4 1.28 0 2.43.1 3.45.3.56.1 1.46.39 2.7.86 1.25.48 1.99.71 2.21.71.35 0 .69-.12.99-.39.3-.26.57-.75.84-1.47h.67zm16.05.06v21.02c0 1.58.07 2.59.21 3.02.13.44.43.79.88 1.07.43.27 1.15.42 2.12.42h.59v.7h-13.53v-.7h.68c1.1 0 1.88-.13 2.35-.38.47-.25.78-.6.95-1.04.16-.44.25-1.47.25-3.09V272.6c0-1.19-.07-1.93-.17-2.23-.12-.3-.33-.55-.64-.76-.31-.21-.67-.31-1.07-.31-.64 0-1.42.2-2.35.61l-.34-.69 9.46-4.32h.61z"/><path d="M339.7 320.9c-23.51 0-42.64-19.13-42.64-42.64s19.13-42.65 42.64-42.65 42.64 19.13 42.64 42.65-19.13 42.64-42.64 42.64zm0-81.51c-21.42 0-38.86 17.43-38.86 38.86s17.44 38.86 38.86 38.86 38.86-17.43 38.86-38.86-17.44-38.86-38.86-38.86zm355.86 329.08v9.06h-.69c-.85-2.48-2.12-4.36-3.81-5.65-1.7-1.29-3.54-1.93-5.55-1.93-1.92 0-3.53.54-4.79 1.62-1.28 1.08-2.18 2.59-2.72 4.53-.52 1.93-.8 3.91-.8 5.95 0 2.46.29 4.62.88 6.48.57 1.86 1.52 3.23 2.81 4.09 1.31.88 2.83 1.31 4.62 1.31.61 0 1.25-.07 1.91-.2.64-.13 1.31-.33 2-.58v-5.34c0-1.01-.08-1.67-.21-1.96-.14-.3-.43-.57-.86-.81-.44-.24-.97-.36-1.58-.36h-.67v-.7h12.49v.7c-.95.07-1.61.2-1.99.39-.37.2-.65.52-.86.97-.1.24-.17.83-.17 1.76v5.34c-1.63.74-3.34 1.29-5.12 1.66-1.78.37-3.62.56-5.52.56-2.44 0-4.47-.33-6.07-.99a15.36 15.36 0 0 1-4.27-2.62c-1.23-1.08-2.19-2.3-2.89-3.65-.89-1.74-1.33-3.69-1.33-5.85 0-3.87 1.36-7.13 4.08-9.8 2.72-2.66 6.14-4 10.25-4 1.28 0 2.43.1 3.45.3.56.1 1.46.39 2.7.86 1.25.48 1.99.71 2.21.71.35 0 .69-.12.99-.39s.57-.75.84-1.47h.67zm19.47 26.29h-15.11v-.42c4.64-5.52 7.44-9.23 8.44-11.14.99-1.91 1.49-3.77 1.49-5.59 0-1.33-.42-2.43-1.23-3.31-.82-.88-1.83-1.31-3.02-1.31-1.95 0-3.46.97-4.53 2.92l-.71-.25c.69-2.43 1.72-4.22 3.11-5.38 1.4-1.16 3-1.74 4.82-1.74 1.31 0 2.48.3 3.57.91 1.07.61 1.91 1.44 2.52 2.49.6 1.05.9 2.04.9 2.96 0 1.68-.46 3.38-1.4 5.11-1.28 2.34-4.06 5.6-8.36 9.78h5.55c1.37 0 2.26-.06 2.66-.17.4-.12.74-.31 1.02-.58.26-.27.61-.84 1.03-1.72h.69l-1.44 7.44z"/><path d="M692.91 624.55c-23.51 0-42.64-19.13-42.64-42.65s19.13-42.64 42.64-42.64 42.64 19.13 42.64 42.64-19.13 42.65-42.64 42.65zm0-81.51c-21.42 0-38.86 17.43-38.86 38.86s17.44 38.86 38.86 38.86 38.86-17.43 38.86-38.86c-.01-21.43-17.44-38.86-38.86-38.86zM62.59 653.03l-1.25-2.61 2.65-1.27 1.25 2.61-2.65 1.27zm5.31-2.53-1.25-2.61 2.65-1.27 1.25 2.61-2.65 1.27zm5.3-2.54-1.25-2.61 2.65-1.27 1.25 2.61-2.65 1.27zm5.32-2.53-1.25-2.61 2.65-1.27 1.25 2.61-2.65 1.27zm5.29-2.54-1.23-2.61 2.66-1.27 1.23 2.61-2.66 1.27zm5.33-2.53-1.25-2.61 2.65-1.27 1.25 2.61-2.65 1.27zm5.31-2.54-1.25-2.61 2.65-1.27 1.25 2.61-2.65 1.27zm5.31-2.54-1.25-2.61 2.65-1.27 1.25 2.61-2.65 1.27zm5.31-2.53-1.25-2.61 2.65-1.27 1.25 2.61-2.65 1.27zm5.31-2.53-1.25-2.61 2.66-1.27 1.25 2.61-2.66 1.27zm5.31-2.54-1.25-2.61 2.65-1.27 1.25 2.61-2.65 1.27zm5.29-2.54-1.23-2.61 2.66-1.27 1.23 2.61-2.66 1.27zm5.33-2.53-1.25-2.61 2.65-1.27 1.25 2.61-2.65 1.27zm5.32-2.54-1.25-2.61 2.65-1.27 1.25 2.61-2.65 1.27zm5.29-2.54-1.23-2.61 2.66-1.27 1.23 2.61-2.66 1.27zm5.32-2.53-1.25-2.61 2.65-1.27 1.25 2.61-2.65 1.27zm5.29-2.53-1.23-2.61 2.66-1.27 1.23 2.61-2.66 1.27zm5.33-2.54-1.25-2.61 2.65-1.27 1.25 2.61-2.65 1.27zm5.32-2.54-1.25-2.61 2.65-1.27 1.25 2.61-2.65 1.27zm5.29-2.53-1.23-2.61 2.66-1.27 1.23 2.61-2.66 1.27zm5.33-2.54-1.25-2.6 2.65-1.27 1.25 2.6-2.65 1.27zm5.29-2.54-1.23-2.61 2.66-1.27 1.23 2.61-2.66 1.27zm5.33-2.53-1.25-2.61 2.65-1.27 1.25 2.61-2.65 1.27zm5.31-2.53-1.25-2.61 2.65-1.27 1.25 2.61-2.65 1.27zm5.3-2.54-1.25-2.61 2.65-1.27 1.25 2.61-2.65 1.27zm5.32-2.54-1.25-2.61 2.65-1.27 1.25 2.61-2.65 1.27zm5.29-2.53-1.23-2.61 2.66-1.27 1.23 2.61-2.66 1.27zm5.33-2.53-1.25-2.61 2.65-1.27 1.25 2.61-2.65 1.27zm5.31-2.54-1.25-2.61 2.65-1.27 1.25 2.61-2.65 1.27zm5.31-2.54-1.25-2.61 2.65-1.27 1.25 2.61-2.65 1.27zm5.31-2.53-1.25-2.61 2.65-1.27 1.25 2.61-2.65 1.27zm5.31-2.54-1.25-2.61 2.66-1.27 1.25 2.61-2.66 1.27zm5.31-2.54-1.25-2.61 2.65-1.27 1.25 2.61-2.65 1.27zm5.29-2.53-1.23-2.61 2.66-1.27 1.23 2.61-2.66 1.27zm5.33-2.53-1.25-2.61 2.65-1.27 1.25 2.61-2.65 1.27zm5.32-2.54-1.25-2.61 2.65-1.27 1.25 2.61-2.65 1.27zm5.29-2.54-1.23-2.61 2.66-1.27 1.23 2.61-2.66 1.27zm5.32-2.53-1.25-2.61 2.65-1.27 1.25 2.61-2.65 1.27zm5.29-2.54-1.23-2.61 2.66-1.27 1.23 2.61-2.66 1.27zm5.33-2.54-1.25-2.61 2.65-1.27 1.25 2.61-2.65 1.27zm5.32-2.53-1.25-2.61 2.65-1.27 1.25 2.61-2.65 1.27zm5.3-2.53-1.25-2.61 2.65-1.27 1.25 2.61-2.65 1.27zm5.32-2.54-1.25-2.6 2.65-1.27 1.25 2.6-2.65 1.27zm5.29-2.54-1.23-2.61 2.66-1.27 1.23 2.61-2.66 1.27zm5.33-2.53-1.25-2.61 2.65-1.27 1.25 2.61-2.65 1.27zm5.31-2.54-1.25-2.61 2.65-1.27 1.25 2.61-2.65 1.27zm5.3-2.54-1.25-2.61 2.65-1.27 1.25 2.61-2.65 1.27zm5.32-2.53-1.25-2.61 2.65-1.27 1.25 2.61-2.65 1.27zm5.29-2.53-1.23-2.61 2.66-1.27 1.23 2.61-2.66 1.27zm5.33-2.54-1.25-2.61 2.65-1.27 1.25 2.61-2.65 1.27zm5.29-2.54-1.23-2.61 2.66-1.27 1.23 2.61-2.66 1.27zm5.33-2.53-1.25-2.61 2.65-1.27 1.25 2.61-2.65 1.27zm5.31-2.54-1.25-2.61 2.65-1.27 1.25 2.61-2.65 1.27zm5.31-2.53-1.25-2.61 2.66-1.27 1.25 2.61-2.66 1.27zm5.31-2.54-1.25-2.61 2.65-1.27 1.25 2.61-2.65 1.27zm5.29-2.53-1.23-2.61 2.66-1.27 1.23 2.61-2.66 1.27zm5.33-2.54-1.25-2.61 2.65-1.27 1.25 2.61-2.65 1.27zm5.32-2.54-1.25-2.61 2.65-1.27 1.25 2.61-2.65 1.27zm5.3-2.53-1.25-2.61 2.65-1.27 1.25 2.61-2.65 1.27zm5.32-2.54-1.25-2.61 2.65-1.27 1.25 2.61-2.65 1.27zm5.28-2.53-1.23-2.61 2.66-1.27 1.23 2.61-2.66 1.27zm5.33-2.54-1.25-2.61 2.65-1.27 1.25 2.61-2.65 1.27zm5.32-2.53-1.25-2.61 2.65-1.27 1.25 2.61-2.65 1.27zm5.3-2.54-1.25-2.61 2.65-1.27 1.25 2.61-2.65 1.27zm5.32-2.54-1.25-2.6 2.65-1.27 1.25 2.6-2.65 1.27zm5.29-2.53-1.23-2.61 2.66-1.27 1.23 2.61-2.66 1.27zm5.33-2.54-1.25-2.61 2.65-1.27 1.25 2.61-2.65 1.27zm5.29-2.53-1.23-2.61 2.66-1.27 1.23 2.61-2.66 1.27zm5.33-2.54-1.25-2.6 2.65-1.27 1.25 2.6-2.65 1.27zm5.31-2.53-1.25-2.61 2.65-1.27 1.25 2.61-2.65 1.27zm5.29-2.54-1.23-2.61 2.66-1.27 1.23 2.61-2.66 1.27zm5.33-2.53-1.25-2.61 2.65-1.27 1.25 2.61-2.65 1.27zm5.29-2.54-1.23-2.61 2.66-1.27 1.23 2.61-2.66 1.27zm5.33-2.54-1.25-2.61 2.65-1.27 1.25 2.61-2.65 1.27zm5.31-2.53-1.25-2.61 2.65-1.27 1.25 2.61-2.65 1.27zm5.31-2.53-1.25-2.61 2.66-1.27 1.25 2.61-2.66 1.27zm5.31-2.54-1.25-2.61 2.65-1.27 1.25 2.61-2.65 1.27zm5.29-2.54-1.23-2.61 2.66-1.27 1.23 2.61-2.66 1.27zm5.33-2.53-1.25-2.61 2.65-1.27 1.25 2.61-2.65 1.27zm5.32-2.54-1.25-2.61 2.65-1.27 1.25 2.61-2.65 1.27zm5.3-2.54-1.25-2.61 2.65-1.27 1.25 2.61-2.65 1.27zm5.32-2.53-1.25-2.61 2.65-1.27 1.25 2.61-2.65 1.27zm5.28-2.53-1.23-2.61 2.66-1.27 1.23 2.61-2.66 1.27zm5.33-2.54-1.25-2.61 2.65-1.27 1.25 2.61-2.65 1.27zm5.32-2.54-1.25-2.61 2.65-1.27 1.25 2.61-2.65 1.27zm5.3-2.53-1.25-2.61 2.65-1.27 1.25 2.61-2.65 1.27zm5.32-2.54-1.25-2.6 2.65-1.27 1.25 2.6-2.65 1.27zm5.29-2.54-1.23-2.61 2.66-1.27 1.23 2.61-2.66 1.27zm5.33-2.53-1.25-2.61 2.65-1.27 1.25 2.61-2.65 1.27zm5.31-2.53-1.25-2.61 2.65-1.27 1.25 2.61-2.65 1.27zm5.31-2.54-1.25-2.61 2.65-1.27 1.25 2.61-2.65 1.27zm5.31-2.54-1.25-2.61 2.65-1.27 1.25 2.61-2.65 1.27zm5.29-2.53-1.23-2.61 2.66-1.27 1.23 2.61-2.66 1.27zm5.33-2.53-1.25-2.61 2.65-1.27 1.25 2.61-2.65 1.27zm5.29-2.54-1.23-2.61 2.66-1.27 1.23 2.61-2.66 1.27zm5.33-2.54-1.25-2.61 2.65-1.27 1.25 2.61-2.65 1.27zm5.31-2.53-1.25-2.61 2.65-1.27 1.25 2.61-2.65 1.27zm5.31-2.54-1.25-2.61 2.66-1.27 1.25 2.61-2.66 1.27zm5.31-2.54-1.25-2.61 2.65-1.27 1.25 2.61-2.65 1.27zm5.29-2.53-1.23-2.61 2.66-1.27 1.23 2.61-2.66 1.27zm5.33-2.53-1.25-2.61 2.65-1.27 1.25 2.61-2.65 1.27zm5.32-2.54-1.25-2.61 2.65-1.27 1.25 2.61-2.65 1.27zm5.29-2.54-1.23-2.61 2.66-1.27 1.23 2.61-2.66 1.27zm5.33-2.53-1.25-2.61 2.65-1.27 1.25 2.61-2.65 1.27zm5.3-2.54-1.25-2.61 2.66-1.27 1.25 2.61-2.66 1.27zm5.31-2.54-1.25-2.61 2.65-1.27 1.25 2.61-2.65 1.27zm5.32-2.53-1.25-2.61 2.65-1.27 1.25 2.61-2.65 1.27zm5.3-2.53-1.25-2.61 2.65-1.27 1.25 2.61-2.65 1.27zm5.32-2.54-1.25-2.6 2.65-1.27 1.25 2.6-2.65 1.27zm5.29-2.54-1.23-2.61 2.66-1.27 1.23 2.61-2.66 1.27zm5.33-2.53-1.25-2.61 2.65-1.27 1.25 2.61-2.65 1.27zm5.31-2.54-1.25-2.61 2.65-1.27 1.25 2.61-2.65 1.27zm5.31-2.54-1.25-2.61 2.65-1.27 1.25 2.61-2.65 1.27zm5.31-2.53-1.25-2.61 2.65-1.27 1.25 2.61-2.65 1.27zm5.29-2.53-1.23-2.61 2.66-1.27 1.23 2.61-2.66 1.27zm5.33-2.54-1.25-2.6 2.65-1.27 1.25 2.6-2.65 1.27zm5.32-2.54-1.25-2.61 2.65-1.27 1.25 2.61-2.65 1.27zm5.3-2.53-1.25-2.61 2.65-1.27 1.25 2.61-2.65 1.27zm5.31-2.54-1.25-2.61 2.65-1.27 1.25 2.61-2.65 1.27zm5.31-2.53-1.25-2.61 2.66-1.27 1.25 2.61-2.66 1.27zm5.31-2.54-1.25-2.61 2.65-1.27 1.25 2.61-2.65 1.27zm5.29-2.53-1.23-2.61 2.66-1.27 1.23 2.61-2.66 1.27zm5.33-2.54-1.25-2.61 2.65-1.27 1.25 2.61-2.65 1.27zm5.32-2.54-1.25-2.61 2.65-1.27 1.25 2.61-2.65 1.27zm5.29-2.53-1.23-2.61 2.66-1.27 1.23 2.61-2.66 1.27zm5.33-2.54-1.25-2.61 2.65-1.27 1.25 2.61-2.65 1.27zm5.3-2.53-1.25-2.61 2.66-1.27 1.25 2.61-2.66 1.27zm5.31-2.54-1.25-2.61 2.65-1.27 1.25 2.61-2.65 1.27zm5.32-2.53-1.25-2.61 2.65-1.27 1.25 2.61-2.65 1.27zm5.3-2.54-1.25-2.61 2.65-1.27 1.25 2.61-2.65 1.27zm5.32-2.54-1.25-2.61 2.65-1.27 1.25 2.61-2.65 1.27zm5.29-2.53-1.23-2.61 2.66-1.27 1.23 2.61-2.66 1.27zm5.33-2.54-1.25-2.61 2.65-1.27 1.25 2.61-2.65 1.27zm5.31-2.53-1.25-2.61 2.65-1.27 1.25 2.61-2.65 1.27zm5.31-2.54-1.25-2.61 2.65-1.27 1.25 2.61-2.65 1.27zm5.31-2.53-1.25-2.61 2.65-1.27 1.25 2.61-2.65 1.27zm5.29-2.54-1.23-2.61 2.66-1.27 1.23 2.61-2.66 1.27zm5.33-2.54-1.25-2.6 2.65-1.27 1.25 2.6-2.65 1.27zm5.32-2.53-1.25-2.61 2.65-1.27 1.25 2.61-2.65 1.27zm5.3-2.54-1.25-2.61 2.65-1.27 1.25 2.61-2.65 1.27zm5.31-2.53-1.25-2.61 2.65-1.27 1.25 2.61-2.65 1.27zm5.29-2.54-1.23-2.61 2.66-1.27 1.23 2.61-2.66 1.27zm5.33-2.53-1.25-2.61 2.65-1.27 1.25 2.61-2.65 1.27zm5.29-2.54-1.23-2.61 2.66-1.27 1.23 2.61-2.66 1.27zm5.33-2.53-1.25-2.61 2.65-1.27 1.25 2.61-2.65 1.27zm5.32-2.54-1.25-2.61 2.65-1.27 1.25 2.61-2.65 1.27zm5.29-2.54-1.23-2.61 2.66-1.27 1.23 2.61-2.66 1.27zm5.33-2.53-1.25-2.61 2.65-1.27 1.25 2.61-2.65 1.27zm5.3-2.53-1.25-2.61 2.66-1.27 1.25 2.61-2.66 1.27zm5.31-2.54-1.25-2.61 2.65-1.27 1.25 2.61-2.65 1.27zm5.32-2.54-1.25-2.61 2.65-1.27 1.25 2.61-2.65 1.27zm5.29-2.53-1.23-2.61 2.66-1.27 1.23 2.61-2.66 1.27zm5.33-2.54-1.25-2.61 2.65-1.27 1.25 2.61-2.65 1.27zm5.29-2.54-1.23-2.61 2.66-1.27 1.23 2.61-2.66 1.27zm5.33-2.53-1.25-2.61 2.65-1.27 1.25 2.61-2.65 1.27zm5.31-2.54-1.25-2.6 2.65-1.27 1.25 2.6-2.65 1.27zm5.31-2.53-1.25-2.61 2.65-1.27 1.25 2.61-2.65 1.27zm5.31-2.54-1.25-2.61 2.65-1.27 1.25 2.61-2.65 1.27zm5.29-2.53-1.23-2.61 2.66-1.27 1.23 2.61-2.66 1.27zm5.33-2.54-1.25-2.6 2.65-1.27 1.25 2.6-2.65 1.27zm5.32-2.53-1.25-2.61 2.65-1.27 1.25 2.61-2.65 1.27zm5.3-2.54-1.25-2.61 2.65-1.27 1.25 2.61-2.65 1.27zm5.31-2.53-1.25-2.61 2.65-1.27 1.25 2.61-2.65 1.27zm5.29-2.54-1.23-2.61 2.66-1.27 1.23 2.61-2.66 1.27zm5.33-2.54-1.25-2.61 2.65-1.27 1.25 2.61-2.65 1.27zm5.32-2.53-1.25-2.61 2.65-1.27 1.25 2.61-2.65 1.27zm5.3-2.54-1.25-2.6 2.65-1.27 1.25 2.6-2.65 1.27zm5.32-2.53-1.25-2.61 2.65-1.27 1.25 2.61-2.65 1.27zm5.29-2.54-1.23-2.61 2.66-1.27 1.23 2.61-2.66 1.27zm5.33-2.53-1.25-2.61 2.65-1.27 1.25 2.61-2.65 1.27zm5.3-2.54-1.25-2.61 2.66-1.27 1.25 2.61-2.66 1.27zm5.31-2.54-1.25-2.61 2.65-1.27 1.25 2.61-2.65 1.27zm5.44-2.6-1.38-2.53.1-.05 1.28 2.58zm-796.61-8.99c-.08-.18-.12-.38-.12-.6 0-.53.22-.87.67-1.03.09-.06.22-.09.39-.09.3 0 .88.16 1.74.46l2.36-1.23c1.22-.64 1.87-.98 1.95-1.02.1-.08.22-.12.36-.12.47 0 .74.26.83.79.02.09.02.18.02.25 0 .19-.2.41-.59.65-1.53.7-2.53 1.19-2.98 1.47.7.16 1.24.41 1.61.72.13.19.2.38.21.58.03.38-.06.68-.26.89-.29.31-.69.4-1.2.26-.52-.13-.87-.23-1.04-.27-.43-.12-.92-.27-1.46-.45-1.7 1.16-3.01 2.01-3.94 2.57-1.72 1.02-2.95 1.57-3.68 1.64-.24.02-.49-.1-.76-.37-.37-.37-.56-.88-.56-1.54 0-.42.27-.63.82-.63.12 0 .3.01.54.04.24.02.43.03.54.03.25 0 .47-.03.66-.09.84-.39 1.48-.71 1.92-.96.81-.47 1.6-.99 2.37-1.56-.22-.16-.36-.29-.4-.39zm4.03-11.15c-.8-.07-1.25-.13-1.35-.19-.36-.23-.54-.51-.54-.85 0-.47.25-.81.75-1.02.6-.11 1.09-.15 1.47-.11.47.05 1.01.18 1.62.39.43.15.82.42 1.17.8.27.3.4.65.4 1.07 0 .58-.3 1.2-.9 1.86-.47.52-1.03.96-1.66 1.31-.99.57-1.84.88-2.54.95-.33.03-.61-.05-.84-.24s-.34-.45-.34-.78c0-.51.25-.8.76-.88.44-.06.86-.19 1.24-.38.28-.13.65-.35 1.11-.65.64-.41.96-.72.96-.92-.01-.17-.45-.29-1.31-.36zm10.46 10.87c.02-.41.28-.92.76-1.54.83-1.07 2.06-1.6 3.7-1.6.39 0 .83.09 1.34.27.99.35 1.45.88 1.37 1.59-.07.61-.59 1.34-1.56 2.19-.73.64-1.5 1.22-2.3 1.74-3.28 2.14-5.51 3.32-6.68 3.55-.04.01-.09.01-.15.01-.3 0-.56-.21-.77-.63-.19-.28-.3-.59-.33-.95-.04-.47.15-.7.57-.7.13 0 .3.02.5.06.58.12 1.12.04 1.63-.24 1.3-.7 2.46-1.37 3.48-2-1.09-.3-1.61-.89-1.56-1.75zm6.33-11.9c.24 0 .44.11.62.34.17.23.26.46.26.71 0 .24-.12.44-.36.59-.94.59-1.99 1.21-3.16 1.85l-2.06 1.12c-.65.35-1.1.56-1.33.62-.13.06-.27.09-.4.09-.23 0-.38-.08-.45-.24-.19-.43-.28-.69-.28-.77 0-.46.27-.75.8-.88 1.99-.97 3.97-2.07 5.94-3.3.15-.09.29-.13.42-.13zm-2.23 10.48c-.49.06-.83.15-1.02.26-.62.35-.9.69-.85 1.01 0 .16.1.3.31.43.24.08.57.06.99-.07.79-.24 1.18-.63 1.18-1.19 0-.29-.2-.44-.61-.44zm10.56 3.8c-.69.56-1.55 1.16-2.6 1.79-1.19.72-1.97 1.11-2.34 1.17-.05.01-.11.01-.18.01-.42 0-.78-.24-1.09-.71-.27-.42-.4-.83-.4-1.23 0-.37.19-.57.56-.6.02 0 .07 0 .15-.01.08-.01.17-.01.26 0-.03 0 .18.02.63.05.43.03.68.03.76 0 .53-.2 1.21-.55 2.05-1.06 1.22-.75 2.17-1.49 2.86-2.23-.24-.17-.38-.42-.4-.75-.03-.4.2-.77.71-1.14.46-.34.9-.51 1.31-.51.66 0 1.02.32 1.07.97.15.06.53-.12 1.15-.53.18-.16.51-.4.99-.73.15-.02.28-.04.38-.04.14 0 .25.02.32.06.25.14.42.34.51.6.03.24-.03.49-.19.76s-.23.43-.22.48c.01.1.07.16.19.17.47.03 1.17-.45 2.12-1.44.39-.31.68-.46.85-.45.24.01.51.24.8.7.14.23.11.51-.09.85-.58.96-1.42 1.67-2.51 2.12-.53.22-1.01.34-1.44.35-.85.04-1.35-.3-1.48-1.03-.34.01-.95 0-1.85-.01-.26.24-1.22 1.04-2.88 2.39zm5.27-14.28c.24 0 .44.11.62.34.17.23.26.46.26.71 0 .24-.12.44-.36.59-.94.59-1.99 1.21-3.16 1.85l-2.06 1.12c-.66.35-1.1.56-1.33.62-.13.06-.27.09-.4.09-.23 0-.38-.08-.45-.24-.19-.43-.28-.69-.28-.77 0-.46.27-.75.8-.88 1.99-.97 3.97-2.07 5.94-3.3.14-.09.28-.13.42-.13zm10.82 14.28c-.69.56-1.55 1.16-2.6 1.79-1.19.72-1.97 1.11-2.34 1.17-.05.01-.11.01-.18.01-.42 0-.78-.24-1.09-.71-.27-.42-.4-.83-.4-1.23 0-.37.19-.57.56-.6.02 0 .08 0 .15-.01.08-.01.17-.01.26 0-.03 0 .18.02.63.05.43.03.68.03.76 0 .53-.2 1.21-.55 2.05-1.06 1.22-.75 2.17-1.49 2.86-2.23-.24-.17-.38-.42-.4-.75-.03-.4.21-.77.71-1.14.46-.34.9-.51 1.31-.51.66 0 1.02.32 1.07.97.15.06.53-.12 1.15-.53.18-.16.51-.4.99-.73.15-.02.28-.04.38-.04.14 0 .25.02.32.06.25.14.42.34.51.6.03.24-.03.49-.19.76s-.23.43-.22.48c.01.1.07.16.19.17.47.03 1.17-.45 2.12-1.44.39-.31.68-.46.85-.45.24.01.51.24.8.7.14.23.11.51-.09.85-.58.96-1.42 1.67-2.51 2.12-.53.22-1.01.34-1.44.35-.85.04-1.35-.3-1.48-1.03-.34.01-.96 0-1.85-.01-.26.24-1.21 1.04-2.88 2.39zm5.78-15.21c.92.02 1.59.46 2.04 1.33.08.27.12.58.12.92 0 .75-.19 1.38-.57 1.91-.94 1.29-2.47 2.02-4.58 2.19-1.01-.04-1.71-.36-2.11-.96-.22-.47-.33-.91-.33-1.33 0-.7.33-1.4.98-2.11 1.24-1.33 2.72-1.98 4.45-1.95zm-3.29 3.96c.11.16.34.29.67.38h.38c.15 0 .31 0 .47-.01.92-.38 1.55-.82 1.89-1.33.04-.1.06-.21.06-.31 0-.49-.39-.71-1.18-.67-.47.12-.8.24-.99.37-.43.21-.77.44-1 .7-.23.26-.35.49-.35.68 0 .06.02.12.05.19zm15 18.27c.24 0 .44.11.62.34.17.23.26.46.26.71 0 .13-.12.33-.37.6-.26.21-.89.6-1.89 1.15l-3.31 1.81c-.65.35-1.09.56-1.33.62-.13.06-.27.09-.4.09-.23 0-.38-.08-.45-.24-.19-.43-.28-.69-.28-.77 0-.46.27-.75.8-.88 1.99-.97 3.97-2.07 5.94-3.3.14-.08.28-.13.41-.13zm4.06-12.02c.24 0 .45.14.63.41.11.17.17.32.18.43.03.39-.31.81-1.03 1.24l-4.15 2.53c-1.62.99-3.04 1.72-4.26 2.2-.34.13-.55.2-.63.2-.78.09-1.27-.35-1.47-1.31-.02-.12-.04-.23-.04-.33 0-.39.2-.58.6-.58.13 0 .32.02.58.05s.45.05.58.05c.36 0 .66-.07.92-.21.27-.03 1.42-.65 3.44-1.87 1.67-1 2.88-1.76 3.61-2.28.5-.36.84-.53 1.04-.53z"/><path d="M22.71 367.31c-.13-.3-.2-.63-.2-1 0-.88.37-1.44 1.12-1.7.14-.1.36-.16.65-.16.5 0 1.46.25 2.88.76l3.9-2.04c2.02-1.06 3.1-1.62 3.23-1.68.17-.13.37-.2.59-.2.77 0 1.23.44 1.37 1.31.03.16.04.29.04.41 0 .31-.33.67-.98 1.08-2.53 1.16-4.18 1.97-4.94 2.43 1.16.27 2.05.67 2.66 1.2.21.31.33.63.35.96.05.63-.09 1.12-.43 1.47-.48.51-1.14.65-1.98.43-.86-.22-1.44-.37-1.72-.45-.72-.2-1.52-.44-2.41-.74-2.81 1.92-4.98 3.34-6.52 4.25-2.85 1.68-4.88 2.59-6.09 2.72-.39.04-.81-.16-1.25-.61-.61-.61-.92-1.46-.92-2.55 0-.69.45-1.04 1.35-1.04.2 0 .5.02.9.06.4.04.71.06.9.06.42 0 .78-.05 1.1-.16 1.38-.64 2.44-1.17 3.17-1.59 1.35-.78 2.65-1.65 3.92-2.59-.4-.24-.63-.46-.69-.63zm6.66-18.45c-1.33-.1-2.08-.21-2.23-.31-.6-.38-.9-.85-.9-1.41 0-.77.41-1.33 1.23-1.68.99-.18 1.8-.24 2.43-.18.77.08 1.67.29 2.68.65.72.25 1.36.69 1.94 1.33.44.5.67 1.08.67 1.76 0 .97-.5 1.99-1.49 3.08-.78.86-1.7 1.59-2.74 2.17-1.65.94-3.05 1.46-4.21 1.57-.55.05-1.01-.08-1.39-.39-.38-.31-.57-.74-.57-1.29 0-.85.42-1.33 1.25-1.45.73-.1 1.42-.31 2.06-.63.46-.22 1.07-.58 1.84-1.08 1.06-.68 1.59-1.19 1.59-1.53-.01-.29-.73-.49-2.16-.61zm16.64 21.33c0-.77.51-1.32 1.53-1.65.9-.29 1.84-.65 2.8-1.1-.59-.27-1.06-.52-1.41-.72-.77-.47-1.2-.84-1.27-1.12-.12-.39-.11-.75.02-1.08.14-.38.42-.59.82-.63 1.57-.14 2.93-.63 4.08-1.47.57-.42 1.1-.63 1.57-.63.1 0 .19.02.25.06.39.25.65.57.78.96.04.12.06.44.06.98-.01 0-.06.07-.14.2-.16.26-.38.47-.67.63-.27.24-.48.39-.61.47-.47.29-.74.45-.8.49-.35.2-.53.34-.53.43.01.04.12.08.33.14 1.12.31 1.68.8 1.68 1.47 0 .12-.08.33-.24.63-.3.33-.54.56-.72.69-.85.63-1.5 1.06-1.94 1.29-.42.31-.63.42-.63.33.01.07.21.29.59.67.21.31.34.52.39.61.01.09.02.18.02.25 0 .55-.54 1.15-1.61 1.8-8.4 5.09-13.2 7.69-14.4 7.8-.51.04-1.02-.33-1.53-1.12-.46-.68-.71-1.31-.76-1.88-.09-.9.29-1.35 1.16-1.35.25 0 .52.02.82.06.1.01.56.02 1.35.02.42 0 .84-.07 1.27-.2 1.65-.72 2.95-1.35 3.92-1.88 2.34-1.31 4.19-2.4 5.54-3.29-1.13-.73-1.72-1.35-1.72-1.86zm11.13-23.04c.39 0 .73.19 1.02.56.29.37.43.76.43 1.17 0 .4-.2.73-.59.98-1.55.98-3.3 2-5.23 3.06l-3.41 1.86c-1.08.59-1.82.93-2.19 1.02-.22.1-.44.16-.67.16-.38 0-.63-.13-.74-.39-.31-.72-.47-1.14-.47-1.27 0-.76.44-1.24 1.33-1.45 3.29-1.61 6.57-3.43 9.83-5.47.24-.15.47-.23.69-.23zm15.74 35.27c.39 0 .73.19 1.02.56.29.37.43.76.43 1.17 0 .21-.2.54-.61 1-.43.35-1.48.99-3.13 1.9l-5.49 3c-1.07.59-1.8.93-2.19 1.02-.22.1-.44.16-.67.16-.38 0-.63-.13-.74-.39-.31-.72-.47-1.14-.47-1.27 0-.76.44-1.24 1.33-1.45 3.29-1.61 6.57-3.43 9.83-5.47.24-.16.47-.23.69-.23zm3.73-13.93c.59-1.19.88-2 .88-2.43 0-.12-.03-.18-.1-.18-.03 0-.06.01-.1.04-.82.57-1.76 1.24-2.82 2-2.12 1.53-3.55 2.5-4.29 2.92l-3.55 2.02c-.85.48-1.65.85-2.39 1.1-.12.04-.24.06-.37.06-.42 0-.85-.23-1.29-.69-.71-.73-1.06-1.55-1.06-2.47 0-.34.08-.63.25-.88.26-.3.72-.45 1.39-.45.2 0 .48.01.85.03.37.02.66.03.85.03.4 0 .76-.04 1.06-.12.13-.07.22-.1.27-.12l.86-.47c1.42-.78 2.38-1.34 2.88-1.67l5.39-3.62c1.42-.95 2.29-1.48 2.61-1.57.46-.13.97-.03 1.55.31.85.5 1.27 1.31 1.27 2.45 0 1.02-.29 2.27-.88 3.76-.86 2.18-1.75 3.77-2.66 4.76-.17.18-.41.27-.72.27-.4 0-.82-.16-1.25-.47-.48-.34-.72-.7-.72-1.08 0-.39.12-.7.37-.92.51-.46 1.09-1.33 1.72-2.61zM93 370.8c-1.14.93-2.57 1.91-4.31 2.96-1.97 1.19-3.27 1.84-3.88 1.94-.08.01-.18.02-.29.02-.69 0-1.29-.39-1.8-1.18-.44-.69-.67-1.37-.67-2.04 0-.61.31-.95.92-1 .04 0 .12-.01.25-.02s.27-.01.43 0c-.05 0 .29.03 1.04.08.71.05 1.12.05 1.25 0 .88-.33 2-.91 3.39-1.76 2.01-1.24 3.59-2.47 4.74-3.68-.4-.29-.63-.7-.67-1.23-.05-.65.34-1.28 1.18-1.88.76-.56 1.48-.84 2.17-.84 1.1 0 1.68.54 1.76 1.61.25.09.88-.2 1.9-.88.3-.26.85-.67 1.65-1.21.25-.04.46-.06.63-.06.24 0 .41.03.53.1.42.24.7.57.84 1 .05.39-.05.81-.31 1.26-.26.45-.39.72-.37.79.01.17.12.26.31.27.77.05 1.94-.74 3.51-2.39.65-.51 1.12-.76 1.41-.74.4.01.85.4 1.33 1.16.24.38.18.85-.16 1.41-.97 1.59-2.35 2.76-4.15 3.51-.88.37-1.67.56-2.39.59-1.41.07-2.23-.5-2.45-1.7-.56.01-1.58.01-3.06-.02-.39.37-1.97 1.68-4.73 3.93zm8.72-23.65c.39 0 .73.19 1.02.56.29.37.43.76.43 1.17 0 .4-.2.73-.59.98-1.55.98-3.3 2-5.23 3.06l-3.41 1.86c-1.08.59-1.82.93-2.19 1.02-.22.1-.44.16-.67.16-.38 0-.63-.13-.74-.39-.31-.72-.47-1.14-.47-1.27 0-.76.44-1.24 1.33-1.45 3.29-1.61 6.57-3.43 9.83-5.47.24-.15.47-.23.69-.23zm223.84 317.46c1.23-.12 1.84-.51 1.84-1.18 0-.5-.28-.84-.84-1.02-.68-.22-1.53-.45-2.55-.69-.88-.35-1.31-.76-1.31-1.21 0-1.27.62-1.84 1.86-1.72.27.03.54.04.78.04.85 0 2.18-.41 4-1.23.2-.09.46-.14.78-.14.39 0 .73.16 1.01.48.28.32.42.68.42 1.07 0 .44-.25.81-.74 1.1-.43.2-.86.4-1.29.61.8.71 1.21 1.63 1.25 2.78.03.81-.31 1.53-1 2.17-1.5 1.38-3.67 2.08-6.5 2.08-.29 0-.93-.02-1.94-.06-4.17 3.45-7.07 5.66-8.7 6.64-2.64 1.58-4.35 2.33-5.13 2.25-.44-.09-.88-.56-1.31-1.39-.39-.77-.59-1.42-.59-1.94 0-.43.12-.75.37-.96.25-.13.52-.2.82-.2.22 0 .56.04 1.02.11.46.07.8.11 1.02.11.73 0 1.44-.22 2.14-.67 3.13-2.02 5.37-3.56 6.72-4.6-.16-.31-.24-.57-.24-.78 0-.64.16-1.16.47-1.55.81-1.02 1.77-1.51 2.88-1.47 1.38.05 2.2.56 2.45 1.51.99-.04 1.76-.08 2.31-.14zm-3.82-20.49c-1.33-.11-2.08-.21-2.23-.31-.6-.38-.9-.85-.9-1.41 0-.77.41-1.33 1.23-1.68.99-.18 1.8-.24 2.43-.18.77.08 1.67.29 2.68.65.72.25 1.36.69 1.94 1.33.44.5.67 1.08.67 1.76 0 .97-.5 1.99-1.49 3.08-.78.86-1.7 1.59-2.74 2.17-1.65.94-3.05 1.46-4.21 1.57-.55.05-1.01-.08-1.39-.39s-.57-.74-.57-1.29c0-.85.42-1.33 1.25-1.45.73-.1 1.42-.31 2.06-.63.46-.22 1.07-.58 1.84-1.08 1.06-.68 1.59-1.19 1.59-1.53 0-.29-.72-.49-2.16-.61zm9.82.06c-1.33-.11-2.08-.21-2.23-.31-.6-.38-.9-.85-.9-1.41 0-.77.41-1.33 1.23-1.68.99-.18 1.8-.24 2.43-.18.77.08 1.67.29 2.68.65.72.25 1.36.69 1.94 1.33.44.5.67 1.08.67 1.76 0 .97-.5 1.99-1.49 3.08-.78.86-1.7 1.59-2.74 2.17-1.65.94-3.05 1.46-4.21 1.57-.55.05-1.01-.08-1.39-.39s-.57-.74-.57-1.29c0-.85.42-1.33 1.25-1.45.73-.1 1.42-.31 2.06-.63.46-.22 1.07-.58 1.84-1.08 1.06-.68 1.59-1.19 1.59-1.53-.01-.29-.73-.49-2.16-.61zm12.46 22.04c-1.14.93-2.57 1.91-4.31 2.96-1.97 1.19-3.27 1.84-3.88 1.94-.08.01-.18.02-.29.02-.69 0-1.29-.39-1.8-1.18-.44-.69-.67-1.37-.67-2.04 0-.61.31-.95.92-1 .04 0 .12-.01.25-.02s.27-.01.43 0c-.05 0 .29.03 1.04.08.71.05 1.12.05 1.25 0 .88-.33 2-.91 3.39-1.76 2.01-1.24 3.59-2.47 4.74-3.68-.4-.29-.63-.7-.67-1.23-.05-.65.34-1.28 1.18-1.88.76-.56 1.48-.84 2.17-.84 1.1 0 1.68.54 1.76 1.61.25.09.88-.2 1.9-.88.3-.26.85-.67 1.65-1.21.25-.04.46-.06.63-.06.24 0 .41.03.53.1.42.24.7.57.84 1 .05.39-.05.81-.31 1.26-.26.45-.39.72-.37.79.01.17.12.26.31.27.77.05 1.94-.74 3.51-2.39.65-.51 1.12-.76 1.41-.74.4.01.85.4 1.33 1.16.24.38.18.85-.16 1.41-.97 1.59-2.35 2.76-4.15 3.51-.88.37-1.67.56-2.39.59-1.41.07-2.23-.5-2.45-1.7-.56.01-1.58.01-3.06-.02-.39.37-1.97 1.68-4.73 3.93zm9.56-25.17c1.52.03 2.64.76 3.37 2.19.13.44.2.95.2 1.53 0 1.24-.31 2.29-.94 3.15-1.55 2.13-4.08 3.34-7.58 3.62-1.67-.07-2.83-.59-3.49-1.59-.37-.77-.55-1.5-.55-2.19 0-1.16.54-2.32 1.63-3.49 2.05-2.2 4.5-3.28 7.36-3.22zm-5.44 6.54c.18.27.56.48 1.12.63h.63c.25 0 .51-.01.78-.02 1.53-.63 2.57-1.36 3.13-2.19.07-.17.1-.34.1-.51 0-.81-.65-1.18-1.96-1.12-.78.2-1.33.4-1.65.61-.72.34-1.27.72-1.66 1.16-.39.43-.58.8-.58 1.12.01.1.04.22.09.32zm21.57 15.14c-.13-.3-.2-.63-.2-1 0-.88.37-1.44 1.12-1.7.14-.1.36-.16.65-.16.5 0 1.46.25 2.88.76l3.9-2.04c2.02-1.06 3.1-1.62 3.23-1.68.17-.13.37-.2.59-.2.77 0 1.23.44 1.37 1.31.03.16.04.29.04.41 0 .31-.33.67-.98 1.08-2.53 1.16-4.18 1.97-4.94 2.43 1.16.27 2.05.67 2.66 1.2.21.31.33.63.35.96.05.63-.09 1.12-.43 1.47-.48.51-1.14.65-1.98.43-.86-.22-1.44-.37-1.72-.45-.72-.2-1.52-.44-2.41-.74-2.81 1.92-4.98 3.34-6.52 4.25-2.85 1.68-4.88 2.59-6.09 2.72-.39.04-.81-.16-1.25-.61-.61-.61-.92-1.46-.92-2.55 0-.69.45-1.04 1.35-1.04.2 0 .5.02.9.06.4.04.71.06.9.06.42 0 .78-.05 1.1-.16 1.38-.64 2.44-1.17 3.17-1.59 1.35-.78 2.65-1.65 3.92-2.59-.4-.24-.63-.46-.69-.63zm6.77-17.22c-.98.9-1.47 1.61-1.47 2.14 0 .07.03.12.08.16-.07.12.16.19.69.22 1.11.07 1.89-.01 2.33-.22.27-.05.52-.08.74-.08 1.35 0 2.02.53 2.02 1.59 0 .97-.43 1.5-1.29 1.61-.56.14-1.39.22-2.49.22-3.74 0-5.6-1.12-5.6-3.37 0-.31.04-.56.12-.72.43-1.44 1.35-2.76 2.76-3.96.69-.6 1.16-1.01 1.39-1.23.38-.35.92-.67 1.63-.94.22-.09.39-.12.51-.08 1.11.35 1.67 1.01 1.67 1.96 0 .47-.36.89-1.08 1.27-1.03.66-1.69 1.15-2.01 1.43zm27.13 12.31c.38-.17.63-.28.76-.33.31-.13.67.08 1.08.63.27.37.42.72.43 1.08.01.29-.24.65-.76 1.1-1.49 1.27-3.62 2.68-6.41 4.23-3.89 2.18-6.43 3.3-7.62 3.37-.46.03-.89-.14-1.29-.5s-.61-.77-.61-1.22c0-.25.47-.88 1.41-1.9.71-1.15 1.12-2.13 1.23-2.94l-.12-2.12c-.05-.99.19-1.59.72-1.8.47-.18.86-.25 1.18-.2.8.13 1.25.78 1.35 1.96.07.73.1 1.18.1 1.33 0 1.2-.28 2.23-.84 3.08 1.13-.42 4.26-2.34 9.39-5.77zm-2.45-13.54c-1.33-.11-2.08-.21-2.23-.31-.6-.38-.9-.85-.9-1.41 0-.77.41-1.33 1.23-1.68.99-.18 1.8-.24 2.43-.18.77.08 1.67.29 2.68.65.72.25 1.36.69 1.94 1.33.44.5.67 1.08.67 1.76 0 .97-.5 1.99-1.49 3.08-.78.86-1.7 1.59-2.74 2.17-1.65.94-3.05 1.46-4.21 1.57-.55.05-1.01-.08-1.39-.39-.38-.31-.57-.74-.57-1.29 0-.85.42-1.33 1.25-1.45.73-.1 1.42-.31 2.06-.63.46-.22 1.07-.58 1.84-1.08 1.06-.68 1.59-1.19 1.59-1.53 0-.29-.72-.49-2.16-.61z" fill="#bd0e72"/><path d="M787.6 843.24c.69-.02 1.25-.21 1.66-.56.24-.32.54-.48.88-.48.24 0 .47.1.67.31.2.2.3.43.3.67 0 .17-.05.35-.14.53-.44.57-.99.94-1.66 1.12-.46.13-1.14.19-2.05.19-.3 0-.7-.03-1.21-.08-.58.58-1.57 1.39-2.97 2.44-1.12.84-2.49 1.6-4.11 2.29-.31.08-.53.1-.66.07-.36-.08-.7-.48-1.04-1.2-.06-.12-.09-.29-.09-.51-.01-.23.03-.37.12-.43.17-.1.45-.15.84-.14.63.02 1.05-.01 1.25-.09.75-.28 1.58-.72 2.49-1.3.91-.58 1.65-1.16 2.21-1.72-.22-.15-.33-.37-.33-.67 0-.49.29-.87.86-1.15.33-.16.63-.22.89-.18.22.08.38.15.47.21.21.14.36.34.45.6.55.07.94.09 1.17.08zm-3.08 10.79c.24 0 .44.11.62.34.17.23.26.46.26.71 0 .13-.12.33-.37.6-.26.21-.89.59-1.89 1.15l-3.31 1.81c-.65.36-1.09.56-1.33.62-.13.06-.27.09-.4.09-.23 0-.38-.08-.45-.24-.19-.43-.28-.69-.28-.77 0-.46.27-.75.8-.88 1.99-.97 3.97-2.07 5.94-3.3.14-.09.27-.13.41-.13zm10.57-7.39c0-.47.31-.8.92-.99.54-.17 1.11-.4 1.69-.66-.36-.17-.64-.31-.85-.44-.47-.28-.72-.51-.77-.67-.07-.24-.07-.45.01-.65.09-.23.25-.35.5-.38.95-.09 1.77-.38 2.46-.89.35-.25.66-.38.95-.38.06 0 .11.01.15.03.24.15.39.34.47.58.02.07.04.27.04.59-.01 0-.04.04-.08.12-.09.16-.23.28-.4.38-.17.14-.29.24-.37.28-.28.17-.45.27-.49.3-.21.12-.32.21-.32.26.01.02.08.05.2.08.68.19 1.02.49 1.02.89 0 .07-.05.2-.14.38-.18.2-.33.33-.44.41-.51.38-.9.64-1.17.78-.25.19-.38.26-.38.2.01.04.13.17.36.4.13.19.21.31.24.37.01.06.01.11.01.15 0 .33-.32.69-.97 1.09-5.07 3.08-7.97 4.65-8.7 4.71-.31.02-.62-.2-.92-.68-.28-.41-.43-.79-.46-1.14-.06-.54.18-.82.7-.82.15 0 .32.01.5.04.06.01.34.01.82.01.25 0 .51-.04.77-.12.99-.43 1.78-.81 2.37-1.14 1.41-.79 2.53-1.45 3.35-1.99-.72-.42-1.07-.79-1.07-1.1zm4.92-12.89c-.8-.06-1.25-.13-1.35-.19-.36-.23-.54-.51-.54-.85 0-.47.25-.8.75-1.02.6-.11 1.09-.15 1.47-.11.47.05 1.01.18 1.62.39.43.15.82.42 1.17.8.27.3.4.65.4 1.06 0 .58-.3 1.2-.9 1.86-.47.52-1.03.96-1.66 1.31-.99.57-1.84.88-2.54.95-.33.03-.61-.05-.84-.24-.23-.19-.34-.45-.34-.78 0-.51.25-.8.76-.88.44-.06.86-.19 1.24-.38.28-.14.65-.35 1.11-.65.64-.41.96-.72.96-.92-.01-.16-.44-.28-1.31-.35zm10.05 11.98c-.57.04-.95.06-1.16.06-.52 0-.78-.29-.78-.87 0-.48.32-.8.95-.97l1.15-.3c1.33-.6 2.17-1.17 2.5-1.7.19-.3.49-.45.89-.45.13.02.29.1.49.24.36.24.52.56.49.94-.16.25-.31.43-.45.53-.34.25-.56.42-.66.5 1.62-.18 2.59-.3 2.92-.34.34.05.51.26.51.65 0 .32-.06.53-.17.64l-.66.43c-2.54 1.6-4.76 2.96-6.65 4.07-2.22 1.31-3.69 2.18-4.42 2.6-.44.25-1 .56-1.67.91-.12.06-.24.09-.37.09-.35 0-.65-.24-.91-.73-.22-.42-.33-.82-.33-1.21s.17-.58.51-.58c.13 0 .31.01.55.04.24.03.42.04.55.04.39 0 .74-.07 1.05-.21.05-.02.08-.03.09-.04h.01v.01c.01-.01.02-.02.04-.02l.94-.5c2.08-1.11 4.38-2.49 6.88-4.13-1.15.14-1.9.24-2.29.3zm1.28 8.3c.24 0 .44.11.62.34.17.23.26.46.26.71 0 .13-.12.33-.37.6-.26.21-.89.59-1.89 1.15l-3.31 1.81c-.65.36-1.09.56-1.33.62-.13.06-.27.09-.4.09-.23 0-.38-.08-.45-.24-.19-.43-.28-.69-.28-.77 0-.46.27-.75.8-.88 1.99-.97 3.97-2.07 5.94-3.3.14-.09.27-.13.41-.13zm11.18-9.4c.02-.41.28-.92.76-1.54.83-1.07 2.06-1.6 3.7-1.6.39 0 .83.09 1.34.27.99.35 1.45.88 1.37 1.59-.07.61-.59 1.34-1.56 2.19-.73.64-1.5 1.22-2.3 1.74-3.28 2.14-5.51 3.32-6.68 3.55-.04.01-.09.01-.15.01-.3 0-.56-.21-.77-.63-.19-.28-.3-.59-.33-.95-.04-.47.15-.7.57-.7.13 0 .3.02.5.06.58.12 1.12.04 1.63-.24 1.3-.7 2.46-1.37 3.48-2-1.1-.3-1.62-.89-1.56-1.75zm4.6-10.13c-.59.55-.89.97-.89 1.29 0 .04.02.07.05.09-.04.07.1.11.41.13.67.04 1.14 0 1.41-.13.17-.03.32-.05.45-.05.81 0 1.22.32 1.22.96 0 .58-.26.91-.78.97-.34.09-.84.13-1.5.13-2.26 0-3.39-.68-3.39-2.04 0-.19.02-.33.07-.44.26-.87.82-1.67 1.67-2.39.42-.36.7-.61.84-.74.23-.21.56-.4.98-.57.13-.06.24-.07.31-.05.67.21 1.01.61 1.01 1.19 0 .28-.22.54-.65.77-.62.41-1.02.7-1.21.88zm-.51 8.71c-.49.06-.83.15-1.02.26-.62.35-.9.69-.85 1.01 0 .16.1.3.31.43.24.08.57.06.99-.07.79-.24 1.18-.63 1.18-1.18.01-.31-.2-.45-.61-.45zm13.37-2.43c.22 0 .43.1.62.29.19.19.29.4.29.62 0 .15-.37.53-1.11 1.15-.27.22-.42.43-.45.62-.05.28.03.49.22.64.31.23.52.34.65.34.04 0 .16-.02.36-.07.39-.09.78-.22 1.2-.37.52-.19.85-.3.98-.34.25-.02.44.05.56.2.17.07.26.28.26.62 0 .28-.27.58-.8.88a588.4 588.4 0 0 0-4.15 2.31l-2.39 1.35c-1.29.72-2.15 1.14-2.59 1.24-.33.08-.55.1-.65.07-.21-.06-.42-.21-.65-.45-.22-.24-.36-.46-.41-.66-.13-.63-.03-.98.32-1.04.08-.02.21-.04.38-.04.09 0 .22.01.39.02s.3.02.39.02c.23 0 .41-.02.54-.06.39-.17.94-.43 1.67-.8 1.33-.68 2.35-1.24 3.07-1.68-.38-.09-.71-.27-.99-.56-.31-.3-.46-.64-.46-1.01 0-.84.76-1.85 2.27-3.03.2-.18.36-.26.48-.26zm.66-7.03c-.8-.06-1.25-.13-1.35-.19-.36-.23-.54-.51-.54-.85 0-.47.25-.8.75-1.02.6-.11 1.09-.15 1.47-.11.47.05 1.01.18 1.62.39.43.15.82.42 1.17.8.27.3.4.65.4 1.06 0 .58-.3 1.2-.9 1.86-.47.52-1.03.96-1.66 1.31-.99.57-1.84.88-2.54.95-.33.03-.61-.05-.84-.24-.23-.19-.34-.45-.34-.78 0-.51.25-.8.76-.88.44-.06.86-.19 1.24-.38.28-.14.65-.35 1.11-.65.64-.41.96-.72.96-.92-.01-.16-.44-.28-1.31-.35zm13.46 11.86c.36-.72.53-1.21.53-1.47 0-.07-.02-.11-.06-.11-.02 0-.04.01-.06.02-.5.35-1.07.75-1.7 1.21-1.28.92-2.14 1.51-2.59 1.76l-2.14 1.22c-.51.29-.99.51-1.44.66a.85.85 0 0 1-.22.04c-.25 0-.51-.14-.78-.41-.43-.44-.64-.94-.64-1.49 0-.2.05-.38.15-.53.16-.18.44-.27.84-.27.12 0 .29.01.52.02.22.01.4.02.51.02.24 0 .46-.02.64-.07.08-.04.13-.06.17-.07l.52-.28c.86-.47 1.44-.81 1.74-1.01l3.26-2.19c.86-.57 1.38-.89 1.57-.95.28-.08.59-.01.94.19.51.3.77.79.77 1.48 0 .62-.18 1.37-.53 2.27-.52 1.32-1.06 2.28-1.61 2.88-.1.11-.25.17-.44.17-.24 0-.5-.09-.76-.28-.29-.21-.44-.42-.44-.65 0-.24.07-.42.22-.56.3-.3.65-.83 1.03-1.6zm3.69-13.67c.62.11.94.42.95.92.01.54-.73 1.03-2.2 1.48-.71.21-1.21.59-1.49 1.14.17.21.49.36.95.44.43.03.97.11 1.65.24.36.16.5.49.41.98-.12.65-.58.97-1.37.97-.62 0-1.4-.17-2.32-.52-.69-.26-1.14-.67-1.35-1.23-.96.82-2.36 1.34-4.2 1.56-.34.04-.67 0-.98-.13-.39-.16-.59-.4-.59-.71 0-.58.27-.93.82-1.07.39 0 .91-.07 1.56-.2.92-.19 1.57-.49 1.94-.9-.07-.3-.45-.55-1.14-.75-.17-.03-.61-.09-1.33-.16-.4-.13-.6-.37-.6-.73 0-.06.01-.15.04-.27.13-.71.61-1.04 1.43-.98.47.03.94.11 1.4.24.92.25 1.65.82 2.19 1.72.53-.62 1.02-1.06 1.48-1.31.51-.28 1.29-.52 2.37-.72.09-.05.22-.04.38-.01z"/></svg>