<svg xmlns="http://www.w3.org/2000/svg" xml:space="preserve" x="0" y="0" version="1.1" viewBox="0 0 1000 1000"><path d="M421.14 36.46c-4.02-1.46-6.84-1.21-9.59 2.68-.36 1.98-.86 4.3-1.2 6.28-1.76 3.04-6.32 2.73-5.1-3.59 1.81-4.17 3.42-8.45 3.18-13.42-.46-8.42 4.09-11.96 13.68-8.08C440.23 26.03 453 38.76 462 50.41c3.32 8.15-.93 16.55-4.45 23.2-1.85 6.42-6.85 6.09-5.94-.92-.08-4.89-.51-9.28-3.06-12.5-8.83-9.44-16.09-16.18-27.41-23.73m51.31 38.47c-2.91-.59-4.73 1.37-5.13 4.91-3.23 2.93-7.8 1.49-5.61-5.31 3.1-3.89 1.79-7.56 2.82-11.41 4.48-6.95 9.43-4.9 13.13-2.98 16.89 4.85 28.81 10.92 37.19 19.66 5.37 4.1 7.03 7.77 3.08 13.62-4.99 4.3-9.38 9.48-13.56 15-6.06 4.55-7.55.75-5.97-2.91 1.83-3.24 3.65-6.47 5.46-9.73 1.13-2.84-.01-5.1-3.4-6.66-9.13-4.76-18.94-7.88-28.01-14.19m-286.01 60.59h.54c-.14-14.27-.3-28.53-.41-42.76.09-14.35 7.45-28.34 18.48-44.79 7.02-10.95 16.09-23.77 64.37-24.02 42.08-2.85 84.41-5.68 126.48-8.5 8.52-1.08 11.68 3.29 9.9 10.73-1.75 4.26-3.11 8.47-3.57 12.7-1.11 9.39-4.07 5.02-6.66 3.39-.41-3.09-.8-6.17-1.2-9.27 1.02-8.1-9.96-5.81-19.85-5.26-33.42 2.5-65.63 4.33-99.04 4.25-19.87 1.84-38.2 5.85-52.15 14.03-11.05 10.55-19.34 20.63-21.05 37.75 2.11 18.39-9.89 27.68.53 50.64 2.34 4.4.3 10.04 5.49 14.04 2.59.25 7.43.11 9.08 3.2 4.16 2.78 4.33 7.93-.57 8.48-8.45 3.88-15.92 6.92-23.8 12-5.82 3.37-8.16.92-7.02-6.78 1.79-9.19-.07-20.13.45-29.83" fill="#3b6287" fill-rule="evenodd" clip-rule="evenodd"/><path d="M642.87 679.61c0 5.13-4.16 9.3-9.31 9.3-5.14 0-9.31-4.17-9.31-9.3 0-5.13 4.17-9.3 9.31-9.3 5.15 0 9.31 4.17 9.31 9.3m-91.2 40.33c0 5.14-4.17 9.3-9.3 9.3-5.15 0-9.33-4.16-9.33-9.3 0-5.13 4.17-9.3 9.33-9.3 5.13 0 9.3 4.17 9.3 9.3" fill="#f26522"/><path d="M641.16 169.41c0 5.15-4.17 9.31-9.31 9.31a9.3 9.3 0 0 1-9.31-9.31 9.3 9.3 0 0 1 9.31-9.31c5.13-.01 9.31 4.16 9.31 9.31m141.36 44.97c0 5.16-4.17 9.33-9.31 9.33-5.15 0-9.32-4.16-9.32-9.33 0-5.14 4.17-9.3 9.32-9.3 5.13-.01 9.31 4.16 9.31 9.3m-6.43 33.73c0 5.16-4.17 9.3-9.31 9.3-5.15 0-9.31-4.14-9.31-9.3 0-5.14 4.16-9.3 9.31-9.3 5.13 0 9.31 4.16 9.31 9.3m-75.83 263.45c0 5.15-4.17 9.3-9.3 9.3-5.16 0-9.34-4.15-9.34-9.3s4.17-9.31 9.34-9.31c5.13 0 9.3 4.16 9.3 9.31m-38.55 64.25c0 5.15-4.17 9.3-9.3 9.3-5.15 0-9.32-4.15-9.32-9.3 0-5.14 4.17-9.3 9.32-9.3 5.12 0 9.3 4.16 9.3 9.3m-12.53 74.21c0 5.15-4.17 9.31-9.31 9.31s-9.31-4.16-9.31-9.31 4.17-9.31 9.31-9.31 9.31 4.16 9.31 9.31M311.85 903.83c0 5.15-4.16 9.3-9.3 9.3-5.16 0-9.31-4.15-9.31-9.3 0-5.14 4.15-9.3 9.31-9.3 5.14-.01 9.3 4.16 9.3 9.3" fill="#004b1c"/><path d="M359.14 804.23c0 4.4-3.57 7.97-7.97 7.97s-7.98-3.57-7.98-7.97c0-4.39 3.58-7.97 7.98-7.97s7.97 3.58 7.97 7.97" fill="#fff"/><path d="M351.16 814.91c-5.89 0-10.68-4.8-10.68-10.68 0-5.89 4.8-10.68 10.68-10.68 5.89 0 10.68 4.8 10.68 10.68.01 5.89-4.79 10.68-10.68 10.68zm0-15.94c-2.9 0-5.26 2.36-5.26 5.26s2.36 5.26 5.26 5.26 5.26-2.36 5.26-5.26c.01-2.9-2.35-5.26-5.26-5.26z" fill="#6f2c91"/><path d="M378.11 787.97c0 4.4-3.57 7.97-7.97 7.97s-7.98-3.57-7.98-7.97c0-4.39 3.58-7.97 7.98-7.97 4.41 0 7.97 3.57 7.97 7.97" fill="#fff"/><path d="M370.14 798.65c-5.89 0-10.68-4.8-10.68-10.68 0-5.89 4.8-10.67 10.68-10.67 5.89 0 10.68 4.79 10.68 10.67s-4.79 10.68-10.68 10.68zm0-15.94c-2.9 0-5.26 2.35-5.26 5.25s2.36 5.26 5.26 5.26 5.26-2.36 5.26-5.26-2.36-5.25-5.26-5.25z" fill="#6f2c91"/><path d="M399.8 774.41c0 4.4-3.57 7.97-7.97 7.97s-7.98-3.57-7.98-7.97c0-4.39 3.58-7.97 7.98-7.97s7.97 3.58 7.97 7.97" fill="#fff"/><path d="M391.82 785.1c-5.89 0-10.68-4.8-10.68-10.68 0-5.89 4.8-10.67 10.68-10.67s10.68 4.79 10.68 10.67c.01 5.88-4.79 10.68-10.68 10.68zm0-15.94c-2.9 0-5.26 2.35-5.26 5.25s2.36 5.26 5.26 5.26 5.26-2.36 5.26-5.26-2.35-5.25-5.26-5.25z" fill="#6f2c91"/><path d="M530.4 111.49c-4.38-4.28-8.03-4.01-11.54-2.48-1.71 1.39-3.44 2.74-5.15 4.14-5.95 3.83-6.91-.08-3.77-4.43 2.91-4.91 5.75-8.96 9.05-12.68 4.22-9.88 9.77-6.02 14.97-.59 10.44 10.28 24.21 16.71 33.79 28.41 6 7.28 13.33 11.8 21.64 14.89 9.68 2.99 19.39 5.83 29.08 8.82 7.2 3.49 8.26 8.22 3.09 13.88-4.03 3.15-8.08 6.29-12.13 9.42-5.05 2.86-14.02 4.97-10.82-3.23 2.75-3.06 3.4-5.97-.47-8.55-12.09-3.55-19.04-7.64-25.75-11.99-8.47 0-13.02 1.04-14.21-13.04-12.22-8.63-18.09-14.66-27.78-22.57m84.24 61.2c3.06-6.02 7.35-10.09 12.49-12.82 12.15-3.38 14.1 2.35 13.11 10.68-1.93 5.06-9.3 11.5-14.65 18.71-5.91 7.15-10.37 3.53-12.66-5-1.06-3.96-.13-7.61 1.71-11.57m140.09 27.09c-8.11-3.75-9.36-3.68-6.42 1.58 7.13 13.9 6.03 26.61 2.61 39.19-2.62 6.81 1.11 11.33 4.78-.82 3.27-8.34 6.3-15.74 11.45-23.64 1.02-3.57 2.15-6.03-.94-8.21-3.37-2.94-8.12-5.16-11.48-8.1m-565.47-17.77c.49-3.83 1.8-7.32 8.8-8.62 2.47.61 4.91-.69 7.37-.06 3.61-3.13 7.06-3.49 10.04-4 5.3 1.01 8.96 6.72 9.21 18.14 0 5.02-4.1 6.88-11.28 5.52-2.28-1.59-4.04-1.49-8.25-1.12-1.17.96-4.39 2.05-6.86 2.45-9.41 5.15-14.34-1.97-9.03-12.31m3.89 34.58c-2.24-8.71 1.4-11.81 9.01-8.34 12.27 2.45 20.04 6.01 20.07 13.71-4.84 9.63-2.76 18.3-2.05 27.16-1.19 6.58-6.66 8.6-15.05 7.5-12.36 2.99-12.89-2.13-11.71-8.39 1.35-10.95-.35-21.33-.27-31.64m3.62 56.02c-2.14-5.66-2.83-10.64 6.86-10.92 4.41.74 8.21.3 12.58-1.3 5.2-1.98 11.14 2.08 8.67 14.65 4 11.85-6.97 6.1-14.43 9.09-11.88 5.99-16.45 2.17-13.68-11.52m2.03 46.88c-.81-8.04 4.86-9.14 13.5-7.11 8.85-.89 13 2.92 12.52 11.49 2.46 8.97 4.4 14.19 5.26 22.41 5.29 9.17.99 15.9-6.85 11.33-5.31-1.94-10.63-3.35-15.93-3.71-4.06-.91-7.63-2.43-7.83-8.05.54-8.43.32-17.19-.67-26.36m-.68 46.55c4.03-8.31 13.92-9.57 17.43-1.38 2.23 9.93 3.76 14.67-.23 25.85-.66 5.06-1 17.13 2.79 23.46 7.34.56 7.36 10.13 2.35 10.88-5.19-.1-10.83 4.61-16.89 6.59-4.91.98-6.66-5.05-5.91-10.65.6-9.62 2.62-24.62.89-29.85-2.81-8.47-2.38-16.37-.43-24.9m1.55 75.17c3.13-4.46 7-6.2 11.58-5.18 2.68-.91 5.39-2.63 8.1-3.56 6.31-2.48 8.92.98 7.85 8.83-2.81 3.55-5.25 7.2-5.3 12.04-.42 14.17-5.16 17.09-11.88 14.88-5.39-2.15-9.42-5.33-12.1-9.56-3.3-9.24-1.17-13.68 1.75-17.45m-6.15 43.85c-1.31-7.56 6.82-8.66 16.6-6.79 6.08 4.04 10.75 8.79 14.11 14.24.94 9.49 1.9 21.17-4.94 21.71-4.56-1.02-9.37-2.14-14.61-1.77-9.85 3.81-11.81 0-10.16-7.26.97-5.77.81-12.35-1-20.13m.29 38.88c10.3-12.65 22.87-4.38 20.77 6.87-5.33 7.18-5.73 17.14-8.28 28.39-2.22 18.47-5 36.53.59 53.23 2.88 7.31 4.5 14.81 3.33 22.82-2.56 15.47-15.38 18.05-17.76 6.8-.04-17.81-1.11-35.66-2.5-53.48-2.91-21.78-1.46-43.46 3.85-64.63m-3.45 139.05c-1.93-9.1 1.97-12.3 12.27-9.04 6.47 2.34 10.72 6 11.76 11.49.33 3.17-2.74 5.94-2.99 9.27-.18 2.57 3.93 4.71 1.85 7.85.19 3.96-7.23 2.66-10.63 7.41-4.13 5.99-7.05 5.58-10.04 5.56-2.47-.13-3.04-6.56.28-15-.61-7.24-2.5-10.99-2.5-17.54m-1.9 46.13c.47-7.47 7.87-4.95 15.49-2.67 12.17 5.25 3.93 15.51 6.78 22.77.67 5.15.78 11.2-13.51 13.35-2.34.91-3.68 1.2-5.01 2.53-3.25 3.1-9.02.18-8.47-5.92.75-10.07 2.36-20.39 4.72-30.06m-9.69 52.57c-3.61-9.44 1.93-13.25 11.71-8.8 7.09 1.97 16.41.29 13.26 7.24-4.04 8.79 4.29 15.86-5.44 22.82-3.37 1.65-7.61 5.04-15.66 9.45-5.07 2.46-7.21.18-5-6.82 1.97-7.96 3.16-15.53 1.13-23.89m-4.36 47.97c.06-7.47 6.7-7.39 15.45-4.8 6.9 1.27 9.42 4.72 8.59 10.38-2.1 7.36 6.48 16.11-2.37 21.56-6.54 4.02-9.56 5.77-14.42 12.4-3.6 2.61-7.13-.55-6.19-10.09-.18-9.82-.45-19.66-1.06-29.45m9.35 50.68c7.95-5.04 12.87-3.03 14.78 6.06 1.16 3.3-4.73 10.13-4.06 15.28.96 7.28 2.05 14.93-.73 20.67-5.94 7.23-11.67 7.67-12.35-.37-.43-4.51-.42-9.19-.87-13.68-2.18-2.43-3.31-5.65-3.97-9.27-1.06-6.87.04-13.32 7.2-18.69m113.16-7.38c-2.74 5.02-6.89 7.81-12.31 8.26-14.38-4.57-17.65 2.05-15.42 7.93 2.33 8.42.93 18.05-7.18 29.89-13.43 10.15-22.9 18.75-39.17 25.46-20.57-2.85-23.75 5.74-18.02 17.02 7.92 12.02 19.8 22.36 43.31 25.12 15.83-3.73 34.94-6.39 55.83-33.91 5.62-13.5 9.96-27.7 17.7-41.69.94-1.71.87-3.84 1.18-5.79-.59-7.48-1.24-14.96-1.84-22.49 1.66-7.38 4.08-14.39 9.48-18.37 8.71-6.37 16.31-14.72 23.86-22.69 17.18-14.61 34.51-28.55 53.05-37.92 20.51-9.18 44.08-18.99 56-43.39 9.63-5.46 20.02-13.81 37.82-8.5 14.12 7.55 28.17 9.08 46.69 5.05 11.73-3.3 24.47-5.39 44.1-6.81 14.85 1.01 30.1-2.2 50.47-42.61 4.84-30.93 19.35-61.88 15.7-93.04-.77-6.6-.31-12.57 2.78-17.22 3.47-11.12-4.65-18.96-17.86-6.94-4.87 1.04-17.33 22.58-23.95 41.06-5.17 14.4-12.17 24.83-6.61 24.19 3.68-.44 4.65 1.36 4.32 3.81-.31 2.41-1.94 5.44-3.5 7.45-15.61 24.92-35.43 46.46-53.24 49.37-18.48 4.26-40.22 3.68-61.25 2.73-10.28-.46-20.37 1.92-29.82 4.98-2.92 1.03-11.19 5.29-14.15 3.69-8.08-8.19-15.49-5.61-12.77 5.9-3.04 7.48-9.8 12.84-16.11 17.71-30.31 19.26-53.35 38.94-79.67 54.45-23.71 23.18-31.6 40.32-49.42 67.3" fill="#3b6287" fill-rule="evenodd" clip-rule="evenodd"/><path d="M282.71 902.33c.27-6.99-.6-12.2-9.34-5.3-11.49 13.98-24.94 23.76-41.06 29.32-15.26 6.68-6.34 7.51 6.56 8.67 21.13-1.2 34.63-13.32 43.84-32.69m522.66-682.97c13.89-36.31-1.84-45.52-24.97-43.32-13.71.68-24.69 1.66-36.95-.04-12.57-1.52-22.72-3.19-29.62-6.97-3.96-.99-10.08-.8-18.06 4-6.13 2.22-29.86.04-30.22-2.54-10.81-5.4-12.33-7.29-17.53-6.67-4.84-.36-6.83 9.68-9.88 19.74-.15 12.25 9.89 16.26 13.53 12.09 3.73-8.06 9.49-10.45 16.62-9.05 12.69 3.1 24.92 2.17 37.31 7.32 18.14 6.99 28.43 20.37 32.37 41.15.14 23.84-2.16 29.54-11.21 54.9-3.9 5.45-7.63 11.82-4.97 17.42 5.2 10.8 1.79 19.35-.69 31.48-1.97 57.34-25.14 101.35-36.15 149.26-3.1 9.76-7.21 17.87-12.39 24.21-2.91 10.9 11.8 27.12 18.31 18.27 4.52-6.01 9.08-11.97 13.62-17.99 18.78-32.89 28.21-62.89 42.53-99.81 5.77-25.11 5.3-52.84-.25-83.42-.49-13.49.74-26.56 5.74-38.72 20.5-24.29 37.73-43.42 52.86-71.31M638.52 514.67c4.25.26 4.41-6.16 9.49-4.47.6.24 1.25.51 1.84.79.59-.26 1.11-.36 1.56-.26 3.04 1.97 4.42 3.1 5.71 4.29 5.29 3.65 9.8 8.36 13.56 13.45 2.57 11.59-3.59 14.12-10.91 10.82-2-2.02-4.19-1.96-6.29-7.15-1.03-4.33-11.76-4.14-15.14-6.8-3.29-3.8-5.55-7.51.18-10.67m-10.64 14.48c4.15 4 8.36 1.53 5.58-5.69-4.14-5.27-9.17-9.14-15.53-11.37-5.64-1.51-8.18 1.29-7.7 5.02 1.57 2.69 6.81 2.93 9.65 4.74 4.77 1.79 6.01 4.65 8 7.3m3.08 75.3c1.41-4.76 10.98 1.27 11.8 8.1.75 3.25-8.98 1.64-9.37 9.19-.28 2.03 3.18 5.19 2.85 7.24-.25 2.01-4.3 4.64-4.36 6.66-.5 13.15-2.52 24.37-6.78 35.07-7.41 7.43-13.69 10.76-21.64 13.18-1.07-.05-4.11 1.63-1.07 3.2 5.26 2.75.49 8.39-2.5 11.1-7.15 2.47-11.6 7.99-20.93 8.49-10.2.55-18.71 5.74-28.49 9.13-13.53.83-26.48 1.55-38.7 1.05-8.75-2.32-5.9-4.37-.39-5.1 10.05 0 20.1.02 30.19.04 6.28-1.86 10.76-7.17 17.29-6.9 6.12.24 12.42-.79 17.16-3.27 6.97-6.25 14.53-11.82 21-20.81 7.56-8.2 14.63-16.91 22.18-25.11 8.14-9.52 10.17-30.36 11.76-51.26M452.09 82.91c4.36-1.32 6.59.7 9.56 4.07 3 3.4 3.61 9.26 1.33 10.96-2.31 1.75-5.28-.31-9.89-4.06-4.65-3.82-5.41-9.66-1-10.97" fill="#3b6287" fill-rule="evenodd" clip-rule="evenodd"/><path d="M690.14 489.32c2.81-1.64 5.57-.9 5.62 1.6-1.24 8.41-3.46 13.5-7.89 20.41-3.32 4.79-5.9 3.03-4.73-1.07.06 0 6.06-17.52 7-20.94m-137.8 27.56c2.76-.06 5.19 2.35 5.24 4.44.02 2.12-1.77 3.7-4.52 3.73-2.76.02-5.48-1.54-5.52-3.63-.05-2.08 2.05-4.54 4.8-4.54m17.03-20.01c2.49-.04 4.68 2.53 4.71 4.62.02 2.1-1.57 3.7-4.08 3.72-2.48.02-4.97-1.51-4.98-3.64-.01-2.09 1.85-4.68 4.35-4.7M537.17 548c4.49-.72 8.26 1.05 7.85 3.99-.42 2.97-.79 2.87-7.1 4.76-6.32 1.88-8.72-1.89-8-4.56.7-2.73 2.76-3.48 7.25-4.19m64.96-36.77c4.26-1.68 8.49-3.72 8.19-.74-.29 2.94-2.99 3.58-6.6 5.1-3.61 1.57-6.91 3.19-8.35.51-1.46-2.69 2.49-3.15 6.76-4.87m-76.06-6.4c3.63-.04 6.6 2.43 6.64 5.47.03 3.04-1.9 4.37-6.51 5.56-4.6 1.22-7.88-.9-6.65-5.41 1.23-4.54 2.9-5.55 6.52-5.62m27.9 49.91c-3.91 3.11-.07 8.08 3.3 6.77 5.93-2.81 9.9-3.13 15.85-2.56 2.27.98 3.12 2.68 2.02 4.07-.69 1.98-1.76 3.08-3.22 4.72-1.42 3.82.46 5.55 5.02 5.19 3.34-2.14 6.31-3.82 6.97-9.72.69-5.49-.99-8.09-7.93-11.67-6.58-1.01-12.08-1.44-22.01 3.2m-96.32-38.47c3.29.72 4.98 2.5 5 5.66.04 3.16-1.17 5.45-3.91 5.52-2.7.01-5.38-1.5-5.99-5.39-.61-3.92 1.6-6.49 4.9-5.79m-.51-44.49c2.57-.51 4.33.25 5.3 2.48.99 2.26.83 4.26-1.07 5.12-1.95.87-4.3.59-5.94-2-1.63-2.6-.84-5.13 1.71-5.6m-79.64 2.1c2.56-.5 4.3.26 5.3 2.5.98 2.23.81 4.24-1.11 5.1-1.93.82-4.32.59-5.93-2.03-1.62-2.55-.85-5.09 1.74-5.57m-28.13-18.67c2.57-.5 4.33.26 5.32 2.5.96 2.23.81 4.24-1.13 5.1-1.93.86-4.28.62-5.92-2-1.63-2.62-.83-5.09 1.73-5.6m-7.17-88.71c1.49-2.18 3.29-2.87 5.54-1.95 2.29.87 3.57 2.41 2.82 4.39-.79 1.95-2.66 3.43-5.62 2.72-2.97-.69-4.21-3.01-2.74-5.16m-41.41 22.96c1.34-2.19 2.96-2.85 5.03-1.95 2.06.9 3.25 2.43 2.58 4.39-.7 1.98-2.41 3.45-5.13 2.76-2.7-.71-3.81-3.03-2.48-5.2m-24.16 2.94c1.47-2.39 3.26-3.13 5.56-2.15 2.29 1 3.58 2.7 2.8 4.87-.75 2.21-2.6 3.81-5.6 3.03-3-.78-4.25-3.35-2.76-5.75m60.25 18.33c2.57-.51 3.81.04 5.29 2.5 1.51 2.52 1.67 4.69-1.13 5.13-2.79.44-4.27.6-5.88-2.01-1.64-2.59-.86-5.12 1.72-5.62m161.53 58.86c2.56-1.41 4.67-1.15 6.44.85 1.81 2.04 2.32 4.19.57 5.76-1.73 1.54-4.3 2.06-6.9-.1-2.59-2.17-2.62-5.1-.11-6.51m44.98-38.13c2.52-1.39 4.62-1.17 6.43.84 1.81 2.05 2.32 4.21.57 5.76-1.76 1.57-4.33 2.09-6.93-.09-2.56-2.21-2.59-5.11-.07-6.51m-24.57-34.09c2.52.02 4.04 1.24 4.59 3.87.53 2.65 0 4.78-1.99 5.31-2.01.51-4.22-.26-5.28-3.44-1.12-3.16.1-5.74 2.68-5.74m-53.37 9.74c1.63-1.96 3.56-2.35 5.91-1.09 2.36 1.3 3.71 3.06 2.8 4.93-.86 1.86-2.87 3.06-6.01 1.86-3.12-1.19-4.33-3.74-2.7-5.7m-65.83 125.47c1.67-2.34 3.61-3.01 5.98-1.88 2.37 1.08 3.68 2.88 2.75 5.05-.88 2.14-2.95 3.72-6.07 2.76-3.14-.94-4.32-3.6-2.66-5.93m-6.27 9.97c1.69-2.34 3.62-3 6-1.89 2.36 1.11 3.68 2.89 2.76 5.04-.92 2.14-2.97 3.71-6.12 2.78-3.11-.93-4.3-3.6-2.64-5.93m-52.51-9.35c3.24 1.1 4.64 3.01 4.16 5.99-.5 3-2.09 4.99-4.86 4.66-2.76-.29-5.24-2.05-5.2-5.8.05-3.77 2.68-5.95 5.9-4.85m-8.27-27.58c1.46-2.57 3.5-3.49 6.42-2.7 2.88.78 4.73 2.35 4.11 4.6-.6 2.29-2.62 4.12-6.35 3.61-3.72-.49-5.62-2.99-4.18-5.51m-64.23 28.73c1.06-3.04 3.08-3.27 5.65-2.54 2.55.72 4.19 2.23 3.64 4.36-.55 2.14-2.47 3.37-5.61 3.39-3.12.01-4.73-2.19-3.68-5.21m11.83 15.01c.99-2.17 2.87-2.6 5.26-2.53 2.37.05 3.88 2.22 3.39 4.37-.49 2.12-2.31 3.35-5.22 3.37-2.89.03-4.41-3.03-3.43-5.21m19.34-4.85c3.53 1.41 2.87 3.34 4.3 7.24 1.43 3.87.48 7-2.65 6.36-3.09-.68-2.91-2.3-5.52-7.28-2.63-4.99.33-7.72 3.87-6.32m-12.25 43.25c4.95-.08 7.43 3.93 7.78 8.13.26 2.88-.16 4.34-2.87 4.47-1.22.02-3.14-1.8-5.28-1.08-6.91 2.35-11.49 3.51-9.78-3.21 1.73-6.75 5.24-8.26 10.15-8.31m-66.88 57.05c2.96.36 3.94 1.51 3.99 3.42.02 1.92-1.76 3.47-3.95 3.5-2.19.02-3.37-1.24-4-3.4-.64-2.2.98-3.89 3.96-3.52m3.28 20.89c3.24-.44 4.29-1.75 4.29-3.81-.03-2.07-1.4-3.29-4.37-3.72-2.96-.39-5.18.52-4.86 3.65.31 3.16 1.71 4.35 4.94 3.88m5.97 47.92c4.51.28 5.87-1.58 5.44-4.42-.42-2.85-1.77-3.27-5.53-3.69-3.75-.4-6.57.53-6.16 3.66.42 3.13 1.77 4.14 6.25 4.45m1.42 38.04c2.52 0 3.25.69 4.65 3.72 1.4 3-.68 4.71-4.59 3.75-3.9-.92-4.62-1.62-4.64-3.66-.02-2.07 2.03-3.77 4.58-3.81m307.74-105.85c4.03 1.08 4.85 1.87 4.88 4.19 0 2.32-2.16 4.25-4.79 4.25-2.65.04-3.46-.72-4.85-4.15-1.39-3.45.78-5.36 4.76-4.29m-67.05 14.89c3.47 1.1 3.48 3.71 3.53 6.07.02 2.29-1.81 4.22-4.1 4.22-2.3.02-2.99-.72-4.19-4.19-1.18-3.44 1.32-7.21 4.76-6.1m-49.36 27.86c3.46.97 3.51 3.35 3.52 5.42.02 2.11-1.81 3.86-4.09 3.86-2.27.02-3-.65-4.2-3.76-1.18-3.07 1.33-6.53 4.77-5.52m-53.82-7.03c3.69.81 3.73 2.85 3.74 4.64.05 1.8-1.93 3.25-4.4 3.3-2.43.03-3.18-.56-4.46-3.22-1.3-2.62 1.43-5.56 5.12-4.72m-3.73 31.44c3.7.84 3.74 2.84 3.75 4.61.04 1.82-1.93 3.27-4.41 3.3-2.45.04-3.2-.54-4.46-3.2-1.29-2.63 1.41-5.54 5.12-4.71m-60.53 39.39c3.71.8 3.75 2.82 3.77 4.61.03 1.79-1.96 3.25-4.4 3.3-2.44.03-3.19-.55-4.49-3.2-1.27-2.64 1.43-5.56 5.12-4.71m14.4 37.43c3.93.41 4.87 3.63 5.67 6.51.8 2.87-.48 5.74-2.83 6.41-2.33.67-3.33-.09-5.74-3.99-2.37-3.96-1.06-9.31 2.9-8.93m-14.43 1c3.78 1.22 3.58 5.29 3.39 8.85-.21 3.59-2.46 6.81-5.02 7.16-2.53.34-3.24-.76-4.27-5.88-.99-5.15 2.16-11.31 5.9-10.13m11.01-28.39c.59-3.94 3.84-4.73 6.74-5.4 2.93-.68 5.75.72 6.29 3.12.55 2.35-.23 3.33-4.27 5.55-4.02 2.2-9.32.64-8.76-3.27m-38.34 5.2c4.34-.98 5.18.87 5.92 2.48.73 1.65-.85 3.93-3.46 5.1-2.68 1.18-3.72 1.01-6.13-.87-2.42-1.79-.63-5.72 3.67-6.71m60.18-71.4c3.72.82 3.75 2.86 3.78 4.65.03 1.77-1.97 3.25-4.42 3.27-2.43.02-3.2-.54-4.46-3.19-1.28-2.63 1.42-5.56 5.1-4.73m-13.35 14.48c3.71.82 3.77 2.87 3.77 4.64.01 1.79-1.96 3.26-4.42 3.29-2.42.03-3.19-.55-4.46-3.19-1.26-2.65 1.4-5.55 5.11-4.74m-34.56-45.11c2.84 1.85 3.4 4.84 3.47 7.85.03 3.04-1.63 5.5-4.04 5.54-2.45 0-5.11 0-4.51-5.44.6-5.44 2.23-9.83 5.08-7.95m19.8.15c-3.09 3.55-5.82 3.07-8.84 3.3-3.01.2-6.43-.36-6.93-3.39-.52-2.98.76-4.39 7.18-4.14 6.4.22 11.67.69 8.59 4.23m256.85.59c2.42.42 4.81 1.83 4.86 4.17 0 2.32-2.16 4.22-4.78 4.25-2.66.05-5.06-1.39-4.84-4.14.19-2.77 2.32-4.72 4.76-4.28m-12.1-67.68c2.43.43 4.8 1.75 4.84 4.04.03 2.35-2.1 4.26-4.76 4.28-2.63.03-5.06-1.38-4.87-4.15.22-2.79 2.33-4.56 4.79-4.17m-15.78.86c2.94-.46 5.62.28 5.15 3.5-.52 3.2-2.16 4.24-4.79 4.28-2.67.03-5.07-1.42-4.85-4.17.2-2.79 1.59-3.16 4.49-3.61m-7.86 14.76c2.95-.02 5.63 1.77 5.14 4.33-.51 2.54-2.14 3.85-4.78 3.88-2.65.03-5.06-1.42-4.86-4.19.21-2.78 1.57-3.95 4.5-4.02m-17.72-13.34c2.94-.04 5.62 1.75 5.11 4.3-.5 2.55-2.11 3.86-4.78 3.88-2.63.02-5.05-1.4-4.84-4.17.19-2.78 1.56-3.93 4.51-4.01m-57.68 26.73c2.97-.08 5.65 1.74 5.17 4.28-.52 2.56-2.16 3.87-4.8 3.9-2.63.02-5.03-1.4-4.84-4.17.18-2.79 1.55-3.97 4.47-4.01m-44.87-19.84c2.96-.04 5.65 1.77 5.16 4.29-.51 2.57-2.15 3.86-4.79 3.88-2.65.02-5.05-1.39-4.87-4.19.2-2.73 1.57-3.92 4.5-3.98m-61.25 34.81c2.96-.05 5.65 1.79 5.15 4.29-.53 2.57-2.16 3.87-4.79 3.87-2.65.05-5.05-1.38-4.85-4.15.19-2.77 1.58-3.95 4.49-4.01m-63.2-15.32c2.94-.08 5.62.68 5.14 4.29-.51 3.56-2.14 4.19-4.79 3.87-2.65-.34-5.04-1.4-4.85-4.17.18-2.79 1.54-3.95 4.5-3.99m15.43-.46c.65 4.11-.07 8.95-3.73 8.74-3.62-.25-4.59-3.68-4.76-7.43-.21-3.78-.12-8.73 2.68-8.82 2.78-.08 5.19 3.34 5.81 7.51m74.06-52.62c3.32-.06 6.27 1.74 5.71 4.28s-2.36 3.86-5.33 3.89c-2.97.02-5.63-1.42-5.41-4.16.24-2.77 1.75-3.97 5.03-4.01m1.16 35.62c3.22 2.35 5 5.95 2.93 7.57-2.11 1.64-4.61 1.34-7.5-.76-2.88-2.13-4.62-5.21-2.74-7.28 1.88-2.01 4.07-1.83 7.31.47m195.87 17.26c2.94-.05 5.61 1.77 5.1 4.29-.49 2.56-2.1 3.86-4.76 3.91-2.66.02-5.06-1.4-4.84-4.2.17-2.76 1.54-3.93 4.5-4m-325.24-322.7c3.46.81 5.11 1.53 5.12 3.51.02 1.95-2.23 3.58-5.05 3.61-2.81.03-4.47-.66-5.12-3.52-.69-2.82 1.58-4.42 5.05-3.6m40.26 36.21c3.19.82 4.76 1.55 4.76 3.51.02 1.96-2.08 3.58-4.68 3.6-2.62.05-4.17-.68-4.8-3.51-.65-2.81 1.47-4.44 4.72-3.6m9.86-51.3c3.25.84 5.02 2.3 5.05 4.26.02 1.95-2.11 3.59-4.71 3.63-2.63 0-4.15-.7-4.8-3.55-.62-2.8 1.24-5.17 4.46-4.34m-29.84-3.08c3.86.51 5.66 1.95 5.04 4.26-.65 2.27-2.11 3.56-4.74 3.61-2.61.02-4.14-.7-4.78-3.52-.65-2.81.6-4.86 4.48-4.35m60.78 15.61c3.85.53 5.66 1.97 5.04 4.27-.63 2.28-2.17 3.91-4.47 3.6-2.29-.29-4.09-1.01-5.02-3.52-.97-2.49.58-4.83 4.45-4.35m-27.17-48.03c3.49.46 5.13 1.8 4.56 3.87-.59 2.08-1.99 3.55-4.06 3.26-2.09-.23-3.7-.92-4.57-3.17-.85-2.26.56-4.38 4.07-3.96m45.94 8.59c2.52.6 4.87 3 4.3 5.68-.53 2.68-1.95 4.54-4.03 4.22-2.08-.37-5.3-1.2-4.55-4.12.75-2.93 1.73-6.41 4.28-5.78m65.9 34.66c2.4.58 4.58 2.82 4.08 5.32-.55 2.49-2.58 4.28-3.82 3.94-1.18-.34-3.5-1.14-4.01-3.86-.51-2.72 1.38-5.94 3.75-5.4m-20.19-69.89c2.61.59 5.02 2.83 4.43 5.33-.56 2.5-2.8 4.26-4.13 3.93-1.32-.36-3.86-1.13-4.42-3.85-.57-2.72 1.54-5.96 4.12-5.41m5.89-66.74c2.33.58 4.5 2.82 4 5.32-.52 2.49-2.53 4.26-3.74 3.94-1.18-.38-3.46-1.14-3.98-3.86-.49-2.73 1.37-5.94 3.72-5.4m-45.18-38.37c2.9.61 5.65 2.82 5 5.33-.68 2.48-3.19 4.26-4.68 3.93-1.49-.34-4.32-1.09-4.97-3.83-.63-2.72 1.71-5.97 4.65-5.43m-40.14 14.92c2.67.53 5.13 2.54 4.53 4.8-.57 2.24-2.86 3.89-4.24 3.55-1.34-.29-3.91-.98-4.49-3.45-.57-2.45 1.58-5.4 4.2-4.9m-31.18-4.2c2.98.58 5.76 2.88 5.11 5.43-.68 2.55-3.23 4.37-4.78 4.02-1.54-.35-4.43-1.13-5.09-3.93-.64-2.8 1.76-6.09 4.76-5.52m-8.78-25.7c2.98.59 5.77 2.88 5.12 5.42-.68 2.58-3.25 4.37-4.78 4.04-1.52-.35-4.45-1.14-5.07-3.93-.64-2.79 1.76-6.1 4.73-5.53m32.73-9.73c3 .58 5.76 2.9 5.12 5.45-.67 2.55-3.25 4.37-4.8 4.03-1.52-.36-4.41-1.14-5.05-3.93-.66-2.78 1.76-6.1 4.73-5.55m36.38-5.09c2.7.51 5.2 2.59 4.61 4.9-.59 2.32-2.94 3.97-4.33 3.69-1.39-.34-4.01-1.06-4.6-3.57-.54-2.55 1.59-5.54 4.32-5.02M236.46 86.9c2.75.52 5.3 2.61 4.69 4.99s-2.99 4.02-4.41 3.7c-1.41-.3-4.06-1.05-4.64-3.6-.61-2.59 1.59-5.64 4.36-5.09m-23.9 13.41c2.75.56 5.31 2.65 4.69 5.02-.61 2.34-2.99 4.02-4.39 3.71-1.41-.33-4.08-1.06-4.66-3.62-.61-2.58 1.61-5.65 4.36-5.11m56.86 77.93c5.78-1.06 8.49 2.1 6.41 5.68-2.05 3.57-4.1 4.38-6.02 4.03-1.95-.35-5.58-1.13-6.39-3.91-.81-2.78.21-4.7 6-5.8M436 216.75c3.1.76 5.29 3.75 4.61 7.09-.69 3.32-2.65 5.67-4.24 5.21-1.62-.46-4.62-1.51-5.32-5.12-.67-3.62 1.81-7.92 4.95-7.18m-67.35-18.26c2.58.51 5.02 2.54 4.43 4.8-.57 2.24-2.81 3.87-4.13 3.55-1.36-.29-3.87-.98-4.41-3.45-.6-2.47 1.5-5.39 4.11-4.9m-53.08-30.03c3.3-.5 5.56 2.22 4.77 4.8-.78 2.61-3.04 3.91-4.48 3.56-1.4-.3-4.11-1-4.68-3.44-.63-2.45 1.07-4.36 4.39-4.92m-73.99 22.12c3.32-.5 5.14 1.39 4.76 4.79-.37 3.44-3.01 4.37-4.7 3.57-1.67-.78-3.9-1-4.51-3.46-.59-2.44 1.15-4.35 4.45-4.9m-.82 12.58c3.27-.7 5.15 1.83 4.76 6.34-.36 4.54-3.96 6.99-5.65 5.95-1.68-1.07-2.45-2.59-3.05-5.87-.62-3.24.62-5.75 3.94-6.42m5.14-52.63c4.48.1 4.8-1.13 8.39 6.47 3.58 7.6-3.11 7.5-7.86 3.84-4.75-3.68-5.29-1.97-6.08-4.46-.8-2.45 1.05-5.96 5.55-5.85m140.2 35.49c3.29-.83 5.58 3.63 4.78 7.89-.76 4.25-2.99 6.3-4.45 5.76-1.43-.49-3.39-1.66-4.01-5.69-.62-4.02.38-7.11 3.68-7.96m-89.62 23.72c2.6.55 5.02 2.82 4.43 5.31-.56 2.5-2.83 4.25-4.14 3.93-1.31-.36-3.83-1.12-4.43-3.85-.54-2.71 1.56-5.98 4.14-5.39m59.31 8.86c3.96.8 8.76 7.22 8.42 12.8-.3 5.57-7.75.41-9.68-2.04-1.94-2.4-10.57-.32-11.5-4.29-.93-3.99 8.78-7.27 12.76-6.47m1.42 34.27c5.3-3.23 8.75-1.31 7.83 2.81-.91 4.11-2.42 5.42-4.36 5.73-1.92.36-5.62.86-7.3-1.41-1.65-2.31-1.5-3.92 3.83-7.13m-111.9-18.61c3.49.43 5.13 1.75 4.56 3.83-.57 2.08-1.97 3.57-4.07 3.27-2.08-.26-4.66.06-5.51-2.2-.86-2.26 1.5-5.37 5.02-4.9m-6.71-15.41c3.51.53 5.14 2.07 4.58 4.49-.55 2.36-1.97 4.07-4.04 3.75-2.1-.31-4.66.07-5.53-2.56-.87-2.61 1.46-6.18 4.99-5.68m66.17 44.13c3.52.46 6.34 1.77 5.79 3.84-.56 2.09-3.18 3.81-5.25 3.52-2.09-.27-3.71-1.15-4.6-3.42-.86-2.27.55-4.4 4.06-3.94m-18.78 46.35c5.17.5 7.56 1.91 6.72 4.21-.86 2.3-2.91 4.89-5.96 4.61-3.06-.31-5.49-1.98-6.72-4.49-1.28-2.48.78-4.81 5.96-4.33m347.02 192.95c2.82.67 4.27 1.79 4.3 4.07.01 2.24-1.88 4.12-4.22 4.14-2.34.02-4.64-2.34-4.28-4.07.34-1.71 1.38-4.81 4.2-4.14m36.95-27.05c2.8.68 3.38 2.11 3.38 4.36.03 2.24-1.84 4.12-4.19 4.14-2.34.05-4.65-2.32-4.29-4.03.36-1.73 2.3-5.14 5.1-4.47M602 394.48c2.82.67 3.4 2.1 3.43 4.36.01 2.24-1.88 4.1-4.21 4.12-2.33.03-4.65-2.34-4.3-4.03.34-1.75 2.25-5.12 5.08-4.45m42.77 29.86c3.14-.08 5.79 2.45 7.83 6.37 2.03 3.93 1.14 7.73-.93 8.78-2.08 1.1-7.43-2-8.65-5.12-1.23-3.14-1.38-9.95 1.75-10.03m-23.35 62.83c2.82.67 3.39 2.1 3.43 4.35.02 2.28-1.86 4.12-4.21 4.17-2.35 0-4.65-2.39-4.33-4.08.38-1.7 2.27-5.11 5.11-4.44m-8.65-29.07c2.21 1.39 3.26 2.79 1.45 7.33-1.81 4.55-5.5 8.46-7.83 8.46-2.35.05-3.63-4.75-1.86-8.21 1.73-3.46 5.97-8.96 8.24-7.58m22.18-4.06c7.81 2.13 7.15 5.68 7.21 10.33.05 4.65-3.85 8.5-8.66 8.55-4.83.05-8.35-4.4-8.83-8.37-.49-3.96 2.48-12.61 10.28-10.51M211.65 297.1c10.4 0 16.1-.37 15.01 3.94-1.15 4.29-6.97 5.06-15.2 5.13-8.21.11-14.07-1.43-14.69-4.8-.63-3.44 4.51-4.27 14.88-4.27m353.96-64.46c3.72-.03 5.13 2.62 5.17 5.9.01 3.31-.91 5.67-5.03 6.04-4.15.35-3.64-1.77-4.17-5.59-.55-3.84.31-6.3 4.03-6.35m-20.36 68.13c2.98-.06 4.16 2.11 4.19 4.75.03 2.68-.73 4.59-4.1 4.89-3.34.29-2.91-1.42-3.37-4.53-.44-3.11.28-5.1 3.28-5.11m-53.24 7.13c2.98-.03 4.16 1.77 4.19 3.98.01 2.23-.75 3.84-4.08 4.07-3.38.25-2.95-1.18-3.38-3.75-.45-2.59.26-4.27 3.27-4.3m33.68 34.44c3.95-.05 5.43 1.75 5.46 3.94.02 2.21-.98 3.86-5.4 4.12-4.41.26-3.86-1.18-4.41-3.77-.58-2.6.38-4.24 4.35-4.29m56.05 7.03c3.46-.03 4.76 1.74 4.77 3.96.02 2.24-.83 3.83-4.67 4.09-3.89.27-3.39-1.17-3.89-3.75-.49-2.61.31-4.26 3.79-4.3m51.22 9.4c3.46-.03 4.37 2.21 3.94 4.96-.46 2.75-1.69 4.74-5.57 5.06-3.9.3-3.1-1.46-3.06-4.71.06-3.22 1.24-5.27 4.69-5.31m-143.1-118.73c2.89-.03 4.01 2.05 4.06 4.62.03 2.59-.7 4.46-3.94 4.73-3.26.3-2.85-1.36-3.29-4.38-.4-2.98.27-4.91 3.17-4.97m4.74-52.35c2.47-.03 3.83 2.98 3.87 6.74.03 3.73-2.59 7.46-5.06 7.49-2.45.03-3.18-3.67-3.21-7.39-.05-3.72 1.94-6.82 4.4-6.84" fill="#3b6287" fill-rule="evenodd" clip-rule="evenodd"/><path d="M618.34 153.33c0 5.15-4.17 9.3-9.31 9.3-5.15 0-9.33-4.15-9.33-9.3s4.17-9.3 9.33-9.3c5.14 0 9.31 4.15 9.31 9.3m22.83 16.07c0 5.15-4.17 9.3-9.31 9.3-5.15 0-9.33-4.15-9.33-9.3s4.17-9.3 9.33-9.3c5.13 0 9.31 4.15 9.31 9.3m147.94 38.4c0 5.15-4.17 9.3-9.31 9.3-5.15 0-9.33-4.15-9.33-9.3s4.17-9.3 9.33-9.3c5.14 0 9.31 4.15 9.31 9.3M660.06 526.16c0 5.15-4.17 9.3-9.31 9.3-5.15 0-9.33-4.15-9.33-9.3s4.17-9.3 9.33-9.3c5.13-.01 9.31 4.15 9.31 9.3m1.66 49.65c0 5.15-4.17 9.3-9.31 9.3-5.15 0-9.33-4.15-9.33-9.3s4.17-9.3 9.33-9.3c5.13 0 9.31 4.15 9.31 9.3m-12.53 74.21c0 5.15-4.17 9.3-9.31 9.3-5.15 0-9.32-4.15-9.32-9.3s4.17-9.3 9.32-9.3c5.14 0 9.31 4.15 9.31 9.3M271.53 944.16c0 5.15-4.17 9.3-9.31 9.3-5.15 0-9.32-4.15-9.32-9.3s4.17-9.3 9.32-9.3c5.14-.01 9.31 4.15 9.31 9.3" fill="#004b1c"/><path d="M266.87 944.16c0 1.28-1.04 2.32-2.33 2.32a2.33 2.33 0 0 1-2.33-2.32c0-1.29 1.05-2.33 2.33-2.33 1.28-.01 2.33 1.04 2.33 2.33m386.77-367.97c0 1.28-1.04 2.32-2.33 2.32-1.28 0-2.32-1.04-2.32-2.32a2.324 2.324 0 1 1 4.65 0m-2.55-48.39c0 1.28-1.04 2.32-2.33 2.32-1.28 0-2.32-1.04-2.32-2.32a2.324 2.324 0 1 1 4.65 0" fill="#f5ee6d"/><path d="m655.55 275.63 7.33 9.17c1.04 1.29 1.93 2.16 2.67 2.63.55.33 1.12.49 1.73.49v.57h-10.85v-.57c.69-.05 1.13-.17 1.33-.32.2-.16.3-.35.3-.57 0-.42-.47-1.24-1.41-2.42l-4.79-6-.76.64v5.69c0 1.09.06 1.77.18 2.03.13.26.36.5.71.68.35.19.91.29 1.67.29v.57h-10.5v-.57h.69c.6 0 1.09-.11 1.46-.32.26-.15.47-.39.61-.74.12-.24.17-.89.17-1.94v-13.7c0-1.07-.05-1.73-.17-2-.12-.26-.34-.5-.69-.7-.34-.19-.8-.3-1.39-.3h-.69v-.57h10.37v.57c-.71 0-1.24.11-1.61.31-.26.15-.48.38-.64.72-.12.26-.18.91-.18 1.97v6.48l7.73-6.25c1.07-.87 1.61-1.57 1.61-2.09 0-.39-.22-.7-.66-.93-.23-.11-.78-.18-1.67-.21v-.57h8.12v.57c-.73.05-1.29.18-1.72.39-.41.21-1.37.92-2.86 2.13l-6.09 4.87zm21.61-8.41v17.04c0 1.28.05 2.1.17 2.45.11.36.35.65.71.87.35.23.93.34 1.72.34h.48v.57h-10.97v-.57h.55c.89 0 1.52-.1 1.91-.31.38-.2.64-.49.77-.85.13-.35.2-1.19.2-2.5v-10.8c0-.96-.05-1.57-.14-1.81-.1-.23-.26-.44-.52-.61-.25-.17-.54-.25-.87-.25-.52 0-1.15.17-1.91.5l-.28-.55 7.67-3.5h.51zm14.44 456.14 7.33 9.17c1.04 1.29 1.93 2.16 2.67 2.63.55.33 1.12.49 1.73.49v.57h-10.85v-.57c.69-.05 1.13-.17 1.33-.32.2-.16.3-.35.3-.57 0-.42-.47-1.24-1.41-2.42l-4.79-6-.76.64v5.69c0 1.09.06 1.77.18 2.03.13.26.36.5.71.68.35.19.91.29 1.67.29v.57h-10.5v-.57h.69c.6 0 1.09-.11 1.46-.32.26-.15.47-.39.61-.74.12-.24.17-.89.17-1.94v-13.7c0-1.07-.05-1.73-.17-2-.12-.26-.34-.5-.69-.7-.34-.19-.8-.3-1.39-.3h-.69v-.57h10.37v.57c-.71 0-1.24.11-1.61.31-.26.15-.48.38-.64.72-.12.26-.18.91-.18 1.97v6.48l7.73-6.25c1.07-.87 1.61-1.57 1.61-2.09 0-.39-.22-.7-.66-.93-.23-.11-.78-.18-1.67-.21v-.57h8.12v.57c-.73.05-1.29.18-1.72.39-.41.21-1.37.92-2.86 2.13l-6.09 4.87zm24.39 12.86h-12.25v-.34c3.76-4.48 6.04-7.49 6.84-9.03.8-1.55 1.21-3.06 1.21-4.53 0-1.08-.34-1.97-1-2.68-.67-.72-1.48-1.07-2.45-1.07-1.58 0-2.81.78-3.67 2.36l-.57-.2c.56-1.96 1.4-3.42 2.52-4.36a5.948 5.948 0 0 1 3.91-1.41c1.06 0 2.01.24 2.89.73.87.5 1.55 1.18 2.04 2.02.49.86.73 1.66.73 2.4 0 1.37-.37 2.75-1.13 4.15-1.04 1.9-3.29 4.54-6.78 7.93h4.5c1.11 0 1.83-.05 2.16-.14.33-.1.6-.25.83-.47.21-.22.5-.69.84-1.4h.56l-1.18 6.04zM236.444 349.117l2.378-.086.085 2.349-2.378.085zm4.77-.17 2.378-.086.085 2.349-2.378.086zm4.77-.18 2.378-.086.085 2.349-2.378.085zm4.76-.17 2.378-.086.085 2.349-2.378.086zm4.77-.18 2.378-.086.085 2.349-2.378.086zm4.77-.16 2.379-.085.084 2.348-2.378.086zm4.77-.18 2.379-.085.084 2.348-2.378.086zm4.856 2.173-.09-2.34 2.38-.1.09 2.33zm4.674-2.523 2.379-.085.084 2.348-2.378.086zm4.866 2.173-.09-2.35 2.38-.1.09 2.36zm4.674-2.523 2.379-.085.084 2.348-2.378.086zm4.856 2.173-.09-2.35 2.38-.1.09 2.36zm4.674-2.522 2.389-.086.084 2.348-2.388.086zm4.77-.18 2.379-.086.084 2.349-2.378.085zm4.77-.17 2.379-.086.084 2.348-2.378.086zm4.76-.18 2.379-.086.084 2.349-2.378.085zm4.77-.17 2.389-.086.084 2.348-2.388.086zm4.77-.18 2.379-.086.084 2.349-2.378.085zm4.856 2.172-.08-2.35 2.38-.09.08 2.35zm4.674-2.522 2.379-.085.084 2.348-2.378.086zm4.856 2.172-.08-2.35 2.39-.09.09 2.35zm4.684-2.522 2.379-.085.084 2.348-2.378.086zm4.856 2.172-.08-2.35 2.38-.09.09 2.35zm4.674-2.522 2.379-.085.084 2.348-2.378.086zm4.77-.179 2.389-.087.084 2.349-2.388.086zm4.77-.17 2.379-.086.084 2.348-2.378.086zm4.77-.181 2.379-.085.084 2.348-2.378.086zm4.76-.169 2.379-.086.084 2.348-2.378.086zm4.78-.18 2.379-.086.084 2.348-2.378.086zm4.77-.171 2.379-.085.084 2.348-2.378.086zm4.76-.179 2.379-.086.084 2.348-2.378.086zm4.856 2.181-.09-2.35 2.39-.1.08 2.35zm4.684-2.531 2.379-.086.084 2.349-2.378.085zm4.856 2.181-.09-2.35 2.39-.1.08 2.35zm4.674-2.531 2.379-.086.084 2.349-2.378.085zm4.856 2.171-.09-2.34 2.39-.1.08 2.35zm4.684-2.521 2.379-.086.084 2.349-2.378.086zm4.77-.18 2.379-.086.084 2.349-2.378.085zm4.76-.169 2.379-.086.084 2.348-2.378.086zm4.77-.18 2.389-.087.084 2.349-2.388.086zm4.77-.17 2.379-.086.084 2.348-2.378.086zm4.77-.18 2.379-.086.084 2.348-2.378.086zm4.846 2.18-.08-2.34 2.38-.11.09 2.34zm4.685-2.52 2.388-.087.085 2.349-2.389.086zm4.855 2.17-.08-2.35 2.38-.1.09 2.35zm4.684-2.52 2.379-.086.084 2.348-2.378.086zm4.846 2.17-.08-2.35 2.38-.1.09 2.35zm4.684-2.52 2.389-.086.084 2.348-2.388.086zm4.856 2.17-.08-2.34 2.38-.11.09 2.34zm4.684-2.52 2.379-.086.085 2.348-2.379.086zm4.76-.18 2.379-.086.084 2.349-2.378.085zm4.77-.17 2.389-.086.084 2.348-2.388.086zm4.77-.18 2.379-.086.085 2.349-2.379.086zm4.77-.17 2.379-.086.084 2.349-2.378.085zm4.76-.18 2.379-.086.085 2.349-2.379.086zm4.866 2.17-.08-2.35 2.38-.08.08 2.34zm4.674-2.52 2.379-.085.084 2.348-2.378.086zm4.856 2.17-.09-2.35 2.39-.09.08 2.35zm4.674-2.52 2.379-.085.084 2.348-2.378.086zm4.866 2.17-.08-2.35 2.38-.09.08 2.35zm4.674-2.52 2.379-.085.084 2.348-2.378.086zm4.77-.18 2.379-.085.085 2.348-2.379.086zm4.76-.17 2.379-.085.085 2.348-2.379.086zm4.78-.18 2.379-.085.084 2.348-2.378.086zm4.76-.17 2.379-.085.084 2.349-2.378.085zm4.77-.18 2.379-.085.084 2.348-2.378.086zm4.856 2.18-.09-2.36 2.38-.09.09 2.35zm4.684-2.53 2.379-.085.084 2.349-2.378.085zm4.856 2.18-.09-2.35 2.38-.1.09 2.35zm4.674-2.53 2.379-.085.084 2.349-2.378.085zm4.856 2.18-.09-2.35 2.39-.1.09 2.35zm4.684-2.529 2.379-.086.084 2.349-2.378.086zm4.856 2.179-.09-2.35 2.38-.1.09 2.35zm4.674-2.529 2.379-.086.084 2.349-2.378.086zm4.76-.179 2.389-.086.084 2.348-2.388.086zm4.78-.171 2.379-.085.084 2.348-2.378.086zm4.76-.18 2.379-.085.084 2.348-2.378.086zm4.77-.17 2.379-.085.084 2.348-2.378.086zm4.76-.179 2.389-.086.084 2.348-2.388.086zm4.866 2.178-.08-2.35 2.38-.1.08 2.35zm4.674-2.528 2.379-.086.084 2.349-2.378.085zm4.856 2.178-.08-2.35 2.38-.1.08 2.35zm4.675-2.518 2.388-.086.085 2.348-2.389.087zm4.865 2.158-.08-2.33 2.38-.11.08 2.34zm4.675-2.508 2.378-.086.085 2.349-2.379.086zm4.77-.18 2.378-.086.085 2.349-2.379.085zm4.77-.17 2.378-.086.085 2.349-2.379.086zm4.77-.18 2.378-.086.085 2.349-2.379.086zm4.76-.17 2.378-.085.085 2.348-2.379.086zm4.77-.18 2.378-.086.085 2.349-2.379.086zm4.865 2.168-.09-2.34 2.38-.09.09 2.34zm4.675-2.518 2.378-.085.085 2.348-2.379.086zm4.855 2.168-.09-2.35 2.38-.09.09 2.35zm4.675-2.518 2.378-.085.085 2.348-2.379.086zm4.865 2.168-.09-2.35 2.38-.09.09 2.35zm4.675-2.518 2.378-.085.085 2.348-2.379.086zm4.855 2.168-.09-2.34 2.38-.09.09 2.33zm4.675-2.517 2.378-.086.085 2.348-2.379.086zm4.77-.18 2.378-.086.085 2.349-2.379.085zm4.77-.17 2.378-.086.085 2.349-2.379.085zm4.76-.18 2.378-.086.085 2.349-2.379.085zm4.77-.17 2.378-.086.085 2.349-2.379.085zm4.77-.18 2.378-.085.085 2.348-2.379.086zm4.855 2.167-.08-2.35 2.38-.08.08 2.34zm4.675-2.517 2.378-.085.085 2.348-2.379.086zm4.855 2.157-.08-2.34 2.38-.09.08 2.35zm4.685-2.507 2.378-.085.085 2.348-2.379.086zm4.855 2.177-.08-2.35 2.38-.1.09 2.35zm4.675-2.526 2.378-.086.085 2.348-2.379.086zm4.77-.181 2.378-.085.085 2.348-2.379.086zm4.77-.169 2.378-.086.085 2.348-2.379.086zm4.769-.18 2.379-.086.085 2.348-2.379.086zm4.76-.17 2.379-.086.085 2.349-2.379.085zm4.771-.18 2.388-.086.085 2.348-2.389.086zm4.865 2.176-.09-2.35 2.39-.1.08 2.35zm4.675-2.526 2.378-.086.085 2.349-2.379.085zm4.855 2.176-.09-2.35 2.39-.1.08 2.35zm4.675-2.526 2.388-.086.085 2.349-2.389.086zm4.865 2.166-.09-2.34 2.39-.1.08 2.34zm4.675-2.506 2.378-.086.085 2.349-2.379.085zm4.855 2.166-.09-2.35 2.39-.1.08 2.35zm4.675-2.516 2.388-.086.085 2.349-2.389.086zm4.78-.18 2.378-.086.085 2.349-2.379.086zm4.76-.17 2.378-.085.085 2.348-2.379.086zm4.77-.18 2.378-.086.085 2.349-2.379.086zm4.76-.169 2.388-.086.085 2.348-2.389.086zm4.78-.181 2.378-.085.085 2.348-2.379.086zm4.845 2.166-.08-2.35 2.38-.09.09 2.35zm4.685-2.516 2.378-.085.085 2.348-2.379.086zm4.845 2.166-.08-2.35 2.39-.09.09 2.35zm4.695-2.515 2.378-.086.085 2.348-2.379.086zm4.845 2.165-.08-2.34 2.38-.1.09 2.34zm4.685-2.515 2.378-.086.085 2.348-2.379.086zm4.77-.18 2.378-.086.085 2.349-2.379.085zm4.77-.17 2.378-.086.085 2.349-2.379.085zm4.76-.18 2.378-.086.085 2.349-2.379.086zm4.77-.17 2.378-.086.085 2.349-2.379.085zm4.77-.18 2.378-.086.085 2.349-2.379.086zm4.855 2.165-.09-2.35 2.39-.08.08 2.34zm4.675-2.515 2.378-.085.085 2.348-2.379.086zM904 326.95l-.09-2.35 2.39-.09.08 2.35zm4.685-2.515 2.378-.085.085 2.348-2.379.086z"/><path d="m913.54 326.61-.09-2.36 2.39-.09.08 2.35zm4.76-.18-.08-2.36 2.38-.08m-258.89-11.65c-19.06 0-34.57-15.51-34.57-34.57 0-19.06 15.51-34.57 34.57-34.57 19.06 0 34.57 15.51 34.57 34.57 0 19.06-15.51 34.57-34.57 34.57zm0-66.07c-17.37 0-31.5 14.14-31.5 31.5 0 17.37 14.14 31.5 31.5 31.5 17.37 0 31.5-14.14 31.5-31.5 0-17.37-14.14-31.5-31.5-31.5zm36.47 513.75c-19.06 0-34.57-15.51-34.57-34.57 0-19.06 15.51-34.57 34.57-34.57 19.06 0 34.57 15.51 34.57 34.57 0 19.06-15.51 34.57-34.57 34.57zm0-66.07c-17.37 0-31.5 14.14-31.5 31.5 0 17.37 14.14 31.5 31.5 31.5 17.37 0 31.5-14.14 31.5-31.5 0-17.37-14.14-31.5-31.5-31.5z"/><path d="M533.63 192.76c-.11-.24-.16-.51-.16-.81 0-.71.3-1.17.91-1.38.12-.08.29-.13.52-.13.4 0 1.18.21 2.33.62l3.16-1.65c1.64-.86 2.51-1.31 2.62-1.37.14-.11.3-.16.48-.16.62 0 1 .35 1.11 1.06.02.13.03.24.03.33 0 .25-.26.55-.79.87-2.05.94-3.39 1.6-4 1.97.94.22 1.66.55 2.16.97.17.25.26.51.29.78.04.51-.07.91-.35 1.19-.39.41-.93.53-1.6.35-.7-.18-1.16-.3-1.4-.37-.58-.16-1.23-.36-1.95-.6-2.28 1.56-4.04 2.71-5.29 3.45-2.31 1.37-3.95 2.1-4.94 2.21-.32.03-.66-.13-1.02-.49-.5-.5-.75-1.19-.75-2.06 0-.56.37-.84 1.1-.84.16 0 .4.02.73.05.33.03.57.05.73.05.34 0 .64-.04.89-.13 1.12-.52 1.98-.95 2.57-1.29 1.09-.64 2.15-1.33 3.18-2.1-.32-.2-.5-.38-.56-.52zm5.4-14.96c-1.08-.09-1.68-.17-1.81-.25-.49-.31-.73-.69-.73-1.14 0-.62.33-1.08 1-1.37.8-.15 1.46-.2 1.97-.14.62.06 1.35.24 2.18.52.58.2 1.11.56 1.57 1.08.36.4.54.88.54 1.43 0 .78-.4 1.61-1.21 2.49-.64.7-1.38 1.29-2.22 1.76-1.33.76-2.47 1.19-3.41 1.27-.44.04-.82-.06-1.13-.32-.31-.25-.46-.6-.46-1.05 0-.69.34-1.08 1.02-1.18.59-.08 1.15-.25 1.67-.51.37-.18.87-.47 1.49-.87.86-.55 1.29-.96 1.29-1.24-.01-.22-.59-.38-1.76-.48zm21.38 10.66c.19-.04.33-.06.43-.05.06-.02.13-.03.21-.03.29 0 .52.15.71.46.17.26.25.55.25.84 0 .38-.16.66-.49.83l-1.14.44c-.39.15-.98.37-1.76.65-.41.15-.62.26-.62.35 0 .02.01.04.02.06-.02.03-.04.06-.05.1 0 .08.25.35.76.79.39.34.62.8.7 1.4.04.32.03.58-.03.79-.21.71-.68 1.32-1.41 1.84-.65.47-1.37.77-2.16.92-1.42.28-2.61.43-3.57.46-1.59.06-2.49.02-2.7-.14-.48-.2-.71-.8-.71-1.81 0-.52.15-.8.46-.84.12-.02.48.07 1.08.28.6.21 1.03.31 1.29.31.54 0 1.01-.03 1.41-.08 1.04-.14 1.67-.25 1.91-.35 1.02-.23 1.52-.63 1.52-1.19-.13-.21-.55-.53-1.27-.97-.58-.35-.87-.8-.87-1.35 0-.98 1.36-1.97 4.07-2.97.93-.34 1.59-.59 1.96-.74zm1.14-12.04c.32 0 .59.15.83.45s.35.62.35.95-.16.59-.48.79c-1.26.79-2.67 1.62-4.24 2.48l-2.76 1.51c-.88.48-1.47.75-1.78.83-.18.08-.36.13-.54.13-.31 0-.51-.11-.6-.32-.25-.58-.38-.93-.38-1.03 0-.61.36-1.01 1.08-1.18 2.67-1.3 5.33-2.78 7.97-4.43.19-.12.37-.18.55-.18zm16.04 17.3c.48-.96.71-1.62.71-1.97 0-.1-.03-.14-.08-.14a.16.16 0 0 0-.08.03c-.67.47-1.43 1.01-2.29 1.62-1.72 1.24-2.87 2.03-3.48 2.37l-2.87 1.64c-.69.39-1.33.69-1.94.89-.1.03-.2.05-.3.05-.34 0-.69-.19-1.05-.56-.57-.59-.86-1.26-.86-2 0-.28.07-.51.21-.71.21-.24.59-.37 1.13-.37.16 0 .39.01.69.02.3.02.53.02.69.02.33 0 .61-.03.86-.1.11-.05.18-.08.22-.1l.7-.38c1.15-.64 1.93-1.09 2.33-1.35l4.37-2.94c1.15-.77 1.86-1.2 2.11-1.27.37-.11.79-.02 1.25.25.69.4 1.03 1.06 1.03 1.99 0 .83-.24 1.84-.71 3.05-.7 1.77-1.42 3.05-2.16 3.86-.14.15-.33.22-.59.22-.33 0-.67-.13-1.02-.38-.39-.28-.59-.57-.59-.87 0-.32.1-.57.3-.75.45-.38.91-1.08 1.42-2.12zm2.86-18.54c1.23.02 2.14.61 2.73 1.78.11.36.16.77.16 1.24 0 1.01-.25 1.86-.76 2.56-1.26 1.73-3.31 2.71-6.15 2.94-1.36-.05-2.3-.48-2.83-1.29-.3-.62-.44-1.22-.44-1.78 0-.94.44-1.88 1.32-2.83 1.66-1.79 3.65-2.66 5.97-2.62zm-4.42 5.31c.15.22.45.39.91.51h.51c.2 0 .41-.01.64-.02 1.24-.51 2.09-1.1 2.54-1.78.05-.14.08-.28.08-.41 0-.66-.53-.96-1.59-.91-.64.16-1.08.32-1.33.49-.58.28-1.03.59-1.34.94s-.47.65-.47.91c-.01.09.01.18.05.27zm18.46 13.8c1-.1 1.49-.41 1.49-.95 0-.4-.23-.68-.68-.83-.55-.18-1.24-.37-2.06-.56-.71-.29-1.06-.61-1.06-.98 0-1.03.5-1.49 1.51-1.4.22.02.43.03.64.03.69 0 1.77-.33 3.24-1 .16-.07.37-.11.64-.11.32 0 .59.13.82.39.23.26.34.55.34.87 0 .36-.2.66-.6.89-.35.16-.7.32-1.05.49.65.57.98 1.32 1.02 2.26.02.66-.25 1.24-.81 1.76-1.22 1.12-2.98 1.68-5.27 1.68-.23 0-.76-.02-1.57-.05-3.38 2.8-5.73 4.59-7.05 5.38-2.14 1.28-3.53 1.89-4.16 1.83-.36-.07-.71-.45-1.06-1.13-.32-.62-.48-1.15-.48-1.57 0-.35.1-.61.3-.78.2-.11.42-.16.67-.16.18 0 .46.03.83.09s.65.09.83.09c.59 0 1.17-.18 1.73-.54 2.54-1.64 4.36-2.89 5.45-3.73-.13-.25-.19-.47-.19-.64 0-.52.13-.94.38-1.25.66-.83 1.43-1.22 2.33-1.19 1.12.04 1.78.45 1.99 1.22.76-.03 1.38-.07 1.83-.11zm-1.73 10.72c.32 0 .59.15.83.45.23.3.35.62.35.95 0 .17-.16.44-.49.81-.35.29-1.2.8-2.54 1.54l-4.45 2.43c-.87.48-1.46.75-1.78.83-.18.08-.36.13-.54.13-.31 0-.51-.11-.6-.32-.25-.58-.38-.93-.38-1.03 0-.61.36-1.01 1.08-1.18 2.67-1.3 5.33-2.78 7.97-4.43.18-.12.37-.18.55-.18z" fill="#bd0e72"/><path d="M661.37 141.82c-.06-.15-.1-.31-.1-.49 0-.43.18-.71.55-.83.07-.05.18-.08.32-.08.24 0 .71.13 1.41.37l1.91-1c.99-.52 1.52-.79 1.58-.82.08-.06.18-.1.29-.1.38 0 .6.21.67.64.01.08.02.14.02.2 0 .15-.16.33-.48.53-1.24.57-2.05.97-2.42 1.19.57.13 1 .33 1.31.59.1.15.16.31.17.47.03.31-.05.55-.21.72-.24.25-.56.32-.97.21-.42-.11-.7-.18-.84-.22-.35-.1-.75-.22-1.18-.36-1.38.94-2.44 1.63-3.2 2.08-1.39.82-2.39 1.27-2.98 1.33-.19.02-.4-.08-.61-.3-.3-.3-.45-.72-.45-1.25 0-.34.22-.51.66-.51.1 0 .24.01.44.03.2.02.35.03.44.03.2 0 .38-.03.54-.08.68-.31 1.2-.57 1.55-.78.66-.38 1.3-.81 1.92-1.27-.19-.11-.31-.22-.34-.3zm1.58 7.4c.19 0 .36.09.5.27.14.18.21.37.21.57 0 .1-.1.27-.3.49-.21.17-.72.48-1.54.93l-2.69 1.47c-.52.29-.88.45-1.07.5a.8.8 0 0 1-.33.08c-.19 0-.31-.06-.36-.19-.15-.35-.23-.56-.23-.62 0-.37.22-.61.65-.71a53.84 53.84 0 0 0 4.82-2.68c.12-.08.24-.11.34-.11zm10.17-7.62c.02-.33.22-.75.61-1.25.67-.86 1.67-1.3 3-1.3.31 0 .68.07 1.08.22.81.29 1.18.72 1.11 1.29-.06.49-.48 1.08-1.27 1.78-.59.52-1.22.99-1.86 1.41-2.66 1.73-4.47 2.69-5.41 2.88-.03.01-.07.01-.12.01-.24 0-.45-.17-.62-.51-.15-.22-.24-.48-.27-.77-.03-.38.12-.57.46-.57.11 0 .24.02.4.05.47.1.91.03 1.32-.19 1.06-.57 2-1.11 2.82-1.62-.87-.26-1.3-.73-1.25-1.43zm5.13-9.66c.19 0 .36.09.5.27.14.18.21.37.21.57 0 .2-.1.36-.29.48-.76.48-1.62.98-2.56 1.5l-1.67.91c-.53.29-.89.45-1.07.5a.8.8 0 0 1-.33.08c-.19 0-.31-.06-.36-.19-.15-.35-.23-.56-.23-.62 0-.37.22-.61.65-.71a53.84 53.84 0 0 0 4.82-2.68c.11-.07.22-.11.33-.11zm-1.81 8.51c-.4.05-.67.12-.83.21-.5.29-.73.56-.69.82 0 .13.08.24.25.35.19.06.46.04.81-.06.64-.19.96-.51.96-.96 0-.25-.17-.36-.5-.36zm11.52 1.94c.29-.58.43-.98.43-1.19 0-.06-.02-.09-.05-.09-.01 0-.03.01-.05.02-.4.28-.86.61-1.38.98-1.04.75-1.74 1.22-2.1 1.43l-1.74.99c-.42.24-.81.42-1.17.54-.06.02-.12.03-.18.03-.2 0-.42-.11-.63-.34-.35-.36-.52-.76-.52-1.21 0-.17.04-.31.12-.43.13-.15.36-.22.68-.22.1 0 .23.01.42.01.18.01.32.01.42.01.2 0 .37-.02.52-.06.06-.03.11-.05.13-.06l.42-.23c.7-.38 1.17-.66 1.41-.82l2.64-1.78c.7-.47 1.12-.72 1.28-.77.22-.06.48-.01.76.15.42.24.62.64.62 1.2 0 .5-.14 1.11-.43 1.84-.42 1.07-.86 1.85-1.31 2.33-.08.09-.2.13-.36.13-.2 0-.4-.08-.61-.23-.24-.17-.36-.34-.36-.53s.06-.34.18-.45c.27-.19.55-.62.86-1.25zm1.72-11.19c.74.01 1.29.37 1.65 1.07.06.22.1.47.1.75 0 .61-.15 1.12-.46 1.54-.76 1.04-2 1.63-3.71 1.77-.82-.03-1.39-.29-1.71-.78-.18-.38-.27-.74-.27-1.07 0-.57.27-1.14.8-1.71 1-1.07 2.2-1.6 3.6-1.57zm-2.66 3.2c.09.13.27.24.55.31h.31c.12 0 .25 0 .38-.01.75-.31 1.26-.67 1.54-1.07.03-.08.05-.17.05-.25 0-.4-.32-.58-.96-.55-.38.1-.65.19-.81.3-.35.17-.62.36-.81.57-.19.21-.28.39-.28.55-.01.05 0 .1.03.15zm10.89 6.93c.48.11.76.18.83.2.18.13.29.33.35.59.03.13 0 .27-.08.43-.08.16-.18.26-.29.32l-1.17.56c-.59.3-.76.51-.51.64-.01.01-.01.01-.01.02 0 .06.44.12 1.33.17.43.03.72.04.87.06.29.03.47.04.53.04.11 0 .28.02.52.07.22.08.34.33.34.75 0 .17-.04.32-.12.45-.1.16-.22.23-.37.22l-2.16-.22c-1.41-.14-2.18-.25-2.33-.32-.61-.08-.91-.37-.91-.86 0-.28.11-.49.34-.64l1.99-1.38c-1.16-.23-1.83-.42-2.02-.56-.15-.11-.22-.31-.22-.6 0-.19.05-.32.14-.39.89-.65 1.6-1.17 2.14-1.56.04-.02.09-.03.12-.03.24 0 .45.21.64.62.01.11-.05.31-.2.59-.36.32-.59.52-.71.6.43.11.76.18.96.23zm.9-8.55c-.65-.05-1.02-.1-1.09-.15-.29-.19-.44-.42-.44-.69 0-.38.2-.65.6-.83.49-.09.88-.12 1.19-.09.38.04.82.14 1.31.32.35.12.67.34.95.65.22.24.33.53.33.86 0 .47-.24.98-.73 1.51-.38.42-.83.78-1.34 1.06-.81.46-1.49.72-2.06.77-.27.03-.5-.04-.68-.19-.19-.15-.28-.36-.28-.63 0-.42.2-.65.61-.71.36-.05.69-.15 1.01-.31.22-.11.52-.28.9-.53.52-.33.78-.58.78-.75 0-.13-.35-.23-1.06-.29zm12.31 8.04c0-.17-.25-.25-.76-.25l-1.38.15c-.07.01-.22.04-.45.09-.19.04-.34.06-.45.06-.16 0-.29-.05-.38-.14-.15-.2-.22-.42-.22-.64 0-.15.03-.3.1-.46.06-.35.7-.56 1.92-.64.31-.02.89.03 1.74.13.93.12 1.49.36 1.67.72.16.33.21.63.15.92-.05.22-.1.39-.16.5-.21.28-.43.52-.65.71-.43.37-.83.68-1.21.92-.86.56-2.05 1.18-3.57 1.87-.79.36-1.57.69-2.34 1-.35.14-.66.12-.93-.07-.42-.45-.62-.88-.62-1.3 0-.37.2-.56.61-.56.1 0 .26.02.46.05.2.03.36.05.46.05.17 0 .32-.02.45-.07.67-.24 1-.36 1.02-.36.67-.26 1.41-.62 2.24-1.07 1.23-.67 2-1.16 2.3-1.48v-.13zm.31-8.88c.19 0 .36.09.5.27.14.18.21.37.21.57 0 .2-.1.36-.29.48-.76.48-1.62.98-2.56 1.5l-1.67.91c-.53.29-.89.45-1.07.5a.8.8 0 0 1-.33.08c-.19 0-.31-.06-.36-.19-.15-.35-.23-.56-.23-.62 0-.37.22-.61.65-.71a53.84 53.84 0 0 0 4.82-2.68c.11-.07.22-.11.33-.11zm95.89 94c.6-.06.9-.25.9-.58 0-.24-.14-.41-.41-.5-.33-.11-.75-.22-1.25-.34-.43-.17-.64-.37-.64-.59 0-.62.3-.9.91-.84.13.01.26.02.38.02.42 0 1.07-.2 1.96-.6.1-.04.22-.07.38-.07.19 0 .36.08.49.23.14.16.21.33.21.52 0 .22-.12.4-.36.54l-.63.3c.39.35.59.8.61 1.36.01.4-.15.75-.49 1.06-.74.68-1.8 1.02-3.19 1.02-.14 0-.46-.01-.95-.03-2.04 1.69-3.46 2.77-4.26 3.25-1.29.77-2.13 1.14-2.51 1.1-.22-.04-.43-.27-.64-.68-.19-.38-.29-.69-.29-.95 0-.21.06-.37.18-.47.12-.06.26-.1.4-.1.11 0 .28.02.5.05s.39.05.5.05c.36 0 .71-.11 1.05-.33 1.54-.99 2.63-1.74 3.29-2.26a.86.86 0 0 1-.12-.38c0-.31.08-.57.23-.76.4-.5.87-.74 1.41-.72.68.03 1.08.27 1.2.74.5.01.87-.01 1.14-.04zm-1.87-10.04c-.65-.05-1.02-.1-1.09-.15-.29-.19-.44-.42-.44-.69 0-.38.2-.65.6-.83.49-.09.88-.12 1.19-.09.38.04.82.14 1.31.32.35.12.67.34.95.65.22.24.33.53.33.86 0 .47-.24.98-.73 1.51-.38.42-.83.78-1.34 1.06-.81.46-1.49.72-2.06.77-.27.03-.5-.04-.68-.19-.19-.15-.28-.36-.28-.63 0-.42.2-.65.61-.71.36-.05.69-.15 1.01-.31.22-.11.52-.28.9-.53.52-.33.78-.58.78-.75 0-.13-.36-.23-1.06-.29zm4.81.03c-.65-.05-1.02-.1-1.09-.15-.29-.19-.44-.42-.44-.69 0-.38.2-.65.6-.82.49-.09.88-.12 1.19-.09.38.04.82.14 1.31.32.35.12.67.34.95.65.22.24.33.53.33.86 0 .47-.24.98-.73 1.51-.38.42-.83.78-1.34 1.06-.81.46-1.49.72-2.06.77-.27.03-.5-.04-.68-.19s-.28-.36-.28-.63c0-.42.2-.65.61-.71.36-.05.69-.15 1.01-.31.22-.11.52-.28.9-.53.52-.33.78-.58.78-.75-.01-.14-.36-.24-1.06-.3zm6.12 10.8c-.56.45-1.26.94-2.11 1.45-.97.58-1.6.9-1.9.95-.04.01-.09.01-.14.01-.34 0-.63-.19-.88-.58-.22-.34-.33-.67-.33-1 0-.3.15-.46.45-.49.02 0 .06 0 .12-.01s.13-.01.21 0c-.03 0 .14.01.51.04.35.03.55.03.61 0 .43-.16.98-.45 1.66-.86.99-.61 1.76-1.21 2.32-1.8a.765.765 0 0 1-.33-.6c-.03-.32.17-.63.58-.92.37-.28.73-.41 1.07-.41.54 0 .83.26.86.79.12.04.43-.1.93-.43.15-.13.42-.33.81-.59.12-.02.22-.03.31-.03.12 0 .2.02.26.05.2.12.34.28.41.49.03.19-.03.4-.15.62-.13.22-.19.35-.18.39.01.08.06.13.15.13.38.03.95-.36 1.72-1.17.32-.25.55-.37.69-.36.2.01.42.2.65.57.12.19.09.42-.08.69-.47.78-1.15 1.35-2.03 1.72-.43.18-.82.28-1.17.29-.69.03-1.09-.25-1.2-.84-.28.01-.77 0-1.5-.01-.2.16-.97.81-2.32 1.91zm4.68-12.34c.74.01 1.29.37 1.65 1.07.06.22.1.47.1.75 0 .61-.15 1.12-.46 1.54-.76 1.04-2 1.63-3.71 1.77-.82-.03-1.39-.29-1.71-.78-.18-.38-.27-.74-.27-1.07 0-.57.27-1.14.8-1.71 1-1.06 2.2-1.59 3.6-1.57zm-2.66 3.21c.09.13.27.24.55.31h.31c.12 0 .25 0 .38-.01.75-.31 1.26-.67 1.54-1.07.03-.08.05-.17.05-.25 0-.4-.32-.58-.96-.55-.38.1-.65.19-.81.3-.35.17-.62.36-.81.57-.19.21-.28.39-.28.55-.01.04 0 .1.03.15zm14.99 6.42c0-.17-.25-.25-.76-.25l-1.38.15c-.07.01-.22.04-.45.09-.19.04-.34.06-.45.06-.16 0-.29-.05-.38-.14-.15-.2-.22-.42-.22-.64 0-.15.03-.3.1-.46.06-.35.7-.56 1.92-.64.31-.02.89.03 1.74.13.93.12 1.49.36 1.67.72.16.33.21.63.15.92-.05.22-.1.39-.16.5-.21.28-.43.52-.65.71-.43.37-.83.68-1.21.92-.86.56-2.05 1.18-3.57 1.87-.79.36-1.57.69-2.34 1-.35.14-.66.12-.93-.07-.42-.45-.62-.88-.62-1.3 0-.37.2-.56.61-.56.1 0 .26.02.46.05.2.03.36.05.46.05.17 0 .32-.02.45-.07.67-.24 1-.36 1.02-.36.67-.26 1.41-.62 2.24-1.07 1.23-.67 2-1.16 2.3-1.48-.01-.03 0-.08 0-.13zm.31-8.88c.19 0 .36.09.5.27.14.18.21.37.21.57 0 .2-.1.36-.29.48-.76.48-1.62.98-2.56 1.5l-1.67.91c-.53.29-.89.45-1.07.5a.8.8 0 0 1-.33.08c-.19 0-.31-.06-.36-.19-.15-.35-.23-.56-.23-.62 0-.37.22-.61.65-.71a53.84 53.84 0 0 0 4.82-2.68c.11-.07.22-.11.33-.11zm10.06 7.13c.3.01.56.1.79.26.46.33.78.77.95 1.31.03.2.04.31.04.33a2.64 2.64 0 0 1-.78 1.84c-.58.45-1.33.67-2.25.63-.8-.03-1.52-.38-2.16-1.07-.44.16-.87.35-1.3.57-.03.01-.04.04-.04.07 0 .01.14.2.41.59.27.39.41.65.4.78-.02.5-.34.94-.96 1.3-.42.24-1.09.46-2.03.67-.27.06-.65.12-1.11.16-.19.02-.36-.11-.54-.37-.15-.22-.23-.44-.26-.65-.06-.49.07-.73.39-.73.13 0 .35.04.64.13.29.09.51.13.66.13.05 0 .17-.01.36-.03.03-.01.09-.03.2-.05.12-.04.27-.1.43-.16.33-.13.49-.26.49-.39 0-.04-.17-.26-.5-.65-.31-.36-.46-.62-.46-.79 0-.12.05-.25.13-.38.05-.15.26-.35.63-.6 1.43-.96 3.06-1.85 4.9-2.66.39-.17.7-.24.97-.24zm1.57-7.88c.74.01 1.29.37 1.65 1.07.06.22.1.47.1.75 0 .61-.15 1.12-.46 1.54-.76 1.04-2 1.63-3.71 1.77-.82-.03-1.39-.29-1.71-.78-.18-.38-.27-.74-.27-1.07 0-.57.27-1.14.8-1.71.99-1.06 2.19-1.59 3.6-1.57zm-3.21 10.42c.01.06.14.13.37.21.19.05.4.07.64.07.24-.01.45-.07.63-.18.18-.11.27-.25.29-.41.01-.36-.16-.54-.51-.53-.16.01-.42.09-.78.24-.42.24-.63.44-.64.6zm.54-7.21c.09.13.27.24.55.31h.31c.12 0 .25 0 .38-.01.75-.31 1.26-.67 1.54-1.07.03-.08.05-.17.05-.25 0-.4-.32-.58-.96-.55-.38.1-.65.19-.81.3-.35.17-.62.36-.81.57-.19.21-.28.39-.28.55-.01.04 0 .1.03.15zm8.41 7.42c-.06-.15-.1-.31-.1-.49 0-.43.18-.71.55-.83.07-.05.18-.08.32-.08.24 0 .71.13 1.41.37l1.91-1c.99-.52 1.52-.79 1.58-.82.08-.06.18-.1.29-.1.38 0 .6.21.67.64.01.08.02.14.02.2 0 .15-.16.33-.48.53-1.24.57-2.05.97-2.42 1.19.57.13 1 .33 1.31.59.1.15.16.31.17.47.03.31-.04.55-.21.72-.24.25-.56.32-.97.21-.42-.11-.7-.18-.84-.22-.35-.1-.75-.22-1.18-.36-1.38.94-2.44 1.63-3.2 2.08-1.39.82-2.39 1.27-2.98 1.33-.19.02-.4-.08-.61-.3-.3-.3-.45-.72-.45-1.25 0-.34.22-.51.66-.51.1 0 .24.01.44.03.2.02.35.03.44.03.2 0 .38-.03.54-.08.68-.31 1.2-.57 1.55-.78.66-.38 1.3-.81 1.92-1.27-.19-.11-.3-.22-.34-.3zm4.72-9.88c.19 0 .36.09.5.27.14.18.21.37.21.57 0 .2-.1.36-.29.48-.76.48-1.62.98-2.56 1.5l-1.67.91c-.53.29-.89.45-1.07.5a.8.8 0 0 1-.33.08c-.19 0-.31-.06-.36-.19-.15-.35-.23-.56-.23-.62 0-.37.22-.61.65-.71a53.84 53.84 0 0 0 4.82-2.68c.11-.07.23-.11.33-.11zM725.28 501.37c.56-.02 1.01-.17 1.34-.45.2-.26.43-.39.71-.39.2 0 .38.08.54.25.16.17.24.35.24.55 0 .14-.04.29-.12.43-.36.46-.81.76-1.34.91-.37.1-.92.15-1.66.15-.24 0-.57-.02-.98-.07-.47.47-1.27 1.13-2.41 1.98-.91.68-2.02 1.3-3.33 1.85-.25.06-.43.08-.54.06-.29-.06-.57-.39-.84-.97-.04-.1-.07-.23-.08-.41-.01-.19.03-.3.1-.35.14-.08.37-.12.68-.12.51.01.85-.01 1.02-.08.61-.23 1.28-.58 2.02-1.06.74-.47 1.34-.94 1.79-1.39-.18-.12-.27-.3-.27-.55 0-.4.23-.71.7-.93.27-.13.51-.18.72-.14.18.06.31.12.38.17.17.12.29.28.36.49.47.06.79.08.97.07zm1.06-9.28c.74.01 1.29.37 1.65 1.07.06.22.1.47.1.75 0 .61-.15 1.12-.46 1.55-.76 1.04-2 1.63-3.71 1.78-.82-.03-1.39-.29-1.71-.78-.18-.38-.27-.74-.27-1.07 0-.57.27-1.14.8-1.71.99-1.09 2.2-1.61 3.6-1.59zm-2.67 3.21c.09.14.27.24.55.31h.31c.12 0 .25 0 .38-.01.75-.31 1.26-.67 1.54-1.07.03-.08.05-.17.05-.25 0-.4-.32-.58-.96-.55-.38.1-.65.2-.81.3-.35.17-.62.35-.81.57-.19.21-.28.39-.28.55-.01.04 0 .1.03.15zm8 7.2c.02-.33.22-.75.61-1.25.67-.86 1.67-1.3 3-1.3.31 0 .68.07 1.08.22.81.29 1.18.72 1.11 1.29-.06.49-.48 1.08-1.27 1.77-.59.52-1.22.99-1.86 1.41-2.66 1.73-4.47 2.69-5.41 2.88-.03.01-.07.01-.12.01-.24 0-.45-.17-.62-.51-.15-.22-.24-.48-.27-.77-.03-.38.12-.57.46-.57.11 0 .24.02.4.05.47.1.91.03 1.32-.19 1.06-.57 2-1.11 2.82-1.62-.87-.25-1.29-.73-1.25-1.42zm5.14-9.66c.19 0 .36.09.5.27.14.18.21.37.21.57 0 .2-.1.36-.29.48-.76.48-1.62.98-2.56 1.5l-1.67.91c-.53.29-.89.45-1.07.5a.8.8 0 0 1-.33.08c-.19 0-.31-.06-.36-.19-.15-.35-.23-.56-.23-.62 0-.37.22-.61.65-.71a53.84 53.84 0 0 0 4.82-2.68c.11-.07.22-.11.33-.11zm-1.82 8.5c-.4.05-.67.12-.83.21-.5.29-.73.56-.69.82 0 .13.08.24.25.35.19.06.46.05.81-.06.64-.19.96-.51.96-.96 0-.24-.16-.36-.5-.36zm7.7 1.16c.02-.33.22-.75.61-1.25.67-.86 1.67-1.3 3-1.3.31 0 .67.07 1.08.22.81.29 1.18.72 1.11 1.29-.06.49-.48 1.08-1.27 1.77-.59.52-1.22.99-1.86 1.41-2.66 1.73-4.47 2.69-5.41 2.88-.03.01-.07.01-.12.01-.24 0-.45-.17-.62-.51-.15-.22-.24-.48-.27-.77-.03-.38.12-.57.46-.57.11 0 .24.02.4.05.47.1.91.03 1.32-.19 1.06-.57 2-1.11 2.82-1.62-.87-.25-1.29-.73-1.25-1.42zm.5-7.95c-.48.44-.72.79-.72 1.05 0 .03.01.06.04.08-.03.06.08.09.34.11.54.03.92 0 1.14-.11.13-.03.26-.04.36-.04.66 0 .99.26.99.78 0 .47-.21.74-.63.79-.27.07-.68.11-1.22.11-1.83 0-2.74-.55-2.74-1.65a.9.9 0 0 1 .06-.36c.21-.7.66-1.35 1.35-1.94.34-.29.57-.5.68-.6.19-.17.45-.33.8-.46.11-.05.19-.06.25-.04.54.17.82.49.82.96 0 .23-.18.44-.53.62-.51.32-.84.56-.99.7zm2.82 6.79c-.4.05-.67.12-.83.21-.5.29-.73.56-.69.82 0 .13.08.24.25.35.19.06.46.05.81-.06.64-.19.96-.51.96-.96 0-.24-.16-.36-.5-.36zm1.73-7.11c-.48.44-.72.79-.72 1.05 0 .03.01.06.04.08-.03.06.08.09.34.11.54.03.92 0 1.14-.11.13-.03.26-.04.36-.04.66 0 .99.26.99.78 0 .47-.21.74-.63.79-.28.07-.68.11-1.22.11-1.83 0-2.74-.55-2.74-1.65 0-.15.02-.27.06-.35.21-.7.66-1.35 1.35-1.94.34-.29.57-.5.68-.6.19-.17.45-.33.8-.46.11-.05.19-.06.25-.04.54.17.82.49.82.96 0 .23-.18.44-.53.62-.51.32-.84.55-.99.69zm-146.37 48.7c.29-.58.43-.98.43-1.19 0-.06-.02-.09-.05-.09-.01 0-.03.01-.05.02-.4.28-.86.61-1.38.98-1.04.75-1.74 1.22-2.1 1.43l-1.74.99c-.42.24-.81.42-1.17.54-.06.02-.12.03-.18.03-.2 0-.42-.11-.63-.34-.35-.36-.52-.76-.52-1.21 0-.17.04-.31.12-.43.13-.15.36-.22.68-.22.1 0 .23.01.42.01.18.01.32.01.42.01.2 0 .37-.02.52-.06.06-.03.11-.05.13-.06l.42-.23c.7-.38 1.17-.66 1.41-.82l2.64-1.78c.7-.47 1.12-.72 1.28-.77.22-.06.48-.01.76.15.42.24.62.64.62 1.2 0 .5-.14 1.11-.43 1.84-.42 1.07-.86 1.85-1.31 2.33-.08.09-.2.13-.36.13-.2 0-.4-.08-.61-.23-.24-.17-.36-.34-.36-.53s.06-.34.18-.45c.27-.19.55-.62.86-1.25zm1.72-11.2c.74.01 1.29.37 1.65 1.07.06.22.1.47.1.75 0 .61-.15 1.12-.46 1.54-.76 1.04-2 1.63-3.71 1.77-.82-.03-1.39-.29-1.71-.78-.18-.38-.27-.74-.27-1.07 0-.57.27-1.14.8-1.71 1-1.07 2.2-1.59 3.6-1.57zm-2.66 3.21c.09.13.27.24.55.31h.31c.12 0 .25 0 .38-.01.75-.31 1.26-.67 1.54-1.07.03-.08.05-.17.05-.25 0-.4-.32-.58-.96-.55-.38.1-.65.19-.81.3-.35.17-.62.36-.81.57-.19.21-.28.39-.28.55-.01.04 0 .1.03.15zm9.08 8.09c-.46.03-.77.05-.94.05-.42 0-.63-.23-.63-.7 0-.39.26-.65.77-.79l.93-.24c1.08-.49 1.76-.95 2.02-1.38.15-.24.39-.37.72-.37.1.02.23.08.39.19.29.2.42.45.39.76-.13.2-.25.35-.36.43-.28.21-.45.34-.54.4 1.31-.15 2.1-.24 2.37-.28.27.04.41.21.41.53 0 .26-.04.43-.13.52l-.54.35c-2.06 1.3-3.86 2.4-5.39 3.3-1.8 1.06-2.99 1.77-3.58 2.11-.36.2-.81.45-1.35.74-.1.05-.2.08-.3.08-.28 0-.53-.2-.74-.59-.18-.34-.27-.67-.27-.98 0-.31.14-.47.41-.47.1 0 .25.01.45.03.19.02.34.03.45.03.31 0 .6-.06.85-.17.04-.01.06-.02.08-.03h.01v.01c.01-.01.02-.01.03-.02l.76-.4c1.69-.9 3.55-2.02 5.58-3.35-.93.11-1.54.19-1.85.24zm4.17-10.55c.19 0 .36.09.5.27.14.18.21.37.21.57 0 .2-.1.36-.29.48-.76.48-1.62.98-2.56 1.5l-1.67.91c-.53.29-.89.45-1.07.5a.8.8 0 0 1-.33.08c-.19 0-.31-.06-.36-.19-.15-.35-.23-.56-.23-.62 0-.37.22-.61.65-.71a53.84 53.84 0 0 0 4.82-2.68c.11-.07.22-.11.33-.11zm10.75 8.88c0-.17-.25-.25-.76-.25l-1.38.15c-.07.01-.22.04-.45.09-.19.04-.34.06-.45.06-.16 0-.29-.05-.38-.14-.15-.2-.22-.42-.22-.64 0-.15.03-.3.1-.46.06-.35.7-.56 1.92-.64.31-.02.89.03 1.74.13.93.12 1.49.36 1.67.72.16.33.21.63.15.92-.05.22-.1.39-.16.5-.21.28-.43.52-.65.71-.43.37-.83.68-1.21.92-.86.56-2.05 1.18-3.57 1.87-.79.36-1.57.69-2.34 1-.35.14-.66.12-.93-.07-.42-.45-.62-.88-.62-1.3 0-.37.2-.56.61-.56.1 0 .26.02.46.05.2.03.36.05.46.05.17 0 .32-.02.45-.07.67-.24 1-.36 1.02-.36.67-.26 1.41-.62 2.24-1.07 1.23-.67 2-1.16 2.3-1.48-.01-.04 0-.08 0-.13zm-1.15-8.04c-.65-.05-1.02-.1-1.09-.15-.29-.19-.44-.42-.44-.69 0-.38.2-.65.6-.83.49-.09.88-.12 1.19-.09.38.04.82.14 1.31.32.35.12.67.34.95.65.22.24.33.53.33.86 0 .47-.24.98-.73 1.51-.38.42-.83.78-1.34 1.06-.81.46-1.49.72-2.06.77-.27.03-.5-.04-.68-.19-.19-.15-.28-.36-.28-.63 0-.42.2-.65.61-.71.36-.05.69-.15 1.01-.31.22-.11.52-.28.9-.53.52-.33.78-.58.78-.75 0-.14-.36-.24-1.06-.29z"/><path d="M693.02 615.09c-.76.05-1.28.08-1.56.08-.7 0-1.05-.39-1.05-1.16 0-.65.42-1.08 1.27-1.3l1.54-.4c1.79-.8 2.91-1.57 3.35-2.29.25-.4.65-.6 1.19-.6.17.03.39.14.65.32.48.33.69.75.65 1.25-.21.34-.41.58-.6.71-.46.34-.75.56-.89.67 2.17-.24 3.48-.4 3.92-.46.46.06.68.35.68.87 0 .42-.07.71-.22.86l-.89.57c-3.41 2.15-6.39 3.97-8.93 5.46-2.98 1.76-4.95 2.92-5.92 3.49-.59.34-1.34.75-2.24 1.22-.16.08-.32.13-.49.13-.47 0-.87-.33-1.22-.98-.3-.56-.44-1.1-.44-1.62s.23-.78.68-.78c.17 0 .42.02.74.06.32.04.57.06.74.06.52 0 .99-.1 1.41-.29.06-.02.11-.04.13-.05h.02v.02c.01-.01.03-.02.05-.03l1.25-.67c2.8-1.49 5.87-3.34 9.23-5.54-1.52.18-2.53.31-3.05.4zm1.49 10.26c.32 0 .59.15.83.45.23.3.35.62.35.95 0 .17-.16.44-.49.81-.35.29-1.2.8-2.54 1.54l-4.45 2.43c-.87.48-1.46.75-1.78.83-.18.08-.36.13-.54.13-.31 0-.51-.11-.6-.32-.25-.58-.38-.93-.38-1.03 0-.61.36-1.01 1.08-1.18 2.67-1.3 5.33-2.78 7.97-4.43.18-.13.37-.18.55-.18zm1.84 2.87c.32 0 .59.15.83.45.23.3.35.62.35.95 0 .17-.16.44-.49.81-.35.29-1.2.8-2.54 1.54l-4.45 2.43c-.87.48-1.46.75-1.78.83-.18.08-.36.13-.54.13-.31 0-.51-.11-.6-.32-.25-.58-.38-.93-.38-1.03 0-.61.36-1.01 1.08-1.18 2.67-1.3 5.33-2.78 7.97-4.43.19-.12.37-.18.55-.18zm21.35-15.9c0-.28-.42-.41-1.25-.41l-2.29.25c-.12.01-.37.06-.75.14-.31.06-.56.1-.75.1-.26 0-.48-.08-.64-.24-.24-.34-.37-.69-.37-1.06 0-.24.05-.5.16-.76.11-.57 1.16-.93 3.18-1.06.51-.03 1.47.04 2.87.22 1.55.2 2.47.6 2.76 1.19.26.54.35 1.05.25 1.52-.07.37-.16.65-.27.83-.35.47-.71.86-1.08 1.18-.71.61-1.38 1.12-2 1.52-1.42.92-3.39 1.95-5.91 3.1-1.3.59-2.59 1.14-3.88 1.65-.58.23-1.1.2-1.54-.11-.69-.74-1.03-1.46-1.03-2.14 0-.61.34-.92 1.02-.92.17 0 .42.03.76.08s.59.08.76.08c.29 0 .53-.04.75-.11 1.1-.39 1.66-.59 1.68-.6 1.1-.43 2.33-1.02 3.7-1.76 2.04-1.1 3.31-1.92 3.81-2.45a.41.41 0 0 0 .06-.24zm-1.91-13.31c-1.08-.09-1.68-.17-1.81-.25-.49-.31-.73-.69-.73-1.14 0-.62.33-1.08 1-1.37.8-.15 1.46-.2 1.97-.14.62.06 1.35.24 2.18.52.58.2 1.11.56 1.57 1.08.36.4.54.88.54 1.43 0 .78-.4 1.61-1.21 2.49-.64.7-1.38 1.29-2.22 1.76-1.33.76-2.47 1.19-3.41 1.27-.44.04-.82-.06-1.13-.32-.31-.25-.46-.6-.46-1.05 0-.69.34-1.08 1.02-1.18.59-.08 1.15-.25 1.67-.51.37-.18.87-.47 1.49-.87.86-.55 1.29-.96 1.29-1.24-.01-.22-.59-.38-1.76-.48z" fill="#bd0e72"/><path d="M686.96 664.75c.56-.02 1.01-.17 1.34-.45.2-.26.44-.39.71-.39.2 0 .38.08.54.25.16.17.24.35.24.55 0 .14-.04.28-.12.43-.36.46-.81.76-1.34.91-.37.1-.92.15-1.66.15-.24 0-.57-.02-.98-.07-.47.47-1.27 1.13-2.41 1.98-.91.68-2.02 1.3-3.33 1.85-.25.06-.43.08-.54.06-.29-.06-.57-.39-.84-.97-.04-.1-.07-.23-.08-.41-.01-.19.03-.3.1-.35.14-.08.37-.12.68-.12.51.01.85-.01 1.02-.08.61-.23 1.28-.58 2.02-1.05.74-.47 1.34-.94 1.79-1.39-.18-.12-.27-.3-.27-.55 0-.4.23-.71.7-.93.27-.13.51-.18.72-.14.18.06.31.12.38.17.17.12.29.28.36.49.47.05.79.06.97.06zm-2.49 8.74c.19 0 .36.09.5.27.14.18.21.37.21.57 0 .1-.1.27-.3.49-.21.17-.72.48-1.54.93l-2.69 1.47c-.52.29-.88.45-1.07.5a.8.8 0 0 1-.33.08c-.19 0-.31-.06-.36-.19-.15-.35-.23-.56-.23-.62 0-.37.22-.61.65-.71a53.84 53.84 0 0 0 4.82-2.68.68.68 0 0 1 .34-.11zm8.57-5.99c0-.38.25-.65.75-.81.44-.14.9-.32 1.37-.54-.29-.14-.52-.25-.69-.36-.38-.23-.59-.41-.62-.55a.799.799 0 0 1 .01-.53c.07-.19.2-.29.4-.31.77-.07 1.43-.31 2-.72.28-.21.54-.31.77-.31.05 0 .09.01.12.03.19.12.32.28.38.47.02.06.03.22.03.48-.01 0-.03.03-.07.1-.08.13-.19.23-.33.31-.13.12-.23.19-.3.23-.23.14-.36.22-.39.24-.17.1-.26.17-.26.21.01.02.06.04.16.07.55.15.83.39.83.72 0 .06-.04.16-.12.31-.15.16-.27.27-.36.34-.42.31-.73.52-.95.63-.2.15-.31.21-.31.16.01.03.1.14.29.33.1.15.17.25.19.3.01.04.01.09.01.12 0 .27-.26.56-.79.88-4.11 2.49-6.46 3.77-7.05 3.82-.25.02-.5-.16-.75-.55-.22-.33-.35-.64-.37-.92-.04-.44.14-.66.57-.66.12 0 .26.01.4.03.05.01.27.01.66.01.2 0 .41-.03.62-.1.81-.35 1.45-.66 1.92-.92a51.43 51.43 0 0 0 2.72-1.61c-.56-.34-.84-.65-.84-.9zm3.99-10.45c-.65-.05-1.02-.1-1.09-.15-.29-.19-.44-.42-.44-.69 0-.38.2-.65.6-.83.49-.09.88-.12 1.19-.09.38.04.82.14 1.31.32.35.12.67.34.95.65.22.24.33.53.33.86 0 .47-.24.98-.73 1.51-.38.42-.83.78-1.34 1.06-.81.46-1.49.72-2.06.77-.27.03-.5-.04-.68-.19-.19-.15-.28-.36-.28-.63 0-.42.2-.65.61-.71.36-.05.69-.15 1.01-.31.22-.11.52-.28.9-.53.52-.33.78-.58.78-.75-.01-.13-.36-.23-1.06-.29zm8.14 9.71c-.46.03-.77.05-.94.05-.42 0-.63-.23-.63-.7 0-.39.26-.65.77-.79l.93-.24c1.08-.49 1.76-.95 2.02-1.38.15-.24.39-.37.72-.37.1.02.23.08.39.19.29.2.42.45.39.76-.13.2-.25.35-.36.43-.27.21-.45.34-.54.4 1.31-.15 2.1-.24 2.37-.28.28.04.41.21.41.53 0 .26-.04.43-.13.52l-.54.35c-2.06 1.3-3.86 2.4-5.39 3.3-1.8 1.06-2.99 1.77-3.58 2.11-.36.2-.81.45-1.35.74-.1.05-.19.08-.3.08-.28 0-.53-.2-.74-.59-.18-.34-.27-.67-.27-.98 0-.31.14-.47.41-.47.1 0 .25.01.45.03.2.02.34.03.45.03.31 0 .6-.06.85-.17.04-.01.06-.02.08-.03h.01v.01c.01-.01.02-.01.03-.02l.76-.4c1.69-.9 3.55-2.02 5.58-3.35-.92.11-1.53.19-1.85.24zm5.03-12.43c.19 0 .36.09.5.27.14.18.21.37.21.57 0 .12-.1.29-.3.52-.05.1-.64.45-1.78 1.06l-2.45 1.32c-.54.29-.9.46-1.07.5a.8.8 0 0 1-.33.08c-.19 0-.31-.06-.36-.19-.15-.35-.23-.56-.23-.62 0-.37.22-.61.65-.71a53.84 53.84 0 0 0 4.82-2.68c.12-.09.23-.12.34-.12zm1.15 2.02c.19 0 .36.09.5.27.14.18.21.37.21.57 0 .1-.09.25-.26.45-.05.08-.29.24-.73.5l-3.53 1.94c-.53.29-.89.45-1.07.5a.8.8 0 0 1-.33.08c-.19 0-.31-.06-.36-.19-.15-.35-.23-.56-.23-.62 0-.37.22-.61.65-.71a53.84 53.84 0 0 0 4.82-2.68c.1-.07.22-.11.33-.11zm4.79 11.45c-.56.45-1.26.94-2.11 1.45-.97.58-1.6.9-1.9.95-.04.01-.09.01-.14.01-.34 0-.63-.19-.88-.58-.22-.34-.33-.67-.33-1 0-.3.15-.46.45-.49.02 0 .06 0 .12-.01s.13-.01.21 0c-.03 0 .14.01.51.04.35.03.55.03.61 0 .43-.16.98-.45 1.66-.86.99-.61 1.76-1.21 2.32-1.8a.765.765 0 0 1-.33-.6c-.03-.32.17-.63.58-.92.37-.28.73-.41 1.07-.41.54 0 .83.26.86.79.12.04.43-.1.93-.43.15-.13.42-.33.81-.59.12-.02.22-.03.31-.03.12 0 .2.02.26.05.2.12.34.28.41.49.03.19-.03.4-.15.62-.13.22-.19.35-.18.39.01.08.06.13.15.13.38.03.95-.36 1.72-1.17.32-.25.55-.37.69-.36.2.01.42.2.65.57.12.19.09.42-.08.69-.47.78-1.15 1.35-2.03 1.72-.43.18-.82.28-1.17.29-.69.03-1.09-.25-1.2-.84-.27.01-.77 0-1.5-.01-.2.16-.97.81-2.32 1.91zm5.12-13.47c.19 0 .36.09.5.27.14.18.21.37.21.57 0 .12-.1.29-.3.52-.05.1-.64.45-1.78 1.06l-2.45 1.32c-.54.29-.9.46-1.07.5a.8.8 0 0 1-.33.08c-.19 0-.31-.06-.36-.19-.15-.35-.23-.56-.23-.62 0-.37.22-.61.65-.71a53.84 53.84 0 0 0 4.82-2.68c.12-.09.23-.12.34-.12zm1.14 2.02c.19 0 .36.09.5.27.14.18.21.37.21.57 0 .1-.09.25-.26.45-.04.08-.29.24-.73.5l-3.53 1.94c-.53.29-.89.45-1.07.5a.8.8 0 0 1-.33.08c-.19 0-.31-.06-.36-.19-.15-.35-.23-.56-.23-.62 0-.37.22-.61.65-.71a53.84 53.84 0 0 0 4.82-2.68c.11-.07.23-.11.33-.11zM299.65 970.81c.56-.02 1.01-.17 1.34-.45.2-.26.44-.39.71-.39.2 0 .38.08.54.25.16.17.24.35.24.55 0 .14-.04.28-.12.43-.36.46-.81.76-1.34.91-.37.1-.92.15-1.66.15-.24 0-.57-.02-.98-.07-.47.47-1.27 1.13-2.41 1.98-.91.68-2.02 1.3-3.33 1.85-.25.06-.43.08-.54.06-.29-.06-.57-.39-.84-.97-.05-.1-.07-.23-.08-.41-.01-.19.03-.3.1-.35.14-.08.37-.12.68-.12.51.01.85-.01 1.02-.08.61-.23 1.28-.58 2.02-1.05.74-.47 1.34-.94 1.79-1.39-.18-.12-.27-.3-.27-.55 0-.4.23-.71.7-.93.27-.13.51-.18.72-.14.18.06.31.12.38.17.17.12.29.28.36.49.47.05.78.07.97.06zm-2.49 8.74c.19 0 .36.09.5.27.14.18.21.37.21.57 0 .1-.1.27-.3.49-.21.17-.72.48-1.54.93l-2.69 1.47c-.52.29-.88.45-1.07.5a.8.8 0 0 1-.33.08c-.19 0-.31-.06-.36-.19-.15-.35-.23-.56-.23-.62 0-.37.22-.61.65-.71a53.84 53.84 0 0 0 4.82-2.68.65.65 0 0 1 .34-.11zm8.56-5.98c0-.38.25-.65.75-.81.44-.14.9-.32 1.37-.54-.29-.14-.52-.25-.69-.36-.38-.23-.59-.41-.62-.55a.799.799 0 0 1 .01-.53c.07-.19.2-.29.4-.31.77-.07 1.43-.31 2-.72.28-.21.54-.31.77-.31.05 0 .09.01.12.03.19.12.32.28.38.47.02.06.03.22.03.48-.01 0-.03.03-.07.1-.08.13-.19.23-.33.31-.13.12-.23.19-.3.23-.23.14-.36.22-.39.24-.17.1-.26.17-.26.21.01.02.06.04.16.07.55.15.83.39.83.72 0 .06-.04.16-.12.31-.15.16-.27.27-.36.34-.42.31-.73.52-.95.63-.2.15-.31.21-.31.16.01.03.1.14.29.33.1.15.17.25.19.3.01.04.01.09.01.12 0 .27-.26.56-.79.88-4.11 2.49-6.46 3.77-7.05 3.82-.25.02-.5-.16-.75-.55-.22-.33-.35-.64-.37-.92-.04-.44.14-.66.57-.66.12 0 .26.01.4.03.05.01.27.01.66.01.2 0 .41-.03.62-.1.81-.35 1.45-.66 1.92-.92a51.43 51.43 0 0 0 2.72-1.61c-.55-.35-.84-.65-.84-.9zm4-10.45c-.65-.05-1.02-.1-1.09-.15-.29-.19-.44-.42-.44-.69 0-.38.2-.65.6-.83.49-.09.88-.12 1.19-.09.38.04.82.14 1.31.32.35.12.67.34.95.65.22.24.33.53.33.86 0 .47-.24.98-.73 1.51-.38.42-.83.78-1.34 1.06-.81.46-1.49.72-2.06.77-.27.03-.5-.04-.68-.19-.19-.15-.28-.36-.28-.63 0-.42.2-.65.61-.71.36-.05.69-.15 1.01-.31.22-.11.52-.28.9-.53.52-.33.78-.58.78-.75-.01-.14-.36-.24-1.06-.29zm10.32 5.7c.18 0 .35.08.5.23.16.16.23.32.23.5 0 .12-.3.43-.9.93-.22.18-.34.35-.36.5-.04.22.02.4.18.52.25.19.43.28.53.28.03 0 .13-.02.29-.06.31-.08.64-.18.97-.3.42-.15.69-.25.8-.28.2-.01.36.04.45.16.14.06.21.22.21.5 0 .23-.22.47-.65.71-1.68.93-2.8 1.56-3.37 1.87l-1.94 1.09c-1.04.59-1.74.92-2.1 1.01-.27.06-.44.08-.53.06-.17-.05-.34-.17-.52-.36-.18-.19-.29-.37-.33-.54-.11-.51-.02-.79.26-.84.06-.02.17-.03.31-.03.07 0 .18.01.32.01.14.01.25.01.32.01.19 0 .33-.02.44-.05.31-.14.76-.35 1.35-.65 1.07-.55 1.9-1 2.49-1.36-.31-.07-.58-.22-.81-.45-.25-.24-.37-.51-.37-.82 0-.68.61-1.5 1.84-2.46.16-.12.29-.18.39-.18zm.54-5.7c-.65-.05-1.02-.1-1.09-.15-.29-.19-.44-.42-.44-.69 0-.38.2-.65.6-.83.49-.09.88-.12 1.19-.09.38.04.82.14 1.31.32.35.12.67.34.95.65.22.24.33.53.33.86 0 .47-.24.98-.73 1.51-.38.42-.83.78-1.34 1.06-.81.46-1.49.72-2.06.77-.27.03-.5-.04-.68-.19-.19-.15-.28-.36-.28-.63 0-.42.2-.65.61-.71.36-.05.69-.15 1.01-.31.22-.11.52-.28.9-.53.52-.33.78-.58.78-.75-.01-.14-.36-.24-1.06-.29zm11.96 6.63c.19-.08.31-.14.37-.16.15-.06.33.04.53.31.13.18.2.35.21.53.01.14-.12.32-.37.54-.73.62-1.78 1.31-3.14 2.07-1.91 1.07-3.15 1.62-3.73 1.65-.22.01-.43-.07-.63-.24-.2-.18-.3-.38-.3-.6 0-.12.23-.43.69-.93.35-.56.55-1.04.6-1.44l-.06-1.04c-.03-.49.09-.78.36-.88.23-.09.42-.12.58-.1.39.06.61.38.66.96.03.36.05.58.05.65 0 .59-.14 1.09-.41 1.51.54-.21 2.08-1.15 4.59-2.83zm1.94-8.1c.51.09.76.34.77.75.01.43-.59.83-1.78 1.2-.58.17-.98.48-1.21.92.14.17.4.29.77.35.35.03.79.09 1.33.19.29.13.41.39.34.8-.1.52-.47.79-1.11.79-.51 0-1.13-.14-1.88-.42-.56-.21-.93-.54-1.09-1-.77.67-1.91 1.09-3.41 1.27-.28.03-.54 0-.8-.11-.32-.13-.48-.32-.48-.58 0-.47.22-.76.66-.86.31 0 .74-.05 1.27-.16.75-.15 1.27-.4 1.57-.73-.06-.24-.36-.44-.92-.6-.13-.03-.49-.07-1.07-.13-.33-.1-.49-.3-.49-.6 0-.04.01-.12.03-.22.11-.58.5-.84 1.16-.8.38.03.76.09 1.13.19.75.2 1.34.67 1.78 1.39.43-.51.83-.86 1.2-1.07.41-.22 1.05-.42 1.92-.59.07-.01.18-.01.31.02z"/></svg>