<svg xmlns="http://www.w3.org/2000/svg" xml:space="preserve" x="0" y="0" version="1.1" viewBox="0 0 1000 1000"><path d="M116.31 341.04c8.72.04 15.79 4.17 15.76 9.18s-7.17 9.04-15.91 8.98c-8.72-.05-15.77-4.2-15.73-9.2.01-4.99 7.14-9.03 15.88-8.96m11.15 86.24c7.7.07 13.97 5.25 13.96 11.52-.07 6.28-6.4 11.38-14.09 11.32-7.75-.05-14.02-5.23-13.97-11.5.01-6.27 6.36-11.38 14.1-11.34m47.7 93.76c2.01 0 3.61 4 3.58 8.85-.04 4.84-1.68 8.81-3.7 8.8-1.98 0-3.6-3.97-3.58-8.85.04-4.87 1.71-8.81 3.7-8.8m-63.77 112.64c4.32-2.75 14.3.82 18.84 7.93 4.5 7.14 5.05 15.19.72 17.95-4.33 2.77-11.98-.79-16.47-7.93-4.55-7.11-7.42-15.17-3.09-17.95m76.95 107.06c5.28.04 9.69 2.42 10.65 5.51-.86-.35-1.86-.58-2.93-.58-3.11-.01-5.65 1.71-5.65 3.88-.03 1.67 1.51 3.14 3.73 3.69-1.72.64-3.73 1.04-5.91 1.02-5.99-.04-10.83-3.09-10.83-6.83.04-3.72 4.96-6.72 10.94-6.69m22.74 18.34c14.8 5.3 17.3 7.01 17.82 17.1.53 10.09-10.03 18.64-16.43 16.11-6.47-2.51-8.3-4.46-17.04-17.1-8.79-12.62.85-21.41 15.65-16.11m36.64 63.89c3.33-1.39 10.51 3.94 15.15 11.24 4.64 7.29 7.57 16.44 4.2 17.85-3.3 1.38-12.39-6.03-17.04-13.33-4.64-7.3-5.68-14.35-2.31-15.76m54.38 54.4c9.26 2.91 13.97 3.92 19.26 15.04 5.31 11.14-7.81 22.31-15.92 15.99-8.1-6.3-16.84-15.51-19.99-21.67-3.15-6.17 7.47-12.28 16.65-9.36m74.12 46.79c10.28.07 18.66 5.95 18.61 13.09-.03 7.15-8.49 12.93-18.77 12.86-10.27-.05-18.65-5.94-18.62-13.09.05-7.15 8.48-12.94 18.78-12.86m83.81 6.23c3.85.01 6.99 2.96 6.97 6.52-.01 3.58-3.18 6.47-7.05 6.46-3.86-.04-6.99-2.97-6.99-6.55.07-3.56 3.19-6.44 7.07-6.43m129.04-86.96c9.08-9.12 15.41-8.02 21.75-.33 7.33 6.1 11.56 11.67 13.97 18.71-.03.5-.07.96-.08 1.44-.49.03-1.38.05-3.03 0-.39-1.18-3.07-1.59-3.48-3.29-2.13-1.24-2.49-.15-3.93.76-.2 2.86-.53 5.39-.96 7.59-2.21 10.67-7.18 14.44-12.82 18.05-1.1 2.66.01 3.64 3.7 2.55 4.32-4.35 7.77-8.85 14.89-12.07 1.04.22 1.97.38 2.85.52-5.95 15.75-19.91 19.44-32.55 27.23-7.35 4.05-13.09 8.01-15.47-1.32-4.21-16.57-1.82-36.37 15.16-59.84m105.87-108.74c-3.9 10.57-8.44 19.8-12.83 29.45-1.23 4.28.37 6.52 4.45 5.63 1.78-3.26 3.48-5.72 4.28-2.33-.66 2.61-2.23 4.68-2.87 7.26-.49 1.83 1.34 2.65 3.92 1.55-4.1 15.36-9.1 29.43-12.27 39.68-2.86 5.72-6.08 9.72-9.18 11.94-.43-1.57-1.94-2.77-3.74-2.77-2.14-.03-3.92 1.63-3.92 3.69 0 .23 0 .46.03.68-3.21-1.23-5.69-5.24-6.8-12.22-3.7-37.66.37-71.13 9.75-110.95 9.83-16.59 19.45-10.83 29.08 1.22.98 2.89 1.79 5.83 2.42 8.89-.53 1.08-.9 3.1-.9 5.4 0 3.44.75 6.24 1.67 6.26.14.01-3.29 6.86-3.09 6.62M444.2 479.55c1.8.01 3.3 1.41 3.3 3.12-.01 1.74-1.54 3.13-3.37 3.12-1.83-.01-3.28-1.4-3.28-3.14.02-1.72 1.53-3.11 3.35-3.1m103.41 99.86c4.59.03 8.3 2.85 8.26 6.27 0 3.44-3.73 6.22-8.33 6.2-4.59-.04-8.3-2.86-8.29-6.28.04-3.44 3.77-6.22 8.36-6.19m-62.77 13.74c3.81-2.3 7.83 1.8 14.88 7.71 7.03 5.91 9.37 15 1.35 16.44-8.06 1.43-11.23-2.51-15.31-8.13-4.06-5.61-4.8-13.74-.92-16.02M681.89 607c6.14-.12 11.32-2.2 16.39.2 5.29 9.1.53 15.47-8.42 20.71-5.71 1.3-11.18 1.95-15.33-2.03-6.03-6-10.73-12.98-10.69-24.24.47-4.95 1.58-8.29 7.23-2.65 2.4 3.42 4.65 6.83 10.82 8.01m87.44-218.54c5 .04 10.49 5.91 10.41 12.21-.03 6.3-3.41 10.92-8.41 10.88-5-.03-10.72-5.91-10.71-12.18.07-6.3 3.69-10.94 8.71-10.91m97.95-35.53c-8.53-11.35-16.26-7.12-23.86-.67-7.34 22.49-14.36 42.9-20.67 64.37-9.91 25.13-21.14 47.31-34.14 67.18-3.11 20.91 4.99 21.35 18.73 15.29 7.33-8.29 15.03-14.59 22.34-22.83 11.08-2.23 20.56-7.42 26.48-19.08 5.19-13.39 9.17-27.24 11.27-41.7.82-4.08 2.17-4.52 3.98-1.3 3.78 10.31 1.06 19.83-.41 30.09 2.74 3.09 7.74 2.63 9.53-3.66 9.76-9.44 8.37-22.51 4.64-36.19-4.63-17.18-10.19-34.34-17.89-51.5" fill="#3b6287" fill-rule="evenodd" clip-rule="evenodd"/><path d="M838.56 405.17c2.77-4.77 2.31-5.21 6.28.22 1.22 10.13 2.98 18.65.36 30.04-3.03 7.85-8.21 13.92-15.08 19.2-7.61 2.85-9.99 3.2-8.62-2.82 5.01-8.42 10.08-16.8 13.14-25.87 2.01-6.56 3.87-13.55 3.92-20.77M647.53 288.22c7.73.05 13.98 5.08 13.96 11.26-.04 6.14-6.4 11.11-14.1 11.06-7.73-.04-14-5.09-13.96-11.24.05-6.16 6.38-11.13 14.1-11.08m-151.45 17.24c7.57.03 13.7 5.8 13.68 12.79-.03 7.03-6.26 12.69-13.85 12.63-7.05-.04-12.85-5.03-13.58-11.36 1.56.8 3.77 1.39 5.99 1.42 4.18.03 7.95 1.16 8.01-.48.01-1.67-3.4-4.81-7.62-4.83-2.25-.03-4.57-.05-6.22.16 1.21-5.91 6.85-10.37 13.59-10.33m77.5-29.4c6.47-3.92 20.57.51 27.53 8.52 6.95 7.99 5.86 18.41-1.71 22.66-7.59 4.25-18.13-.98-23.29-9.56-5.14-8.57-9.03-17.72-2.53-21.62m-21.47 71.91c-.07 1.34.16 2.65.56 3.82-2.7-.65-5.64-.31-6.56.87-1.42 1.75 2.06 4.77 5.01 7.12 3.01 2.38 9.04 2.89 10.45 1.11.51-.65.31-1.52-.29-2.47.27-.04.55-.09.8-.16 8.72-2.82 13.93-4.02 8.78 4.07-2.43 3.9-11.62 6.66-22.15 3.33-10.51-3.34-14.64-13.07-12.37-20 2.27-6.9 16.01-4.11 15.77 2.31M388.1 414.74c5.27.62 9.69 3.74 11.74 7.35-1.35-.49-3.68-.19-5.92 1.93-2.95 2.82-7.93 1.14-7.27 2.37.67 1.22 5.51 3.2 8.84 1.39 2.46-1.35 4.52-2.74 5.16-3.88.61 1.95.57 3.92-.43 5.63-3.25 5.59-10.16 5.12-17.25 2.87-7.07-2.29-11.68-9.52-10.28-13.89 1.38-4.34 6.46-4.84 15.41-3.77m85.11-44.28c7.67 2.21 13.84 5.41 12.55 14.09-1.34 8.69-9.13 9.67-16.8 4.25-7.71-5.4-13.38-9.55-12.1-14.08 1.31-4.54 8.67-6.44 16.35-4.26m-65-162.96c2.61-.91 5.65.24 8.74 2.54-1.18.39-1.93 1.34-2.19 2.91-1.1 1.42-.84 2.83.72 4.28-.6 1.26-1.27 2.42-2.54 2.99-1.59.83-1.51 1.66.24 2.53 1.51-.92 2.71-1.85 3.56-2.75 2.67.44 4.68.87 6 1.3 1.19-.86 2.23-1.04 2.95-2.05.6.79 1.14 1.58 1.68 2.38 5.87 8.53 5.27 15.84-4.13 17.81-9.44 1.94-14.76-3.14-17.69-11.62-2.97-8.52-3.05-18.35 2.66-20.32m-14.54-96.85c7.74.04 14.02 4.05 13.97 8.9-.01 4.87-6.35 8.78-14.08 8.73-7.71-.04-14-4.04-13.97-8.9.03-4.87 6.4-8.8 14.08-8.73m37.86-90.05c2.82-1.16 8.15 1.2 11.27 6.14 3.05 4.93 4.08 10.08-.52 10.92-4.59.86-8.29-1.92-10.29-6.68-1.97-4.73-3.2-9.2-.46-10.38m123.32 48.11c5.43.75 7.85 1.42 10.9 6.89 3.07 5.49-4.76 10.12-9.88 6.95-5.16-3.17-8.61-5.87-10.92-8.89-2.3-3.03 4.49-5.69 9.9-4.95m71.24-.56c2.85.01 5.2 2.47 5.16 5.46 0 3.03-2.35 5.44-5.23 5.44-2.85-.04-5.16-2.49-5.15-5.49.02-3 2.37-5.43 5.22-5.41m202.59 220.84c6.78.07 12.23 7.1 12.19 15.71-.08 8.6-5.65 15.58-12.42 15.55-6.74-.07-12.25-7.1-12.18-15.69.06-8.61 5.62-15.59 12.41-15.57M498.18 62.81c.92.07 1.74.15 2.55.27 4.41-.24 6.4-2.37 5.94-6.43.37-3.37 2.21-5.94 4.34-5.94 2.42.03 4.33 3.28 4.32 7.25-.01 3.97-1.99 7.19-4.4 7.17-.25 0-.48-.03-.7-.08-1.08.37-.92 1.58-1.36 2.37.25.6.41 1.24.41 1.98-.01 4.08-4.79 7.57-11.03 7.53-6.22-.04-11.64-3.58-11.63-7.69-2.26-6.4 3.13-8.89 11.56-6.43m101.83 8.89c2.63-1.15 6.78 3.17 8.96 8.09 2.14 4.92 2.11 9.7-.55 10.87-2.67 1.18-6.62-1.87-8.8-6.79-2.11-4.93-2.28-11.01.39-12.17m58.79-3.54c-6.47-3.98-9.99-2.23-14.52 1.34-1.15 3.5-1.35 5.88.27 8.61 4.14 1.72 7.55 4.02 11.74 5.75 18.18 25.87 35.11 53.68 54.83 76.56 4.46 2.34 8.45 3.38 8.61-4.61-1.16-4.96-3.22-9.93-6.55-14.89-9.37-7.2-17.82-17.91-28.61-33.19-7.99-13.22-17.78-26.37-25.77-39.57m87.16 122.83c3.22.01 2.7.43 5.59 5.25 2.89 4.8-.52 7.5-5.95 6.02-5.48-1.51-4.36-3.03-5.05-6.36-.71-3.36 2.15-4.94 5.41-4.91M368.2 505.02c7.62.08 16.51 8.48 16.48 14.39-.05 5.9-5.08 7.19-12.71 7.11-7.63-.03-13.82-4.91-13.81-10.8.04-5.92 2.38-10.72 10.04-10.7m-55.98 51.57c6.8 1.95 10.51 3.78 3.64 10.27-8.58 8.11-14.99 4.09-21.07-1.38-6.1-5.43-6.22-14.71-2.21-19.2 2.01-2.25 4.04-2.04 6.4-.13 1.48 1.19.17 3.26 1.48 5.35-.8 1.71-.13 5.21 1.78 7.41 2.26 2.53 4.96 2.99 8.46 1.15 1.95-1.06 2.46-2.27 1.52-3.47" fill="#3b6287" fill-rule="evenodd" clip-rule="evenodd"/><path d="M300.93 550.87c1.42-1.26 1.26 1.39 6.67 3.17 5.4 1.79 6.58 4.16 3.1 6.02-3.49 1.85-6.19 1.38-8.45-1.15-2.22-2.54-2.75-6.78-1.32-8.04m-28.02 81.27c3.1.01 5.64 3.18 5.6 7.07-.03 3.85-2.57 6.98-5.69 6.98-3.1-.03-5.63-3.18-5.59-7.06 0-3.87 2.57-7 5.68-6.99m-35.68 14.73c5.56 1.28 9.57 4.55 8.94 7.29-.63 2.73-5.69 3.89-11.23 2.62-5.56-1.28-9.56-4.55-8.93-7.29.62-2.73 5.67-3.91 11.22-2.62" fill="#3b6287" fill-rule="evenodd" clip-rule="evenodd"/><path d="M227.94 644.75c1.9.01 3.6.6 4.97 1.61-3.64-.03-6.43 1.15-6.9 3.13-.57 2.58 2.97 5.64 8.06 7.05-1.5 1.66-3.72 2.66-6.26 2.66-4.4-.03-7.95-3.3-7.95-7.27.07-3.99 3.68-7.22 8.08-7.18m-31.87 100.93c3.11 0 5.64 1.77 5.63 3.93 0 2.15-2.57 3.89-5.67 3.86-3.1 0-5.65-1.76-5.61-3.92-.01-2.18 2.53-3.89 5.65-3.87M300.2 881.25c2.18-1.55 12.53 1.3 14.2 6.98 1.7 5.68 4.32 9.69 1.83 12.18-2.46 2.46-10.68.17-13.02-6.19-1.1-2.94-.17-5.23-.83-7.58-.65-2.34-4.31-3.85-2.18-5.39m75.95 44.36c3.54.01 6.4 2.57 6.4 5.68-.01 3.14-2.94 5.67-6.47 5.63-3.56 0-6.44-2.59-6.4-5.71.03-3.1 2.92-5.61 6.47-5.6m99.11-548.03c2.03.01 3.66 2.11 3.66 4.64-.01 2.55-1.7 4.6-3.7 4.59-2.02 0-3.69-2.09-3.66-4.61.01-2.56 1.69-4.62 3.7-4.62m-63.19 54.88c2.42 0 4.38 1.47 4.34 3.25-.03 1.79-1.99 3.22-4.38 3.18-2.43 0-4.38-1.44-4.36-3.24.03-1.77 1.95-3.2 4.4-3.19m-18.16-8.43c2.93-2.82 6.19-2.43 6.84-1.2.67 1.22-1.91 3.13-5.28 4.95-3.33 1.82-8.15-.16-8.84-1.39-.65-1.24 4.32.46 7.28-2.36m8.82 90.95c3.69.04 6.74 3.5 6.71 7.7-.07 4.21-3.09 7.63-6.82 7.61-3.7-.01-6.71-3.48-6.7-7.67.04-4.24 3.11-7.64 6.81-7.64m85.97-199.35c4.21.01 7.62 3.16 7.61 4.83-.05 1.64-3.81.51-7.99.48-4.21-.01-8.32-2.11-8.32-3.78.04-1.65 4.5-1.57 8.7-1.53m67.5 37.77c2.95 2.35 6.75 5.74 5.37 7.5-1.42 1.77-7.43 1.27-10.45-1.11-2.95-2.35-6.42-5.37-5.01-7.12 1.37-1.77 7.08-1.61 10.09.73m-23.42-147c3.96.05 7.19 3.5 7.14 7.7-.01 4.21-3.24 7.62-7.23 7.61-3.97-.03-7.15-3.49-7.14-7.7.03-4.21 3.27-7.63 7.23-7.61M392.3 115.31c3.17.01 5.73 1.5 5.73 3.32-.03 1.78-2.62 3.24-5.76 3.22-3.15-.04-5.69-1.51-5.69-3.29.01-1.82 2.58-3.26 5.72-3.25m28.92 168.66c1.76.01 3.15 1.43 3.15 3.16a3.18 3.18 0 0 1-3.18 3.14c-1.71-.01-3.11-1.42-3.11-3.17 0-1.74 1.45-3.14 3.14-3.13m-6.46-71.01c.44-2.34 1.87-3.34 4.28-2.99 4 .74 5.28 3.77 7.27 7.82-.63 2.43-1.95 2.35-3.57 3.52-1.32-.43-3.33-.86-6.02-1.31-.83.92-2.03 1.85-3.54 2.75-1.75-.86-1.83-1.68-.24-2.53 1.27-.56 1.94-1.72 2.54-3.01-1.56-1.41-1.82-2.83-.72-4.25m-11.22 3.55c-5.78 4.41-10.27 10.17-14.53 16.14-.91 4.81.07 7.75 5.23 6.58 9.97.24 16.47.63 23.61.9-.04-.12-.11-.25-.17-.39-6.04-.7-9.81-5.25-12.13-11.91-1.34-3.79-2.06-7.84-2.01-11.32" fill="#3b6287" fill-rule="evenodd" clip-rule="evenodd"/><path d="M698.31 108.59c0 6.34-5.12 11.47-11.47 11.47-6.34 0-11.48-5.13-11.48-11.47 0-6.34 5.15-11.48 11.48-11.48 6.35-.01 11.47 5.14 11.47 11.48m140.05 200.07c0 6.34-5.13 11.47-11.48 11.47-6.34 0-11.48-5.13-11.48-11.47 0-6.35 5.15-11.48 11.48-11.48 6.35 0 11.48 5.13 11.48 11.48M657 291.14c0 6.34-5.15 11.48-11.48 11.48-6.35 0-11.5-5.15-11.5-11.48 0-6.34 5.15-11.48 11.5-11.48 6.33-.01 11.48 5.14 11.48 11.48m39.88 327.63c0 6.34-5.15 11.47-11.47 11.47-6.36 0-11.5-5.13-11.5-11.47 0-6.34 5.13-11.48 11.5-11.48 6.32 0 11.47 5.15 11.47 11.48M311.05 889.1c0 6.34-5.15 11.47-11.47 11.47-6.36 0-11.5-5.13-11.5-11.47 0-6.34 5.13-11.48 11.5-11.48 6.32 0 11.47 5.14 11.47 11.48m-67.24-234.4c0 6.34-5.15 11.47-11.47 11.47-6.35 0-11.5-5.13-11.5-11.47 0-6.34 5.15-11.48 11.5-11.48 6.32 0 11.47 5.15 11.47 11.48m311.54-98.75c0 6.34-5.15 11.48-11.47 11.48-6.36 0-11.51-5.15-11.51-11.48 0-6.34 5.15-11.48 11.51-11.48 6.32-.01 11.47 5.14 11.47 11.48m302.99-91.46c0 6.34-5.13 11.47-11.47 11.47-6.36 0-11.48-5.13-11.48-11.47 0-6.35 5.12-11.47 11.48-11.47 6.33 0 11.47 5.12 11.47 11.47" fill="#004b1c"/><path d="M635.39 68.61c0 6.34-5.12 11.47-11.47 11.47-6.34 0-11.48-5.13-11.48-11.47 0-6.34 5.15-11.48 11.48-11.48 6.35 0 11.47 5.14 11.47 11.48" fill="#a54686"/><path d="M692.33 109.75c0 1.59-1.28 2.86-2.87 2.86-1.58 0-2.87-1.27-2.87-2.86 0-1.59 1.3-2.87 2.87-2.87 1.59 0 2.87 1.28 2.87 2.87m-61.7-40.78c0 1.59-1.28 2.86-2.87 2.86-1.58 0-2.87-1.27-2.87-2.86 0-1.59 1.3-2.87 2.87-2.87a2.87 2.87 0 0 1 2.87 2.87m-74.27 417.41c0 1.58-1.28 2.86-2.87 2.86a2.86 2.86 0 0 1-2.86-2.86c0-1.59 1.28-2.87 2.86-2.87a2.87 2.87 0 0 1 2.87 2.87m-256.8 402.71c0 1.59-1.28 2.86-2.87 2.86-1.58 0-2.86-1.27-2.86-2.86 0-1.59 1.28-2.87 2.86-2.87a2.87 2.87 0 0 1 2.87 2.87M549.6 555.95c0 1.58-1.28 2.86-2.87 2.86-1.58 0-2.87-1.28-2.87-2.86 0-1.59 1.3-2.87 2.87-2.87 1.59 0 2.87 1.28 2.87 2.87m-312.67 97.9c0 1.59-1.28 2.86-2.87 2.86-1.58 0-2.86-1.27-2.86-2.86 0-1.59 1.28-2.87 2.86-2.87 1.59 0 2.87 1.28 2.87 2.87m453.98-34.09c0 1.59-1.28 2.86-2.87 2.86-1.58 0-2.86-1.27-2.86-2.86 0-1.59 1.28-2.87 2.86-2.87 1.59 0 2.87 1.28 2.87 2.87m160.31-152.1c0 1.59-1.28 2.86-2.87 2.86-1.58 0-2.86-1.27-2.86-2.86 0-1.59 1.28-2.87 2.86-2.87 1.59 0 2.87 1.28 2.87 2.87" fill="#f5ee6d"/><path d="m504.753 1034.202 29.778-11.934 2.82 7.035-29.778 11.935zm59.55-23.911 29.787-11.938 2.82 7.036-29.787 11.938zm59.539-23.908 29.787-11.938 2.82 7.036-29.787 11.938zM683.4 962.47l29.778-11.935 2.82 7.036-29.778 11.934zm59.54-23.907 29.787-11.938 2.82 7.036L745.76 945.6zm59.549-23.913 29.786-11.937 2.82 7.036-29.787 11.938zm59.549-23.912 29.786-11.938 2.82 7.036-29.786 11.938zm59.549-23.91 29.778-11.934 2.82 7.036-29.778 11.934zm59.548-23.91 29.787-11.938 2.82 7.036-29.787 11.938zm59.54-23.908 29.787-11.939 2.82 7.036-29.787 11.938zm59.55-23.913 29.787-11.938 2.82 7.036-29.787 11.938z" fill="#ed1c24"/><path d="M781.78 94.29v-.7h.85c.76 0 1.32-.12 1.72-.35.39-.24.69-.55.87-.96.12-.26.17-1.06.17-2.38V73c0-1.31-.07-2.13-.21-2.46-.13-.33-.42-.61-.84-.86-.43-.25-.99-.37-1.72-.37h-.85v-.7h11.5c3.07 0 5.54.42 7.4 1.25 2.28 1.02 4.02 2.57 5.21 4.64 1.17 2.08 1.76 4.42 1.76 7.03 0 1.81-.29 3.47-.87 4.99-.57 1.52-1.33 2.77-2.25 3.77-.93.99-1.98 1.79-3.2 2.39-1.2.6-2.68 1.06-4.41 1.39-.77.15-1.98.23-3.64.23h-11.49zm9.79-24.23V90.1c0 1.06.05 1.71.16 1.95.1.24.27.42.51.55.34.19.84.28 1.48.28 2.11 0 3.72-.72 4.83-2.16 1.51-1.94 2.27-4.96 2.27-9.05 0-3.3-.51-5.93-1.55-7.9-.81-1.54-1.87-2.58-3.16-3.15-.92-.39-2.42-.57-4.54-.56zm30.36-1.99v21.01c0 1.58.07 2.58.21 3.02.13.44.43.79.87 1.07.43.27 1.15.42 2.11.42h.59v.7h-13.53v-.7h.68c1.1 0 1.88-.13 2.35-.38.47-.25.78-.6.95-1.04.16-.44.25-1.47.25-3.09V75.76c0-1.19-.07-1.93-.17-2.23-.12-.3-.33-.55-.64-.76-.31-.21-.67-.31-1.07-.31-.64 0-1.42.2-2.35.61l-.34-.69 9.45-4.31h.64zm98.35 583.28v-.7h.85c.76 0 1.32-.12 1.72-.35.39-.23.69-.55.87-.96.12-.26.17-1.06.17-2.38v-16.9c0-1.31-.07-2.13-.21-2.46-.13-.33-.42-.61-.84-.86-.43-.25-.99-.37-1.72-.37h-.85v-.7h11.5c3.07 0 5.54.42 7.4 1.25 2.28 1.02 4.02 2.57 5.21 4.64 1.17 2.08 1.76 4.42 1.76 7.03 0 1.81-.29 3.47-.87 4.99-.57 1.52-1.33 2.77-2.25 3.77-.93.99-1.98 1.79-3.2 2.39-1.2.6-2.68 1.06-4.41 1.39-.77.15-1.98.23-3.64.23h-11.49zm9.8-24.23v20.05c0 1.06.05 1.71.16 1.95.1.23.27.42.51.55.34.19.84.28 1.48.28 2.11 0 3.72-.72 4.83-2.16 1.51-1.94 2.27-4.96 2.27-9.05 0-3.3-.51-5.93-1.55-7.9-.81-1.54-1.87-2.58-3.16-3.15-.93-.39-2.43-.58-4.54-.57zm33.77 24.23h-15.1v-.42c4.63-5.52 7.44-9.23 8.43-11.14.99-1.91 1.49-3.77 1.49-5.59 0-1.33-.42-2.43-1.23-3.31-.82-.87-1.83-1.31-3.02-1.31-1.95 0-3.46.97-4.53 2.92l-.7-.25c.69-2.43 1.72-4.22 3.11-5.38 1.4-1.16 3-1.74 4.82-1.74 1.31 0 2.48.3 3.56.91 1.07.61 1.91 1.44 2.52 2.49.6 1.05.9 2.04.9 2.96 0 1.68-.46 3.38-1.4 5.11-1.28 2.34-4.06 5.59-8.36 9.78h5.55c1.37 0 2.26-.06 2.66-.17.4-.12.74-.31 1.02-.58.26-.27.61-.84 1.03-1.72h.69l-1.44 7.44z"/><path d="M324.63 787.8c-6.67-10.96-16.07-10.03-25.94-7.42-16.58 6.94-21.02 18.25-19.93 31.54 7.49 23.9 23.32 30.45 40.29 34.53 12.14.27 19.1-3.7 14.65-17.05-3.54-12.82-6.59-26.69-9.07-41.6" fill="#3b6287" fill-rule="evenodd" clip-rule="evenodd"/><path d="M302.25 792.86c5.86-.19 11.32.25 14 5.28-.19 8.81-.57 17.69 2.46 25.45.64 8.33-2.83 10.39-10.44 6.18-9.95-3.6-13.48-12.62-16.1-22.43 1.32-7.58 6.07-9.67 10.08-14.48m105.93.65c2.57.03 4.64 4.2 4.63 9.39-.03 5.15-2.17 9.32-4.75 9.31-2.57-.01-4.65-4.21-4.61-9.37.01-5.16 2.16-9.35 4.73-9.33m49.99-23.58c.44-7.61 4.05-12.24 14.6-10.29 10.25 4.22 18.56 9.73 26.9 15.23 8.49 4.71 10.59 11.52 11.31 18.76-2.54 11.14-6.3 20.51-12.59 25.88-5.17 7.93-11.22 8.25-18.2.94-12.49-15.84-22.24-32.23-22.02-50.52m-24.73-114.38c-15.13.55-13.36 7.97-12.57 14.99 3.9 13.72 12.25 19.65 26.63 20.93 7.62-1.58 13.45-4.52 12.79-15.49-3.05-9.52-8.08-18.13-26.85-20.43m86.97 40c.83-6.47 2.83-11.75 13.05-8.74 15.6 4.61 23.25 12.74 27.37 22.49 2.22 16.83-1.94 22.16-8.96 22.27-14.85-4.6-23.97-18.95-31.46-36.02" fill="#3b6287" fill-rule="evenodd" clip-rule="evenodd"/><path d="M437.37 664.95c1.3-.98 4.29 2.27 7.49 6.5 3.15 4.22 4.75 8.42 2.79 10.75-1.99 2.33-4.85-1.98-7.5-7.25-2.61-5.25-4.08-9.04-2.78-10m-24.6 138.67c.88 1.52 1.39 3.34 1.38 5.3-.04 5.47-4.21 9.92-9.25 9.88-5.04-.03-9.13-4.52-9.09-10 .03-5.08 3.56-9.25 8.09-9.84-.28 1.19-.43 2.51-.45 3.88-.04 5.15 2.05 9.36 4.61 9.37 2.44.01 4.48-3.78 4.71-8.59" fill="#3b6287" fill-rule="evenodd" clip-rule="evenodd"/><path d="M942.87 680.89c-23.5 0-42.63-19.12-42.63-42.63s19.13-42.63 42.63-42.63 42.63 19.13 42.63 42.63-19.13 42.63-42.63 42.63zm0-81.47c-21.41 0-38.84 17.42-38.84 38.85 0 21.42 17.43 38.84 38.84 38.84s38.84-17.42 38.84-38.84c0-21.43-17.43-38.85-38.84-38.85zM803.84 123.83c-23.5 0-42.63-19.12-42.63-42.63s19.13-42.63 42.63-42.63 42.63 19.12 42.63 42.63-19.13 42.63-42.63 42.63zm0-81.46c-21.41 0-38.84 17.42-38.84 38.84s17.43 38.84 38.84 38.84 38.84-17.42 38.84-38.84-17.43-38.84-38.84-38.84zm-430.7 835.26v-.7h.85c.76 0 1.32-.12 1.72-.35.39-.24.69-.55.87-.96.12-.26.17-1.06.17-2.38v-16.9c0-1.31-.07-2.13-.21-2.46-.13-.33-.42-.61-.84-.86-.43-.25-.99-.37-1.72-.37h-.85v-.7h11.5c3.07 0 5.54.42 7.4 1.25 2.28 1.02 4.02 2.57 5.21 4.64 1.17 2.08 1.76 4.42 1.76 7.03 0 1.81-.29 3.47-.87 4.99-.57 1.52-1.33 2.77-2.25 3.77-.93.99-1.98 1.79-3.2 2.39-1.2.6-2.68 1.06-4.41 1.39-.77.15-1.98.23-3.64.23h-11.49zm9.79-24.23v20.05c0 1.06.05 1.71.16 1.95.1.23.27.42.51.55.34.19.84.28 1.48.28 2.11 0 3.72-.72 4.83-2.16 1.51-1.94 2.27-4.96 2.27-9.05 0-3.3-.51-5.93-1.55-7.9-.81-1.54-1.87-2.58-3.16-3.15-.92-.4-2.42-.59-4.54-.57zm18.69 14.55 12.19-16.53h2.31v16.53h2.35v3.92h-2.35v5.76h-5.21v-5.76h-9.3v-3.92zm1.84 0h7.45v-10.13l-7.45 10.13z"/><path d="M392.31 907.44c-23.5 0-42.63-19.13-42.63-42.63s19.13-42.63 42.63-42.63 42.63 19.12 42.63 42.63-19.13 42.63-42.63 42.63zm0-81.47c-21.41 0-38.84 17.42-38.84 38.84s17.43 38.85 38.84 38.85c21.41 0 38.84-17.42 38.84-38.85 0-21.42-17.43-38.84-38.84-38.84zM145.53 625.31v-.7h.85c.76 0 1.32-.12 1.72-.35.39-.23.69-.55.87-.96.12-.26.17-1.06.17-2.38v-16.9c0-1.31-.07-2.13-.21-2.46-.13-.33-.42-.61-.84-.86-.43-.25-.99-.37-1.72-.37h-.85v-.7h11.5c3.07 0 5.54.42 7.4 1.25 2.28 1.02 4.02 2.57 5.21 4.64 1.17 2.08 1.76 4.42 1.76 7.03 0 1.81-.29 3.47-.87 4.99-.57 1.52-1.33 2.77-2.25 3.77-.93.99-1.98 1.79-3.2 2.39-1.2.6-2.68 1.06-4.41 1.39-.77.15-1.98.23-3.64.23h-11.49zm9.79-24.23v20.05c0 1.06.05 1.71.16 1.95.1.23.27.42.51.55.34.19.84.28 1.48.28 2.11 0 3.72-.72 4.83-2.16 1.51-1.94 2.27-4.96 2.27-9.05 0-3.3-.51-5.93-1.55-7.9-.81-1.54-1.87-2.58-3.16-3.15-.92-.39-2.42-.58-4.54-.57zm23.46 11.35v-.67c1.44-.42 2.43-.8 2.99-1.16.55-.37 1.03-.91 1.44-1.65.4-.74.61-1.49.61-2.25 0-1.04-.39-1.95-1.15-2.7-.77-.75-1.71-1.13-2.86-1.13-1.76 0-3.26.93-4.5 2.81l-.7-.25c.91-2.11 2.08-3.69 3.5-4.76 1.42-1.06 3-1.59 4.75-1.59 1.78 0 3.24.54 4.4 1.63 1.15 1.09 1.74 2.36 1.74 3.81 0 .95-.27 1.85-.81 2.74-.54.87-1.38 1.65-2.53 2.32 1.49.72 2.61 1.61 3.38 2.66.78 1.06 1.17 2.38 1.17 3.97 0 2.68-.98 4.95-2.91 6.83-1.95 1.88-4.54 2.81-7.79 2.81-2.18 0-3.76-.36-4.75-1.08-.73-.51-1.08-1.16-1.08-1.95 0-.58.21-1.08.63-1.49s.89-.61 1.44-.61c.42 0 .81.08 1.17.26.2.1.91.65 2.15 1.66 1.23 1.01 2.38 1.51 3.46 1.51.93 0 1.72-.37 2.4-1.11.67-.74 1.01-1.68 1.01-2.81 0-1.73-.61-3.32-1.83-4.78-1.22-1.46-2.99-2.46-5.33-3.02z"/><path d="M167.85 655.11c-23.5 0-42.63-19.13-42.63-42.63s19.13-42.63 42.63-42.63 42.63 19.12 42.63 42.63-19.13 42.63-42.63 42.63zm0-81.48c-21.41 0-38.84 17.42-38.84 38.84s17.43 38.85 38.84 38.85 38.84-17.42 38.84-38.85c0-21.41-17.43-38.84-38.84-38.84zM599.18 942.7l-2.87-.4.25-1.77 2.87.4-.25 1.77zm.65-4.7-2.87-.39.4-2.91 2.87.39-.4 2.91zm.81-5.82-2.87-.39.4-2.92 2.87.39-.4 2.92zm.81-5.83-2.87-.39.4-2.91 2.87.39-.4 2.91zm.81-5.82-2.87-.39.4-2.92 2.87.39-.4 2.92zm.81-5.83-2.87-.39.4-2.91 2.87.39-.4 2.91zm.81-5.82-2.87-.39.4-2.92 2.87.39-.4 2.92zm.8-5.83-2.87-.39.4-2.91 2.87.39-.4 2.91zm.83-5.83-2.87-.39.4-2.92 2.87.39-.4 2.92zm.81-5.83-2.87-.39.4-2.91 2.87.39-.4 2.91zm.81-5.82-2.87-.39.4-2.92 2.87.39-.4 2.92zm.81-5.83-2.87-.39.4-2.91 2.87.39-.4 2.91zm.8-5.82-2.87-.39.4-2.92 2.87.39-.4 2.92zm.81-5.83-2.87-.39.4-2.91 2.87.39-.4 2.91zm.81-5.83-2.87-.39.4-2.91 2.87.39-.4 2.91zm.81-5.82-2.87-.39.4-2.91 2.87.39-.4 2.91zm.81-5.83-2.87-.39.4-2.91 2.87.39-.4 2.91zm.81-5.82-2.87-.39.4-2.91 2.87.39-.4 2.91zm.81-5.83-2.87-.39.4-2.91 2.87.39-.4 2.91zm.82-5.82-2.87-.39.4-2.91 2.87.39-.4 2.91zm.81-5.83-2.87-.39.4-2.91 2.87.39-.4 2.91zm.81-5.83-2.87-.39.4-2.91 2.87.39-.4 2.91zm.81-5.83-2.87-.39.4-2.91 2.87.39-.4 2.91zm.81-5.82-2.87-.39.4-2.92 2.87.39-.4 2.92zm.81-5.83-2.87-.39.4-2.91 2.87.39-.4 2.91zm.81-5.82-2.87-.39.4-2.92 2.87.39-.4 2.92zm.81-5.83-2.87-.39.4-2.91 2.87.39-.4 2.91zm.81-5.82-2.87-.39.4-2.92 2.87.39-.4 2.92zm.81-5.83-2.87-.39.4-2.91 2.87.39-.4 2.91zm.81-5.82-2.87-.39.4-2.92 2.87.39-.4 2.92zm.79-5.83-2.85-.4.42-2.91 2.85.4-.42 2.91zm.84-5.83-2.87-.39.4-2.92 2.87.39-.4 2.92zm.81-5.83-2.87-.39.4-2.91 2.87.39-.4 2.91zm.81-5.82-2.87-.39.4-2.92 2.87.39-.4 2.92zm.81-5.83-2.87-.39.4-2.91 2.87.39-.4 2.91zm.81-5.83-2.87-.39.4-2.91 2.87.39-.4 2.91zm.81-5.82-2.87-.39.4-2.91 2.87.39-.4 2.91zm.81-5.83-2.87-.39.4-2.91 2.87.39-.4 2.91zm.81-5.82-2.87-.39.4-2.91 2.87.39-.4 2.91zm.81-5.83-2.87-.39.4-2.91 2.87.39-.4 2.91zm.81-5.82-2.87-.39.4-2.91 2.87.39-.4 2.91zm.8-5.83-2.87-.39.4-2.91 2.87.39-.4 2.91zm.83-5.82-2.87-.39.4-2.91 2.87.39-.4 2.91zm.81-5.83-2.87-.39.4-2.91 2.87.39-.4 2.91zm.81-5.83-2.87-.39.18-1.34.42-1.69 2.79.69-.52 2.73zm1.21-5.6-2.79-.68.69-2.86 2.79.68-.69 2.86zm1.38-5.72-2.79-.68.69-2.86 2.79.68-.69 2.86zm1.39-5.71-2.79-.68.69-2.86 2.79.68-.69 2.86zm1.38-5.72-2.79-.68.69-2.86 2.79.68-.69 2.86zm1.39-5.71-2.79-.68.69-2.86 2.79.68-.69 2.86zm1.38-5.72-2.79-.68.69-2.86 2.79.68-.69 2.86zm1.38-5.72-2.79-.68.69-2.85 2.79.68-.69 2.85zm1.39-5.71-2.79-.68.69-2.86 2.79.68-.69 2.86zm1.38-5.72-2.79-.68.69-2.86 2.79.68-.69 2.86zm1.38-5.72-2.79-.68.69-2.86 2.79.68-.69 2.86zm1.39-5.72-2.79-.68.69-2.86 2.79.68-.69 2.86zm1.4-5.71-2.79-.68.69-2.85 2.79.68-.69 2.85zm1.38-5.72-2.79-.68.69-2.86 2.79.68-.69 2.86zm1.38-5.71-2.79-.68.69-2.86 2.79.68-.69 2.86zm1.39-5.72-2.79-.68.69-2.86 2.79.68-.69 2.86zm1.38-5.72-2.79-.68.69-2.86 2.79.68-.69 2.86zm1.38-5.71-2.79-.68.69-2.86 2.79.68-.69 2.86zm1.39-5.72-2.79-.68.69-2.86 2.79.68-.69 2.86zm1.38-5.72-2.79-.68.69-2.86 2.79.68-.69 2.86zm1.39-5.72-2.79-.68.69-2.86 2.79.68-.69 2.86zm1.38-5.72-2.79-.68.69-2.85 2.79.68-.69 2.85zm1.38-5.71-2.79-.68.69-2.86 2.79.68-.69 2.86zm1.39-5.72-2.79-.68.69-2.86 2.79.68-.69 2.86zm1.38-5.71-2.79-.69.71-2.86 2.79.69-.71 2.86zm1.4-5.72-2.79-.68.69-2.86 2.79.68-.69 2.86zm1.38-5.72-2.79-.68.69-2.85 2.79.68-.69 2.85zm1.39-5.71-2.79-.68.69-2.86 2.79.68-.69 2.86zm1.38-5.72-2.79-.68.69-2.86 2.79.68-.69 2.86zm1.38-5.72-2.79-.68.69-2.86 2.79.68-.69 2.86zm1.39-5.72-2.79-.68.69-2.86 2.79.68-.69 2.86zm1.38-5.71-2.79-.68.69-2.86 2.79.68-.69 2.86zm1.39-5.72-2.79-.68.69-2.86 2.79.68-.69 2.86zm1.38-5.71-2.79-.68.69-2.86 2.79.68-.69 2.86zm1.38-5.72-2.79-.68.69-2.86 2.79.68-.69 2.86zm1.39-5.72-2.79-.68.69-2.85 2.79.68-.69 2.85zm1.38-5.71-2.79-.68.69-2.86 2.79.68-.69 2.86zm1.4-5.72-2.79-.68.69-2.86 2.79.68-.69 2.86zm1.38-5.72-2.79-.68.69-2.86 2.79.68-.69 2.86zm1.39-5.72-2.79-.68.69-2.86 2.79.68-.69 2.86zm1.38-5.72-2.79-.68.69-2.85 2.79.68-.69 2.85zm1.38-5.71-2.79-.68.69-2.86 2.79.68-.69 2.86zm1.39-5.72-2.79-.68.69-2.86 2.79.68-.69 2.86zm1.38-5.71-2.79-.68.69-2.86 2.79.68-.69 2.86zm1.39-5.72-2.79-.68.69-2.86 2.79.68-.69 2.86zm1.38-5.71-2.79-.68.69-2.86 2.79.68-.69 2.86zm1.38-5.72-2.79-.68.69-2.86 2.79.68-.69 2.86zm1.39-5.72-2.79-.68.69-2.86 2.79.68-.69 2.86zm1.38-5.72-2.79-.68.69-2.86 2.79.68-.69 2.86zm1.4-5.72-2.79-.68.69-2.86 2.79.68-.69 2.86zm1.38-5.71-2.79-.68.69-2.86 2.79.68-.69 2.86zm1.39-5.72-2.79-.68.69-2.86 2.79.68-.69 2.86zm1.38-5.72-2.79-.68.69-2.86 2.79.68-.69 2.86zm1.38-5.71-2.79-.68.69-2.86 2.79.68-.69 2.86zm1.39-5.72-2.79-.68.69-2.85 2.79.68-.69 2.85zm1.38-5.71-2.79-.68.69-2.86 2.79.68-.69 2.86zm1.38-5.72-2.79-.68.69-2.86 2.79.68-.69 2.86zm1.39-5.72-2.79-.68.69-2.86 2.79.68-.69 2.86zm1.38-5.72-2.79-.68.69-2.86 2.79.68-.69 2.86zm1.39-5.72-2.79-.68.69-2.85 2.79.68-.69 2.85zm1.38-5.71-2.79-.68.69-2.86 2.79.68-.69 2.86zm1.38-5.71-2.79-.69.7-2.86 2.79.69-.7 2.86zm1.4-5.72-2.79-.68.69-2.86 2.79.68-.69 2.86zm1.38-5.72-2.79-.68.69-2.86 2.79.68-.69 2.86zm1.39-5.71-2.79-.68.69-2.86 2.79.68-.69 2.86zm1.38-5.72-2.79-.68.69-2.86 2.79.68-.69 2.86zm1.39-5.72-2.79-.68.69-2.86 2.79.68-.69 2.86zm1.38-5.72-2.79-.68.69-2.86 2.79.68-.69 2.86zm1.38-5.72-2.79-.68.69-2.85 2.79.68-.69 2.85zm1.39-5.71-2.79-.68.69-2.86 2.79.68-.69 2.86zm1.38-5.72-2.79-.68.69-2.86 2.79.68-.69 2.86zm1.39-5.72-2.79-.68.69-2.86 2.79.68-.69 2.86zm1.38-5.71-2.79-.68.69-2.86 2.79.68-.69 2.86zm1.38-5.72-2.79-.69.71-2.85 2.79.69-.71 2.85zm1.4-5.71-2.79-.68.69-2.86 2.79.68-.69 2.86zm1.4-5.72-2.82-.68.76-3.11.29-.29 1.16 1.06 1.27.3-.66 2.72zm2.45-4.21-2.04-2.05 2.09-2.07 2.04 2.05-2.09 2.07zm4.18-4.13-2.04-2.06 2.1-2.07 2.04 2.06-2.1 2.07zm4.19-4.14-2.04-2.05 2.09-2.06 2.04 2.05-2.09 2.06zm4.18-4.13-2.04-2.05 2.09-2.07 2.04 2.05-2.09 2.07zm4.18-4.14-2.04-2.05 2.09-2.07 2.04 2.05-2.09 2.07zm4.17-4.14-2.04-2.06 2.1-2.07 2.04 2.06-2.1 2.07zm4.19-4.14-2.04-2.05 2.09-2.07 2.04 2.05-2.09 2.07zm4.18-4.14-2.04-2.05 2.09-2.07 2.04 2.05-2.09 2.07zm4.18-4.14-2.04-2.05 2.09-2.07 2.04 2.05-2.09 2.07zm4.18-4.12-2.04-2.06 2.1-2.07 2.04 2.06-2.1 2.07zm4.19-4.15-2.04-2.05 2.09-2.07 2.04 2.05-2.09 2.07zm4.18-4.14-2.04-2.05 2.09-2.07 2.04 2.05-2.09 2.07zm4.17-4.13-2.04-2.05 2.09-2.07 2.04 2.05-2.09 2.07zm4.18-4.14-2.04-2.06 2.1-2.07 2.04 2.06-2.1 2.07zm4.19-4.14-2.04-2.05 2.09-2.07 2.04 2.05-2.09 2.07zm4.18-4.14-2.04-2.05 2.09-2.06 2.04 2.05-2.09 2.06zm4.18-4.13-2.04-2.05 2.09-2.07 2.04 2.05-2.09 2.07zm4.19-4.14-2.04-2.05 2.09-2.07 2.04 2.05-2.09 2.07zm4.18-4.14-2.04-2.05 2.09-2.07 2.04 2.05-2.09 2.07zm4.17-4.14-2.04-2.05 2.09-2.07 2.04 2.05-2.09 2.07zm4.18-4.14-2.04-2.05 2.09-2.07 2.04 2.05-2.09 2.07zm4.19-4.14-2.04-2.05 2.09-2.07 2.04 2.05-2.09 2.07zm4.18-4.13-2.04-2.05 2.09-2.06 2.04 2.05-2.09 2.06zm4.18-4.14-2.04-2.05 2.09-2.07 2.04 2.05-2.09 2.07zm4.17-4.13-2.04-2.05 2.09-2.07 2.04 2.05-2.09 2.07zm4.2-4.14-2.04-2.05 2.09-2.07 2.04 2.05-2.09 2.07zm4.17-4.14-2.04-2.05 2.09-2.07 2.04 2.05-2.09 2.07zm4.18-4.14-2.04-2.05 2.09-2.07 2.04 2.05-2.09 2.07zm4.18-4.14-2.04-2.05 2.09-2.07 2.04 2.05-2.09 2.07zm4.19-4.13-2.04-2.05 2.09-2.07 2.04 2.05-2.09 2.07zm4.18-4.14-2.04-2.05 2.09-2.07 2.04 2.05-2.09 2.07zm4.17-4.14-2.04-2.05 2.09-2.07 2.04 2.05-2.09 2.07zm4.18-4.14-2.04-2.05 2.09-2.07 2.04 2.05-2.09 2.07zm4.19-4.13-2.04-2.05 2.09-2.07 2.04 2.05-2.09 2.07zm4.18-4.14-2.04-2.05 2.09-2.07 2.04 2.05-2.09 2.07zm4.18-4.14-2.04-2.05 2.09-2.06 2.04 2.05-2.09 2.06zm4.18-4.13-2.04-2.05 2.09-2.07 2.04 2.05-2.09 2.07zm4.19-4.14-2.04-2.05 2.09-2.07 2.04 2.05-2.09 2.07zm4.17-4.14-2.04-2.05 2.09-2.07 2.04 2.05-2.09 2.07zM71.07 833.29l-.73-2.8 2.85-.74.73 2.8zm5.7-1.48-.73-2.79 2.84-.74.73 2.79zm4.995-4.296 2.844-.744.732 2.796-2.845.744zm6.385 1.336-.73-2.79 2.85-.74.73 2.8zm5.71-1.47-.73-2.8 2.84-.73.73 2.79zm5.69-1.48-.73-2.79 2.84-.74.73 2.79zm5.69-1.47-.73-2.8 2.85-.73.73 2.79zm5.69-1.48-.73-2.8 2.85-.74.73 2.8zm5.69-1.48-.73-2.79 2.85-.74.73 2.79zm5.7-1.48-.73-2.79 2.84-.74.73 2.8zm5.69-1.47-.73-2.79 2.84-.74.74 2.79zm5.69-1.48-.73-2.8 2.85-.73.73 2.79zm5.71-1.48-.73-2.79 2.84-.74.73 2.79zm5.69-1.47-.73-2.8 2.84-.73.73 2.79zm5.69-1.48-.73-2.79 2.85-.74.73 2.79zm4.991-4.298 2.845-.744.732 2.796-2.845.744zm6.389 1.348-.73-2.8 2.85-.74.73 2.8zm5.7-1.48-.73-2.79 2.84-.74.73 2.79zm5.69-1.48-.73-2.79 2.84-.74.74 2.8zm5.69-1.47-.73-2.79 2.86-.74.73 2.79zm5.71-1.48-.73-2.8 2.84-.73.73 2.79zm5.69-1.48-.73-2.79 2.84-.74.73 2.79zm5.69-1.47-.73-2.8 2.85-.73.73 2.79zm5.69-1.48-.73-2.79 2.85-.74.73 2.79zm5.69-1.48-.73-2.79 2.85-.74.73 2.79zm5.7-1.48-.73-2.79 2.84-.74.73 2.8zm5.69-1.47-.73-2.79 2.84-.74.74 2.79zm5.7-1.48-.73-2.79 2.85-.74.73 2.8zm4.99-4.29 2.845-.744.732 2.796-2.844.745zm6.4 1.34-.73-2.8 2.84-.73.73 2.79zm5.69-1.48-.73-2.79 2.85-.74.73 2.79zm5.69-1.47-.73-2.8 2.85-.73.73 2.79zm5.69-1.48-.73-2.79 2.85-.74.73 2.79zm5.7-1.48-.73-2.79 2.84-.74.73 2.79zm5.69-1.48-.73-2.79 2.84-.74.74 2.8zm5.7-1.47-.73-2.79 2.85-.74.73 2.79zm5.7-1.48-.73-2.79 2.84-.74.73 2.8zm5.69-1.48-.73-2.79 2.84-.74.73 2.79zm5.69-1.47-.73-2.8 2.85-.73.73 2.79zm5.69-1.48-.73-2.79 2.85-.74.73 2.79zm5.69-1.47-.73-2.8 2.85-.74.73 2.8zm4.988-4.302 2.844-.744.732 2.796-2.845.744zm6.402 1.342-.73-2.79 2.86-.74.73 2.79zm5.7-1.48-.73-2.79 2.85-.74.73 2.8zm5.7-1.47-.73-2.79 2.84-.74.73 2.79zm5.69-1.48-.73-2.79 2.84-.74.73 2.8zm5.69-1.48-.73-2.79 2.85-.74.73 2.79zm5.69-1.47-.73-2.8 2.85-.73.73 2.79zm5.69-1.48-.73-2.79 2.85-.74.73 2.79zm5.7-1.47-.73-2.8 2.84-.74.73 2.8zm5.69-1.49-.73-2.79 2.86-.74.73 2.8zm5.7-1.47-.73-2.79 2.85-.74.73 2.79zm5.7-1.48-.73-2.79 2.84-.74.73 2.8zm5.69-1.47-.73-2.8 2.84-.73.73 2.79zm4.984-4.306 2.845-.745.732 2.796-2.845.745zm6.396 1.346-.73-2.79 2.85-.74.73 2.79zm5.69-1.47-.73-2.8 2.85-.74.73 2.8zm5.7-1.48-.73-2.79 2.84-.74.73 2.79zm5.7-1.47-.73-2.8 2.85-.74.73 2.8zm5.69-1.49-.73-2.79 2.85-.74.73 2.8zm5.7-1.47-.73-2.8 2.84-.73.73 2.79zm5.69-1.48-.73-2.79 2.84-.74.73 2.8zm5.69-1.47-.73-2.8 2.85-.73.73 2.79zm5.69-1.48-.73-2.8 2.85-.74.73 2.8zm5.69-1.48-.73-2.79 2.85-.74.73 2.79zm5.7-1.47-.73-2.8 2.84-.74.73 2.8zm5.7-1.48-.73-2.79 2.85-.74.73 2.79zm4.981-4.308 2.844-.744.732 2.796-2.844.744zm6.409 1.348-.73-2.79 2.84-.74.73 2.8zm5.69-1.47-.73-2.8 2.84-.73.73 2.79zm5.69-1.48-.73-2.79 2.85-.74.73 2.8zm5.69-1.47-.73-2.8 2.85-.73.73 2.79zm5.69-1.48-.73-2.8 2.85-.74.73 2.8zm5.7-1.48-.73-2.79 2.84-.74.73 2.79zm5.7-1.47-.73-2.8 2.85-.74.73 2.8zm5.69-1.48-.73-2.79 2.85-.74.73 2.79zm5.7-1.48-.73-2.8 2.84-.73.73 2.79zm5.69-1.48-.73-2.79 2.84-.74.73 2.8zm5.69-1.47-.73-2.8 2.85-.73.73 2.79zm5.69-1.48-.73-2.79 2.85-.74.73 2.8zm4.978-4.31 2.844-.745.732 2.796-2.844.745zm6.412 1.36-.73-2.8 2.85-.74.74 2.8zm5.7-1.48-.73-2.79 2.85-.74.73 2.79zm5.69-1.47-.73-2.8 2.85-.74.73 2.8zm5.7-1.48-.73-2.79 2.84-.74.73 2.79zm5.69-1.48-.73-2.8 2.84-.73.73 2.79zm5.69-1.48-.73-2.79 2.85-.74.73 2.8zm5.69-1.47-.73-2.8 2.85-.73.73 2.79zm5.69-1.48-.73-2.79 2.85-.74.73 2.79zm5.71-1.48-.73-2.79 2.84-.74.74 2.79zm5.69-1.47-.73-2.8 2.85-.74.73 2.8zm5.69-1.48-.73-2.79 2.85-.74.73 2.79zm5.7-1.48-.73-2.79 2.84-.74.73 2.8zm4.967-4.302 2.845-.745.732 2.796-2.845.745zm6.413 1.352-.73-2.8 2.85-.73.73 2.79zm5.69-1.48-.73-2.79 2.85-.74.73 2.8zm5.69-1.47-.73-2.8 2.86-.73.73 2.79zm5.71-1.48-.73-2.79 2.84-.74.74 2.79zm5.69-1.48-.73-2.79 2.85-.74.73 2.79z"/><path d="m630.392 683.04 2.587-1.266 1.292 2.642-2.588 1.264zm-2.58-5.283 2.587-1.265 1.291 2.641-2.587 1.265zm-2.589-5.279 2.587-1.264 1.291 2.64-2.587 1.266zm-2.593-5.303 2.585-1.267 1.294 2.64-2.586 1.267zm-2.588-5.268 2.587-1.265 1.292 2.642-2.588 1.264zm-2.59-5.277 2.588-1.265 1.291 2.64-2.587 1.266zm-2.574-5.307 2.586-1.267 1.294 2.64-2.586 1.267zm-2.596-5.263 2.587-1.266 1.292 2.642-2.588 1.264zm-2.58-5.283 2.587-1.265 1.291 2.641-2.587 1.265zm-2.599-5.279 2.587-1.265 1.291 2.641-2.587 1.265zm-2.584-5.301 2.586-1.268 1.294 2.64-2.587 1.268zm-2.587-5.269 2.587-1.265 1.291 2.641-2.587 1.265zm-2.589-5.278 2.587-1.265 1.291 2.641-2.587 1.265zm-2.576-5.305 2.586-1.268 1.294 2.64-2.586 1.268zm-2.589-5.278 2.586-1.267 1.294 2.64-2.586 1.267zm-2.596-5.271 2.587-1.265 1.291 2.641-2.587 1.265zm-2.589-5.278 2.587-1.265 1.291 2.641-2.587 1.265zm-2.576-5.304 2.586-1.268 1.294 2.64-2.586 1.268zm-2.595-5.266 2.587-1.265 1.291 2.641-2.587 1.265zm-2.58-5.283 2.587-1.264 1.291 2.64-2.587 1.266zm-1.802.125-2.89-.55.55-2.84 2.88.56zm-5.77-1.1-2.9-.56.55-2.83 2.89.56zm-5.79-1.1-2.88-.56.54-2.83 2.89.55zm-5.78-1.11-2.89-.55.55-2.83 2.89.55zm-5.77-1.1-2.89-.55.55-2.83 2.89.55zm-5.79-1.1-2.88-.55.55-2.83 2.88.54zm-5.77-1.11-2.89-.54.54-2.84 2.9.55zm-5.78-1.09-2.88-.56.54-2.83 2.89.55zm-5.77-1.11-2.9-.55.55-2.83 2.9.55zm-5.78-1.1-2.89-.55.55-2.84 2.88.56zm-5.79-1.1-2.88-.55.55-2.83 2.88.54zm-5.77-1.11-2.88-.54.55-2.84 2.88.55zm-5.78-1.1-2.89-.55.55-2.83 2.89.55zm-5.77-1.1-2.9-.55.55-2.83 2.9.55zm-5.78-1.1-2.89-.55.55-2.84 2.88.56zm-5.79-1.1-2.88-.56.54-2.83 2.89.56zm-5.77-1.1-2.88-.56.54-2.83 2.89.55zm-5.78-1.11-2.89-.55.55-2.83 2.89.55zm-5.77-1.1-2.9-.55.55-2.83 2.9.55zm-5.79-1.1-2.88-.55.55-2.84 2.88.55zm-5.77-1.11-2.9-.55.55-2.83 2.9.55zm-5.78-1.09-2.89-.56.55-2.83 2.89.55zm-5.78-1.11-2.89-.55.55-2.84 2.88.56zm-5.77-1.1-2.89-.56.55-2.83 2.88.56zm-5.79-1.1-2.88-.55.55-2.84 2.88.55zm-5.77-1.11-2.9-.55.55-2.83 2.9.55zm-5.78-1.1-2.89-.55.55-2.83 2.89.55zm-5.77-1.1-2.9-.55.55-2.83 2.9.54zm-5.79-1.1-2.88-.55.55-2.84 2.88.56zm-5.78-1.1-2.88-.56.54-2.83 2.89.55zm-5.77-1.11-2.9-.55.55-2.83 2.9.55zm-5.78-1.1-2.89-.55.55-2.83 2.89.55zm-5.77-1.1-2.9-.55.55-2.83 2.89.54zm-5.79-1.11-2.88-.54.55-2.84 2.88.55zm-5.78-1.1-2.89-.55.55-2.83 2.89.55zm-5.77-1.1-2.89-.55.55-2.83 2.89.55zm-5.78-1.1-2.89-.55.55-2.84 2.88.56zm-5.78-1.1-2.89-.55.54-2.83 2.9.54zm-5.78-1.11-2.88-.54.54-2.84 2.89.55zm-5.77-1.1-2.9-.55.55-2.83 2.9.55zm-5.78-1.1-2.89-.55.55-2.83 2.89.55zm-5.79-1.1-2.88-.55.55-2.84 2.88.56zm-5.77-1.1-2.88-.56.55-2.83 2.88.56zm-5.78-1.1-2.89-.56.55-2.83 2.89.55zm-5.77-1.11-2.9-.55.55-2.83 2.9.55zm-5.78-1.1-2.89-.55.55-2.83 2.88.55zm-5.77-1.1-2.9-.55.55-2.84 2.89.55zm-5.79-1.11-2.88-.55.55-2.83 2.88.55zm-5.78-1.09-2.89-.56.55-2.83 2.89.55zm-5.77-1.11-2.89-.55.55-2.83 2.89.55zm-5.79-1.1-2.88-.56.55-2.83 2.88.56zm-5.77-1.1-2.89-.55.54-2.83 2.9.54zm-5.78-1.11-2.88-.54.54-2.84 2.89.55zm-5.78-1.1-2.89-.55.55-2.83 2.89.55zm-5.77-1.1-2.89-.55.55-2.83 2.89.54zm-5.79-1.1-2.88-.55.55-2.84 2.88.56zm-5.77-1.1-2.9-.56.55-2.83 2.9.55zm-5.78-1.11-2.89-.55.55-2.83 2.89.55zm-5.77-1.1-2.9-.55.55-2.83 2.9.55zm-5.78-1.1-2.89-.55.55-2.83 2.88.54zm-5.79-1.11-2.88-.54.54-2.84 2.89.55zm-5.77-1.1-2.88-.55.54-2.83 2.89.55zm-5.78-1.1-2.89-.55.55-2.83 2.89.55zm-5.77-1.1-2.9-.55.55-2.84 2.9.56zm-5.79-1.1-2.88-.56.55-2.83 2.88.56zm-5.77-1.1-2.89-.55.54-2.84 2.9.55zm-5.78-1.11-2.89-.55.55-2.83 2.89.55zm-5.78-1.1-2.89-.55.55-2.83 2.88.55zm-5.77-1.1-2.89-.55.55-2.84 2.88.55zm-5.79-1.1-2.88-.56.55-2.83 2.88.56zm-5.77-1.1-2.9-.56.55-2.83 2.9.55zm-5.78-1.11-2.89-.55.55-2.84 2.89.56zm-5.77-1.1-2.9-.55.55-2.83 2.9.55zm-5.79-1.1-2.88-.55.55-2.83 2.88.54zm-5.78-1.11-2.88-.55.54-2.83 2.89.55zm-5.77-1.1-2.9-.55.55-2.83 2.9.55zm-5.78-1.1-2.89-.55.55-2.83 2.89.55zm-5.77-1.1-2.9-.55.55-2.84 2.9.56zm-5.79-1.1-2.88-.56.55-2.83 2.88.55zm-5.78-1.11-2.89-.54.55-2.84 2.89.55zm-5.77-1.1-2.89-.55.55-2.83 2.89.55zm-5.78-1.1-2.89-.55.55-2.83 2.88.54zm-5.77-1.11-2.9-.54.55-2.84 2.89.55zm-5.79-1.09-2.88-.56.54-2.83 2.89.55zm-5.77-1.11-2.9-.55.55-2.83 2.9.55zm-5.78-1.1-2.89-.55.55-2.84 2.89.56zm-5.79-1.1-2.88-.55.55-2.83 2.88.55zm-5.77-1.11-2.89-.54.54-2.84 2.9.55zm-5.78-1.1-2.88-.55.54-2.83 2.89.55zm-5.77-1.1-2.9-.55.55-2.83 2.9.55zm-5.78-1.1-2.89-.55.55-2.84 2.88.56zm-5.79-1.1-2.88-.56.55-2.83 2.88.56zm-8.1-4.49 2.88.55-.55 2.84-2.88-.56M540.52 54.87c.74-.07 1.11-.31 1.11-.71 0-.3-.17-.5-.51-.62-.41-.13-.92-.27-1.54-.41-.53-.21-.79-.46-.79-.73 0-.77.37-1.11 1.12-1.04.17.01.32.02.47.02.51 0 1.32-.25 2.41-.75.12-.05.28-.08.47-.08.24 0 .44.1.61.29.17.19.25.41.25.64 0 .27-.15.49-.45.66-.26.12-.52.24-.78.37.48.43.73.99.76 1.68.02.49-.19.93-.6 1.31-.91.84-2.22 1.25-3.93 1.25-.17 0-.56-.01-1.17-.04-2.52 2.08-4.27 3.42-5.25 4.01-1.59.95-2.63 1.41-3.1 1.36-.27-.06-.53-.34-.79-.84-.24-.47-.35-.86-.35-1.17 0-.26.07-.45.22-.58.15-.08.32-.12.5-.12.13 0 .34.02.62.06.28.04.48.07.62.07.44 0 .87-.13 1.29-.4 1.89-1.22 3.25-2.15 4.06-2.78-.09-.19-.14-.35-.14-.47 0-.39.09-.7.28-.94.49-.62 1.07-.91 1.74-.89.84.03 1.33.34 1.48.91.59 0 1.06-.03 1.39-.06zm-2.31-12.37c-.8-.06-1.25-.13-1.35-.19-.36-.23-.54-.51-.54-.85 0-.47.25-.8.75-1.02.6-.11 1.09-.15 1.47-.11.47.05 1.01.18 1.62.39.43.15.82.42 1.17.8.27.3.4.65.4 1.06 0 .58-.3 1.2-.9 1.86-.47.52-1.03.96-1.66 1.31-.99.57-1.84.88-2.54.95-.33.03-.61-.05-.84-.24-.23-.19-.34-.45-.34-.78 0-.51.25-.8.76-.87.44-.06.86-.19 1.24-.38.28-.14.65-.35 1.11-.65.64-.41.96-.72.96-.92-.01-.17-.44-.29-1.31-.36zm5.93.03c-.8-.06-1.25-.13-1.35-.19-.36-.23-.54-.51-.54-.85 0-.47.25-.8.75-1.02.6-.11 1.09-.15 1.47-.11.47.05 1.01.18 1.62.39.43.15.82.42 1.17.8.27.3.4.65.4 1.06 0 .58-.3 1.2-.9 1.86-.47.52-1.03.96-1.66 1.31-.99.57-1.84.88-2.54.95-.33.03-.61-.05-.84-.24-.23-.19-.34-.45-.34-.78 0-.51.25-.8.76-.88.44-.06.86-.19 1.24-.38.28-.13.65-.35 1.11-.65.64-.41.96-.72.96-.92-.01-.15-.44-.28-1.31-.35zm11.63 7.8c.58 0 1.1.16 1.57.47.54.35.8.8.8 1.35 0 .31-.06.6-.17.86-.28.68-1.12 1.36-2.52 2.05-1.53.75-3.07 1.12-4.63 1.12-.3 0-.59-.02-.88-.05-1.5-.33-2.23-1.01-2.2-2.05.02-.88.47-1.71 1.35-2.5.59-.54 1.31-.8 2.15-.8.17 0 .32.01.46.05.28.06.74.24 1.36.54.92-.69 1.81-1.04 2.71-1.04zm-4.35 2.1c-.13-.02-.3.01-.52.09-.75.28-1.16.64-1.22 1.07-.05.32.14.48.56.48.3 0 .61-.15.93-.45.18-.17.29-.28.32-.33.14-.14.21-.34.21-.58l-.08-.25-.2-.03zm5.53-10.87c.24 0 .44.11.62.34.17.23.26.46.26.7 0 .24-.12.44-.35.59-.94.59-1.99 1.21-3.16 1.85l-2.06 1.12c-.65.36-1.1.56-1.33.62-.13.06-.27.09-.4.09-.23 0-.38-.08-.45-.24-.19-.43-.28-.69-.28-.77 0-.46.27-.75.8-.88 1.99-.97 3.97-2.07 5.94-3.3.14-.08.28-.12.41-.12zm-3.25 11.38c-.17.15-.26.36-.26.62 0 .04.01.06.04.07.08.02.16.03.25.03.25 0 .69-.15 1.33-.45.68-.32 1.02-.66 1.02-1.02 0-.11-.04-.17-.12-.18.12.01 0 .01-.37.01-.24 0-.66.18-1.25.53l-.64.39zm10.97 2.9c-.69.56-1.55 1.16-2.6 1.79-1.19.72-1.97 1.11-2.34 1.17-.05.01-.11.01-.18.01-.42 0-.78-.24-1.09-.71-.27-.42-.4-.83-.4-1.23 0-.37.19-.57.56-.6.02 0 .08 0 .15-.01s.17-.01.26 0c-.03 0 .18.02.63.05.43.03.68.03.76 0 .53-.2 1.21-.55 2.05-1.06 1.21-.75 2.17-1.49 2.86-2.22-.24-.17-.38-.42-.4-.75-.03-.39.21-.77.71-1.14.46-.34.9-.51 1.31-.51.66 0 1.02.32 1.06.97.15.06.53-.12 1.15-.53.18-.16.51-.4.99-.73.15-.02.28-.04.38-.04.14 0 .25.02.32.06.25.14.42.34.51.6.03.24-.03.49-.19.76s-.23.43-.22.48c.01.1.07.16.19.16.47.03 1.17-.45 2.12-1.44.39-.31.68-.46.85-.45.24.01.51.24.8.7.14.23.11.51-.09.85-.58.96-1.42 1.67-2.51 2.12-.53.22-1.01.34-1.44.36-.85.04-1.35-.3-1.48-1.03-.34.01-.95 0-1.85-.01-.25.23-1.21 1.02-2.87 2.38zm21.54-5c.24 0 .45.14.63.41.11.17.17.31.18.42.03.39-.31.81-1.03 1.24l-4.15 2.53c-1.62.99-3.04 1.72-4.26 2.2-.34.13-.55.2-.63.2-.78.09-1.27-.35-1.47-1.31-.02-.12-.04-.23-.04-.33 0-.39.2-.58.6-.58.13 0 .32.02.58.05s.45.05.58.05c.35 0 .66-.07.92-.21.27-.03 1.42-.66 3.44-1.87 1.67-1 2.88-1.76 3.61-2.28.5-.35.84-.52 1.04-.52zm-1.92-7.5c-.59.55-.89.97-.89 1.29 0 .04.02.07.05.09-.04.07.1.11.41.13.67.04 1.14 0 1.41-.13.17-.03.32-.05.45-.05.81 0 1.22.32 1.22.96 0 .58-.26.91-.78.97-.34.09-.84.13-1.5.13-2.26 0-3.38-.68-3.38-2.03 0-.19.02-.33.07-.44.26-.87.82-1.66 1.67-2.39.42-.36.7-.61.84-.74.23-.21.56-.4.98-.57.13-.06.24-.07.31-.05.67.21 1.01.61 1.01 1.18 0 .28-.22.54-.65.77-.63.41-1.03.7-1.22.88z"/><path d="M550.2 136.82c1.23-.12 1.84-.51 1.84-1.17 0-.5-.28-.84-.84-1.02-.68-.22-1.53-.45-2.55-.69-.87-.35-1.31-.76-1.31-1.21 0-1.27.62-1.84 1.86-1.72.27.03.54.04.78.04.85 0 2.18-.41 3.99-1.23.2-.09.46-.14.78-.14.39 0 .73.16 1.01.48s.42.68.42 1.07c0 .44-.25.81-.74 1.1-.43.2-.86.4-1.29.61.8.7 1.21 1.63 1.25 2.78.03.81-.31 1.53-1 2.17-1.5 1.38-3.67 2.08-6.5 2.08-.29 0-.93-.02-1.94-.06-4.16 3.45-7.06 5.66-8.69 6.64-2.64 1.58-4.35 2.33-5.13 2.25-.44-.09-.88-.55-1.31-1.39-.39-.77-.59-1.42-.59-1.94 0-.43.12-.75.37-.96.25-.13.52-.2.82-.2.22 0 .56.04 1.02.11s.8.11 1.02.11c.73 0 1.44-.22 2.13-.67 3.13-2.02 5.37-3.56 6.72-4.6-.16-.31-.23-.57-.23-.78 0-.64.16-1.16.47-1.55.81-1.02 1.77-1.51 2.88-1.47 1.38.05 2.2.55 2.45 1.51.99-.05 1.76-.09 2.31-.15zm-3.82-20.48c-1.33-.1-2.08-.21-2.23-.31-.6-.38-.9-.85-.9-1.41 0-.77.41-1.33 1.23-1.68.99-.18 1.8-.24 2.43-.18.77.08 1.66.29 2.68.65.72.25 1.36.69 1.94 1.33.44.5.67 1.08.67 1.76 0 .97-.5 1.99-1.49 3.07-.78.86-1.7 1.59-2.74 2.17-1.64.94-3.05 1.46-4.21 1.57-.55.05-1.01-.08-1.39-.39-.38-.31-.57-.74-.57-1.29 0-.85.42-1.33 1.25-1.45.73-.1 1.42-.31 2.06-.63.46-.22 1.07-.58 1.84-1.08 1.06-.68 1.59-1.19 1.59-1.53-.01-.28-.72-.48-2.16-.6zm9.81.06c-1.33-.1-2.08-.21-2.23-.31-.6-.38-.9-.85-.9-1.41 0-.77.41-1.33 1.23-1.68.99-.18 1.8-.24 2.43-.18.77.08 1.66.29 2.68.65.72.25 1.36.69 1.94 1.33.44.5.67 1.08.67 1.76 0 .97-.5 1.99-1.49 3.07-.78.86-1.7 1.59-2.74 2.17-1.64.94-3.05 1.46-4.21 1.57-.55.05-1.01-.08-1.39-.39-.38-.31-.57-.74-.57-1.29 0-.85.42-1.33 1.25-1.45.73-.1 1.42-.31 2.06-.63.46-.22 1.07-.58 1.84-1.08 1.06-.68 1.59-1.19 1.59-1.53 0-.28-.72-.48-2.16-.6zm17.1 11.73c.37 0 .71.16 1.03.48.32.32.48.66.48 1.03 0 .25-.61.88-1.84 1.9-.44.37-.69.7-.74 1.02-.08.46.05.81.37 1.06.51.38.87.57 1.08.57.07 0 .26-.04.59-.12.64-.16 1.3-.36 1.98-.61.86-.31 1.4-.5 1.63-.57.42-.03.72.08.92.33.29.12.43.46.43 1.02 0 .47-.44.95-1.33 1.45-3.43 1.91-5.72 3.18-6.87 3.82l-3.96 2.23c-2.13 1.2-3.56 1.89-4.29 2.06-.55.13-.91.17-1.08.12-.34-.1-.7-.35-1.07-.74s-.6-.76-.68-1.1c-.22-1.04-.05-1.62.53-1.72.13-.04.34-.06.63-.06.14 0 .36.01.65.03.29.02.5.03.65.03.38 0 .68-.03.9-.1.64-.27 1.56-.72 2.76-1.33 2.19-1.12 3.88-2.05 5.07-2.78-.63-.14-1.17-.45-1.64-.92-.51-.5-.76-1.05-.76-1.66 0-1.4 1.25-3.07 3.76-5.01.33-.29.61-.43.8-.43zm1.1-11.63c-1.33-.1-2.08-.21-2.23-.31-.6-.38-.9-.85-.9-1.41 0-.77.41-1.33 1.23-1.68.99-.18 1.8-.24 2.43-.18.77.08 1.66.29 2.68.65.72.25 1.36.69 1.94 1.33.44.5.67 1.08.67 1.76 0 .97-.5 1.99-1.49 3.07-.78.86-1.7 1.59-2.74 2.17-1.64.94-3.05 1.46-4.21 1.57-.55.05-1.01-.08-1.39-.39-.38-.31-.57-.74-.57-1.29 0-.85.42-1.33 1.25-1.45.73-.1 1.42-.31 2.06-.63.46-.22 1.07-.58 1.84-1.08 1.06-.68 1.59-1.19 1.59-1.53 0-.28-.72-.49-2.16-.6zm24.39 13.53c.38-.17.63-.28.76-.33.31-.13.67.08 1.08.63.27.37.42.72.43 1.08.01.29-.24.65-.76 1.1-1.49 1.27-3.62 2.68-6.4 4.23-3.89 2.18-6.43 3.3-7.62 3.37-.46.03-.89-.14-1.29-.5s-.61-.77-.61-1.22c0-.25.47-.88 1.41-1.9.7-1.15 1.12-2.13 1.23-2.94l-.12-2.11c-.05-.99.19-1.59.72-1.8.47-.18.86-.25 1.17-.2.8.13 1.25.78 1.35 1.96.07.73.1 1.17.1 1.33 0 1.2-.28 2.23-.84 3.07 1.13-.42 4.26-2.34 9.39-5.77zm-2.45-13.53c-1.33-.1-2.08-.21-2.23-.31-.6-.38-.9-.85-.9-1.41 0-.77.41-1.33 1.23-1.68.99-.18 1.8-.24 2.43-.18.77.08 1.66.29 2.68.65.72.25 1.36.69 1.94 1.33.44.5.67 1.08.67 1.76 0 .97-.5 1.99-1.49 3.07-.78.86-1.7 1.59-2.74 2.17-1.64.94-3.05 1.46-4.21 1.57-.55.05-1.01-.08-1.39-.39-.38-.31-.57-.74-.57-1.29 0-.85.42-1.33 1.25-1.45.73-.1 1.42-.31 2.06-.63.46-.22 1.07-.58 1.84-1.08 1.06-.68 1.59-1.19 1.59-1.53-.01-.28-.72-.49-2.16-.6zm20.32 20.32c1.23-.12 1.84-.51 1.84-1.17 0-.5-.28-.84-.84-1.02-.68-.22-1.53-.45-2.55-.69-.87-.35-1.31-.76-1.31-1.21 0-1.27.62-1.84 1.86-1.72.27.03.54.04.78.04.85 0 2.18-.41 3.99-1.23.2-.09.46-.14.78-.14.39 0 .73.16 1.01.48s.42.68.42 1.07c0 .44-.25.81-.74 1.1-.43.2-.86.4-1.29.61.8.7 1.21 1.63 1.25 2.78.03.81-.31 1.53-1 2.17-1.5 1.38-3.67 2.08-6.5 2.08-.29 0-.93-.02-1.94-.06-4.16 3.45-7.06 5.66-8.69 6.64-2.64 1.58-4.35 2.33-5.13 2.25-.44-.09-.88-.55-1.31-1.39-.39-.77-.59-1.42-.59-1.94 0-.43.12-.75.37-.96.25-.13.52-.2.82-.2.22 0 .56.04 1.02.11.46.07.8.11 1.02.11.73 0 1.44-.22 2.13-.67 3.13-2.02 5.37-3.56 6.72-4.6-.16-.31-.24-.57-.24-.78 0-.64.16-1.16.47-1.55.81-1.02 1.77-1.51 2.88-1.47 1.38.05 2.2.55 2.45 1.51 1.01-.05 1.78-.09 2.32-.15zm-2.13 13.22c.39 0 .73.19 1.02.56.29.37.43.76.43 1.17 0 .21-.2.54-.61 1-.43.35-1.48.99-3.13 1.9l-5.48 3c-1.07.59-1.8.93-2.19 1.02-.22.1-.44.16-.67.16-.38 0-.63-.13-.74-.39-.31-.72-.47-1.14-.47-1.27 0-.76.44-1.24 1.33-1.45 3.29-1.61 6.57-3.43 9.83-5.46.23-.17.46-.24.68-.24zm20.59-11.61c-1.14.93-2.57 1.91-4.31 2.96-1.97 1.19-3.26 1.83-3.88 1.94-.08.01-.18.02-.29.02-.69 0-1.29-.39-1.8-1.17-.44-.69-.67-1.37-.67-2.04 0-.61.31-.95.92-1 .04 0 .12-.01.25-.02s.27-.01.43 0c-.05 0 .29.03 1.04.08.7.05 1.12.05 1.25 0 .87-.33 2-.91 3.39-1.76 2.01-1.24 3.59-2.47 4.74-3.68-.4-.29-.63-.7-.67-1.23-.05-.65.34-1.28 1.17-1.88.76-.56 1.48-.84 2.17-.84 1.1 0 1.68.54 1.76 1.61.25.09.88-.2 1.9-.88.3-.26.85-.67 1.65-1.21.25-.04.46-.06.63-.06.23 0 .41.03.53.1.42.23.7.57.84 1 .05.39-.05.81-.31 1.26s-.39.71-.37.79c.01.17.12.26.31.27.77.05 1.94-.74 3.51-2.39.65-.51 1.12-.76 1.41-.74.4.01.85.4 1.33 1.16.23.38.18.85-.16 1.41-.97 1.59-2.35 2.76-4.15 3.51-.87.37-1.67.56-2.39.59-1.41.07-2.23-.5-2.45-1.7-.56.01-1.58.01-3.05-.02-.4.35-1.98 1.67-4.73 3.92zm34.78-8.4c.38-.17.63-.28.76-.33.31-.13.67.08 1.08.63.27.37.42.72.43 1.08.01.29-.24.65-.76 1.1-1.49 1.27-3.62 2.68-6.4 4.23-3.89 2.18-6.43 3.3-7.62 3.37-.46.03-.89-.14-1.29-.5s-.61-.77-.61-1.22c0-.25.47-.88 1.41-1.9.71-1.15 1.12-2.13 1.23-2.94l-.12-2.11c-.05-.99.19-1.59.72-1.8.47-.18.86-.25 1.17-.2.8.13 1.25.78 1.35 1.96.07.73.1 1.17.1 1.33 0 1.2-.28 2.23-.84 3.07 1.13-.42 4.25-2.34 9.39-5.77zm-2.34-12.3c-.98.9-1.47 1.61-1.47 2.13 0 .07.03.12.08.16-.06.12.16.19.69.22 1.11.07 1.89-.01 2.33-.22.27-.05.52-.08.74-.08 1.34 0 2.02.53 2.02 1.59 0 .97-.43 1.5-1.29 1.61-.56.14-1.39.22-2.49.22-3.73 0-5.6-1.12-5.6-3.37 0-.31.04-.55.12-.72.43-1.44 1.35-2.75 2.76-3.96.69-.6 1.16-1.01 1.39-1.23.38-.35.92-.67 1.63-.94.22-.09.39-.12.51-.08 1.11.35 1.66 1.01 1.66 1.96 0 .47-.36.89-1.08 1.27-1.02.67-1.68 1.15-2 1.44z" fill="#bd0e72"/><path d="M575.56 338.33c-.08-.18-.12-.38-.12-.6 0-.53.22-.87.67-1.03.09-.06.22-.09.39-.09.3 0 .88.15 1.74.46l2.35-1.23c1.22-.64 1.87-.98 1.95-1.02.1-.08.22-.12.35-.12.47 0 .74.26.83.79.02.09.02.18.02.25 0 .19-.2.41-.59.65-1.53.7-2.52 1.19-2.98 1.47.7.17 1.24.41 1.61.72.13.19.2.38.21.58.03.38-.06.67-.26.89-.29.31-.69.39-1.19.26-.52-.13-.87-.23-1.04-.27-.43-.12-.92-.27-1.46-.45-1.7 1.16-3.01 2.02-3.94 2.57-1.72 1.02-2.95 1.57-3.68 1.64-.24.02-.49-.1-.76-.37-.37-.37-.56-.88-.56-1.54 0-.42.27-.63.82-.63.12 0 .3.01.54.04.24.02.43.04.54.04.25 0 .47-.03.66-.09.84-.39 1.47-.71 1.92-.96.81-.47 1.6-.99 2.37-1.56-.21-.17-.35-.3-.39-.4zm1.95 9.12c.24 0 .44.11.62.34.17.23.26.46.26.7 0 .13-.12.33-.37.6-.26.21-.89.59-1.89 1.15l-3.31 1.81c-.65.36-1.09.56-1.33.62-.13.06-.27.09-.4.09-.23 0-.38-.08-.45-.24-.19-.43-.28-.69-.28-.77 0-.46.27-.75.8-.88 1.99-.97 3.97-2.07 5.94-3.3.14-.08.28-.12.41-.12zm12.15-7.38c0-.47.31-.8.92-.99.54-.17 1.11-.39 1.69-.66-.35-.17-.64-.31-.85-.44-.47-.28-.72-.51-.77-.67-.07-.24-.07-.45.01-.65.09-.23.25-.35.5-.38.95-.09 1.77-.38 2.46-.89.35-.25.66-.38.95-.38.06 0 .11.01.15.03.24.15.39.34.47.58.02.07.04.27.04.59-.01 0-.04.04-.08.12-.09.16-.23.28-.4.38-.17.14-.29.24-.37.28-.28.17-.45.27-.49.3-.21.12-.32.21-.32.26.01.02.08.05.2.08.68.19 1.02.49 1.02.89 0 .07-.05.2-.14.38-.18.2-.33.33-.44.41-.51.38-.9.64-1.17.78-.25.19-.38.26-.38.2.01.04.13.17.35.4.13.19.21.31.24.37.01.06.01.11.01.15 0 .33-.32.69-.97 1.09-5.07 3.08-7.97 4.65-8.7 4.71-.31.02-.62-.2-.92-.68-.28-.41-.43-.79-.46-1.14-.06-.54.18-.82.7-.82.15 0 .32.01.5.04.06.01.33.01.82.01.25 0 .51-.04.77-.12.99-.43 1.78-.81 2.37-1.14 1.41-.79 2.53-1.45 3.35-1.99-.71-.42-1.06-.8-1.06-1.1zm6.72-13.92c.24 0 .44.11.62.34.17.23.26.46.26.7 0 .24-.12.44-.35.59-.94.59-1.99 1.21-3.16 1.85l-2.06 1.12c-.65.36-1.1.56-1.33.62-.13.06-.27.09-.4.09-.23 0-.38-.08-.45-.24-.19-.43-.28-.69-.28-.77 0-.46.27-.75.8-.88 1.99-.97 3.97-2.07 5.94-3.3.13-.08.27-.12.41-.12zm13.38 0c.24 0 .44.11.62.34.17.23.26.46.26.7 0 .24-.12.44-.35.59-.94.59-1.99 1.21-3.16 1.85l-2.06 1.12c-.65.36-1.1.56-1.33.62-.13.06-.27.09-.4.09-.23 0-.38-.08-.45-.24-.19-.43-.28-.69-.28-.77 0-.46.27-.75.8-.88 1.99-.97 3.97-2.07 5.94-3.3.13-.08.27-.12.41-.12zm-2.91 11.57c.59.13.93.22 1.03.25.22.16.36.4.43.73.03.16 0 .33-.1.53-.1.19-.22.32-.36.4l-1.44.69c-.73.37-.93.63-.63.79-.01.01-.01.01-.01.02 0 .08.55.15 1.64.21.53.03.89.06 1.08.07.36.03.58.05.65.05.13 0 .35.03.64.08.28.1.41.41.41.92 0 .2-.05.39-.15.55-.12.2-.27.29-.46.27l-2.66-.27c-1.74-.17-2.69-.3-2.88-.39-.75-.1-1.12-.46-1.12-1.07 0-.34.14-.6.41-.79l2.45-1.7c-1.43-.28-2.26-.51-2.5-.69-.18-.13-.27-.38-.27-.74 0-.24.06-.4.18-.49 1.1-.8 1.98-1.44 2.64-1.93.06-.02.11-.03.15-.03.29 0 .56.26.79.77.02.13-.07.38-.25.73-.44.39-.73.64-.88.74.55.15.95.25 1.21.3zm16.34-2.36c.23-.1.38-.17.46-.2.19-.08.41.05.65.38.17.22.25.44.26.65.01.17-.15.39-.46.66-.9.77-2.19 1.62-3.87 2.56-2.35 1.32-3.88 2-4.6 2.04-.28.01-.54-.08-.78-.3-.24-.22-.37-.46-.37-.74 0-.15.28-.53.85-1.15.43-.7.67-1.29.75-1.78l-.07-1.28c-.03-.6.11-.96.44-1.09.28-.11.52-.15.71-.12.48.08.75.47.82 1.18.04.44.06.71.06.81 0 .72-.17 1.34-.51 1.86.67-.25 2.56-1.41 5.66-3.48zm-1.48-8.18c-.8-.06-1.25-.13-1.35-.19-.36-.23-.54-.51-.54-.85 0-.47.25-.8.75-1.02.6-.11 1.09-.15 1.47-.11.47.05 1.01.18 1.62.39.43.15.82.42 1.17.8.27.3.4.65.4 1.06 0 .58-.3 1.2-.9 1.86-.47.52-1.03.96-1.66 1.31-.99.57-1.84.88-2.54.95-.33.03-.61-.05-.84-.24-.23-.19-.34-.45-.34-.78 0-.51.25-.8.76-.87.44-.06.86-.19 1.24-.38.28-.14.65-.35 1.11-.65.64-.41.96-.72.96-.92 0-.17-.44-.29-1.31-.36zm220.43-82.62c.74-.07 1.11-.31 1.11-.71 0-.3-.17-.5-.51-.62-.41-.13-.92-.27-1.54-.41-.53-.21-.79-.46-.79-.73 0-.77.37-1.11 1.12-1.04.17.01.32.02.47.02.51 0 1.32-.25 2.41-.74.12-.06.28-.08.47-.08.24 0 .44.1.61.29.17.19.25.41.25.65 0 .27-.15.49-.45.66-.26.12-.52.24-.78.37.48.43.73.99.76 1.68.02.49-.19.93-.6 1.31-.91.84-2.22 1.25-3.93 1.25-.17 0-.56-.01-1.17-.04-2.52 2.08-4.27 3.42-5.25 4.01-1.59.95-2.63 1.41-3.1 1.36-.27-.06-.53-.34-.79-.84-.24-.47-.35-.86-.35-1.17 0-.26.07-.45.22-.58.15-.08.32-.12.5-.12.13 0 .34.02.62.07.28.04.48.07.62.07.44 0 .87-.13 1.29-.4 1.89-1.22 3.25-2.15 4.06-2.78-.09-.19-.14-.35-.14-.47 0-.39.09-.7.28-.94.49-.62 1.07-.91 1.74-.89.84.03 1.33.33 1.48.91.59-.03 1.05-.06 1.39-.09zm-2.31-12.37c-.8-.07-1.25-.13-1.35-.19-.36-.23-.54-.51-.54-.85 0-.47.25-.81.75-1.02.6-.11 1.09-.15 1.47-.11.47.05 1.01.18 1.62.39.43.15.82.42 1.17.8.27.3.4.65.4 1.07 0 .58-.3 1.2-.9 1.86-.47.52-1.03.96-1.66 1.31-.99.57-1.84.88-2.54.95-.33.03-.61-.05-.84-.24s-.34-.45-.34-.78c0-.51.25-.8.76-.88.44-.06.86-.19 1.24-.38.28-.13.65-.35 1.11-.65.64-.41.96-.72.96-.92-.01-.17-.44-.29-1.31-.36zm5.93.03c-.8-.06-1.25-.13-1.35-.19-.36-.23-.54-.51-.54-.85 0-.47.25-.8.75-1.02.6-.11 1.09-.15 1.47-.11.47.05 1.01.18 1.62.39.43.15.82.42 1.17.8.27.3.4.65.4 1.06 0 .58-.3 1.2-.9 1.86-.47.52-1.03.96-1.66 1.31-.99.57-1.84.88-2.54.95-.33.03-.61-.05-.84-.24s-.34-.45-.34-.78c0-.51.25-.8.76-.88.44-.06.86-.19 1.24-.38.28-.13.65-.35 1.11-.65.64-.41.96-.72.96-.92-.01-.16-.45-.28-1.31-.35zm7.54 13.31c-.69.56-1.55 1.16-2.6 1.79-1.19.72-1.97 1.11-2.34 1.17-.05.01-.11.01-.18.01-.42 0-.78-.24-1.09-.71-.27-.42-.4-.83-.4-1.23 0-.37.19-.57.56-.6.02 0 .07 0 .15-.01s.17-.01.26 0c-.03 0 .18.02.63.05.43.03.68.03.76 0 .53-.2 1.21-.55 2.05-1.06 1.21-.75 2.17-1.49 2.86-2.22-.24-.17-.38-.42-.4-.75-.03-.39.2-.77.71-1.14.46-.34.9-.51 1.31-.51.66 0 1.02.32 1.06.97.15.06.53-.12 1.15-.53.18-.16.51-.4.99-.73.15-.02.28-.04.38-.04.14 0 .25.02.32.06.25.14.42.34.51.6.03.24-.03.49-.19.76s-.23.43-.22.48c.01.1.07.16.19.17.47.03 1.17-.45 2.12-1.44.39-.31.68-.46.85-.45.24.01.51.24.8.7.14.23.11.51-.09.85-.58.96-1.42 1.67-2.51 2.12-.53.22-1.01.34-1.44.35-.85.04-1.34-.3-1.48-1.03-.34.01-.95 0-1.85-.01-.25.23-1.2 1.02-2.87 2.38zm5.78-15.2c.92.02 1.59.46 2.04 1.33.08.27.12.58.12.92 0 .75-.19 1.38-.57 1.9-.94 1.29-2.46 2.02-4.58 2.19-1.01-.04-1.71-.36-2.11-.96-.22-.47-.33-.91-.33-1.33 0-.7.33-1.4.98-2.11 1.24-1.32 2.72-1.97 4.45-1.94zm-3.29 3.95c.11.16.33.29.67.38h.38c.15 0 .31 0 .47-.01.92-.38 1.55-.82 1.89-1.33.04-.1.06-.21.06-.31 0-.49-.39-.71-1.18-.67-.47.12-.8.24-.99.37-.43.21-.77.44-1 .7-.23.26-.35.49-.35.68 0 .06.02.13.05.19zm16.4 5.03c.22 0 .43.1.62.29.19.19.29.4.29.62 0 .15-.37.53-1.11 1.15-.27.22-.42.42-.45.61-.05.28.03.49.22.64.31.23.52.34.65.34.04 0 .16-.02.35-.07.39-.09.78-.22 1.19-.37.52-.19.85-.3.98-.34.25-.02.44.05.56.2.17.07.26.28.26.62 0 .28-.27.58-.8.87-2.07 1.15-3.46 1.92-4.15 2.31l-2.39 1.35c-1.29.72-2.15 1.14-2.59 1.24-.33.08-.55.1-.65.07-.21-.06-.42-.21-.65-.45-.22-.24-.36-.46-.41-.66-.13-.63-.03-.98.32-1.04.08-.02.21-.04.38-.04.09 0 .22.01.39.02s.3.02.39.02c.23 0 .41-.02.54-.06.39-.17.94-.43 1.67-.8 1.33-.68 2.35-1.24 3.06-1.68-.38-.09-.71-.27-.99-.56-.31-.3-.46-.63-.46-1.01 0-.84.76-1.85 2.27-3.03.23-.16.39-.24.51-.24zm.74-6.29c-.59.55-.89.97-.89 1.29 0 .04.02.07.05.09-.04.07.1.12.41.13.67.04 1.14 0 1.41-.13.17-.03.32-.05.45-.05.81 0 1.22.32 1.22.96 0 .58-.26.91-.78.97-.34.09-.84.13-1.5.13-2.26 0-3.38-.68-3.38-2.04 0-.19.02-.33.07-.44.26-.87.82-1.66 1.67-2.39.42-.36.7-.61.84-.75.23-.21.56-.4.98-.57.13-.05.24-.07.31-.05.67.21 1.01.61 1.01 1.18 0 .28-.22.54-.65.77-.63.44-1.03.73-1.22.9zm14.62 9.17c0-.21-.31-.31-.93-.31l-1.7.19c-.09.01-.27.04-.56.11-.23.05-.41.07-.56.07-.2 0-.35-.06-.47-.18-.18-.25-.27-.52-.27-.79 0-.18.04-.37.12-.57.08-.43.87-.69 2.37-.79.38-.02 1.09.03 2.14.16 1.15.15 1.84.45 2.06.89.2.4.26.78.19 1.14-.06.28-.12.48-.2.62-.26.35-.53.64-.8.88-.53.46-1.03.84-1.49 1.14-1.06.69-2.52 1.46-4.4 2.31-.97.44-1.93.85-2.89 1.23-.43.17-.82.15-1.15-.08-.51-.55-.77-1.09-.77-1.6 0-.46.25-.69.76-.69.13 0 .32.02.57.06s.44.06.57.06c.21 0 .4-.03.56-.08.82-.29 1.24-.44 1.25-.45.82-.32 1.74-.76 2.76-1.31 1.52-.82 2.47-1.43 2.84-1.82-.01-.07 0-.12 0-.19zm1.43-13.27c.24 0 .44.11.62.34.17.23.26.46.26.7 0 .15-.12.36-.37.64-.06.12-.79.55-2.19 1.3l-3.02 1.62c-.67.36-1.11.57-1.33.62-.13.06-.27.09-.4.09-.23 0-.38-.08-.45-.24-.19-.43-.28-.69-.28-.77 0-.46.27-.75.8-.88 1.99-.97 3.97-2.07 5.94-3.3.15-.08.28-.12.42-.12zm1.41 2.5c.24 0 .44.11.62.34s.26.46.26.7c0 .13-.11.31-.32.56-.06.09-.35.3-.9.62l-4.35 2.39c-.65.36-1.1.56-1.33.62-.13.06-.27.09-.4.09-.23 0-.38-.08-.45-.24-.19-.43-.28-.69-.28-.77 0-.46.27-.75.8-.87 1.99-.97 3.97-2.07 5.94-3.3.13-.1.27-.14.41-.14zm-18.41 82.67c.74-.07 1.11-.31 1.11-.71 0-.3-.17-.5-.51-.62-.41-.13-.92-.27-1.54-.41-.53-.21-.79-.46-.79-.73 0-.77.37-1.11 1.12-1.04.17.01.32.02.47.02.51 0 1.32-.25 2.41-.74.12-.06.28-.08.47-.08.24 0 .44.1.61.29.17.19.25.41.25.65 0 .27-.15.49-.45.66-.26.12-.52.24-.78.37.48.43.73.99.76 1.68.02.49-.19.93-.6 1.31-.91.84-2.22 1.25-3.93 1.25-.17 0-.56-.01-1.17-.04-2.52 2.08-4.27 3.42-5.25 4.01-1.59.95-2.63 1.41-3.1 1.36-.27-.06-.53-.34-.79-.84-.24-.47-.35-.86-.35-1.17 0-.26.08-.45.22-.58.15-.08.32-.12.5-.12.13 0 .34.02.62.07.28.04.48.07.62.07.44 0 .87-.13 1.29-.4 1.89-1.22 3.25-2.15 4.06-2.78-.09-.19-.14-.35-.14-.47 0-.39.09-.7.28-.94.49-.62 1.07-.91 1.74-.89.84.03 1.33.33 1.48.91.59-.03 1.06-.06 1.39-.09zm-2.31-12.37c-.8-.07-1.25-.13-1.35-.19-.36-.23-.54-.51-.54-.85 0-.47.25-.81.75-1.02.6-.11 1.09-.15 1.47-.11.47.05 1.01.18 1.62.39.43.15.82.42 1.17.8.27.3.4.65.4 1.07 0 .58-.3 1.2-.9 1.86-.47.52-1.03.96-1.66 1.31-.99.57-1.84.88-2.54.95-.33.03-.61-.05-.84-.24-.23-.19-.34-.45-.34-.78 0-.51.25-.8.76-.88.44-.06.86-.19 1.24-.38.28-.13.65-.35 1.11-.65.64-.41.96-.72.96-.92-.01-.17-.44-.29-1.31-.36zm5.93.03c-.8-.06-1.25-.13-1.35-.19-.36-.23-.54-.51-.54-.85 0-.47.25-.8.75-1.02.6-.11 1.09-.15 1.47-.11.47.05 1.01.18 1.62.39.43.15.82.42 1.17.8.27.3.4.65.4 1.06 0 .58-.3 1.2-.9 1.86-.47.52-1.03.96-1.66 1.31-.99.57-1.84.88-2.54.95-.33.03-.61-.05-.84-.24-.23-.19-.34-.45-.34-.78 0-.51.25-.8.76-.88.44-.06.86-.19 1.24-.38.28-.13.65-.35 1.11-.65.64-.41.96-.72.96-.92-.01-.15-.44-.28-1.31-.35zm7.54 13.31c-.69.56-1.55 1.16-2.6 1.79-1.19.72-1.97 1.11-2.34 1.17-.05.01-.11.01-.18.01-.42 0-.78-.24-1.09-.71-.27-.42-.4-.83-.4-1.23 0-.37.19-.57.56-.6.02 0 .08 0 .15-.01.08-.01.17-.01.26 0-.03 0 .18.02.63.05.43.03.68.03.76 0 .53-.2 1.21-.55 2.05-1.06 1.21-.75 2.17-1.49 2.86-2.22-.24-.17-.38-.42-.4-.75-.03-.39.21-.77.71-1.14.46-.34.9-.51 1.31-.51.66 0 1.02.32 1.06.97.15.06.53-.12 1.15-.53.18-.16.51-.4.99-.73.15-.02.28-.04.38-.04.14 0 .25.02.32.06.25.14.42.34.51.6.03.24-.03.49-.19.76s-.23.43-.22.48c.01.1.07.16.19.17.47.03 1.17-.45 2.12-1.44.39-.31.68-.46.85-.45.24.01.51.24.8.7.14.23.11.51-.09.85-.58.96-1.42 1.67-2.51 2.12-.53.22-1.01.34-1.44.35-.85.04-1.35-.3-1.48-1.03-.34.01-.95 0-1.85-.01-.25.23-1.2 1.03-2.87 2.38zm5.78-15.2c.91.02 1.59.46 2.04 1.33.08.27.12.58.12.92 0 .75-.19 1.38-.57 1.9-.94 1.29-2.46 2.02-4.58 2.19-1.01-.04-1.71-.36-2.11-.96-.22-.47-.33-.91-.33-1.33 0-.7.33-1.4.98-2.11 1.24-1.32 2.72-1.97 4.45-1.94zm-3.29 3.95c.11.16.34.29.67.38h.38c.15 0 .31 0 .47-.01.92-.38 1.55-.82 1.89-1.33.04-.1.06-.21.06-.31 0-.49-.39-.71-1.18-.67-.47.12-.8.24-.99.37-.43.21-.77.44-1 .7-.23.26-.35.49-.35.68 0 .06.02.13.05.19zm13.72 9.97c-.57.04-.95.06-1.16.06-.52 0-.78-.29-.78-.86 0-.48.32-.81.95-.97l1.15-.3c1.33-.6 2.17-1.17 2.5-1.7.19-.3.49-.45.89-.45.13.02.29.1.49.24.35.24.52.56.49.94-.16.25-.31.43-.45.53-.34.25-.56.42-.66.5 1.62-.18 2.59-.3 2.92-.34.34.05.51.26.51.65 0 .32-.06.53-.17.64l-.66.43c-2.54 1.6-4.76 2.96-6.65 4.07-2.22 1.31-3.69 2.18-4.41 2.6-.44.25-1 .56-1.67.91-.12.06-.24.09-.37.09-.35 0-.65-.24-.91-.73-.22-.42-.33-.82-.33-1.21s.17-.58.51-.58c.13 0 .31.01.55.04.24.03.42.04.55.04.39 0 .74-.07 1.05-.21.05-.02.08-.03.09-.04h.01v.01c.01-.01.02-.01.04-.02l.93-.5c2.08-1.11 4.37-2.49 6.87-4.13-1.14.13-1.9.23-2.28.29zm5.14-13c.24 0 .44.11.62.34.17.23.26.46.26.7s-.12.44-.35.59c-.94.59-1.99 1.21-3.16 1.85l-2.06 1.12c-.65.35-1.1.56-1.33.62-.13.06-.27.09-.4.09-.23 0-.38-.08-.45-.24-.19-.43-.28-.69-.28-.77 0-.46.27-.75.8-.88 1.99-.97 3.97-2.07 5.94-3.3.14-.07.28-.12.41-.12zm-21.88 193c-.08-.18-.12-.38-.12-.6 0-.53.22-.87.67-1.03.09-.06.22-.09.39-.09.3 0 .88.15 1.74.46l2.35-1.23c1.22-.64 1.87-.98 1.95-1.02.1-.08.22-.12.35-.12.47 0 .74.26.83.79.02.09.02.18.02.25 0 .19-.2.41-.59.65-1.53.7-2.52 1.19-2.98 1.47.7.17 1.24.41 1.61.72.13.19.2.38.21.58.03.38-.06.67-.26.89-.29.31-.69.39-1.19.26-.52-.13-.87-.23-1.04-.27-.43-.12-.92-.27-1.46-.45-1.7 1.16-3.01 2.02-3.94 2.57-1.72 1.02-2.95 1.57-3.68 1.64-.24.02-.49-.1-.76-.37-.37-.37-.56-.88-.56-1.54 0-.42.27-.63.82-.63.12 0 .3.01.54.04.24.02.43.04.54.04.25 0 .47-.03.66-.09.84-.39 1.47-.71 1.92-.96.81-.47 1.6-.99 2.37-1.56-.21-.17-.35-.3-.39-.4zm4.03-11.15c-.8-.06-1.25-.13-1.35-.19-.36-.23-.54-.51-.54-.85 0-.47.25-.8.75-1.02.6-.11 1.09-.15 1.47-.11.47.05 1.01.18 1.62.39.43.15.82.42 1.17.8.27.3.4.65.4 1.06 0 .58-.3 1.2-.9 1.86-.47.52-1.03.96-1.66 1.31-.99.57-1.84.88-2.54.95-.33.03-.61-.05-.84-.24-.23-.19-.34-.45-.34-.78 0-.51.25-.8.76-.87.44-.06.86-.19 1.24-.38.28-.14.65-.35 1.11-.65.64-.41.96-.72.96-.92-.01-.16-.45-.29-1.31-.36zm10.07 12.89c0-.47.31-.8.92-.99.54-.17 1.11-.39 1.69-.66-.35-.17-.64-.31-.85-.44-.47-.28-.72-.51-.77-.67-.07-.24-.07-.45.01-.65.09-.23.25-.35.5-.38.95-.09 1.77-.38 2.46-.89.35-.25.66-.38.95-.38.06 0 .11.01.15.03.24.15.39.34.47.58.02.07.04.27.04.59-.01 0-.04.04-.08.12-.09.16-.23.28-.4.38-.17.14-.29.24-.37.28-.28.17-.45.27-.49.3-.21.12-.32.21-.32.26.01.02.08.05.2.08.68.19 1.02.49 1.02.89 0 .07-.05.2-.14.38-.18.2-.33.33-.44.41-.51.38-.9.64-1.17.78-.25.19-.38.26-.38.2.01.04.13.17.35.4.13.19.21.31.24.37.01.06.01.11.01.15 0 .33-.32.69-.97 1.09-5.07 3.08-7.97 4.65-8.7 4.71-.31.02-.62-.2-.92-.68-.28-.41-.43-.79-.46-1.14-.06-.54.18-.82.7-.82.15 0 .32.01.5.04.06.01.33.01.82.01.25 0 .51-.04.77-.12.99-.43 1.78-.81 2.37-1.14 1.41-.79 2.53-1.45 3.35-1.99-.71-.42-1.06-.8-1.06-1.1zm6.72-13.92c.24 0 .44.11.62.34.17.23.26.46.26.7s-.12.44-.35.59c-.94.59-1.99 1.21-3.16 1.85l-2.06 1.12c-.65.36-1.1.56-1.33.62-.13.06-.27.09-.4.09-.23 0-.38-.08-.45-.24-.19-.43-.28-.69-.28-.77 0-.46.27-.75.8-.88 1.99-.97 3.97-2.07 5.94-3.3.14-.07.27-.12.41-.12zm13 10.95c0-.21-.31-.31-.93-.31l-1.7.19c-.09.01-.27.04-.56.11-.23.05-.41.07-.56.07-.2 0-.35-.06-.47-.18-.18-.25-.27-.52-.27-.79 0-.18.04-.37.12-.57.08-.43.87-.69 2.37-.79.38-.02 1.09.03 2.14.17 1.15.15 1.84.45 2.06.89.2.4.26.78.19 1.14-.06.28-.12.48-.2.62-.26.35-.53.64-.8.88-.53.46-1.03.84-1.49 1.14-1.06.69-2.52 1.45-4.4 2.31-.97.44-1.93.85-2.89 1.23-.43.17-.82.15-1.15-.08-.51-.55-.77-1.09-.77-1.6 0-.46.25-.69.76-.69.13 0 .32.02.57.06.25.04.44.06.57.06.21 0 .4-.03.56-.08.82-.29 1.24-.44 1.25-.45.82-.32 1.74-.76 2.76-1.31 1.52-.82 2.47-1.43 2.84-1.82-.01-.08 0-.14 0-.2zm1.43-13.28c.24 0 .44.11.62.34.17.23.26.46.26.7 0 .15-.12.36-.37.64-.06.12-.79.55-2.19 1.3l-3.02 1.62c-.67.36-1.11.57-1.33.62-.13.06-.27.09-.4.09-.23 0-.38-.08-.45-.24-.19-.43-.28-.69-.28-.77 0-.46.27-.75.8-.87 1.99-.97 3.97-2.07 5.94-3.3.15-.08.29-.13.42-.13zm1.41 2.5c.24 0 .44.11.62.34.17.23.26.46.26.7 0 .13-.11.31-.32.56-.06.09-.35.3-.9.62l-4.35 2.39c-.65.35-1.1.56-1.33.61-.13.06-.27.09-.4.09-.23 0-.38-.08-.45-.23-.19-.43-.28-.69-.28-.77 0-.46.27-.75.8-.87 1.99-.97 3.97-2.07 5.94-3.3.14-.1.27-.14.41-.14z"/><path d="M731.22 626.01c1.23-.12 1.84-.51 1.84-1.17 0-.5-.28-.84-.84-1.02-.68-.22-1.53-.45-2.55-.69-.87-.35-1.31-.76-1.31-1.21 0-1.27.62-1.84 1.86-1.72.27.03.54.04.78.04.85 0 2.18-.41 3.99-1.23.2-.09.46-.14.78-.14.39 0 .73.16 1.01.48.28.32.42.68.42 1.07 0 .44-.25.81-.74 1.1-.43.2-.86.4-1.29.61.8.71 1.21 1.63 1.25 2.78.03.81-.31 1.53-1 2.17-1.5 1.38-3.67 2.08-6.5 2.08-.29 0-.93-.02-1.94-.06-4.16 3.45-7.06 5.66-8.69 6.64-2.64 1.58-4.35 2.33-5.13 2.25-.44-.09-.88-.55-1.31-1.39-.39-.77-.59-1.42-.59-1.94 0-.43.12-.75.37-.96.25-.13.52-.2.82-.2.22 0 .56.04 1.02.11.46.07.8.11 1.02.11.73 0 1.44-.22 2.13-.67 3.13-2.02 5.37-3.56 6.72-4.6-.16-.31-.23-.57-.23-.78 0-.64.16-1.16.47-1.55.81-1.02 1.77-1.51 2.88-1.47 1.38.05 2.2.55 2.45 1.51 1-.06 1.77-.1 2.31-.15zm-3.81-20.49c-1.33-.1-2.08-.21-2.23-.31-.6-.38-.9-.85-.9-1.41 0-.77.41-1.33 1.23-1.68.99-.18 1.8-.24 2.43-.18.77.08 1.66.29 2.68.65.72.25 1.36.69 1.94 1.33.44.5.67 1.08.67 1.76 0 .97-.5 1.99-1.49 3.07-.78.86-1.7 1.59-2.74 2.17-1.64.94-3.05 1.46-4.21 1.57-.55.05-1.01-.08-1.39-.39-.38-.31-.57-.74-.57-1.29 0-.85.42-1.33 1.25-1.45.73-.1 1.42-.31 2.06-.63.46-.22 1.07-.58 1.84-1.08 1.06-.68 1.59-1.19 1.59-1.53-.01-.28-.73-.48-2.16-.6zm9.81.06c-1.33-.1-2.08-.21-2.23-.31-.6-.38-.9-.85-.9-1.41 0-.77.41-1.33 1.23-1.68.99-.18 1.8-.24 2.43-.18.77.08 1.66.29 2.68.65.72.25 1.36.69 1.94 1.33.44.5.67 1.08.67 1.76 0 .97-.5 1.99-1.49 3.07-.78.86-1.7 1.59-2.74 2.17-1.64.94-3.05 1.46-4.21 1.57-.55.05-1.01-.08-1.39-.39-.38-.31-.57-.74-.57-1.29 0-.85.42-1.33 1.25-1.45.73-.1 1.42-.31 2.06-.63.46-.22 1.07-.58 1.84-1.08 1.06-.68 1.59-1.19 1.59-1.53-.01-.28-.73-.48-2.16-.6zm12.46 22.03c-1.14.93-2.57 1.91-4.31 2.96-1.97 1.19-3.26 1.83-3.88 1.94-.08.01-.18.02-.29.02-.69 0-1.29-.39-1.8-1.17-.44-.69-.67-1.37-.67-2.04 0-.61.31-.95.92-1 .04 0 .12-.01.25-.02s.27-.01.43 0c-.05 0 .29.03 1.04.08.71.05 1.12.05 1.25 0 .87-.33 2-.91 3.39-1.76 2.01-1.24 3.59-2.47 4.74-3.68-.4-.29-.63-.7-.67-1.23-.05-.65.34-1.28 1.17-1.88.76-.56 1.48-.84 2.17-.84 1.1 0 1.68.54 1.76 1.61.25.09.88-.2 1.9-.88.3-.26.85-.67 1.64-1.21.25-.04.46-.06.63-.06.23 0 .41.03.53.1.42.23.7.57.84 1 .05.39-.05.81-.31 1.26-.26.45-.39.71-.37.79.01.17.12.26.31.27.77.05 1.94-.74 3.51-2.39.65-.51 1.12-.76 1.41-.74.4.01.85.4 1.33 1.16.23.38.18.85-.16 1.41-.97 1.59-2.35 2.76-4.15 3.51-.87.37-1.67.56-2.39.59-1.41.07-2.23-.5-2.45-1.7-.56.01-1.58.01-3.05-.02-.39.36-1.97 1.68-4.72 3.92zm8.71-23.63c.39 0 .73.19 1.02.56.29.37.43.76.43 1.17s-.2.73-.59.98c-1.55.98-3.3 2-5.23 3.05l-3.41 1.86c-1.08.59-1.81.93-2.19 1.02-.22.1-.44.16-.67.16-.38 0-.63-.13-.74-.39-.31-.72-.47-1.14-.47-1.27 0-.76.44-1.24 1.33-1.45 3.29-1.61 6.57-3.43 9.83-5.46.24-.16.47-.23.69-.23zm25.97 18.11c0-.34-.52-.51-1.55-.51l-2.82.31c-.14.01-.45.07-.92.18-.38.08-.69.12-.92.12-.33 0-.59-.1-.78-.29-.3-.42-.45-.86-.45-1.31 0-.3.07-.61.2-.94.13-.7 1.44-1.14 3.92-1.31.63-.04 1.81.05 3.54.27 1.91.25 3.04.74 3.41 1.47.33.67.43 1.29.31 1.88-.09.46-.2.8-.33 1.02-.43.57-.87 1.06-1.33 1.45-.87.76-1.7 1.38-2.47 1.88-1.75 1.14-4.18 2.41-7.28 3.82-1.61.73-3.2 1.41-4.78 2.04-.72.29-1.35.24-1.9-.14-.85-.91-1.27-1.8-1.27-2.64 0-.76.42-1.14 1.25-1.14.21 0 .52.03.94.1.42.07.73.1.94.1.35 0 .66-.05.92-.14 1.36-.48 2.05-.73 2.08-.74 1.36-.54 2.88-1.26 4.56-2.17 2.52-1.36 4.09-2.36 4.7-3.02.01-.09.03-.19.03-.29zm.62-18.11c.39 0 .73.19 1.02.56.29.37.43.76.43 1.17s-.2.73-.59.98c-1.55.98-3.3 2-5.23 3.05l-3.41 1.86c-1.08.59-1.81.93-2.19 1.02-.22.1-.44.16-.67.16-.38 0-.63-.13-.74-.39-.31-.72-.47-1.14-.47-1.27 0-.76.44-1.24 1.33-1.45 3.29-1.61 6.57-3.43 9.83-5.46.24-.16.47-.23.69-.23z" fill="#bd0e72"/><path d="M560.12 468.4c.24 0 .44.11.62.34.17.23.26.46.26.7 0 .13-.12.33-.37.6-.26.21-.89.59-1.89 1.15l-3.31 1.81c-.65.36-1.09.56-1.33.62-.13.06-.27.09-.4.09-.23 0-.38-.08-.45-.24-.19-.43-.28-.69-.28-.77 0-.46.27-.75.8-.88 1.99-.97 3.97-2.07 5.94-3.3.14-.08.27-.12.41-.12zm4.06-12.02c.24 0 .45.14.63.41.11.17.17.31.18.42.03.39-.31.81-1.03 1.24l-4.15 2.53c-1.62.99-3.04 1.72-4.26 2.2-.34.13-.55.2-.63.2-.78.09-1.27-.35-1.47-1.31-.02-.12-.04-.23-.04-.33 0-.39.2-.58.6-.58.13 0 .32.02.58.05s.45.05.58.05c.35 0 .66-.07.92-.21.27-.03 1.42-.66 3.44-1.87 1.67-1 2.88-1.76 3.61-2.28.5-.35.84-.52 1.04-.52zm10.5-1.22c.22 0 .43.1.62.29.19.19.29.4.29.62 0 .15-.37.53-1.11 1.15-.27.22-.42.43-.45.62-.05.28.03.49.22.64.31.23.52.34.65.34.04 0 .16-.02.35-.07.39-.09.78-.22 1.19-.37.52-.19.85-.3.98-.34.25-.02.44.05.56.2.17.07.26.28.26.62 0 .28-.27.58-.8.88-2.07 1.15-3.46 1.92-4.15 2.31l-2.39 1.35c-1.29.72-2.15 1.14-2.59 1.24-.33.08-.55.1-.65.07-.2-.06-.42-.21-.64-.45-.23-.24-.36-.46-.41-.66-.13-.63-.03-.98.32-1.04.08-.02.2-.04.38-.04.09 0 .22.01.39.02s.3.02.39.02c.23 0 .41-.02.54-.06.39-.17.94-.43 1.67-.8 1.33-.68 2.35-1.24 3.06-1.68-.38-.09-.71-.27-.99-.55-.31-.3-.46-.64-.46-1.01 0-.84.76-1.85 2.27-3.03.21-.18.38-.27.5-.27zm4.53-8.84c.62.11.94.42.95.92.01.54-.73 1.03-2.2 1.48-.71.21-1.21.59-1.49 1.14.17.21.49.36.95.44.43.03.97.11 1.64.24.36.16.5.49.41.98-.12.65-.58.97-1.37.97-.62 0-1.4-.17-2.32-.52-.69-.26-1.14-.67-1.35-1.23-.95.82-2.35 1.34-4.2 1.56-.34.04-.67 0-.98-.13-.39-.16-.59-.39-.59-.71 0-.58.27-.93.82-1.07.39 0 .91-.07 1.56-.2.92-.19 1.57-.49 1.94-.9-.07-.3-.45-.55-1.14-.75-.17-.03-.61-.09-1.33-.16-.4-.13-.6-.37-.6-.73 0-.06.01-.15.04-.27.13-.71.61-1.04 1.43-.98.47.03.94.11 1.4.24.92.25 1.65.82 2.19 1.72.53-.62 1.02-1.06 1.48-1.31.51-.28 1.29-.52 2.37-.72.1-.04.23-.04.39-.01zm27.15 121.5c.74-.07 1.11-.31 1.11-.71 0-.3-.17-.5-.51-.62-.41-.13-.92-.27-1.54-.41-.53-.21-.79-.46-.79-.73 0-.77.37-1.11 1.12-1.04.17.01.32.02.47.02.51 0 1.32-.25 2.41-.75.12-.05.28-.08.47-.08.24 0 .44.1.61.29.17.19.25.41.25.64 0 .27-.15.49-.45.66-.26.12-.52.24-.78.37.48.43.73.99.76 1.68.02.49-.19.93-.6 1.31-.91.84-2.22 1.25-3.93 1.25-.17 0-.56-.01-1.17-.04-2.52 2.08-4.27 3.42-5.25 4.01-1.59.95-2.63 1.41-3.1 1.36-.27-.06-.53-.34-.79-.84-.24-.47-.35-.86-.35-1.17 0-.26.07-.45.22-.58.15-.08.32-.12.5-.12.13 0 .34.02.62.06.28.04.48.07.62.07.44 0 .87-.13 1.29-.4 1.89-1.22 3.25-2.15 4.06-2.78-.09-.19-.14-.35-.14-.47 0-.39.09-.7.28-.94.49-.62 1.07-.91 1.74-.89.84.03 1.33.34 1.48.91.6 0 1.06-.03 1.39-.06zm-2.3-12.37c-.8-.06-1.25-.13-1.35-.19-.36-.23-.54-.51-.54-.85 0-.47.25-.8.75-1.02.6-.11 1.09-.15 1.47-.11.47.05 1.01.18 1.62.39.43.15.82.42 1.17.8.27.3.4.65.4 1.06 0 .58-.3 1.2-.9 1.86-.47.52-1.03.96-1.66 1.31-.99.57-1.84.88-2.54.95-.33.03-.61-.05-.84-.24s-.34-.45-.34-.78c0-.51.25-.8.76-.87.44-.06.86-.19 1.24-.38.28-.14.65-.35 1.11-.65.64-.41.96-.72.96-.92-.01-.17-.45-.29-1.31-.36zm5.92.03c-.8-.06-1.25-.13-1.35-.19-.36-.23-.54-.51-.54-.85 0-.47.25-.8.75-1.02.6-.11 1.09-.15 1.47-.11.47.05 1.01.18 1.62.39.43.15.82.42 1.17.8.27.3.4.65.4 1.06 0 .58-.3 1.2-.9 1.86-.47.52-1.03.96-1.66 1.31-.99.57-1.84.88-2.54.95-.33.03-.61-.05-.84-.24-.23-.19-.34-.45-.34-.78 0-.51.25-.8.76-.88.44-.06.86-.19 1.24-.38.28-.13.65-.35 1.11-.65.64-.41.96-.72.96-.92 0-.15-.44-.28-1.31-.35zm7.67 12.03c-.57.04-.95.06-1.16.06-.52 0-.78-.29-.78-.86 0-.48.32-.8.95-.97l1.15-.3c1.33-.6 2.17-1.17 2.5-1.7.19-.3.49-.45.89-.45.13.02.29.1.49.24.35.24.52.56.49.94-.16.25-.31.43-.45.53-.34.25-.56.42-.66.5 1.62-.18 2.59-.3 2.92-.34.34.05.51.26.51.65 0 .32-.06.53-.17.64l-.66.43c-2.54 1.6-4.76 2.96-6.65 4.07-2.22 1.31-3.69 2.18-4.41 2.6-.44.25-1 .55-1.67.91-.12.06-.24.09-.37.09-.35 0-.65-.24-.91-.73-.22-.42-.33-.82-.33-1.21s.17-.58.51-.58c.13 0 .31.01.55.04.24.03.42.04.55.04.39 0 .74-.07 1.05-.21.05-.02.08-.03.09-.04h.01v.01c.01-.01.02-.02.04-.02l.93-.5c2.08-1.11 4.37-2.49 6.87-4.13-1.14.13-1.89.23-2.28.29zm5.15-13c.24 0 .44.11.62.34.17.23.26.46.26.71 0 .24-.12.44-.35.59-.94.59-1.99 1.21-3.16 1.85l-2.06 1.12c-.65.36-1.1.56-1.33.62-.13.06-.27.09-.4.09-.23 0-.38-.08-.45-.24-.19-.43-.28-.69-.28-.77 0-.46.27-.75.8-.88 1.99-.97 3.97-2.07 5.94-3.3a.71.71 0 0 1 .41-.13zm9.76 21.3c.24 0 .44.11.62.34.17.23.26.46.26.7 0 .13-.12.33-.37.6-.26.21-.89.59-1.89 1.15l-3.31 1.81c-.65.36-1.09.56-1.33.62-.13.06-.27.09-.4.09-.23 0-.38-.08-.45-.24-.19-.43-.28-.69-.28-.77 0-.46.27-.75.8-.88 1.99-.97 3.97-2.07 5.94-3.3.14-.08.28-.12.41-.12zm3.49-10.35c0-.21-.31-.31-.93-.31l-1.7.19c-.09.01-.27.04-.56.11-.23.05-.41.07-.56.07-.2 0-.35-.06-.47-.18-.18-.25-.27-.52-.27-.79 0-.18.04-.37.12-.57.08-.43.87-.69 2.37-.79.38-.02 1.09.03 2.14.17 1.15.15 1.84.45 2.06.89.2.4.26.78.19 1.14-.06.28-.12.48-.2.62-.26.35-.53.64-.8.88-.53.46-1.03.84-1.49 1.14-1.06.69-2.52 1.45-4.4 2.31-.97.44-1.93.85-2.89 1.23-.43.17-.82.15-1.15-.08-.51-.55-.77-1.09-.77-1.6 0-.46.25-.69.76-.69.13 0 .32.02.57.06s.44.06.57.06c.21 0 .4-.03.56-.08.82-.29 1.24-.44 1.25-.45.82-.32 1.74-.76 2.76-1.31 1.52-.82 2.47-1.43 2.84-1.82-.01-.09 0-.14 0-.2zm-146.02 26.5c.74-.07 1.11-.31 1.11-.71 0-.3-.17-.5-.51-.62-.41-.13-.92-.27-1.54-.41-.53-.21-.79-.46-.79-.73 0-.77.37-1.11 1.12-1.04.17.01.32.02.47.02.51 0 1.32-.25 2.41-.74.12-.06.28-.08.47-.08.24 0 .44.1.61.29.17.19.25.41.25.65 0 .27-.15.49-.45.66-.26.12-.52.24-.78.37.48.43.73.99.76 1.68.02.49-.19.93-.6 1.31-.91.84-2.22 1.25-3.93 1.25-.17 0-.56-.01-1.17-.04-2.52 2.08-4.27 3.42-5.25 4.01-1.59.95-2.63 1.41-3.1 1.36-.27-.06-.53-.34-.79-.84-.24-.47-.35-.86-.35-1.17 0-.26.07-.45.22-.58.15-.08.32-.12.5-.12.13 0 .34.02.62.07.28.04.48.07.62.07.44 0 .87-.13 1.29-.4 1.89-1.22 3.25-2.15 4.06-2.78-.09-.19-.14-.35-.14-.47 0-.39.09-.7.28-.94.49-.62 1.07-.91 1.74-.89.84.03 1.33.33 1.48.91.59-.03 1.06-.06 1.39-.09zm-2.31-12.37c-.8-.07-1.25-.13-1.35-.19-.36-.23-.54-.51-.54-.85 0-.47.25-.81.75-1.02.6-.11 1.09-.15 1.47-.11.47.05 1.01.18 1.62.39.43.15.82.42 1.17.8.27.3.4.65.4 1.07 0 .58-.3 1.2-.9 1.86-.47.52-1.03.96-1.66 1.31-.99.57-1.84.88-2.54.95-.33.03-.61-.05-.84-.24-.23-.19-.34-.45-.34-.78 0-.51.25-.8.76-.88.44-.06.86-.19 1.24-.38.28-.13.65-.35 1.11-.65.64-.41.96-.72.96-.92-.01-.17-.44-.29-1.31-.36zm5.93.03c-.8-.06-1.25-.13-1.35-.19-.36-.23-.54-.51-.54-.85 0-.47.25-.8.75-1.02.6-.11 1.09-.15 1.47-.11.47.05 1.01.18 1.62.39.43.15.82.42 1.17.8.27.3.4.65.4 1.06 0 .58-.3 1.2-.9 1.86-.47.52-1.03.96-1.66 1.31-.99.57-1.84.88-2.54.95-.33.03-.61-.05-.84-.24-.23-.19-.34-.45-.34-.78 0-.51.25-.8.76-.88.44-.06.86-.19 1.24-.38.28-.13.65-.35 1.11-.65.64-.41.96-.72.96-.92-.01-.15-.44-.28-1.31-.35zm11.96 8c.14-.03.25-.04.32-.04.05-.01.1-.02.15-.02.21 0 .39.11.53.34.13.2.19.41.19.63 0 .28-.12.49-.37.62l-.85.33c-.29.11-.73.27-1.31.49-.31.11-.46.2-.46.26 0 .02 0 .03.01.05-.02.02-.03.05-.04.07 0 .06.19.26.57.59.29.25.47.6.52 1.04.03.24.02.43-.02.59-.16.53-.51.99-1.05 1.37-.48.35-1.02.58-1.61.69-1.06.21-1.94.32-2.66.34-1.18.05-1.85.01-2.01-.11-.35-.15-.53-.6-.53-1.35 0-.39.11-.6.34-.63.09-.01.35.05.8.21.45.16.77.23.96.23.4 0 .75-.02 1.05-.06.77-.1 1.25-.19 1.42-.26.76-.17 1.14-.47 1.14-.89-.09-.16-.41-.4-.95-.72-.43-.26-.65-.6-.65-1.01 0-.73 1.01-1.47 3.03-2.21.71-.25 1.21-.44 1.48-.55zm-4.03-8.03c-.8-.07-1.25-.13-1.35-.19-.36-.23-.54-.51-.54-.85 0-.47.25-.81.75-1.02.6-.11 1.09-.15 1.47-.11.47.05 1.01.18 1.62.39.43.15.82.42 1.17.8.27.3.4.65.4 1.07 0 .58-.3 1.2-.9 1.86-.47.52-1.03.96-1.66 1.31-.99.57-1.84.88-2.54.95-.33.03-.61-.05-.84-.24-.23-.19-.34-.45-.34-.78 0-.51.25-.8.76-.88.44-.06.86-.19 1.24-.38.28-.13.65-.35 1.11-.65.64-.41.96-.72.96-.92-.01-.17-.45-.29-1.31-.36zm5.92.03c-.8-.06-1.25-.13-1.35-.19-.36-.23-.54-.51-.54-.85 0-.47.25-.8.75-1.02.6-.11 1.09-.15 1.47-.11.47.05 1.01.18 1.62.39.43.15.82.42 1.17.8.27.3.4.65.4 1.06 0 .58-.3 1.2-.9 1.86-.47.52-1.03.96-1.66 1.31-.99.57-1.84.88-2.54.95-.33.03-.61-.05-.84-.24-.23-.19-.34-.45-.34-.78 0-.51.25-.8.76-.88.44-.06.86-.19 1.24-.38.28-.13.65-.35 1.11-.65.64-.41.96-.72.96-.92 0-.15-.44-.28-1.31-.35zm12.17 9.98c0-.21-.31-.31-.93-.31l-1.7.19c-.09.01-.27.04-.56.11-.23.05-.41.07-.56.07-.2 0-.35-.06-.47-.18-.18-.25-.27-.52-.27-.79 0-.18.04-.37.12-.57.08-.43.87-.69 2.37-.79.38-.02 1.09.03 2.14.16 1.15.15 1.84.45 2.06.89.2.4.26.78.19 1.14-.06.28-.12.48-.2.62-.26.35-.53.64-.8.88-.53.46-1.03.84-1.49 1.14-1.06.69-2.52 1.46-4.4 2.31-.97.44-1.93.85-2.89 1.23-.43.17-.82.15-1.15-.08-.51-.55-.77-1.09-.77-1.6 0-.46.25-.69.76-.69.13 0 .32.02.57.06.25.04.44.06.57.06.21 0 .4-.03.56-.08.82-.29 1.24-.44 1.25-.45.82-.32 1.74-.76 2.76-1.31 1.52-.82 2.47-1.43 2.84-1.82-.01-.07 0-.13 0-.19zm.38-10.95c.24 0 .44.11.62.34.17.23.26.46.26.7 0 .24-.12.44-.35.59-.94.59-1.99 1.21-3.16 1.85l-2.06 1.12c-.65.35-1.1.56-1.33.62-.13.06-.27.09-.4.09-.23 0-.38-.08-.45-.24-.19-.43-.28-.69-.28-.77 0-.46.27-.75.8-.88 1.99-.97 3.97-2.07 5.94-3.3.14-.07.27-.12.41-.12z"/><path d="M266.51 682.31c1.23-.12 1.84-.51 1.84-1.17 0-.5-.28-.84-.84-1.02-.68-.22-1.53-.45-2.55-.69-.87-.35-1.31-.76-1.31-1.21 0-1.27.62-1.84 1.86-1.72.27.03.54.04.78.04.85 0 2.18-.41 3.99-1.23.2-.09.46-.14.78-.14.39 0 .73.16 1.01.48.28.32.42.68.42 1.07 0 .44-.25.81-.74 1.1-.43.2-.86.4-1.29.61.8.71 1.21 1.63 1.25 2.78.03.81-.31 1.53-1 2.17-1.5 1.38-3.67 2.08-6.5 2.08-.29 0-.93-.02-1.94-.06-4.16 3.45-7.06 5.66-8.69 6.64-2.64 1.58-4.35 2.33-5.13 2.25-.44-.09-.88-.55-1.31-1.39-.39-.77-.59-1.42-.59-1.94 0-.43.12-.75.37-.96.25-.13.52-.2.82-.2.22 0 .56.04 1.02.11.46.07.8.11 1.02.11.73 0 1.44-.22 2.13-.67 3.13-2.02 5.37-3.56 6.72-4.6-.16-.31-.24-.57-.24-.78 0-.64.16-1.16.47-1.55.81-1.02 1.77-1.51 2.88-1.47 1.38.05 2.2.55 2.45 1.51 1-.05 1.77-.09 2.32-.15zm-3.82-20.48c-1.33-.1-2.08-.21-2.23-.31-.6-.38-.9-.85-.9-1.41 0-.77.41-1.33 1.23-1.68.99-.18 1.8-.24 2.43-.18.77.08 1.66.29 2.68.65.72.25 1.36.69 1.94 1.33.44.5.67 1.08.67 1.76 0 .97-.5 1.99-1.49 3.07-.78.86-1.7 1.59-2.74 2.17-1.64.94-3.05 1.46-4.21 1.57-.55.05-1.01-.08-1.39-.39-.38-.31-.57-.74-.57-1.29 0-.85.42-1.33 1.25-1.45.73-.1 1.42-.31 2.06-.63.46-.22 1.07-.58 1.84-1.08 1.06-.68 1.59-1.19 1.59-1.53 0-.28-.72-.48-2.16-.6zm9.81.06c-1.33-.1-2.08-.21-2.23-.31-.6-.38-.9-.85-.9-1.41 0-.77.41-1.33 1.23-1.68.99-.18 1.8-.24 2.43-.18.77.08 1.66.29 2.68.65.72.25 1.36.69 1.94 1.33.44.5.67 1.08.67 1.76 0 .97-.5 1.99-1.49 3.07-.78.86-1.7 1.59-2.74 2.17-1.64.94-3.05 1.46-4.21 1.57-.55.05-1.01-.08-1.39-.39-.38-.31-.57-.74-.57-1.29 0-.85.42-1.33 1.25-1.45.73-.1 1.42-.31 2.06-.63.46-.22 1.07-.58 1.84-1.08 1.06-.68 1.59-1.19 1.59-1.53 0-.28-.72-.48-2.16-.6zm17.11 11.73c.37 0 .71.16 1.03.48.32.32.48.66.48 1.03 0 .25-.61.88-1.84 1.9-.44.37-.69.71-.74 1.02-.08.46.05.81.37 1.06.51.38.87.57 1.08.57.07 0 .26-.04.59-.12.64-.16 1.3-.36 1.98-.61.86-.31 1.4-.5 1.63-.57.42-.03.72.08.92.33.29.12.43.46.43 1.02 0 .47-.44.95-1.33 1.45-3.43 1.91-5.72 3.18-6.87 3.82l-3.96 2.23c-2.13 1.2-3.56 1.89-4.29 2.06-.55.13-.91.17-1.08.12-.34-.1-.7-.35-1.07-.74s-.6-.76-.68-1.1c-.22-1.04-.05-1.62.53-1.72.13-.04.34-.06.63-.06.14 0 .36.01.65.03.29.02.5.03.65.03.38 0 .68-.03.9-.1.64-.27 1.56-.72 2.76-1.33 2.19-1.12 3.88-2.05 5.07-2.78-.63-.14-1.17-.45-1.64-.92-.51-.5-.76-1.05-.76-1.66 0-1.4 1.25-3.07 3.76-5.01.33-.29.6-.43.8-.43zm1.1-11.63c-1.33-.1-2.08-.21-2.23-.31-.6-.38-.9-.85-.9-1.41 0-.77.41-1.33 1.23-1.68.99-.18 1.8-.24 2.43-.18.77.08 1.66.29 2.68.65.72.25 1.36.69 1.94 1.33.44.5.67 1.08.67 1.76 0 .97-.5 1.99-1.49 3.07-.78.86-1.7 1.59-2.74 2.17-1.64.94-3.05 1.46-4.21 1.57-.55.05-1.01-.08-1.39-.39-.38-.31-.57-.74-.57-1.29 0-.85.42-1.33 1.25-1.45.73-.1 1.42-.31 2.06-.63.46-.22 1.07-.58 1.84-1.08 1.06-.68 1.59-1.19 1.59-1.53-.01-.28-.73-.49-2.16-.6zm25.22 13.65c.4 0 .75.23 1.04.69.18.29.28.52.29.7.05.65-.52 1.34-1.7 2.06l-6.87 4.19c-2.68 1.63-5.03 2.85-7.05 3.64-.56.22-.91.33-1.04.33-1.29.14-2.1-.58-2.43-2.17-.04-.2-.06-.38-.06-.55 0-.64.33-.96 1-.96.21 0 .53.03.96.08.43.05.75.08.96.08.59 0 1.1-.12 1.53-.35.44-.05 2.34-1.08 5.7-3.09 2.77-1.66 4.76-2.92 5.97-3.78.81-.59 1.38-.87 1.7-.87zm3.12-16.65c1.03.18 1.55.69 1.57 1.53.01.89-1.2 1.7-3.64 2.45-1.17.35-2 .98-2.47 1.88.29.35.81.59 1.57.72.7.05 1.61.18 2.72.39.6.26.83.8.69 1.63-.2 1.07-.95 1.61-2.27 1.61-1.03 0-2.31-.29-3.84-.86-1.15-.43-1.89-1.11-2.23-2.04-1.58 1.36-3.9 2.22-6.95 2.58-.56.07-1.1-.01-1.63-.22-.65-.26-.98-.65-.98-1.17 0-.95.45-1.54 1.35-1.76.64 0 1.5-.11 2.58-.33 1.53-.31 2.6-.81 3.21-1.49-.12-.5-.74-.91-1.88-1.23-.27-.05-1.01-.14-2.19-.27-.67-.21-1-.61-1-1.21 0-.09.02-.24.06-.45.22-1.17 1.01-1.72 2.37-1.63.78.05 1.55.18 2.31.39 1.53.42 2.74 1.36 3.62 2.84.87-1.03 1.69-1.76 2.45-2.17.84-.46 2.14-.86 3.92-1.19.17-.06.4-.05.66 0z" fill="#bd0e72"/><path d="M92.13 709.05c.74-.07 1.11-.31 1.11-.71 0-.3-.17-.5-.51-.62-.41-.13-.92-.27-1.54-.41-.53-.21-.79-.46-.79-.73 0-.77.37-1.11 1.12-1.04.17.01.32.02.47.02.51 0 1.32-.25 2.41-.75.12-.05.28-.08.47-.08.24 0 .44.1.61.29.17.19.25.41.25.64 0 .27-.15.49-.45.66-.26.12-.52.24-.78.37.48.43.73.99.76 1.68.02.49-.19.93-.6 1.31-.91.84-2.22 1.25-3.93 1.25-.17 0-.56-.01-1.17-.04-2.52 2.08-4.27 3.42-5.25 4.01-1.59.95-2.63 1.41-3.1 1.36-.27-.06-.53-.34-.79-.84-.24-.47-.35-.86-.35-1.17 0-.26.08-.45.22-.58.15-.08.32-.12.5-.12.13 0 .34.02.62.06.28.04.48.07.62.07.44 0 .87-.13 1.29-.4 1.89-1.22 3.25-2.15 4.06-2.78-.09-.19-.14-.35-.14-.47 0-.39.09-.7.28-.94.49-.62 1.07-.91 1.74-.89.84.03 1.33.34 1.48.91.6 0 1.06-.02 1.39-.06zm-2.3-12.37c-.8-.06-1.25-.13-1.35-.19-.36-.23-.54-.51-.54-.85 0-.47.25-.8.75-1.02.6-.11 1.09-.15 1.47-.11.47.05 1.01.18 1.62.39.43.15.82.42 1.17.8.27.3.4.65.4 1.06 0 .58-.3 1.2-.9 1.86-.47.52-1.03.96-1.66 1.31-.99.57-1.84.88-2.54.95-.33.03-.61-.05-.84-.24-.23-.19-.34-.45-.34-.78 0-.51.25-.8.76-.87.44-.06.86-.19 1.24-.38.28-.14.65-.35 1.11-.65.64-.41.96-.72.96-.92-.01-.17-.45-.29-1.31-.36zm5.92.03c-.8-.06-1.25-.13-1.35-.19-.36-.23-.54-.51-.54-.85 0-.47.25-.8.75-1.02.6-.11 1.09-.15 1.47-.11.47.05 1.01.18 1.62.39.43.15.82.42 1.17.8.27.3.4.65.4 1.06 0 .58-.3 1.2-.9 1.86-.47.52-1.03.96-1.66 1.31-.99.57-1.84.88-2.54.95-.33.03-.61-.05-.84-.24-.23-.19-.34-.45-.34-.78 0-.51.25-.8.76-.88.44-.06.86-.19 1.24-.38.28-.13.65-.35 1.11-.65.64-.41.96-.72.96-.92 0-.15-.44-.27-1.31-.35zm11.2 11.92c.35-.72.53-1.21.53-1.47 0-.07-.02-.11-.06-.11-.02 0-.04.01-.06.02-.5.35-1.06.75-1.7 1.21-1.28.92-2.14 1.51-2.59 1.76l-2.14 1.22c-.51.29-.99.51-1.44.66a.85.85 0 0 1-.22.04c-.25 0-.51-.14-.78-.41-.43-.44-.64-.94-.64-1.49 0-.2.05-.38.15-.53.16-.18.44-.27.84-.27.12 0 .29.01.51.02.22.01.4.02.51.02.24 0 .46-.02.64-.07.08-.04.13-.06.17-.07l.52-.28c.86-.47 1.44-.81 1.74-1.01l3.25-2.19c.86-.57 1.38-.89 1.57-.95.28-.08.59-.01.93.19.51.3.77.79.77 1.48 0 .62-.18 1.37-.53 2.27-.52 1.32-1.06 2.27-1.61 2.87-.1.11-.25.17-.44.17-.24 0-.5-.09-.76-.28-.29-.21-.44-.42-.44-.65 0-.24.07-.42.22-.56.33-.29.68-.82 1.06-1.59zm2.12-13.81c.91.02 1.59.46 2.03 1.33.08.27.12.58.12.92 0 .75-.19 1.38-.57 1.9-.94 1.29-2.47 2.02-4.58 2.19-1.01-.04-1.71-.36-2.11-.96-.22-.47-.33-.91-.33-1.33 0-.7.33-1.4.98-2.11 1.25-1.32 2.74-1.97 4.46-1.94zm-3.28 3.95c.11.16.34.29.67.38h.38c.15 0 .31 0 .47-.01.92-.38 1.55-.82 1.89-1.33.04-.1.06-.2.06-.31 0-.49-.39-.71-1.18-.67-.47.12-.8.24-.99.37-.43.2-.77.44-1 .7-.23.26-.35.48-.35.67 0 .07.01.14.05.2zm9.62 10.89c0-.47.31-.8.92-.99.54-.17 1.11-.39 1.69-.66-.35-.17-.64-.31-.85-.44-.47-.28-.72-.51-.77-.67-.07-.24-.07-.45.01-.65.09-.23.25-.35.5-.38.95-.09 1.77-.38 2.46-.89.35-.25.66-.38.95-.38.06 0 .11.01.15.03.24.15.39.34.47.58.02.07.04.27.04.59-.01 0-.04.04-.08.12-.09.16-.23.28-.4.38-.17.14-.29.24-.37.28-.28.17-.45.27-.49.3-.21.12-.32.21-.32.26.01.02.08.05.2.08.68.19 1.02.49 1.02.89 0 .07-.05.2-.14.38-.18.2-.33.33-.44.41-.51.38-.9.64-1.17.78-.25.19-.38.26-.38.2.01.04.13.17.35.4.13.19.21.31.24.37.01.06.01.11.01.15 0 .33-.32.69-.97 1.09-5.07 3.08-7.97 4.65-8.7 4.71-.31.02-.62-.2-.92-.68-.28-.41-.43-.79-.46-1.14-.06-.54.18-.82.7-.82.15 0 .32.01.5.04.06.01.33.01.82.01.25 0 .51-.04.77-.12.99-.43 1.78-.81 2.37-1.14 1.41-.79 2.53-1.45 3.35-1.99-.71-.42-1.06-.8-1.06-1.1zm8.79-14.7c.62.11.94.42.95.92.01.54-.73 1.03-2.2 1.48-.71.21-1.21.59-1.49 1.14.17.21.49.36.95.44.43.03.97.11 1.64.24.36.16.5.49.41.98-.12.65-.58.97-1.37.97-.62 0-1.4-.17-2.32-.52-.69-.26-1.14-.67-1.35-1.23-.95.82-2.35 1.34-4.2 1.56-.34.04-.67 0-.98-.13-.39-.16-.59-.39-.59-.71 0-.58.27-.93.82-1.07.39 0 .91-.07 1.56-.2.92-.19 1.57-.49 1.94-.9-.07-.3-.45-.55-1.14-.75-.17-.03-.61-.09-1.33-.16-.4-.13-.6-.37-.6-.73 0-.06.01-.15.04-.27.13-.71.61-1.04 1.43-.98.47.03.94.11 1.4.24.92.25 1.65.82 2.19 1.72.53-.62 1.02-1.06 1.48-1.31.51-.28 1.29-.52 2.37-.72.1-.04.23-.04.39-.01z"/><path d="M225.02 910.42c1.23-.12 1.84-.51 1.84-1.17 0-.5-.28-.84-.84-1.02-.68-.22-1.53-.45-2.55-.69-.87-.35-1.31-.76-1.31-1.21 0-1.27.62-1.84 1.86-1.72.27.03.54.04.78.04.85 0 2.18-.41 3.99-1.23.2-.09.46-.14.78-.14.39 0 .73.16 1.01.48.28.32.42.68.42 1.07 0 .44-.25.81-.74 1.1-.43.2-.86.4-1.29.61.8.71 1.21 1.63 1.25 2.78.03.81-.31 1.53-1 2.17-1.5 1.38-3.67 2.08-6.5 2.08-.29 0-.93-.02-1.94-.06-4.16 3.45-7.06 5.66-8.69 6.64-2.64 1.58-4.35 2.33-5.13 2.25-.44-.09-.88-.55-1.31-1.39-.39-.77-.59-1.42-.59-1.94 0-.43.12-.75.37-.96.25-.13.52-.2.82-.2.22 0 .56.04 1.02.11.46.07.8.11 1.02.11.73 0 1.44-.22 2.13-.67 3.13-2.02 5.37-3.56 6.72-4.6-.16-.31-.24-.57-.24-.78 0-.64.16-1.16.47-1.55.81-1.02 1.77-1.51 2.88-1.47 1.38.05 2.2.55 2.45 1.51 1-.06 1.77-.1 2.32-.15zm-3.82-20.49c-1.33-.1-2.08-.21-2.23-.31-.6-.38-.9-.85-.9-1.41 0-.77.41-1.33 1.23-1.68.99-.18 1.8-.24 2.43-.18.77.08 1.66.29 2.68.65.72.25 1.36.69 1.94 1.33.44.5.67 1.08.67 1.76 0 .97-.5 1.99-1.49 3.07-.78.86-1.7 1.59-2.74 2.17-1.64.94-3.05 1.46-4.21 1.57-.55.05-1.01-.08-1.39-.39-.38-.31-.57-.74-.57-1.29 0-.85.42-1.33 1.25-1.45.73-.1 1.42-.31 2.06-.63.46-.22 1.07-.58 1.84-1.08 1.06-.68 1.59-1.19 1.59-1.53 0-.28-.72-.48-2.16-.6zm9.82.06c-1.33-.1-2.08-.21-2.23-.31-.6-.38-.9-.85-.9-1.41 0-.77.41-1.33 1.23-1.68.99-.18 1.8-.24 2.43-.18.77.08 1.66.29 2.68.65.72.25 1.36.69 1.94 1.33.44.5.67 1.08.67 1.76 0 .97-.5 1.99-1.49 3.07-.78.86-1.7 1.59-2.74 2.17-1.64.94-3.05 1.46-4.21 1.57-.55.05-1.01-.08-1.39-.39-.38-.31-.57-.74-.57-1.29 0-.85.42-1.33 1.25-1.45.73-.1 1.42-.31 2.06-.63.46-.22 1.07-.58 1.84-1.08 1.06-.68 1.59-1.19 1.59-1.53-.01-.28-.73-.48-2.16-.6zm12.65 19.92c-.94.07-1.58.1-1.92.1-.86 0-1.29-.48-1.29-1.43 0-.8.52-1.33 1.57-1.61l1.9-.49c2.21-.99 3.58-1.93 4.13-2.82.31-.5.8-.74 1.47-.74.21.04.48.17.8.39.59.4.86.92.8 1.55-.26.42-.51.71-.74.88-.56.42-.93.69-1.1.82 2.68-.3 4.29-.49 4.84-.57.56.08.84.44.84 1.08 0 .52-.09.87-.27 1.06l-1.1.7c-4.2 2.65-7.87 4.9-11.01 6.74-3.67 2.17-6.1 3.6-7.3 4.31-.73.42-1.65.92-2.76 1.51-.2.1-.4.16-.61.16-.57 0-1.08-.4-1.51-1.21-.37-.69-.55-1.36-.55-2s.28-.96.84-.96c.21 0 .51.02.91.07s.7.07.91.07c.64 0 1.22-.12 1.74-.35.08-.03.13-.05.16-.06h.02v.02c.01-.01.03-.03.06-.04l1.55-.82c3.45-1.84 7.24-4.12 11.38-6.83-1.86.2-3.12.36-3.76.47zm2.12 13.72c.39 0 .73.19 1.02.56s.43.76.43 1.17c0 .21-.2.54-.61 1-.43.35-1.48.99-3.13 1.9l-5.48 3c-1.07.59-1.8.93-2.19 1.02-.22.1-.44.16-.67.16-.38 0-.63-.13-.74-.39-.31-.72-.47-1.14-.47-1.27 0-.76.44-1.24 1.33-1.45 3.29-1.61 6.57-3.43 9.83-5.46.23-.16.46-.24.68-.24zm18.46-15.54c.04-.68.46-1.53 1.25-2.55 1.37-1.76 3.41-2.64 6.13-2.64.64 0 1.38.15 2.21.45 1.64.59 2.4 1.46 2.27 2.62-.12 1.01-.98 2.21-2.58 3.62a33.597 33.597 0 0 1-3.8 2.88c-5.43 3.54-9.11 5.5-11.04 5.87-.07.01-.15.02-.25.02-.5 0-.92-.35-1.27-1.04-.31-.46-.5-.98-.55-1.57-.07-.77.25-1.16.94-1.16.22 0 .5.03.82.1.95.2 1.85.07 2.7-.39 2.15-1.16 4.07-2.27 5.76-3.31-1.82-.51-2.68-1.48-2.59-2.9zm7.62-16.77c-.98.9-1.47 1.61-1.47 2.13 0 .07.03.12.08.16-.06.12.16.19.69.22 1.11.07 1.89-.01 2.33-.22.27-.05.52-.08.74-.08 1.34 0 2.02.53 2.02 1.59 0 .97-.43 1.5-1.29 1.61-.56.14-1.39.22-2.49.22-3.73 0-5.6-1.12-5.6-3.37 0-.31.04-.55.12-.72.43-1.44 1.35-2.75 2.76-3.96.69-.6 1.16-1.01 1.39-1.23.38-.35.92-.67 1.63-.94.22-.09.39-.12.51-.08 1.11.35 1.66 1.01 1.66 1.96 0 .47-.36.89-1.08 1.27-1.02.67-1.68 1.16-2 1.44zm-.84 14.42c-.81.1-1.37.25-1.68.43-1.02.59-1.49 1.14-1.41 1.66 0 .26.17.5.51.71.39.13.94.09 1.64-.12 1.31-.39 1.96-1.04 1.96-1.96 0-.48-.34-.72-1.02-.72z" fill="#bd0e72"/></svg>