<svg xmlns="http://www.w3.org/2000/svg" xml:space="preserve" x="0" y="0" version="1.1" viewBox="0 0 1000 1000"><path d="M437.27 480.18c-.86 2.42-2.33 4.58-4.23 6.23-3.91-.37-7.14-1.84-10.28-3.23-3.16-1.42-6.32-2.79-9.91-2.79-3.56 0-6.74 1.37-9.88 2.79-3.74 1.65-7.46 3.3-12.35 3.3-4.86 0-8.6-1.65-12.32-3.3-3.16-1.42-6.32-2.79-9.88-2.79-3.63 0-6.72 1.37-9.91 2.79-2.77 1.23-5.51 2.44-8.77 3a14.6 14.6 0 0 1-3.93-5.79h.37c3.58 0 6.72-1.42 9.86-2.79 3.77-1.7 7.51-3.33 12.37-3.33 4.84 0 8.58 1.63 12.3 3.33 3.19 1.37 6.32 2.79 9.91 2.79 3.58 0 6.74-1.42 9.88-2.79 3.74-1.7 7.49-3.33 12.35-3.33 4.86 0 8.6 1.63 12.3 3.33 3.16 1.37 6.32 2.79 9.88 2.79.78 0 1.52-.07 2.24-.21m-92.36-6.58v-6.12c.44.07.84.07 1.28.07 3.58 0 6.72-1.4 9.86-2.77 3.77-1.67 7.51-3.33 12.37-3.33 4.84 0 8.58 1.65 12.3 3.33 3.19 1.37 6.32 2.77 9.91 2.77 3.58 0 6.74-1.4 9.88-2.77 3.74-1.67 7.49-3.33 12.35-3.33 4.86 0 8.6 1.65 12.3 3.33 3.16 1.37 6.32 2.77 9.88 2.77 1.07 0 2.09-.14 3.09-.33v6.19c-.98.14-2.02.23-3.09.23-4.84 0-8.58-1.65-12.28-3.3-3.16-1.4-6.32-2.79-9.91-2.79-3.56 0-6.74 1.4-9.88 2.79-3.74 1.65-7.46 3.3-12.35 3.3-4.86 0-8.6-1.65-12.32-3.3-3.16-1.4-6.32-2.79-9.88-2.79-3.63 0-6.72 1.4-9.91 2.79-3.72 1.65-7.46 3.3-12.32 3.3-.44.01-.86-.02-1.28-.04m0-12.81v-6.14c.44 0 .84.05 1.28.05 3.58 0 6.72-1.4 9.86-2.77 3.77-1.67 7.51-3.3 12.37-3.3 4.84 0 8.58 1.63 12.3 3.3 3.19 1.37 6.32 2.77 9.91 2.77 3.58 0 6.74-1.4 9.88-2.77 3.74-1.67 7.49-3.3 12.35-3.3 4.86 0 8.6 1.63 12.3 3.3 3.16 1.37 6.32 2.77 9.88 2.77 1.07 0 2.09-.12 3.09-.3v6.19c-.98.14-2.02.23-3.09.23-4.84 0-8.58-1.65-12.28-3.3-3.16-1.4-6.32-2.81-9.91-2.81-3.56 0-6.74 1.42-9.88 2.81-3.74 1.65-7.46 3.3-12.35 3.3-4.86 0-8.6-1.65-12.32-3.3-3.16-1.4-6.32-2.81-9.88-2.81-3.63 0-6.72 1.42-9.91 2.81-3.72 1.65-7.46 3.3-12.32 3.3-.44-.01-.86-.01-1.28-.03" fill="#fff"/><path d="m354.59 416.23 52.9 38.65-11.49 5-8.55-2.38-13.26-7.39-6.37 1.91-10.65-7.77zm19.73 10.13 36.85 26.93 1.96-.86 7.39 1.18 6.16 1.4-.88-8.53-33-24.16zm31.68 2.16 10.18 7.39 4.07-9.69-6.23-4.58z" fill="#fff" fill-rule="evenodd" clip-rule="evenodd"/><path d="M483.22 705.84c0 11-8.93 19.95-19.95 19.95-11.07 0-20-8.95-20-19.95 0-11.02 8.93-19.95 20-19.95 11.03 0 19.95 8.93 19.95 19.95" fill="#f26522"/><path d="M830.03 198.81c0 11.07-8.93 19.97-19.97 19.97-11.02 0-19.97-8.91-19.97-19.97 0-11.04 8.95-19.95 19.97-19.95 11.04 0 19.97 8.9 19.97 19.95m-34.44 106.8c0 11.07-8.95 19.95-19.95 19.95a19.9 19.9 0 0 1-19.97-19.95c0-11.02 8.91-19.95 19.97-19.95 10.99 0 19.95 8.92 19.95 19.95M544.1 718.99c0 11.04-8.93 19.95-19.95 19.95s-19.97-8.91-19.97-19.95 8.95-19.97 19.97-19.97 19.95 8.93 19.95 19.97m-120.55-41.33c0 11.02-8.95 19.95-19.97 19.95s-19.97-8.93-19.97-19.95c0-11.07 8.95-19.97 19.97-19.97s19.97 8.9 19.97 19.97M344.33 574.3c0 11.04-8.95 19.95-19.95 19.95-11.07 0-20-8.91-20-19.95s8.93-19.95 20-19.95c11-.01 19.95 8.9 19.95 19.95m-144.7-268.69c0 11.07-8.93 19.95-19.95 19.95-11.04 0-19.97-8.88-19.97-19.95 0-11.02 8.93-19.95 19.97-19.95 11.02 0 19.95 8.92 19.95 19.95" fill="#004b1c"/><path d="M646.72 650.98c0 9.44-7.65 17.09-17.09 17.09s-17.11-7.65-17.11-17.09c0-9.42 7.67-17.09 17.11-17.09s17.09 7.68 17.09 17.09m133.7-226.71c0 9.44-7.65 17.09-17.09 17.09s-17.11-7.65-17.11-17.09c0-9.42 7.67-17.09 17.11-17.09s17.09 7.67 17.09 17.09" fill="#fff"/><path d="M763.34 447.18c-12.65 0-22.93-10.29-22.93-22.91s10.29-22.91 22.93-22.91c12.63 0 22.89 10.29 22.89 22.91s-10.27 22.91-22.89 22.91zm0-34.2c-6.24 0-11.31 5.06-11.31 11.29 0 6.22 5.06 11.29 11.31 11.29 6.2 0 11.26-5.06 11.26-11.29 0-6.22-5.06-11.29-11.26-11.29z" fill="#6f2c91"/><path d="M286.31 499.84c0 9.44-7.65 17.09-17.09 17.09s-17.11-7.65-17.11-17.09c0-9.42 7.67-17.09 17.11-17.09s17.09 7.67 17.09 17.09" fill="#fff"/><path d="M269.22 522.75c-12.64 0-22.92-10.29-22.92-22.91s10.29-22.91 22.92-22.91c12.63 0 22.9 10.29 22.9 22.91s-10.28 22.91-22.9 22.91zm0-34.2c-6.23 0-11.3 5.06-11.3 11.29 0 6.22 5.06 11.29 11.3 11.29 6.22 0 11.27-5.06 11.27-11.29 0-6.22-5.05-11.29-11.27-11.29z" fill="#6f2c91"/><path d="M429.23 310.51c12.18-.07 19.14 9.91 22.21 18.72 3.09 8.88-6.18 19.62-22.76 22.23-16.56 2.67-25.3-3.65-25.37-14.28-.08-10.65 13.8-26.63 25.92-26.67M180.06 181c2.93 7.21 8.32 15.18 11.86 22.16 10.44 22.28 23 39.48 40.23 57.15 21.9 22.6 41.41 41.92 75.57 52.85 21.11 5.79 42.37 6.81 62.78 3.16 8.81-.16 14.74 4.81 18.3 14.07 0 18.46 1.02 31.95 4.28 47.69 1.09 10.46-4.09 13.21-11.6 9.44-5.81-15.51-18.58-22.46-27-29.86-7.16-2.26-17.67-5.88-25.32-4.86-6 .81-11.7-1.23-14.6-2.67-38.55-14.56-68.85-39.55-91.4-61.6-22.04-23.21-29.18-16.9-8.84 10.79 20.6 25.51 28.48 39.55 37.44 66.64 2.56 2.33 5.07 5.53 8.32 6.12 20.79 3.67 28.04 25.21 16.21 36.3-2.56 2.39-1.26 8-.56 10.02 7.88 21.46 15.81 42.95 23.65 64.32 4.07 12.63-5.46 12.04-13.63 15.56-.4 1.46-2.35 7.81 3.21 10.81 35.53 19.56 56.78 54.04 71.15 83.71 33.72 18.72 58.46 39.11 79.89 57.9 35.74 12.51 69.11 26.14 104.84 38.71 14 14.77 12.93 29.58-3.42 44.48-48.81 31.02-86.99 7.23-125.38-15.67-38.67-26.51-71.64-57.15-99.75-91.36-25.76-37.6-42.43-77.85-57.62-124.61 0-1.28-.02-2.39-.09-3.58.09.23.23.58.35.86 2.65 1.95 4.32 1.35 4.42-1.74-3.49-6.7-7.56-16.04-9.35-23.69.07-8.05-.79-11.51-2.79-19.56-2.91-5.14-7.72-8.02-11.23-13.21-4.44-11.21-7.79-23.81-12.23-35.09-1.26-7.25-2.39-14.51-3.63-21.81 3.91-14.04 3.25-28.79-2.02-44.25-11.9-17.56-25-35.83-38.74-49.06-9.44-9.05-20.02-14.21-27.16-21.18-4.26-14.21-3.02-25.9-2.77-35.51-.74 1.21-4.35 2.37-5.07 3.51-2.93-.72-4.63-1.23-4.49-5.32-1.37-6.42 11.56-10.56 6.81-19.02.93-6.53 3.7-8.91 10.3-2.35 2.35 2.86 3.51 3.26 5.81 6.14 2.53 1.46 6.09-4.98 9.74-2.79-2.77-8.25-8.95-17.28 1.16-30.27.44-1.02 1.4-2.21 2.37-3.33m636.44-3.97c-18.9-10.18-40.37-14.51-66.41-9.74 1.33.28 2.67.56 4.09.77 5.74 2 5.84 11.35-3.37 9.67-12.07-5.56-18.62-13.35-33.62-14.77-3.35.28-6.09.44-10.49 3.84-2.79 0-3.3-1.86-2.42-4.7 2.88-1.79 5.84-2.98 8.49-3.63-16.49-5.19-30.46-.4-41.9 8.6-14.58 13.49-25.6 28.55-37.13 45.16-34.3 9.79-66.71 22.74-87.66 38.65-21.39 17.16-45.16 33.93-66.57 49.36-6.46 7.86 5.51 12.35 15.77 9.65 16.04-10 23.86-16.63 39.95-26.51 32.02-28.32 69.31-27.79 122.86-48.95 2.6-1.02 10.58-5.35 13.32-3.91 13.25 7.42 13.39 11.14 27.27 14.65 3.93-1.6 9.18-4.23.7-15.18-15.86-16.49-12.21-31.25-9.49-38.81 11.88-11.7 31.27-5.02 44.53 3.14 15.16 12.86 16.63 25.81 9.14 34.53-6.42-6.72-13.18-11.86-21.67-20.53-19.53-18.53-22.97-9.46-19.9 5.07 38.44 42.23 38.44 82.73 52.08 137.1 1.02 5.37 2.12 12.77 1.35 17.07-6.58 39.41-8.39 62.41-24.67 81.03-9.42 21.21 7.51 35.3 19.76 47.32 1.49.28-.12 4.58-2.19 4.98-5.51 9.84-14.81 15.28-16.58 25.48-.56 3.23-5.07 4.39-6.65 4.23-12.81-5.63-21.39-5.23-34.06 11.93-24.3 3.39-24.62 19.65-1.93 29.11 11.91 6.35 26.46 10.02 37.99 8.39 11.51-3.26 23.88-16.35 35.2-43.11 9.56-22.72 15.83-45.67 22.09-69.9 2.88-21.32 4.46-41.71 5.3-61.78-2.65 13.58-5.42 27.09-9.07 40.37-1.14 6.81-2.91 12.04-4 18.79-1.93 2.02-4.65 0-4.35-2.33 6.14-28.88 11.91-54.32 13.9-84.15 1.33-12.63-.12-23.62-1.91-35.25-3.02-19.53-.98-41.64-3.53-64.46-2.39-7.49 8.23-7 9.11.16.67 12.49.91 24.02 1.14 35.46.05-6.12.16-12.32.23-18.46 12.88-5.16 23.95-22.86 17.79-40.62-5.21 3.53-11.21 6.7-18.21 9.3-7.02 2.14-9.37-.93-7.09-9.11 7.14-16.83 8.84-35.76-2.77-55.27-5.3-17.83-.33-15.04 6.56-19.11 9.65-.97 19.37-2.37 29.02-3.53M661.32 592.08c.63-4.09 1.16-7.79-1.33-13.09-9.46-9.28-36.81-4.49-35.83 2.44-3.93 8-5.21 14.11 2.58 17.69 8.95 4.23 12.98 11.86 13.37 21.55-.35 1.07-3.21 4.51-4.58 3.19-2-1.93-5.58 1.14-5.51 5.95.07 13.93-12.98 18.79-20.6 30.14-6.91-8.63-14.51-7.12-21.48 3.72-3.05 21.42 7.6 32 16.69 30.2 13.95-2.88 18-11.14 18.72-25.95.44-.95.88-1.95 1.4-2.93-3.95 1.4-5.32-5.35-2.19-7.67 12.98-9.46 23.58-19.58 24.65-32.2.74-10.04 1.67-18.23-5.51-29.97-2.26-4.42.63-7.09 5.05-5.49 6.1-.28 11.15.16 14.57 2.42" fill="#3b6287" fill-rule="evenodd" clip-rule="evenodd"/><path d="M618.26 668.9c-3.53.23-5.21.42-9.32.42-1.47 0-3.02 3.56-.09 5.46 3.33.86 5.21.56 9.74.26 3.07-2.23 3.67-4.51-.33-6.14m46.17-73.53c-3-5.14-9.3-6.12-17.7-5.72-4.42-1.58-7.3 1.09-5.05 5.49 7.19 11.74 6.26 19.95 5.51 29.97-1.07 12.63-11.67 22.72-24.65 32.2-3.21 2.42-1.67 9.53 2.58 7.51 8.58-9.25 17.42-22.09 24.95-32.93 3.91-4.37 6.39-7.28 11.23-12.97 3.29-5.69 3.94-13.55 3.13-23.55m-366.36-59.86c-4.56-3.33-9.14-.14-7.37 5.37 2.58 7.74 6.07 11.28 10.95 17.6.3.42 2 1.86 2.33 3.23-1.28 5.32-.93 10.7 7.21 10.77.93 0 2.28.7 2.44.95 6.28 13.09 15.11 20.9 25.81 27.09 4.93 4.84 7.32 8.05 12.28 11.04 4.91 2.51 8.77-5.39 5-11.49-10.35-8.67-16.09-11.79-18.86-16.81-2.65-7.39-7.56-13.74-12.18-21.14-3.23-3.86-7.05-3.12-10-4.39-6.26-7.43-11.96-13.61-17.61-22.22m-18.82-20.35c3.91 2.14 7.3 4.79 6.7 6.63-.63 1.98-4.56.58-8.63.42-4.05-.14-5.95-2.74-5.53-5.19.39-2.48 3.53-3.95 7.46-1.86m54.36 96.18c3.65.98-2.37 6.44.6 9.77 2.98 3.37 2.6 6.49.26 6.25-2.3-.14-7.3-4.7-7.37-8.11 0-3.49 2.86-8.86 6.51-7.91m8.29 21.93c1.12-1.81 3.3-2 6.02 0 2.63 1.98 4.53 4.77 3.74 6.21-.79 1.56-4.46 1.84-7.37.09-2.93-1.84-3.51-4.56-2.39-6.3m26.57 19.57c2.14-.05 2.63.21 2.63 3.58.02 3.39-3.05 5.19-5.07 5.19-2.16 0-1.93-1.16-1.98-4.6 0-3.4 2.3-4.17 4.42-4.17m2.15-39.96c-4.77-1.09-9.23 4.86-6.58 10.77 5.63 7.53 1.88 11.37 7.07 17.67 7.18 4.14 12 12.23 42.88 7.07 6.25-1.21 6.88-3.53 1.84-6.95-10.07-3.44-18.04-11.39-27.6-13.81-6.82-3.01-11.24-7.73-17.61-14.75m68.51 41.75c-6.32-5.02-9.63-4.6-9.95 1.23-.23 8.14-6.26 14.39-4.26 23.6 6.95 15.42 18.11 18.21 23.74 33.16 2.33 3.58 14.23 6.91 25.39 6.98 2.7-.05 3.98-4.09 6.32-3.79 32.95 3.91 48.29.4 50.64-17.07.21-4.65 5.12-6.79 5.32-11.39-25.16-10.93-49.55-20.76-69.85-21.79-5.16.16-10.56.16-13.51-4.02-2.35-3.42-7.49-5.98-13.84-6.91m265.15-492.52c-.88 2.77-.37 4.67 2.42 4.67 4.4-3.37 7.14-3.53 10.51-3.84 14.97 1.44 21.53 9.23 33.6 14.79 9.21 1.65 9.14-7.67 3.37-9.67-10.56-1.79-19.37-4.72-31.34-8.81-4.07-2.25-11.21-1.69-18.56 2.86m76.66 37.56c-5.3-17.83-.33-15.02 6.56-19.09 18.86-2 38.39-5.51 56.29-5.6 7.49.09 8.98 7.23 4.33 21.42-12.21 26.07-20.65 54.13-57.32 67.69-7.02 2.12-9.37-.95-7.09-9.14 7.16-16.84 8.83-35.75-2.77-55.28" fill="#3b6287" fill-rule="evenodd" clip-rule="evenodd"/><path d="M782.86 241.59c1.49 2 1.37 4.28-.58 6.98-1.93 2.77-3.77 5.49-4.81 4.74-1.14-.79.28-3.98 1.53-7.88s2.33-5.89 3.86-3.84m-6.01 14.6c1.14 0 3.19 1.93 2.95 4.35-.23 2.56-1 4.19-2.12 4.21-1.14 0-1.49-2.19-1.56-4.37-.01-2.26-.36-4.19.73-4.19m3.78 189.43c6.77-24.3 10.35-49.76 16.02-74.5-.49-3.79-.14-8.16-4.39-11.91-1.47-28.58-.95-52.2-2.4-80.8-.88-7.19-11.51-7.67-9.11-.19 2.56 22.81.51 44.92 3.53 64.46 1.79 11.63 3.23 22.62 1.91 35.25-2 29.83-7.77 55.27-13.9 84.15-.3 2.35 2.42 4.37 4.35 2.35 1.08-6.75 2.85-12 3.99-18.81m-8.36 26.2c2.37.09 2.42 4.88.02 8.72-2.37 3.81-2.88 6.39-4.6 5.67-1.77-.53-1-3.88 1.07-7.28 2.04-3.36 1.09-7.32 3.51-7.11m-201.03-39.74c5.28 1.23 6.39 2.46 6.39 5.63 0 3.14-2.84 5.7-6.32 5.7-3.51.05-5.05-1.53-6.46-5.67-1.31-4.03 1.09-6.91 6.39-5.66m126.77-166.71c2.91.3 4.74 1.58 4.77 3.6 0 2-2.09 3.58-4.67 3.65-2.58 0-4.74-1.53-4.72-3.58-.01-2.14 1.78-3.91 4.62-3.67m-5.42-15.81c2.91.28 4.7 1.63 4.72 3.56 0 2-2.14 3.65-4.7 3.65-2.56.05-4.7-1.49-4.65-3.6 0-2.1 1.79-3.89 4.63-3.61m17.73 8.15c2.84.67 4.51 2.23 4.19 4.26-.23 1.98-2.63 3.28-5.19 2.86-2.56-.37-4.44-2.16-4.11-4.23.32-2.05 2.36-3.56 5.11-2.89m9.76 14.97c2.98.74 4.7 2.42 4.37 4.56-.23 2.09-2.79 3.49-5.53 3.02-2.67-.37-4.65-2.33-4.37-4.53.42-2.22 2.58-3.84 5.53-3.05M569.19 474.02c4.42.47 6.21 2.35 6.21 5.32.02 3.02-2.7 5.44-6.09 5.44-3.37.07-5.16-1.84-6.14-5.35-.95-3.45 1.58-5.85 6.02-5.41m93.29 60.29c4.37.47 5.95 3.07 5.95 6.12 0 3-2.53 5.14-5.84 5.14-3.35.07-5.14-2.37-6.12-5.88-.97-3.49 1.57-5.77 6.01-5.38M224.11 384.44c3.91-14.04 3.28-28.79-2.02-44.25-11.91-17.56-24.97-35.83-38.74-49.06-9.42-9.05-20-14.21-27.16-21.18-4.3-14.21-3.02-25.9-2.74-35.51-.74 1.21-4.37 2.37-5.09 3.51-2.93-.72-4.63-1.26-4.46-5.32-1.4-6.42 11.56-10.56 6.81-19.02.93-6.53 3.67-8.91 10.28-2.35 2.37 2.86 3.53 3.26 5.81 6.14 2.56 1.46 6.12-4.98 9.74-2.79-2.74-8.25-8.95-17.28 1.19-30.27 1.72-4.28 11.04-9.95 1.44-8.79-6.65.67-13.35 1.44-19.49 4.72-4.56 2.23-10.81 7.28-14.46 8.3-8.67 3.16-13.97 7.56-21.58 10.86-9.88 8.12-3.88 26.46-2.14 35.62 5.26 12.25 13.95 19.49 16.53 35.2 2.33 9.98 9.86 13.18 13.04 22.07 10.86 30.25 25.39 61.36 44.27 83.66 3.51 4.6 6.32 12.65 9.88 17.23 5.74 7.42 12.95 9.14 17.93 18.81 4.21 9.72 5.23 24.07 12.18 32.09 6.3 7.3 10.91 22.79 16.67 37.6 2.42 6.21 4.46 12.09 6.91 17.83 2.65 1.95 4.35 1.35 4.42-1.79-3.49-6.65-7.56-16-9.35-23.65.07-8.05-.79-11.51-2.79-19.56-2.91-5.14-7.72-8.02-11.21-13.21-4.46-11.21-7.79-23.81-12.25-35.06-1.22-7.27-2.36-14.55-3.62-21.83" fill="#3b6287" fill-rule="evenodd" clip-rule="evenodd"/><path d="M178.24 218.02c-.67-3.09-4.49-2.72-4.42-.19-.02 4.72 2.16 11.21.86 14-.54.79-3.35-7-3.98-10.37-2.6-.98-2.95 1.67-3.33 4.14 1.63 7.39 7.37 8.65 7.74 14.72 1.05 2.98 4.19 2.44 3.84.26.13-6.77-1.94-14.56-.71-22.56m-9.85 28.29c1.7.14 3.09 1.72 3.09 3.81 0 1.98-1.58 3.6-3 3.67-1.49 0-2.37-1.46-2.65-3.72-.18-2.32.98-4.04 2.56-3.76m9.33 12.6c2.12.26 2.56 1.93 2.05 4.23-.58 2.28-.46 3.88-2.28 3.98-1.98.02-2.74-1.19-2.39-3.98.27-2.74.48-4.46 2.62-4.23m3.07-16.86c1.86 0 6.56 3.42 5.44 8.09-1.19 4.63-2.6 7.91-4.05 8.25-1.49.4-4.46-2.37-3.21-8.56 1.31-6.11.05-7.78 1.82-7.78m565.32 287.42c4.65-1.42 7.63-1.35 7.7 3.14 0 4.58-3.72 4.58-8.44 3.56-4.7-1.05-6.6-1.63-6.6-3.72-.01-2.05 2.66-1.53 7.34-2.98m23.05-352.91c1.72 0 2.12.72 3 2.33.86 1.58-1.58 1.7-3.81 1.37-2.26-.3-3.19-2.12-3.19-3.21 0-1.03 2.27-.49 4-.49m8.67.95c1.67 0 2.67 1.3 2.67 2.49.02 1.23-1.26 2.26-2.91 2.26-1.67 0-2.53-1.12-2.53-2.33 0-1.23 1.19-2.42 2.77-2.42M240.31 308.53c2.65 0 4.86 2.42 4.86 5.56.05 3.02-1.58 5.3-4.23 5.3-2.65 0-5.46-2.16-5.46-5.25-.01-3.07 2.11-5.61 4.83-5.61m9.03 25.1c2.67 0 4.91 2.49 4.91 5.6 0 3.05-1.53 5.28-4.26 5.35-2.67 0-5.44-2.21-5.44-5.3-.04-3.1 2.16-5.61 4.79-5.65m15.72-7.66c1.91 0 3.49 1.81 3.49 4s-1.07 3.77-3.05 3.84c-1.86 0-3.86-1.58-3.86-3.84 0-2.14 1.53-4 3.42-4m10.19 24.86c2.51-.05 4.53 2.12 4.53 4.7 0 2.6-1.44 4.51-3.98 4.51-2.51.05-5.12-1.86-5.14-4.46.01-2.58 2.1-4.75 4.59-4.75m109.7-22.5c2.09 0 3.79 2.07 3.84 4.72 0 2.6-1.23 4.46-3.33 4.46-2.09 0-4.21-1.86-4.25-4.46-.07-2.53 1.62-4.72 3.74-4.72" fill="#3b6287" fill-rule="evenodd" clip-rule="evenodd"/><path d="M203.67 314.57c0 11.04-8.93 19.97-19.95 19.97s-19.97-8.93-19.97-19.97c0-11.02 8.95-19.95 19.97-19.95s19.95 8.93 19.95 19.95" fill="#004b1c"/><path d="M289.49 477.81c0 11.04-8.93 19.97-19.95 19.97s-19.97-8.93-19.97-19.97c0-11.02 8.95-19.95 19.97-19.95s19.95 8.92 19.95 19.95m134.05 199.83c0 11.04-8.93 19.97-19.95 19.97s-19.97-8.93-19.97-19.97c0-11.02 8.95-19.95 19.97-19.95s19.95 8.93 19.95 19.95" fill="#a54686"/><path d="M798.26 350.9c0 11.04-8.93 19.97-19.95 19.97s-19.97-8.93-19.97-19.97c0-11.02 8.95-19.95 19.97-19.95s19.95 8.93 19.95 19.95m1.1-121.77c0 11.04-8.93 19.97-19.95 19.97s-19.97-8.93-19.97-19.97c0-11.02 8.95-19.95 19.97-19.95s19.95 8.93 19.95 19.95M344.32 574.29c0 11.04-8.93 19.97-19.95 19.97s-19.97-8.93-19.97-19.97c0-11.02 8.95-19.95 19.97-19.95s19.95 8.93 19.95 19.95" fill="#004b1c"/><path d="M195.7 317.73c0 2.74-2.23 4.98-5 4.98-2.74 0-5-2.23-5-4.98 0-2.77 2.26-5 5-5 2.77 0 5 2.24 5 5m-13.36.25c0 2.74-2.23 4.98-5 4.98-2.74 0-5-2.23-5-4.98 0-2.77 2.26-5 5-5 2.77 0 5 2.24 5 5m87.37 162.59c0 2.74-2.23 4.98-5 4.98-2.74 0-4.98-2.23-4.98-4.98 0-2.77 2.23-5 4.98-5 2.77.01 5 2.24 5 5m134.05 199.84c0 2.74-2.23 4.98-5 4.98-2.74 0-4.98-2.23-4.98-4.98 0-2.77 2.23-5 4.98-5 2.77 0 5 2.23 5 5m374.72-326.74c0 2.74-2.23 4.98-5 4.98-2.74 0-4.98-2.23-4.98-4.98 0-2.77 2.23-5 4.98-5 2.76 0 5 2.23 5 5m1.1-121.77c0 2.74-2.23 4.98-5 4.98-2.74 0-5-2.23-5-4.98 0-2.77 2.26-5 5-5 2.76 0 5 2.24 5 5M324.54 577.06c0 2.74-2.23 4.98-5 4.98-2.74 0-4.98-2.23-4.98-4.98 0-2.77 2.23-5 4.98-5 2.77 0 5 2.23 5 5" fill="#f5ee6d"/><path d="m825.53 845.76-2.68-4.36 4.27-2.63 2.68 4.36-4.27 2.63zm-5.35-8.72-2.68-4.36 4.27-2.63 2.68 4.36-4.27 2.63zm-5.36-8.72-2.68-4.36 4.27-2.63 2.68 4.36-4.27 2.63zm-5.36-8.72-2.68-4.34 4.27-2.63 2.68 4.34-4.27 2.63zm-5.36-8.69-2.68-4.36 4.27-2.63 2.68 4.36-4.27 2.63zm-5.36-8.72-2.68-4.36 4.27-2.63 2.68 4.36-4.27 2.63zm-5.36-8.72-2.68-4.36 4.27-2.63 2.68 4.36-4.27 2.63zm-5.36-8.72-2.68-4.36 4.27-2.63 2.68 4.36-4.27 2.63zm-5.36-8.72-2.68-4.36 4.27-2.63 2.68 4.36-4.27 2.63zm-5.36-8.72-2.68-4.34 4.27-2.63 2.68 4.34-4.27 2.63zm-5.36-8.7-2.68-4.36 4.27-2.63 2.68 4.36-4.27 2.63zm-5.35-8.72-2.68-4.36 4.27-2.63 2.68 4.36-4.27 2.63zm-5.34-8.72-2.68-4.36 4.27-2.63 2.68 4.36-4.27 2.63zm-5.36-8.72-2.68-4.36 4.27-2.63 2.68 4.36-4.27 2.63zm-5.36-8.72-2.68-4.36 4.27-2.63 2.68 4.36-4.27 2.63zm-5.36-8.69-2.68-4.36 4.27-2.63 2.68 4.36-4.27 2.63zm-5.36-8.72-2.68-4.36 4.27-2.63 2.68 4.36-4.27 2.63zm-5.35-8.72-2.68-4.36 4.27-2.63 2.68 4.36-4.27 2.63zm-5.36-8.72-2.68-4.36 4.27-2.63 2.68 4.36-4.27 2.63zm-5.36-8.72-2.68-4.36 4.27-2.63 2.68 4.36-4.27 2.63zm-5.36-8.72-2.68-4.36 4.27-2.63 2.68 4.36-4.27 2.63zm-5.36-8.7-2.68-4.36 4.27-2.63 2.68 4.36-4.27 2.63zm-5.36-8.72-2.68-4.36 4.27-2.63 2.68 4.36-4.27 2.63zm-5.36-8.72-2.68-4.36 4.27-2.63 2.68 4.36-4.27 2.63zm-5.36-8.72-2.68-4.36 4.27-2.63 2.68 4.36-4.27 2.63zm-5.36-8.72-2.68-4.36 4.27-2.63 2.68 4.36-4.27 2.63zm-5.36-8.72-2.68-4.36 4.27-2.63 2.68 4.36-4.27 2.63zm-5.35-8.72-2.68-4.34 4.27-2.63 2.68 4.34-4.27 2.63zm-5.36-8.69-2.68-4.36 4.27-2.63 2.68 4.36-4.27 2.63zm-5.36-8.72-2.68-4.36 4.27-2.63 2.68 4.36-4.27 2.63zm-5.36-8.72-2.68-4.36 4.27-2.63 2.68 4.36-4.27 2.63zm-5.36-8.72-2.68-4.36 4.27-2.63 2.68 4.36-4.27 2.63zm-5.36-8.72-2.68-4.36 4.27-2.63 2.68 4.36-4.27 2.63zm-5.36-8.72-2.68-4.34 4.27-2.63 2.68 4.34-4.27 2.63zm-5.36-8.7-2.68-4.36 4.27-2.63 2.68 4.36-4.27 2.63zm-5.36-8.72-2.68-4.36 4.27-2.63 2.68 4.36-4.27 2.63zm-5.35-8.72-2.66-4.36 4.27-2.63 2.66 4.36-4.27 2.63zm-5.34-8.72-2.68-4.36 4.27-2.63 2.68 4.36-4.27 2.63zm-5.36-8.72-2.68-4.36 4.27-2.63 2.68 4.36-4.27 2.63zm-5.36-8.72-2.68-4.34 4.27-2.63 2.68 4.34-4.27 2.63zm-5.36-8.69-2.68-4.36 4.27-2.63 2.68 4.36-4.27 2.63zm-5.36-8.72-2.68-4.36 4.27-2.63 2.68 4.36-4.27 2.63zm-5.36-8.72-2.68-4.36 4.27-2.63 2.68 4.36-4.27 2.63zm-5.35-8.72-2.68-4.36 4.27-2.63 2.68 4.36-4.27 2.63zm-5.36-8.72-2.68-4.36 4.27-2.63 2.68 4.36-4.27 2.63zm-5.36-8.7-2.68-4.36 4.27-2.63 2.68 4.36-4.27 2.63zm-5.36-8.72-2.68-4.36 4.27-2.63 2.68 4.36-4.27 2.63zm-5.36-8.72-2.68-4.36 4.27-2.63 2.68 4.36-4.27 2.63zm-5.36-8.72-2.68-4.36 4.27-2.63 2.68 4.36-4.27 2.63zm-5.36-8.72-2.68-4.36 4.27-2.63 2.68 4.36-4.27 2.63zm-5.36-8.72-2.68-4.36 4.27-2.63 2.68 4.36-4.27 2.63zm-5.36-8.69-2.68-4.36 4.27-2.63 2.68 4.36-4.27 2.63zm-5.35-8.72-2.68-4.36 4.27-2.63 2.68 4.36-4.27 2.63zm-5.36-8.72-2.68-4.36 4.27-2.63 2.68 4.36-4.27 2.63zm-5.36-8.72-2.68-4.36 4.27-2.63 2.68 4.36-4.27 2.63zm-5.36-8.72-2.68-4.36 4.27-2.63 2.68 4.36-4.27 2.63zm-5.36-8.72-2.68-4.36 4.27-2.63 2.68 4.36-4.27 2.63zm-5.35-8.7-2.68-4.36 4.27-2.63 2.68 4.36-4.27 2.63zm-5.36-8.72-2.68-4.36 4.27-2.63 2.68 4.36-4.27 2.63zm-5.36-8.72-2.68-4.36 4.27-2.63 2.68 4.36-4.27 2.63zm-5.35-8.72-2.68-4.36 4.27-2.63 2.68 4.36-4.27 2.63zm-5.36-8.72-2.68-4.36 4.27-2.63 2.68 4.36-4.27 2.63zm-5.36-8.71-2.68-4.36 4.27-2.63 2.68 4.36-4.27 2.63zm-5.36-8.7-2.68-4.36 4.27-2.63 2.68 4.36-4.27 2.63zm-5.36-8.72-2.68-4.36 4.27-2.63 2.68 4.36-4.27 2.63zm-5.37-8.72-2.67-4.36 4.29-2.63 2.67 4.36-4.29 2.63zm-5.34-8.72-2.68-4.36 4.27-2.63 2.68 4.36-4.27 2.63zm-5.36-8.72-2.68-4.36 4.27-2.63 2.68 4.36-4.27 2.63zm-5.35-8.72-2.68-4.36 4.27-2.63 2.68 4.36-4.27 2.63zm-5.36-8.7-2.68-4.36 4.27-2.63 2.68 4.36-4.27 2.63zm-5.36-8.72-2.68-4.36 4.27-2.63 2.68 4.36-4.27 2.63zm-5.36-8.72-2.68-4.36 4.27-2.63 2.68 4.36-4.27 2.63zm-5.36-8.72-2.68-4.36 4.27-2.63 2.68 4.36-4.27 2.63zm-5.36-8.71-2.68-4.36 4.27-2.63 2.68 4.36-4.27 2.63zm-5.36-8.72-2.68-4.36 4.27-2.63 2.68 4.36-4.27 2.63zm-5.36-8.7-2.68-4.36 4.27-2.63 2.68 4.36-4.27 2.63zm-5.36-8.72-2.68-4.36 4.27-2.63 2.68 4.36-4.27 2.63zm-5.35-8.72-2.68-4.36 4.27-2.63 2.68 4.36-4.27 2.63zm-5.35-8.72-2.68-4.36 4.27-2.63 2.68 4.36-4.27 2.63zm-5.36-8.72-2.68-4.36 4.27-2.63 2.68 4.36-4.27 2.63zm-5.36-8.72-2.68-4.36 4.27-2.63 2.68 4.36-4.27 2.63zm-5.36-8.7-2.68-4.36 4.27-2.63 2.68 4.36-4.27 2.63zm-5.36-8.72-2.68-4.36 4.27-2.63 2.68 4.36-4.27 2.63zm-5.36-8.72-2.68-4.36 4.27-2.63 2.68 4.36-4.27 2.63zm-5.36-8.71-2.68-4.36 4.27-2.63 2.68 4.36-4.27 2.63zm-5.35-8.72-2.68-4.36 4.27-2.63 2.68 4.36-4.27 2.63zm-5.36-8.72-2.68-4.36 4.27-2.63 2.68 4.36-4.27 2.63zm-5.36-8.7-2.68-4.36 4.27-2.63 2.68 4.36-4.27 2.63zm-5.36-8.72-2.68-4.36 4.27-2.63 2.68 4.36-4.27 2.63zm-5.36-8.72-2.68-4.36 4.27-2.63 2.68 4.36-4.27 2.63zm-5.35-8.72-2.68-4.36 4.27-2.63 2.68 4.36-4.27 2.63zm-5.36-8.72-2.68-4.36 4.27-2.63 2.68 4.36-4.27 2.63zm-5.36-8.72-2.68-4.36 4.27-2.63 2.68 4.36-4.27 2.63zm-5.35-8.72-1.78-2.88 4.27-2.63 1.78 2.88-4.27 2.63zM221.54 749.63l.36 14.9h-1.35c-.64-3.72-2.2-6.72-4.7-9.01-2.49-2.27-5.19-3.41-8.08-3.41-2.25 0-4.02.61-5.32 1.79-1.31 1.2-1.96 2.59-1.96 4.13 0 1 .24 1.88.69 2.66.64 1.02 1.66 2.04 3.07 3.04 1.03.73 3.42 2.02 7.15 3.86 5.22 2.57 8.75 5 10.57 7.29 1.81 2.29 2.7 4.9 2.7 7.83 0 3.75-1.45 6.95-4.36 9.65-2.91 2.68-6.61 4.02-11.09 4.02-1.4 0-2.72-.14-3.99-.41-1.25-.3-2.82-.84-4.71-1.63-1.06-.43-1.92-.66-2.6-.66-.57 0-1.18.23-1.82.66-.64.45-1.15 1.11-1.54 2.02h-1.21v-16.87h1.21c.97 4.75 2.83 8.36 5.59 10.85 2.76 2.5 5.72 3.75 8.91 3.75 2.46 0 4.42-.68 5.88-2.02 1.46-1.34 2.19-2.88 2.19-4.68 0-1.04-.28-2.07-.84-3.07-.56-.98-1.41-1.93-2.55-2.82-1.15-.89-3.17-2.04-6.06-3.47-4.06-2-6.98-3.7-8.76-5.11-1.78-1.41-3.14-2.97-4.1-4.7-.95-1.75-1.43-3.66-1.43-5.74 0-3.54 1.31-6.59 3.92-9.08 2.61-2.5 5.9-3.77 9.88-3.77 1.45 0 2.86.18 4.22.54 1.03.25 2.29.75 3.77 1.45 1.49.73 2.52 1.07 3.11 1.07.58 0 1.02-.16 1.35-.52.33-.34.64-1.2.93-2.54h.97zm27.8.11v36.54c0 2.75.11 4.5.36 5.25.24.77.74 1.39 1.51 1.86.77.5 2 .73 3.69.73h1.02v1.23H232.4v-1.23h1.18c1.92 0 3.28-.2 4.09-.66.82-.43 1.36-1.04 1.65-1.82.3-.75.43-2.54.43-5.36v-23.16c0-2.07-.1-3.36-.3-3.88-.19-.5-.57-.95-1.1-1.32-.54-.36-1.16-.54-1.86-.54-1.12 0-2.49.36-4.09 1.07l-.59-1.18 16.44-7.52h1.09z"/><path d="M229.14 846.68c-40.88 0-74.14-33.27-74.14-74.16 0-40.87 33.25-74.14 74.14-74.14s74.15 33.27 74.15 74.14c.01 40.9-33.26 74.16-74.15 74.16zm0-141.71c-37.25 0-67.55 30.31-67.55 67.55 0 37.26 30.3 67.58 67.55 67.58 37.26 0 67.57-30.31 67.57-67.58 0-37.24-30.3-67.55-67.57-67.55zm625.73-103.49.36 14.9h-1.36c-.64-3.72-2.2-6.72-4.68-9.01-2.5-2.27-5.2-3.41-8.11-3.41-2.23 0-4 .61-5.31 1.79-1.32 1.2-1.95 2.59-1.95 4.13 0 1 .23 1.88.68 2.66.64 1.02 1.66 2.04 3.07 3.04 1.04.73 3.41 2.02 7.15 3.86 5.22 2.57 8.74 5 10.58 7.29 1.79 2.29 2.7 4.9 2.7 7.83 0 3.75-1.45 6.95-4.38 9.65-2.91 2.68-6.59 4.02-11.08 4.02-1.41 0-2.72-.14-3.97-.41-1.27-.3-2.84-.84-4.72-1.63-1.04-.43-1.93-.66-2.61-.66-.57 0-1.16.23-1.79.66-.64.45-1.16 1.11-1.57 2.02h-1.2v-16.87h1.2c.98 4.75 2.84 8.36 5.59 10.85 2.77 2.5 5.74 3.75 8.92 3.75 2.45 0 4.43-.68 5.88-2.02 1.45-1.34 2.18-2.88 2.18-4.68 0-1.04-.27-2.07-.84-3.07-.54-.98-1.41-1.93-2.54-2.82-1.14-.89-3.16-2.04-6.06-3.47-4.06-2-6.99-3.7-8.77-5.11s-3.16-2.97-4.11-4.7c-.95-1.75-1.43-3.66-1.43-5.74 0-3.54 1.32-6.59 3.93-9.08 2.61-2.5 5.9-3.77 9.88-3.77 1.45 0 2.86.18 4.22.54 1.02.25 2.29.75 3.77 1.45 1.48.73 2.52 1.07 3.11 1.07.57 0 1.02-.16 1.36-.52.32-.34.64-1.2.91-2.54h.99zm33.77 45.71h-26.27v-.73c8.06-9.61 12.94-16.05 14.67-19.37 1.73-3.32 2.59-6.56 2.59-9.72 0-2.32-.73-4.22-2.13-5.74-1.43-1.54-3.18-2.29-5.25-2.29-3.38 0-6.02 1.68-7.88 5.06l-1.23-.43c1.2-4.2 3-7.33 5.4-9.36 2.43-2.02 5.22-3.02 8.38-3.02 2.27 0 4.31.52 6.2 1.57a11.77 11.77 0 0 1 4.38 4.34c1.04 1.84 1.57 3.57 1.57 5.15 0 2.93-.79 5.9-2.43 8.9-2.23 4.06-7.06 9.74-14.53 17.01h9.65c2.38 0 3.93-.11 4.63-.3.7-.2 1.29-.54 1.77-1 .45-.48 1.07-1.48 1.79-3h1.2l-2.51 12.93z"/><path d="M862.48 698.51c-40.87 0-74.14-33.27-74.14-74.14s33.27-74.14 74.14-74.14 74.14 33.27 74.14 74.14-33.27 74.14-74.14 74.14zm0-141.7c-37.24 0-67.55 30.31-67.55 67.55s30.31 67.55 67.55 67.55 67.55-30.31 67.55-67.55-30.31-67.55-67.55-67.55z"/><path d="M184.66 305.61c0 2.74-2.23 4.98-5 4.98-2.74 0-5-2.23-5-4.98 0-2.77 2.26-5 5-5 2.77 0 5 2.23 5 5" fill="#f5ee6d"/><path d="M894.59 267.12c1.29-.12 1.93-.54 1.93-1.23 0-.52-.29-.88-.88-1.07-.71-.23-1.61-.47-2.68-.72-.92-.37-1.38-.8-1.38-1.28 0-1.33.65-1.93 1.95-1.81.29.03.56.04.82.04.89 0 2.29-.43 4.2-1.3.21-.1.48-.14.82-.14.41 0 .76.17 1.06.5.29.34.44.71.44 1.12 0 .47-.26.85-.78 1.15-.45.21-.91.42-1.36.64.84.74 1.28 1.71 1.32 2.92.03.85-.32 1.61-1.05 2.28-1.58 1.45-3.85 2.18-6.83 2.18-.3 0-.98-.02-2.04-.06-4.38 3.62-7.42 5.95-9.14 6.98-2.77 1.66-4.57 2.45-5.39 2.37-.47-.1-.93-.58-1.38-1.46-.41-.81-.62-1.49-.62-2.04 0-.45.13-.79.39-1.01.26-.14.55-.21.86-.21.23 0 .59.04 1.07.11.48.08.84.11 1.07.11.77 0 1.52-.23 2.24-.7 3.29-2.13 5.65-3.74 7.06-4.84-.16-.33-.25-.6-.25-.82 0-.67.16-1.21.49-1.63.85-1.07 1.86-1.58 3.03-1.54 1.45.05 2.31.58 2.57 1.58 1.07-.02 1.88-.07 2.46-.12zm-4.01-21.53c-1.4-.11-2.18-.22-2.35-.33-.63-.4-.95-.89-.95-1.48 0-.81.43-1.4 1.3-1.77 1.04-.19 1.89-.25 2.55-.19.81.08 1.75.31 2.82.68.76.26 1.43.73 2.04 1.4.47.52.7 1.14.7 1.85 0 1.02-.52 2.09-1.56 3.23-.82.91-1.78 1.67-2.88 2.28-1.73.99-3.2 1.54-4.42 1.65-.58.05-1.06-.08-1.46-.41s-.6-.78-.6-1.36c0-.89.44-1.4 1.32-1.52a7.14 7.14 0 0 0 2.16-.66c.48-.23 1.12-.61 1.93-1.13 1.11-.71 1.67-1.25 1.67-1.61-.01-.29-.77-.5-2.27-.63zm10.31.06c-1.4-.11-2.18-.22-2.35-.33-.63-.4-.95-.89-.95-1.48 0-.81.43-1.4 1.3-1.77 1.04-.19 1.89-.25 2.55-.19.81.08 1.75.31 2.82.68.75.26 1.43.73 2.04 1.4.47.52.7 1.14.7 1.85 0 1.02-.52 2.09-1.56 3.23-.82.91-1.78 1.67-2.88 2.28-1.73.99-3.2 1.54-4.42 1.65-.58.05-1.06-.08-1.46-.41-.4-.33-.6-.78-.6-1.36 0-.89.44-1.4 1.32-1.52a7.14 7.14 0 0 0 2.16-.66c.48-.23 1.13-.61 1.93-1.13 1.11-.71 1.67-1.25 1.67-1.61-.01-.29-.76-.5-2.27-.63zm15.26 34.23c.41 0 .77.2 1.07.59.3.39.45.8.45 1.22 0 .22-.21.57-.64 1.05-.45.37-1.55 1.04-3.29 2l-5.76 3.15c-1.12.62-1.89.97-2.3 1.07-.23.11-.47.16-.7.16-.4 0-.66-.14-.78-.41-.33-.75-.49-1.2-.49-1.34 0-.8.47-1.3 1.4-1.52 3.46-1.69 6.9-3.6 10.33-5.74.24-.16.48-.23.71-.23zm2.39 3.72c.41 0 .77.2 1.07.59.3.39.45.8.45 1.22 0 .22-.21.57-.64 1.05-.45.37-1.55 1.04-3.29 2l-5.76 3.15c-1.12.62-1.89.97-2.3 1.07-.23.11-.47.16-.7.16-.4 0-.66-.14-.78-.41-.33-.75-.49-1.2-.49-1.34 0-.8.47-1.3 1.4-1.52 3.46-1.69 6.9-3.6 10.33-5.74.24-.15.48-.23.71-.23zm3.97-20.6c0-.36-.54-.54-1.63-.54l-2.96.33c-.15.01-.47.08-.97.19-.4.08-.72.12-.97.12-.34 0-.62-.1-.82-.31-.32-.44-.47-.9-.47-1.38 0-.32.07-.64.21-.99.14-.74 1.51-1.2 4.12-1.38.66-.04 1.9.05 3.72.29 2 .26 3.2.78 3.58 1.54.34.7.45 1.36.33 1.98-.1.48-.21.84-.35 1.07-.45.6-.92 1.11-1.4 1.52-.92.8-1.78 1.45-2.59 1.98-1.84 1.19-4.39 2.53-7.66 4.01-1.69.77-3.36 1.48-5.02 2.14-.75.3-1.42.25-2-.14-.89-.96-1.34-1.89-1.34-2.78 0-.8.44-1.19 1.32-1.19.22 0 .55.03.99.1.44.07.77.1.99.1.37 0 .69-.05.97-.14 1.43-.51 2.15-.77 2.18-.78 1.43-.56 3.03-1.32 4.79-2.28 2.65-1.43 4.29-2.48 4.94-3.17.03-.08.04-.18.04-.29zm-80.37 158.69c1.29-.12 1.93-.54 1.93-1.23 0-.52-.29-.88-.88-1.07-.71-.23-1.61-.47-2.68-.72-.92-.37-1.38-.8-1.38-1.28 0-1.33.65-1.93 1.95-1.81.29.03.56.04.82.04.89 0 2.29-.43 4.2-1.3.21-.1.48-.14.82-.14.41 0 .76.17 1.06.5.29.34.44.71.44 1.12 0 .47-.26.85-.78 1.15-.45.21-.91.42-1.36.64.84.74 1.28 1.71 1.32 2.92.03.85-.32 1.61-1.05 2.28-1.58 1.45-3.85 2.18-6.83 2.18-.3 0-.98-.02-2.04-.06-4.38 3.62-7.42 5.95-9.14 6.98-2.77 1.66-4.57 2.45-5.39 2.37-.47-.1-.93-.58-1.38-1.46-.41-.81-.62-1.49-.62-2.04 0-.45.13-.79.39-1.01.26-.14.55-.21.86-.21.23 0 .59.04 1.07.11.48.08.84.11 1.07.11.77 0 1.52-.23 2.24-.7 3.29-2.13 5.65-3.74 7.06-4.84-.16-.33-.25-.6-.25-.82 0-.67.16-1.21.49-1.63.85-1.07 1.86-1.58 3.03-1.54 1.45.05 2.31.58 2.57 1.58 1.07-.02 1.88-.06 2.46-.12zm-4.02-21.52c-1.4-.11-2.18-.22-2.35-.33-.63-.4-.95-.89-.95-1.48 0-.81.43-1.4 1.3-1.77 1.04-.19 1.89-.25 2.55-.19.81.08 1.75.31 2.82.68.76.26 1.43.73 2.04 1.4.47.52.7 1.14.7 1.85 0 1.02-.52 2.09-1.56 3.23-.82.91-1.78 1.67-2.88 2.28-1.73.99-3.2 1.54-4.42 1.65-.58.05-1.06-.08-1.46-.41-.4-.33-.6-.78-.6-1.36 0-.89.44-1.4 1.32-1.52a7.14 7.14 0 0 0 2.16-.66c.48-.23 1.12-.61 1.93-1.13 1.11-.71 1.67-1.25 1.67-1.61 0-.3-.76-.51-2.27-.63zm10.31.06c-1.4-.11-2.18-.22-2.35-.33-.63-.4-.95-.89-.95-1.48 0-.81.43-1.4 1.3-1.77 1.04-.19 1.89-.25 2.55-.19.81.08 1.75.31 2.82.68.75.26 1.43.73 2.04 1.4.47.52.7 1.14.7 1.85 0 1.02-.52 2.09-1.56 3.23-.82.91-1.78 1.67-2.88 2.28-1.73.99-3.2 1.54-4.42 1.65-.58.05-1.06-.08-1.46-.41-.4-.33-.6-.78-.6-1.36 0-.89.44-1.4 1.32-1.52a7.14 7.14 0 0 0 2.16-.66c.48-.23 1.13-.61 1.93-1.13 1.11-.71 1.67-1.25 1.67-1.61 0-.3-.76-.51-2.27-.63zm18.01 12.32c.38 0 .74.17 1.08.5.34.34.5.7.5 1.08 0 .26-.64.93-1.93 2-.47.38-.73.74-.78 1.07-.08.48.05.85.39 1.11.54.4.91.6 1.13.6.07 0 .27-.04.62-.12.67-.16 1.37-.38 2.08-.64.91-.33 1.48-.53 1.71-.6.44-.03.76.09.97.35.3.12.45.48.45 1.07 0 .49-.47 1-1.4 1.52-3.61 2-6.02 3.34-7.22 4.01l-4.16 2.35c-2.24 1.26-3.74 1.98-4.51 2.16-.58.14-.95.18-1.13.12-.36-.11-.73-.37-1.12-.78-.39-.41-.63-.8-.71-1.15-.23-1.1-.05-1.7.56-1.81.14-.04.36-.06.66-.06.15 0 .38.01.68.03.3.02.53.03.68.03.4 0 .71-.03.95-.1.67-.29 1.64-.75 2.9-1.4 2.3-1.18 4.08-2.15 5.33-2.92a3.49 3.49 0 0 1-1.73-.97c-.54-.52-.8-1.1-.8-1.75 0-1.47 1.32-3.22 3.95-5.27.35-.28.64-.43.85-.43zm1.15-12.22c-1.4-.11-2.18-.22-2.35-.33-.63-.4-.95-.89-.95-1.48 0-.81.43-1.4 1.3-1.77 1.04-.19 1.89-.25 2.55-.19.81.08 1.75.31 2.82.68.75.26 1.43.73 2.04 1.4.47.52.7 1.14.7 1.85 0 1.02-.52 2.09-1.56 3.23-.82.91-1.78 1.67-2.88 2.28-1.73.99-3.2 1.54-4.42 1.65-.58.05-1.06-.08-1.46-.41s-.6-.78-.6-1.36c0-.89.44-1.4 1.32-1.52a7.14 7.14 0 0 0 2.16-.66c.48-.23 1.13-.61 1.93-1.13 1.11-.71 1.67-1.25 1.67-1.61-.01-.29-.76-.51-2.27-.63zm26.54 14.34c.43 0 .79.24 1.09.72.19.3.3.55.31.74.05.69-.54 1.41-1.79 2.16l-7.22 4.4c-2.81 1.71-5.28 2.99-7.41 3.83-.59.23-.95.35-1.09.35-1.36.15-2.21-.61-2.55-2.28-.04-.21-.06-.4-.06-.58 0-.67.35-1.01 1.05-1.01.22 0 .56.03 1.01.08.45.05.79.08 1.01.08.62 0 1.15-.12 1.61-.37.47-.05 2.46-1.14 5.99-3.25 2.91-1.74 5-3.07 6.28-3.97.83-.6 1.43-.9 1.77-.9zm-3.46-14.34c-1.4-.11-2.18-.22-2.35-.33-.63-.4-.95-.89-.95-1.48 0-.81.43-1.4 1.3-1.77 1.04-.19 1.89-.25 2.55-.19.81.08 1.75.31 2.82.68.75.26 1.43.73 2.04 1.4.47.52.7 1.14.7 1.85 0 1.02-.52 2.09-1.56 3.23-.82.91-1.78 1.67-2.88 2.28-1.73.99-3.2 1.54-4.42 1.65-.58.05-1.06-.08-1.46-.41-.4-.33-.6-.78-.6-1.36 0-.89.44-1.4 1.32-1.52a7.14 7.14 0 0 0 2.16-.66c.48-.23 1.13-.61 1.93-1.13 1.11-.71 1.67-1.25 1.67-1.61 0-.29-.76-.51-2.27-.63z"/><path d="M73.25 348.34c2.13-.2 3.2-.89 3.2-2.04 0-.86-.49-1.45-1.46-1.77-1.18-.39-2.66-.78-4.43-1.19-1.52-.61-2.28-1.32-2.28-2.11 0-2.2 1.08-3.2 3.24-3 .48.05.93.07 1.36.07 1.48 0 3.79-.72 6.95-2.15.34-.16.79-.24 1.36-.24.68 0 1.27.28 1.75.83s.73 1.18.73 1.86c0 .77-.43 1.41-1.29 1.91-.75.34-1.5.69-2.25 1.06 1.39 1.23 2.11 2.84 2.18 4.84.05 1.41-.53 2.67-1.74 3.78-2.61 2.41-6.38 3.61-11.31 3.61-.5 0-1.62-.03-3.37-.1-7.24 5.99-12.28 9.84-15.12 11.55-4.59 2.75-7.56 4.05-8.92 3.92-.77-.16-1.53-.97-2.28-2.42-.68-1.34-1.02-2.46-1.02-3.37 0-.75.22-1.31.65-1.67.43-.23.91-.34 1.43-.34.39 0 .98.06 1.77.19s1.39.19 1.77.19c1.27 0 2.51-.39 3.71-1.16 5.45-3.52 9.34-6.19 11.68-8-.27-.54-.41-1-.41-1.36 0-1.11.27-2.01.82-2.69 1.41-1.77 3.08-2.62 5.01-2.55 2.41.09 3.83.97 4.26 2.62 1.72-.1 3.06-.18 4.01-.27zm-6.64-35.63c-2.32-.18-3.61-.36-3.88-.54-1.04-.66-1.57-1.48-1.57-2.45 0-1.34.72-2.32 2.15-2.93 1.73-.32 3.13-.42 4.22-.31 1.34.14 2.9.51 4.67 1.12 1.25.43 2.37 1.2 3.37 2.32.77.86 1.16 1.88 1.16 3.07 0 1.68-.86 3.46-2.59 5.35-1.36 1.5-2.95 2.76-4.77 3.78-2.86 1.63-5.3 2.54-7.32 2.72-.95.09-1.76-.14-2.42-.68-.66-.54-.99-1.29-.99-2.25 0-1.48.73-2.32 2.18-2.52 1.27-.18 2.46-.54 3.58-1.09.79-.39 1.86-1.01 3.2-1.87 1.84-1.18 2.76-2.07 2.76-2.66 0-.5-1.25-.86-3.75-1.06zm17.07.1c-2.32-.18-3.61-.36-3.88-.54-1.04-.66-1.57-1.48-1.57-2.45 0-1.34.72-2.32 2.15-2.93 1.73-.32 3.13-.42 4.22-.31 1.34.14 2.9.51 4.67 1.12 1.25.43 2.37 1.2 3.37 2.32.77.86 1.16 1.88 1.16 3.07 0 1.68-.86 3.46-2.59 5.35-1.36 1.5-2.95 2.76-4.77 3.78-2.86 1.63-5.3 2.54-7.32 2.72-.95.09-1.76-.14-2.42-.68-.66-.54-.99-1.29-.99-2.25 0-1.48.73-2.32 2.18-2.52 1.27-.18 2.46-.54 3.58-1.09.79-.39 1.86-1.01 3.2-1.87 1.84-1.18 2.76-2.07 2.76-2.66-.01-.5-1.26-.85-3.75-1.06zm32.74 22.52c1.07.05 2 .35 2.79.92a8.97 8.97 0 0 1 3.37 4.67c.09.7.14 1.09.14 1.16-.07 2.54-.99 4.72-2.76 6.54-2.07 1.61-4.72 2.36-7.97 2.25-2.84-.09-5.39-1.36-7.66-3.81-1.57.57-3.1 1.24-4.6 2.01-.09.05-.14.12-.14.24 0 .02.49.72 1.46 2.09.98 1.37 1.45 2.3 1.43 2.78-.07 1.79-1.2 3.33-3.41 4.6-1.48.84-3.88 1.63-7.22 2.38-.98.23-2.29.42-3.95.58-.66.07-1.29-.37-1.91-1.33-.52-.79-.83-1.57-.92-2.32-.2-1.73.26-2.59 1.4-2.59.48 0 1.24.15 2.28.46 1.04.31 1.83.46 2.35.46.18 0 .61-.03 1.29-.1.09-.05.33-.1.72-.17.43-.16.94-.35 1.53-.58 1.16-.45 1.74-.92 1.74-1.4 0-.16-.59-.93-1.77-2.32-1.09-1.27-1.63-2.2-1.63-2.79 0-.43.16-.89.48-1.36.18-.54.93-1.26 2.25-2.15 5.06-3.41 10.87-6.55 17.41-9.43 1.25-.56 2.35-.82 3.3-.79zm4.09-25.31c.68 0 1.27.32 1.77.97s.75 1.32.75 2.03c0 .7-.34 1.27-1.02 1.7-2.7 1.7-5.73 3.47-9.09 5.31l-5.93 3.24c-1.88 1.02-3.16 1.61-3.81 1.77-.39.18-.77.27-1.16.27-.66 0-1.09-.23-1.29-.68-.54-1.25-.82-1.99-.82-2.21 0-1.32.77-2.16 2.32-2.52 5.72-2.79 11.42-5.96 17.1-9.5.4-.26.79-.38 1.18-.38zm-9.91 34.3c.05.23.49.48 1.33.75.66.18 1.42.26 2.28.24s1.61-.23 2.23-.63c.62-.4.97-.88 1.04-1.45.02-1.29-.58-1.92-1.81-1.87-.57.02-1.49.31-2.76.85-1.52.84-2.29 1.54-2.31 2.11zm37.35 27.01c.68 0 1.27.32 1.77.97.5.65.75 1.32.75 2.03 0 .36-.35.94-1.06 1.74-.75.61-2.57 1.71-5.45 3.3l-9.54 5.21c-1.86 1.02-3.13 1.61-3.81 1.77-.39.18-.77.27-1.16.27-.66 0-1.09-.23-1.29-.68-.54-1.25-.82-1.99-.82-2.21 0-1.32.77-2.16 2.32-2.52 5.72-2.79 11.42-5.96 17.1-9.5.4-.26.8-.38 1.19-.38zm11.68-34.61c.7 0 1.31.4 1.81 1.19.32.5.49.91.51 1.23.09 1.14-.9 2.33-2.96 3.58l-11.96 7.29c-4.65 2.84-8.74 4.95-12.26 6.34-.98.39-1.58.58-1.81.58-2.25.25-3.66-1.01-4.22-3.78-.07-.34-.1-.66-.1-.95 0-1.11.58-1.67 1.74-1.67.36 0 .92.05 1.67.14.75.09 1.31.14 1.67.14 1.02 0 1.91-.2 2.66-.61.77-.09 4.08-1.88 9.91-5.38 4.81-2.88 8.28-5.08 10.39-6.57 1.4-1.03 2.38-1.53 2.95-1.53z" fill="#bd0e72"/><path d="M216.74 532.84c1.29-.12 1.93-.54 1.93-1.23 0-.52-.29-.88-.88-1.07-.71-.23-1.61-.47-2.68-.72-.92-.37-1.38-.8-1.38-1.28 0-1.33.65-1.93 1.95-1.81.29.03.56.04.82.04.89 0 2.29-.43 4.2-1.3.21-.1.48-.14.82-.14.41 0 .76.17 1.06.5.29.34.44.71.44 1.12 0 .47-.26.85-.78 1.15-.45.21-.91.42-1.36.64.84.74 1.28 1.71 1.32 2.92.03.85-.32 1.61-1.05 2.28-1.58 1.45-3.85 2.18-6.83 2.18-.3 0-.98-.02-2.04-.06-4.38 3.62-7.42 5.95-9.14 6.98-2.77 1.66-4.57 2.45-5.39 2.37-.47-.1-.93-.58-1.38-1.46-.41-.81-.62-1.49-.62-2.04 0-.45.13-.79.39-1.01.26-.14.55-.21.86-.21.23 0 .59.04 1.07.11.48.08.84.11 1.07.11.77 0 1.52-.23 2.24-.7 3.29-2.13 5.65-3.74 7.06-4.84-.16-.33-.25-.6-.25-.82 0-.67.16-1.21.49-1.63.85-1.07 1.86-1.58 3.03-1.54 1.45.05 2.31.58 2.57 1.58 1.08-.02 1.89-.06 2.46-.12zm-4.01-21.52c-1.4-.11-2.18-.22-2.35-.33-.63-.4-.95-.89-.95-1.48 0-.81.43-1.4 1.3-1.77 1.04-.19 1.89-.25 2.55-.19.81.08 1.75.31 2.82.68.76.26 1.43.73 2.04 1.4.47.52.7 1.14.7 1.85 0 1.02-.52 2.09-1.56 3.23-.82.91-1.78 1.67-2.88 2.28-1.73.99-3.2 1.54-4.42 1.65-.58.05-1.06-.08-1.46-.41-.4-.33-.6-.78-.6-1.36 0-.89.44-1.4 1.32-1.52a7.14 7.14 0 0 0 2.16-.66c.48-.23 1.12-.61 1.93-1.13 1.11-.71 1.67-1.25 1.67-1.61-.01-.3-.76-.51-2.27-.63zm10.31.06c-1.4-.11-2.18-.22-2.35-.33-.63-.4-.95-.89-.95-1.48 0-.81.43-1.4 1.3-1.77 1.04-.19 1.89-.25 2.55-.19.81.08 1.75.31 2.82.68.75.26 1.43.73 2.04 1.4.47.52.7 1.14.7 1.85 0 1.02-.52 2.09-1.56 3.23-.82.91-1.78 1.67-2.88 2.28-1.73.99-3.2 1.54-4.42 1.65-.58.05-1.06-.08-1.46-.41-.4-.33-.6-.78-.6-1.36 0-.89.44-1.4 1.32-1.52a7.14 7.14 0 0 0 2.16-.66c.48-.23 1.13-.61 1.93-1.13 1.11-.71 1.67-1.25 1.67-1.61-.01-.3-.76-.51-2.27-.63zm12.16 19.48c-.14-.32-.21-.67-.21-1.05 0-.92.39-1.52 1.17-1.79.15-.11.38-.16.68-.16.52 0 1.53.27 3.03.8l4.1-2.14c2.13-1.11 3.26-1.7 3.4-1.77.18-.14.38-.21.62-.21.81 0 1.29.46 1.44 1.38.03.16.04.31.04.43 0 .33-.34.71-1.03 1.13-2.66 1.22-4.39 2.07-5.19 2.55 1.22.29 2.15.71 2.8 1.26.22.33.34.67.37 1.01.05.66-.1 1.17-.45 1.54-.51.54-1.2.69-2.08.45-.91-.23-1.51-.39-1.81-.47-.75-.21-1.6-.47-2.53-.78-2.95 2.02-5.23 3.51-6.85 4.47-2.99 1.77-5.12 2.72-6.4 2.86-.41.04-.85-.17-1.32-.64-.64-.64-.97-1.54-.97-2.68 0-.73.47-1.09 1.42-1.09.21 0 .52.02.95.06s.74.06.95.06c.44 0 .82-.05 1.15-.16 1.45-.67 2.57-1.23 3.33-1.67 1.41-.82 2.78-1.73 4.12-2.72-.42-.26-.66-.49-.73-.67zm10.12-21.17c.41 0 .77.2 1.07.59.3.39.45.8.45 1.22 0 .43-.21.77-.62 1.03-1.63 1.03-3.46 2.1-5.49 3.21l-3.58 1.95c-1.14.62-1.91.97-2.3 1.07-.23.11-.47.16-.7.16-.4 0-.66-.14-.78-.41-.33-.75-.49-1.2-.49-1.34 0-.8.47-1.3 1.4-1.52 3.46-1.69 6.9-3.6 10.33-5.74.24-.15.48-.22.71-.22zm25.42 19.03c0-.36-.54-.54-1.63-.54l-2.96.33c-.15.01-.47.08-.97.19-.4.08-.72.12-.97.12-.34 0-.62-.1-.82-.31-.32-.44-.47-.9-.47-1.38 0-.32.07-.64.21-.99.14-.74 1.51-1.2 4.12-1.38.66-.04 1.9.05 3.72.29 2 .26 3.2.78 3.58 1.54.34.7.45 1.36.33 1.98-.1.48-.21.84-.35 1.07-.45.6-.92 1.11-1.4 1.52-.92.8-1.78 1.45-2.59 1.98-1.84 1.19-4.39 2.53-7.66 4.01-1.69.77-3.36 1.48-5.02 2.14-.75.3-1.42.25-2-.14-.89-.96-1.34-1.89-1.34-2.78 0-.8.44-1.19 1.32-1.19.22 0 .55.03.99.1s.77.1.99.1c.37 0 .69-.05.97-.14 1.43-.51 2.15-.77 2.18-.78 1.43-.56 3.03-1.32 4.79-2.28 2.65-1.43 4.29-2.48 4.94-3.17.03-.08.04-.18.04-.29zm.66-19.03c.41 0 .77.2 1.07.59.3.39.45.8.45 1.22 0 .43-.21.77-.62 1.03-1.63 1.03-3.46 2.1-5.49 3.21l-3.58 1.95c-1.14.62-1.91.97-2.3 1.07-.23.11-.47.16-.7.16-.4 0-.66-.14-.78-.41-.33-.75-.49-1.2-.49-1.34 0-.8.47-1.3 1.4-1.52 3.46-1.69 6.9-3.6 10.33-5.74.24-.15.48-.22.71-.22zm115.1 66.95c1.29-.12 1.93-.54 1.93-1.23 0-.52-.3-.88-.88-1.07-.71-.23-1.61-.47-2.68-.72-.92-.37-1.38-.8-1.38-1.28 0-1.33.65-1.93 1.95-1.81.29.03.56.04.82.04.89 0 2.29-.43 4.2-1.3.21-.1.48-.14.82-.14.41 0 .76.17 1.06.5.3.34.44.71.44 1.12 0 .47-.26.85-.78 1.15-.45.21-.91.42-1.36.64.84.74 1.28 1.71 1.32 2.92.03.85-.32 1.61-1.05 2.28-1.58 1.45-3.86 2.18-6.83 2.18-.3 0-.98-.02-2.04-.06-4.38 3.62-7.42 5.95-9.14 6.98-2.77 1.66-4.57 2.45-5.39 2.37-.47-.1-.93-.58-1.38-1.46-.41-.81-.62-1.49-.62-2.04 0-.45.13-.79.39-1.01.26-.14.55-.21.86-.21.23 0 .59.04 1.07.11.48.08.84.11 1.07.11.77 0 1.52-.23 2.24-.7 3.29-2.13 5.64-3.74 7.06-4.84-.16-.33-.25-.6-.25-.82 0-.67.16-1.21.49-1.63.85-1.07 1.86-1.58 3.03-1.54 1.45.05 2.31.58 2.57 1.58 1.08-.02 1.89-.06 2.46-.12zm-4.01-21.52c-1.4-.11-2.18-.22-2.35-.33-.63-.4-.95-.89-.95-1.48 0-.81.43-1.4 1.3-1.77 1.04-.19 1.89-.25 2.55-.19.81.08 1.75.31 2.82.68.75.26 1.43.73 2.04 1.4.47.52.7 1.14.7 1.85 0 1.02-.52 2.09-1.56 3.23-.82.91-1.78 1.67-2.88 2.28-1.73.99-3.2 1.54-4.42 1.65-.58.05-1.06-.08-1.46-.41-.4-.33-.6-.78-.6-1.36 0-.89.44-1.4 1.32-1.52a7.14 7.14 0 0 0 2.16-.66c.48-.23 1.13-.61 1.93-1.13 1.11-.71 1.67-1.25 1.67-1.61 0-.3-.76-.51-2.27-.63zm10.31.06c-1.4-.11-2.18-.22-2.35-.33-.63-.4-.95-.89-.95-1.48 0-.81.43-1.4 1.3-1.77 1.04-.19 1.89-.25 2.55-.19.81.08 1.75.31 2.82.68.76.26 1.43.73 2.04 1.4.47.52.7 1.14.7 1.85 0 1.02-.52 2.09-1.56 3.23-.82.91-1.78 1.67-2.88 2.28-1.73.99-3.2 1.54-4.42 1.65-.58.05-1.06-.08-1.46-.41-.4-.33-.6-.78-.6-1.36 0-.89.44-1.4 1.32-1.52a7.14 7.14 0 0 0 2.16-.66c.48-.23 1.12-.61 1.93-1.13 1.11-.71 1.67-1.25 1.67-1.61 0-.3-.76-.51-2.27-.63zm10.6 22.51c0-.81.54-1.39 1.61-1.73.95-.3 1.93-.69 2.94-1.15-.62-.29-1.11-.54-1.48-.76-.81-.49-1.26-.88-1.34-1.17-.12-.41-.12-.79.02-1.13.15-.4.44-.62.86-.66 1.65-.15 3.07-.67 4.28-1.54.6-.44 1.15-.66 1.65-.66.11 0 .2.02.27.06.41.26.69.6.82 1.01.04.12.06.47.06 1.03-.01 0-.06.07-.14.21-.16.27-.4.49-.7.66-.29.25-.5.41-.64.49-.49.3-.78.47-.84.51-.37.21-.56.36-.56.45.01.04.13.09.35.14 1.18.33 1.77.84 1.77 1.54 0 .12-.08.34-.25.66-.32.34-.57.58-.76.72-.89.66-1.57 1.11-2.04 1.36-.44.33-.66.45-.66.35.01.07.22.3.62.7.22.33.36.54.41.64.01.1.02.19.02.27 0 .58-.56 1.21-1.69 1.89-8.82 5.35-13.86 8.08-15.13 8.19-.54.04-1.07-.35-1.61-1.17-.48-.71-.75-1.37-.8-1.98-.1-.95.31-1.42 1.21-1.42.26 0 .55.02.86.06.11.01.58.02 1.42.02.44 0 .88-.07 1.34-.21 1.73-.75 3.1-1.41 4.12-1.98 2.46-1.37 4.4-2.52 5.82-3.46-1.2-.75-1.81-1.4-1.81-1.94zm1.75-20.54c-1.03.95-1.54 1.69-1.54 2.24 0 .07.03.12.08.16-.07.12.17.2.72.23 1.17.07 1.98-.01 2.45-.23.29-.05.55-.08.78-.08 1.41 0 2.12.56 2.12 1.67 0 1.02-.45 1.58-1.36 1.69-.59.15-1.46.23-2.61.23-3.92 0-5.89-1.18-5.89-3.54 0-.33.04-.58.12-.76.45-1.51 1.42-2.89 2.9-4.16.73-.63 1.21-1.06 1.46-1.3.4-.37.97-.7 1.71-.99.23-.1.41-.12.54-.08 1.17.37 1.75 1.06 1.75 2.06 0 .49-.38.94-1.13 1.34-1.07.71-1.77 1.22-2.1 1.52zm9.75-.68c-1.03.95-1.54 1.69-1.54 2.24 0 .07.03.12.08.16-.07.12.17.2.72.23 1.17.07 1.98-.01 2.45-.23.29-.05.55-.08.78-.08 1.41 0 2.12.56 2.12 1.67 0 1.02-.45 1.58-1.36 1.69-.59.15-1.46.23-2.61.23-3.92 0-5.89-1.18-5.89-3.54 0-.33.04-.58.12-.76.45-1.51 1.42-2.89 2.9-4.16.73-.63 1.21-1.06 1.46-1.3.4-.37.97-.7 1.71-.99.23-.1.41-.12.54-.08 1.17.37 1.75 1.06 1.75 2.06 0 .49-.38.94-1.13 1.34-1.07.72-1.77 1.22-2.1 1.52zm18.99 20.17c1.29-.12 1.93-.54 1.93-1.23 0-.52-.3-.88-.88-1.07-.71-.23-1.61-.47-2.68-.72-.92-.37-1.38-.8-1.38-1.28 0-1.33.65-1.93 1.95-1.81.29.03.56.04.82.04.89 0 2.29-.43 4.2-1.3.21-.1.48-.14.82-.14.41 0 .76.17 1.06.5.3.34.44.71.44 1.12 0 .47-.26.85-.78 1.15-.45.21-.91.42-1.36.64.84.74 1.28 1.71 1.32 2.92.03.85-.32 1.61-1.05 2.28-1.58 1.45-3.86 2.18-6.83 2.18-.3 0-.98-.02-2.04-.06-4.38 3.62-7.42 5.95-9.14 6.98-2.77 1.66-4.57 2.45-5.39 2.37-.47-.1-.93-.58-1.38-1.46-.41-.81-.62-1.49-.62-2.04 0-.45.13-.79.39-1.01.26-.14.55-.21.86-.21.23 0 .59.04 1.07.11.48.08.84.11 1.07.11.77 0 1.52-.23 2.24-.7 3.29-2.13 5.64-3.74 7.06-4.84-.16-.33-.25-.6-.25-.82 0-.67.16-1.21.49-1.63.85-1.07 1.86-1.58 3.03-1.54 1.45.05 2.31.58 2.57 1.58 1.08-.02 1.89-.06 2.46-.12zm-4.01-21.52c-1.4-.11-2.18-.22-2.35-.33-.63-.4-.95-.89-.95-1.48 0-.81.43-1.4 1.3-1.77 1.04-.19 1.89-.25 2.55-.19.81.08 1.75.31 2.82.68.75.26 1.43.73 2.04 1.4.47.52.7 1.14.7 1.85 0 1.02-.52 2.09-1.56 3.23-.82.91-1.78 1.67-2.88 2.28-1.73.99-3.2 1.54-4.42 1.65-.58.05-1.06-.08-1.46-.41-.4-.33-.6-.78-.6-1.36 0-.89.44-1.4 1.32-1.52a7.14 7.14 0 0 0 2.16-.66c.48-.23 1.13-.61 1.93-1.13 1.11-.71 1.67-1.25 1.67-1.61-.01-.3-.76-.51-2.27-.63zm10.31.06c-1.4-.11-2.18-.22-2.35-.33-.63-.4-.95-.89-.95-1.48 0-.81.43-1.4 1.3-1.77 1.04-.19 1.89-.25 2.55-.19.81.08 1.75.31 2.82.68.76.26 1.43.73 2.04 1.4.47.52.7 1.14.7 1.85 0 1.02-.52 2.09-1.56 3.23-.82.91-1.78 1.67-2.88 2.28-1.73.99-3.2 1.54-4.42 1.65-.58.05-1.06-.08-1.46-.41-.4-.33-.6-.78-.6-1.36 0-.89.44-1.4 1.32-1.52a7.14 7.14 0 0 0 2.16-.66c.48-.23 1.12-.61 1.93-1.13 1.11-.71 1.67-1.25 1.67-1.61-.01-.3-.76-.51-2.27-.63zm12.16 19.49c-.14-.32-.21-.67-.21-1.05 0-.92.39-1.52 1.17-1.79.15-.11.38-.16.68-.16.52 0 1.53.27 3.03.8l4.1-2.14c2.13-1.11 3.26-1.7 3.4-1.77.18-.14.38-.21.62-.21.81 0 1.29.46 1.44 1.38.03.16.04.31.04.43 0 .33-.34.71-1.03 1.13-2.66 1.22-4.39 2.07-5.19 2.55 1.22.29 2.15.71 2.8 1.26.22.33.34.67.37 1.01.05.66-.1 1.17-.45 1.54-.51.54-1.2.69-2.08.45-.91-.23-1.51-.39-1.81-.47-.76-.21-1.6-.47-2.53-.78-2.95 2.02-5.23 3.51-6.85 4.47-2.99 1.77-5.12 2.72-6.4 2.86-.41.04-.85-.17-1.32-.64-.65-.64-.97-1.54-.97-2.68 0-.73.47-1.09 1.42-1.09.21 0 .52.02.95.06.43.04.74.06.95.06.44 0 .82-.05 1.15-.16 1.45-.67 2.57-1.23 3.33-1.67 1.41-.82 2.79-1.73 4.12-2.72-.42-.27-.66-.5-.73-.67zm10.12-21.18c.41 0 .77.2 1.07.59.3.39.45.8.45 1.22 0 .43-.21.77-.62 1.03-1.63 1.03-3.46 2.1-5.49 3.21l-3.58 1.95c-1.14.62-1.91.97-2.3 1.07-.23.11-.47.16-.7.16-.4 0-.66-.14-.78-.41-.33-.75-.49-1.2-.49-1.34 0-.8.47-1.3 1.4-1.52 3.46-1.69 6.9-3.6 10.33-5.74.24-.14.48-.22.71-.22zm25.42 19.04c0-.36-.54-.54-1.63-.54l-2.96.33c-.15.01-.47.08-.97.19-.4.08-.72.12-.97.12-.34 0-.62-.1-.82-.31-.32-.44-.47-.9-.47-1.38 0-.32.07-.64.21-.99.14-.74 1.51-1.2 4.12-1.38.66-.04 1.9.05 3.72.29 2 .26 3.2.78 3.58 1.54.34.7.45 1.36.33 1.98-.1.48-.21.84-.35 1.07-.45.6-.92 1.11-1.4 1.52-.92.8-1.78 1.45-2.59 1.98-1.84 1.19-4.39 2.53-7.66 4.01-1.69.77-3.36 1.48-5.02 2.14-.76.3-1.42.25-2-.14-.89-.96-1.34-1.89-1.34-2.78 0-.8.44-1.19 1.32-1.19.22 0 .55.03.99.1s.77.1.99.1c.37 0 .69-.05.97-.14 1.43-.51 2.15-.77 2.18-.78 1.43-.56 3.03-1.32 4.79-2.28 2.65-1.43 4.29-2.48 4.94-3.17.03-.09.04-.18.04-.29zm.66-19.04c.41 0 .77.2 1.07.59.3.39.45.8.45 1.22 0 .43-.21.77-.62 1.03-1.63 1.03-3.46 2.1-5.49 3.21l-3.58 1.95c-1.14.62-1.91.97-2.3 1.07-.23.11-.47.16-.7.16-.4 0-.66-.14-.78-.41-.33-.75-.49-1.2-.49-1.34 0-.8.47-1.3 1.4-1.52 3.46-1.69 6.9-3.6 10.33-5.74.24-.14.48-.22.71-.22zM361.4 759.99c1.29-.12 1.93-.54 1.93-1.23 0-.52-.29-.88-.88-1.07-.71-.23-1.61-.47-2.68-.72-.92-.37-1.38-.8-1.38-1.28 0-1.33.65-1.93 1.95-1.81.29.03.56.04.82.04.89 0 2.29-.43 4.2-1.3.21-.1.48-.14.82-.14.41 0 .76.17 1.06.5.29.34.44.71.44 1.12 0 .47-.26.85-.78 1.15-.45.21-.91.42-1.36.64.84.74 1.28 1.71 1.32 2.92.03.85-.32 1.61-1.05 2.28-1.58 1.45-3.85 2.18-6.83 2.18-.3 0-.98-.02-2.04-.06-4.38 3.62-7.42 5.95-9.14 6.98-2.77 1.66-4.57 2.45-5.39 2.37-.47-.1-.93-.58-1.38-1.46-.41-.81-.62-1.49-.62-2.04 0-.45.13-.79.39-1.01.26-.14.55-.21.86-.21.23 0 .59.04 1.07.11.48.08.84.11 1.07.11.77 0 1.52-.23 2.24-.7 3.29-2.13 5.65-3.74 7.06-4.84-.16-.33-.25-.6-.25-.82 0-.67.16-1.21.49-1.63.85-1.07 1.86-1.58 3.03-1.54 1.45.05 2.31.58 2.57 1.58 1.07-.01 1.88-.06 2.46-.12zm-4.02-21.52c-1.4-.11-2.18-.22-2.35-.33-.63-.4-.95-.89-.95-1.48 0-.81.43-1.4 1.3-1.77 1.04-.19 1.89-.25 2.55-.19.81.08 1.75.31 2.82.68.76.26 1.43.73 2.04 1.4.47.52.7 1.14.7 1.85 0 1.02-.52 2.09-1.56 3.23-.82.91-1.78 1.67-2.88 2.28-1.73.99-3.2 1.54-4.42 1.65-.58.05-1.06-.08-1.46-.41-.4-.33-.6-.78-.6-1.36 0-.89.44-1.4 1.32-1.52a7.14 7.14 0 0 0 2.16-.66c.48-.23 1.12-.61 1.93-1.13 1.11-.71 1.67-1.25 1.67-1.61 0-.3-.76-.51-2.27-.63zm10.31.06c-1.4-.11-2.18-.22-2.35-.33-.63-.4-.95-.89-.95-1.48 0-.81.43-1.4 1.3-1.77 1.04-.19 1.89-.25 2.55-.19.81.08 1.75.31 2.82.68.75.26 1.43.73 2.04 1.4.47.52.7 1.14.7 1.85 0 1.02-.52 2.09-1.56 3.23-.82.91-1.78 1.67-2.88 2.28-1.73.99-3.2 1.54-4.42 1.65-.58.05-1.06-.08-1.46-.41-.4-.33-.6-.78-.6-1.36 0-.89.44-1.4 1.32-1.52a7.14 7.14 0 0 0 2.16-.66c.48-.23 1.13-.61 1.93-1.13 1.11-.71 1.67-1.25 1.67-1.61 0-.29-.76-.51-2.27-.63zm10.6 22.51c0-.81.54-1.39 1.61-1.73.95-.3 1.93-.69 2.94-1.15-.62-.29-1.11-.54-1.48-.76-.81-.49-1.26-.88-1.34-1.17-.12-.41-.12-.79.02-1.13.15-.4.44-.62.86-.66 1.65-.15 3.07-.67 4.28-1.54.6-.44 1.15-.66 1.65-.66.11 0 .2.02.27.06.41.26.69.6.82 1.01.04.12.06.47.06 1.03-.01 0-.06.07-.14.21-.16.27-.4.49-.7.66-.29.25-.5.41-.64.49-.49.3-.77.47-.84.51-.37.21-.56.36-.56.45.01.04.13.09.35.14 1.18.33 1.77.84 1.77 1.54 0 .12-.08.34-.25.66-.32.34-.57.58-.76.72-.89.66-1.57 1.11-2.04 1.36-.44.33-.66.45-.66.35.01.07.22.3.62.7.22.33.36.54.41.64.01.1.02.19.02.27 0 .58-.56 1.21-1.69 1.89-8.82 5.35-13.86 8.08-15.13 8.19-.54.04-1.07-.35-1.61-1.17-.48-.71-.75-1.37-.8-1.98-.1-.95.31-1.42 1.21-1.42.26 0 .55.02.86.06.11.01.58.02 1.42.02.44 0 .88-.07 1.34-.21 1.73-.75 3.1-1.41 4.12-1.98 2.46-1.37 4.4-2.52 5.82-3.46-1.2-.75-1.81-1.4-1.81-1.94zm1.75-20.53c-1.03.95-1.54 1.69-1.54 2.24 0 .07.03.12.08.16-.07.12.17.2.72.23 1.17.07 1.98-.01 2.45-.23.29-.05.55-.08.78-.08 1.41 0 2.12.56 2.12 1.67 0 1.02-.45 1.58-1.36 1.69-.59.15-1.46.23-2.61.23-3.92 0-5.89-1.18-5.89-3.54 0-.33.04-.58.12-.76.45-1.51 1.42-2.89 2.9-4.16.73-.63 1.21-1.06 1.46-1.3.4-.37.97-.7 1.71-.99.23-.1.41-.12.54-.08 1.17.37 1.75 1.06 1.75 2.06 0 .49-.38.94-1.13 1.34-1.07.71-1.77 1.21-2.1 1.52zm9.75-.68c-1.03.95-1.54 1.69-1.54 2.24 0 .07.03.12.08.16-.07.12.17.2.72.23 1.17.07 1.98-.01 2.45-.23.29-.05.55-.08.78-.08 1.41 0 2.12.56 2.12 1.67 0 1.02-.45 1.58-1.36 1.69-.59.15-1.46.23-2.61.23-3.92 0-5.89-1.18-5.89-3.54 0-.33.04-.58.12-.76.45-1.51 1.42-2.89 2.9-4.16.73-.63 1.21-1.06 1.46-1.3.4-.37.97-.7 1.71-.99.23-.1.41-.12.54-.08 1.17.37 1.75 1.06 1.75 2.06 0 .49-.38.94-1.13 1.34-1.07.71-1.77 1.21-2.1 1.52z"/></svg>