<svg xmlns="http://www.w3.org/2000/svg" xml:space="preserve" x="0" y="0" version="1.1" viewBox="0 0 1000 1000"><path d="M36.8 139.71c-6.95-3.4-7.7-2.17-2.71 3.68 8.64 2.89 12.43 8.59 11.84 17.08-.16 5.82 2.8 8.94 6.19 11.95 8.43 2.39 12.92-4.1 10.26-10.68-7.25-9.63-15.13-14.7-25.58-22.03" fill="#3b6287" fill-rule="evenodd" clip-rule="evenodd"/><path d="M33.18 126.76c-13.1-4.4-19.97.05-22.58 10.57-.36 10.36 2.23 19.89 6.84 28.86 7.9 16.43 18.28 30.43 31.14 41.93 7.66 7.68 15.54 12.13 24.79-5.74 2.01-6.53 1.9-14.1 5.24-19.82 8.62-12.07 15.09-23.63.26-33.72-15.24-7.09-30.45-14.28-45.69-22.08m137.81 123.88c5.04.52 8.79 2.17 11.64 4.58.25.21.47.41.71.63 22.79 16.13 7.86 31.05-3.82 43.92-.25.26-.48.51-.73.78-.24.24-.48.48-.74.75-7.18 6.39-14.32 5.67-21.43 1.7-11.11-4.91-17.99-13.72-18.69-28.19.71-17.47 10.33-26.79 33.06-24.17m68.05 108.66c-7.7-3.9-12.75-1.26-17.05 4.34-1.03 5.4-1.15 10.22-.43 14.77-1.9 6.02-3.74 12.05-6.49 18.07-2.66 13.3 10.15 18.45 22.56 19.62 10.91-1.37 18.68-9.32 23.63-19.35 1.14-2.56 1.27-5.27.86-8.13-.38.28-.81.53-1.28.75-1.93-.17-3.18-.8-2.73-2.62.85-.96 1.67-2.15 2.22-4.05-.7-3.33-1.66-6.77-3-9.76-.93-1.11-1.37-1.89-1.27-2.36-5.65-6.58-11.33-10.35-17.02-11.28m7.19 170c-5.43-6.4-10.83-10.66-16.35.3-1.1 14.13-3.21 27.75-5.56 41.22.46 12.47 6.02 16.52 15.86 13.57 8.77-2.5 14.81-7.52 18.06-14.98 4.22-4.26 4.12-10.39-.31-18.39-3.9-7.25-7.81-14.49-11.7-21.72m35.42 150.49c-11.43 8.47-6.54 12.72.7 16.34 10.67.56 20.28.34 30.36-1.57 6.33-.05 8.59 2.71 11.13 3.82 13.46 5.79 29.62-1.52 37.46-5.15 5.17-5.87 1.81-9.95-4.13-12.15-9.57 1.08-19.43 1.62-30.24.23-5.25-4.54-10.01-4.67-14.66-5.48-12.03-.61-21.12 1.34-30.62 3.96m-24.9-72.04c-3.76-3.82-10.83-8.73-22.09-6.4-9.76 3.04-12.67 11.75-10.67 17.34 4.05 13.49 14.78 25.18 22.26 38.02 7.75 5.77 15.48 8.96 23.28 3 4.53-5 8.6-10.24 11.91-15.87 2.47-6.18-.22-10.94-6.43-14.74-4.48-1.37-8.73-4.05-13.22-6.66-6.48-4.39-2.25-11.25-5.04-14.69m31.04 115.17c2.01-8.33 7.97-11.59 14.85-4.2 9.59 8.5 17.82 17.36 23.11 27.08 3.96 7.94 4.87 12.92.12 17.25-6.19 9.23-10.95 17.53-14.69 26.76-5.6 10.98-10.96 6.6-15.2.86-10.94-21.55-10.9-43.81-8.19-67.75m37.04 104.31c6.95-2.28 11.88 5.88 11.36 15.82-.53 9.94-6.76 14.55-12.94 14.51-6.18-.03-11.66-7.04-11.6-15.59.03-8.53 6.19-12.45 13.18-14.74m17.44 31.74c7.73 1.59 8.14 4.32 8.11 7.22-.01 2.9-4.25 6.22-8.85 7.11-4.65.9-7.22-1.77-9.04-6.53-1.85-4.76 2.1-9.41 9.78-7.8m18.78 4.47c4.39.92 4.62 2.46 4.59 4.11 0 1.64-2.41 3.53-5.06 4.05-2.62.5-4.09-1.01-5.11-3.73-1.04-2.69 1.21-5.33 5.58-4.43m14.08 19.06c2.67-3.53 4.08-5.22-3.22-6.96-7.08 1.3-14.14.82-21.24.26-9.39 1.83-7.96 6.42-4.98 11.41.71.75 1.38 1.48 2.05 2.21l-.03-.36c.51-3.33 2.16-3.78 4.86-1.38 2.3 5.77 6.91 7.35 11.4 10.2 1.1 3.31.04 5.2-3.2 3.51-.77-.48-1.57-.97-2.33-1.45 2.49 5.96 5.45 10.86 10.95 9.26 1.35-1.25 2.98-1.36 4.92-.34 3.16 4.15 8.66 7.71 13.28 9.65-.69.96-1.43 1.49-2.89 1.81 5.56 9.09 10.07 11.9 13.48 8.46-.03-1.67 1.32-1.96 4.07-.93 5.53 4.57 10.67 7.7 15.42 9.36 1.11 1.43 1.55 2.43 1.25 2.95 2.85 1.47 5.7 2.91 8.53 4.3 9.26.57 12.7-4.44 10.3-15.04-3.69-8.52-8.3-16.89-19.46-24.22 11.88-9.01-2.57-8.31-4.78-17.19-4.14-7.05-8.63-7.61-13.47-1.71-3.82 2.88-3.86 6.89-3.33 11.01 1.87 3.96 3.76 7.93 5.64 11.87 1.51 4.92-.68 6.4-6.56 4.46-9.06-7.26-18.14-14.53-27.22-21.8-1.35-2.85-1.95-5.58 2.9-7.76 1.21.04 2.43-1.58 3.66-1.58" fill="#3b6287" fill-rule="evenodd" clip-rule="evenodd"/><path d="M389.71 875.35c6.88.82 8.75 1.59 8.75 3.42-.04 1.82-3.63 4.26-9.48 4.93-5.9.65-8.27-2.21-8.52-5.05-.2-2.82 2.38-4.12 9.25-3.3m100.09 130.69c-1.44-13.34-6.34-18.59-12.77-24.09m0 .01c-5.89-3.05-12.41-3.35-19.61-.95-6.73.87-8.58 5.13-9.42 10.95-.83 22.87 11.43 31.56 22.97 43.44M833.6 815.31c3.8.04 8.2 7.59 10.25 18.05 2.03 10.48-.55 18.18-4.36 18.15-3.81-.02-9.55-8.74-9.48-18.41.07-9.69-.21-17.8 3.59-17.79m2.89 84.74c4.27.01 7.73 2.16 7.72 4.73-.02 2.6-3.51 4.68-7.79 4.65-4.27-.02-7.75-2.16-7.71-4.74 0-2.59 3.48-4.68 7.78-4.64M514.57 343.77c5.89.04 8.26 3.52 8.24 11-.07 7.47-5.39 15.24-11.31 15.18-5.9-.04-5.15-5.4-5.1-12.88.04-7.49 2.24-13.35 8.17-13.3m200.79-59.53c5.19.03 6.46 6.86 6.41 15.19-.06 8.35-3.22 14.12-7.98 12.12-2.81-1.17-7.29-6.34-7.25-14.69.05-8.33 3.66-12.66 8.82-12.62m155.15 277.89c-9.41-12.04-13.25-5.48-16.55-1.33-8.9 23.92-9.28 51.52-18.23 79.83-1.14 15.71 1.01 31.04 6.45 45.97 3.35 5.03 13.34 7.97 18.08-3.54-2.09-8.91-3.66-17.99-1.67-28.5 5.04-14.21 9.99-28.17 12.54-44.02 4.27-18.06 2.4-34.19-.62-48.41M859.39 949.8c7.04.26 12.43 1.31 12.41 3.74-.03 2.45-5.6 5.19-12.47 5.14-6.8-.05-11.73-1.42-12.35-4.52-.65-3.1 5.36-4.62 12.41-4.36M741.93 361.68c-2.25-.8-4.48-1.18-6.76 1.42-4.93 11.85 7.51 15.35 6.38 29.08.44 3.93 3.07 3.64 5.96 2.75 2.45-3.8 4.89-7.58 7.33-11.39-2.73-5.51-5.48-11.03-8.24-16.56-1.56-1.76-3.13-3.54-4.67-5.3M380.84 96.59c-2.25-.8-4.48-1.18-6.76 1.42-4.93 11.85 7.51 15.35 6.38 29.08.44 3.93 3.07 3.64 5.96 2.75 2.45-3.8 4.89-7.58 7.33-11.39-2.73-5.51-5.48-11.03-8.24-16.56-1.56-1.77-3.14-3.54-4.67-5.3m-31.9 119.21c-2.25-.8-4.48-1.18-6.76 1.42-4.93 11.85 7.51 15.35 6.38 29.08.44 3.93 3.07 3.64 5.96 2.75 2.45-3.8 4.89-7.58 7.33-11.39-2.73-5.51-5.48-11.03-8.24-16.56-1.56-1.76-3.14-3.54-4.67-5.3m419.48 493.52c-9.2-2-14.37-.54-16.3 5.44-.39 4.56-.07 8.54 5.49 8.33 3.05-.58 4.9-3.18 8.32-4.87 2.16.27 2.44 1.09.9 2.46-2.29 4.21-6.67 4.5-7.13 6.5-3.41 5.91 4.8 6.19 8.93 6.37 3.65.26 5.95-2.27 7.27-5.81-.31.17-.63.23-.91.17-1.39-.31-.71-2.45.01-5.7.68-3.1.19-6.11 2.18-6.13-.39-3.9-4.64-5.96-8.76-6.76m58.23 47.46c-.08-2.2 4.28-3.02 4.77-1 .71 5.43 2.34 7.49 4.86 6.17.41-1.45.9-2.8 1.56-3.99 1.24-2.98 2.92-2.39 4.63-.6 2.53 3.68 1.83 7.26 1.83 10.65-1.57 1.8-2.53 1.72-4.06 1.49-.84-.33-1.77.01-2.79-1.35-3.68.62-1.35 2.61-.45 5.28-2.25 1.81-5.06.82-6.3-1.42-3.55-4.45-5.14-9.78-4.05-15.23m51.49 217.09c5.65.03 10.26 3.91 10.23 8.61-.03 4.71-4.68 8.53-10.36 8.5-5.66-.02-10.26-3.9-10.22-8.61.04-4.73 4.68-8.53 10.35-8.5M654.72 781.49c3.26.02 6.23 1.09 8.52 2.86-.96.23.42 3.96.42 7.12-.02 2.8 1.21 5.7 2.29 6.46-2.21 3.48-6.49 5.83-11.36 5.8-7.08-.05-15.51-5.34-15.48-11.47.06-6.12 8.56-10.82 15.61-10.77m67.18-37.06c1.75 2.75 3.26 9.79-.34 10.84-1.65.47-8.64.56-11.25-3.54-3.8-5.97-5.63-14.84-2.43-16.84 3.2-1.99 10.24 3.59 14.02 9.54M-10.39 79.79C5.63 65.78 15.53 45.72 22.64 22.93c4.2-6.66 4.44-14.46-4.04-24.81m37.22 56.41c11.17-1.07 18.46 6.46 18.48 11.38.04 4.9-6.28 9.18-18.46 9.25-12.18.06-22.86 1.31-22.47-3.19.35-4.52 11.28-16.35 22.45-17.44m41.5 24.76c4.97-.39 8.37.27 8.75 3.62.67 5.78-14.87 16.91-27.27 16.98-12.4.06-17.43-2.98-17.45-7.9-.04-4.48 10.11-8.44 20.38-10.41-4.61 2.37-8.32 5.15-13.3 7.77-.42 2.77 5.92.62 7.42 2.46 1.15 1.38 1.46 3.43 4.16 2.81 6.26-5.69 12.86-9.83 20.72-8 3.62.74 3.76-.6 3.39-2.24-2.18-2.28-4.5-3.92-6.8-5.09m272.64 457.07c15.27 4.25 15.27 4.25 8.09 15.9-.28.17-.57.33-.85.47-2.06 1.06-4.57 1.69-7.29 1.7-6.96.04-12.69-3.97-12.71-8.96-.02-3.62 2.92-6.72 7.2-8.2.33-.12.66-.23 4.32-.87.4-.01.8-.04 1.24-.04m-40.38 181.87c-.74 1.3-14.5.19-16.28-2.94-3.93-6.99 10.29-4.57 12.8-2.61.11.69.06 1.38.18 2.07 2.8-.37 4 1.26 3.3 4.06v-.58z" fill="#3b6287" fill-rule="evenodd" clip-rule="evenodd"/><path d="M64.52 66.23c0 5-4.05 9.03-9.03 9.03-4.99 0-9.03-4.04-9.03-9.03 0-4.98 4.04-9.02 9.03-9.02 4.98 0 9.03 4.04 9.03 9.02m28.36 18.69c0 5-4.05 9.03-9.03 9.03-4.99 0-9.04-4.04-9.04-9.03 0-4.98 4.05-9.02 9.04-9.02 4.98 0 9.03 4.04 9.03 9.02m274.24 154.12c0 5-4.05 9.03-9.02 9.03-5 0-9.04-4.04-9.04-9.03 0-4.98 4.04-9.02 9.04-9.02 4.97 0 9.02 4.04 9.02 9.02m158.6 117.37c0 4.98-4.04 9.03-9.02 9.03-4.99 0-9.04-4.05-9.04-9.03 0-4.98 4.05-9.03 9.04-9.03 4.98 0 9.02 4.04 9.02 9.03m198.15-56.62c0 4.98-4.04 9.03-9.03 9.03-4.98 0-9.03-4.05-9.03-9.03 0-4.98 4.05-9.02 9.03-9.02 4.99 0 9.03 4.04 9.03 9.02m-32.48 161.95c0 4.98-4.05 9.02-9.03 9.02-4.99 0-9.04-4.04-9.04-9.02 0-4.99 4.05-9.02 9.04-9.02 4.98 0 9.03 4.02 9.03 9.02m-310.42 85.85c0 4.97-4.05 9.02-9.02 9.02-5 0-9.04-4.05-9.04-9.02 0-4.99 4.04-9.03 9.04-9.03 4.97 0 9.02 4.04 9.02 9.03M774.78 419.4c0 5-4.04 9.02-9.02 9.02-4.99 0-9.04-4.03-9.04-9.02 0-4.98 4.05-9.02 9.04-9.02 4.98 0 9.02 4.03 9.02 9.02m86.21 263.58c0 4.98-4.05 9.03-9.02 9.03-5 0-9.05-4.05-9.05-9.03 0-4.98 4.05-9.03 9.05-9.03 4.97 0 9.02 4.05 9.02 9.03m15.69 267c0 5-4.05 9.03-9.03 9.03-4.99 0-9.04-4.04-9.04-9.03 0-4.98 4.05-9.02 9.04-9.02 4.98 0 9.03 4.04 9.03 9.02m-522.66-78.67c0 4.98-4.05 9.03-9.02 9.03-5 0-9.04-4.05-9.04-9.03 0-4.98 4.04-9.03 9.04-9.03 4.97 0 9.02 4.04 9.02 9.03" fill="#004b1c"/><path d="M770.62 420.1a2.25 2.25 0 0 1-2.26 2.25c-1.24 0-2.26-1-2.26-2.25s1.02-2.26 2.26-2.26c1.25 0 2.26 1.01 2.26 2.26m83.59 262.88a2.25 2.25 0 0 1-2.26 2.25c-1.24 0-2.26-1-2.26-2.25s1.02-2.26 2.26-2.26c1.25 0 2.26 1.01 2.26 2.26M720.59 299.43a2.25 2.25 0 0 1-2.26 2.25c-1.24 0-2.25-1-2.25-2.25a2.256 2.256 0 1 1 4.51 0M521.2 356.41a2.25 2.25 0 0 1-2.26 2.25c-1.24 0-2.25-1-2.25-2.25a2.256 2.256 0 1 1 4.51 0M360.34 239.05a2.25 2.25 0 0 1-2.26 2.25c-1.24 0-2.25-1-2.25-2.25a2.256 2.256 0 1 1 4.51 0" fill="#f5ee6d"/><path d="M6.788 82.883 25.27 65.707l4.058 4.366L10.846 87.25zm36.959-34.354 18.488-17.183 4.058 4.365-18.488 17.183zM103.26 1.36 84.77 18.54l-4.05-4.37L99.2-3m681.405 988.062 23.456-9.295 2.195 5.541-23.455 9.294zm46.933-18.548 23.456-9.295 2.196 5.541-23.456 9.294zm46.922-18.557 23.465-9.298 2.195 5.541-23.465 9.298zm46.94-18.561 23.465-9.298 2.195 5.54-23.465 9.299zm46.929-18.559 23.456-9.295 2.195 5.541-23.455 9.294zm46.931-18.558 23.456-9.295 2.195 5.541-23.456 9.295z" fill="#ed1c24"/><path d="M407.57 378.42v7h-.59c-.44-1.83-1.25-3.23-2.44-4.2a6.215 6.215 0 0 0-4.06-1.46c-1.26 0-2.41.36-3.47 1.09a6.353 6.353 0 0 0-2.31 2.84c-.63 1.5-.93 3.17-.93 5.01 0 1.81.23 3.46.69 4.94.45 1.49 1.17 2.61 2.15 3.37.97.76 2.23 1.14 3.78 1.14 1.27 0 2.43-.28 3.49-.83 1.06-.56 2.18-1.51 3.35-2.87v1.74c-1.13 1.18-2.31 2.04-3.53 2.57-1.23.53-2.66.8-4.3.8-2.16 0-4.07-.43-5.74-1.3-1.67-.86-2.97-2.1-3.88-3.72-.9-1.62-1.36-3.34-1.36-5.17 0-1.93.5-3.75 1.51-5.48 1.01-1.73 2.37-3.07 4.08-4.02 1.71-.95 3.53-1.43 5.46-1.43 1.42 0 2.93.31 4.5.92.91.35 1.5.53 1.75.53.32 0 .6-.11.83-.35.23-.23.38-.6.45-1.11h.57zm11.6.05v16.52c0 1.24.05 2.03.16 2.38.1.34.34.62.69.84.34.22.9.33 1.66.33h.46v.55H411.5v-.55h.53c.86 0 1.48-.1 1.85-.3.37-.2.62-.47.75-.82.12-.35.2-1.16.2-2.43v-10.47c0-.93-.05-1.52-.13-1.75-.09-.24-.26-.43-.5-.6s-.52-.25-.84-.25c-.5 0-1.12.16-1.85.48l-.27-.54 7.43-3.39h.5zm152.2 321.57v7h-.59c-.44-1.83-1.25-3.23-2.44-4.2a6.215 6.215 0 0 0-4.06-1.46c-1.26 0-2.41.36-3.47 1.09a6.353 6.353 0 0 0-2.31 2.84c-.63 1.5-.93 3.17-.93 5.01 0 1.81.23 3.46.69 4.94.45 1.49 1.17 2.61 2.15 3.37.97.76 2.23 1.14 3.78 1.14 1.27 0 2.43-.28 3.49-.83 1.06-.56 2.18-1.51 3.35-2.87v1.74c-1.13 1.18-2.31 2.04-3.53 2.57-1.23.53-2.66.8-4.3.8-2.16 0-4.07-.43-5.74-1.3-1.67-.86-2.97-2.1-3.88-3.72-.9-1.62-1.36-3.34-1.36-5.17 0-1.93.5-3.75 1.51-5.48 1.01-1.73 2.37-3.07 4.08-4.02 1.71-.95 3.53-1.43 5.46-1.43 1.42 0 2.93.31 4.5.92.91.35 1.5.53 1.75.53.32 0 .6-.11.83-.35.23-.23.38-.6.45-1.11h.57zm14.29 20.66h-11.88v-.33c3.65-4.34 5.85-7.26 6.63-8.76s1.17-2.97 1.17-4.39c0-1.04-.33-1.91-.97-2.6-.65-.69-1.44-1.03-2.37-1.03-1.53 0-2.72.76-3.56 2.29l-.55-.2c.54-1.91 1.36-3.32 2.44-4.23 1.1-.91 2.36-1.37 3.79-1.37 1.03 0 1.95.24 2.8.71.84.48 1.5 1.13 1.98 1.96.47.83.71 1.61.71 2.33 0 1.32-.36 2.66-1.1 4.02-1.01 1.84-3.19 4.4-6.57 7.69h4.36c1.08 0 1.78-.05 2.09-.13.32-.09.59-.24.8-.46.21-.22.48-.66.81-1.35h.54l-1.12 5.85zm467.35-222.23h-2.31v-2.27h2.31v2.27zm-4.63 0h-2.31v-2.27h2.31v2.27zm-4.62 0h-2.31v-2.27h2.31v2.27zm-4.63 0h-2.31v-2.27h2.31v2.27zm-4.62 0h-2.31v-2.27h2.31v2.27zm-4.63 0h-2.31v-2.27h2.31v2.27zm-4.62 0h-2.32v-2.27h2.32v2.27zm-4.63 0h-2.31v-2.27h2.31v2.27zm-4.62 0h-2.32v-2.27h2.32v2.27zm-4.63 0h-2.31v-2.27h2.31v2.27zm-4.63 0h-2.31v-2.27h2.31v2.27zm-4.62 0h-2.31v-2.27h2.31v2.27zm-4.63 0h-2.31v-2.27h2.31v2.27zm-4.63 0h-2.32v-2.27h2.32v2.27zm-4.63 0h-2.31v-2.27h2.31v2.27zm-4.62 0h-2.32v-2.27h2.32v2.27zm-4.63 0h-2.31v-2.27h2.31v2.27zm-4.63 0h-2.31v-2.27h2.31v2.27zm-4.62 0h-2.31v-2.27h2.31v2.27zm-4.63 0h-2.31v-2.27h2.31v2.27zm-4.62 0h-2.31v-2.27h2.31v2.27zm-4.63 0h-2.31v-2.27h2.31v2.27zm-4.62 0h-2.32v-2.27h2.32v2.27zm-4.63 0h-2.31v-2.27h2.31v2.27zm-4.62 0h-2.32v-2.27h2.32v2.27zm-4.63 0h-2.31v-2.27h2.31v2.27zm-4.63 0h-2.31v-2.27h2.31v2.27zm-4.62 0h-2.31v-2.27h2.31v2.27zm-4.63 0h-2.31v-2.27h2.31v2.27zm-4.63 0h-2.32v-2.27h2.32v2.27zm-4.63 0h-2.31v-2.27h2.31v2.27zm-4.62 0h-2.32v-2.27h2.32v2.27zm-4.63 0h-2.31v-2.27h2.31v2.27zm-4.63 0h-2.31v-2.27h2.31v2.27zm-4.62 0h-2.31v-2.27h2.31v2.27zm-4.63 0h-2.31v-2.27h2.31v2.27zm-4.62 0h-2.31v-2.27h2.31v2.27zm-4.63 0h-2.31v-2.27h2.31v2.27zm-4.62 0h-2.32v-2.27h2.32v2.27zm-4.63 0h-2.31v-2.27h2.31v2.27zm-4.62 0h-2.32v-2.27h2.32v2.27zm-4.63 0h-2.31v-2.27h2.31v2.27zm-4.63 0h-2.31v-2.27h2.31v2.27zm-4.62 0h-2.31v-2.27h2.31v2.27zm-4.63 0h-2.31v-2.27h2.31v2.27zm-4.63 0h-2.32v-2.27h2.32v2.27zm-4.63 0h-2.31v-2.27h2.31v2.27zm-4.62 0h-2.32v-2.27h2.32v2.27zm-4.63 0h-2.31v-2.27h2.31v2.27zm-4.63 0h-2.31v-2.27h2.31v2.27zm-4.62 0h-2.31v-2.27h2.31v2.27zm-4.63 0h-2.31v-2.27h2.31v2.27zm-4.62 0h-2.31v-2.27h2.31v2.27zm-4.63 0h-2.31v-2.27h2.31v2.27zm-4.62 0h-2.32v-2.27h2.32v2.27zm-4.63 0h-2.31v-2.27h2.31v2.27zm-4.62 0h-2.32v-2.27h2.32v2.27zm-4.63 0h-2.31v-2.27h2.31v2.27zm-4.63 0h-2.31v-2.27h2.31v2.27zm-4.62 0h-2.31v-2.27h2.31v2.27zm-4.63 0h-2.31v-2.27h2.31v2.27zm-4.63 0h-2.32v-2.27h2.32v2.27zm-4.63 0h-2.31v-2.27h2.31v2.27zm-4.62 0h-2.32v-2.27h2.32v2.27zm-4.63 0h-2.31v-2.27h2.31v2.27zm-4.63 0h-2.31v-2.27h2.31v2.27zm-4.62 0h-2.31v-2.27h2.31v2.27zm-4.63 0h-2.31v-2.27h2.31v2.27zm-4.62 0h-2.31v-2.27h2.31v2.27zm-4.63 0h-2.31v-2.27h2.31v2.27zm-4.62 0h-2.32v-2.27h2.32v2.27zm-4.63 0h-2.31v-2.27h2.31v2.27zm-4.62 0h-2.32v-2.27h2.32v2.27zm-4.63 0h-2.31v-2.27h2.31v2.27zm-4.63 0h-2.31v-2.27h2.31v2.27zm-4.62 0h-2.31v-2.27h2.31v2.27zm-4.63 0h-2.31v-2.27h2.31v2.27zm-4.63 0h-2.32v-2.27h2.32v2.27zm-4.63 0h-2.31v-2.27h2.31v2.27zm-4.62 0h-2.32v-2.27h2.32v2.27zm-4.63 0h-2.31v-2.27h2.31v2.27zm-4.63 0h-2.31v-2.27h2.31v2.27zm-4.62 0h-2.31v-2.27h2.31v2.27zm-4.63 0h-2.31v-2.27h2.31v2.27zm-4.62 0h-2.31v-2.27h2.31v2.27zm-4.63 0h-2.31v-2.27h2.31v2.27zm-4.62 0h-2.32v-2.27h2.32v2.27zm-4.63 0h-2.31v-2.27h2.31v2.27zm-4.62 0h-2.32v-2.27h2.32v2.27zm-4.63 0h-2.31v-2.27h2.31v2.27zm-4.63 0h-2.31v-2.27h2.31v2.27zm-4.62 0h-2.31v-2.27h2.31v2.27zm-4.63 0h-2.31v-2.27h2.31v2.27zm-4.63 0h-2.32v-2.27h2.32v2.27zm-4.63 0h-2.31v-2.27h2.31v2.27zm-4.62 0h-2.32v-2.27h2.32v2.27zm-4.63 0h-2.31v-2.27h2.31v2.27zm-4.63 0h-2.31v-2.27h2.31v2.27zm-4.62 0h-2.31v-2.27h2.31v2.27zm-4.63 0h-2.31v-2.27h2.31v2.27zm-4.62 0h-2.31v-2.27h2.31v2.27zm-4.63 0h-2.31v-2.27h2.31v2.27zm-4.62 0h-2.32v-2.27h2.32v2.27zm-4.63 0h-2.31v-2.27h2.31v2.27zm-4.63 0h-2.31v-2.27h2.31v2.27zm-4.62 0h-2.32v-2.27h2.32v2.27zm-4.63 0h-2.32v-2.27h2.32v2.27zm-4.62 0h-2.32v-2.27h2.32v2.27zm-4.63 0h-2.32v-2.27h2.32v2.27zm-4.63 0h-2.31v-2.27h2.31v2.27zm-4.63 0h-2.31v-2.27h2.31v2.27zm-4.62 0h-2.31v-2.27h2.31v2.27zm-4.63 0h-2.31v-2.27h2.31v2.27zm-4.62 0h-2.32v-2.27h2.32v2.27zm-4.63 0h-2.32v-2.27h2.32v2.27zm-4.62 0h-2.32v-2.27H521v2.27zm-4.63 0h-2.32v-2.27h2.32v2.27zm-4.63 0h-2.31v-2.27h2.31v2.27zm-4.63 0h-2.31v-2.27h2.31v2.27zm-4.62 0h-2.31v-2.27h2.31v2.27zm-4.63 0h-2.31v-2.27h2.31v2.27zm-4.62 0h-2.32v-2.27h2.32v2.27zm-4.63 0h-2.32v-2.27h2.32v2.27zm-4.62 0h-2.32v-2.27h2.32v2.27zm-4.63 0h-2.32v-2.27h2.32v2.27zm-4.63 0h-2.31v-2.27h2.31v2.27zm-4.63 0h-2.31v-2.27h2.31v2.27zm-4.62 0h-2.31v-2.27h2.31v2.27zm-4.63 0h-2.31v-2.27h2.31v2.27zm-4.62 0h-2.32v-2.27h2.32v2.27zm-4.63 0h-2.32v-2.27h2.32v2.27zm-4.62 0h-2.32v-2.27h2.32v2.27zm-4.63 0h-2.32v-2.27h2.32v2.27zm-4.62 0h-2.32v-2.27h2.32v2.27zm-4.64 0h-2.31v-2.27h2.31v2.27zm-4.62 0h-2.31v-2.27h2.31v2.27zm-4.63 0h-2.31v-2.27h2.31v2.27zm-4.62 0h-2.32v-2.27h2.32v2.27zm-4.63 0h-2.32v-2.27h2.32v2.27zm-4.62 0h-2.32v-2.27h2.32v2.27zm-4.63 0h-2.32v-2.27h2.32v2.27zm-4.62 0h-2.32v-2.27h2.32v2.27zm-4.64 0h-2.31v-2.27h2.31v2.27zm-4.62 0h-2.31v-2.27h2.31v2.27zm-4.63 0h-2.31v-2.27h2.31v2.27zm-4.62 0h-2.31v-2.27h2.31v2.27zm-4.63 0h-2.32v-2.27h2.32v2.27zm-4.62 0h-2.32v-2.27h2.32v2.27zm-4.63 0h-2.32v-2.27h2.32v2.27zm-4.62 0h-2.32v-2.27h2.32v2.27zm-4.63 0h-2.32v-2.27h2.32v2.27zm-4.63 0h-2.31v-2.27h2.31v2.27zm-4.63 0h-2.31v-2.27h2.31v2.27zm-4.62 0h-2.31v-2.27h2.31v2.27zm-4.63 0h-2.31v-2.27h2.31v2.27zm-4.62 0h-2.32v-2.27h2.32v2.27zm-4.63 0H329v-2.27h2.32v2.27zm-4.62 0h-2.32v-2.27h2.32v2.27zm-4.63 0h-2.32v-2.27h2.32v2.27zm-4.63 0h-2.31v-2.27h2.31v2.27zm-4.63 0h-2.31v-2.27h2.31v2.27zm-4.62 0h-2.31v-2.27h2.31v2.27zm-4.63 0h-2.31v-2.27h2.31v2.27zm-4.62 0h-2.32v-2.27h2.32v2.27zm-4.63 0H292v-2.27h2.32v2.27zm-4.62 0h-2.32v-2.27h2.32v2.27zm-4.63 0h-2.32v-2.27h2.32v2.27zm-4.63 0h-2.32v-2.27h2.32v2.27zm-4.63 0h-2.31v-2.27h2.31v2.27zm-4.62 0h-2.31v-2.27h2.31v2.27zm-4.63 0h-2.31v-2.27h2.31v2.27zm-4.62 0h-2.32v-2.27h2.32v2.27zm-4.63 0h-2.32v-2.27h2.32v2.27zm-4.62 0h-2.32v-2.27h2.32v2.27zm-4.63 0h-2.32v-2.27h2.32v2.27zm-4.63 0h-2.32v-2.27h2.32v2.27zm-4.63 0h-2.31v-2.27h2.31v2.27zm-4.62 0h-2.31v-2.27h2.31v2.27zm-4.63 0h-2.31v-2.27h2.31v2.27zm-4.62 0h-2.31v-2.27h2.31v2.27zm-4.63 0h-2.32v-2.27h2.32v2.27zm-4.62 0h-2.32v-2.27h2.32v2.27zm-4.63 0h-2.32v-2.27h2.32v2.27zm-4.63 0h-2.32v-2.27h2.32v2.27zm-4.63 0h-2.31v-2.27h2.31v2.27zm-4.62 0h-2.31v-2.27h2.31v2.27zm-4.63 0h-2.31v-2.27h2.31v2.27zm-4.62 0h-2.31v-2.27h2.31v2.27zm-4.63 0h-2.32v-2.27h2.32v2.27zm-4.62 0h-2.32v-2.27h2.32v2.27zm-4.63 0h-2.32v-2.27h2.32v2.27zm-4.63 0h-2.32v-2.27h2.32v2.27zm-4.62 0h-2.32v-2.27h2.32v2.27zm-4.63 0h-2.31v-2.27h2.31v2.27zm-4.63 0h-2.31v-2.27h2.31v2.27zm-4.62 0h-2.31v-2.27h2.31v2.27zm-4.63 0h-2.32v-2.27h2.32v2.27zm-4.62 0h-2.32v-2.27h2.32v2.27zm-4.63 0h-2.32v-2.27h2.32v2.27zm-4.63 0h-2.32v-2.27h2.32v2.27zm-4.62 0h-2.32v-2.27h2.32v2.27z"/><path d="M405.34 422.52c-18.48 0-33.52-15.04-33.52-33.52s15.04-33.53 33.52-33.53c18.48 0 33.52 15.04 33.52 33.53s-15.04 33.52-33.52 33.52zm0-64.07c-16.84 0-30.55 13.7-30.55 30.55 0 16.84 13.71 30.55 30.55 30.55s30.55-13.7 30.55-30.55-13.71-30.55-30.55-30.55zm164.23 385.7c-18.48 0-33.52-15.04-33.52-33.53s15.04-33.52 33.52-33.52 33.52 15.04 33.52 33.52-15.04 33.53-33.52 33.53zm0-64.08c-16.84 0-30.55 13.7-30.55 30.55s13.71 30.55 30.55 30.55 30.55-13.7 30.55-30.55c0-16.84-13.71-30.55-30.55-30.55z"/><path d="M343.47 869.74a2.25 2.25 0 0 1-2.26 2.25c-1.24 0-2.26-1-2.26-2.25s1.02-2.26 2.26-2.26c1.25 0 2.26 1.01 2.26 2.26" fill="#f5ee6d"/><path d="M100.56 59.84c0-.16-.24-.24-.74-.24l-1.34.15c-.07.01-.21.03-.44.08-.18.04-.33.06-.44.06-.16 0-.28-.05-.37-.14-.14-.2-.21-.41-.21-.62 0-.14.03-.29.09-.45.06-.33.68-.54 1.86-.62.3-.02.86.02 1.68.13.91.12 1.45.35 1.62.7.16.32.2.61.15.89-.04.22-.1.38-.16.48-.2.27-.42.5-.63.69-.42.36-.81.66-1.17.89-.83.54-1.99 1.14-3.46 1.81-.76.35-1.52.67-2.27.97-.34.14-.64.12-.9-.06-.4-.44-.6-.85-.6-1.26 0-.36.2-.54.6-.54.1 0 .25.02.45.05s.35.05.45.05c.17 0 .31-.02.44-.07.65-.23.97-.35.99-.35.65-.25 1.37-.6 2.17-1.03 1.2-.65 1.94-1.12 2.23-1.43-.01-.04 0-.09 0-.14zm-1.12-7.79c-.63-.05-.99-.1-1.06-.15-.29-.18-.43-.4-.43-.67 0-.37.2-.63.59-.8.47-.09.86-.11 1.15-.08.37.04.79.14 1.27.31.34.12.65.33.92.63.21.24.32.51.32.84 0 .46-.24.95-.71 1.46-.37.41-.81.75-1.3 1.03-.78.45-1.45.69-2 .74-.26.02-.48-.04-.66-.19a.748.748 0 0 1-.27-.61c0-.4.2-.63.6-.69.35-.05.67-.15.98-.3.22-.11.51-.28.87-.51.5-.32.75-.56.75-.73 0-.13-.34-.23-1.02-.28zm11.17 6.1c.29.01.55.1.76.25.45.32.75.75.92 1.28.02.19.04.3.04.32-.02.69-.27 1.29-.75 1.79-.56.44-1.29.65-2.18.61-.78-.02-1.47-.37-2.09-1.04-.43.16-.85.34-1.26.55-.02.01-.04.03-.04.07 0 .01.13.2.4.57.27.37.4.63.39.76-.02.49-.33.91-.93 1.26-.4.23-1.06.45-1.97.65-.27.06-.63.11-1.08.16-.18.02-.35-.1-.52-.36-.14-.22-.23-.43-.25-.63-.06-.47.07-.71.38-.71.13 0 .34.04.62.13.29.08.5.13.64.13.05 0 .17-.01.35-.03.02-.01.09-.03.2-.05.12-.04.26-.1.42-.16.32-.12.47-.25.47-.38 0-.04-.16-.25-.48-.63-.3-.35-.45-.6-.45-.76 0-.12.04-.24.13-.37.05-.15.25-.34.61-.59 1.38-.93 2.97-1.79 4.75-2.58.36-.17.66-.25.92-.24zm-2.05 9.32c.19 0 .35.09.48.27.14.18.2.36.2.55 0 .1-.1.26-.29.47-.2.17-.7.47-1.49.9l-2.61 1.42c-.51.28-.86.44-1.04.48-.11.05-.21.07-.32.07-.18 0-.3-.06-.35-.19-.15-.34-.22-.54-.22-.6 0-.36.21-.59.63-.69 1.56-.76 3.12-1.63 4.67-2.6.12-.04.23-.08.34-.08zm1.08 1.69c.19 0 .35.09.48.27s.2.36.2.55c0 .1-.1.26-.29.47-.2.17-.7.47-1.49.9l-2.61 1.42c-.51.28-.86.44-1.04.48-.11.05-.21.07-.32.07-.18 0-.3-.06-.35-.18-.15-.34-.22-.54-.22-.61 0-.36.21-.59.63-.69 1.56-.76 3.12-1.63 4.67-2.6.12-.05.23-.08.34-.08zm-.62-8.55c.01.06.13.13.36.21.18.05.39.07.62.07.24-.01.44-.06.61-.17.17-.11.27-.24.28-.4.01-.35-.16-.52-.49-.51-.16.01-.41.08-.75.23-.41.22-.62.41-.63.57zm10.22 7.38c.19 0 .35.09.48.26.14.18.2.36.2.55 0 .1-.1.26-.29.47-.2.17-.7.47-1.49.9l-2.61 1.42c-.51.28-.86.44-1.04.48-.11.05-.21.07-.32.07-.18 0-.3-.06-.35-.19-.15-.34-.22-.54-.22-.6 0-.36.21-.59.63-.69 1.56-.76 3.12-1.63 4.67-2.6.12-.04.23-.07.34-.07zm.75-7.65c.47.11.74.17.81.2.17.12.29.32.33.58.02.12 0 .26-.08.41-.08.15-.17.26-.28.31l-1.14.54c-.57.29-.74.5-.49.62-.01.01-.01.01-.01.02 0 .06.43.12 1.29.17.42.02.7.04.85.06.29.03.46.04.51.04.11 0 .27.02.5.07.22.08.33.32.33.73 0 .16-.04.31-.12.44-.09.16-.21.23-.36.21l-2.09-.21c-1.36-.14-2.12-.24-2.26-.31-.59-.08-.88-.36-.88-.84 0-.27.11-.47.33-.62l1.93-1.34c-1.12-.22-1.78-.4-1.96-.54-.14-.11-.21-.3-.21-.59 0-.19.05-.31.14-.38.86-.63 1.55-1.13 2.08-1.52.04-.02.08-.03.12-.03.23 0 .44.2.62.6.01.11-.05.3-.2.58-.35.31-.58.5-.69.59.42.09.73.16.93.21zm8.97 2.13c-.54.44-1.22.91-2.05 1.41-.94.56-1.55.87-1.84.92-.04.01-.08.01-.14.01-.33 0-.61-.19-.86-.56-.21-.33-.32-.65-.32-.97 0-.29.15-.45.44-.47.02 0 .06 0 .12-.01s.13-.01.2 0c-.02 0 .14.01.49.04.33.03.53.03.6 0 .42-.16.95-.43 1.61-.84.96-.59 1.71-1.17 2.25-1.75a.765.765 0 0 1-.32-.59c-.02-.31.16-.61.56-.89.36-.27.7-.4 1.03-.4.52 0 .8.25.84.76.12.04.42-.1.9-.42.14-.12.4-.32.78-.58.12-.02.22-.03.3-.03.11 0 .2.02.25.05.2.11.33.27.4.47.02.19-.02.39-.15.6s-.18.34-.18.38c.01.08.06.12.15.13.37.02.92-.35 1.67-1.14.31-.24.53-.36.67-.35.19.01.4.19.63.55.11.18.09.4-.07.67-.46.76-1.12 1.31-1.97 1.66-.42.17-.79.27-1.14.28-.67.03-1.06-.24-1.16-.81-.27.01-.75 0-1.45-.01-.18.19-.93.82-2.24 1.89zm18.22-3.99c.18-.08.3-.13.36-.16.15-.06.32.04.51.3.13.17.2.34.2.51.01.14-.11.31-.36.52-.71.6-1.72 1.27-3.04 2.01-1.85 1.04-3.06 1.57-3.62 1.6-.22.01-.42-.07-.61-.24-.19-.17-.29-.36-.29-.58 0-.12.22-.42.67-.9.33-.55.53-1.01.59-1.4l-.06-1c-.02-.47.09-.76.34-.86.22-.09.41-.12.56-.09.38.06.59.37.64.93.03.35.05.56.05.63 0 .57-.13 1.06-.4 1.46.53-.19 2.02-1.1 4.46-2.73zm.25-7.24c.19 0 .35.09.48.26.14.18.2.36.2.55s-.09.35-.28.46c-.74.47-1.57.95-2.48 1.45l-1.62.88c-.51.28-.86.44-1.04.48-.11.05-.21.07-.32.07-.18 0-.3-.06-.35-.19-.15-.34-.22-.54-.22-.6 0-.36.21-.59.63-.69 1.56-.76 3.12-1.63 4.67-2.6.11-.04.22-.07.33-.07zm-63.68 70.63c.58-.06.87-.24.87-.56 0-.24-.13-.4-.4-.48-.32-.11-.73-.21-1.21-.33-.42-.17-.62-.36-.62-.58 0-.6.29-.88.88-.82.13.01.25.02.37.02.4 0 1.04-.2 1.9-.59.09-.04.22-.07.37-.07.19 0 .35.08.48.23.13.15.2.32.2.51 0 .21-.12.38-.35.52-.2.09-.41.19-.61.29.38.33.58.78.6 1.32.01.38-.15.73-.47 1.03-.71.66-1.74.99-3.09.99-.14 0-.44-.01-.92-.03-1.98 1.64-3.36 2.69-4.13 3.15-1.25.75-2.07 1.11-2.44 1.07-.21-.04-.42-.26-.62-.66-.19-.37-.28-.67-.28-.92 0-.2.06-.36.18-.46a.86.86 0 0 1 .39-.09c.11 0 .27.02.48.05.22.03.38.05.48.05.35 0 .69-.11 1.01-.32 1.49-.96 2.55-1.69 3.19-2.19-.07-.15-.11-.27-.11-.37 0-.3.07-.55.22-.74.38-.48.84-.72 1.37-.7.66.02 1.05.26 1.16.72.47 0 .84-.02 1.1-.04zm-1.81-9.74c-.63-.05-.99-.1-1.06-.15-.29-.18-.43-.4-.43-.67 0-.37.2-.63.59-.8.47-.09.86-.11 1.15-.08.37.04.79.14 1.27.31.34.12.65.33.92.63.21.24.32.51.32.84 0 .46-.24.95-.71 1.46-.37.41-.81.75-1.3 1.03-.78.45-1.45.7-2 .74a.877.877 0 0 1-.66-.18.748.748 0 0 1-.27-.61c0-.4.2-.63.6-.69.35-.05.67-.15.98-.3.22-.11.51-.28.87-.51.5-.32.75-.56.75-.73 0-.13-.34-.23-1.02-.29zm4.66.03c-.63-.05-.99-.1-1.06-.15-.29-.18-.43-.4-.43-.67 0-.37.2-.63.59-.8.47-.09.86-.12 1.15-.08.37.04.79.14 1.27.31.34.12.65.33.92.63.21.23.32.51.32.84 0 .46-.24.95-.71 1.46-.37.41-.81.75-1.3 1.03-.78.45-1.45.7-2 .74a.842.842 0 0 1-.66-.19.748.748 0 0 1-.27-.61c0-.4.2-.63.6-.69.35-.05.67-.15.98-.3.22-.11.51-.28.87-.51.5-.32.75-.56.75-.73 0-.13-.34-.22-1.02-.28zm7.03 15.99c.19 0 .35.09.48.26.14.18.2.36.2.55 0 .1-.1.26-.29.47-.2.17-.7.47-1.49.9l-2.61 1.42c-.51.28-.86.44-1.04.48-.11.05-.21.07-.32.07-.18 0-.3-.06-.35-.19-.15-.34-.22-.54-.22-.6 0-.36.21-.59.63-.69 1.56-.76 3.12-1.63 4.67-2.6.13-.04.24-.07.34-.07zm1.77-6.62c.28-.56.42-.95.42-1.15 0-.06-.02-.08-.05-.08-.01 0-.03.01-.05.02-.39.27-.84.59-1.34.95-1 .73-1.68 1.19-2.04 1.39l-1.68.96c-.4.23-.78.4-1.14.52-.06.02-.11.03-.18.03-.2 0-.4-.11-.61-.32-.33-.35-.5-.74-.5-1.17 0-.16.04-.3.12-.42.12-.14.34-.21.66-.21.09 0 .23.01.4.01.18.01.31.01.4.01.19 0 .36-.02.5-.06.06-.03.11-.05.13-.06l.41-.22c.68-.37 1.13-.64 1.37-.79l2.56-1.72c.68-.45 1.09-.7 1.24-.74.22-.06.46-.01.74.15.4.23.6.62.6 1.16 0 .48-.14 1.08-.42 1.79-.41 1.04-.83 1.79-1.27 2.26-.08.09-.2.13-.34.13-.19 0-.39-.07-.6-.22-.23-.16-.34-.33-.34-.51 0-.19.06-.33.18-.44.26-.24.53-.66.83-1.27zm11.27-3.08c.11-.02.2-.03.25-.03.04-.01.08-.02.12-.02.17 0 .31.09.42.27.1.16.15.32.15.49 0 .22-.1.39-.29.49l-.67.26c-.23.09-.57.21-1.03.38-.24.09-.36.16-.36.2 0 .01 0 .03.01.04l-.03.06c0 .05.15.2.45.46.23.2.37.47.41.82.02.19.02.34-.02.47-.12.42-.4.78-.83 1.08-.38.27-.8.45-1.27.54-.83.16-1.53.25-2.09.27-.93.04-1.46.01-1.58-.08-.28-.12-.42-.47-.42-1.06 0-.3.09-.47.27-.49.07-.01.28.04.63.16s.6.18.75.18c.32 0 .59-.02.83-.05.61-.08.98-.15 1.12-.2.6-.14.89-.37.89-.7-.07-.12-.32-.31-.74-.57-.34-.2-.51-.47-.51-.79 0-.58.79-1.16 2.38-1.74.56-.2.94-.35 1.16-.44zm2.3-7.67c.49.09.74.33.74.73.01.42-.57.81-1.73 1.16-.56.17-.95.46-1.17.89.14.17.38.28.74.34.33.03.77.09 1.29.19.29.12.39.38.33.77-.09.51-.45.76-1.08.76-.49 0-1.1-.14-1.82-.41-.55-.2-.9-.53-1.06-.97-.75.65-1.85 1.06-3.3 1.23-.27.03-.52 0-.77-.1-.31-.12-.47-.31-.47-.56 0-.45.21-.73.64-.84.3 0 .71-.05 1.23-.16.73-.15 1.23-.39 1.53-.71-.06-.24-.35-.43-.89-.59-.13-.02-.48-.07-1.04-.13-.32-.1-.47-.29-.47-.58 0-.04.01-.11.03-.21.11-.56.48-.82 1.13-.77.37.02.74.09 1.1.19.73.2 1.3.65 1.72 1.35.42-.49.8-.83 1.16-1.03.4-.22 1.02-.41 1.86-.57.07 0 .18 0 .3.02zm8.8 191.96c.19 0 .35.09.48.26.14.18.2.36.2.55 0 .1-.1.26-.29.47-.2.17-.7.47-1.49.9l-2.61 1.42c-.51.28-.86.44-1.04.48-.11.05-.21.07-.32.07-.18 0-.3-.06-.35-.19-.15-.34-.22-.54-.22-.6 0-.36.21-.59.63-.69 1.56-.76 3.12-1.63 4.67-2.6.13-.04.23-.07.34-.07zm3.19-9.45c.19 0 .36.11.49.32.09.14.13.25.14.34.02.31-.24.64-.81.98l-3.27 1.99c-1.27.78-2.39 1.35-3.35 1.73-.27.11-.43.16-.49.16-.61.07-1-.28-1.15-1.03-.02-.09-.03-.18-.03-.26 0-.3.16-.46.47-.46.1 0 .25.01.46.04s.36.04.46.04c.28 0 .52-.06.73-.17.21-.02 1.11-.51 2.71-1.47 1.32-.79 2.26-1.39 2.84-1.8.38-.28.65-.41.8-.41zm4.91 3.64c0-.37.24-.63.73-.78.43-.14.87-.31 1.33-.52-.28-.13-.5-.25-.67-.34-.37-.22-.57-.4-.6-.53a.739.739 0 0 1 .01-.51c.07-.18.2-.28.39-.3.74-.07 1.39-.3 1.94-.7.27-.2.52-.3.74-.3.05 0 .09.01.12.03.19.12.31.27.37.46.02.06.03.21.03.46-.01 0-.03.03-.07.09-.07.12-.18.22-.32.3-.13.11-.23.19-.29.22-.22.14-.35.21-.38.23-.17.09-.25.16-.25.2.01.02.06.04.16.07.53.15.8.38.8.7 0 .06-.04.16-.11.3-.14.16-.26.26-.34.33-.4.3-.71.5-.92.61-.2.15-.3.2-.3.16.01.03.1.14.28.32.1.15.16.25.19.29.01.04.01.08.01.12 0 .26-.25.55-.76.86-3.99 2.42-6.27 3.65-6.84 3.7-.24.02-.48-.16-.73-.53-.22-.32-.34-.62-.36-.89-.04-.43.14-.64.55-.64.12 0 .25.01.39.03.05.01.26.01.64.01.2 0 .4-.03.6-.09.78-.34 1.4-.64 1.86-.89 1.11-.62 1.99-1.14 2.63-1.56-.55-.37-.83-.66-.83-.91zm5.28-10.94c.19 0 .35.09.48.26.14.18.2.36.2.55 0 .19-.09.35-.28.46-.74.47-1.57.95-2.48 1.45l-1.62.88c-.51.28-.86.44-1.04.48-.11.05-.21.07-.32.07-.18 0-.3-.06-.35-.19-.15-.34-.22-.54-.22-.6 0-.36.21-.59.63-.69 1.56-.76 3.12-1.63 4.67-2.6.12-.04.23-.07.33-.07zm9.26 10.13c.28-.56.42-.95.42-1.15 0-.06-.02-.08-.05-.08-.01 0-.03.01-.05.02-.39.27-.84.59-1.34.95-1 .73-1.68 1.19-2.04 1.39l-1.68.96c-.4.23-.78.4-1.14.52-.06.02-.11.03-.18.03-.2 0-.4-.11-.61-.32-.33-.35-.5-.74-.5-1.17 0-.16.04-.3.12-.42.12-.14.34-.21.66-.21.09 0 .23.01.4.01.18.01.31.01.4.01.19 0 .36-.02.5-.06.06-.03.11-.05.13-.06l.41-.22c.68-.37 1.13-.64 1.37-.79l2.56-1.72c.68-.45 1.09-.7 1.24-.74.22-.06.46-.01.73.15.4.23.61.62.61 1.16 0 .48-.14 1.08-.42 1.79-.41 1.04-.83 1.79-1.27 2.26-.08.09-.2.13-.34.13-.19 0-.39-.07-.6-.22-.23-.16-.34-.33-.34-.51 0-.19.06-.33.18-.44.26-.24.53-.66.83-1.27zm1.68-10.85c.72.01 1.25.36 1.6 1.04.06.21.09.45.09.73 0 .59-.15 1.09-.45 1.5-.74 1.01-1.94 1.59-3.6 1.72-.79-.03-1.35-.28-1.66-.75-.17-.37-.26-.71-.26-1.04 0-.55.26-1.1.77-1.66.98-1.06 2.15-1.57 3.51-1.54zm-2.59 3.1c.09.13.26.23.53.3h.3c.12 0 .24 0 .37-.01.73-.3 1.22-.65 1.49-1.04.03-.08.05-.16.05-.24 0-.39-.31-.56-.93-.53-.37.09-.63.19-.78.29-.34.16-.6.35-.79.55-.18.21-.27.38-.27.53-.01.05.01.1.03.15zm8.81 7.85c-.45.03-.75.05-.91.05-.41 0-.61-.23-.61-.68 0-.38.25-.63.74-.76l.9-.23c1.05-.47 1.7-.92 1.96-1.34.15-.24.38-.35.7-.35.1.02.23.08.38.19.28.19.41.44.38.74-.12.2-.24.34-.35.42-.27.2-.44.33-.52.39 1.27-.14 2.04-.23 2.3-.27.27.04.4.21.4.51 0 .25-.04.42-.13.5l-.52.33c-2 1.26-3.74 2.33-5.23 3.2-1.74 1.03-2.9 1.71-3.47 2.05-.35.2-.78.44-1.31.72-.09.05-.19.07-.29.07-.27 0-.51-.19-.72-.58-.17-.33-.26-.65-.26-.95 0-.3.13-.46.4-.46.1 0 .24.01.43.03.19.02.33.03.43.03.3 0 .58-.06.83-.17.04-.01.06-.02.07-.03h.01v.01c.01-.01.02-.01.03-.02l.74-.39c1.64-.88 3.44-1.96 5.41-3.25-.89.11-1.49.19-1.79.24zm2.68-8.83c-.47.43-.7.77-.7 1.01 0 .03.01.06.04.07-.03.06.08.09.33.1.53.03.9 0 1.11-.1.13-.02.25-.04.35-.04.64 0 .96.25.96.75 0 .46-.2.71-.61.76-.27.07-.66.1-1.18.1-1.77 0-2.66-.53-2.66-1.6 0-.15.02-.26.06-.34.2-.68.64-1.31 1.31-1.88.33-.28.55-.48.66-.59.18-.17.44-.32.77-.45.11-.04.19-.06.24-.04.53.17.79.48.79.93 0 .22-.17.43-.51.61-.49.34-.81.57-.96.71zm9.04 15.35c.19 0 .35.09.48.26.14.18.2.36.2.55 0 .1-.1.26-.29.47-.2.17-.7.47-1.49.9l-2.61 1.42c-.51.28-.86.44-1.04.48-.11.05-.21.07-.32.07-.18 0-.3-.06-.35-.19-.15-.34-.22-.54-.22-.6 0-.36.21-.59.63-.69 1.56-.76 3.12-1.63 4.67-2.6.13-.04.24-.07.34-.07zm2.12-9.85c.45 0 .87.12 1.24.37.42.27.63.63.63 1.06 0 .24-.04.47-.13.68-.22.53-.88 1.07-1.98 1.61-1.2.59-2.42.88-3.64.88-.24 0-.47-.01-.69-.04-1.18-.26-1.76-.8-1.73-1.61.02-.69.37-1.34 1.06-1.96.47-.42 1.03-.63 1.69-.63.13 0 .25.01.36.04.22.05.58.19 1.07.43.7-.56 1.41-.83 2.12-.83zm-3.43 1.65c-.1-.02-.24.01-.41.07-.59.22-.91.5-.96.84-.04.25.11.38.44.38.24 0 .48-.12.74-.35.14-.13.23-.22.25-.26.11-.11.17-.26.17-.46l-.07-.2-.16-.02zm1.8.4c-.14.12-.2.28-.2.48 0 .03.01.05.03.06.06.02.13.03.2.03.2 0 .55-.12 1.04-.35.53-.25.8-.52.8-.8 0-.09-.03-.13-.09-.14.09.01 0 .01-.29.01-.19 0-.52.14-.99.42l-.5.29zm194.68-15.21c.58-.06.87-.24.87-.56 0-.24-.13-.4-.4-.48-.32-.11-.73-.21-1.21-.33-.42-.17-.62-.36-.62-.58 0-.6.29-.88.88-.82.13.01.25.02.37.02.4 0 1.04-.2 1.9-.59.09-.04.22-.07.37-.07.19 0 .35.08.48.23.13.15.2.32.2.51 0 .21-.12.38-.35.52-.2.09-.41.19-.61.29.38.33.58.78.6 1.32.01.38-.15.73-.47 1.03-.71.66-1.74.99-3.09.99-.14 0-.44-.01-.92-.03-1.98 1.64-3.36 2.69-4.13 3.15-1.25.75-2.07 1.11-2.44 1.07-.21-.04-.42-.26-.62-.66-.19-.37-.28-.67-.28-.92 0-.2.06-.36.18-.46a.86.86 0 0 1 .39-.09c.11 0 .27.02.48.05.22.03.38.05.48.05.35 0 .69-.11 1.01-.32 1.49-.96 2.55-1.69 3.19-2.19-.07-.15-.11-.27-.11-.37 0-.3.07-.55.22-.74.38-.48.84-.72 1.37-.7.66.02 1.05.26 1.16.72.47.01.84-.01 1.1-.04zm-1.81-9.73c-.63-.05-.99-.1-1.06-.15-.29-.18-.43-.4-.43-.67 0-.37.2-.63.59-.8.47-.09.86-.11 1.15-.08.37.04.79.14 1.27.31.34.12.65.33.92.63.21.24.32.51.32.84 0 .46-.24.95-.71 1.46-.37.41-.81.75-1.3 1.03-.78.45-1.45.7-2 .74a.877.877 0 0 1-.66-.18.748.748 0 0 1-.27-.61c0-.4.2-.63.6-.69.35-.05.67-.15.98-.3.22-.11.51-.28.87-.51.5-.32.75-.56.75-.73 0-.14-.34-.23-1.02-.29zm4.66.03c-.63-.05-.99-.1-1.06-.15-.29-.18-.43-.4-.43-.67 0-.37.2-.63.59-.8.47-.09.86-.12 1.15-.08.37.04.79.14 1.27.31.34.12.65.33.92.63.21.23.32.51.32.84 0 .46-.24.95-.71 1.46-.37.41-.81.75-1.3 1.03-.78.45-1.45.7-2 .74a.842.842 0 0 1-.66-.19.748.748 0 0 1-.27-.61c0-.4.2-.63.6-.69.35-.05.67-.15.98-.3.22-.11.51-.28.87-.51.5-.32.75-.56.75-.73 0-.13-.34-.22-1.02-.28zm4.79 10.18c0-.37.24-.63.73-.78.43-.14.87-.31 1.33-.52-.28-.13-.5-.25-.67-.34-.37-.22-.57-.4-.6-.53a.739.739 0 0 1 .01-.51c.07-.18.2-.28.39-.3.74-.07 1.39-.3 1.94-.7.27-.2.52-.3.74-.3.05 0 .09.01.12.03.19.12.31.27.37.46.02.06.03.21.03.46-.01 0-.03.03-.07.09-.07.12-.18.22-.32.3-.13.11-.23.19-.29.22-.22.14-.35.21-.38.23-.17.09-.25.16-.25.2.01.02.06.04.16.07.53.15.8.38.8.7 0 .06-.04.16-.11.3-.14.16-.26.26-.34.33-.4.3-.71.5-.92.61-.2.15-.3.2-.3.16.01.03.1.14.28.32.1.15.16.25.19.29.01.04.01.08.01.12 0 .26-.25.55-.76.86-3.99 2.42-6.27 3.65-6.84 3.7-.24.02-.48-.16-.73-.53-.22-.32-.34-.62-.36-.89-.04-.43.14-.64.55-.64.12 0 .25.01.39.03.05.01.26.01.64.01.2 0 .4-.03.6-.09.78-.34 1.4-.64 1.86-.89 1.11-.62 1.99-1.14 2.63-1.56-.56-.37-.83-.67-.83-.91zm.79-9.29c-.47.43-.7.77-.7 1.02 0 .03.01.06.04.07-.03.06.08.09.33.1.53.03.9 0 1.11-.1.13-.03.25-.04.35-.04.64 0 .96.25.96.75 0 .46-.2.71-.61.76-.27.07-.66.1-1.18.1-1.77 0-2.66-.53-2.66-1.6 0-.15.02-.26.06-.34.2-.68.64-1.31 1.31-1.88.33-.28.55-.48.66-.59.18-.17.44-.32.77-.45.11-.04.19-.06.24-.04.53.17.79.48.79.93 0 .22-.17.42-.51.6-.49.35-.81.58-.96.71zm4.41-.3c-.47.43-.7.77-.7 1.01 0 .03.01.06.04.07-.03.06.08.09.33.1.53.03.9 0 1.11-.1.13-.02.25-.04.35-.04.64 0 .96.25.96.75 0 .46-.2.71-.61.76-.27.07-.66.1-1.18.1-1.77 0-2.66-.53-2.66-1.6 0-.15.02-.26.06-.34.2-.68.64-1.31 1.31-1.88.33-.28.55-.48.66-.59.18-.17.44-.32.77-.45.11-.04.19-.06.24-.04.53.17.79.48.79.93 0 .22-.17.42-.51.61-.49.34-.81.57-.96.71zm43.82-168.82c-.06-.14-.09-.3-.09-.47 0-.42.18-.69.53-.81.07-.05.17-.07.31-.07.24 0 .69.12 1.37.36l1.85-.97c.96-.5 1.47-.77 1.54-.8.08-.06.17-.09.28-.09.37 0 .58.21.65.62.01.07.02.14.02.2 0 .15-.15.32-.47.51-1.2.55-1.99.94-2.34 1.15.55.13.97.32 1.27.57.1.15.15.3.17.46.02.3-.04.53-.2.7-.23.24-.54.31-.94.21-.41-.11-.68-.18-.82-.21-.34-.09-.72-.21-1.14-.35-1.33.91-2.37 1.59-3.1 2.02-1.35.8-2.32 1.23-2.89 1.29-.19.02-.38-.08-.6-.29-.29-.29-.44-.7-.44-1.21 0-.33.21-.49.64-.49.09 0 .24.01.43.03.19.02.33.03.43.03.2 0 .37-.03.52-.07.66-.3 1.16-.56 1.51-.75.64-.37 1.26-.78 1.86-1.23-.21-.16-.32-.26-.35-.34zm5.4-11.41c.19 0 .35.09.48.26.14.18.2.36.2.55 0 .12-.1.28-.29.5-.05.09-.62.43-1.72 1.02L413.56 94c-.53.28-.87.45-1.04.48-.11.05-.21.07-.32.07-.18 0-.3-.06-.35-.19-.15-.34-.22-.54-.22-.61 0-.36.21-.59.63-.69 1.56-.76 3.12-1.63 4.67-2.6.12-.04.23-.07.33-.07zm1.11 1.96c.19 0 .35.09.48.27s.2.36.2.55c0 .1-.08.25-.25.44-.04.07-.28.24-.71.48l-3.42 1.88c-.52.28-.86.44-1.04.48-.11.05-.21.07-.32.07-.18 0-.3-.06-.35-.18-.15-.34-.22-.54-.22-.61 0-.36.21-.59.63-.69 1.56-.76 3.12-1.63 4.67-2.6.12-.05.23-.09.33-.09zm9.56 8.48c0-.16-.24-.24-.74-.24l-1.34.15c-.07.01-.21.03-.44.08-.18.04-.33.06-.44.06-.16 0-.28-.05-.37-.14-.14-.2-.21-.41-.21-.62 0-.14.03-.29.09-.45.06-.33.68-.54 1.86-.62.3-.02.86.02 1.68.13.91.12 1.45.35 1.62.7.16.32.2.61.15.89-.04.22-.1.38-.16.48-.2.27-.42.5-.63.69-.42.36-.81.66-1.17.89-.83.54-1.99 1.14-3.46 1.81-.76.35-1.52.67-2.27.97-.34.14-.64.12-.9-.06-.4-.44-.6-.85-.6-1.26 0-.36.2-.54.6-.54.1 0 .25.02.45.05.2.03.35.05.45.05.17 0 .31-.02.44-.07.64-.23.97-.35.99-.35.64-.25 1.37-.6 2.17-1.03 1.2-.65 1.94-1.12 2.23-1.43-.01-.05 0-.09 0-.14zm.3-8.61c.19 0 .35.09.48.26.14.18.2.36.2.55s-.09.35-.28.46c-.74.47-1.57.95-2.48 1.45l-1.62.88c-.51.28-.86.44-1.04.48-.11.05-.21.07-.32.07-.18 0-.3-.06-.35-.19-.15-.34-.22-.54-.22-.6 0-.36.21-.59.63-.69 1.56-.76 3.12-1.63 4.67-2.6.11-.03.22-.07.33-.07zm6.73 11.23c-.54.44-1.22.91-2.05 1.41-.94.56-1.55.87-1.84.92-.04.01-.08.01-.14.01-.33 0-.61-.19-.86-.56-.21-.33-.32-.65-.32-.97 0-.29.15-.45.44-.47.02 0 .06 0 .12-.01s.13-.01.2 0c-.02 0 .14.01.49.04.33.03.53.03.6 0 .42-.16.95-.43 1.61-.84.96-.59 1.71-1.17 2.25-1.75a.765.765 0 0 1-.32-.59c-.02-.31.16-.61.56-.89.36-.27.7-.4 1.03-.4.52 0 .8.25.84.76.12.04.42-.1.9-.42.14-.12.4-.32.78-.58.12-.02.22-.03.3-.03.11 0 .2.02.25.05.2.11.33.27.4.47.02.19-.02.39-.15.6-.12.21-.18.34-.18.38.01.08.06.12.15.13.37.02.92-.35 1.67-1.14.31-.24.53-.36.67-.35.19.01.4.19.63.55.11.18.09.4-.07.67-.46.76-1.12 1.31-1.97 1.66-.42.17-.79.27-1.14.28-.67.03-1.06-.24-1.16-.81-.27.01-.75 0-1.45-.01-.18.2-.93.83-2.24 1.89zm.3-10.49c-.63-.05-.99-.1-1.06-.15-.29-.18-.43-.4-.43-.67 0-.37.2-.63.59-.8.47-.09.86-.11 1.15-.08.37.04.79.14 1.27.31.34.12.65.33.92.63.21.24.32.51.32.84 0 .46-.24.95-.71 1.46-.37.41-.81.75-1.3 1.03-.78.45-1.45.69-2 .74-.26.02-.48-.04-.66-.19a.748.748 0 0 1-.27-.61c0-.4.2-.63.6-.69.35-.05.67-.15.98-.3.22-.11.51-.28.87-.51.5-.32.75-.56.75-.73 0-.13-.34-.23-1.02-.28zm4.66.03c-.63-.05-.99-.1-1.06-.15-.29-.18-.43-.4-.43-.67 0-.37.2-.63.59-.8.47-.09.86-.12 1.15-.08.37.04.79.14 1.27.31.34.12.65.33.92.63.21.23.32.51.32.84 0 .46-.24.95-.71 1.46-.37.41-.81.75-1.3 1.03-.78.45-1.45.7-2 .74a.842.842 0 0 1-.66-.19.748.748 0 0 1-.27-.61c0-.4.2-.63.6-.69.35-.05.67-.15.98-.3.22-.11.51-.28.87-.51.5-.32.75-.56.75-.73.01-.13-.34-.23-1.02-.28zm114.54 282.08c.58-.06.87-.24.87-.56 0-.24-.13-.4-.4-.48-.32-.11-.73-.21-1.21-.33-.42-.17-.62-.36-.62-.58 0-.6.29-.88.88-.82.13.01.25.02.37.02.4 0 1.04-.2 1.9-.59.09-.04.22-.06.37-.06.19 0 .35.08.48.23.13.15.2.32.2.51 0 .21-.12.39-.35.52-.2.09-.41.19-.61.29.38.33.58.78.6 1.32.01.38-.15.73-.47 1.03-.71.66-1.74.99-3.09.99-.14 0-.44-.01-.92-.03-1.98 1.64-3.36 2.69-4.13 3.15-1.25.75-2.07 1.11-2.44 1.07-.21-.04-.42-.26-.62-.66-.19-.37-.28-.67-.28-.92 0-.2.06-.36.18-.46a.86.86 0 0 1 .39-.09c.11 0 .27.02.48.05.22.03.38.05.48.05.35 0 .69-.11 1.01-.32 1.49-.96 2.55-1.69 3.19-2.19-.07-.15-.11-.27-.11-.37 0-.3.07-.55.22-.74.38-.48.84-.72 1.37-.7.66.03 1.05.26 1.16.72.47 0 .84-.02 1.1-.05zm-1.81-9.73c-.63-.05-.99-.1-1.06-.15-.29-.18-.43-.4-.43-.67 0-.37.2-.63.59-.8.47-.09.86-.11 1.15-.08.37.04.79.14 1.27.31.34.12.65.33.92.63.21.24.32.51.32.84 0 .46-.24.95-.71 1.46-.37.41-.81.75-1.3 1.03-.78.45-1.45.69-2 .74-.26.02-.48-.04-.66-.19a.748.748 0 0 1-.27-.61c0-.4.2-.63.6-.69.35-.05.67-.15.98-.3.22-.11.51-.28.87-.51.5-.32.75-.56.75-.73 0-.13-.34-.22-1.02-.28zm4.66.03c-.63-.05-.99-.1-1.06-.15-.29-.18-.43-.4-.43-.67 0-.37.2-.63.59-.8.47-.09.86-.12 1.15-.08.37.04.79.14 1.27.31.34.12.65.33.92.63.21.23.32.51.32.84 0 .46-.24.95-.71 1.46-.37.41-.81.75-1.3 1.03-.78.45-1.45.7-2 .74a.842.842 0 0 1-.66-.19.748.748 0 0 1-.27-.61c0-.4.2-.63.6-.69.35-.05.67-.15.98-.3.22-.11.51-.28.87-.51.5-.32.75-.56.75-.73 0-.13-.34-.23-1.02-.28zm7.03 15.98c.19 0 .35.09.48.26.14.18.2.36.2.55 0 .1-.1.26-.29.47-.2.17-.7.47-1.49.9l-2.61 1.42c-.51.28-.86.44-1.04.48-.11.05-.21.07-.32.07-.18 0-.3-.06-.35-.19-.15-.34-.22-.54-.22-.6 0-.36.21-.59.63-.69 1.56-.76 3.12-1.63 4.67-2.6.13-.03.24-.07.34-.07zm1.77-6.61c.28-.56.42-.95.42-1.15 0-.06-.02-.08-.05-.08-.01 0-.03.01-.05.02-.39.27-.84.59-1.34.95-1 .73-1.68 1.19-2.04 1.39l-1.68.96c-.4.23-.78.4-1.14.52-.06.02-.11.03-.18.03-.2 0-.4-.11-.61-.33-.33-.35-.5-.74-.5-1.17 0-.16.04-.3.12-.42.12-.14.34-.21.66-.21.09 0 .23.01.4.01.18.01.31.01.4.01.19 0 .36-.02.5-.06.06-.03.11-.05.13-.06l.41-.22c.68-.37 1.13-.64 1.37-.79l2.56-1.72c.68-.45 1.09-.7 1.24-.74.22-.06.46-.01.74.15.4.24.6.62.6 1.16 0 .48-.14 1.08-.42 1.79-.41 1.04-.83 1.79-1.27 2.26-.08.09-.2.13-.34.13-.19 0-.39-.07-.6-.22-.23-.16-.34-.33-.34-.51 0-.19.06-.33.18-.44.26-.24.53-.65.83-1.26zm11.69-2.9c.18-.08.3-.13.36-.16.15-.06.32.04.51.3.13.17.2.34.2.51.01.14-.11.31-.36.52-.71.6-1.72 1.27-3.04 2.01-1.85 1.04-3.05 1.57-3.62 1.6-.22.01-.42-.07-.61-.24-.19-.17-.29-.36-.29-.58 0-.12.22-.42.67-.9.34-.55.53-1.01.59-1.4l-.06-1c-.03-.47.09-.76.34-.86.22-.09.41-.12.56-.09.38.06.59.37.64.93.03.35.05.56.05.63 0 .57-.13 1.06-.4 1.46.54-.18 2.02-1.09 4.46-2.73zm.25-7.24c.19 0 .35.09.48.26.14.18.2.36.2.55 0 .19-.09.35-.28.46-.74.47-1.57.95-2.48 1.45l-1.62.88c-.52.28-.86.44-1.04.48-.11.05-.21.07-.32.07-.18 0-.3-.06-.35-.19-.15-.34-.22-.54-.22-.6 0-.36.21-.59.63-.69 1.56-.76 3.12-1.63 4.67-2.6.12-.03.23-.07.33-.07zm5 10.95c0-.37.24-.63.73-.78.43-.14.87-.31 1.33-.52-.28-.13-.5-.25-.67-.35-.37-.22-.57-.4-.6-.53a.739.739 0 0 1 .01-.51c.07-.18.2-.28.39-.3.74-.07 1.39-.3 1.94-.7.27-.2.52-.3.74-.3.05 0 .09.01.12.03.19.12.31.27.37.46.02.06.03.21.03.46-.01 0-.03.03-.07.09-.07.12-.18.22-.32.3-.13.11-.23.19-.29.22-.22.14-.35.21-.38.23-.17.09-.25.16-.25.21.01.02.06.04.16.06.53.15.8.38.8.7 0 .06-.04.16-.11.3-.14.16-.26.26-.34.33-.4.3-.71.5-.92.61-.2.15-.3.2-.3.16.01.03.1.14.28.32.1.15.16.25.19.29.01.04.01.08.01.12 0 .26-.25.55-.76.86-3.99 2.42-6.27 3.65-6.84 3.7-.24.02-.48-.16-.73-.53-.22-.32-.34-.62-.36-.89-.04-.43.14-.64.55-.64.12 0 .25.01.39.03.05.01.26.01.64.01.2 0 .4-.03.6-.09.78-.34 1.4-.64 1.86-.89 1.11-.62 1.99-1.14 2.63-1.56-.55-.37-.83-.66-.83-.9zm2.99-7.77c.16 0 .29.1.37.31.07.17.11.34.09.51-.02.24-.24.47-.65.69-.33.17-.7.26-1.12.26-.66 0-1.18-.18-1.54-.54-.3-.37-.44-.82-.42-1.33.02-.47.14-.92.37-1.36.58-1.09 1.59-2.16 3.04-3.19 1.64-1.17 3.12-1.76 4.44-1.76.58 0 1.05.17 1.42.51.37.34.55.8.55 1.37 0 1.35-1.09 2.61-3.27 3.78-.28.15-.66.33-1.14.54-.14.06-.29.09-.46.09-.37 0-.55-.23-.55-.68 0-.32.16-.53.48-.62.72-.37 1.5-.8 2.33-1.29.23-.14.47-.37.74-.69.3-.38.46-.71.46-.99 0-.44-.26-.65-.77-.65-1.21.18-2.47.75-3.77 1.71-1.36 1-2.19 2.01-2.5 3.01-.02.06-.03.13-.03.2 0 .33.23.49.7.49.3 0 .66-.11 1.07-.33.06-.03.11-.04.16-.04zm160.25-54.77c.28-.56.42-.95.42-1.15 0-.06-.02-.08-.05-.08-.01 0-.03.01-.05.02-.39.27-.84.59-1.34.95-1 .73-1.68 1.19-2.04 1.39l-1.68.96c-.4.23-.78.4-1.14.52-.06.02-.11.03-.18.03-.2 0-.4-.11-.61-.33-.33-.35-.5-.74-.5-1.17 0-.16.04-.3.12-.42.12-.14.34-.21.66-.21.09 0 .23.01.4.01.18.01.31.01.4.01.19 0 .36-.02.5-.06.06-.03.11-.05.13-.06l.41-.22c.68-.37 1.13-.64 1.37-.79l2.56-1.72c.68-.45 1.09-.7 1.24-.74.22-.06.46-.01.74.15.4.24.6.62.6 1.16 0 .48-.14 1.08-.42 1.79-.41 1.04-.83 1.79-1.27 2.26-.08.09-.2.13-.34.13-.19 0-.39-.07-.6-.22-.23-.16-.34-.33-.34-.51 0-.19.06-.33.18-.44.26-.24.53-.65.83-1.26zm1.68-10.86c.72.01 1.25.36 1.6 1.04.06.21.09.45.09.73 0 .59-.15 1.09-.45 1.5-.74 1.01-1.94 1.59-3.6 1.72-.79-.03-1.35-.28-1.66-.75-.17-.37-.26-.71-.26-1.04 0-.55.26-1.1.77-1.66.98-1.05 2.15-1.56 3.51-1.54zm-2.59 3.11c.09.13.26.23.53.3h.3c.12 0 .24 0 .37-.01.73-.3 1.22-.64 1.49-1.04.03-.08.05-.16.05-.24 0-.39-.31-.56-.93-.53-.37.09-.63.19-.78.29-.34.16-.6.34-.79.55-.18.21-.27.38-.27.53-.01.05.01.1.03.15zm7.88 6.98c.02-.32.22-.73.6-1.21.65-.84 1.62-1.26 2.91-1.26.3 0 .65.07 1.05.21.78.28 1.14.69 1.08 1.25-.06.48-.47 1.05-1.23 1.72-.58.5-1.18.96-1.81 1.37-2.58 1.68-4.33 2.61-5.25 2.79-.03.01-.07.01-.12.01-.24 0-.44-.17-.6-.49-.15-.22-.24-.46-.26-.74-.03-.37.12-.55.45-.55.11 0 .24.02.39.05.45.09.88.03 1.28-.19 1.02-.55 1.94-1.08 2.74-1.57-.87-.25-1.28-.72-1.23-1.39zm4.97-9.36c.19 0 .35.09.48.26.14.18.2.36.2.55 0 .19-.09.35-.28.46-.74.47-1.57.95-2.48 1.45l-1.62.88c-.51.28-.86.44-1.04.48-.11.05-.21.07-.32.07-.18 0-.3-.06-.35-.19-.15-.34-.22-.54-.22-.6 0-.36.21-.59.63-.69 1.56-.76 3.12-1.63 4.67-2.6.12-.04.23-.07.33-.07zm-1.75 8.24c-.38.05-.65.12-.8.21-.48.28-.71.54-.67.79 0 .12.08.24.24.33.19.06.45.04.78-.06.62-.18.93-.5.93-.93 0-.22-.16-.34-.48-.34zm7.15 2.7c0-.37.24-.63.73-.78.43-.14.87-.31 1.33-.52-.28-.13-.5-.25-.67-.35-.37-.22-.57-.4-.6-.53a.739.739 0 0 1 .01-.51c.07-.18.2-.28.39-.3.74-.07 1.39-.3 1.94-.7.27-.2.52-.3.74-.3.05 0 .09.01.12.03.19.12.31.27.37.46.02.06.03.21.03.46-.01 0-.03.03-.07.09-.07.12-.18.22-.32.3-.13.11-.23.19-.29.22-.22.14-.35.21-.38.23-.17.09-.25.16-.25.21.01.02.06.04.16.06.53.15.8.38.8.7 0 .06-.04.16-.11.3-.14.16-.26.26-.34.33-.4.3-.71.5-.92.61-.2.15-.3.2-.3.16.01.03.1.14.28.32.1.15.16.25.19.29.01.04.01.08.01.12 0 .26-.25.55-.76.86-3.99 2.42-6.27 3.65-6.84 3.7-.24.02-.48-.16-.73-.53-.22-.32-.34-.62-.36-.89-.04-.43.14-.64.55-.64.12 0 .25.01.39.03.05.01.26.01.64.01.2 0 .4-.03.6-.09.78-.34 1.4-.64 1.86-.89 1.11-.62 1.99-1.14 2.63-1.56-.55-.36-.83-.66-.83-.9zm2.12 5.3c.19 0 .35.09.48.27.14.18.2.36.2.55 0 .1-.1.26-.29.47-.2.17-.7.47-1.49.9l-2.61 1.42c-.51.28-.86.44-1.04.48-.11.05-.21.07-.32.07-.18 0-.3-.06-.35-.19-.15-.34-.22-.54-.22-.6 0-.36.21-.59.63-.69 1.56-.76 3.12-1.63 4.67-2.6.12-.05.23-.08.34-.08zm1.08 1.68c.19 0 .35.09.48.27s.2.36.2.55c0 .1-.1.26-.29.47-.2.17-.7.47-1.49.9l-2.61 1.42c-.51.28-.86.44-1.04.48-.11.05-.21.07-.32.07-.18 0-.3-.06-.35-.18-.15-.34-.22-.54-.22-.61 0-.36.21-.59.63-.69 1.56-.76 3.12-1.63 4.67-2.6.12-.05.23-.08.34-.08z"/><path d="M806.44 454.17c.97-.09 1.45-.4 1.45-.92 0-.39-.22-.66-.66-.8-.53-.17-1.2-.35-2-.54-.69-.28-1.03-.6-1.03-.95 0-1 .49-1.45 1.46-1.36.22.02.42.03.62.03.67 0 1.71-.32 3.14-.97.15-.07.36-.11.62-.11.31 0 .57.13.79.38s.33.53.33.84c0 .35-.2.64-.59.86-.34.15-.68.31-1.02.48.63.55.95 1.28.99 2.19.02.64-.24 1.21-.79 1.71-1.18 1.09-2.89 1.63-5.11 1.63-.23 0-.73-.02-1.52-.05-3.28 2.71-5.55 4.45-6.84 5.22-2.07 1.24-3.42 1.83-4.04 1.77-.35-.07-.69-.44-1.03-1.09-.31-.61-.46-1.11-.46-1.52 0-.34.1-.59.29-.75.2-.1.41-.15.65-.15.17 0 .44.03.8.08.36.06.63.08.8.08.58 0 1.13-.17 1.68-.52 2.46-1.59 4.23-2.8 5.28-3.62-.12-.25-.18-.45-.18-.62 0-.5.12-.91.37-1.22.64-.8 1.39-1.19 2.26-1.16 1.09.04 1.73.44 1.93 1.19.78-.04 1.38-.07 1.81-.11zm-3-16.11c-1.05-.08-1.63-.16-1.76-.25-.47-.3-.71-.67-.71-1.11 0-.61.32-1.05.97-1.32.78-.14 1.42-.19 1.91-.14.61.06 1.31.23 2.11.51.56.2 1.07.54 1.52 1.05.35.39.52.85.52 1.39 0 .76-.39 1.57-1.17 2.42a8.41 8.41 0 0 1-2.16 1.71c-1.29.74-2.4 1.15-3.31 1.23-.43.04-.8-.06-1.09-.31s-.45-.59-.45-1.02c0-.67.33-1.05.99-1.14.58-.08 1.11-.25 1.62-.49.36-.17.84-.46 1.45-.85.83-.53 1.25-.93 1.25-1.2.01-.23-.56-.39-1.69-.48zm7.72.04c-1.05-.08-1.63-.16-1.76-.25-.47-.3-.71-.67-.71-1.11 0-.61.32-1.05.97-1.32.78-.14 1.42-.19 1.91-.14.61.06 1.31.23 2.11.51.56.2 1.07.54 1.52 1.05.35.39.52.85.52 1.39 0 .76-.39 1.57-1.17 2.42a8.41 8.41 0 0 1-2.16 1.71c-1.29.74-2.4 1.15-3.31 1.23-.43.04-.8-.06-1.09-.31s-.45-.59-.45-1.02c0-.67.33-1.05.99-1.14.58-.08 1.11-.25 1.62-.49.36-.17.84-.46 1.45-.85.83-.53 1.25-.93 1.25-1.2 0-.23-.56-.39-1.69-.48zm9.8 17.33c-.89.73-2.02 1.5-3.39 2.33-1.55.93-2.57 1.44-3.05 1.52-.06.01-.14.02-.23.02-.54 0-1.02-.31-1.42-.92-.35-.54-.52-1.08-.52-1.6 0-.48.24-.74.72-.79.03 0 .1-.01.2-.02s.22-.01.34 0c-.04 0 .23.02.82.06.55.04.88.04.99 0 .69-.26 1.58-.72 2.66-1.39 1.58-.98 2.82-1.94 3.73-2.9-.32-.23-.49-.55-.52-.97-.04-.51.27-1.01.92-1.48.6-.44 1.17-.66 1.71-.66.86 0 1.32.42 1.39 1.26.2.07.69-.16 1.49-.69.24-.21.67-.52 1.29-.95.2-.03.36-.05.49-.05.18 0 .32.03.42.08.33.18.55.45.66.79.04.31-.04.64-.25.99s-.3.56-.29.62c.01.13.09.21.25.22.61.04 1.52-.59 2.76-1.88.51-.4.88-.6 1.11-.59.32.01.67.31 1.05.91.18.3.14.67-.12 1.11-.76 1.25-1.85 2.17-3.27 2.76-.69.29-1.31.44-1.88.46-1.11.05-1.75-.4-1.93-1.34-.44.01-1.24.01-2.4-.02-.32.31-1.57 1.35-3.73 3.12zm7.51-19.79c1.19.02 2.07.6 2.65 1.72.1.35.15.75.15 1.2 0 .98-.25 1.8-.74 2.48-1.22 1.67-3.21 2.62-5.96 2.85-1.31-.05-2.23-.47-2.74-1.25-.29-.61-.43-1.18-.43-1.72 0-.91.43-1.83 1.28-2.74 1.62-1.74 3.55-2.58 5.79-2.54zm-4.28 5.14c.14.22.44.38.88.49h.49c.2 0 .4-.01.62-.02 1.2-.49 2.02-1.07 2.46-1.72.05-.13.08-.27.08-.4 0-.64-.51-.93-1.54-.88-.62.15-1.05.31-1.29.48-.56.27-1 .57-1.3.91-.3.34-.45.63-.45.88-.01.09.01.18.05.26zm17.84 12.98c-.74.05-1.24.08-1.51.08-.68 0-1.02-.37-1.02-1.12 0-.63.41-1.05 1.23-1.26l1.49-.39c1.74-.78 2.82-1.52 3.25-2.22.25-.39.63-.59 1.16-.59.16.03.37.13.63.31.46.32.67.72.63 1.22-.21.33-.4.56-.59.69-.44.33-.73.54-.86.65 2.1-.24 3.37-.39 3.8-.45.44.06.66.34.66.85 0 .41-.07.69-.22.83l-.86.55c-3.31 2.08-6.19 3.85-8.66 5.3-2.89 1.7-4.8 2.83-5.74 3.39-.57.33-1.3.72-2.17 1.19-.15.08-.31.12-.48.12-.45 0-.85-.32-1.19-.95-.29-.54-.43-1.07-.43-1.57s.22-.75.66-.75c.16 0 .4.02.72.05.31.04.55.05.72.05.5 0 .96-.09 1.37-.28.06-.02.1-.04.12-.05h.02v.02c.01-.01.03-.02.05-.03l1.22-.65c2.71-1.45 5.69-3.24 8.95-5.38-1.47.18-2.45.31-2.95.39zm6.69-16.92c.31 0 .58.15.8.44s.34.6.34.92-.15.58-.46.77c-1.22.77-2.59 1.57-4.11 2.4l-2.68 1.46c-.85.46-1.43.73-1.72.8-.17.08-.35.12-.52.12-.3 0-.49-.1-.59-.31-.25-.56-.37-.9-.37-1 0-.6.35-.98 1.05-1.14 2.59-1.26 5.16-2.7 7.73-4.3.18-.11.36-.16.53-.16zm12.7 27.72c.31 0 .58.15.8.44s.34.6.34.92c0 .16-.16.43-.48.79-.34.28-1.16.78-2.46 1.49l-4.31 2.36c-.84.46-1.42.73-1.72.8-.17.08-.35.12-.52.12-.3 0-.49-.1-.59-.31-.25-.56-.37-.9-.37-1 0-.6.35-.98 1.05-1.14 2.59-1.26 5.16-2.7 7.73-4.3.17-.11.35-.17.53-.17zm4.54-13.48c0-.27-.41-.4-1.22-.4l-2.22.25c-.11.01-.35.06-.72.14-.3.06-.54.09-.72.09-.26 0-.46-.08-.62-.23-.24-.33-.35-.67-.35-1.03 0-.24.05-.48.15-.74.1-.55 1.13-.9 3.08-1.03.49-.03 1.42.04 2.79.22 1.5.2 2.39.58 2.68 1.16.26.52.34 1.02.25 1.48-.07.36-.16.63-.26.8-.34.45-.69.83-1.05 1.14-.69.6-1.33 1.09-1.94 1.48-1.38.89-3.29 1.89-5.73 3-1.26.57-2.52 1.11-3.76 1.6-.56.23-1.06.19-1.49-.11-.67-.72-1-1.41-1-2.08 0-.6.33-.89.99-.89.16 0 .41.03.74.08s.58.08.74.08c.28 0 .52-.04.72-.11 1.07-.38 1.61-.58 1.63-.59 1.07-.42 2.26-.99 3.59-1.71 1.98-1.07 3.21-1.86 3.7-2.37.01-.07.02-.14.02-.23z" fill="#bd0e72"/><path d="M637.79 478.4c.58-.06.87-.24.87-.56 0-.24-.13-.4-.4-.48-.32-.11-.73-.21-1.21-.33-.42-.17-.62-.36-.62-.58 0-.6.29-.88.88-.82.13.01.25.02.37.02.4 0 1.04-.2 1.9-.59.09-.04.22-.06.37-.06.19 0 .35.08.48.23.13.15.2.32.2.51 0 .21-.12.39-.35.52-.2.09-.41.19-.61.29.38.33.58.78.6 1.32.01.38-.15.73-.47 1.03-.71.66-1.74.99-3.09.99-.14 0-.44-.01-.92-.03-1.98 1.64-3.36 2.69-4.13 3.15-1.25.75-2.07 1.11-2.44 1.07-.21-.04-.42-.26-.62-.66-.19-.37-.28-.67-.28-.92 0-.2.06-.36.18-.46a.86.86 0 0 1 .39-.09c.11 0 .27.02.48.05.22.03.38.05.48.05.35 0 .69-.11 1.01-.32 1.49-.96 2.55-1.69 3.19-2.19-.07-.15-.11-.27-.11-.37 0-.3.07-.55.22-.74.38-.48.84-.72 1.37-.7.66.03 1.05.26 1.16.72.47 0 .84-.03 1.1-.05zm-1.82-9.73c-.63-.05-.99-.1-1.06-.15-.29-.18-.43-.4-.43-.67 0-.37.2-.63.59-.8.47-.09.86-.11 1.15-.08.37.04.79.14 1.27.31.34.12.65.33.92.63.21.24.32.51.32.84 0 .46-.24.95-.71 1.46-.37.41-.81.75-1.3 1.03-.78.45-1.45.69-2 .74-.26.02-.48-.04-.66-.19a.748.748 0 0 1-.27-.61c0-.4.2-.63.6-.69.35-.05.67-.15.98-.3.22-.11.51-.28.87-.51.5-.32.75-.56.75-.73.01-.13-.34-.23-1.02-.28zm4.66.02c-.63-.05-.99-.1-1.06-.15-.29-.18-.43-.4-.43-.67 0-.37.2-.63.59-.8.47-.09.86-.12 1.15-.08.37.04.79.14 1.27.31.34.12.65.33.92.63.21.23.32.51.32.84 0 .46-.24.95-.71 1.46-.37.41-.81.75-1.3 1.03-.78.45-1.45.7-2 .74a.842.842 0 0 1-.66-.19.748.748 0 0 1-.27-.61c0-.4.2-.63.6-.69.35-.05.67-.15.98-.3.22-.11.51-.28.87-.51.5-.32.75-.56.75-.73.01-.12-.33-.22-1.02-.28zm5.5 8.82c-.06-.14-.09-.3-.09-.47 0-.42.18-.69.53-.81.07-.05.17-.07.31-.07.24 0 .69.12 1.37.36l1.85-.97c.96-.5 1.47-.77 1.54-.8.08-.06.17-.09.28-.09.37 0 .58.21.65.62.01.07.02.14.02.2 0 .15-.15.32-.47.51-1.2.55-1.99.94-2.34 1.15.55.13.97.32 1.27.57.1.15.15.3.17.46.02.3-.04.53-.2.7-.23.24-.54.31-.94.21-.41-.11-.68-.18-.82-.21-.34-.09-.72-.21-1.14-.35-1.33.91-2.37 1.59-3.1 2.02-1.35.8-2.32 1.23-2.89 1.29-.19.02-.38-.08-.6-.29-.29-.29-.44-.7-.44-1.21 0-.33.21-.49.64-.49.09 0 .24.01.43.03.19.02.33.03.43.03.2 0 .37-.03.52-.07.66-.3 1.16-.56 1.51-.75.64-.37 1.26-.78 1.86-1.23-.21-.16-.32-.26-.35-.34zm3.17-8.77c-.63-.05-.99-.1-1.06-.15-.29-.18-.43-.4-.43-.67 0-.37.2-.63.59-.8.47-.09.86-.11 1.15-.08.37.04.79.14 1.27.31.34.12.65.33.92.63.21.24.32.51.32.84 0 .46-.24.95-.71 1.46-.37.41-.81.75-1.3 1.03-.78.45-1.45.69-2 .74-.26.02-.48-.04-.66-.19a.748.748 0 0 1-.27-.61c0-.4.2-.63.6-.69.35-.05.67-.15.98-.3.22-.11.51-.28.87-.51.5-.32.75-.56.75-.73 0-.13-.34-.22-1.02-.28zm9.06 10.42c-.54.44-1.22.91-2.05 1.41-.94.56-1.55.87-1.84.92-.04.01-.08.01-.14.01-.33 0-.61-.19-.86-.56-.21-.33-.32-.65-.32-.97 0-.29.15-.45.44-.47.02 0 .06 0 .12-.01a.67.67 0 0 1 .2 0c-.03 0 .14.01.49.04.33.03.53.03.6 0 .42-.16.95-.43 1.61-.84.96-.59 1.71-1.17 2.25-1.75a.765.765 0 0 1-.32-.59c-.03-.31.16-.61.56-.89.36-.27.7-.4 1.03-.4.52 0 .8.25.84.76.12.04.42-.1.9-.42.14-.12.4-.32.78-.58.12-.02.22-.03.3-.03.11 0 .2.02.25.05.2.11.33.27.4.47.03.19-.03.39-.15.6-.12.21-.18.34-.18.38.01.08.06.12.15.13.37.02.92-.35 1.67-1.14.31-.24.53-.36.67-.35.19.01.4.19.63.55.11.18.09.4-.07.67-.46.76-1.12 1.31-1.97 1.66-.42.17-.79.27-1.14.28-.67.03-1.06-.24-1.16-.81-.27.01-.75 0-1.45-.01-.18.2-.93.83-2.24 1.89zm4.14-11.23c.19 0 .35.09.48.26.14.18.2.36.2.55 0 .19-.09.35-.28.46-.74.47-1.57.95-2.48 1.45l-1.62.88c-.51.28-.86.44-1.04.48-.11.05-.21.07-.32.07-.18 0-.3-.06-.35-.19-.15-.34-.22-.54-.22-.6 0-.36.21-.59.63-.69 1.56-.76 3.12-1.63 4.67-2.6.12-.04.23-.07.33-.07zm-341.83 94.9c.55-.02.98-.16 1.3-.44.19-.25.42-.38.69-.38.19 0 .37.08.53.24.16.16.24.34.24.53 0 .14-.04.28-.11.42a2.4 2.4 0 0 1-1.3.88c-.36.1-.9.15-1.61.15-.24 0-.55-.02-.95-.07-.45.45-1.23 1.09-2.34 1.92-.88.66-1.96 1.26-3.23 1.8-.24.06-.42.08-.52.06-.28-.06-.55-.37-.82-.94-.04-.09-.07-.23-.07-.4-.01-.18.02-.29.09-.33.14-.08.36-.12.66-.11.5.01.83-.01.99-.07.59-.22 1.24-.56 1.96-1.02.72-.46 1.3-.91 1.74-1.35a.615.615 0 0 1-.26-.53c0-.38.23-.69.68-.9.26-.12.49-.17.7-.14.17.06.3.12.37.17.17.11.29.27.35.47.42.03.73.05.91.04zm-2.42 8.48c.19 0 .35.09.48.26.14.18.2.36.2.55 0 .1-.1.26-.29.47-.2.17-.7.47-1.49.9l-2.61 1.42c-.51.28-.86.44-1.04.48-.11.05-.21.07-.32.07-.18 0-.3-.06-.35-.19-.15-.34-.22-.54-.22-.6 0-.36.21-.59.63-.69 1.56-.76 3.12-1.63 4.67-2.6.13-.04.24-.07.34-.07zm9.02-7.18c-.06-.14-.09-.3-.09-.47 0-.42.18-.69.53-.81.07-.05.17-.07.31-.07.24 0 .69.12 1.37.36l1.85-.97c.96-.5 1.47-.77 1.54-.8.08-.06.17-.09.28-.09.37 0 .58.21.65.62.01.07.02.14.02.2 0 .15-.15.32-.47.51-1.2.55-1.99.94-2.34 1.15.55.13.97.32 1.27.57.1.15.15.3.17.46.02.3-.04.53-.2.7-.23.24-.54.31-.94.21-.41-.11-.68-.18-.82-.21-.34-.09-.72-.21-1.14-.35a67.3 67.3 0 0 1-3.1 2.02c-1.35.8-2.32 1.23-2.89 1.29-.19.02-.38-.08-.6-.29-.29-.29-.44-.7-.44-1.21 0-.33.21-.49.64-.49.09 0 .24.01.43.03.19.02.33.03.43.03.2 0 .37-.02.52-.07.66-.3 1.16-.55 1.51-.75.64-.37 1.26-.78 1.86-1.23-.21-.15-.32-.26-.35-.34zm6.21-10.19c.49.09.74.33.74.73.01.42-.57.81-1.73 1.16-.56.17-.95.46-1.17.89.14.17.38.28.74.34.33.03.77.09 1.29.19.29.12.39.38.33.77-.09.51-.45.76-1.08.76-.49 0-1.1-.14-1.82-.41-.55-.2-.9-.53-1.06-.97-.75.65-1.85 1.05-3.3 1.23-.27.03-.52 0-.77-.1-.31-.12-.47-.31-.47-.56 0-.45.21-.73.64-.84.3 0 .71-.05 1.23-.16.73-.15 1.23-.39 1.53-.71-.06-.24-.35-.43-.89-.59-.13-.02-.48-.07-1.04-.13-.32-.1-.47-.29-.47-.58 0-.04.01-.11.03-.21.11-.56.48-.82 1.13-.77.37.02.74.09 1.1.19.73.2 1.3.65 1.72 1.35.42-.49.8-.83 1.16-1.03.4-.22 1.02-.41 1.86-.57.07 0 .17 0 .3.02zm9.86 9.23c0-.16-.24-.24-.74-.24l-1.34.15c-.07.01-.21.03-.44.08-.18.04-.33.06-.44.06-.16 0-.28-.05-.37-.14-.14-.2-.21-.41-.21-.62 0-.14.03-.29.09-.45.06-.33.68-.54 1.86-.62.3-.02.86.02 1.68.13.91.12 1.45.35 1.62.7.16.32.2.61.15.89-.04.22-.1.38-.16.48-.2.27-.42.5-.63.69-.42.36-.81.66-1.17.89-.83.54-1.99 1.14-3.46 1.81-.76.35-1.52.67-2.27.97-.34.14-.64.11-.9-.07-.4-.44-.6-.85-.6-1.26 0-.36.2-.54.6-.54.1 0 .25.02.45.05.2.03.35.05.45.05.17 0 .31-.02.44-.07.64-.23.97-.35.99-.35.64-.25 1.37-.6 2.17-1.03 1.2-.65 1.94-1.12 2.23-1.43v-.13zm.3-8.61c.19 0 .35.09.48.26.14.18.2.36.2.55s-.09.35-.28.46c-.74.47-1.57.95-2.48 1.45l-1.62.88c-.51.28-.86.44-1.04.48-.11.05-.21.07-.32.07-.18 0-.3-.06-.35-.19-.15-.34-.22-.54-.22-.6 0-.36.21-.59.63-.69 1.56-.76 3.12-1.63 4.67-2.6.12-.04.22-.07.33-.07zm400.19 113.78c.11-.02.2-.03.25-.03.04-.01.08-.02.12-.02.17 0 .31.09.42.27.1.16.15.32.15.49 0 .22-.1.38-.29.48l-.67.26c-.23.09-.57.21-1.03.38-.24.09-.36.16-.36.2 0 .01 0 .03.01.04l-.03.06c0 .05.15.2.45.46.23.2.37.47.41.82.02.19.02.34-.02.47-.12.42-.4.78-.83 1.08-.38.27-.8.45-1.27.54-.83.16-1.53.25-2.09.27-.93.04-1.46.01-1.58-.08-.28-.12-.42-.47-.42-1.06 0-.3.09-.47.27-.49.07-.01.28.04.63.16s.6.18.75.18c.32 0 .59-.02.83-.05.61-.08.98-.15 1.12-.21.6-.14.89-.37.89-.7-.07-.12-.32-.31-.74-.57-.34-.21-.51-.47-.51-.79 0-.58.79-1.16 2.38-1.74.55-.18.94-.33 1.16-.42zm-.75-6.24c-.63-.05-.99-.1-1.06-.15-.29-.18-.43-.4-.43-.67 0-.37.2-.63.59-.8.47-.09.86-.11 1.15-.08.37.04.79.14 1.27.31.34.12.65.33.92.63.21.24.32.51.32.84 0 .46-.24.95-.71 1.46-.37.41-.81.75-1.3 1.03-.78.45-1.45.69-2 .74-.26.02-.48-.04-.66-.19a.748.748 0 0 1-.27-.61c0-.4.2-.63.6-.69.35-.05.67-.15.98-.3.22-.11.51-.28.87-.51.5-.32.75-.56.75-.73.01-.13-.33-.22-1.02-.28zm11.81 7.8c0-.16-.24-.24-.74-.24l-1.34.15c-.07.01-.21.03-.44.08-.18.04-.33.06-.44.06-.16 0-.28-.05-.37-.14-.14-.2-.21-.41-.21-.62 0-.14.03-.29.09-.45.06-.34.68-.54 1.86-.62.3-.02.86.02 1.68.13.91.12 1.45.35 1.62.7.16.32.2.61.15.89-.04.22-.1.38-.16.48-.2.27-.42.5-.63.69-.42.36-.81.66-1.17.89-.83.54-1.99 1.14-3.46 1.81-.76.35-1.52.67-2.27.97-.34.14-.64.12-.9-.06-.4-.44-.6-.85-.6-1.26 0-.36.2-.54.6-.54.1 0 .25.02.45.05.2.03.35.05.45.05.17 0 .31-.02.44-.07.64-.23.97-.35.99-.35.64-.25 1.37-.6 2.17-1.03 1.2-.65 1.94-1.12 2.23-1.43-.01-.05 0-.09 0-.14zm.29-8.61c.19 0 .35.09.48.26.14.18.2.36.2.55 0 .19-.09.35-.28.46-.74.47-1.57.95-2.48 1.45l-1.62.88c-.51.28-.86.44-1.04.48-.11.05-.21.07-.32.07-.18 0-.3-.06-.35-.19-.15-.34-.22-.54-.22-.6 0-.36.21-.59.63-.69 1.56-.76 3.12-1.63 4.67-2.6.12-.04.23-.07.33-.07zm7.84 16.75c.19 0 .35.09.48.26.14.18.2.36.2.55 0 .1-.1.26-.29.47-.2.17-.7.47-1.49.9l-2.61 1.42c-.51.28-.86.44-1.04.48-.11.05-.21.07-.32.07-.18 0-.3-.06-.35-.19-.15-.34-.22-.54-.22-.6 0-.36.21-.59.63-.69 1.56-.76 3.12-1.63 4.67-2.6.12-.04.23-.07.34-.07zm1.76-6.62c.28-.56.42-.95.42-1.15 0-.06-.02-.08-.05-.08-.01 0-.03.01-.05.02-.39.27-.84.59-1.34.95-1 .73-1.68 1.19-2.04 1.39l-1.68.96c-.4.23-.78.4-1.14.52-.06.02-.11.03-.18.03-.2 0-.4-.11-.61-.33-.33-.35-.5-.74-.5-1.17 0-.16.04-.3.12-.42.12-.14.34-.21.66-.21.09 0 .23.01.4.01.18.01.31.01.4.01.19 0 .36-.02.5-.06.06-.03.11-.05.13-.06l.41-.22c.68-.37 1.13-.64 1.37-.79l2.56-1.72c.68-.45 1.09-.7 1.24-.74.22-.06.46-.01.74.15.4.24.6.62.6 1.16 0 .48-.14 1.08-.42 1.79-.41 1.04-.83 1.79-1.27 2.26-.08.09-.2.13-.34.13-.19 0-.39-.07-.6-.22-.23-.16-.34-.33-.34-.51 0-.19.06-.33.18-.44.26-.23.54-.65.83-1.26zm10.01-3.79c.17 0 .34.08.49.23.15.15.23.31.23.49 0 .12-.29.42-.87.9-.21.17-.33.34-.35.49-.04.22.02.38.18.5.24.18.41.27.51.27a7.705 7.705 0 0 0 1.22-.35c.41-.15.67-.24.77-.27.2-.01.34.04.44.16.14.06.2.22.2.48 0 .22-.21.45-.63.69-1.63.9-2.72 1.51-3.27 1.81l-1.88 1.06c-1.01.57-1.69.9-2.04.98-.26.06-.43.08-.51.06-.16-.05-.33-.17-.51-.35-.18-.19-.28-.36-.32-.52-.11-.5-.02-.77.25-.82.06-.02.16-.03.3-.03.07 0 .17.01.31.01.14.01.24.01.31.01.18 0 .32-.02.43-.05.3-.13.74-.34 1.31-.63 1.04-.53 1.85-.97 2.41-1.32-.3-.07-.56-.21-.78-.44-.24-.24-.36-.5-.36-.79 0-.66.6-1.46 1.79-2.38.15-.13.28-.19.37-.19zm1.94-6.34c.19 0 .35.09.48.26.14.18.2.36.2.55 0 .19-.09.35-.28.46-.74.47-1.57.95-2.48 1.45l-1.62.88c-.52.28-.86.44-1.04.48-.11.05-.21.07-.32.07-.18 0-.3-.06-.35-.19-.15-.34-.22-.54-.22-.6 0-.36.21-.59.63-.69 1.56-.76 3.12-1.63 4.67-2.6.11-.04.22-.07.33-.07z"/><path d="M893.18 695.23c.97-.09 1.45-.4 1.45-.92 0-.39-.22-.66-.66-.8-.53-.17-1.2-.35-2-.54-.69-.28-1.03-.6-1.03-.95 0-1 .49-1.45 1.46-1.36.22.02.42.03.62.03.67 0 1.71-.32 3.14-.97.15-.07.36-.11.62-.11.31 0 .57.13.79.38.22.25.33.53.33.84 0 .35-.2.64-.59.86-.34.15-.68.31-1.02.48.63.55.95 1.28.99 2.19.02.64-.24 1.21-.79 1.71-1.18 1.09-2.89 1.63-5.11 1.63-.23 0-.73-.02-1.52-.05-3.28 2.71-5.55 4.45-6.84 5.22-2.07 1.24-3.42 1.83-4.04 1.77-.35-.07-.69-.44-1.03-1.09-.31-.61-.46-1.11-.46-1.52 0-.34.1-.59.29-.75.2-.1.41-.15.65-.15.17 0 .44.03.8.08.36.06.63.08.8.08.58 0 1.13-.17 1.68-.52 2.46-1.59 4.23-2.8 5.28-3.62-.12-.25-.18-.45-.18-.62 0-.5.12-.91.37-1.22.64-.8 1.39-1.19 2.26-1.16 1.09.04 1.73.44 1.93 1.19.77-.03 1.38-.07 1.81-.11zm-3-16.11c-1.05-.08-1.63-.16-1.76-.25-.47-.3-.71-.67-.71-1.11 0-.61.32-1.05.97-1.32.78-.14 1.42-.19 1.91-.14.61.06 1.31.23 2.11.51.56.2 1.07.54 1.52 1.05.35.39.52.85.52 1.39 0 .76-.39 1.57-1.17 2.42a8.41 8.41 0 0 1-2.16 1.71c-1.29.74-2.4 1.15-3.31 1.23-.43.04-.8-.06-1.09-.31-.3-.25-.45-.59-.45-1.02 0-.67.33-1.05.99-1.14.58-.08 1.11-.25 1.62-.49.36-.17.84-.46 1.45-.85.83-.53 1.25-.93 1.25-1.2 0-.23-.56-.39-1.69-.48zm7.71.05c-1.05-.08-1.63-.16-1.76-.25-.47-.3-.71-.67-.71-1.11 0-.61.32-1.05.97-1.32.78-.14 1.42-.19 1.91-.14.61.06 1.31.23 2.11.51.56.2 1.07.54 1.52 1.05.35.39.52.85.52 1.39 0 .76-.39 1.57-1.17 2.42a8.41 8.41 0 0 1-2.16 1.71c-1.29.74-2.4 1.15-3.31 1.23-.43.04-.8-.06-1.09-.31-.3-.25-.45-.59-.45-1.02 0-.67.33-1.05.99-1.14.58-.08 1.11-.25 1.62-.49.36-.17.84-.46 1.45-.85.83-.53 1.25-.93 1.25-1.2.01-.23-.56-.39-1.69-.48zm9.81 17.32c-.89.73-2.02 1.5-3.39 2.33-1.55.93-2.57 1.44-3.05 1.52-.06.01-.14.02-.23.02-.54 0-1.02-.31-1.42-.92-.35-.54-.52-1.08-.52-1.6 0-.48.24-.74.72-.79.03 0 .1-.01.2-.02s.22-.01.34 0c-.04 0 .23.02.82.06.55.04.88.04.99 0 .69-.26 1.58-.72 2.66-1.39 1.58-.98 2.82-1.94 3.73-2.9-.32-.23-.49-.55-.52-.97-.04-.51.27-1.01.92-1.48.6-.44 1.17-.66 1.71-.66.86 0 1.32.42 1.39 1.26.2.07.69-.16 1.49-.69.24-.21.67-.52 1.29-.95.2-.03.36-.05.49-.05.18 0 .32.03.42.08.33.18.55.45.66.79.04.31-.04.64-.25.99s-.3.56-.29.62c.01.13.09.21.25.22.61.04 1.52-.59 2.76-1.88.51-.4.88-.6 1.11-.59.32.01.67.31 1.05.91.18.3.14.67-.12 1.11-.76 1.25-1.85 2.17-3.27 2.76-.69.29-1.31.44-1.88.46-1.11.05-1.75-.4-1.93-1.34-.44.01-1.24.01-2.4-.02-.33.32-1.57 1.36-3.73 3.12zm6.85-18.59c.31 0 .57.15.8.44.23.29.34.6.34.92s-.15.57-.46.77c-1.22.77-2.59 1.57-4.11 2.4l-2.68 1.46c-.85.46-1.43.73-1.72.8-.17.08-.35.12-.52.12-.3 0-.49-.1-.59-.31-.25-.56-.37-.9-.37-1 0-.6.35-.98 1.05-1.14 2.59-1.26 5.16-2.7 7.73-4.3.17-.1.35-.16.53-.16zm12.16 18.12c0-.61.4-1.04 1.2-1.29.71-.23 1.44-.51 2.2-.86-.46-.22-.83-.41-1.11-.57-.61-.37-.94-.66-1-.88-.09-.31-.09-.59.02-.85.11-.3.33-.46.65-.49 1.23-.11 2.3-.5 3.2-1.16.45-.33.86-.49 1.23-.49.08 0 .15.02.2.05.31.2.51.45.62.75.03.09.05.35.05.77-.01 0-.05.05-.11.15-.12.21-.3.37-.52.49-.22.18-.37.31-.48.37-.37.23-.58.35-.63.39-.28.15-.42.27-.42.34.01.03.1.07.26.11.88.25 1.32.63 1.32 1.16 0 .09-.06.26-.18.49-.24.26-.43.44-.57.54-.67.49-1.18.83-1.52 1.02-.33.25-.49.33-.49.26.01.05.16.23.46.52.16.25.27.41.31.48.01.07.02.14.02.2 0 .43-.42.9-1.26 1.42-6.6 4-10.38 6.05-11.32 6.13-.4.03-.8-.26-1.2-.88-.36-.53-.56-1.03-.6-1.48-.07-.71.23-1.06.91-1.06.2 0 .41.02.65.05.08.01.44.02 1.06.02.33 0 .66-.05 1-.15 1.29-.56 2.32-1.06 3.08-1.48 1.84-1.03 3.29-1.89 4.36-2.59-.93-.6-1.39-1.08-1.39-1.48zm6.41-16.78c-1.05-.08-1.63-.16-1.76-.25-.47-.3-.71-.67-.71-1.11 0-.61.32-1.05.97-1.32.78-.14 1.42-.19 1.91-.14.61.06 1.31.23 2.11.51.56.2 1.07.54 1.52 1.05.35.39.52.85.52 1.39 0 .76-.39 1.57-1.17 2.42a8.41 8.41 0 0 1-2.16 1.71c-1.29.74-2.4 1.15-3.31 1.23-.43.04-.8-.06-1.09-.31-.3-.25-.45-.59-.45-1.02 0-.67.33-1.05.99-1.14.58-.08 1.11-.25 1.62-.49.36-.17.84-.46 1.45-.85.83-.53 1.25-.93 1.25-1.2 0-.22-.56-.38-1.69-.48z" fill="#bd0e72"/><path d="M276.18 877.65c-.63-.05-.99-.1-1.06-.15-.29-.18-.43-.4-.43-.67 0-.37.2-.63.59-.8.47-.09.86-.11 1.15-.08.37.04.79.14 1.27.31.34.12.65.33.92.63.21.24.32.51.32.84 0 .46-.24.95-.71 1.46-.37.41-.81.75-1.3 1.03-.78.45-1.45.69-2 .74-.26.02-.48-.04-.66-.19a.748.748 0 0 1-.27-.61c0-.4.2-.63.6-.69.35-.05.67-.15.98-.3.22-.11.51-.28.87-.51.5-.32.75-.56.75-.73.01-.13-.34-.22-1.02-.28zm1.56 8.37c.47.11.74.17.81.2.17.12.29.32.33.58.02.12 0 .26-.08.41-.08.15-.17.26-.28.31l-1.14.54c-.57.29-.74.5-.49.62-.01.01-.01.01-.01.02 0 .06.43.12 1.29.17.42.02.7.04.85.06.29.03.46.04.51.04.11 0 .27.02.5.07.22.08.33.32.33.73 0 .16-.04.31-.12.44-.09.16-.21.23-.36.21l-2.09-.21c-1.36-.14-2.12-.24-2.26-.31-.59-.08-.88-.36-.88-.84 0-.27.11-.47.33-.62l1.93-1.34c-1.12-.22-1.78-.4-1.96-.54-.14-.11-.21-.3-.21-.59 0-.19.05-.31.14-.38.86-.63 1.55-1.13 2.08-1.52.04-.02.08-.03.12-.03.23 0 .44.2.62.6.01.11-.05.3-.2.58-.35.31-.58.5-.69.59.41.09.73.16.93.21zm3.1-8.34c-.63-.05-.99-.1-1.06-.15-.29-.18-.43-.4-.43-.67 0-.37.2-.63.59-.8.47-.09.86-.12 1.15-.08.37.04.79.14 1.27.31.34.12.65.33.92.63.21.23.32.51.32.84 0 .46-.24.95-.71 1.46-.37.41-.81.75-1.3 1.03-.78.45-1.45.7-2 .74-.26.03-.48-.04-.66-.19s-.27-.35-.27-.61c0-.4.2-.63.6-.69.35-.05.67-.15.98-.3.22-.11.51-.28.87-.51.5-.32.75-.56.75-.73.01-.13-.33-.23-1.02-.28zm5.86 10.47c-.54.44-1.22.91-2.05 1.41-.94.56-1.55.87-1.84.92-.04.01-.08.01-.14.01-.33 0-.61-.19-.86-.56-.21-.33-.32-.65-.32-.97 0-.29.15-.45.44-.47.02 0 .06 0 .12-.01s.13-.01.2 0c-.02 0 .14.01.49.04.33.03.53.03.6 0 .42-.16.95-.43 1.61-.84.96-.59 1.71-1.17 2.25-1.75a.765.765 0 0 1-.32-.59c-.02-.31.16-.61.56-.89.36-.27.7-.4 1.03-.4.52 0 .8.25.84.76.12.04.42-.1.9-.42.14-.12.4-.32.78-.58.12-.02.22-.03.3-.03.11 0 .2.02.25.05.2.11.33.27.4.47.02.19-.02.39-.15.6-.12.21-.18.34-.18.38.01.08.06.12.15.13.37.02.92-.35 1.67-1.14.31-.24.53-.36.67-.35.19.01.4.19.63.55.11.18.09.4-.07.67-.46.76-1.12 1.31-1.97 1.66-.42.17-.79.27-1.14.28-.67.03-1.06-.24-1.16-.81-.27.01-.75 0-1.45-.01-.18.19-.93.82-2.24 1.89zm4.54-11.96c.72.01 1.25.36 1.6 1.04.06.21.09.45.09.73 0 .59-.15 1.09-.45 1.5-.74 1.01-1.94 1.59-3.6 1.72-.79-.03-1.35-.28-1.66-.75-.17-.37-.26-.71-.26-1.04 0-.55.26-1.1.77-1.66.99-1.05 2.16-1.57 3.51-1.54zm-2.58 3.11c.09.13.26.23.53.3h.3c.12 0 .24 0 .37-.01.73-.3 1.22-.64 1.49-1.04.03-.08.05-.16.05-.24 0-.39-.31-.56-.93-.53-.37.09-.63.19-.78.29-.34.16-.6.34-.79.55-.18.21-.27.38-.27.53-.01.04 0 .1.03.15zm14.54 6.22c0-.16-.25-.24-.74-.24l-1.34.15c-.07.01-.21.03-.44.08-.18.04-.33.06-.44.06-.15 0-.28-.05-.37-.14-.14-.2-.21-.41-.21-.62 0-.14.03-.29.09-.45.06-.33.68-.54 1.86-.62.3-.02.86.02 1.68.13.91.12 1.45.35 1.62.7.15.32.2.61.15.89-.04.22-.1.38-.16.48-.2.27-.42.5-.63.69-.42.36-.81.66-1.17.89-.83.54-1.98 1.14-3.46 1.81-.76.35-1.52.67-2.27.97-.34.14-.64.12-.9-.06-.4-.44-.6-.85-.6-1.26 0-.36.2-.54.6-.54.1 0 .25.02.45.05.2.03.35.05.45.05.17 0 .31-.02.44-.07.65-.23.97-.35.99-.35.65-.25 1.37-.6 2.17-1.03 1.2-.65 1.94-1.12 2.23-1.43-.01-.05 0-.09 0-.14zm.29-8.6c.19 0 .35.09.48.26.14.18.2.36.2.55 0 .19-.09.35-.28.46-.74.47-1.57.95-2.48 1.45l-1.62.88c-.51.28-.86.44-1.04.48-.11.05-.21.07-.32.07-.18 0-.3-.06-.35-.19-.15-.34-.22-.54-.22-.6 0-.36.21-.59.63-.69 1.56-.76 3.12-1.63 4.67-2.6.12-.04.23-.07.33-.07zm10.63 7.23c.18-.08.3-.13.36-.16.15-.06.32.04.51.3.13.17.2.34.2.51.01.14-.11.31-.36.52-.71.6-1.72 1.27-3.04 2.01-1.85 1.04-3.05 1.57-3.62 1.6-.22.01-.42-.07-.61-.24-.19-.17-.29-.36-.29-.58 0-.12.22-.42.67-.9.33-.55.53-1.01.59-1.4l-.06-1c-.03-.47.09-.76.34-.86.22-.09.41-.12.56-.09.38.06.59.37.64.93.03.35.05.56.05.63 0 .57-.13 1.06-.4 1.46.54-.18 2.02-1.09 4.46-2.73zm1.88-7.85c.49.09.74.33.74.73.01.42-.57.81-1.73 1.16-.56.17-.95.47-1.17.89.14.17.38.28.74.34.33.03.77.09 1.29.19.29.12.39.38.33.77-.09.51-.45.76-1.08.76-.49 0-1.1-.14-1.82-.41-.55-.21-.9-.53-1.06-.97-.75.64-1.85 1.05-3.3 1.23-.27.03-.52 0-.77-.1-.31-.12-.47-.31-.47-.56 0-.45.21-.73.64-.84.3 0 .71-.05 1.23-.16.73-.15 1.23-.39 1.53-.71-.06-.24-.35-.43-.89-.59-.13-.02-.48-.07-1.04-.13-.32-.1-.47-.29-.47-.58 0-.04.01-.11.03-.21.11-.56.48-.82 1.13-.77.37.02.74.09 1.1.19.73.2 1.3.65 1.72 1.35.42-.49.8-.83 1.16-1.03.4-.22 1.02-.41 1.86-.57.07-.01.17 0 .3.02zm448.66 74.72c.58-.06.87-.24.87-.56 0-.24-.13-.4-.4-.48-.32-.11-.73-.21-1.21-.33-.42-.17-.62-.36-.62-.58 0-.6.29-.88.88-.82.13.01.25.02.37.02.4 0 1.04-.2 1.9-.59.09-.04.22-.06.37-.06.19 0 .35.08.48.23.13.15.2.32.2.51 0 .21-.12.39-.35.52-.2.09-.41.19-.61.29.38.34.58.78.6 1.32.01.38-.15.73-.47 1.03-.71.66-1.74.99-3.09.99-.14 0-.44-.01-.92-.03-1.98 1.64-3.36 2.69-4.13 3.15-1.25.75-2.07 1.11-2.44 1.07-.21-.04-.42-.26-.62-.66-.19-.37-.28-.67-.28-.92 0-.2.06-.36.18-.46a.86.86 0 0 1 .39-.09c.11 0 .27.02.48.05.22.03.38.05.48.05.35 0 .69-.11 1.01-.32 1.49-.96 2.55-1.69 3.19-2.19-.07-.15-.11-.27-.11-.37 0-.3.07-.55.22-.74.38-.48.84-.72 1.37-.7.66.03 1.05.26 1.16.72.47 0 .84-.02 1.1-.05zm-1.81-9.73c-.63-.05-.99-.1-1.06-.15-.29-.18-.43-.4-.43-.67 0-.37.2-.63.59-.8.47-.09.86-.11 1.15-.08.37.04.79.14 1.27.31.34.12.65.33.92.63.21.24.32.51.32.84 0 .46-.24.95-.71 1.46-.37.41-.81.75-1.3 1.03-.78.45-1.45.69-2 .74-.26.02-.48-.04-.66-.19a.748.748 0 0 1-.27-.61c0-.4.2-.63.6-.69.35-.05.67-.15.98-.3.22-.11.51-.28.87-.51.5-.32.75-.56.75-.73 0-.13-.34-.22-1.02-.28zm4.66.03c-.63-.05-.99-.1-1.06-.15-.29-.18-.43-.4-.43-.67 0-.37.2-.63.59-.8.47-.09.86-.12 1.15-.08.37.04.79.14 1.27.31.34.12.65.33.92.63.21.23.32.51.32.84 0 .46-.24.95-.71 1.46-.37.41-.81.75-1.3 1.03-.78.45-1.45.7-2 .74-.26.03-.48-.04-.66-.19s-.27-.35-.27-.61c0-.4.2-.63.6-.69.35-.05.67-.15.98-.3.22-.11.51-.28.87-.51.5-.32.75-.56.75-.73 0-.13-.34-.23-1.02-.28zm9.41 6.29c.11-.02.2-.03.25-.03.04-.01.08-.02.12-.02.17 0 .31.09.42.27.1.16.15.32.15.49 0 .22-.1.38-.29.48l-.67.26c-.23.09-.57.21-1.03.38-.24.09-.36.16-.36.2 0 .01 0 .03.01.04l-.03.06c0 .05.15.2.45.46.23.2.37.47.41.82.02.19.02.34-.02.47-.12.42-.4.78-.83 1.08-.38.27-.8.45-1.27.54-.83.16-1.53.25-2.09.27-.93.04-1.46.01-1.58-.08-.28-.12-.42-.47-.42-1.06 0-.3.09-.47.27-.49.07-.01.28.04.63.16s.6.18.75.18c.32 0 .59-.02.83-.05.61-.08.98-.15 1.12-.21.6-.14.89-.37.89-.7-.07-.12-.32-.31-.74-.57-.34-.21-.51-.47-.51-.79 0-.58.79-1.16 2.38-1.74.55-.19.94-.33 1.16-.42zm-3.18-6.32c-.63-.05-.99-.1-1.06-.15-.29-.18-.43-.4-.43-.67 0-.37.2-.63.59-.8.47-.09.86-.11 1.15-.08.37.04.79.14 1.27.31.34.12.65.33.92.63.21.24.32.51.32.84 0 .46-.24.95-.71 1.46-.37.41-.81.75-1.3 1.03-.78.45-1.45.69-2 .74-.26.02-.48-.04-.66-.19a.748.748 0 0 1-.27-.61c0-.4.2-.63.6-.69.35-.05.67-.15.98-.3.22-.11.51-.28.87-.51.5-.32.75-.56.75-.73.01-.13-.34-.22-1.02-.28zm4.66.03c-.63-.05-.99-.1-1.06-.15-.29-.18-.43-.4-.43-.67 0-.37.2-.63.59-.8.47-.09.86-.12 1.15-.08.37.04.79.14 1.27.31.34.12.65.33.92.63.21.23.32.51.32.84 0 .46-.24.95-.71 1.46-.37.41-.81.75-1.3 1.03-.78.45-1.45.7-2 .74-.26.03-.48-.04-.66-.19s-.27-.35-.27-.61c0-.4.2-.63.6-.69.35-.05.67-.15.98-.3.22-.11.51-.28.87-.51.5-.32.75-.56.75-.73.01-.13-.33-.23-1.02-.28zm5.73 10.47c-.54.44-1.22.91-2.05 1.41-.94.56-1.55.87-1.84.92-.04.01-.08.01-.14.01-.33 0-.61-.19-.86-.56-.21-.33-.32-.65-.32-.97 0-.29.15-.45.44-.47.02 0 .06 0 .12-.01s.13-.01.2 0c-.03 0 .14.01.49.04.34.03.53.03.6 0 .42-.16.95-.43 1.61-.84.96-.59 1.71-1.17 2.25-1.75a.765.765 0 0 1-.32-.59c-.03-.31.16-.61.56-.89.36-.27.7-.4 1.03-.4.52 0 .8.25.84.76.12.04.42-.1.9-.42.14-.12.4-.32.78-.58.12-.02.22-.03.3-.03.11 0 .2.02.25.05.2.11.33.27.4.47.03.19-.03.39-.15.6-.12.21-.18.34-.18.38.01.08.06.12.15.13.37.02.92-.35 1.67-1.14.31-.24.53-.36.67-.35.19.01.4.19.63.55.11.18.09.4-.07.67-.46.76-1.12 1.31-1.97 1.66-.42.17-.79.27-1.14.28-.67.03-1.06-.24-1.16-.81-.27.01-.75 0-1.45-.01-.18.19-.93.82-2.24 1.89zm15.52-1.1c.28-.56.42-.95.42-1.15 0-.06-.02-.08-.05-.08-.01 0-.03.01-.05.02-.39.27-.84.59-1.34.95-1 .73-1.68 1.19-2.04 1.39l-1.68.96c-.4.23-.78.4-1.14.52-.06.02-.11.03-.18.03-.2 0-.4-.11-.61-.33-.33-.35-.5-.74-.5-1.17 0-.16.04-.3.12-.42.12-.14.34-.21.66-.21.09 0 .23.01.4.01.18.01.31.01.4.01.19 0 .36-.02.5-.06.06-.03.11-.05.13-.06l.41-.22c.68-.37 1.13-.64 1.37-.79l2.56-1.72c.68-.45 1.09-.7 1.24-.74.22-.06.46-.01.74.15.4.24.6.62.6 1.16 0 .48-.14 1.08-.42 1.79-.41 1.04-.83 1.79-1.27 2.26-.08.09-.2.13-.34.13-.19 0-.39-.07-.6-.22-.23-.16-.34-.33-.34-.51 0-.19.06-.33.18-.44.26-.24.53-.65.83-1.26zm-.14-9.33c-.63-.05-.99-.1-1.06-.15-.29-.18-.43-.4-.43-.67 0-.37.2-.63.59-.8.47-.09.86-.11 1.15-.08.37.04.79.14 1.27.31.34.12.65.33.92.63.21.24.32.51.32.84 0 .46-.24.95-.71 1.46-.37.41-.81.75-1.3 1.03-.78.45-1.45.69-2 .74-.26.02-.48-.04-.66-.19s-.27-.35-.27-.61c0-.4.2-.63.6-.69.35-.05.67-.15.98-.3.22-.11.51-.28.87-.51.5-.32.75-.56.75-.73 0-.12-.34-.22-1.02-.28zm11.78 7.8c0-.16-.25-.24-.74-.24l-1.34.15c-.07.01-.21.03-.44.08-.18.04-.33.06-.44.06-.15 0-.28-.05-.37-.14-.14-.2-.21-.41-.21-.62 0-.14.03-.29.09-.45.06-.34.68-.54 1.86-.62.3-.02.86.02 1.68.13.91.12 1.45.35 1.62.7.15.32.2.61.15.89-.04.22-.1.38-.16.48-.2.27-.42.5-.63.69-.42.36-.81.66-1.17.89-.83.54-1.98 1.14-3.46 1.81-.76.35-1.52.67-2.27.97-.34.14-.64.12-.9-.06-.4-.44-.6-.85-.6-1.26 0-.36.2-.54.6-.54.1 0 .25.02.45.05.2.03.35.05.45.05.17 0 .31-.02.44-.07.65-.23.97-.35.99-.35.65-.25 1.37-.6 2.17-1.03 1.2-.65 1.94-1.12 2.23-1.43-.01-.04 0-.09 0-.14zm1.13-10.44c.19 0 .35.09.48.26.14.18.2.36.2.55 0 .12-.1.28-.29.5-.05.09-.62.43-1.72 1.02l-2.37 1.28c-.53.28-.87.45-1.04.48-.11.05-.21.07-.32.07-.18 0-.3-.06-.35-.19-.15-.34-.22-.54-.22-.61 0-.36.21-.59.63-.69 1.56-.76 3.12-1.63 4.67-2.6.11-.03.22-.07.33-.07zm1.1 1.97c.19 0 .35.09.48.27.14.18.2.36.2.55 0 .1-.08.25-.25.44-.04.07-.28.24-.71.48l-3.42 1.88c-.51.28-.86.44-1.04.48-.11.05-.21.07-.32.07-.18 0-.3-.06-.35-.18-.15-.34-.22-.54-.22-.61 0-.36.21-.59.63-.69 1.56-.76 3.12-1.63 4.67-2.6.12-.06.23-.09.33-.09z"/></svg>