<svg xmlns="http://www.w3.org/2000/svg" xml:space="preserve" x="0" y="0" version="1.1" viewBox="0 0 1000 1000"><path d="m832.92 782.53 5 3.63 2-4.76-3.06-2.25z" fill="#fff" fill-rule="evenodd" clip-rule="evenodd"/><path d="M617.37 478.88c0 5.43-4.4 9.8-9.8 9.8-5.43 0-9.82-4.37-9.82-9.8 0-5.43 4.4-9.81 9.82-9.81 5.4-.01 9.8 4.38 9.8 9.81m20.2 64.72c0 5.43-4.4 9.8-9.81 9.8-5.43 0-9.82-4.37-9.82-9.8 0-5.41 4.4-9.8 9.82-9.8 5.41 0 9.81 4.38 9.81 9.8M457.96 875.19c0 5.43-4.4 9.8-9.8 9.8-5.43 0-9.81-4.37-9.81-9.8 0-5.43 4.39-9.8 9.81-9.8 5.4 0 9.8 4.37 9.8 9.8" fill="#004b1c"/><path d="M351.43 709.23c0 4.64-3.76 8.41-8.4 8.41s-8.41-3.77-8.41-8.41c0-4.63 3.77-8.38 8.41-8.38s8.4 3.75 8.4 8.38" fill="#fff"/><path d="M343.04 720.49c-6.21 0-11.27-5.05-11.27-11.26 0-6.2 5.05-11.24 11.27-11.24 6.2 0 11.24 5.04 11.24 11.24.01 6.21-5.04 11.26-11.24 11.26zm0-16.79c-3.07 0-5.55 2.48-5.55 5.53 0 3.06 2.49 5.55 5.55 5.55 3.05 0 5.53-2.49 5.53-5.55 0-3.05-2.48-5.53-5.53-5.53z" fill="#004b1c"/><path d="M160.43 221.2c0 4.64-3.76 8.41-8.4 8.41s-8.41-3.77-8.41-8.41c0-4.63 3.77-8.38 8.41-8.38s8.4 3.75 8.4 8.38" fill="#fff"/><path d="M152.03 232.46c-6.2 0-11.25-5.05-11.25-11.27 0-6.2 5.05-11.24 11.25-11.24s11.25 5.04 11.25 11.24c.01 6.22-5.05 11.27-11.25 11.27zm0-16.79c-3.06 0-5.54 2.48-5.54 5.53 0 3.06 2.49 5.55 5.54 5.55s5.54-2.49 5.54-5.55c.01-3.05-2.48-5.53-5.54-5.53z" fill="#004b1c"/><path d="M756.6 784.61c-4.34.59-8.66 1.22-12.94 1.9.4-.34.75-.67 1.03-1.03 3.94-.63 7.91-.78 11.91-.87m-539.82-619.4c6.02 8.08 2.34 9.61-2.74 9.51-12.06-.45-23.5-4.16-35.02-6.85-5.86-3.83-4.42-15.32 5.38-18.15 15.15 2.31 22.96 9.68 32.38 15.49m321.12-11.57c.06 4.87-.27 9.93-.98 15.21.31-5.03.64-10.12.98-15.21m324.7 382.08c.8-.17 1.64-.34 2.43-.52-.76.26-1.57.43-2.43.52m-740.19-17.53c-4.42 4.36-4.68 7.41-.05 7.94 4.89-1.4 7-1.71 11.38-1.52 2.34 1.83 2.48 2.92.57 6.37-4.29 2.19-6.59 5.56-10.9 7.79-4.88-2.01-7.6-3.1-9.81-2.48-6.11.06-4.48 4.74-1.96 8.5 2.06 1.55 4.15 3.14 6.25 4.73-1.85 4.24-4.97 5.61-7.36 6.09-4.5 1.05-3.76-3.48-4.09-5.73 1.78-9.32 1.45-12.38.51-21.68-.02-7.31-2.22-8.99-6.48-5.03-3.08 1.2-4.34 5.3-4.69 10.74 1.55 10.93 4.41 21.4 7.6 31.8 3.99 8.2 10.27 5.61 14.77 3.47 5.75-8.4 8.96-15.93 13.6-24.36 4.57-4.83 8.35-9.07 12.91-13.88 1.5-6.37.86-12.31-5.63-14.86-5.57-1.99-11.11-.68-16.62 2.11m169 95.29c-.99-2.59-.3-3.95.84-6.04 1.77-1.3 1.71-3.38 7.14 2.71 1.3 5.68 3.18 10.79-1.42 15.97-3.34 2.87-18.34 3.75-28.22 5.21-9.98 4.59-17.62 8.24-25.99 14.95-7 3.51-12.18 3.27-15.51-.73-6.17-4.61-9.8-9.63-12.22-14.8.06-4.79 1.05-9.18 8.64-10.79 5.83.37 11.38 1.25 16.67 2.66 11.62-.72 17.57-4.77 22.75-8.65 7.56-3.22 9.87 1.14 6.81 5.89-3.99.25-8.49 1.34-13.51 3.2-2.24 3.68-1.57 5.13 2.01 4.48 5.35-2.81 10.67-5.3 16.01-5.45 5.84-2.68 18.68 2.57 16-8.61M3.67 532.38l-.4-1.28c1.14.78 2.35 1.5 3.67 2.14-1.13-.31-2.2-.59-3.27-.86M363.25 55.17c6.38-3.47 10.62-6.93-.09-10.26-14.03-2.65-28.82-4.63-43.46-6.09-10.98-.13-21.68 2.22-32.14 4.83-9 2.11-5.46 6.12-3.63 9.82 2.96 6.84 8.76 21.53 18.04 18.31 2.51-2.51 5.57-5.27 4.9-8.24.19-5.27-1.2-6.62-4.22-4.16-1.69 3.79-4.08 2.23-5.48 1.86-1.5-3.31-3.15-3.34-1.58-6.96 7.33.48 14.29-.41 20.5-4.34 2.17.11 4.35.26 6.51.4 1.12 4.79 7.01 5.64 13.6 5.97 9.02-.39 18.04-.77 27.05-1.14m55.49-10.11c-6.69-3.48-8.81-.97-8.81 4.26-1.06 6.9 3.88 12.61 22.03 17.14 5.92-1.13 11.79-1.84 17.72-2.98 4.1-1.7 4.1-4.23-.07-7.49-10.27-3.65-20.59-7.28-30.87-10.93m89.8 494.58c2.28-.06 3.35 1.51 3.35 3.75.02 2.28-1.84 4.12-4.12 4.18-2.32 0-4.2-1.84-4.21-4.11-.02-2.24 2.69-3.82 4.98-3.82M285.7 94.65c-.37-8.54-.74-17.06-1.14-25.63-.53-5.6-2.54-10.03-5.23-13.96-2.34-5.11-5.46-6.65-9.37-4.58-7.89 2.87-14.28 6.85-19.98 11.35-6.54 3.32-10.1 8.03-10.61 14.06.27 10.66 5.87 17 10.54 26.55 1.44 3.98 3.64 5.81 5.23 4.4 0 1.69.16 3.8.47 6.56 4.29 6.6 9.82 2.68 9.18-2.39-.99-9.15-2.81-18.28-3.83-27.98-1.59-9.57-4.27-11.49-6.33-4.34-.06-.07-.07-.11-.11-.22-.63-4.19.39-7.66 2.5-9.67 4.9-3.53 8.41-4.11 11.66-4.31 1.82.19 5.53.88 4.33 1.76-3.26 2.3-3.48 7.46 2.14 8.57 2.5.5 3.91 2.84 4.33 5.71.78 5.37-.71 9.9-1.21 16.55.54 8.21 6.96 8.79 7.43-2.43m-60.72-4.2c6.33-9.85 11.98-7.87 13.55-1.46 3.83 7.14 7.6 14.27 11.39 21.39 2.68 6-4.36 9.09-7.49 2.99-1.4-3.58-1.4-7.76-2.83-11.34-2.06-2.74-4.08-3.04-6.09-.85-5.93 7.73-14.05 15.13-16.93 24.43-1.85 5.99-6.2 5.81-8.91 9.34-2.64 3.37-1.67 5.05 2.83 5.11 2.96-1.13 6.13-2.49 6.97.29 3.55 3.61 4.39 7.28 5.73 10.31 3.54 5.83 1.66 8.57-5.29 6.22-6.67-1.4-12.88-4.43-18.98-6.93-6.36-1.95-8.84-6.53-5.35-12.95 5.38-7.06 9.95-14.71 15.34-21.74 4.56-8.74 11.46-16.07 16.06-24.81" fill="#3b6287" fill-rule="evenodd" clip-rule="evenodd"/><path d="M241.67 129.54c2.1-4.41 5.03-4.41 8.87-.07 1.9 3.72 3.79 7.45 5.68 11.16 3.16 5.13 1.62 7.03-4.61 5.64-2.04-1.57-4.07-2.48-6.1-3.99-4.33 1.59-8.67 2.54-13.04 4.13-7.81.63-11.37-5.03-3.58-7.5 3.74-1.47 7.24-1.87 10.98-3.28.61-2.04 1.2-4.05 1.8-6.09m-24.89 35.67c6.02 8.08 2.34 9.61-2.74 9.51-12.06-.45-23.5-4.16-35.02-6.85-5.86-3.83-4.42-15.32 5.38-18.15 15.15 2.31 22.96 9.68 32.38 15.49m-57.25 14.31c4.21-2.98 8.33-6.41 14.02-2 6.65 2.02 10.53 4.85 14.06 7.81 3.03 3.37 3.92 7.82 3.35 13.04-2.34 16.32-9.24 26.8-20.75 31.43-10.14 3.36-20.54 5.04-31.67.73-8.69-1.36-15.19-3.83-6.66-13.96 8.52-12.71 17.35-25.28 27.65-37.05" fill="#3b6287" fill-rule="evenodd" clip-rule="evenodd"/><path d="M174.87 200.92c2.88-.63 3.36-.95 6.08-.11 1.54 3.41-.13 7.34-4.75 13.09-3.5 3.64-5.21 6.36-8.74 10.02-2.54.83-5.94 2.35-5.13-1.68.22-5.49 1.99-8.13 4.74-12.52 2.21-4 4.47-5.72 7.8-8.8m-58.68 38.36c3.35-7.13 8.13-8.49 14.35-4.09 6.82 6.91 13.43 13.81 20.23 20.71 2.75 5.48 4.02 10.18 3.43 14.05.74 7-2.73 8.35-8.11 7.1-1.88-1-3.78-1.4-5.68-2.41-6.58 5.01-14.2 7.13-22.44 8.25-16.15-4.45-19.74-7.57-21.51-10.5.49-6.67 3.11-12.48 7.46-17.52 4.1-5.2 8.2-10.4 12.27-15.59m-28.07 44.73c.67-4.85 3.93-7.36 12.92-4.6 8.5 6.33 16.95 8.72 25.44 11.64 4.33 7.23 2.96 11.46-.99 14.38-11.49.69-21.02 11.62-31.13 19.4-15.84 5.99-21.2 2.44-21.76-5.45 1.84-6.18 3.99-12.19 6.91-17.81 2.85-5.84 5.7-11.71 8.61-17.56m26.35 56.17c5 2.57 8.29 5.21-.5 8.45-14.1 1.29-29.57 5.07-45.86 10.2-8.62-2.43-13.68-6.5-10.82-13.98-.23-6.81 4.81-10.29 12.3-12.21 8.84 1.88 18.09 2.75 26.97 4.67 12.29-.5 13.23 2.82 17.91 2.87m-53.35 23.8c1.59 1.43 3.15 2.8 4.72 4.16.8-1.84 3.8-2.99 7.94-2.22 5.21 1.01 8.17 1.55 8.18 3.54.01 2-3.43 3.86-7.92 3.92-.69 0-1.36-.06-2-.11 4.89 2.87 5.08 4.96-1.84 7.01-8.16-1.11-16.29-2.09-23.93-4.92-2.67-4.42-3.46-8.72-.13-12.66 3.98-3.69 8.82-3.79 14.98 1.28m-27.94 28.68c4.4-2.28 8.81-3.6 13.24 2.17 2.06 7.29 4.11 14.61 6.1 21.91 3.07 6 8.03 8.67 12.72 11.89 3.72 2.96 2.56 6.74-1.3 6.35-5.62-1.26-11.33-2.42-18.02-.42-4.48 2.35-9.61 3.14-14.08 3.9-11.43-1.48-14.19-5.64-13.88-10.43 1.6-12.98 8.8-25.41 15.22-35.37M8.82 446.7c3.27-7.86 8.38-9.49 13.39-4.53 4.26 5.89 7.54 11.96 11.81 17.86 1.54 3.75-1.44 8.16.67 11.75 7.23 12.21 6.54 22.67-2.92 24.83-5.55-.71-3.64-11.23-2.38-16.85.83-3.81-5.79 2.44-7.02 2.89-3.7 7.23-.16 15.21 6.81 25.56 13.5 10.11 25.23 19.26 40.3 26.16 5.05 2.24 9.83 4.23 14.23 6.57-4.5-6.25-7.06-13.78-6.77-24.07 2.14-4.67 4.66-5.48 7.95-1.58 1.58 9.17 4.07 18.33 6.7 27.56.46 1.78.34 2.76-.13 3.16.83.63 1.63 1.32 2.36 2.04 10.66 12.35-.17 24.88-24.33 13.96-11.49-6.66-23.05-13.78-36.67-18.86-7.93-3.29-16.23-5.78-24.15-9.1-12.82-5.47-17.81-16.85-16.33-33.11 4.21-18.92 10.56-36.43 16.48-54.24m34.34-5.35c-6.9 1.23-4.9 5.23-1.6 9.6 3.93 3.52 6.36 1.28 9.89-1.99.66-.69 2.81.49 3.59-.13 4.41 1.59 5.81 3.79 9.22 6.77 2.5 2.16 9.17-1.39 4.37-6.33-3.83-6.53-5.85-7.5-11.74-7.6-4.51.24-9.21-1.35-13.73-.32m79.25 76.84c-4.42 4.33-4.68 7.41-.05 7.94 4.89-1.4 7-1.71 11.38-1.52 2.34 1.83 2.52 2.92.57 6.37-4.29 2.19-6.59 5.56-10.9 7.79-4.88-2.03-7.63-3.1-9.81-2.48-6.11.06-4.48 4.74-1.96 8.48 2.06 1.58 4.15 3.16 6.25 4.75-1.85 4.24-4.97 5.61-7.36 6.11-4.49 1.03-3.76-3.51-4.09-5.76 1.78-9.32 1.45-12.38.51-21.68-.02-7.31-2.22-8.99-6.49-5.03-3.07 1.2-4.33 5.3-4.68 10.74 1.55 10.93 4.41 21.4 7.55 31.8 4.03 8.2 10.31 5.61 14.81 3.44 5.75-8.36 8.96-15.9 13.6-24.33 4.57-4.83 8.35-9.07 12.91-13.88 1.46-6.35.86-12.31-5.63-14.86-5.56-1.98-11.1-.67-16.61 2.12m80.1 93.88c5.17-4.76 8.34-10.73 10.69-17.68 2.9-6.84 1.05-12.75-5.51-17.73-14.68-2.9-24.9-7.52-36.92-9.93-4.5 1.09-8.49 3.24-12.98 6.11-4.92 2.92-3.91 5.49-.23 7.89 11.9 7.57 20.22 13.94 30.35 25.13 3.49 6.92 10.69 7.94 14.6 6.21m-27.89-83.01c4.84 2.7 5.04 4.01.26 6.74-3.75.81-7.46 3.58-10.84 7.02-.49.51-.95 1.02-1.42 1.54 9.48 1.82 2.58 10.02-1.98 9.18-5.38-.99-7.14 8.04-9.67 12.87-4.85 4.93-9.75 6.19-14.61 5.77-8.67-.57-8.93-5.45-7.98-10.93 6.06-9.43 12.98-15.24 20.14-19.9 9.57-8.01 18.08-11.23 26.1-12.29m116.79 84.42c-.99-2.59-.3-3.95.84-6.04 1.77-1.31 1.71-3.38 7.14 2.71 1.3 5.68 3.18 10.79-1.4 15.97-3.35 2.87-18.36 3.75-28.24 5.21-9.98 4.59-17.62 8.24-25.99 14.95-7 3.51-12.18 3.27-15.51-.73-6.17-4.65-9.8-9.63-12.22-14.8.06-4.79 1.05-9.18 8.64-10.79 5.81.37 11.38 1.25 16.67 2.66 11.62-.72 17.57-4.79 22.75-8.65 7.56-3.22 9.87 1.14 6.81 5.89-3.99.25-8.49 1.34-13.51 3.2-2.24 3.68-1.57 5.13 2.01 4.48 5.35-2.81 10.67-5.3 16.01-5.45 5.84-2.68 18.68 2.57 16-8.61m-45.05 40.38c-7.08 2.46-1.79 13.44 5.11 14.05 10.73-3.03 20.99-8.66 34.84-13.43 4.81-.49 8.77-1.37 13.57-1.66 5.77-1.06 5.73-4.89 1.11-5.88-7.86-1.09-15.84-1.74-24.26-.66-10.13 1.9-20.23 4.07-30.37 7.58m40.67 18.17c-1.6-6.43-.45-8.58 10.02-7.82 6.12 3.66 9.65 4.88 6.19 12.34 4.02 2.78 4.58 7.52.03 9.82-7.68 2.95-14.71 6.89-21.3 11.47-7.23 2.89-10.27.71-12.74-3.91-1.3-3.32-5.05-5.81-8.51-8.61-3-6.02 4.55-9.39 8.93-8.77 4.49-2.12 14.85-3.77 17.38-4.52m.32 30.25c-6.51.49-6.24 4.53-5.01 9.07 9.15 17.02 18.69 31.3 28.28 45.14 6.93 8.44 12.6 8.14 18.08 6.59 5.39-4.38 10.58-6.86 15.52-12.15 3.39-3.53 4.06-8.02 5.2-11.51-1.32-6.88-7.7-8.09-12.98-7.47-6.1-8.42-12.32-17.17-21.25-25.55-3.18-5.47-7.56-8.78-12.94-7.88-5.66 1.03-10.6 2.28-14.9 3.76m78.57 64.46c-4.58-1.8-9.12-2.27-13.66-1.36.05.58.1 1.16.13 1.72 4 2.42 6.75 5.52 10.74 7.93.95 3.02 2.07 3.96 2.16 7.32-3.78 4.62-5.54 2.87-10.51 1.76-1.87-3.34-3.5-4.01-2.57-7.41-.56-7.72-2.46-8.62-5.19-9.1-3.61 2.91-7.38 4.18-9.61 7.55-3.83 2.98-2.62 6.58-.08 10.39 3.13 5.16 6.27 10.29 9.4 15.45 2.8 4.79 6.68 6.46 12.99 1.28 6.01-6.8 11.64-13.6 19.59-20.46 1.9-4.17 1.67-7.78-3.21-10.09-2.95-2.1-6.35-3.78-10.18-4.98m.23 58.24c5.91-4.16 12.38-5.61 19.69-2.98 7.13 2.09 13.41 5.36 17.84 11.1 4.44 12.31 6.72 24.44 7.52 36.3 1.93 14.55-2.84 12.06-8.8 7.13-10.44-4.97-20.61-13.1-31.51-22.6-5.99-8.3-13.64-20.37-4.74-28.95M483.52 79.87c.72-4.25 1.93-8.12 7.04-9.64 3.79-1.36 7.42-.89 10.69 3.8 11.71 11.25 16.15 22.62 21.58 33.92 3.23 7.31-.85 9.88-5.94 11.76-7.07 2.06-14.38 4.76-21.46 5.71-3.1 1.22-3.38-2.28-2.66-5.54-3.37-3.35-9.8.61-15.47 1.94-4.11-.27-3.96-3.97.14-8.2 5.51-2.34 8.76-5.17 13.7-9.73.08-2.24.25-5.11-.81-10.75-1.46-2.73-2.47-6.31-4.41-5.08-8.58 5.3-8.02.05-6.07-2.24 1.17-1.77 2.53-4.19 3.67-5.95m-35.56 36.15c-1.2-2.67-2.11-5.85 2.76-5.81 4.13-1.06 7.63-.97 11.78.7 3.15 1.78 4.13 4.36 2.88 7.81-3.78 6.08-7.93 12.14-12.28 18.21-5.67 2.42-7.81 1.26-6.41-3.51 2.07-4.23 3.58-8.74 4.5-13.52-1.08-1.32-2.14-2.6-3.23-3.88m75.39 12.16c7.39-2.87 12.61.06 15.71 8.75-.95 14.09-1.9 28.18-2.86 42.28-5.71 11.41-11.51 8.57-17.35 6.52-4.93-10.3-9.82-20.61-15.87-31.46-2.34-4.32-8.05-8.69 3.07-14.29 5.76-4.07 11.52-7.71 17.3-11.8m-4.22 68.34c3.06-2.39 6.93-4.77 12.2-5.54 4.8-2.66 6.57-1.77 5.35 2.76-2.91 11.74-6.33 23.21-11.46 33.86-4.49 8.16-11.19 5.81-11.24-.88 1.12-11.37 2.43-18.43 5.15-30.2m-5.15 59.38c2.43-4.51 6.56-5.33 11.82 1.17.94 4.37 1.44 8.59-.95 11.37-4.32 4.85-9.25 7.13-14.13 9.69-5.77 2.3-7.44 1.25-4.99-3.17 2.81-3.45 3.96-7.08 6.77-10.52.24-2.87 1.26-5.71 1.48-8.54m6.22 26.02c-5.91 2.78-11.99 6.32-17.91 7.98-7.52 4.05-4.31 11.31-.61 13.16 5.89 1.68 8.75 5.32 8.64 10.91-.13 5.57-2.2 6.36-4.59 6.45-2.27-1.94-4.33-4.4-6.1-7.42-3.02-3.78-4.89-2.34-5.64 4.31 1.53 4.35 3.7 7.57 6.84 9.16 7.8.97 15.65 1.3 23.42-.53 4.67.3 6.63-2.39 7.41-6.44-.08-9.85-.17-19.65-.25-29.46.25-8.77-2.22-14.3-11.21-8.12m6.38 49.52c6.67 1.15 9.39 7.17 5.59 12.24-4.61 3.45-8.78 7.22-14.08 9.31-3.27 1.15-5.81.26-6.81-5.3-2.72 6.51-6.12 9.1-11.94 8.57-8.01.87-16.65-3.69-11.11-10.77 3.42-1.92 7.58-4.48 16.12-4.41 7.63-5.4 14.55-9.26 22.23-9.64m2.48 18.62c-5.36 2.76-4.84 5.48-3.48 8.18 2.15 2.22 4.29 4.45 6.43 6.71-3.69.73-6.72 1.9-6.04 4.28-.29 2.87 1.86 2.65 4.9 2.43 2.73-2.87 5.57-3.22 8.27-6.07 3.61-1.18 6.94-3.26 10.23-5.4 1.85-3.73 1.12-6.97-1.77-11.32-2.89-2.73-5.84-4.16-9.71-3.88-4.29.59-6.59 2.8-8.83 5.07m18.59 17.25c4.6-3.93 8.79-4.19 12.44.95 4 9.93 7.98 19.82 11.98 29.72 3.92 9.27-1.04 12.04-6.3 14.61-7.84 1.44-13.28-1.59-18.14-5.89-2.78-5.77-5.94-11.54-10.45-17.29-3.23-4.39-7.1-8.73-.08-14.21 3.51-3.01 7.02-5.91 10.55-7.89m16.1 56.66c2.65.19 4.21 1.57 6.67 1.69 3.08.1 7.05-1 10.42-.78 8.89 1.47 9.64 8.13 7.53 14.18-6.05 7.04-11.64 12.87-19.42 18.57-10.06 3.87-16.65 2.79-17.73-4.79.99-4.57 2.88-7.81 5.59-10.71-1.09-4.4-1.35-8.64.25-12.42 1.57-2.43 3.03-4.99 6.69-5.74m27.86 19.67c3.08-1.67 6.06-1.61 8.87 2.4.02 4.01 1.26 7.34 2.59 10.62 2.12 5.51-1.68 7.81-6.32 9.65-7.04 1.56-12.68 1.28-17.4-.19-3.92-.43-5.63-2.67-2.57-8.87 3.26-5.76 7.53-10.83 14.83-13.61m18.62 30.5c6.38-1.43 10.52.48 10.42 6.18-3.38 6.69-11 11.23-21.53 15.01-5.05 1.03-7.21-.16-6.42-4.47 3.33-6.29 8.31-10.37 17.53-16.72m9.07 16.15c6.52-1.88 9.01 1.51 9.69 7.38-2.55 4.51-6.36 9.27-14.8 15-4.15 2.25-8.22 4.17-12.39 5.81-8.08-.33-10.59-3.61-7.53-9.9 1.95-3.99 4.25-7.87 9.14-10.7 5.3-3.04 10.59-6.5 15.89-7.59m33.48 54.76c3.1-1.9 12.74 5.84 10.02 9.49-2.97 3.4-6.76 6.75-10.89 12.52-.37 6.58-3.18 11.08-7.69 17.13-4.64 3.08-17.57 1.86-21.67-2.31-2.64-3.16-4.96-6.26-1.15-10.67 3.78-2.16 5.32-5.19 9.09-7.36-1.96-.65-1.42-1.86-6.1-.21-2.03-2.36-4.34-4.93-1.67-7.3 3.32-1.44 8.53-1.53 16.96-5.31 4.11-2.74 7.54-4.68 13.1-5.98m10.78 13.39c7.4-2.54 6.24 1.31 6.77 3.85-2.09 5.43-3.58 11.09-4.5 17.09-1.4 4.58-3.28 6.97-7.25 1.83-3.53-1.76-4.47-4.71-4.51-8.84 2.22-5.21 4.26-10.5 9.49-13.93m15.34 8.39c-7.94 3.47-8.13 8.51-4.87 14.23 1.46 5.21 5.91 9.8 13.24 13.78 26.51 8.59 44.75 9.02 59.24 6.83 8.25-.34 13.2-9.7 7.72-16.43-14.85-9.62-35.04-16.2-52.59-17.53-7.62-1.19-15.18-2.07-22.74-.88" fill="#3b6287" fill-rule="evenodd" clip-rule="evenodd"/><path d="M688.91 578.85c-8.33-1.75-6.79 1.59-3.85 5.72 3.93 3.12 9.17 5.87 16.62 8.99 12.63 1.64 23.87 2.07 35.29 1.94 7.08-2.32 5.96-2.99-1.11-5.19-11.88-2.65-22.64-6.37-34.5-9-4.13-.67-8.28-1.8-12.45-2.46m129.77-28.42c3.68 2.78 6.88 5.93 6.45 11.66-1.21 5.09-3.97 6.57-7.06 7.54-4.41-.64-6.78-3.35-8.91-6.32-5.38-4.75-21.1 11.3-33.2 19.44 2.46 5.38 4.08 9.66 4.17 12.16 0 5.54-3.98 4.28-7 1.55-3.7-3.92-7.53-6.62-12.37-7.58-6.16-4.48-4.81-9.18-.85-11.71 7.66-5.61 15.29-11.23 22.98-16.88 13.41-6.91 25.79-11.21 35.79-9.86" fill="#3b6287" fill-rule="evenodd" clip-rule="evenodd"/><path d="M829.57 539c-9.53 1.42-8.38 6.73-5.47 11.59 2.07 4.88 4.29 6.82 6.32 9.33-.64 2.64-2.46 5.25-3.15 7.85 1.78 4.71 2.9 5.51 8.73 1.92 2.24-2.92 4.01-8.3 4.69-12.34 8.97-1.38 17.52-1.94 23.87-7.6 2.66-2.38 4.95-.81 7.34-1.71 3.35 4.63 7.15 6.59 8.91 5.45 1.4-5.05.95-10.74.58-16.36-2.34-3.18-5.54-4.55-9.65-4.18-5.3 1.11-8.53 4.96-17.98 1.57-7.78-2.79-16.54 1.47-24.19 4.48m149.38-53.77c5.03 3.21 7.86 7.8 5.83 15.2-3.69 1.46-7.34 1.71-11.01.8-16.67 7.41-33.48 14.44-51.34 18.9-1.34 2.6.37 2.82 1.95 4.23 8.84-2.67 16.17-3.54 25.04-6.25 3.84 1.46 3.85 3.23.03 5.35-11.57 3.83-25.7 7.01-39.69 10.28-9.14.97-15.85 3.24-17.3 8.28.67 4.58 1.17 9.02.09 12.42-1.78 2.01-3.58 1.5-5.36-2.42-.47-6.15-1.78-9.94-4.04-14.88-1.29-3.7-.73-7.05 3.84-9.62 11.82-6.22 24.65-11.46 38.23-15.93 22.47-8.88 43.47-27.29 53.73-26.36" fill="#3b6287" fill-rule="evenodd" clip-rule="evenodd"/><path d="M1104.18 585.9c1.47-3.86 2.94-7.7 4.42-11.57 1.53-6.57.99-13.42-1.61-20.56-8.64-15.56-17.32-31.11-25.94-46.66-5.43-11.06-15.29-17.62-27.19-22.13-16.28-4.09-32.58-3.02-49.94 2.33-3.54 4.37-6.26 8.08-5.64 13.02-1.62 3.56-5.27 6.04-8.06 1.26-1.56-5.43-4.69-10.63-6.27-16.06-.55-5.55.38-11.07 7.52-13.74 13.88-.62 27.77-2.26 41.03-4.65 16.25-6.25 28.61-13.5 38.82-21.74 11.27-5.7 15.61-1.92 16.37 6.63.1 13.39 2.12 25.69 6.29 38.48 11.1 19.6 23.45 37.91 39.2 52.75 22.25 10.19 19.13 19.44 15.16 28.62-3.14 5.53-5.09 11.91-5.85 19.17.11.03.22.06.32.06.42 5.81.64 11.58.5 17.42-6.43 11.51-12.84 23.04-19.27 34.56-2.09 16.83-4.23 33.68-6.33 50.5-9.87 14.86-19.26 33.7-29.13 48.57-14.84 16.55-35 11.48-54.8 15.32-32.78-.16-63.67.42-100.32 6.24-21.01 6.45-46.76 15.52-78.55 18.79-27.45 3.34-55.18 7.71-80.24 1.14-9.85 1.5-20.14.32-29.98 1.84-7.57 9.01-40.11 9.98-46.69 8.3-28.36 5.75-56.76 11.53-85.13 17.28-14.41 2.54-29.04 9.65-43.95 23.43-18.37 23.19-36.55 44.12-54.88 67.33-8.77 5.09-17.89 10.25-27.26 8.04-7.15-2.27-15.21-4.56-24.61-6.81-5.05-.19-7.73-10.44-.16-20.62 25.03-18.41 49.4-33.03 57.24-53.59 1.79-4.36 3.61-8.72 5.43-13.08 8.81-1.9 13.99-.9 15.53 2.87-1.13 3.7-2.27 7.4-3.4 11.1-.77 5.8 1.05 7.12 5.84 3.94 2.31-3.5 9.65-11.71 11.96-15.27-2.81-.63-9.29 2.56-9.86.21-1.12-1.9-1.15-3.21-.02-4.01 2.62-2.88 6.13-4.07 10.5-3.6 9.39-1.64 21.38.31 28.37-6.19 5.87-5.47 11.32-6.62 16.71-2.55 2.56-1.63 6.67-2.74 5.21-6.51-1.85-4.75-2.9-10.11 8.67-12.3 15.97-3.12 32.63-8.51 45.13-.38 10.75 5.06 23.19 1.76 36.11-2.71 6.31-1.24 33.31-9.13 38.5-13.47 32.4-13.44 68.97-22.63 114.71-19.39 18.69 1.26 32.55-1.96 41.54-11.46 13.66-6.47 27.31-12.92 40.97-19.4 11.55-1.76 24.69-1.9 38.61-1.34 19.9 1.44 39.82 2.82 59.69 4.26 9.64 1.71 16.66-.23 21.51-1.37 12.35-9.38 17.8-23.52 26.58-36.4 6.03-12.21 10.82-24.24 16.88-36.48 2.89-7.8 6.25-16.01 7.1-24.4.1-3.47-2.28-1.87-3.55-.43-1.94 10.51-5.03 18.63-9.02 27.15-2.59 4.07-5.8 1.36-4.61-3.14 4.5-9.85 8.32-19.73 12.22-31.35.41-1.26 3.31-24.68 7.62-27.25m-673.7 291.04c-7.47 1.91-6.72 4.67-4.61 8.34 8.97 3.75 16.33 6.84 22.15 11.02 7.39-.78 9.54-4.31 6.44-12.24-.67-3.69-.95-7.57-8.09-8.43-5.35.19-10.53 1.07-15.89 1.31m210.79-347.77c5.33.71 5.47 4.54 4.92 8.84-1.1 2.07-1.09 2.15-2.16 4.19-5.14 1.76-4.56-.64-4.29-2.12.06-.5-1.58.33-2.19.06-3.92 3-8.37 5.21-12.9 9.38-4.52.7-6.17-1.55-6.49-4.2.47-2.73 2.87-7.71 9.88-10.46 5.13-2.51 7.5-4.37 13.23-5.69m-10.24-24.48c1.62-.99 3.34-1.84 5.57 1.87.05 2.6-.07 4.79-1.75 7.4 2.07 1.09 4.35 1.48 5.97 3.47 1.39 3.16 1.58 6.26-2.35 7.68-2.98-.74-5.95-.95-12.45.62-5.23 3.05-6.96 2.8-9.75 2.62-3.37-2.42-5.72-6.09-2.27-10.69 5.83-6.37 8.72-10.92 17.03-12.97M428.92 150.67c2.22-3.14 3.16-3.02 7.07-2.91 1.39 2.19 3.2 1.27 4.59 3.47 2.35-2.04 6.38-.32 7.62 3.12-.63 3.16-3.85 13.96-9.97 10.15-1.47-2.65-3.06-5.27-2.89-8.46-.03-.02-.09-.08-.11-.1-3.07-.55-5.43-1.94-6.31-5.27M281.99 526.03c2.55-4.01 8.37-7.32 19.21-5.87 3.59 1.76 7.48 5.99 8.34 9.43 3.96.14 6.24-1.37 10.17-1.25 7.12 1.53 7.09 6.93 3.83 14.05-3.24-.06-3.9 2.75-8.62-.72 1.26-5.8-2.57-5.65-6.31-4.79-1.44 4.72-3.27 8.26-5.84 9.17-4.69.93-6.45-1.12-6.25-5.2-.38-2.9-3.6-7.96-5.62-10.28-6.04 1.56-9.08-1.61-8.91-4.54m-32.41-77.3c1.26-4.59 4.23-6.02 9.32-6.76 4.79 1.58 7.68 6.24 10.87 7.93 2.48.78 3.72 2.17 4.57 5.73-1.6 4.96-4.49 7.46-9.45 5.85-1.87-2.07-3.77-4.13-5.68-6.21-1.29-1.35-4.02-1.72-6.96-1.92-1.91-.94-3.46-2.05-2.67-4.62m-91.6 61.16c7.33-.35 8.98 3.85 6.2 8.99-2.78 5.09-2.94 8.82-6.64 8.84-3.7.05-6.74-3.91-6.77-8.76-.06-4.84-.07-8.7 7.21-9.07m30.12 6.37c1.63 0 3.14 1.82 3.14 4.08.02 2.27-1.46 4.13-3.06 4.13-1.6.03-3.93-1.61-3.94-3.86-.03-2.29 2.28-4.35 3.86-4.35m203.74 175.8c2.26-.02 4.44 2.19 4.5 4.91.01 2.72-2.14 4.96-4.43 4.99-2.3.01-5.63-1.95-5.64-4.67-.02-2.74 3.26-5.23 5.57-5.23m58.54-64.6c2.28-.03 4.49 2.18 4.49 4.92.01 2.73-2.12 4.98-4.39 5-2.3 0-5.61-1.98-5.64-4.69-.03-2.73 3.26-5.21 5.54-5.23m-33.57 6.66c3.21-.02 6.2 2.17 6.26 4.92.02 2.71-2.98 4.98-6.18 5.01-3.19.01-7.84-1.92-7.87-4.67-.01-2.71 4.6-5.22 7.79-5.26m6.93 83.61c3.28-.03 6.4 2.66 6.42 5.96.01 3.32-3.05 6.05-6.32 6.05-3.31.02-8.08-2.32-8.09-5.64-.03-3.3 4.69-6.33 7.99-6.37m58.85-27.53c4.75-.02 9.26 2.89 9.27 6.53.02 3.67-4.43 6.66-9.17 6.68-4.75.06-11.62-2.52-11.65-6.2-.02-3.62 6.77-6.96 11.55-7.01m-138.83 8.34c2.14 0 4.15 2.03 4.17 4.57 0 2.56-1.98 4.65-4.08 4.67-2.15 0-5.25-1.85-5.28-4.36-.01-2.53 3.05-4.85 5.19-4.88m26.77 12.81c2.36 0 4.65 1.78 4.66 4.06.02 2.28-2.22 4.13-4.59 4.19-2.41 0-5.85-1.62-5.87-3.88-.03-2.28 3.41-4.37 5.8-4.37m-25.06-37.87c2.44 0 4.75 2.04 4.76 4.58.02 2.54-2.24 4.64-4.68 4.64-2.42.05-5.95-1.79-5.96-4.33-.04-2.55 3.44-4.87 5.88-4.89m-11.87-47.17c4.02-1.05 8.09-2.35 9.42 1.31 1.36 3.7-2.18 6.32-5.69 7.74-3.46 1.44-8.37 3.03-10.23-.8-1.83-3.82 2.45-7.23 6.5-8.25m-6.73-17.99c5.12-1.04 10.21-2.38 11.92 1.3 1.68 3.7-3.03 4.92-7.4 6.35-4.42 1.46-12.24 4.66-14.59.83-2.32-3.79 4.95-7.42 10.07-8.48m2.34 46.34c7.13.8 14.35 1.34 14.7 5.41.41 4.05-6.21 3.52-12.61 3.34-6.37-.19-18.07.07-19.2-4.32-1.14-4.38 10.02-5.23 17.11-4.43m-33.72-65.18c1.91-.02 3.75 1.8 3.75 4.11.05 2.26-1.77 4.16-3.68 4.16-1.91.02-4.69-1.62-4.73-3.91 0-2.27 2.73-4.36 4.66-4.36m7.59-16.62c2.49-.02 4.83 2.32 4.83 5.24.03 2.95-2.26 5.33-4.74 5.37-2.47.02-6.01-2.07-6.04-5.01-.02-2.93 3.49-5.6 5.95-5.6m-16.57-12.71c5.17-.03 8.43-.5 8.85 4.03.43 4.51-4.79 7.15-9.96 7.17-5.15.06-11.4-.39-11.41-3.35-.02-2.9 7.36-7.82 12.52-7.85m-54.72-33.23c2.97.53 4.98 2.04 4.98 4.28.05 2.26-2.78 3.93-4.91 3.95-2.15 0-4.43-1.08-5.27-3.86-.79-2.81 2.26-4.88 5.2-4.37m6.95 45.27c2.99-.44 5.55.14 6.3 2.3.69 2.14-1.11 3.99-3.68 5.47-2.52 1.48-5.85 1.78-6.99-1.45-1.12-3.17 1.41-5.88 4.37-6.32m6.99 10.91c3.55-.62 6.66.24 7.54 3.36.85 3.08-1.31 5.79-4.37 7.93-3.04 2.17-7.04 2.57-8.36-2.06-1.36-4.65 1.66-8.59 5.19-9.23m-44.12-39.72c1.88 0 3.63 1.38 3.68 3.1 0 1.72-1.74 3.1-3.61 3.13-1.9.02-4.59-1.19-4.6-2.92 0-1.71 2.67-3.25 4.53-3.31m24.76 57.51c1.85 1.19-2.71 6.57-6.25 12.19s-6.75 10.12-9.22 8.04c-2.48-2.07-1.41-7.61 2.63-12.52 3.98-4.92 10.95-8.87 12.84-7.71m150.72 64.12c8.1-.08 13.97 3.37 13.98 6.41.01 3.03-8.4 5.76-16.47 5.84-8.12.06-12.74-1.16-12.78-4.2-.04-3.04 7.14-7.97 15.27-8.05m-4.53-5.56c9.69-.02 15.04-3.56 13.14-7.31-1.91-3.78-6.72-4.68-13.23-4.1-6.57.54-8.44 1.54-10.95 4.81-2.5 3.26 1.33 6.63 11.04 6.6m72.66-6c6.85-.03 12.46 5.22 13.32 11.41.85 6.2-4.15 11.21-12.34 10.6-8.2-.59-12.46-4.6-12.52-10.38-.04-5.81 4.71-11.58 11.54-11.63m49.62-21.05c8.66-.08 15.76 5.47 16.84 11.97 1.06 6.49-5.27 11.78-15.64 11.16-10.38-.61-15.76-4.81-15.81-10.92-.06-6.09 5.94-12.14 14.61-12.21M352.94 512c8.59.67 10.04 3.43 10.05 7.73.03 4.33-4.44 7.85-9.91 7.9-5.51.06-8.64-3.1-10.05-7.77-1.47-4.6 1.31-8.56 9.91-7.86m-17.21-12.23c3.48 1.05 3.86 3.26 3.87 7.29.05 4.02-1.64 7.34-3.75 7.34-2.08.02-2.44-2.17-3.86-7.28-1.42-5.12.25-8.44 3.74-7.35m-.74-39.55c5.3-.05 9.64 3.62 9.67 8.16.01 4.53-4.25 8.29-9.53 8.32-5.27.06-9.59-3.62-9.64-8.16-.04-4.54 4.24-8.27 9.5-8.32m58.5 7.74c6.66 3.54 9.58 11.13 6.49 16.85-3.06 5.72-10.99 7.45-17.64 3.87-6.64-3.55-9.55-11.13-6.48-16.83 3.07-5.72 10.98-7.48 17.63-3.89m-36.61-39.65c2.5 1.03 4.99 2.84 5.21 5 .23 2.17-2.26 5.07-5.11 5.07-2.83.06-5.16-2.19-5.19-4.98-.04-2.77 2.6-6.1 5.09-5.09m46.74 2.47c4.24-1.27 6.72 2.82 6.16 6.74-.54 3.96-2.59 5.85-5.86 5.85-3.24.05-5.93-2.54-5.96-5.71-.01-3.24 1.44-5.65 5.66-6.88m42.27 25.01c5.22-1.16 8.3 2.59 7.62 6.19-.72 3.62-3.23 5.37-7.25 5.43-4.01 0-7.3-2.34-7.32-5.27-.04-2.95 1.76-5.18 6.95-6.35m-132.96-23.84c3.14-.02 5.69 2.62 5.71 5.83.05 3.24-2.47 5.89-5.61 5.92-3.12.06-5.28-2.56-5.29-5.81-.03-3.27 2.09-5.91 5.19-5.94m-10.99 16.58c3.14-.02 5.69 2.26 5.7 5.12.03 2.84-2.51 5.16-5.6 5.19-3.15.02-5.3-2.26-5.3-5.08-.03-2.86 2.09-5.21 5.2-5.23m-78.74-10.68c3.97-.02 7.28 2.89 7.29 6.52.02 3.67-3.22 6.64-7.21 6.67-3.99.02-6.75-2.92-6.78-6.53-.02-3.66 2.69-6.64 6.7-6.66m28.27-43.3c4-.02 7.29 2.39 7.3 5.43.02 2.98-3.22 5.46-7.21 5.52-3.99 0-6.75-2.43-6.77-5.43-.02-3.02 2.67-5.49 6.68-5.52m6.4-25.38c3.99-.02 7.26 2.39 7.28 5.38.02 3.03-3 6.73-6.98 6.75-4 .06-6.97-3.61-7-6.65-.02-2.99 2.71-5.46 6.7-5.48m28.51 9.85c2.76 0 5.04 1.66 5.05 3.75.02 2.09-2.06 4.69-4.84 4.69-2.78.05-4.84-2.52-4.85-4.59-.03-2.09 1.85-3.84 4.64-3.85m10.3-46.02c3.23-.02 5.89 2.62 5.95 5.88 0 3.24-2.43 7.29-5.69 7.29-3.23.06-5.64-3.92-5.65-7.21-.07-3.23 2.13-5.96 5.39-5.96m38.47 13.5c5.59-.05 10.21 3.58 10.22 8.06.05 4.45-4.18 9.99-9.79 10.04-5.59.07-9.74-5.41-9.75-9.9-.05-4.48 3.73-8.15 9.32-8.2m35.56-34.94c5.59 0 10.2 3.06 10.22 6.89.03 3.81-4.19 8.53-9.8 8.58-5.6.06-9.74-4.6-9.79-8.41-.01-3.84 3.77-6.98 9.37-7.06m21.88 36.61c5.13 2.23 8.06 6.93 6.53 10.43-1.55 3.52-7.36 6.08-12.47 3.85-5.11-2.25-7-8.21-5.45-11.72 1.53-3.5 6.29-4.81 11.39-2.56m-28.04 42.99c4.84 2.24 7.63 6.92 6.16 10.43-1.42 3.46-6.93 6.07-11.81 3.8-4.83-2.24-6.64-8.19-5.2-11.7 1.47-3.5 5.98-4.81 10.85-2.53m-28.3-97.66c3.53-.4 6.61 1.17 6.88 3.51.27 2.34-2.09 5.53-5.6 5.92-3.48.41-6.4-2.19-6.67-4.48-.27-2.37 1.88-4.56 5.39-4.95M226.41 410.2c3.37-.03 6.13 2.41 6.16 5.41.01 3.02-2.68 5.49-6.05 5.52-3.36.02-5.68-2.42-5.7-5.43-.03-3.01 2.23-5.46 5.59-5.5m-16.94-50.73c2.94-.02 5.32 1.75 5.37 3.95.01 2.23-2.34 4.06-5.3 4.06-2.92.03-4.92-1.75-4.92-3.95-.08-2.22 1.95-4.06 4.85-4.06m-50.63-66.82c1.96-1.71 4.63-1.91 5.92-.43 1.29 1.5 1.03 4.69-.91 6.4-1.95 1.72-4.65 1.08-5.94-.4-1.3-1.48-1.02-3.87.93-5.57m-15.56 8.49c3.58-3.14 7.37 1.06 11.66 3.76 4.28 2.7 5.83 5.73-.01 11.21-5.88 5.47-10.14 1-12.35-2.75-2.18-3.79-2.89-9.13.7-12.22m20.76-29.1c1.8-1.56 4.2-1.74 5.38-.38 1.21 1.36.99 4.26-.85 5.83-1.77 1.55-4.23 1-5.41-.35-1.16-1.37-.9-3.53.88-5.1m9.78 74.65c1.8-1.84 4.29-2.03 5.48-.42 1.22 1.61.69 4.41-1.12 6.25-1.79 1.86-4.03 1.82-5.27.23-1.18-1.61-.89-4.18.91-6.06m-32.75-5.41c2.49-.71 3.87-.2 4.96 2.3 1.09 2.54-.5 5.56-3.82 5.73-3.34.16-4.63-1.26-4.85-3.24-.27-1.99 1.19-4.1 3.71-4.79M98.38 504.02c1.8-.5 2.88-.16 3.65 1.72.79 1.84-.39 4.09-2.82 4.23-2.44.11-3.43-.95-3.61-2.41-.2-1.45.93-3.01 2.78-3.54m62.32-142.13c2.91-.8 4.6-.23 5.87 2.75 1.27 2.98-.63 6.53-4.55 6.7-3.9.22-5.41-1.45-5.72-3.78-.32-2.35 1.45-4.81 4.4-5.67m45.8 12.85c4.63-.06 8.43 3.12 8.48 7.01.03 3.93-3.74 7.16-8.36 7.18-4.61.06-7.81-3.12-7.84-7.05-.05-3.9 3.09-7.11 7.72-7.14m-22.85 69.81c2.88-.02 5.21 2.07 5.25 4.68.01 2.62-2.32 4.79-5.16 4.79-2.89.02-4.87-2.09-4.87-4.71-.05-2.6 1.9-4.73 4.78-4.76m-24.13-18.47c5.65 1.62 7.24 2.42 7.29 5.45.01 3.04-3.22 5.54-7.2 5.6-4 .02-5.06-.79-6.76-5.48-1.68-4.68.99-7.19 6.67-5.57m9.05 30.33c4.24-.02 7.76 3.11 7.78 6.98.03 3.85-3.44 7.02-7.68 7.07-4.26.03-7.2-3.06-7.23-6.98 0-3.85 2.87-7.05 7.13-7.07m75.39-144.39c5.09 2.6 7.61 8.02 6.66 9.88-.97 1.86-6.19 1.76-11.9.42-5.7-1.36-8.1-7.04-6.66-9.88 1.45-2.83 6.79-3.01 11.9-.42m-29.06-.1c8.21 2.24 8.05 9.48 5.23 12.04-2.82 2.51-6.16 2.82-11.88 1.29-5.69-1.57-8.12-8.82-6.67-12.03 1.44-3.2 5.12-3.51 13.32-1.3m69.06-9.11c5.86 2.98 8.74 9.16 7.63 11.32-1.1 2.15-8.1 4.32-14.64 2.74-6.54-1.53-8.28-10.33-6.64-13.57 1.67-3.24 7.79-3.45 13.65-.49M68.64 391.1c4.4 3.26 6.92 5.12 6.18 7.17-.75 2.08-4.61 2.51-8.77.59-4.17-1.9-6.89-4.59-6.31-7.48.57-2.87 4.5-3.56 8.9-.28m92.61-155.29c7.6-.06 14.06 4.67 14.09 8.8.03 4.04-6.16 8.05-13.74 8.1-7.61.08-13.86-3.84-13.87-7.9-.04-4.1 5.91-8.92 13.52-9m29.43-3.62c1.52-1.78 4.85-1.47 7.48.7 2.63 2.17 3.56 5.4 2.06 7.23-1.48 1.78-4.84 1.47-7.46-.72-2.64-2.17-3.56-5.4-2.08-7.21m41.89-10.37c1.59-1.91 7.05-2.01 9.86.33 2.84 2.33 3.85 5.85 2.26 7.79-1.62 1.94-5.22 1.59-8.06-.75-2.84-2.36-5.67-5.41-4.06-7.37m-36.58-27.92c1.29-1.59 6.61.17 8.93 2.11 2.32 1.91 3.96 5.99 2.66 7.58-1.31 1.55-5.11.07-7.42-1.85-2.34-1.9-5.5-6.25-4.17-7.84m12 14.33c1.63-2.02 7.48.82 10.37 3.23 2.9 2.41 6.42 7.71 4.76 9.71-1.63 1.98-7.01-.7-9.93-3.12-2.91-2.4-6.87-7.87-5.2-9.82m45.72-1.41c1.64-2 10.76 0 13.67 2.39 2.89 2.39 3.13 8.57 1.46 10.55-1.64 2-6.8-.29-9.67-2.7-2.92-2.39-7.13-8.27-5.46-10.24m-16.11 46.47c1.87-2.96 9.43-.67 13.67 2.4 4.25 3.08 6.03 8.62 2.73 11.17-3.29 2.57-10.52-.08-13.43-2.44-2.91-2.42-4.86-8.16-2.97-11.13m-24.81-75.6c9.17-.03 17.44 4.89 17.49 9.05.02 4.13-8.22 5.95-17.34 6.02-9.14.09-15.64-6.75-15.65-10.9-.02-4.17 6.36-4.06 15.5-4.17m73.42-41.58c2.31 0 4.18 1.57 4.2 3.48.01 1.94-1.85 3.49-4.15 3.55-2.31.03-4.17-1.57-4.21-3.47 0-1.92 1.88-3.51 4.16-3.56m8.6-60.21c2.59.61 3.62 2.97 3.63 6.67.03 3.68-1.55 6.7-3.53 6.72-1.99 0-3.16-2.5-3.69-6.68-.49-4.18.97-7.32 3.59-6.71m29.95-3.12c5.23 1.68 8.25 1.63 8.26 3.72 0 2.11-3.68 3.83-8.22 3.9-4.53.03-7.82-.63-8.27-3.78-.44-3.12 2.98-5.53 8.23-3.84m126.76 100.95c3.08-.03 4.68 2 4.68 4.28.05 2.28-2.44 4.15-5.49 4.15-3.08.02-5.61-1.8-5.62-4.07-.03-2.24 3.36-4.34 6.43-4.36m28.17-48.92c4.68-1.74 9.15-.56 9.94 1.62.79 2.16-2.35 6.13-7.04 7.85-4.65 1.75-9.95-1.12-10.75-3.26-.8-2.17 3.2-4.51 7.85-6.21m-2.88 135.45c5.32-1.59 9.95-.75 10.82 2.15.86 2.87-2.78 6.51-8.12 8.1-5.32 1.62-10.37.54-11.23-2.34-.85-2.9 3.2-6.31 8.53-7.91m-190.02-85.98c3.53-.02 7.7 4.6 7.71 8.13.03 3.51-2.31 4.98-5.84 5-3.51.03-6.43-2.81-6.45-6.34-.02-3.52 1.04-6.76 4.58-6.79m32.62 5.21c4.37 3.07 6.99 3.67 6.42 5.51-.51 1.82-4.27 2.36-8.38 1.14-4.09-1.19-6.76-2.22-6.45-5.48.33-3.3 4.03-4.23 8.41-1.17m-6.08 43.29c4.5-.02 8.24 4.01 8.24 6.18.02 2.14-3.66 3.92-8.14 3.98-4.51.03-8.22-1.71-8.22-3.86-.05-2.17 3.59-6.25 8.12-6.3m-6.74 24.79c5.39-.05 9.41 2.74 9.48 4.9 0 2.17-4.39 3.96-9.75 4.01-5.39 0-9.81-1.69-9.83-3.86-.02-2.14 4.71-5.02 10.1-5.05m7.31 20.73c5.88-.02 10.67 1.2 11.41 5.96.75 4.75-4.55 8.16-11.18 5.62-6.59-2.56-10.13-3.31-10.15-5.45-.04-2.13 4.03-6.08 9.92-6.13m42.76-11.95c4.41 3.11 4.13 7.89 2.94 9.68-1.26 1.76-5.85.71-10.27-2.39-4.43-3.08-7.04-6.29-5.78-8.06 1.21-1.79 8.67-2.29 13.11.77m40.7-87.57c3.1-.44 6.11 2.62 6.74 6.84.61 4.27-1.14 6.66-4.4 8.73-3.26 2.07-6.32-1.88-6.85-7.08-.49-5.21 1.43-8.07 4.51-8.49m-21.36 407c5.08-.02 9.25 4.01 9.27 8.99.03 4.99-4.04 9.1-9.1 9.15-5.07.01-9.23-4.02-9.29-9-.04-5 4.06-9.09 9.12-9.14m29.68 2.04c2.54-.03 4.6 1.99 4.65 4.48 0 2.49-2.02 4.53-4.56 4.56-2.55.06-4.63-1.98-4.64-4.48-.05-2.5 2-4.54 4.55-4.56m3.79 22.03c4.39-.05 7.1 2.56 7.14 5.04 0 2.5-3.53 4.57-7.92 4.59-4.33.06-7.94-1.98-7.96-4.45-.01-2.51 4.35-5.12 8.74-5.18m59.32-31.02c4.12-.06 8.65 3.8 7.54 7.28-1.13 3.48-5.23 6.44-7.41 7.41-2.24.97-7.5-3.23-7.54-7.3-.05-4.06 3.31-7.37 7.41-7.39m-56.83-30.41c3.34-.05 6.1 2.22 6.12 5.03.01 2.82-2.68 5.13-6.03 5.15-3.37.06-6.1-2.25-6.17-5.04-.01-2.79 2.71-5.12 6.08-5.14m65.74 249.6c2.87-.02 5.23 2.12 5.24 4.76.03 2.62-2.3 4.81-5.16 4.83-2.89 0-5.25-2.12-5.27-4.76-.02-2.64 2.32-4.81 5.19-4.83m32.98-16.12c7.61-.03 14.14 16.44.14 16.55-4.93.03-9-3.64-9.07-8.21-.03-4.53 3.98-8.29 8.93-8.34m-67.12-20.04c1.92 2.81-1.12 9.38-6.73 13.1-5.59 3.75-11.71 3.21-13.58.4-1.9-2.82 1.13-8.17 6.75-11.89 5.6-3.71 11.71-4.44 13.56-1.61m-70.78-4.04c3.08-.02 5.68.73 6.61 2.07-.37-.17-.79-.29-1.25-.25-1.31 0-2.36.88-2.36 1.99.01 1.06 1.07 1.94 2.4 1.94h.05c-1.28 1.05-3.23 1.88-5.39 1.88-3.81.06-6.94-1.57-6.96-3.55 0-1.98 3.05-4.05 6.9-4.08M129.81 441.1c4.47 1.06 8.35 3.02 7.69 5.92-.71 2.9-4.92 4.44-9.35 3.35-4.47-1.05-7.58-4.27-6.9-7.17.71-2.9 4.07-3.15 8.56-2.1m-35.62 25.19c4.4 1.34 8.77 1.59 9.62-1.28.88-2.84-2.02-6.26-6.41-7.61-4.4-1.33-8.68-.08-9.55 2.79-.87 2.84 1.93 4.76 6.34 6.1" fill="#3b6287" fill-rule="evenodd" clip-rule="evenodd"/><path d="M768.54 678.89c3.21 0 7.12 2.47 7.15 5.55 0 3.12-3.84 5.68-7.08 5.7-3.19.03-5.85-2.46-5.89-5.56-.01-3.12 2.6-5.67 5.82-5.69m118.37-36.4c2.41-.05 5.27 3.99 5.28 7.86.06 3.9-2.75 5.87-5.16 6.29-2.4.47-4.43-3.14-4.44-7.05-.05-3.91 1.92-7.1 4.32-7.1M205.39 495.28c2.42 0 4.42 1.61 4.43 3.62.03 2-1.94 3.64-4.39 3.68-2.44 0-4.44-1.61-4.44-3.62-.04-2 1.94-3.63 4.4-3.68m17.5 9.7c3.43-1.77 6.99-1.74 7.87.05.93 1.82-1.11 6.07-4.55 7.8-3.43 1.75-8.34.56-9.26-1.23-.92-1.79 2.54-4.89 5.94-6.62M441.36 1000c-35.65-18.78-74.26-33.68-118.65-40.95-16.35.78-35.83 6.93-42.57 31.55" fill="#3b6287" fill-rule="evenodd" clip-rule="evenodd"/><path d="M351.34 45.67c0 5.43-4.38 9.81-9.8 9.81-5.41 0-9.81-4.39-9.81-9.81 0-5.43 4.4-9.8 9.81-9.8 5.43 0 9.8 4.38 9.8 9.8m289.72 467.05c0 5.43-4.4 9.8-9.8 9.8-5.43 0-9.82-4.37-9.82-9.8 0-5.43 4.4-9.81 9.82-9.81 5.4 0 9.8 4.39 9.8 9.81m-3.01 26.14c0 5.43-4.4 9.8-9.8 9.8-5.43 0-9.82-4.37-9.82-9.8 0-5.43 4.4-9.81 9.82-9.81 5.4-.01 9.8 4.38 9.8 9.81m-218.8 325.66c0 5.43-4.4 9.8-9.8 9.8-5.43 0-9.82-4.37-9.82-9.8 0-5.43 4.4-9.81 9.82-9.81 5.4 0 9.8 4.38 9.8 9.81" fill="#004b1c"/><path d="M905.49 892.66v-.6h11.67v.6h-.7c-.65 0-1.17.12-1.56.34-.27.15-.48.41-.65.78-.11.26-.18.94-.18 2.04v10.75c0 2.1-.21 3.64-.62 4.59-.42.95-1.17 1.75-2.24 2.39-1.08.64-2.36.96-3.88.96-1.84 0-3.34-.49-4.47-1.46-1.14-.97-1.71-2.05-1.71-3.22 0-.75.23-1.37.69-1.83.47-.47 1.04-.7 1.71-.7.66 0 1.2.21 1.65.63.46.42.68.94.68 1.55 0 .31-.04.57-.12.8-.03.11-.21.38-.5.81-.3.44-.45.75-.45.93 0 .28.13.52.42.73.4.3.94.45 1.6.45.47 0 .85-.12 1.15-.36.3-.23.51-.61.65-1.11.12-.5.18-1.9.18-4.18v-11.73c0-1.12-.06-1.82-.18-2.1-.13-.28-.37-.52-.74-.74-.36-.21-.85-.32-1.46-.32h-.94zm22.67-1.05v17.95c0 1.35.06 2.21.18 2.58.11.37.37.67.75.91.37.23.98.36 1.81.36h.5v.6h-11.56v-.6h.58c.94 0 1.61-.11 2.01-.32.4-.22.67-.51.81-.89.13-.38.21-1.25.21-2.64v-11.38c0-1.02-.06-1.65-.15-1.9-.1-.26-.28-.47-.55-.65s-.57-.27-.91-.27c-.55 0-1.22.17-2.01.52l-.29-.59 8.08-3.69h.54z"/><path d="M916.28 939.34c-20.08 0-36.42-16.34-36.42-36.42s16.34-36.43 36.42-36.43c20.08 0 36.42 16.34 36.42 36.43s-16.35 36.42-36.42 36.42zm0-69.61c-18.29 0-33.18 14.89-33.18 33.19 0 18.3 14.89 33.18 33.18 33.18s33.18-14.89 33.18-33.18c0-18.3-14.89-33.19-33.18-33.19z"/><path d="M633.7 512.72c0 1.35-1.1 2.44-2.46 2.44-1.35 0-2.46-1.1-2.46-2.44 0-1.36 1.11-2.46 2.46-2.46 1.37.01 2.46 1.1 2.46 2.46" fill="#f5ee6d"/><path d="M392.91 62.93c.63-.06.95-.26.95-.61 0-.26-.15-.43-.43-.53-.35-.11-.79-.23-1.31-.35-.45-.18-.68-.39-.68-.63 0-.65.32-.95.96-.89.14.01.28.02.4.02.44 0 1.13-.21 2.06-.64.1-.05.24-.07.4-.07.2 0 .38.08.52.25.14.17.22.35.22.55 0 .23-.13.42-.38.57-.22.1-.44.21-.67.31.41.36.63.84.65 1.44.01.42-.16.79-.52 1.12-.77.71-1.89 1.07-3.36 1.07-.15 0-.48-.01-1-.03-2.15 1.78-3.65 2.92-4.49 3.43-1.36.82-2.24 1.2-2.65 1.16-.23-.05-.45-.29-.68-.72-.2-.4-.3-.73-.3-1 0-.22.06-.39.19-.49.13-.07.27-.1.42-.1.11 0 .29.02.53.06.24.04.41.06.53.06.38 0 .74-.11 1.1-.34 1.62-1.05 2.77-1.84 3.47-2.38a.97.97 0 0 1-.12-.4c0-.33.08-.6.24-.8.42-.53.91-.78 1.49-.76.71.03 1.14.29 1.26.78.52-.03.92-.06 1.2-.08zm-1.97-10.58c-.69-.05-1.07-.11-1.15-.16-.31-.2-.46-.44-.46-.73 0-.4.21-.69.64-.87.51-.09.93-.12 1.25-.09.4.04.86.15 1.38.33.37.13.7.36 1 .69.23.26.34.56.34.91 0 .5-.26 1.03-.77 1.59-.4.44-.88.82-1.42 1.12-.85.49-1.57.76-2.17.81a.948.948 0 0 1-.72-.2c-.2-.16-.29-.38-.29-.67 0-.44.22-.69.65-.75.38-.05.73-.16 1.06-.32.24-.12.55-.3.95-.56.55-.35.82-.61.82-.79 0-.14-.37-.25-1.11-.31zm5.06.03c-.69-.05-1.07-.11-1.15-.16-.31-.2-.46-.44-.46-.73 0-.4.21-.69.64-.87.51-.09.93-.12 1.25-.09.4.04.86.15 1.38.33.37.13.7.36 1 .69.23.26.34.56.34.91 0 .5-.26 1.03-.77 1.59-.4.44-.88.82-1.42 1.12-.85.49-1.57.76-2.17.81a.948.948 0 0 1-.72-.2c-.2-.16-.29-.38-.29-.67 0-.44.22-.69.65-.75.38-.05.73-.16 1.06-.32.24-.11.55-.3.95-.56.55-.35.82-.61.82-.79 0-.14-.37-.25-1.11-.31zm6.55 10.28c-.49.03-.82.05-.99.05-.44 0-.67-.25-.67-.74 0-.41.27-.69.81-.83l.98-.25c1.14-.51 1.85-1 2.13-1.46.16-.26.41-.38.76-.38.11.02.25.09.41.2.3.21.44.48.41.8-.13.22-.26.37-.38.45-.29.22-.48.36-.57.43 1.38-.16 2.21-.25 2.5-.29.29.04.43.23.43.56 0 .27-.05.45-.14.55l-.57.36c-2.17 1.37-4.06 2.53-5.68 3.48-1.89 1.12-3.15 1.86-3.77 2.22-.38.22-.85.47-1.43.78-.1.05-.21.08-.31.08-.3 0-.56-.21-.78-.63-.19-.36-.28-.7-.28-1.03 0-.33.15-.49.43-.49.11 0 .26.01.47.03.21.02.36.04.47.04.33 0 .63-.06.9-.18a.22.22 0 0 0 .08-.03h.01v.01c.01-.01.02-.01.03-.02l.8-.42c1.78-.95 3.74-2.13 5.87-3.53-.94.1-1.59.19-1.92.24zm1.09 7.09c.2 0 .38.1.53.29.15.19.22.39.22.6 0 .11-.1.28-.31.52-.22.18-.76.51-1.62.98l-2.83 1.55c-.55.3-.93.48-1.13.53-.11.05-.23.08-.34.08-.2 0-.32-.07-.38-.2-.16-.37-.24-.59-.24-.66 0-.39.23-.64.69-.75 1.7-.83 3.39-1.77 5.07-2.82.11-.08.23-.12.34-.12zm9.22-6.31c0-.4.26-.68.79-.85.46-.15.95-.34 1.45-.57-.3-.14-.55-.27-.73-.37-.4-.24-.62-.43-.66-.58-.06-.2-.06-.39.01-.56.07-.2.22-.3.42-.32.81-.07 1.51-.33 2.1-.76.3-.22.57-.32.81-.32.05 0 .1.01.13.03.2.13.34.29.4.5.02.06.03.23.03.5-.01 0-.03.03-.07.1-.08.13-.2.24-.34.32-.14.12-.25.2-.31.24-.24.15-.38.23-.41.25-.18.1-.27.17-.27.22.01.02.06.04.17.07.58.16.87.41.87.76 0 .06-.04.17-.12.32-.16.17-.28.29-.37.35-.44.32-.77.55-1 .67-.22.16-.32.22-.32.17.01.03.11.15.3.34.11.16.18.27.2.31.01.05.01.09.01.13 0 .28-.28.59-.83.93-4.33 2.63-6.81 3.97-7.43 4.02-.26.02-.53-.17-.79-.58-.24-.35-.37-.67-.39-.97-.05-.46.15-.7.6-.7.13 0 .27.01.42.03.05.01.29.01.7.01.22 0 .43-.03.66-.1.85-.37 1.52-.69 2.02-.97 1.21-.67 2.16-1.24 2.86-1.7-.61-.34-.91-.66-.91-.92zm4.2-11.01c-.69-.05-1.07-.11-1.15-.16-.31-.2-.46-.44-.46-.73 0-.4.21-.69.64-.87.51-.09.93-.12 1.25-.09.4.04.86.15 1.38.33.37.13.7.36 1 .69.23.26.34.56.34.91 0 .5-.26 1.03-.77 1.59-.4.44-.88.82-1.42 1.12-.85.49-1.57.76-2.17.81a.948.948 0 0 1-.72-.2c-.2-.16-.29-.38-.29-.67 0-.44.22-.69.65-.75.38-.05.73-.16 1.06-.32.24-.12.55-.3.95-.56.55-.35.82-.61.82-.79 0-.14-.37-.25-1.11-.31zm117.28 432.79c.63-.06.95-.26.95-.61 0-.26-.15-.43-.43-.53-.35-.11-.79-.23-1.31-.35-.45-.18-.68-.39-.68-.63 0-.65.32-.95.96-.89.14.01.28.02.4.02.44 0 1.13-.21 2.06-.64.1-.05.24-.07.4-.07.2 0 .38.08.52.25.15.17.22.35.22.55 0 .23-.13.42-.38.57-.22.1-.44.21-.67.31.41.36.63.84.65 1.44.01.42-.16.79-.52 1.12-.77.71-1.89 1.07-3.36 1.07-.15 0-.48-.01-1-.03-2.15 1.78-3.65 2.92-4.49 3.43-1.36.82-2.24 1.2-2.65 1.16-.23-.05-.45-.29-.68-.72-.2-.4-.3-.73-.3-1 0-.22.06-.39.19-.49.13-.07.27-.1.42-.1.11 0 .29.02.53.06.24.04.41.06.53.06.38 0 .74-.11 1.1-.34 1.62-1.05 2.77-1.84 3.47-2.38a.97.97 0 0 1-.12-.4c0-.33.08-.6.24-.8.42-.53.91-.78 1.49-.76.71.03 1.14.29 1.26.78.52-.03.92-.05 1.2-.08zm-1.97-10.57c-.69-.05-1.07-.11-1.15-.16-.31-.2-.47-.44-.47-.73 0-.4.21-.69.64-.87.51-.09.93-.12 1.25-.09.4.04.86.15 1.38.33.37.13.7.36 1 .69.23.26.34.56.34.91 0 .5-.26 1.03-.77 1.59-.4.44-.88.82-1.42 1.12-.85.49-1.57.76-2.17.81a.948.948 0 0 1-.72-.2c-.2-.16-.29-.38-.29-.67 0-.44.22-.69.65-.75.38-.05.73-.16 1.06-.32.24-.12.55-.3.95-.56.55-.35.82-.61.82-.79.01-.15-.36-.25-1.1-.31zm5.07.03c-.69-.05-1.07-.11-1.15-.16-.31-.2-.47-.44-.47-.73 0-.4.21-.69.64-.87.51-.09.93-.12 1.25-.09.4.04.86.15 1.38.33.37.13.7.36 1 .69.23.26.34.56.34.91 0 .5-.26 1.03-.77 1.59-.4.44-.88.82-1.42 1.12-.85.49-1.57.76-2.17.81-.28.03-.52-.04-.72-.2s-.29-.38-.29-.67c0-.44.22-.69.65-.75.38-.05.73-.16 1.06-.32.24-.11.55-.3.95-.56.55-.35.82-.61.82-.79.01-.15-.36-.25-1.1-.31zm6.44 11.37c-.59.48-1.33.99-2.22 1.53-1.02.61-1.68.95-2 1-.04.01-.09.01-.15.01-.36 0-.67-.2-.93-.61-.23-.36-.34-.71-.34-1.05 0-.32.16-.49.48-.52.02 0 .06 0 .13-.01a.81.81 0 0 1 .22 0c-.03 0 .15.01.54.04.36.03.58.03.65 0 .45-.17 1.03-.47 1.75-.91 1.04-.64 1.85-1.27 2.45-1.9-.21-.15-.32-.36-.34-.64-.03-.34.17-.66.61-.97.39-.29.76-.44 1.12-.44.57 0 .87.28.91.83.13.05.45-.1.98-.46.15-.13.44-.34.85-.63.13-.02.24-.03.32-.03.12 0 .21.02.27.05.22.12.36.29.43.52.03.2-.03.42-.16.65-.13.23-.2.37-.19.41.01.09.06.13.16.14.4.03 1-.38 1.81-1.23.34-.26.58-.39.73-.38.21.01.44.21.69.6.12.2.09.44-.08.73-.5.82-1.21 1.43-2.14 1.81-.45.19-.86.29-1.23.3-.73.03-1.15-.26-1.26-.88-.29.01-.82 0-1.58-.01-.24.21-1.05.89-2.48 2.05zm4.5-12.2c.2 0 .38.1.53.29.15.19.22.39.22.6 0 .21-.1.38-.3.5-.8.51-1.7 1.03-2.7 1.58l-1.76.96c-.56.3-.94.48-1.13.53-.11.05-.23.08-.34.08-.2 0-.32-.07-.38-.2-.16-.37-.24-.59-.24-.66 0-.39.23-.64.69-.75 1.7-.83 3.39-1.77 5.07-2.82a.65.65 0 0 1 .34-.11zm12.53 7.51c.32.01.59.1.83.27.49.35.82.81 1 1.39.03.21.04.32.04.34-.02.76-.29 1.4-.82 1.94-.61.48-1.4.7-2.37.67-.84-.03-1.6-.4-2.27-1.13-.47.17-.92.37-1.36.6-.03.01-.04.04-.04.07 0 .01.15.21.43.62.29.41.43.68.42.82-.02.53-.36.99-1.01 1.36-.44.25-1.15.49-2.14.71-.29.07-.68.12-1.17.17-.2.02-.38-.11-.57-.39-.16-.24-.25-.46-.27-.69-.06-.51.08-.77.41-.77.14 0 .37.05.68.14.31.09.54.14.7.14.05 0 .18-.01.38-.03.03-.01.1-.03.21-.05.13-.05.28-.1.45-.17.34-.13.52-.27.52-.41 0-.05-.17-.28-.53-.69-.32-.38-.49-.65-.49-.83 0-.13.05-.26.14-.4.05-.16.28-.37.67-.64 1.5-1.01 3.22-1.94 5.17-2.8.38-.17.71-.25.99-.24zm-2.09 10.68c.2 0 .38.1.53.29.15.19.22.39.22.6 0 .11-.1.28-.31.52-.22.18-.76.51-1.62.98l-2.83 1.55c-.55.3-.93.48-1.13.53-.11.05-.23.08-.34.08-.2 0-.32-.07-.38-.2-.16-.37-.24-.59-.24-.66 0-.39.23-.64.69-.75 1.7-.83 3.39-1.77 5.07-2.82.11-.08.23-.12.34-.12zm.36-8.01c.01.07.14.14.39.22.2.05.42.08.68.07.26-.01.48-.07.66-.19.19-.12.29-.26.31-.43.01-.38-.17-.57-.54-.56-.17.01-.44.09-.82.25-.44.26-.67.47-.68.64z"/><path d="M666.79 508.65c1.05-.1 1.57-.44 1.57-1 0-.42-.24-.71-.72-.87-.58-.19-1.31-.38-2.18-.59-.75-.3-1.12-.65-1.12-1.04 0-1.08.53-1.57 1.59-1.47.23.02.46.03.67.03.73 0 1.86-.35 3.41-1.05.17-.08.39-.12.67-.12.33 0 .62.14.86.41.24.27.36.58.36.91 0 .38-.21.69-.64.94-.37.17-.74.34-1.1.52.68.6 1.04 1.39 1.07 2.38.02.69-.26 1.31-.85 1.86-1.28 1.18-3.13 1.77-5.55 1.77-.25 0-.8-.02-1.66-.05-3.56 2.94-6.03 4.84-7.43 5.67-2.25 1.35-3.71 1.99-4.38 1.92-.38-.08-.75-.47-1.12-1.19-.33-.66-.5-1.21-.5-1.66 0-.37.11-.64.32-.82.21-.11.45-.17.7-.17.19 0 .48.03.87.09s.68.09.87.09c.62 0 1.23-.19 1.82-.57 2.68-1.73 4.59-3.04 5.74-3.93-.13-.27-.2-.49-.2-.67 0-.55.13-.99.4-1.32.69-.87 1.51-1.29 2.46-1.25 1.18.04 1.88.47 2.09 1.29.86-.03 1.51-.07 1.98-.11zm-3.26-17.5c-1.14-.09-1.77-.18-1.91-.27-.51-.32-.77-.73-.77-1.2 0-.66.35-1.14 1.05-1.44.85-.16 1.54-.21 2.07-.15.66.07 1.42.25 2.29.55.61.21 1.17.59 1.66 1.14.38.42.57.93.57 1.51 0 .83-.42 1.7-1.27 2.63-.67.74-1.45 1.36-2.34 1.86-1.41.8-2.6 1.25-3.6 1.34-.47.04-.86-.07-1.19-.33s-.49-.64-.49-1.1c0-.73.36-1.14 1.07-1.24.62-.09 1.21-.27 1.76-.54.39-.19.91-.5 1.57-.92.9-.58 1.36-1.02 1.36-1.31.01-.26-.6-.43-1.83-.53zm8.38.05c-1.14-.09-1.77-.18-1.91-.27-.51-.32-.77-.73-.77-1.2 0-.66.35-1.14 1.05-1.44.85-.16 1.54-.21 2.07-.15.66.07 1.42.25 2.29.55.61.21 1.17.59 1.66 1.14.38.42.57.93.57 1.51 0 .83-.42 1.7-1.27 2.63-.67.74-1.45 1.36-2.34 1.86-1.41.8-2.6 1.25-3.6 1.34-.47.04-.86-.07-1.19-.33s-.49-.64-.49-1.1c0-.73.36-1.14 1.07-1.24.62-.09 1.21-.27 1.76-.54.39-.19.91-.5 1.57-.92.9-.58 1.36-1.02 1.36-1.31.01-.26-.6-.43-1.83-.53zm10.82 17.01c-.8.06-1.35.08-1.64.08-.74 0-1.1-.41-1.1-1.22 0-.68.45-1.14 1.34-1.37l1.62-.42c1.89-.85 3.06-1.65 3.53-2.41.27-.42.69-.64 1.25-.64.18.03.41.15.69.33.5.35.73.79.69 1.32-.22.36-.44.61-.64.75-.48.36-.79.59-.94.7 2.29-.26 3.66-.42 4.13-.49.48.07.72.37.72.92 0 .45-.08.75-.23.9l-.94.6c-3.59 2.26-6.73 4.18-9.4 5.76-3.13 1.85-5.21 3.08-6.24 3.68-.62.36-1.41.79-2.36 1.29-.17.09-.34.13-.52.13-.49 0-.92-.35-1.29-1.04-.31-.59-.47-1.16-.47-1.71s.24-.82.72-.82c.18 0 .44.02.78.06.34.04.6.06.78.06.55 0 1.04-.1 1.49-.3.07-.02.11-.04.13-.05h.02v.02c.01-.01.03-.02.05-.03l1.32-.7c2.94-1.57 6.19-3.52 9.72-5.84-1.59.22-2.67.35-3.21.44zm1.81 11.73c.33 0 .62.16.87.48.25.32.37.65.37 1 0 .18-.17.46-.52.85-.37.3-1.26.84-2.68 1.62l-4.68 2.56c-.91.5-1.54.79-1.87.87-.19.09-.38.13-.57.13-.32 0-.54-.11-.64-.33-.27-.61-.4-.98-.4-1.09 0-.65.38-1.06 1.14-1.24a92.48 92.48 0 0 0 8.4-4.67c.19-.12.39-.18.58-.18zm15.22-10.44c0-.66.44-1.13 1.31-1.41.77-.25 1.57-.56 2.39-.94-.5-.23-.9-.44-1.2-.62-.66-.4-1.02-.72-1.09-.95-.1-.33-.09-.64.02-.92.12-.32.36-.5.7-.54 1.34-.12 2.5-.54 3.48-1.25.49-.36.94-.54 1.34-.54.09 0 .16.02.22.05.33.21.56.49.67.82.03.1.05.38.05.84-.01 0-.05.06-.12.17-.13.22-.32.4-.57.54-.23.2-.41.33-.52.4-.4.25-.63.38-.69.42-.3.17-.45.29-.45.37.01.03.11.07.28.12.96.27 1.44.69 1.44 1.25 0 .1-.07.28-.2.54-.26.28-.46.47-.62.59-.73.54-1.28.9-1.66 1.1-.36.27-.54.36-.54.28.01.06.18.25.5.57.18.27.29.44.33.52.01.08.02.15.02.22 0 .47-.46.98-1.37 1.54-7.17 4.35-11.27 6.57-12.3 6.66-.43.03-.87-.28-1.31-.95-.39-.58-.61-1.12-.65-1.61-.08-.77.25-1.15.99-1.15.21 0 .45.02.7.05.09.01.47.02 1.15.02.36 0 .72-.06 1.09-.17 1.41-.61 2.52-1.15 3.35-1.61 2-1.12 3.58-2.05 4.74-2.81-.98-.63-1.48-1.16-1.48-1.6zm7.06-17.16c-.84.77-1.25 1.38-1.25 1.82 0 .06.02.1.07.13-.06.1.14.16.59.18.95.06 1.61-.01 1.99-.18.23-.04.45-.07.64-.07 1.15 0 1.72.45 1.72 1.36 0 .83-.37 1.28-1.1 1.37-.48.12-1.19.18-2.12.18-3.19 0-4.79-.96-4.79-2.88 0-.27.03-.47.1-.62.37-1.23 1.15-2.35 2.36-3.38.59-.51.99-.86 1.19-1.05.32-.3.79-.57 1.39-.8.19-.08.33-.1.44-.07.95.3 1.42.86 1.42 1.67 0 .4-.31.76-.92 1.09-.89.59-1.46 1-1.73 1.25z" fill="#bd0e72"/><path d="M582.8 554.14c.63-.06.95-.26.95-.61 0-.26-.14-.43-.43-.53-.35-.11-.79-.23-1.31-.35-.45-.18-.68-.39-.68-.63 0-.65.32-.95.96-.89.14.01.28.02.4.02.44 0 1.13-.21 2.06-.64.1-.05.24-.07.4-.07.2 0 .38.08.52.25.14.17.22.35.22.55 0 .23-.13.42-.38.57-.22.1-.44.21-.67.31.41.36.63.84.65 1.44.01.42-.16.79-.52 1.12-.78.71-1.89 1.07-3.36 1.07-.15 0-.48-.01-1-.03-2.15 1.78-3.65 2.92-4.49 3.43-1.36.82-2.24 1.2-2.65 1.16-.23-.05-.45-.29-.68-.72-.2-.4-.3-.73-.3-1 0-.22.06-.39.19-.49.13-.07.27-.1.42-.1.11 0 .29.02.53.06.24.04.41.06.53.06.38 0 .74-.11 1.1-.34 1.62-1.05 2.77-1.84 3.47-2.38a.97.97 0 0 1-.12-.4c0-.33.08-.6.24-.8.42-.53.91-.78 1.49-.76.71.03 1.14.29 1.26.78.52-.03.92-.05 1.2-.08zm-1.97-10.57c-.69-.05-1.07-.11-1.15-.16-.31-.2-.47-.44-.47-.73 0-.4.21-.69.64-.87.51-.09.93-.12 1.25-.09.4.04.86.15 1.38.33.37.13.7.36 1 .69.23.26.34.56.34.91 0 .5-.26 1.03-.77 1.59-.4.44-.88.82-1.42 1.12-.85.49-1.57.76-2.17.81-.28.03-.52-.04-.72-.2s-.29-.38-.29-.67c0-.44.22-.69.65-.75.38-.05.73-.16 1.06-.32.24-.12.55-.3.95-.56.55-.35.82-.61.82-.79.01-.15-.36-.25-1.1-.31zm5.06.03c-.69-.05-1.07-.11-1.15-.16-.31-.2-.47-.44-.47-.73 0-.4.21-.69.64-.87.51-.09.93-.12 1.25-.09.4.04.86.15 1.38.33.37.13.7.36 1 .69.23.26.34.56.34.91 0 .5-.26 1.03-.77 1.59-.4.44-.88.82-1.42 1.12-.85.49-1.57.76-2.17.81-.28.03-.52-.04-.72-.2s-.29-.38-.29-.67c0-.44.22-.69.65-.75.38-.05.73-.16 1.06-.32.24-.11.55-.3.95-.56.55-.35.82-.61.82-.79.01-.15-.36-.25-1.1-.31zm2.62 13.52c-.34.19-.6.28-.78.28-.38 0-.67-.24-.86-.73-.16-.41-.24-.73-.24-.94 0-.35.18-.53.54-.53.13 0 .32.02.56.06.25.04.43.06.56.06.13 0 .24-.02.31-.06.57-.3 1.05-.59 1.46-.86.57-.38 1.31-.98 2.22-1.8-.27-.15-.4-.4-.4-.76 0-.05 0-.11.01-.17.16-.75.63-1.12 1.4-1.12.58 0 .94.19 1.09.58.38.02.85-.08 1.42-.3.99-.39 1.53-.59 1.62-.59.33 0 .59.25.78.74.05.14.08.31.08.49 0 .68-.39 1.62-1.16 2.81-.51.78-.96 1.26-1.37 1.42a.31.31 0 0 1-.08.02c-.12 0-.29-.09-.5-.28-.25-.23-.37-.42-.37-.59 0-.12.13-.34.38-.65.36-.44.58-.71.65-.81.18-.27.34-.58.48-.94 0-.11-.05-.14-.14-.1-.5.21-1.08.33-1.74.37-1.8 1.75-3.76 3.21-5.92 4.4zm10.1-15.02c.53.09.8.36.81.79.01.46-.62.88-1.88 1.26-.61.18-1.03.51-1.27.97.15.18.42.31.81.37.36.03.83.09 1.41.2.31.14.43.41.35.84-.1.55-.49.83-1.17.83-.53 0-1.19-.15-1.98-.44-.59-.22-.98-.57-1.15-1.05-.82.7-2.01 1.15-3.59 1.33-.29.03-.57 0-.84-.11-.34-.14-.51-.34-.51-.61 0-.49.23-.8.7-.91.33 0 .77-.06 1.33-.17.79-.16 1.34-.42 1.66-.77-.06-.26-.38-.47-.97-.64-.14-.03-.52-.07-1.13-.14-.34-.11-.52-.32-.52-.63 0-.05.01-.12.03-.23.11-.61.52-.89 1.22-.84.4.03.8.09 1.19.2.79.22 1.41.7 1.87 1.47.45-.53.87-.91 1.26-1.12.43-.24 1.1-.44 2.02-.62.1-.01.21-.01.35.02zm9.9 8.53c.2-.09.33-.15.39-.17.16-.07.35.04.56.32.14.19.22.37.22.56.01.15-.12.34-.39.57-.77.65-1.87 1.38-3.31 2.18-2.01 1.13-3.32 1.7-3.93 1.74-.24.01-.46-.07-.67-.26-.21-.19-.31-.4-.31-.63 0-.13.24-.46.73-.98.36-.59.58-1.1.64-1.52l-.06-1.09c-.03-.51.1-.82.37-.93.24-.09.44-.13.61-.1.41.07.64.4.7 1.01.03.38.05.61.05.69 0 .62-.14 1.15-.43 1.59.56-.22 2.18-1.21 4.83-2.98zm-1.21-6.35c-.51.47-.76.83-.76 1.1 0 .03.01.06.04.08-.03.06.08.1.35.11.57.03.97 0 1.2-.11.14-.03.27-.04.38-.04.69 0 1.04.27 1.04.82 0 .5-.22.77-.67.83-.29.07-.72.11-1.28.11-1.93 0-2.89-.58-2.89-1.74 0-.16.02-.29.06-.37.22-.74.7-1.42 1.43-2.04.36-.31.6-.52.72-.64.2-.18.48-.34.84-.49.11-.05.2-.06.26-.04.57.18.86.52.86 1.01 0 .24-.19.46-.56.66-.51.36-.86.6-1.02.75zm-227.07 348.1c.63-.06.95-.26.95-.61 0-.26-.14-.43-.43-.53-.35-.11-.79-.23-1.31-.35-.45-.18-.68-.39-.68-.63 0-.65.32-.95.96-.89.14.01.28.02.4.02.44 0 1.13-.21 2.06-.64.1-.05.24-.07.4-.07.2 0 .38.08.52.25.15.17.22.35.22.55 0 .23-.13.42-.38.57-.22.1-.44.21-.67.31.41.36.63.84.65 1.44.01.42-.16.79-.52 1.12-.77.71-1.89 1.07-3.36 1.07-.15 0-.48-.01-1-.03-2.15 1.78-3.65 2.92-4.49 3.43-1.36.82-2.24 1.2-2.65 1.16-.23-.05-.45-.29-.68-.72-.2-.4-.3-.73-.3-1 0-.22.06-.39.19-.49.13-.07.27-.1.42-.1.11 0 .29.02.53.06.24.04.41.06.53.06.38 0 .74-.11 1.1-.34 1.62-1.05 2.77-1.84 3.47-2.38a.97.97 0 0 1-.12-.4c0-.33.08-.6.24-.8.42-.53.91-.78 1.49-.76.71.03 1.14.29 1.26.78.52-.03.92-.06 1.2-.08zm-1.97-10.58c-.69-.05-1.07-.11-1.15-.16-.31-.2-.46-.44-.46-.73 0-.4.21-.69.64-.87.51-.09.93-.12 1.25-.09.4.04.86.15 1.38.33.37.13.7.36 1 .69.23.26.34.56.34.91 0 .5-.26 1.03-.77 1.59-.4.44-.88.82-1.42 1.12-.85.49-1.57.76-2.17.81a.948.948 0 0 1-.72-.2c-.2-.16-.29-.38-.29-.67 0-.44.22-.69.65-.75.38-.05.73-.16 1.06-.32.24-.12.55-.3.95-.56.55-.35.82-.61.82-.79 0-.14-.37-.25-1.11-.31zm5.07.03c-.69-.05-1.07-.11-1.15-.16-.31-.2-.46-.44-.46-.73 0-.4.21-.69.64-.87.51-.09.93-.12 1.25-.09.4.04.86.15 1.38.33.37.13.7.36 1 .69.23.26.34.56.34.91 0 .5-.26 1.03-.77 1.59-.4.44-.88.82-1.42 1.12-.85.49-1.57.76-2.17.81-.28.03-.52-.04-.72-.2s-.29-.38-.29-.67c0-.44.22-.69.65-.75.38-.05.73-.16 1.06-.32.24-.11.55-.3.95-.56.55-.35.82-.61.82-.79 0-.14-.37-.25-1.11-.31zm7.5 16.81c.2 0 .38.1.53.29.15.19.22.39.22.6 0 .11-.1.28-.31.52-.22.18-.76.51-1.62.98l-2.83 1.55c-.55.3-.93.48-1.13.53-.11.05-.23.08-.34.08-.2 0-.32-.07-.38-.2-.16-.37-.24-.59-.24-.66 0-.39.23-.64.69-.75 1.7-.83 3.39-1.77 5.07-2.82.1-.08.22-.12.34-.12zm1.17 1.83c.2 0 .38.1.53.29.15.19.22.39.22.6 0 .11-.1.28-.31.52-.22.18-.76.51-1.62.98l-2.83 1.55c-.55.3-.93.48-1.13.53-.11.05-.23.08-.34.08-.2 0-.32-.07-.38-.2-.16-.37-.24-.59-.24-.66 0-.39.23-.64.69-.75 1.7-.83 3.39-1.77 5.07-2.82.11-.08.22-.12.34-.12zm2-11.6c.2-.09.33-.15.39-.17.16-.07.35.04.56.32.14.19.22.37.22.56.01.15-.12.34-.39.57-.77.65-1.87 1.38-3.31 2.18-2.01 1.13-3.32 1.7-3.93 1.74-.24.01-.46-.07-.67-.26-.21-.19-.31-.4-.31-.63 0-.13.24-.46.73-.98.36-.59.58-1.1.64-1.52l-.06-1.09c-.03-.51.1-.82.37-.93.24-.09.44-.13.61-.1.41.07.64.4.7 1.01.03.38.05.61.05.69 0 .62-.14 1.15-.43 1.59.57-.22 2.18-1.21 4.83-2.98zm6.47 2.54c-.07-.15-.1-.33-.1-.52 0-.45.19-.74.58-.88.07-.05.19-.08.33-.08.26 0 .75.13 1.49.39l2.01-1.05c1.04-.55 1.6-.84 1.67-.87.09-.07.19-.1.3-.1.4 0 .63.23.71.68.01.08.02.15.02.21 0 .16-.17.35-.51.56-1.31.6-2.16 1.02-2.55 1.25.6.14 1.06.35 1.37.62.11.16.17.33.18.5.03.32-.05.58-.22.76-.25.26-.59.34-1.02.22-.44-.12-.74-.19-.89-.23-.37-.1-.79-.23-1.24-.38-1.45.99-2.57 1.72-3.37 2.19-1.47.87-2.52 1.34-3.14 1.4-.2.02-.42-.08-.65-.31-.32-.32-.48-.76-.48-1.31 0-.36.23-.54.7-.54.1 0 .26.01.46.03.21.02.36.03.47.03.22 0 .4-.03.57-.08.71-.33 1.26-.6 1.64-.82.69-.4 1.37-.85 2.02-1.33-.2-.15-.31-.26-.35-.34zm4.98-10.41c.2 0 .38.1.53.29.15.19.22.39.22.6 0 .21-.1.38-.3.5-.8.51-1.7 1.03-2.7 1.58l-1.76.96c-.56.3-.94.48-1.13.53-.11.05-.23.08-.34.08-.2 0-.32-.07-.38-.2-.16-.37-.24-.59-.24-.66 0-.39.23-.64.69-.75 1.7-.83 3.39-1.77 5.07-2.82.1-.07.22-.11.34-.11z"/></svg>