<?xml version="1.0" standalone="no"?>
<!DOCTYPE svg PUBLIC "-//W3C//DTD SVG 20010904//EN"
 "http://www.w3.org/TR/2001/REC-SVG-20010904/DTD/svg10.dtd">
<svg version="1.0" xmlns="http://www.w3.org/2000/svg"
 width="2292.000000pt" height="2292.000000pt" viewBox="0 0 2292.000000 2292.000000"
 preserveAspectRatio="xMidYMid meet">
<metadata>
Created by potrace 1.14, written by Peter Selinger 2001-2017
</metadata>
<g transform="translate(0.000000,2292.000000) scale(0.100000,-0.100000)"
fill="#000000" stroke="none">
<path d="M7059 22916 c-2 -2 -53 -7 -114 -10 -60 -4 -128 -9 -150 -11 -22 -2
-67 -7 -100 -10 -33 -3 -76 -7 -95 -9 -19 -3 -60 -7 -91 -11 -31 -3 -65 -7
-75 -9 -11 -2 -41 -7 -69 -10 -27 -4 -75 -11 -105 -16 -30 -5 -66 -11 -80 -13
-34 -6 -114 -20 -120 -22 -3 -1 -27 -5 -55 -9 -27 -5 -88 -17 -135 -28 -47
-11 -96 -22 -110 -25 -95 -17 -473 -122 -655 -182 -447 -147 -870 -333 -1290
-566 -77 -42 -152 -86 -167 -96 -14 -11 -29 -19 -33 -19 -19 0 -480 -310 -644
-433 -140 -105 -324 -254 -422 -341 -25 -23 -85 -77 -135 -121 -242 -217 -631
-635 -816 -875 -235 -307 -390 -533 -552 -803 -58 -97 -106 -179 -106 -182 0
-2 -14 -27 -30 -56 -53 -90 -280 -547 -280 -565 0 -4 -34 -82 -76 -172 -13
-29 -24 -57 -24 -63 0 -5 -8 -29 -19 -52 -10 -23 -30 -76 -45 -117 -15 -41
-31 -84 -36 -96 -45 -114 -186 -582 -215 -714 -2 -8 -13 -53 -24 -100 -11 -47
-23 -101 -26 -120 -3 -19 -10 -51 -15 -70 -5 -19 -11 -48 -14 -65 -2 -16 -9
-55 -15 -85 -6 -30 -13 -71 -16 -90 -3 -19 -8 -42 -10 -50 -2 -8 -7 -40 -10
-70 -3 -30 -8 -62 -10 -70 -2 -8 -6 -35 -9 -60 -3 -25 -10 -85 -17 -135 -6
-49 -13 -112 -15 -140 -2 -27 -6 -72 -9 -100 -2 -27 -8 -102 -12 -165 -10
-147 -11 -8894 -1 -9015 12 -138 19 -216 24 -260 2 -22 6 -65 9 -95 3 -30 10
-89 16 -130 6 -41 13 -91 15 -110 3 -19 10 -62 15 -95 6 -33 13 -76 15 -95 8
-66 65 -336 110 -520 127 -522 310 -1019 554 -1510 101 -202 153 -300 249
-460 47 -80 88 -148 89 -153 9 -19 226 -343 288 -428 72 -100 258 -342 284
-370 8 -9 24 -27 34 -40 21 -26 112 -134 136 -160 194 -215 409 -434 559 -569
46 -41 93 -84 104 -95 25 -24 258 -217 308 -257 28 -21 83 -63 204 -155 64
-49 145 -106 270 -190 495 -331 1038 -608 1595 -810 266 -97 638 -207 872
-257 85 -19 370 -76 403 -81 22 -3 78 -12 125 -20 82 -13 244 -35 305 -40 44
-4 154 -15 199 -20 148 -17 765 -20 4681 -20 3870 0 4517 3 4650 20 17 2 62 7
100 10 39 3 80 7 91 9 11 2 50 7 86 10 37 4 75 8 85 10 10 2 41 7 68 10 96 13
120 17 170 26 28 6 66 12 86 15 20 3 101 19 180 36 79 16 155 32 169 35 260
54 866 244 1095 343 11 5 61 26 110 46 227 92 694 322 787 387 14 10 28 18 31
18 9 0 153 87 297 178 215 137 459 311 639 457 21 17 57 46 81 65 24 19 48 40
54 45 6 6 36 30 65 55 30 25 64 54 76 65 11 11 54 49 94 85 141 124 449 437
576 585 33 39 62 72 65 75 17 15 168 201 242 295 222 286 457 644 633 966 58
105 235 454 235 463 0 2 15 37 34 78 41 87 88 199 122 288 14 36 29 74 34 85
66 159 217 631 260 815 5 19 16 64 25 100 22 88 73 328 85 404 5 33 12 72 15
86 14 78 34 213 40 264 4 32 8 68 10 80 4 21 10 78 20 178 3 29 7 76 10 103 3
28 8 104 13 170 10 160 9 8834 -1 9000 -4 72 -10 144 -12 160 -2 17 -7 57 -9
90 -6 72 -14 148 -21 195 -3 19 -7 58 -10 85 -3 28 -8 61 -10 75 -3 14 -7 43
-11 65 -3 22 -7 47 -9 55 -2 8 -7 33 -10 55 -5 40 -9 63 -20 115 -2 14 -7 41
-10 60 -8 47 -62 290 -81 365 -9 33 -18 69 -20 80 -2 11 -13 52 -24 90 -12 39
-23 78 -25 88 -24 109 -157 493 -253 732 -57 143 -75 186 -144 335 -41 88
-170 346 -198 395 -12 22 -41 74 -63 115 -22 41 -55 99 -74 128 -18 29 -33 54
-33 57 0 4 -18 33 -69 115 -137 217 -386 568 -515 725 -23 27 -48 58 -56 69
-8 10 -22 26 -30 35 -8 9 -55 64 -105 121 -178 208 -480 513 -661 670 -22 19
-69 60 -105 91 -128 113 -391 319 -535 419 -241 169 -576 378 -734 460 -36 19
-73 40 -82 48 -10 9 -18 12 -18 7 0 -4 -6 -3 -12 3 -18 14 -319 164 -408 202
-41 18 -93 40 -115 50 -178 80 -769 292 -875 314 -14 3 -50 12 -80 21 -30 9
-62 18 -71 20 -9 2 -34 8 -55 14 -53 15 -392 91 -429 97 -16 2 -41 6 -55 9
-14 3 -65 13 -115 21 -128 21 -135 22 -185 29 -25 3 -52 8 -60 10 -8 2 -44 6
-80 10 -36 3 -81 8 -100 10 -49 6 -112 13 -200 21 -41 3 -95 8 -120 11 -51 6
-8935 15 -8941 9z"/>
</g>
</svg>
